<?xml version="1.0" encoding="utf-8"?>
<!-- Generator: Adobe Illustrator 21.1.0, SVG Export Plug-In . SVG Version: 6.00 Build 0)  -->
<svg version="1.1" id="Layer_1" xmlns="http://www.w3.org/2000/svg" xmlns:xlink="http://www.w3.org/1999/xlink" x="0px" y="0px"
	 viewBox="0 0 260 225" style="enable-background:new 0 0 260 225;" xml:space="preserve">
<style type="text/css">
	.st0{fill:#FFFFFF;stroke:#FFFFFF;stroke-linecap:round;stroke-linejoin:round;stroke-miterlimit:10;}
	.st1{fill:#FFFFFF;stroke:#FFFFFF;stroke-width:1.5259;stroke-linecap:round;stroke-linejoin:round;stroke-miterlimit:10;}
	.st2{fill:#FFFFFF;}
	.st3{fill:#FFFFFF;stroke:#FFFFFF;stroke-width:2.5;stroke-linecap:round;stroke-linejoin:round;stroke-miterlimit:10;}
	.st4{filter:url(#Adobe_OpacityMaskFilter);}
	.st5{mask:url(#SVGID_1_);}
	.st6{fill:#74C5BE;}
	.st7{filter:url(#Adobe_OpacityMaskFilter_1_);}
	.st8{mask:url(#SVGID_2_);fill:#74C5BE;}
	.st9{filter:url(#Adobe_OpacityMaskFilter_2_);}
	.st10{mask:url(#SVGID_3_);fill:#74C5BE;}
	.st11{fill:#E50040;}
	.st12{fill:#00305D;}
	.st13{fill:#5A380F;}
	.st14{fill:#F59C40;}
	.st15{fill:#FFD500;}
	.st16{fill:#C1D100;}
	.st17{fill:#41C0EE;}
	.st18{fill:#52AE32;}
	.st19{fill:#BC60A1;}
	.st20{fill:#007230;}
	.st21{fill:#E83583;}
	.st22{fill:#873E90;}
	.st23{fill:#312783;}
	.st24{fill:#389AD6;}
	.st25{fill:#EF7900;}
	.st26{fill:#97509A;}
	.st27{fill:#2B94D2;}
	.st28{fill:#297A40;}
	.st29{fill:#41BFE7;}
	.st30{fill:#C0D124;}
	.st31{fill:#DFE15A;}
</style>
<g>
	<g>
		<rect x="201.3" y="83.5" class="st0" width="4.3" height="2.7"/>
		<rect x="217.3" y="176.8" class="st1" width="7.5" height="3.7"/>
		<rect x="127.6" y="186.4" class="st1" width="7.5" height="3.7"/>
		<rect x="40.9" y="102" class="st2" width="46.4" height="22.6"/>
		<rect x="38.2" y="184" class="st2" width="61.4" height="22.6"/>
		<rect x="135.1" y="186.3" class="st2" width="15.2" height="22.6"/>
		<rect x="173.1" y="183.4" class="st2" width="15.4" height="11.5"/>
		<rect x="196.1" y="184.2" class="st2" width="30.2" height="25.4"/>
		<g>
			<g>
				<path class="st3" d="M61.4,125.4c-0.1,0-0.1,0-0.2,0c-1.9,0.1-2.2-1.5-3.7-1.6c-2.1,0-3.4,1.1-5.1-0.7c-1.2-1.2-0.6-0.9-2.1-0.7
					c-0.7,0.1-2,0.5-2.6,0c-0.6-0.6-0.1-1.4-0.7-1.9l-0.8-0.2c-0.7,0.1-1.3,0.8-1.9,1c-1.8,0.6-2-0.4-2-2.1c0,0,0,0,0,0v-0.3
					c0,0.1,0,0.2,0,0.3c0,0,0-0.1,0.1-0.1l0.2-1.4c-1.5,1.7-2,4.8-0.9,6.9l22.6,44.1L61.4,125.4z"/>
				<path class="st3" d="M115.2,139.9L93.8,98c-1.4-2.8-4.9-4-7.8-2.5l-18,9.2c9.2,0.9,16,4.2,16,8.1v6.3c0.1,0.6,0.1,1.2-0.4,1.6
					c-0.6,0.6-0.5-0.1-1,0.1c-0.5,0.2-0.7,0.5-1.1,0.8c-1.2,0.7-2,0.6-3.2,0.3c-1.5-0.5-1.9-0.6-3.2,0.4c-1.1,0.8-1.8,1.7-3.3,1.7
					c-0.8,0-1.7-0.5-2.6-0.3c-0.8,0.2-0.8,0.8-1.5,1.1c-0.8,0.4-1.6,0.2-2.5,0.1c-0.1,0-0.2,0-0.3,0l-0.8,43c1.7,1.7,4.4,2.2,6.6,1
					l41.9-21.4C115.5,146.2,116.6,142.7,115.2,139.9z"/>
			</g>
			<path class="st3" d="M86.9,84.6L65.5,42.7c-1.4-2.8-4.9-4-7.8-2.5L15.8,61.6c-2.8,1.4-4,4.9-2.5,7.8l21.4,41.9
				c1.4,2.8,4.8,3.9,7.6,2.6v-1c0-4.3,8-7.8,18.2-8.3l1.5-0.8l0.1-1v-4.1c0-7.3,0.5-13.3,1.1-13.3c0.6,0,1.1,6,1.1,13.3v4l20.2-10.3
				C87.2,90.9,88.4,87.4,86.9,84.6z"/>
			<path class="st3" d="M141.9,56.5c1.4,2.8,0.3,6.3-2.5,7.8L97.5,85.6c-2.8,1.4-6.3,0.3-7.8-2.5L68.3,41.2
				c-1.4-2.8-0.3-6.3,2.5-7.8L112.8,12c2.8-1.4,6.3-0.3,7.8,2.5L141.9,56.5z"/>
			<path class="st3" d="M170.2,111.8c1.4,2.8,0.3,6.3-2.5,7.8L125.8,141c-2.8,1.4-6.3,0.3-7.8-2.5L96.6,96.5
				c-1.4-2.8-0.3-6.3,2.5-7.8L141,67.3c2.8-1.4,6.3-0.3,7.8,2.5L170.2,111.8z"/>
			<g>
				<g>
					<path class="st3" d="M196.7,90.3c0,0,29.1-7.1,50.6-2.1l0.1-0.2c0,0-18.8-5.6-50.3,1.2L196.7,90.3z"/>
					<path class="st3" d="M217.3,76.1c-0.6,0-1.7,0.2-2.4,1.5c-0.1-0.3-0.4-1-1.3-1.4c-0.3-0.1-0.6-0.1-0.9-0.1
						c-0.6,0-1.1,0.2-1.5,0.5c-0.4,0.3-0.5,0.6-0.6,0.9v-1.2h-2.2v7.8l-3.6-11H202l-3.7,12h2.7l0.7-2.5h3.5l0.7,2.5h4.7v-3.9
						c0-1.7,0-2.3,0.7-2.7c0.2-0.1,0.4-0.2,0.6-0.2c0.4,0,0.7,0.2,0.9,0.5c0.2,0.4,0.2,0.8,0.2,1.8V85h2.2v-4.3c0-0.7,0-1.4,0.2-1.9
						c0-0.1,0.3-0.5,1-0.5c0.3,0,0.7,0.1,0.9,0.5c0.2,0.4,0.3,0.7,0.3,2.1V85h2.2v-4.7c0-2,0-2.8-0.8-3.6
						C218.6,76.3,218,76.1,217.3,76.1z M202.2,80.3l1.1-4.6l1.2,4.6H202.2z M228.7,76.3l-1.2,5.5l-1.2-5.5h-2l-1.2,5.5l-1.2-5.5
						h-2.3l2.3,8.8h2.1l1.3-5.9l1.3,5.9h2.1l2.3-8.8H228.7z M243.2,76.3l-1.3,5.9l-1.4-5.9H238v0h-2.1v1.1c-0.4-0.8-1.1-1.3-1.9-1.3
						c-1.5,0-3.4,1.3-3.4,4.7c0,2.7,1.4,4.4,3.3,4.4c1.3,0,1.8-0.7,2.1-1.1v1h2.2v-8.7l2.4,7.6c0.1,0.2,0.2,0.5,0.2,0.7
						c0,0.4-0.2,0.7-0.3,0.9c-0.2,0.2-0.7,0.2-0.9,0.2h-0.6v1.9c0.2,0,0.3,0,0.6,0c1.8,0,2.3-0.2,2.7-0.6c0.4-0.5,0.7-1.5,0.9-2.1
						l2.5-8.7H243.2z M235.1,82.7c-0.4,0.5-0.8,0.5-1,0.5c-0.4,0-0.9-0.3-1.2-1c-0.2-0.4-0.2-1-0.2-1.5c0-0.7,0.1-1.4,0.5-1.9
						c0.3-0.4,0.7-0.6,1.1-0.6c0.3,0,0.7,0.2,0.9,0.4c0.3,0.3,0.6,0.9,0.6,2C235.7,81.3,235.6,82.1,235.1,82.7z"/>
				</g>
			</g>
			<g>
				<path class="st3" d="M106.8,181.9c-0.1-2.2-2-4-4.2-4c-2.3,0-4.1,1.8-4.2,4h-5.3V210h26.5c2.4,0,3.6-1.1,3.6-3.2v-24.8H106.8z
					 M118.4,204.5c0,0.7-0.4,1.1-1.2,1.1H98V202h20.4V204.5z M118.4,197.8H98v-3.6h20.4V197.8z M118.4,190H98v-3.7h20.4V190z"/>
				<path class="st3" d="M157.9,186.2v-4.6h-15.2c-0.2-2.1-2-3.8-4.2-3.8c-2.2,0-4,1.6-4.2,3.8h-6.6v4.6h6.3l-2.4,3.6
					c-0.4,0.7-0.9,1-1.5,1h-2.8v5h2.7v14.6h4.9v-16.7l4.9-7.5H157.9z M149.4,205v-6.9h7.9v-4.6h-7.9v-5.3h-5.3v5.3h-7.7v4.6h7.7v6.9
					h-8.5v4.6h23V205H149.4z"/>
				<path class="st3" d="M76.4,194.4h7.8c1.3,0,3.1-0.3,3.9-1.1c0.8-0.8,1.6-2.1,1.8-3.9h-4.5c-0.3,0.7-0.8,1-1.5,1H58.6v4h12.3v2.8
					H58v4h11c-2.7,2.9-4.1,4.3-4.1,4.3c-0.6,0.5-1.4,0.7-2.5,0.7h-4.3v3.9h6.1c2.1,0,3.6-0.6,4.7-1.7l4.7-4.8l4.2,4.7
					c1.1,1.2,3,1.8,5.6,1.8h5.7v-3.9h-3.9c-1.1,0-2-0.2-2.7-0.7c0,0-1.4-1.4-4.3-4.3h11v-4H76.4V194.4z M67.2,182.9
					c2.5,0,4.6,2.1,4.6,4.6v0h4.4v0c0-2.5,2.1-4.6,4.6-4.6s4.6,2.1,4.6,4.6h4.4c0-5-4.1-9-9-9c-2.7,0-5.2,1.2-6.8,3.1
					c-1.7-1.9-4.1-3.1-6.8-3.1c-5,0-9,4.1-9,9h4.4C62.5,184.9,64.6,182.9,67.2,182.9z M64.9,186.7c0,1.1,0.9,2,2,2c1.1,0,2-0.9,2-2
					c0-1.1-0.9-2-2-2C65.8,184.7,64.9,185.6,64.9,186.7z M78.9,186.7c0,1.1,0.9,2,2,2c1.1,0,2-0.9,2-2c0-1.1-0.9-2-2-2
					C79.8,184.7,78.9,185.6,78.9,186.7z"/>
				<path class="st3" d="M31.4,188.5H28c0.3-0.1,0.5-0.4,0.7-1l2.9-8.1h-4.7l-1.4,4.2c-0.2,0.6-0.4,0.8-0.7,0.8h-1.2v4.2H27l-1.3,4
					c-0.2,0.6-0.4,0.8-0.7,0.8h-1.3v4.2h1.5v12.6h4.5v-15.7l1.9-5.3V188.5z M42.9,191.7H32.1v3.6h10.8V191.7z M50.6,187.6l-1.8,5.8
					l-0.8-2.1h-4.3l3.2,8.5l-1.8,5.8c-0.2,0.6-0.4,0.8-0.7,0.8h-0.6v-0.5h-0.4c-0.5,0-0.7-0.2-0.7-0.7V197h-4v10.3
					c0,1.3,0.8,2,2.4,2h2.4v1h3.2c1.1,0,1.9-0.8,2.3-2.5l0.3-1.2l0.3,1c0.5,1.8,1.4,2.7,2.7,2.7h2.5v-3.8h-0.6
					c-0.4,0-0.8-0.2-0.9-0.8l-2.1-5.6l3.6-12.5H50.6z M32.1,204.9c0,1.1-0.3,1.6-0.8,1.6h-1.1v3.5h2.6c1,0,1.8-0.3,2.3-0.9
					c0.7-0.7,1-1.6,1-2.6V197h-4.1V204.9z M50.1,182l0.7-2.6h-4.3l-1.1,5.8c-0.1,0.8-0.3,1.1-0.5,1.1h-0.6l-0.6,2.3v1.7h3.5
					c0.5,0,0.8-0.4,1-1.3l0.8-3.1h5.9V182H50.1z M37.6,190.5c3,0,5.4-2.4,5.4-5.4v-5.1h-2.8v5.1c0,1-0.6,1.9-1.5,2.3v-7.5h-2.4v7.4
					c-0.8-0.4-1.3-1.3-1.3-2.3v-5h-2.8v5C32.2,188,34.6,190.5,37.6,190.5z"/>
			</g>
			<g>
				<polygon class="st3" points="194.9,202.5 182.2,203.7 181.6,200.7 195.4,200.7 				"/>
				<polygon class="st3" points="194.1,208 180.9,208 181,206.4 194.4,205.2 				"/>
				<polygon class="st3" points="173.9,185.1 167.4,178.7 176.1,181.6 				"/>
				<polygon class="st3" points="172.2,193.4 166.4,186.3 176.7,191.4 				"/>
				<polygon class="st3" points="171.5,209.6 166.7,205.9 177.4,193.9 				"/>
				<rect x="179.5" y="186.4" class="st3" width="17.7" height="1.8"/>
				<polygon class="st3" points="197.8,184.8 178.9,183.7 178.9,182 197.9,182 				"/>
				<polygon class="st3" points="189.2,191.3 187,191.5 186.7,178.9 189.3,178.4 				"/>
				<polygon class="st3" points="182.8,212.1 178.5,211.6 180.1,195.8 182.8,195.8 				"/>
				<polygon class="st3" points="196.7,198.2 180.1,198.2 180.1,195.8 196.9,194.7 				"/>
				<polygon class="st3" points="197.6,212.1 193.7,212.2 195.4,194.4 197.6,194.4 				"/>
				<polygon class="st3" points="197.9,193.1 178.9,193.1 179,191.8 197.9,190.3 				"/>
			</g>
			<g>
				<g>
					<path class="st3" d="M234.2,210l-2.1,3.4c0,0-25.1-5.6-25-5.4l-2.7,5.6l-2.5-4l3.8-3.1l-0.1-7.9l-3.4,1.3l-0.2-2.8l6.3-0.8
						l0.4,10L234.2,210z"/>
				</g>
				<polygon class="st3" points="225.4,204.6 225.3,200.1 228.1,203.9 				"/>
				<polygon class="st3" points="201.7,184.6 202.2,179.8 209.6,186 				"/>
				<polygon class="st3" points="209.2,193.3 200.1,191.8 202.1,188.3 				"/>
				<rect x="212.6" y="189.1" class="st3" width="17.7" height="1.6"/>
				<polygon class="st3" points="231,183.6 211.2,182.8 210.8,181.7 230.3,180.8 				"/>
				<polygon class="st3" points="216.9,185.5 215.3,185.5 214.6,178.3 216.9,178.5 				"/>
				<polygon class="st3" points="225.3,185.5 223.7,185.5 223.7,178.5 226,178.9 				"/>
				<g>
					<path class="st3" d="M231.2,195.1l-19.6-0.7l0.4-9.8l19.5,0.9L231.2,195.1z M212.8,193.7l16.2-1.4v-5.2l-15.5,0.7L212.8,193.7z
						"/>
				</g>
				<g>
					<polygon class="st3" points="231.3,207.8 227.1,207.2 227.1,206.3 229.6,204.4 229,198.9 213.3,198 213,206.5 210.5,205.5 
						212.6,196.5 232.1,196.7 					"/>
				</g>
				<g>
					<polygon class="st3" points="221.9,203.3 220.3,203.1 219.4,187.3 221.9,187.3 					"/>
				</g>
				<polygon class="st3" points="226.3,203.9 215.8,204.9 214.8,201.9 226.3,202.8 				"/>
			</g>
			<polygon class="st3" points="212.7,174.4 228.8,174.4 201.8,151.5 			"/>
			<polygon class="st3" points="212.7,116.9 228.8,174.4 201.8,151.5 			"/>
			<polygon class="st3" points="212.7,116.9 228.6,125 215.2,126 			"/>
			<polygon class="st3" points="212.7,116.9 178.7,139.3 201.8,151.5 			"/>
			<polygon class="st3" points="212.7,116.9 178.7,139.3 129.3,121.3 140.2,114.1 170.9,103.9 			"/>
			<polygon class="st3" points="111.4,93 136.2,79.7 124.7,97.5 			"/>
			<polygon class="st3" points="141.9,174.2 157.4,174 157.4,151.3 			"/>
			<polygon class="st3" points="116.2,162.4 131.4,128.2 136.2,148.9 			"/>
			<polygon class="st3" points="114.2,168.8 130.2,168.8 131.4,128.6 115.4,142.1 			"/>
			<polygon class="st3" points="141.9,174.2 129.3,121.3 157.4,151.3 			"/>
			<polygon class="st3" points="190,174.4 201.8,151.5 174.4,174.4 			"/>
			<polygon class="st3" points="184.8,151.5 201.8,151.5 174.4,174.4 			"/>
			<polygon class="st3" points="178.7,139.3 201.8,151.5 157.4,151.3 			"/>
			<polygon class="st3" points="178.7,139.3 129.3,121.3 157.4,151.3 			"/>
			<path class="st3" d="M194.4,68.8c-3.5-12.9-9.8-17.8-13.8-21.2c3.4,3.5,6.2,8.5,7.5,15.8c3.6,19.7-9.7,30.9-9.7,30.9l-15.7,18.5
				l-26.6,7.2l2.7,4.9l31.6-8.5l16.2-19.6C186.6,96.7,198.6,84.2,194.4,68.8z"/>
			<path class="st3" d="M136.2,79.7l-11.5,17.9l9.6,24.1l29.3-8c0,0,16.9-17.8,20.5-22.4c5.2-6.8,9.2-12.6,4.6-30.1
				c-7.1-26.3-33.4-19.5-36.4-18.4c-3,1.1-4.7,4.4-2.9,5.5c1.8,1.1,2.9-1.3,6.6-1.7c3.7-0.4,19.6-1.9,22.8,13.8
				c3.2,15.7-5.9,18.3-13.9,19C156.9,80,136.2,79.7,136.2,79.7z"/>
			<polygon class="st3" points="170.5,106.2 182.7,120.9 163.6,113.5 			"/>
			<polygon class="st3" points="111.4,93 102.8,122.6 118.2,135.3 138.9,124.8 124.7,97.5 			"/>
			<rect x="73.9" y="73.1" class="st3" width="30.5" height="31.1"/>
		</g>
	</g>
	<g>
		<defs>
			<filter id="Adobe_OpacityMaskFilter" filterUnits="userSpaceOnUse" x="40.9" y="94.9" width="74.9" height="74.9">
				<feFlood  style="flood-color:white;flood-opacity:1" result="back"/>
				<feBlend  in="SourceGraphic" in2="back" mode="normal"/>
			</filter>
		</defs>
		<mask maskUnits="userSpaceOnUse" x="40.9" y="94.9" width="74.9" height="74.9" id="SVGID_1_">
			<g class="st4">
				<g>
					<polygon points="62.4,170.3 117.6,170.3 115,165.2 108.8,161.2 100.1,158.3 85.4,158.3 73.8,161.6 64.5,167.6 					"/>
					<polygon points="66.8,165.2 66.8,162 72.7,156.6 77.1,153 84.6,151.3 98.3,151.3 106.7,154.5 112.1,159.6 112.1,162.7 
						111.5,160.3 99.4,155.4 84.9,155.3 73,159 67.3,162.3 					"/>
					<polygon points="70.9,156.7 70.9,155.3 78.4,147.6 86.5,145.2 96.3,144.9 104.1,148.5 107.1,152 107.1,153.6 106.6,152.2 
						97.4,148.6 86.1,148.8 78.6,150.5 71.3,155.6 					"/>
					<path d="M106.2,149.9v-1.8l-1.4-2.7l-8.9-5.1l-9.2-0.3l-8.2,3.7l-4.5,4.8v2.4l0.2-1.7c0,0,3.7-3.3,3.9-3.3
						c0.1,0,8.1-2.7,8.1-2.7l9.7,0.5l8.2,2.9l1.8,1.8L106.2,149.9z"/>
					<polygon points="76.7,144.1 77.3,141.7 79.3,139.9 86.8,136.1 95.4,136.1 100.9,138.7 102.7,140.8 103.1,143 102.4,141.7 
						95.4,138.2 86.7,138.2 79.7,141.1 77.5,142.5 					"/>
					<polygon points="78.4,139.4 78.4,137.9 81.3,135.9 81.9,131.8 83.9,129.4 87.6,127.2 92.6,127.4 95.4,129.2 97.8,131.9 
						98.5,135.3 100.1,136.1 100.8,138.1 100,136.5 95.7,134.8 87.4,134.1 81.7,136.4 78.8,138.2 					"/>
					<polygon points="85,128.3 85,125.6 87.9,123.1 91.5,123.1 93.6,124.3 95,126.1 95,127.9 94.3,126.3 91.6,124.4 87.9,124.5 
						85.5,126.1 					"/>
					<polygon points="85.5,124.1 85.5,122.2 86.4,120.5 87.5,119.5 93,119.5 94,120.7 94.5,122.5 94.5,124.2 93.5,122.3 92.2,121.5 
						87.6,121.5 86.5,122.3 					"/>
					<polygon points="92,97.5 91.3,96.5 91.3,94.1 90.7,93.7 90.6,92.1 90.6,89.4 90.3,88.6 90,89.4 90,92.1 89.9,93.7 89.3,94.1 
						89.3,96.5 88.6,97.5 89,99.5 89.9,100.1 89.4,109.3 89,111.4 90,111.4 90.6,111.4 91.6,111.4 91.2,109.3 90.7,100.1 91.6,99.5 
											"/>
					<g>
						<g>
							<polygon points="88.7,113.8 89,112 91.6,112 91.9,113.8 							"/>
						</g>
						<g>
							<polygon points="88.2,116.8 88.2,115.4 88.7,114.4 91.8,114.4 92.4,115.5 92.4,116.8 							"/>
						</g>
						<g>
							<polygon points="88.2,117.4 87.6,117.7 87.6,118.9 93,118.9 93,117.8 92.4,117.4 							"/>
						</g>
					</g>
				</g>
			</g>
		</mask>
		<g class="st5">
			<path class="st6" d="M61.4,125.4c-0.1,0-0.1,0-0.2,0c-1.9,0.1-2.2-1.5-3.7-1.6c-2.1,0-3.4,1.1-5.1-0.7c-1.2-1.2-0.6-0.9-2.1-0.7
				c-0.7,0.1-2,0.5-2.6,0c-0.6-0.6-0.1-1.4-0.7-1.9l-0.8-0.2c-0.7,0.1-1.3,0.8-1.9,1c-1.8,0.6-2-0.4-2-2.1c0,0,0,0,0,0v-0.3
				c0,0.1,0,0.2,0,0.3c0,0,0-0.1,0.1-0.1v-0.8c-1.5,1.7-1.8,4.2-0.7,6.3l19.8,38.8V125.4z"/>
			<path class="st6" d="M115.2,139.9L93.8,98c-1.4-2.8-4.9-4-7.8-2.5l-18,9.2c9.2,0.9,16,4.2,16,8.1v6.3c0.1,0.6,0.1,1.2-0.4,1.6
				c-0.6,0.6-0.5-0.1-1,0.1c-0.5,0.2-0.7,0.5-1.1,0.8c-1.2,0.7-2,0.6-3.2,0.3c-1.5-0.5-1.9-0.6-3.2,0.4c-1.1,0.8-1.8,1.7-3.3,1.7
				c-0.8,0-1.7-0.5-2.6-0.3c-0.8,0.2-0.8,0.8-1.5,1.1c-0.8,0.4-1.6,0.2-2.5,0.1c-0.1,0-0.2,0-0.3,0v43h-0.8c1.7,1.7,4.4,2.2,6.6,1
				l41.9-21.4C115.5,146.2,116.6,142.7,115.2,139.9z"/>
		</g>
		<defs>
			<filter id="Adobe_OpacityMaskFilter_1_" filterUnits="userSpaceOnUse" x="12.7" y="39.5" width="74.9" height="74.9">
				<feFlood  style="flood-color:white;flood-opacity:1" result="back"/>
				<feBlend  in="SourceGraphic" in2="back" mode="normal"/>
			</filter>
		</defs>
		<mask maskUnits="userSpaceOnUse" x="12.7" y="39.5" width="74.9" height="74.9" id="SVGID_2_">
			<g class="st7">
				<g>
					<path d="M58.6,70.6c0,0,1.4-5,5.3-7.3c4-2.3,9-1,9-1s-1.4,5-5.3,7.3C63.7,72,58.6,70.6,58.6,70.6z"/>
					<path d="M55.3,67.3c0,0-1.3-5,1-9c2.3-4,7.3-5.3,7.3-5.3s1.3,5-1,9C60.3,65.9,55.3,67.3,55.3,67.3z"/>
					<path d="M50.7,66c0,0-3.7-3.7-3.7-8.3c0-4.6,3.7-8.3,3.7-8.3s3.7,3.7,3.7,8.3C54.3,62.3,50.7,66,50.7,66z"/>
					<path d="M46,67.3c0,0-5-1.4-7.3-5.3c-2.3-4-1-9-1-9s5,1.4,7.3,5.3C47.4,62.2,46,67.3,46,67.3z"/>
					<path d="M42.7,70.6c0,0-5,1.3-9-1c-4-2.3-5.3-7.3-5.3-7.3s5-1.3,9,1C41.3,65.6,42.7,70.6,42.7,70.6z"/>
				</g>
				<path d="M32.4,80.6L32.4,80.6c1.2,0.4,1.7,1.6,1.2,2.7c0,0,0,0-0.8,0.6c-0.8,0.6-1.7,0.9-2.9,0.9c-1.4,0-2.6-0.5-3.5-1.5
					c-0.9-1-1.4-2.3-1.4-4c0-1.8,0.5-3.2,1.4-4.2c0.9-1,2.1-1.5,3.6-1.5c1.3,0,2.4,0.4,3.2,1.2c0.5,0.5,0.9,1.1,1.1,2l0,0
					c-1.2,0.3-2.3,0.1-2.5-0.5c0,0,0,0-0.4-0.3c-0.4-0.3-0.9-0.5-1.5-0.5c-0.8,0-1.4,0.3-1.9,0.9c-0.5,0.6-0.7,1.5-0.7,2.8
					c0,1.4,0.2,2.3,0.7,2.9c0.5,0.6,1.1,0.9,1.9,0.9c0.6,0,1.1-0.2,1.5-0.5C32,82,32.3,81.4,32.4,80.6z"/>
				<path d="M36.8,84.6c-0.6,0-1.1-2.1-1.1-4.6v-1.6c0-2.5,0.5-4.6,1.1-4.6c0.6,0,1.1,1,1.1,2.1c0,1.2,1,2.1,2.1,2.1
					c1.2,0,2.1-1,2.1-2.1c0-1.2,0.5-2.1,1.1-2.1c0.6,0,1.1,2.1,1.1,4.6V80c0,2.5-0.5,4.6-1.1,4.6c-0.6,0-1.1-1.1-1.1-2.4
					c0-1.3-1-2.3-2.1-2.3c-1.2,0-2.1,1.1-2.1,2.3C37.8,83.5,37.4,84.6,36.8,84.6z"/>
				<path d="M46.8,84.6c-0.6,0-1.1-2.1-1.1-4.6v-1.6c0-2.5,0.5-4.6,1.1-4.6c0.6,0,1.1,2.1,1.1,4.6V80C47.9,82.5,47.4,84.6,46.8,84.6
					z"/>
				<path d="M57.2,80.3c0.9,2.3,1.2,4.2,0.5,4.2c-0.6,0-1.4-0.5-1.7-1.2c-0.3-0.7-1.4-1.2-2.6-1.2c-1.2,0-2.3,0.5-2.6,1.2
					c-0.2,0.7-1,1.2-1.6,1.2c-0.6,0-0.4-1.9,0.5-4.2l0.9-2.3c0.9-2.3,2.2-4.2,2.8-4.2c0.6,0,1.9,1.9,2.8,4.2L57.2,80.3z M53.4,80.9
					c1.1,0,1.6-1.3,1-2.8c-0.6-1.5-1.5-1.5-2.1,0C51.8,79.6,52.3,80.9,53.4,80.9z"/>
				<path d="M60.3,84.6c-0.6,0-1-2.1-1-4.6v-1.6c0-2.5,0.5-4.6,1.1-4.6c0.6,0,2,1.6,3.3,3.6c1.2,2,2.2,2,2.2,0c0-2,0.5-3.6,1-3.6
					c0.6,0,1,2.1,1,4.6V80c0,2.5-0.5,4.6-1.1,4.6c-0.6,0-2.1-1.6-3.3-3.5c-1.2-1.9-2.2-1.9-2.2,0C61.3,83,60.9,84.6,60.3,84.6z"/>
				<path d="M75.6,80.6c-0.7,0-1.2-0.4-1.2-0.9c0-0.5,1.1-0.9,2.3-0.9c1.3,0,2.3,1,2.3,2.1c0,1.2-0.5,2.5-1.1,3c0,0,0,0-0.9,0.3
					c-0.9,0.3-1.7,0.5-2.6,0.5c-1.1,0-2.1-0.2-2.9-0.7c-0.8-0.5-1.5-1.1-1.9-2c-0.4-0.9-0.6-1.8-0.6-2.9c0-1.1,0.2-2.1,0.7-3
					c0.5-0.9,1.2-1.5,2.1-2c0.7-0.4,1.5-0.5,2.6-0.5c1.3,0,2.4,0.3,3.1,0.8c0.7,0.6,1.2,1.3,1.4,2.3l0,0c-1.2,0.2-2.4,0-2.6-0.5
					c0,0,0,0-0.4-0.3c-0.4-0.3-0.9-0.5-1.6-0.5c-0.9,0-1.7,0.3-2.3,0.9c-0.6,0.6-0.8,1.5-0.8,2.7c0,1.3,0.3,2.2,0.9,2.9
					c0.6,0.6,1.3,1,2.2,1c0.5,0,0.9-0.1,1.4-0.3c0.5-0.2,0.8-0.4,1.2-0.7l0,0C76.9,81.2,76.3,80.6,75.6,80.6z"/>
				<path d="M41.3,96.6c-0.6,0-1-2.1-1-4.6v-1.6c0-2.5,0.7-4.6,1.6-4.6c0.9,0,2.1,1.7,2.6,3.7c0.5,2,1.4,2,1.9,0
					c0.5-2,1.7-3.7,2.6-3.7c0.9,0,1.6,2.1,1.6,4.6V92c0,2.5-0.5,4.6-1,4.6c-0.6,0-1-1.9-1-4.2c0-2.3-0.5-2.3-1.1,0
					c-0.6,2.3-1.5,4.2-2.1,4.2c-0.6,0-1.5-1.9-2.1-4.2c-0.6-2.3-1.1-2.3-1.1,0C42.3,94.7,41.8,96.6,41.3,96.6z"/>
				<path d="M60.1,92.4c0.9,2.3,1.2,4.2,0.5,4.2c-0.6,0-1.4-0.6-1.7-1.2c-0.3-0.7-1.4-1.2-2.6-1.2c-1.2,0-2.3,0.5-2.6,1.2
					c-0.2,0.7-1,1.2-1.6,1.2c-0.6,0-0.4-1.9,0.5-4.2l0.9-2.3c0.9-2.3,2.2-4.2,2.8-4.2c0.6,0,1.9,1.9,2.8,4.2L60.1,92.4z M56.3,92.9
					c1.1,0,1.6-1.3,1-2.8c-0.6-1.5-1.5-1.5-2.1,0C54.7,91.6,55.2,92.9,56.3,92.9z"/>
			</g>
		</mask>
		<path class="st8" d="M86.9,84.6L65.5,42.7c-1.4-2.8-4.9-4-7.8-2.5L15.8,61.6c-2.8,1.4-4,4.9-2.5,7.8l21.4,41.9
			c1.4,2.8,4.8,3.9,7.6,2.6v-1c0-4.3,8-7.8,18.2-8.3l1.5-0.8l0.1-1v-4.1c0-7.3,0.5-13.3,1.1-13.3c0.6,0,1.1,6,1.1,13.3v4l20.2-10.3
			C87.2,90.9,88.4,87.4,86.9,84.6z"/>
		<defs>
			<filter id="Adobe_OpacityMaskFilter_2_" filterUnits="userSpaceOnUse" x="67.7" y="11.4" width="74.9" height="74.9">
				<feFlood  style="flood-color:white;flood-opacity:1" result="back"/>
				<feBlend  in="SourceGraphic" in2="back" mode="normal"/>
			</filter>
		</defs>
		<mask maskUnits="userSpaceOnUse" x="67.7" y="11.4" width="74.9" height="74.9" id="SVGID_3_">
			<g class="st9">
				<ellipse transform="matrix(2.792565e-02 -0.9996 0.9996 2.792565e-02 29.3782 132.1823)" cx="82.7" cy="51" rx="2" ry="1"/>
				<path d="M129.6,38.2c0.1,0.6-0.3,1-0.9,1l-43.1-0.4c-0.5,0-1.1-0.5-1.3-1.1c0,0-0.8-1.7,0.6-1.7l42.3-1.5c0.6,0,1.3,0.5,1.4,1.1
					L129.6,38.2z"/>
				<path d="M88.7,58.8l-0.6,2.1c0.4,0.5,0.7,0.9,0.7,1.6c0.1,1.6-1.1,2.5-2.4,2.6c-1.3,0.1-2.5-0.7-2.8-2.3
					c-0.2-1.2,0.6-2.3,1.8-2.6l0.5-2.3c-0.1,0-0.2,0-0.3,0c-2.6,0.1-4.6,2.5-4.3,5.1c0.3,2.6,2.2,4.2,4.7,4.2c2.6,0,4.3-1.1,5-3.9
					C91.5,61.5,90,59.6,88.7,58.8z"/>
				<polygon points="86.3,39.7 91.6,39.9 90.9,47.8 84.6,47.8 				"/>
				<path d="M84.6,48.9h6.2c0,0,0.7,8.2,6.8,8.4c6.3,0.2,5.3-4.4,6.4-4.5c1.1-0.1,2.7-0.1,3.6,0c0.9,0.2,1,4.5,2.4,5
					c1.5,0.5,4.1,0.6,4.9-0.3c0.8-0.9,4.1-4.5,4.1-4.5s8,0,8.9,0.1c0.9,0.2,1.9,0.5,2.1,1.8c0.1,1.2,0.3,7.7,0.3,7.7l-2.6,0
					c0,0-0.2-6.1-7.1-6c-5,0.1-6.7,5.4-6.7,6.1l-21.2,0.4c0,0-2.3-4.8-4-6.2c-3.2-2.6-6.6-0.7-6.6-0.7s-2.2-0.7,2-3
					C85.8,52.4,84.6,48.9,84.6,48.9z"/>
				<path d="M87,55.6c0,0.1-1.4,6.5-1.4,6.5c-0.1,0.5,0.2,0.9,0.7,1.1c0.5,0.1,0.9-0.1,1-0.6l1.4-6.1C88.2,55.8,87.5,55.6,87,55.6z"
					/>
				<path d="M126.6,61.4c0,0-2.2-2.7-5.6-2.7c-3.3,0-6.1,2.7-6.1,2.7s1.9-4.2,5.9-4.2C125.7,57.2,126.6,61.4,126.6,61.4z"/>
				<path d="M125,60.8c-1.6-1.2-2.6-1.5-4.3-1.5c-1.5,0-2.9,0.8-3.9,1.4c-0.4,0.7-0.6,1.5-0.6,2.4c0.1,2.5,2.1,4.5,4.7,4.4
					c2.6,0,4.7-2,4.7-4.5C125.6,62.2,125.4,61.4,125,60.8z M120.9,65.4c-1.4,0-2.5-1-2.5-2.4c0-1.3,1-2.4,2.4-2.5
					c1.4,0,2.6,1.1,2.6,2.4C123.4,64.3,122.3,65.3,120.9,65.4z M120.9,61.5c-0.8,0-1.5,0.7-1.5,1.5c0,0.8,0.7,1.4,1.5,1.4
					c0.8,0,1.5-0.7,1.5-1.4C122.4,62.1,121.7,61.5,120.9,61.5z"/>
				<path d="M105.8,52.1c-0.4,0-0.8-0.3-0.8-0.8l-0.3-10.5c0-0.4,0.3-0.8,0.8-0.8c0.5,0,0.8,0.3,0.8,0.8l0.3,10.5
					C106.6,51.7,106.3,52.1,105.8,52.1C105.8,52.1,105.8,52.1,105.8,52.1z"/>
				<polygon points="87.2,35 92.1,29 94.7,30.1 91,35 				"/>
				<path d="M118.8,52.1c-0.4,0-0.8-0.3-0.8-0.8l-0.3-10.5c0-0.4,0.3-0.8,0.8-0.8c0.4,0,0.8,0.3,0.8,0.8l0.3,10.5
					C119.6,51.7,119.2,52.1,118.8,52.1C118.8,52.1,118.8,52.1,118.8,52.1z"/>
				<path d="M128.5,52.1c-0.4,0-0.8-0.3-0.8-0.8l-0.3-10.5c0-0.4,0.3-0.8,0.8-0.8c0.5,0,0.8,0.3,0.8,0.8l0.3,10.5
					C129.3,51.7,129,52.1,128.5,52.1C128.5,52.1,128.5,52.1,128.5,52.1z"/>
				<path d="M86.2,63.4c-1-0.2-0.9-1.4-0.9-1.4l0.2-0.8c-0.5,0.3-0.9,0.8-0.8,1.5c0.1,0.8,0.9,1.5,1.7,1.4c0.8,0,1.5-0.8,1.4-1.6
					c0-0.2,0-0.2-0.1-0.4l-0.1,0.6C87.4,63.6,86.2,63.4,86.2,63.4z"/>
			</g>
		</mask>
		<path class="st10" d="M141.9,56.5c1.4,2.8,0.3,6.3-2.5,7.8L97.5,85.6c-2.8,1.4-6.3,0.3-7.8-2.5L68.3,41.2
			c-1.4-2.8-0.3-6.3,2.5-7.8L112.8,12c2.8-1.4,6.3-0.3,7.8,2.5L141.9,56.5z"/>
		<path class="st6" d="M170.2,111.8c1.4,2.8,0.3,6.3-2.5,7.8L125.8,141c-2.8,1.4-6.3,0.3-7.8-2.5L96.6,96.5
			c-1.4-2.8-0.3-6.3,2.5-7.8L141,67.3c2.8-1.4,6.3-0.3,7.8,2.5L170.2,111.8z"/>
		<g>
			<g>
				<path class="st11" d="M196.7,90.3c0,0,29.1-7.1,50.6-2.1l0.1-0.2c0,0-18.8-5.6-50.3,1.2L196.7,90.3z"/>
				<path class="st12" d="M217.3,76.1c-0.6,0-1.7,0.2-2.4,1.5c-0.1-0.3-0.4-1-1.3-1.4c-0.3-0.1-0.6-0.1-0.9-0.1
					c-0.6,0-1.1,0.2-1.5,0.5c-0.4,0.3-0.5,0.6-0.6,0.9v-1.2h-2.2v7.8l-3.6-11H202l-3.7,12h2.7l0.7-2.5h3.5l0.7,2.5h4.7v-3.9
					c0-1.7,0-2.3,0.7-2.7c0.2-0.1,0.4-0.2,0.6-0.2c0.4,0,0.7,0.2,0.9,0.5c0.2,0.4,0.2,0.8,0.2,1.8V85h2.2v-4.3c0-0.7,0-1.4,0.2-1.9
					c0-0.1,0.3-0.5,1-0.5c0.3,0,0.7,0.1,0.9,0.5c0.2,0.4,0.3,0.7,0.3,2.1V85h2.2v-4.7c0-2,0-2.8-0.8-3.6
					C218.6,76.3,218,76.1,217.3,76.1z M202.2,80.3l1.1-4.6l1.2,4.6H202.2z M228.7,76.3l-1.2,5.5l-1.2-5.5h-2l-1.2,5.5l-1.2-5.5h-2.3
					l2.3,8.8h2.1l1.3-5.9l1.3,5.9h2.1l2.3-8.8H228.7z M243.2,76.3l-1.3,5.9l-1.4-5.9H238v0h-2.1v1.1c-0.4-0.8-1.1-1.3-1.9-1.3
					c-1.5,0-3.4,1.3-3.4,4.7c0,2.7,1.4,4.4,3.3,4.4c1.3,0,1.8-0.7,2.1-1.1v1h2.2v-8.7l2.4,7.6c0.1,0.2,0.2,0.5,0.2,0.7
					c0,0.4-0.2,0.7-0.3,0.9c-0.2,0.2-0.7,0.2-0.9,0.2h-0.6v1.9c0.2,0,0.3,0,0.6,0c1.8,0,2.3-0.2,2.7-0.6c0.4-0.5,0.7-1.5,0.9-2.1
					l2.5-8.7H243.2z M235.1,82.7c-0.4,0.5-0.8,0.5-1,0.5c-0.4,0-0.9-0.3-1.2-1c-0.2-0.4-0.2-1-0.2-1.5c0-0.7,0.1-1.4,0.5-1.9
					c0.3-0.4,0.7-0.6,1.1-0.6c0.3,0,0.7,0.2,0.9,0.4c0.3,0.3,0.6,0.9,0.6,2C235.7,81.3,235.6,82.1,235.1,82.7z"/>
			</g>
		</g>
		<g>
			<path class="st13" d="M106.8,181.9c-0.1-2.2-2-4-4.2-4c-2.3,0-4.1,1.8-4.2,4h-5.3V210h26.5c2.4,0,3.6-1.1,3.6-3.2v-24.8H106.8z
				 M118.4,204.5c0,0.7-0.4,1.1-1.2,1.1H98V202h20.4V204.5z M118.4,197.8H98v-3.6h20.4V197.8z M118.4,190H98v-3.7h20.4V190z"/>
			<path class="st13" d="M157.9,186.2v-4.6h-15.2c-0.2-2.1-2-3.8-4.2-3.8c-2.2,0-4,1.6-4.2,3.8h-6.6v4.6h6.3l-2.4,3.6
				c-0.4,0.7-0.9,1-1.5,1h-2.8v5h2.7v14.6h4.9v-16.7l4.9-7.5H157.9z M149.4,205v-6.9h7.9v-4.6h-7.9v-5.3h-5.3v5.3h-7.7v4.6h7.7v6.9
				h-8.5v4.6h23V205H149.4z"/>
			<path class="st13" d="M76.4,194.4h7.8c1.3,0,3.1-0.3,3.9-1.1c0.8-0.8,1.6-2.1,1.8-3.9h-4.5c-0.3,0.7-0.8,1-1.5,1H58.6v4h12.3v2.8
				H58v4h11c-2.7,2.9-4.1,4.3-4.1,4.3c-0.6,0.5-1.4,0.7-2.5,0.7h-4.3v3.9h6.1c2.1,0,3.6-0.6,4.7-1.7l4.7-4.8l4.2,4.7
				c1.1,1.2,3,1.8,5.6,1.8h5.7v-3.9h-3.9c-1.1,0-2-0.2-2.7-0.7c0,0-1.4-1.4-4.3-4.3h11v-4H76.4V194.4z M67.2,182.9
				c2.5,0,4.6,2.1,4.6,4.6v0h4.4v0c0-2.5,2.1-4.6,4.6-4.6s4.6,2.1,4.6,4.6h4.4c0-5-4.1-9-9-9c-2.7,0-5.2,1.2-6.8,3.1
				c-1.7-1.9-4.1-3.1-6.8-3.1c-5,0-9,4.1-9,9h4.4C62.5,184.9,64.6,182.9,67.2,182.9z M64.9,186.7c0,1.1,0.9,2,2,2c1.1,0,2-0.9,2-2
				c0-1.1-0.9-2-2-2C65.8,184.7,64.9,185.6,64.9,186.7z M78.9,186.7c0,1.1,0.9,2,2,2c1.1,0,2-0.9,2-2c0-1.1-0.9-2-2-2
				C79.8,184.7,78.9,185.6,78.9,186.7z"/>
			<path class="st13" d="M31.4,188.5H28c0.3-0.1,0.5-0.4,0.7-1l2.9-8.1h-4.7l-1.4,4.2c-0.2,0.6-0.4,0.8-0.7,0.8h-1.2v4.2H27l-1.3,4
				c-0.2,0.6-0.4,0.8-0.7,0.8h-1.3v4.2h1.5v12.6h4.5v-15.7l1.9-5.3V188.5z M42.9,191.7H32.1v3.6h10.8V191.7z M50.6,187.6l-1.8,5.8
				l-0.8-2.1h-4.3l3.2,8.5l-1.8,5.8c-0.2,0.6-0.4,0.8-0.7,0.8h-0.6v-0.5h-0.4c-0.5,0-0.7-0.2-0.7-0.7V197h-4v10.3c0,1.3,0.8,2,2.4,2
				h2.4v1h3.2c1.1,0,1.9-0.8,2.3-2.5l0.3-1.2l0.3,1c0.5,1.8,1.4,2.7,2.7,2.7h2.5v-3.8h-0.6c-0.4,0-0.8-0.2-0.9-0.8l-2.1-5.6
				l3.6-12.5H50.6z M32.1,204.9c0,1.1-0.3,1.6-0.8,1.6h-1.1v3.5h2.6c1,0,1.8-0.3,2.3-0.9c0.7-0.7,1-1.6,1-2.6V197h-4.1V204.9z
				 M50.1,182l0.7-2.6h-4.3l-1.1,5.8c-0.1,0.8-0.3,1.1-0.5,1.1h-0.6l-0.6,2.3v1.7h3.5c0.5,0,0.8-0.4,1-1.3l0.8-3.1h5.9V182H50.1z
				 M37.6,190.5c3,0,5.4-2.4,5.4-5.4v-5.1h-2.8v5.1c0,1-0.6,1.9-1.5,2.3v-7.5h-2.4v7.4c-0.8-0.4-1.3-1.3-1.3-2.3v-5h-2.8v5
				C32.2,188,34.6,190.5,37.6,190.5z"/>
		</g>
		<g>
			<polygon class="st14" points="194.9,202.5 182.2,203.7 181.6,200.7 195.4,200.7 			"/>
			<polygon class="st15" points="194.1,208 180.9,208 181,206.4 194.4,205.2 			"/>
			<polygon class="st16" points="173.9,185.1 167.4,178.7 176.1,181.6 			"/>
			<polygon class="st17" points="172.2,193.4 166.4,186.3 176.7,191.4 			"/>
			<polygon class="st18" points="171.5,209.6 166.7,205.9 177.4,193.9 			"/>
			<rect x="179.5" y="186.4" class="st19" width="17.7" height="1.8"/>
			<polygon class="st18" points="197.8,184.8 178.9,183.7 178.9,182 197.9,182 			"/>
			<polygon class="st20" points="189.2,191.3 187,191.5 186.7,178.9 189.3,178.4 			"/>
			<polygon class="st21" points="182.8,212.1 178.5,211.6 180.1,195.8 182.8,195.8 			"/>
			<polygon class="st22" points="196.7,198.2 180.1,198.2 180.1,195.8 196.9,194.7 			"/>
			<polygon class="st17" points="197.6,212.1 193.7,212.2 195.4,194.4 197.6,194.4 			"/>
			<polygon class="st17" points="197.9,193.1 178.9,193.1 179,191.8 197.9,190.3 			"/>
		</g>
		<g>
			<g>
				<path class="st21" d="M234.2,210l-2.1,3.4c0,0-25.1-5.6-25-5.4l-2.7,5.6l-2.5-4l3.8-3.1l-0.1-7.9l-3.4,1.3l-0.2-2.8l6.3-0.8
					l0.4,10L234.2,210z"/>
			</g>
			<polygon class="st23" points="225.4,204.6 225.3,200.1 228.1,203.9 			"/>
			<polygon class="st24" points="201.7,184.6 202.2,179.8 209.6,186 			"/>
			<polygon class="st20" points="209.2,193.3 200.1,191.8 202.1,188.3 			"/>
			<rect x="212.6" y="189.1" class="st25" width="17.7" height="1.6"/>
			<polygon class="st17" points="231,183.6 211.2,182.8 210.8,181.7 230.3,180.8 			"/>
			<polygon class="st20" points="216.9,185.5 215.3,185.5 214.6,178.3 216.9,178.5 			"/>
			<polygon class="st20" points="225.3,185.5 223.7,185.5 223.7,178.5 226,178.9 			"/>
			<g>
				<path class="st25" d="M231.2,195.1l-19.6-0.7l0.4-9.8l19.5,0.9L231.2,195.1z M212.8,193.7l16.2-1.4v-5.2l-15.5,0.7L212.8,193.7z
					"/>
			</g>
			<g>
				<polygon class="st26" points="231.3,207.8 227.1,207.2 227.1,206.3 229.6,204.4 229,198.9 213.3,198 213,206.5 210.5,205.5 
					212.6,196.5 232.1,196.7 				"/>
			</g>
			<g>
				<polygon class="st21" points="221.9,203.3 220.3,203.1 219.4,187.3 221.9,187.3 				"/>
			</g>
			<polygon class="st23" points="226.3,203.9 215.8,204.9 214.8,201.9 226.3,202.8 			"/>
		</g>
		<polygon class="st14" points="212.7,174.4 228.8,174.4 201.8,151.5 		"/>
		<polygon class="st21" points="212.7,116.9 228.8,174.4 201.8,151.5 		"/>
		<polygon class="st22" points="212.7,116.9 228.6,125 215.2,126 		"/>
		<polygon class="st17" points="212.7,116.9 178.7,139.3 201.8,151.5 		"/>
		<polygon class="st15" points="212.7,116.9 178.7,139.3 129.3,121.3 140.2,114.1 170.9,103.9 		"/>
		<polygon class="st15" points="111.4,93 136.2,79.7 124.7,97.5 		"/>
		<polygon class="st27" points="141.9,174.2 157.4,174 157.4,151.3 		"/>
		<polygon class="st28" points="116.2,162.4 131.4,128.2 136.2,148.9 		"/>
		<polygon class="st16" points="114.2,168.8 130.2,168.8 131.4,128.6 115.4,142.1 		"/>
		<polygon class="st29" points="141.9,174.2 129.3,121.3 157.4,151.3 		"/>
		<polygon class="st30" points="190,174.4 201.8,151.5 174.4,174.4 		"/>
		<polygon class="st31" points="184.8,151.5 201.8,151.5 174.4,174.4 		"/>
		<polygon class="st20" points="178.7,139.3 201.8,151.5 157.4,151.3 		"/>
		<polygon class="st18" points="178.7,139.3 129.3,121.3 157.4,151.3 		"/>
		<path class="st23" d="M194.4,68.8c-3.5-12.9-9.8-17.8-13.8-21.2c3.4,3.5,6.2,8.5,7.5,15.8c3.6,19.7-9.7,30.9-9.7,30.9l-15.7,18.5
			l-26.6,7.2l2.7,4.9l31.6-8.5l16.2-19.6C186.6,96.7,198.6,84.2,194.4,68.8z"/>
		<path class="st24" d="M136.2,79.7l-11.5,17.9l9.6,24.1l29.3-8c0,0,16.9-17.8,20.5-22.4c5.2-6.8,9.2-12.6,4.6-30.1
			c-7.1-26.3-33.4-19.5-36.4-18.4c-3,1.1-4.7,4.4-2.9,5.5c1.8,1.1,2.9-1.3,6.6-1.7c3.7-0.4,19.6-1.9,22.8,13.8
			c3.2,15.7-5.9,18.3-13.9,19C156.9,80,136.2,79.7,136.2,79.7z"/>
		<polygon class="st2" points="170.5,106.2 182.7,120.9 163.6,113.5 		"/>
		<polygon class="st21" points="111.4,93 102.8,122.6 118.2,135.3 138.9,124.8 124.7,97.5 		"/>
	</g>
</g>
</svg>
