<?xml version="1.0" encoding="utf-8"?>
<!-- Generator: Adobe Illustrator 21.1.0, SVG Export Plug-In . SVG Version: 6.00 Build 0)  -->
<svg version="1.1" id="Layer_1" xmlns="http://www.w3.org/2000/svg" xmlns:xlink="http://www.w3.org/1999/xlink" x="0px" y="0px"
	 viewBox="0 0 138.4 29.6" style="enable-background:new 0 0 138.4 29.6;" xml:space="preserve">
<style type="text/css">
	.st0{fill:#FFFFFF;stroke:#FFFFFF;stroke-width:2.5;stroke-linecap:round;stroke-linejoin:round;stroke-miterlimit:10;}
	.st1{fill:#E5003F;}
	.st2{fill:#002D63;}
</style>
<g>
	<g>
		<g>
			<path class="st0" d="M32.3,28.2c0,0,42.3-11.1,73.7-3.3l0.1-0.4c0,0-27.4-8.7-73.3,1.9L32.3,28.2z"/>
			<path class="st0" d="M62.3,6.1c-0.9,0-2.5,0.3-3.5,2.3c-0.2-0.5-0.5-1.6-1.8-2.1C56.5,6.1,56.1,6,55.7,6c-0.8,0-1.7,0.3-2.2,0.8
				c-0.5,0.5-0.7,1-0.9,1.4V6.4h-3.2v12.2L44.1,1.4H40L34.5,20h4l1-4h5.1l1,4h6.8v-6c0-2.6,0-3.6,1-4.2c0.3-0.2,0.6-0.2,0.9-0.2
				c0.6,0,1.1,0.4,1.3,0.8C56,11,56,11.7,56,13.2V20h3.3v-6.8c0-1.1,0-2.2,0.4-2.9c0.1-0.1,0.5-0.8,1.4-0.8c0.5,0,1,0.1,1.4,0.8
				c0.3,0.6,0.4,1,0.4,3.2V20H66v-7.3c0-3.2,0-4.4-1.1-5.6C64.3,6.5,63.3,6.1,62.3,6.1z M40.4,12.7L42,5.5l1.8,7.2H40.4z M79,6.4
				l-1.7,8.5l-1.8-8.5h-2.9l-1.8,8.5L69,6.4h-3.3L69,20h3.1l1.9-9.2L76,20h3l3.3-13.7H79z M100,6.4l-1.9,9.2L96,6.4h-3.5v0h-3.1v1.8
				C88.8,6.8,87.8,6,86.5,6c-2.2,0-5,2-5,7.4c0,4.3,2,6.9,4.8,6.9c1.9,0,2.6-1.2,3-1.8V20h3.2V6.4L96,18.2c0.1,0.3,0.3,0.9,0.3,1.2
				c0,0.6-0.2,1.1-0.5,1.4c-0.3,0.3-1.1,0.3-1.4,0.3h-0.8v3c0.3,0,0.5,0.1,0.8,0.1c2.6,0,3.4-0.3,4-1c0.6-0.8,1.1-2.3,1.3-3.3
				l3.6-13.6H100z M88.3,16.4c-0.6,0.7-1.2,0.8-1.4,0.8c-0.6,0-1.4-0.4-1.8-1.6c-0.3-0.7-0.4-1.5-0.4-2.4c0-1,0.1-2.1,0.7-3
				c0.4-0.6,1-1,1.6-1c0.5,0,1,0.3,1.3,0.7c0.4,0.5,0.8,1.4,0.8,3.2C89.2,14.3,89,15.5,88.3,16.4z"/>
		</g>
	</g>
	<g>
		<g>
			<path class="st1" d="M32.3,28.2c0,0,42.3-11.1,73.7-3.3l0.1-0.4c0,0-27.4-8.7-73.3,1.9L32.3,28.2z"/>
			<path class="st2" d="M62.3,6.1c-0.9,0-2.5,0.3-3.5,2.3c-0.2-0.5-0.5-1.6-1.8-2.1C56.5,6.1,56.1,6,55.7,6c-0.8,0-1.7,0.3-2.2,0.8
				c-0.5,0.5-0.7,1-0.9,1.4V6.4h-3.2v12.2L44.1,1.4H40L34.5,20h4l1-4h5.1l1,4h6.8v-6c0-2.6,0-3.6,1-4.2c0.3-0.2,0.6-0.2,0.9-0.2
				c0.6,0,1.1,0.4,1.3,0.8C56,11,56,11.7,56,13.2V20h3.3v-6.8c0-1.1,0-2.2,0.4-2.9c0.1-0.1,0.5-0.8,1.4-0.8c0.5,0,1,0.1,1.4,0.8
				c0.3,0.6,0.4,1,0.4,3.2V20H66v-7.3c0-3.2,0-4.4-1.1-5.6C64.3,6.5,63.3,6.1,62.3,6.1z M40.4,12.7L42,5.5l1.8,7.2H40.4z M79,6.4
				l-1.7,8.5l-1.8-8.5h-2.9l-1.8,8.5L69,6.4h-3.3L69,20h3.1l1.9-9.2L76,20h3l3.3-13.7H79z M100,6.4l-1.9,9.2L96,6.4h-3.5v0h-3.1v1.8
				C88.8,6.8,87.8,6,86.5,6c-2.2,0-5,2-5,7.4c0,4.3,2,6.9,4.8,6.9c1.9,0,2.6-1.2,3-1.8V20h3.2V6.4L96,18.2c0.1,0.3,0.3,0.9,0.3,1.2
				c0,0.6-0.2,1.1-0.5,1.4c-0.3,0.3-1.1,0.3-1.4,0.3h-0.8v3c0.3,0,0.5,0.1,0.8,0.1c2.6,0,3.4-0.3,4-1c0.6-0.8,1.1-2.3,1.3-3.3
				l3.6-13.6H100z M88.3,16.4c-0.6,0.7-1.2,0.8-1.4,0.8c-0.6,0-1.4-0.4-1.8-1.6c-0.3-0.7-0.4-1.5-0.4-2.4c0-1,0.1-2.1,0.7-3
				c0.4-0.6,1-1,1.6-1c0.5,0,1,0.3,1.3,0.7c0.4,0.5,0.8,1.4,0.8,3.2C89.2,14.3,89,15.5,88.3,16.4z"/>
		</g>
	</g>
</g>
</svg>
