<?xml version="1.0" encoding="utf-8"?>
<!-- Generator: Adobe Illustrator 22.1.0, SVG Export Plug-In . SVG Version: 6.00 Build 0)  -->
<svg version="1.1" id="圖層_1" xmlns="http://www.w3.org/2000/svg" xmlns:xlink="http://www.w3.org/1999/xlink" x="0px" y="0px"
	 viewBox="0 0 32 32" style="enable-background:new 0 0 32 32;" xml:space="preserve">
<style type="text/css">
	.st0{fill:#FFFFFF;}
</style>
<title>event_goal</title>
<path class="st0" d="M16,29.2c-2.4,0-4.7-0.6-6.7-1.8s-3.7-2.8-4.9-4.8S2.6,18.4,2.6,16s0.6-4.6,1.8-6.6s2.8-3.6,4.9-4.8
	s4.3-1.8,6.7-1.8c3.1,0,5.8,0.9,8.2,2.8s4,4.2,4.8,7.1l0.1,0.5l0.1,0.6c0.1,0.8,0.2,1.5,0.2,2.2c0,2.4-0.6,4.6-1.8,6.6
	c-1.2,2-2.8,3.6-4.9,4.8C20.7,28.6,18.4,29.2,16,29.2L16,29.2z M16,28.2c1.3,0,2.6-0.2,3.9-0.6l-2.7-1.2l0.7,0.3l-8.7-2.1l-1.9-0.2
	l-1-1.1L6,23.2c1.1,1.5,2.6,2.8,4.3,3.7S14,28.2,16,28.2L16,28.2z M8.5,23.7l8.3,2L18,24l-3.8-7.1l-3.6-0.5l-3.5,6L8.5,23.7z
	 M18.6,23.4l4.6,0.1l3.1-6.9l-1.4-3.1h-8.3l-1.7,2.8L18.6,23.4z M5.9,22.9l-0.3-0.3C5.7,22.8,5.8,22.9,5.9,22.9L5.9,22.9z M5.5,9.5
	c-1.3,2-1.9,4.1-1.9,6.5c0,1.7,0.4,3.3,1.1,4.9l1.8,1l3.4-5.7l-0.2-2.5l-4.2-3.6L5.5,9.5z M5.8,9l3.8,3.4l0-0.5l1.2-0.9
	c1.8-3.3,3.2-5.7,4.2-7.2C13.4,4,11.7,4.5,9.9,5.5S6.8,7.7,5.8,9L5.8,9z M19.8,4.4l-3.8,0l-0.2-0.2l-3.3,5.4l1-0.8l3.3,3.8h8
	l1.7-2.8C26,8.6,25,7.5,23.8,6.5S21.3,4.9,19.8,4.4L19.8,4.4z M26.9,17l-3.5,7.8l0.1,0.8l-2.6,1.5c2.1-0.9,3.8-2.2,5.2-4.1
	c1.4-1.8,2.1-3.9,2.3-6.2L26.9,17z"/>
</svg>
