<svg xmlns="http://www.w3.org/2000/svg" class="desktop-member-cart__icon" viewBox="0 0 30 40" width="30" height="40"><g fill="#fff" fill-rule="evenodd" transform="translate(3 6)"><circle cx="8.958" cy="25.044" r="2.333" /> <circle cx="18.712" cy="25.044" r="2.333" /> <path d="M 24.138 7.046 c -0.126 -0.218 -0.325 -0.347 -0.537 -0.347 H 6.878 c -0.256 0 -0.489 -0.188 -0.6 -0.482 L 4.209 0.746 C 4.037 0.289 3.676 0 3.28 0 H 0.53 C 0.239 0.001 0 0.304 0 0.68 v 0.86 c 0 0.375 0.238 0.68 0.53 0.68 H 2.5 c 0.136 0 0.255 0.117 0.29 0.286 l 3.298 16.041 c 0.315 1.537 1.4 2.609 2.64 2.609 h 10.255 c 1.196 0 2.251 -0.997 2.607 -2.459 l 2.647 -10.891 a 1.053 1.053 0 0 0 -0.098 -0.76 Z m -3.833 11.312 c -0.106 0.445 -0.412 0.746 -0.764 0.746 H 8.834 c -0.363 0 -0.68 -0.326 -0.772 -0.793 l -1.7 -8.566 a 0.845 0.845 0 0 1 0.087 -0.577 c 0.095 -0.164 0.242 -0.26 0.397 -0.26 H 21.84 c 0.16 0 0.31 0.1 0.404 0.272 c 0.094 0.17 0.121 0.39 0.075 0.592 l -2.014 8.586 Z" /></g></svg>