<svg xmlns="http://www.w3.org/2000/svg" viewBox="0 0 32 32" width="32" height="32">
	<g fill="none" fill-rule="evenodd" data-v-2ad8b710="">
		<path fill="#aeaeae" d="M 27.267 4.679 A 15.86 15.86 0 0 0 15.973 0 A 15.86 15.86 0 0 0 4.68 4.679 A 15.86 15.86 0 0 0 0 15.973 a 15.86 15.86 0 0 0 4.679 11.294 a 15.86 15.86 0 0 0 11.294 4.68 a 15.86 15.86 0 0 0 11.294 -4.68 a 15.86 15.86 0 0 0 4.68 -11.294 a 15.86 15.86 0 0 0 -4.68 -11.294 Z" /> <path fill="#fff" d="M 23.012 8.934 a 0.905 0.905 0 0 0 -1.284 0 l -5.755 5.755 l -5.755 -5.755 a 0.905 0.905 0 0 0 -1.284 0 a 0.905 0.905 0 0 0 0 1.284 l 5.755 5.755 l -5.755 5.755 a 0.905 0.905 0 0 0 0 1.284 c 0.175 0.175 0.41 0.269 0.64 0.269 a 0.886 0.886 0 0 0 0.638 -0.27 l 5.754 -5.754 l 5.755 5.755 c 0.175 0.175 0.41 0.269 0.639 0.269 a 0.875 0.875 0 0 0 0.638 -0.27 a 0.905 0.905 0 0 0 0 -1.283 l -5.74 -5.755 l 5.754 -5.755 a 0.905 0.905 0 0 0 0 -1.284 Z" /></g></svg>