<?xml version="1.0" encoding="utf-8"?>
<!-- Generator: Adobe Illustrator 22.1.0, SVG Export Plug-In . SVG Version: 6.00 Build 0)  -->
<svg version="1.1" id="圖層_1" xmlns="http://www.w3.org/2000/svg" xmlns:xlink="http://www.w3.org/1999/xlink" x="0px" y="0px"
	 viewBox="0 0 178 66" style="enable-background:new 0 0 178 66;" xml:space="preserve">
<style type="text/css">
	.st0{display:none;fill:#F37084;}
	.st1{display:none;}
	.st2{display:inline;fill:#FFAA33;}
	.st3{display:none;fill:#FFAA33;}
	.st4{fill:#FFFFFF;}
	.st5{enable-background:new    ;}
</style>
<rect x="-11" y="-16" class="st0" width="208" height="100"/>
<g class="st1">
	<path class="st2" d="M13.9,23.3c0,0.1-0.1,0.3-0.2,0.4c-0.1,0.1-0.3,0.2-0.4,0.2c-0.2,0-0.4-0.1-0.7-0.2c0.1,0.1,0.1,0.2,0.1,0.3
		c0,0.2-0.1,0.3-0.2,0.4c-0.2,0.2-0.4,0.3-0.5,0.3c-0.2,0-0.4-0.1-0.5-0.2c0.2,0,0.3-0.1,0.3-0.2s-0.1-0.2-0.2-0.4
		c-0.2-0.2-0.4-0.5-0.8-0.9c-0.3-0.3-0.7-0.8-1.3-1.5L8.9,22v1.2c0,0.6,0.1,1,0.3,1c0.1,0,0.2,0,0.3-0.1c0,0.1,0.1,0.2,0.1,0.2
		c0,0.1-0.1,0.2-0.2,0.3c-0.1,0.1-0.3,0.1-0.5,0.1c-0.4,0-0.7-0.2-0.9-0.6c0,0.4-0.3,0.6-0.8,0.6c-0.1,0-0.3,0-0.4-0.1
		s-0.2-0.2-0.2-0.3c0,0,0-0.1,0-0.2c0.1,0.1,0.2,0.1,0.3,0.1c0.2,0,0.3-0.3,0.3-0.9c0-0.1,0-0.4,0-0.7c0-0.3,0-0.5,0-0.7
		c0-0.1,0-0.2,0-0.5c0-0.2,0-0.4,0-0.5c0-0.2,0-0.4,0-0.8s0-0.6,0-0.6c0-0.2,0-0.5,0-0.7c0-0.3-0.1-0.5-0.3-0.5
		c-0.1,0-0.2,0-0.3,0.1c0-0.1,0-0.1,0-0.1c0-0.1,0.1-0.2,0.2-0.3c0.2,0,0.4,0,0.5,0c0.5,0,0.8,0.2,0.8,0.5C8.3,18.2,8.5,18,8.9,18
		c0.1,0,0.3,0,0.5,0.1c0.1,0.1,0.2,0.2,0.2,0.3c0,0.1,0,0.1-0.1,0.2c-0.1-0.1-0.3-0.1-0.3-0.1c-0.2,0-0.3,0.1-0.3,0.4
		c0,0.1,0,0.3,0,0.6c0,0.3,0,0.5,0,0.5v1.1c0.3-0.2,0.6-0.4,0.7-0.6c0.6-0.5,1.1-0.9,1.6-1.3s0.7-0.7,0.7-0.9c0-0.1-0.1-0.2-0.3-0.2
		c0.1-0.1,0.2-0.2,0.3-0.2s0.3,0,0.4,0.1c0.1,0.1,0.2,0.2,0.2,0.3c0,0.1,0,0.1-0.1,0.2c0.1-0.1,0.2-0.1,0.3-0.1s0.2,0,0.3,0.1
		s0.1,0.2,0.1,0.3c0,0.1-0.1,0.2-0.3,0.2c0-0.1,0-0.2-0.1-0.2s-0.3,0.1-0.6,0.4c-0.5,0.5-1,0.9-1.3,1.2c0,0.1,0.2,0.3,0.6,0.7
		c0.2,0.2,0.5,0.5,0.8,0.9c0.2,0.2,0.4,0.5,0.8,0.8c0.1,0.1,0.2,0.1,0.3,0.1s0.2-0.1,0.3-0.3C13.8,23,13.9,23.1,13.9,23.3z"/>
	<path class="st2" d="M21.5,23.3c0,0.2-0.1,0.4-0.3,0.5c-0.1,0.1-0.2,0.1-0.3,0.1c-0.2,0-0.4-0.1-0.7-0.2c0.1,0.1,0.1,0.2,0.1,0.3
		c0,0.4-0.3,0.6-0.9,0.6c-0.2,0-0.3-0.1-0.3-0.2c0.2,0,0.3-0.1,0.3-0.2c0-0.2-0.2-0.5-0.6-1c-0.2-0.2-0.3-0.4-0.5-0.6
		c-0.1-0.2-0.3-0.4-0.5-0.7c-0.3,0-0.6-0.1-0.8-0.2c0,0.3,0,0.6,0,0.6c0,0.1,0,0.4,0,0.7c0,0.4,0,0.6,0,0.6c0,0.3,0.1,0.5,0.3,0.5
		c0.1,0,0.2,0,0.3-0.1c0,0.1,0,0.1,0,0.2c0,0.3-0.2,0.4-0.6,0.4c-0.2,0-0.4,0-0.5-0.1s-0.2-0.2-0.4-0.4c0,0.4-0.3,0.6-0.8,0.6
		c-0.1,0-0.3,0-0.4-0.1c-0.1-0.1-0.2-0.2-0.2-0.3v-0.1c0.1,0.1,0.2,0.1,0.3,0.1c0.2,0,0.3-0.2,0.3-0.7v-1.1c0-0.1,0-0.3,0-0.6
		c0-0.3,0-0.5,0-0.6c0-0.2,0-0.5,0-0.9s0-0.7,0-0.7c0-0.1,0-0.4,0-0.7c0-0.3-0.1-0.4-0.3-0.4c-0.1,0-0.2,0.1-0.3,0.2
		c-0.1-0.1-0.1-0.2-0.1-0.2c0-0.1,0.1-0.2,0.3-0.3c0.2-0.1,0.3-0.1,0.5-0.1s0.3,0,0.5,0.1c0.1,0.1,0.3,0.2,0.3,0.4
		c0.1-0.4,0.4-0.5,0.8-0.5c0.1,0,0.2,0,0.3,0.1c0.1,0.1,0.2,0.1,0.2,0.2c0.3-0.2,0.6-0.3,1-0.3c0.3,0,0.6,0,0.8,0.1
		c0.2,0.1,0.4,0.2,0.7,0.3c0.1,0,0.2,0.1,0.3,0.2c0.3,0.3,0.5,0.7,0.5,1.2c0,0,0,0.1,0,0.2s0,0.1,0,0.2c0,0.7-0.4,1.1-1.3,1.4
		c0.2,0.3,0.4,0.5,0.5,0.6c0.2,0.2,0.3,0.4,0.5,0.6c0.2,0.3,0.4,0.4,0.5,0.4s0.2-0.1,0.3-0.3C21.5,23,21.5,23.1,21.5,23.3z
		 M19.1,19.9c0-0.1,0-0.2,0-0.2c0-0.3-0.1-0.5-0.3-0.7c-0.2-0.2-0.5-0.3-0.8-0.3c-0.2,0-0.4,0.1-0.7,0.2v-0.1c0-0.1,0-0.2,0.1-0.3
		c0,0-0.1,0-0.2,0c-0.2,0-0.3,0.2-0.3,0.7c0,0,0,0.3,0,0.6c0,0.4,0,0.6,0,0.7s0,0.4,0,0.8H17c1.2,0,1.8-0.3,2-0.9
		C19.1,20.3,19.1,20.1,19.1,19.9z"/>
</g>
<path class="st3" d="M14.2,45.4c5.1-5.7,21.7-5.8,29.7-11.9c2.2-1.7,3.3-3.6,0.9,1.3c-6.4,13.3-22.9,9.1-30,11.8
	C12.7,47.4,12.6,47.2,14.2,45.4L14.2,45.4z M12.9,42.6C18.1,31.5,39.7,31.4,47,19.8c1.6-2.5,1.9-4.6,1.3,0.5
	c-2,17.6-25.4,15.8-34.4,23C11.9,44.8,11.9,44.7,12.9,42.6L12.9,42.6z M9.7,52.4c-1-4.2-6.7-4.9-7.6-9.3
	C-1,26.5,36.6,26.6,46.4,12.6c2-2.9,2.2-2.8,1.1,0.6c-6,17.4-38.9,17.6-36.2,32.3c0.7,4,0.7,5.4-0.2,7C10.3,53.9,10.1,53.9,9.7,52.4
	L9.7,52.4z M15.3,48.4c4-2.2,14.2-0.7,19.6-1.9c1.8-0.4,3.4-1.5,0.7,1.7c-3.8,4.7-12.2,2.2-19.8,1.9C13.4,50,13.2,49.5,15.3,48.4
	L15.3,48.4z"/>
<path class="st4" d="M14.2,44.4c5.1-5.7,21.7-5.8,29.7-11.9c2.2-1.7,3.3-3.6,0.9,1.3c-6.4,13.3-22.9,9.1-30,11.8
	C12.7,46.4,12.6,46.2,14.2,44.4L14.2,44.4z M12.9,41.6C18.1,30.5,39.7,30.4,47,18.8c1.6-2.5,1.9-4.6,1.3,0.5
	c-2,17.6-25.4,15.8-34.4,23C11.9,43.8,11.9,43.7,12.9,41.6L12.9,41.6z M9.7,51.4c-1-4.2-6.7-4.9-7.6-9.3
	C-1,25.5,36.6,25.6,46.4,11.6c2-2.9,2.2-2.8,1.1,0.6c-6,17.4-38.9,17.6-36.2,32.3c0.7,4,0.7,5.4-0.2,7C10.3,52.9,10.1,52.9,9.7,51.4
	L9.7,51.4z M15.3,47.4c4-2.2,14.2-0.7,19.6-1.9c1.8-0.4,3.4-1.5,0.7,1.7c-3.8,4.7-12.2,2.2-19.8,1.9C13.4,49,13.2,48.5,15.3,47.4
	L15.3,47.4z"/>
<g>
	<path class="st4" d="M13.9,22.3c0,0.1-0.1,0.3-0.2,0.4c-0.1,0.1-0.3,0.2-0.4,0.2c-0.2,0-0.4-0.1-0.7-0.2c0.1,0.1,0.1,0.2,0.1,0.3
		c0,0.2-0.1,0.3-0.2,0.4c-0.2,0.2-0.4,0.3-0.5,0.3c-0.2,0-0.4-0.1-0.5-0.2c0.2,0,0.3-0.1,0.3-0.2s-0.1-0.2-0.2-0.4
		c-0.2-0.2-0.4-0.5-0.8-0.9c-0.3-0.3-0.7-0.8-1.3-1.5L8.9,21v1.2c0,0.6,0.1,1,0.3,1c0.1,0,0.2,0,0.3-0.1c0,0.1,0.1,0.2,0.1,0.2
		c0,0.1-0.1,0.2-0.2,0.3c-0.1,0.1-0.3,0.1-0.5,0.1c-0.4,0-0.7-0.2-0.9-0.6c0,0.4-0.3,0.6-0.8,0.6c-0.1,0-0.3,0-0.4-0.1
		s-0.2-0.2-0.2-0.3c0,0,0-0.1,0-0.2c0.1,0.1,0.2,0.1,0.3,0.1c0.2,0,0.3-0.3,0.3-0.9c0-0.1,0-0.4,0-0.7c0-0.3,0-0.5,0-0.7
		c0-0.1,0-0.2,0-0.5c0-0.2,0-0.4,0-0.5c0-0.2,0-0.4,0-0.8s0-0.6,0-0.6c0-0.2,0-0.5,0-0.7c0-0.3-0.1-0.5-0.3-0.5
		c-0.1,0-0.2,0-0.3,0.1c0-0.1,0-0.1,0-0.1c0-0.1,0.1-0.2,0.2-0.3c0.2,0,0.4,0,0.5,0c0.5,0,0.8,0.2,0.8,0.5C8.3,17.2,8.5,17,8.9,17
		c0.1,0,0.3,0,0.5,0.1c0.1,0.1,0.2,0.2,0.2,0.3c0,0.1,0,0.1-0.1,0.2c-0.1-0.1-0.3-0.1-0.3-0.1c-0.2,0-0.3,0.1-0.3,0.4
		c0,0.1,0,0.3,0,0.6c0,0.3,0,0.5,0,0.5v1.1c0.3-0.2,0.6-0.4,0.7-0.6c0.6-0.5,1.1-0.9,1.6-1.3s0.7-0.7,0.7-0.9c0-0.1-0.1-0.2-0.3-0.2
		c0.1-0.1,0.2-0.2,0.3-0.2s0.3,0,0.4,0.1c0.1,0.1,0.2,0.2,0.2,0.3c0,0.1,0,0.1-0.1,0.2c0.1-0.1,0.2-0.1,0.3-0.1s0.2,0,0.3,0.1
		s0.1,0.2,0.1,0.3c0,0.1-0.1,0.2-0.3,0.2c0-0.1,0-0.2-0.1-0.2s-0.3,0.1-0.6,0.4c-0.5,0.5-1,0.9-1.3,1.2c0,0.1,0.2,0.3,0.6,0.7
		c0.2,0.2,0.5,0.5,0.8,0.9c0.2,0.2,0.4,0.5,0.8,0.8c0.1,0.1,0.2,0.1,0.3,0.1s0.2-0.1,0.3-0.3C13.8,22,13.9,22.1,13.9,22.3z"/>
	<path class="st4" d="M21.5,22.3c0,0.2-0.1,0.4-0.3,0.5c-0.1,0.1-0.2,0.1-0.3,0.1c-0.2,0-0.4-0.1-0.7-0.2c0.1,0.1,0.1,0.2,0.1,0.3
		c0,0.4-0.3,0.6-0.9,0.6c-0.2,0-0.3-0.1-0.3-0.2c0.2,0,0.3-0.1,0.3-0.2c0-0.2-0.2-0.5-0.6-1c-0.2-0.2-0.3-0.4-0.5-0.6
		c-0.1-0.2-0.3-0.4-0.5-0.7c-0.3,0-0.6-0.1-0.8-0.2c0,0.3,0,0.6,0,0.6c0,0.1,0,0.4,0,0.7c0,0.4,0,0.6,0,0.6c0,0.3,0.1,0.5,0.3,0.5
		c0.1,0,0.2,0,0.3-0.1c0,0.1,0,0.1,0,0.2c0,0.3-0.2,0.4-0.6,0.4c-0.2,0-0.4,0-0.5-0.1s-0.2-0.2-0.4-0.4c0,0.4-0.3,0.6-0.8,0.6
		c-0.1,0-0.3,0-0.4-0.1c-0.1-0.1-0.2-0.2-0.2-0.3v-0.1c0.1,0.1,0.2,0.1,0.3,0.1c0.2,0,0.3-0.2,0.3-0.7v-1.1c0-0.1,0-0.3,0-0.6
		c0-0.3,0-0.5,0-0.6c0-0.2,0-0.5,0-0.9s0-0.7,0-0.7c0-0.1,0-0.4,0-0.7c0-0.3-0.1-0.4-0.3-0.4c-0.1,0-0.2,0.1-0.3,0.2
		c-0.1-0.1-0.1-0.2-0.1-0.2c0-0.1,0.1-0.2,0.3-0.3c0.2-0.1,0.3-0.1,0.5-0.1s0.3,0,0.5,0.1c0.1,0.1,0.3,0.2,0.3,0.4
		c0.1-0.4,0.4-0.5,0.8-0.5c0.1,0,0.2,0,0.3,0.1c0.1,0.1,0.2,0.1,0.2,0.2c0.3-0.2,0.6-0.3,1-0.3c0.3,0,0.6,0,0.8,0.1
		c0.2,0.1,0.4,0.2,0.7,0.3c0.1,0,0.2,0.1,0.3,0.2c0.3,0.3,0.5,0.7,0.5,1.2c0,0,0,0.1,0,0.2s0,0.1,0,0.2c0,0.7-0.4,1.1-1.3,1.4
		c0.2,0.3,0.4,0.5,0.5,0.6c0.2,0.2,0.3,0.4,0.5,0.6c0.2,0.3,0.4,0.4,0.5,0.4s0.2-0.1,0.3-0.3C21.5,22,21.5,22.1,21.5,22.3z
		 M19.1,18.9c0-0.1,0-0.2,0-0.2c0-0.3-0.1-0.5-0.3-0.7c-0.2-0.2-0.5-0.3-0.8-0.3c-0.2,0-0.4,0.1-0.7,0.2v-0.1c0-0.1,0-0.2,0.1-0.3
		c0,0-0.1,0-0.2,0c-0.2,0-0.3,0.2-0.3,0.7c0,0,0,0.3,0,0.6c0,0.4,0,0.6,0,0.7s0,0.4,0,0.8H17c1.2,0,1.8-0.3,2-0.9
		C19.1,19.3,19.1,19.1,19.1,18.9z"/>
</g>
<g>
	<path class="st4" d="M59.2,17.4H65v-3.1h5.5v3.1h5.2v2.1h-5.2v3.7h3.4c1.1,0,1.6,0.6,1.6,1.8v13h-5v3.7h5.3v2.1h-5.3v5.9H65v-5.9
		h-6.2v-2.1H65V38h-5.6V23.2H65v-3.7h-5.8V17.4z M64.5,25.3v4.4c1.1-0.7,2-1.6,2.8-2.7c0.7,1,1.8,2,3.1,2.8v-4.5
		C70.4,25.3,64.5,25.3,64.5,25.3z M64.5,31.2v4.6h6v-4.9c-1.1,0.7-2.2,1.7-3.1,2.9C67,33,66,32.2,64.5,31.2z M84.7,34h-8.3v-8.5
		h16.1c1.1,0,1.6,0.6,1.6,1.8V34h-4v2.3h5v2.1h-5v5h5.1v2.1h-5.1v4.3h-5.5v-4.3H81c-0.2,0.7-0.3,1.4-0.5,2l-5.1-1.3
		c0.7-2.6,1.3-5.2,1.6-7.8h-1v-2.1h8.7V34z M75.7,21.3h3.5c0.4-1.1,0.8-2.3,1-3.5h-3.7v-2.1h4.2c0.1-0.5,0.2-1,0.3-1.6h5.5
		c-0.1,0.6-0.2,1.1-0.3,1.6h5.5c1.3,0,2,0.7,2,2v3.5H95v2.1H75.7V21.3z M82.4,38.4c-0.2,1.6-0.5,3.3-0.9,5h3.1v-5H82.4z M81.8,27.5
		v4.3h6.6v-4.3H81.8z M85.7,17.9c-0.3,1.3-0.6,2.4-1,3.5H88v-3.5H85.7z"/>
	<path class="st4" d="M135.2,49h-34.3V14.9h32.7c1.1,0,1.6,0.6,1.6,1.8V49z M106.8,21.9h10.1c-0.3-1.1-0.6-2.2-0.8-3.3l5.6-0.8
		c0.2,1.4,0.5,2.8,0.8,4.1h2.9c-0.5-0.6-1.4-1.2-2.5-1.8c1.3-0.6,2.3-1.5,3-2.7c0.6,1,1.6,1.9,3,2.7c-0.8,0.4-1.6,1-2.3,1.8h2.3V24
		h-6.1c0.4,2.1,0.9,4.1,1.4,6.1c0.4-0.6,0.8-1.1,1.2-1.5c0.8-0.7,1.9-1,3.1-1.1c0.4,0,0.7,0,1,0.1V17h-23.4v29.9h23.4v-3l-2,1.6
		c-1-1.2-2-2.5-2.9-4c-0.8,1.6-1.9,2.8-3.3,3.6c-0.7,0.4-1.5,0.6-2.5,0.7H118c1.1-1.6,2.2-4.5,3.5-8.7c0.1-0.3,0.2-0.6,0.2-0.8
		c-1.2-2.5-2.2-5.3-3.2-8.3v10.4h-11.1V26.6h10.2c0.2,0,0.4,0.1,0.5,0.2c-0.3-0.9-0.5-1.8-0.8-2.7h-10.7v-2.2H106.8z M118.7,39.9
		l0.5,2c-2.3,0.6-4.3,0.9-6,1.2c-1.8,0.2-3.9,0.3-6.3,0.3l-0.1-2.2c2.6,0,4.7-0.1,6.2-0.3C114.7,40.7,116.6,40.4,118.7,39.9z
		 M111.9,28.6v7.6h2.3v-7.6H111.9z M129.5,28.9c-1.3,1.5-2.4,4.1-3.3,7.7c0.7,2,1.5,3.9,2.2,5.6l1.1-1V28.9z"/>
	<path class="st4" d="M174.1,15.1c0.9,0,1.3,0.5,1.3,1.5c-0.9,0.9-2.4,1.9-4.4,2.9c-1.3,0.6-2.6,1.2-4,1.5c0.5,0.4,1,0.7,1.5,1h5.2
		c1.3,0,2,0.7,2.1,2.2v18.5c0,0.6-0.3,0.9-0.9,1h-4.3v-6.2h-2.7v6.1h-5.3v-6.1h-3.2c-0.5,3.1-2.2,5.4-4.9,6.9
		c3.4,1.8,7.4,2.7,11.9,2.7c2.8,0,4.9-0.3,6.3-1c0.6-0.3,1-0.7,1.4-1.2c0.3-0.5,0.6-0.8,1.1-1c0.7,0.1,1.1,0.6,1.2,1.4
		c-0.6,1.3-1.8,2.3-3.8,3c-1.8,0.5-4,0.8-6.8,0.8c-7.2,0-13-1.6-17.2-4.7c-1.8,1.9-4,3.4-6.5,4.4c-0.3,0.1-0.5,0.2-0.8,0.2
		c-0.2-0.1-0.3-0.3-0.3-0.8c3.8-3.9,6.2-8.8,7.2-14.7h-2.9c-0.5,0.3-1.1,0.6-1.6,0.8c-0.3,0.2-0.7,0.2-1.2,0.2
		c-0.2-0.1-0.3-0.3-0.3-0.8c2-2.9,3.3-5.9,4-8.9h-5v-1.9h10.5c0.9,0,1.3,0.6,1.3,1.7c-0.7,1.9-2,3.8-3.8,5.9c-0.3,0.3-0.6,0.6-1,0.9
		h4.2c0.8,0,1.4,0.3,1.7,0.8v-6.7c0.2-2.1,1.7-3.7,4.5-4.8l1.3,0.5c-0.1,0.3-0.1,0.5-0.2,0.8h3.8c-1.9-1-3.6-2.1-5.2-3.2l2.2-1.7
		h-5.9V15L174.1,15.1L174.1,15.1z M146.5,15c0.7,1.4,2,2.7,3.6,3.8c-1.3,0.7-2.5,2-3.6,3.8c-0.3-1.1-1.5-2.4-3.6-3.8
		C144.3,18,145.5,16.7,146.5,15z M150.7,41.8c0.9,0.8,1.9,1.5,3,2.1c0.3-1.6,0.5-3.4,0.5-5.2v-4.8C153.3,37,152.1,39.7,150.7,41.8z
		 M159.5,24.2v4.7h3v-4.7H159.5z M159.5,31v4.4h3V31H159.5z M161.8,17.2c1.2,1,2.4,1.9,3.7,2.9c0.3-0.3,0.6-0.5,0.8-0.8
		c0.6-0.6,1-1.3,1.4-2.1H161.8z M167.9,24.2v4.7h2.7v-4.7H167.9z M167.9,31v4.4h2.7V31H167.9z"/>
</g>
<g class="st5">
	<path class="st4" d="M11.2,63.9H9.5v-4H6.2v4H4.5v-8h1.7v3.4h3.3v-3.4h1.7V63.9z"/>
	<path class="st4" d="M16.6,63.9h-1.7v-0.3c-0.5,0.3-1,0.4-1.5,0.4c-0.6,0-1.2-0.2-1.6-0.5c-0.4-0.3-0.7-0.8-0.7-1.5
		c0-0.7,0.3-1.2,0.9-1.6c0.5-0.3,1.2-0.5,1.9-0.5c0.2,0,0.5,0,0.8,0.1v-0.8c0-0.1-0.1-0.3-0.3-0.4c-0.2-0.1-0.3-0.1-0.5-0.1
		c-0.7,0-1.4,0.2-2,0.5l-0.2-0.6c0.9-0.4,1.6-0.5,2.2-0.5c0.7,0,1.3,0.2,1.7,0.6c0.5,0.4,0.7,1,0.7,1.7V63.9z M14.9,63v-2.2
		c-0.2-0.1-0.5-0.1-0.7-0.1c-0.4,0-0.8,0.1-1.1,0.4c-0.3,0.3-0.4,0.6-0.4,1c0,0.9,0.3,1.3,0.9,1.3C14,63.4,14.4,63.3,14.9,63z"/>
	<path class="st4" d="M22.1,63.9h-1.7v-3.6c0-0.4-0.1-0.7-0.2-0.9c-0.2-0.3-0.4-0.5-0.8-0.5c-0.4,0-0.8,0.1-1.3,0.4v4.6h-1.7v-5.5
		h1.7v0.3c0.5-0.3,1-0.5,1.4-0.5c0.7,0,1.3,0.2,1.7,0.5c0.5,0.4,0.7,0.9,0.7,1.6V63.9z"/>
	<path class="st4" d="M27.6,62.2c0,1.3-0.4,2.2-1.1,2.8c-0.6,0.5-1.6,0.8-2.9,0.8l-0.1-0.6c1.2,0,1.9-0.4,2.2-1.1
		c-0.3,0.1-0.7,0.2-1,0.2c-0.8,0-1.4-0.3-1.9-0.8c-0.4-0.5-0.6-1.2-0.6-2c0-0.9,0.2-1.6,0.7-2.2c0.5-0.6,1.2-0.9,2.1-0.9
		c0.4,0,0.7,0.1,1,0.4v-0.3h1.7V62.2z M25.9,61.4c0-1.6-0.3-2.4-1-2.4c-0.7,0-1.1,0.8-1.1,2.4c0,1.4,0.3,2,0.9,2
		C25.5,63.5,25.9,62.8,25.9,61.4z"/>
	<path class="st4" d="M33.2,63.9h-1.7v-0.4c-0.2,0.2-0.4,0.3-0.7,0.4c-0.3,0.1-0.5,0.2-0.8,0.2c-0.7,0-1.3-0.2-1.7-0.5
		c-0.5-0.4-0.7-0.9-0.7-1.6v-3.6h1.7V62c0,0.4,0.1,0.7,0.2,0.9c0.2,0.3,0.4,0.5,0.8,0.5c0.4,0,0.8-0.2,1.3-0.6v-4.5h1.7V63.9z"/>
	<path class="st4" d="M38.9,63.9c-0.2,0.1-0.4,0.2-0.8,0.2c-0.6,0-1.1-0.2-1.5-0.6c-0.2-0.2-0.4-0.7-0.7-1.3c-0.3-0.6-0.5-1-0.8-1.2
		l-0.4,0.3v2.8h-1.7v-8h1.7v4.4l3.1-2.1l0.4,0.6l-2.8,1.8c0,0,0.1,0,0.1,0c0.6,0,1.1,0.2,1.4,0.6c0.1,0.1,0.4,0.6,0.8,1.4
		C38.2,63.3,38.6,63.7,38.9,63.9z"/>
	<path class="st4" d="M49.5,61.6c-0.7,1.6-1.9,2.4-3.6,2.4c-1.3,0-2.2-0.4-2.9-1.1c-0.7-0.7-1-1.7-1-2.9s0.3-2.3,1-3
		c0.7-0.8,1.7-1.3,2.9-1.3c1.4,0,2.5,0.4,3.2,1.3l-0.5,0.4c-0.7-0.6-1.5-0.9-2.4-0.9c-0.8,0-1.4,0.4-1.8,1.2
		c-0.3,0.6-0.5,1.4-0.5,2.3c0,0.7,0.2,1.4,0.5,1.9c0.4,0.7,0.9,1,1.6,1c1.3,0,2.3-0.6,2.8-1.7L49.5,61.6z"/>
	<path class="st4" d="M54.8,63.9h-1.7v-0.3c-0.5,0.3-1,0.4-1.5,0.4c-0.6,0-1.2-0.2-1.6-0.5c-0.4-0.3-0.7-0.8-0.7-1.5
		c0-0.7,0.3-1.2,0.9-1.6c0.5-0.3,1.2-0.5,1.9-0.5c0.2,0,0.5,0,0.8,0.1v-0.8c0-0.1-0.1-0.3-0.3-0.4c-0.2-0.1-0.3-0.1-0.5-0.1
		c-0.7,0-1.4,0.2-2,0.5l-0.2-0.6c0.9-0.4,1.6-0.5,2.2-0.5c0.7,0,1.3,0.2,1.7,0.6c0.5,0.4,0.7,1,0.7,1.7V63.9z M53.1,63v-2.2
		c-0.2-0.1-0.5-0.1-0.7-0.1c-0.4,0-0.8,0.1-1.1,0.4c-0.3,0.3-0.4,0.6-0.4,1c0,0.9,0.3,1.3,0.9,1.3C52.2,63.4,52.6,63.3,53.1,63z"/>
	<path class="st4" d="M60.1,59.3l-1.2,0.8c-0.2-0.8-0.7-1.1-1.3-1.1c-0.2,0-0.5,0.1-0.9,0.4v4.6h-1.7v-5.5h1.7v0.3
		c0.5-0.3,1-0.4,1.5-0.4C59,58.3,59.6,58.6,60.1,59.3z"/>
	<path class="st4" d="M65.6,62.2c0,1.3-0.4,2.2-1.1,2.8c-0.6,0.5-1.6,0.8-2.9,0.8l-0.1-0.6c1.2,0,1.9-0.4,2.2-1.1
		c-0.3,0.1-0.7,0.2-1,0.2c-0.8,0-1.4-0.3-1.9-0.8c-0.4-0.5-0.6-1.2-0.6-2c0-0.9,0.2-1.6,0.7-2.2c0.5-0.6,1.2-0.9,2.1-0.9
		c0.4,0,0.7,0.1,1,0.4v-0.3h1.7V62.2z M63.9,61.4c0-1.6-0.3-2.4-1-2.4c-0.7,0-1.1,0.8-1.1,2.4c0,1.4,0.3,2,0.9,2
		C63.5,63.5,63.9,62.8,63.9,61.4z"/>
	<path class="st4" d="M71.8,61.2c0,0.9-0.3,1.6-0.9,2.2c-0.6,0.5-1.4,0.8-2.3,0.8c-0.9,0-1.6-0.2-2.1-0.7c-0.6-0.5-0.9-1.2-0.9-2
		c0-0.9,0.3-1.7,0.8-2.2c0.6-0.6,1.3-0.8,2.2-0.8c1,0,1.7,0.2,2.3,0.7C71.5,59.5,71.8,60.2,71.8,61.2z M70,61.2
		c0-1.5-0.4-2.3-1.3-2.3c-0.5,0-0.8,0.3-1.1,0.9c-0.2,0.4-0.2,0.9-0.2,1.5c0,0.5,0.1,0.9,0.2,1.3c0.2,0.5,0.5,0.8,0.9,0.8
		c0.5,0,0.9-0.3,1.1-0.8C69.9,62.3,70,61.8,70,61.2z"/>
	<path class="st4" d="M74.7,62.8c-0.5,0.9-1.1,1.6-1.9,2c-0.1-0.1-0.2-0.2-0.4-0.4c0.4-0.2,0.6-0.5,0.7-0.8
		c-0.2-0.3-0.5-0.6-0.9-0.8c0.5-0.3,0.9-0.7,1.2-1.3C73.7,62,74.1,62.5,74.7,62.8z"/>
	<path class="st4" d="M85.2,61.8c0,0.9-0.4,1.5-1.1,1.9c-0.6,0.3-1.3,0.5-2.3,0.5c-1.5,0-2.7-0.5-3.7-1.6l0.4-0.4
		c0.9,0.7,2,1.1,3.1,1.1c0.5,0,0.9-0.1,1.2-0.3c0.4-0.2,0.6-0.6,0.6-1c0-0.5-0.5-0.9-1.4-1.1c-1.6-0.4-2.4-0.7-2.5-0.7
		c-0.9-0.4-1.4-1.1-1.4-2c0-0.9,0.4-1.5,1.3-1.9c0.6-0.3,1.4-0.4,2.4-0.4c1.2,0,2.3,0.4,3.1,1.2l-0.5,0.5c-0.3-0.3-0.8-0.5-1.3-0.7
		c-0.5-0.2-0.9-0.3-1.4-0.3c-0.5,0-0.9,0.1-1.3,0.2c-0.4,0.2-0.7,0.6-0.7,1c0,0.5,0.3,0.8,1,1c0.6,0.2,1.2,0.3,1.9,0.5
		c0.8,0.2,1.3,0.5,1.7,0.8C84.9,60.5,85.2,61,85.2,61.8z"/>
	<path class="st4" d="M90.5,63.9h-1.7v-3.8c0-0.8-0.3-1.2-1-1.2c-0.2,0-0.5,0.1-1,0.3v4.8h-1.7v-8h1.7v2.5c0.4-0.1,0.8-0.2,1.1-0.2
		c1.7,0,2.6,0.7,2.6,2.2V63.9z"/>
	<path class="st4" d="M93.2,56.8C92.7,57,92.3,57.4,92,58c-0.2-0.5-0.6-0.9-1.2-1.2c0.5-0.2,0.8-0.6,1.2-1.2
		C92.2,56.1,92.6,56.5,93.2,56.8z M92.8,63.9h-1.7v-5.5h1.7V63.9z"/>
	<path class="st4" d="M99.2,61.1c0,2-0.9,3-2.7,3c-0.5,0-1-0.1-1.3-0.4v2h-1.7v-7.2h1.7v0.4c0.4-0.4,0.9-0.6,1.4-0.6
		c0.9,0,1.5,0.3,2,0.8C99,59.5,99.2,60.2,99.2,61.1z M97.5,61c0-0.5-0.1-1-0.3-1.4c-0.3-0.5-0.6-0.8-1.1-0.8c-0.4,0-0.7,0.2-1,0.7
		v3.2c0.3,0.4,0.7,0.6,1,0.6C97.1,63.4,97.5,62.6,97.5,61z"/>
	<path class="st4" d="M104.9,61.1c0,2-0.9,3-2.7,3c-0.5,0-1-0.1-1.3-0.4v2h-1.7v-7.2h1.7v0.4c0.4-0.4,0.9-0.6,1.4-0.6
		c0.9,0,1.5,0.3,2,0.8C104.7,59.5,104.9,60.2,104.9,61.1z M103.2,61c0-0.5-0.1-1-0.3-1.4c-0.3-0.5-0.6-0.8-1.1-0.8
		c-0.4,0-0.7,0.2-1,0.7v3.2c0.3,0.4,0.7,0.6,1,0.6C102.8,63.4,103.2,62.6,103.2,61z"/>
	<path class="st4" d="M107.6,56.8c-0.4,0.2-0.8,0.6-1.2,1.2c-0.2-0.5-0.6-0.9-1.2-1.2c0.5-0.2,0.8-0.6,1.2-1.2
		C106.7,56.1,107.1,56.5,107.6,56.8z M107.3,63.9h-1.7v-5.5h1.7V63.9z"/>
	<path class="st4" d="M113.5,63.9h-1.7v-3.6c0-0.4-0.1-0.7-0.2-0.9c-0.2-0.3-0.4-0.5-0.8-0.5c-0.4,0-0.8,0.1-1.3,0.4v4.6H108v-5.5
		h1.7v0.3c0.5-0.3,1-0.5,1.4-0.5c0.7,0,1.3,0.2,1.7,0.5c0.5,0.4,0.7,0.9,0.7,1.6V63.9z"/>
	<path class="st4" d="M119,62.2c0,1.3-0.4,2.2-1.1,2.8c-0.6,0.5-1.6,0.8-2.9,0.8l-0.1-0.6c1.2,0,1.9-0.4,2.2-1.1
		c-0.3,0.1-0.7,0.2-1,0.2c-0.8,0-1.4-0.3-1.9-0.8c-0.4-0.5-0.6-1.2-0.6-2c0-0.9,0.2-1.6,0.7-2.2c0.5-0.6,1.2-0.9,2.1-0.9
		c0.4,0,0.7,0.1,1,0.4v-0.3h1.7V62.2z M117.3,61.4c0-1.6-0.3-2.4-1-2.4c-0.7,0-1.1,0.8-1.1,2.4c0,1.4,0.3,2,0.9,2
		C116.9,63.5,117.3,62.8,117.3,61.4z"/>
	<path class="st4" d="M129.9,60c-0.3,0.8-0.7,1.5-1.2,2.1c0.3,0.2,0.6,0.5,1.1,0.8l-1,1.1c-0.2-0.1-0.6-0.4-1.1-0.9
		c-0.8,0.7-1.7,1-2.5,1c-0.7,0-1.3-0.2-1.8-0.5c-0.6-0.4-0.9-0.9-0.9-1.5c0-0.9,0.6-1.7,1.7-2.4c-0.6-0.7-0.9-1.3-0.9-1.8
		c0-0.7,0.3-1.2,0.8-1.6c0.5-0.3,1.1-0.5,1.8-0.5c0.6,0,1.2,0.2,1.6,0.5c0.5,0.4,0.8,0.8,0.8,1.4c0,0.8-0.6,1.5-1.7,2.3
		c0.5,0.5,1,1,1.7,1.6c0.4-0.5,0.7-1.1,1-1.8L129.9,60z M127.1,62.6c-0.7-0.6-1.3-1.2-2-1.9c-0.7,0.4-1.1,0.9-1.1,1.5
		c0,0.4,0.1,0.7,0.4,0.9c0.3,0.2,0.6,0.3,1,0.3C126,63.4,126.5,63.2,127.1,62.6z M126.7,57.4c0-0.3-0.1-0.5-0.3-0.7
		c-0.2-0.2-0.5-0.3-0.8-0.3c-0.3,0-0.5,0.1-0.7,0.3c-0.2,0.2-0.3,0.4-0.3,0.7c0,0.4,0.2,0.9,0.7,1.5
		C126.3,58.4,126.7,57.9,126.7,57.4z"/>
	<path class="st4" d="M140.1,59.7c0,2.8-1.7,4.2-5.2,4.2h-1.5v-7.7c0-0.2,0.1-0.3,0.4-0.3h1.4c1.5,0,2.6,0.3,3.4,0.8
		C139.6,57.3,140.1,58.3,140.1,59.7z M138.4,59.7c0-2.1-1.1-3.1-3.3-3.1v6.7C137.3,63.3,138.4,62.1,138.4,59.7z"/>
	<path class="st4" d="M145.6,61.4h-3.8c0,0.5,0.1,0.9,0.3,1.2c0.2,0.4,0.5,0.6,0.9,0.6c0.7,0,1.3-0.3,1.8-1l0.6,0.3
		c-0.5,1.1-1.3,1.7-2.5,1.7c-0.9,0-1.5-0.2-2-0.7c-0.5-0.5-0.7-1.2-0.7-2c0-0.9,0.2-1.7,0.7-2.2c0.5-0.5,1.2-0.8,2.1-0.8
		c0.9,0,1.5,0.3,2,0.9C145.3,59.7,145.5,60.5,145.6,61.4z M143.9,60.8c0-1.2-0.4-1.8-1-1.8c-0.6,0-1,0.6-1,1.8H143.9z"/>
	<path class="st4" d="M148,63.9h-1.7v-8h1.7V63.9z"/>
	<path class="st4" d="M151.4,56.8c-0.4,0.2-0.8,0.6-1.2,1.2c-0.2-0.5-0.6-0.9-1.2-1.2c0.5-0.2,0.8-0.6,1.2-1.2
		C150.4,56.1,150.8,56.5,151.4,56.8z M151,63.9h-1.7v-5.5h1.7V63.9z"/>
	<path class="st4" d="M158.3,58.5l-2.3,5.4h-1.8c-0.4-0.4-0.7-1-0.9-1.8c-0.2-0.7-0.4-1.3-0.6-2c-0.3-0.8-0.6-1.4-1.1-1.8
		c0.2,0,0.4,0,0.6,0c1.1,0,1.8,0.4,2.1,1.2c0.2,0.4,0.4,1.1,0.7,2.2c0.1,0.3,0.2,0.6,0.2,0.7c0.1,0.4,0.2,0.6,0.3,0.7l2-4.8
		L158.3,58.5z"/>
	<path class="st4" d="M163.7,61.4h-3.8c0,0.5,0.1,0.9,0.3,1.2c0.2,0.4,0.5,0.6,0.9,0.6c0.7,0,1.3-0.3,1.8-1l0.6,0.3
		c-0.5,1.1-1.3,1.7-2.5,1.7c-0.9,0-1.5-0.2-2-0.7c-0.5-0.5-0.7-1.2-0.7-2c0-0.9,0.2-1.7,0.7-2.2c0.5-0.5,1.2-0.8,2.1-0.8
		c0.9,0,1.5,0.3,2,0.9C163.4,59.7,163.7,60.5,163.7,61.4z M162,60.8c0-1.2-0.4-1.8-1-1.8c-0.6,0-1,0.6-1,1.8H162z"/>
	<path class="st4" d="M169,59.3l-1.2,0.8c-0.2-0.8-0.7-1.1-1.3-1.1c-0.2,0-0.5,0.1-0.9,0.4v4.6h-1.7v-5.5h1.7v0.3
		c0.5-0.3,1-0.4,1.5-0.4C167.8,58.3,168.5,58.6,169,59.3z"/>
	<path class="st4" d="M175.8,58.7l-4.3,7.1l-0.7-0.4l1.2-2c-0.2-0.1-0.5-0.4-0.9-0.9c-0.3-0.3-0.6-1-1-2c-0.4-0.9-0.8-1.5-1.2-2
		c0.8,0,1.4,0.1,1.8,0.4c0.5,0.3,0.9,0.7,1.2,1.4c0.3,0.7,0.6,1.3,0.9,1.8l2.2-3.7L175.8,58.7z"/>
</g>
</svg>
