<svg xmlns="http://www.w3.org/2000/svg" class="svg" viewBox="0 0 29 34" width="29" height="34">
                    			<g fill="none" fill-rule="evenodd"><path fill="#fff" d="M 2.9 15 h 7.5 c 0.8 0 0.8 0.2 0.8 0.7 v 15.8 c 0 0.7 -0.1 0.7 -0.8 0.7 H 2.9 c -0.7 0 -0.8 0 -0.8 -0.7 V 15.7 C 2.1 15.2 2.2 15 2.9 15 L 2.9 15 Z M 17.2 7.6 c 3.2 1.4 5.4 1.4 5.5 -2.3 c 0.2 -5 -2.6 -4.1 -6.1 -2 c -1.6 1 -1.5 1.3 0.6 0.4 C 19 3 19.8 3.6 19.9 5.5 C 20 6.9 18.8 7.1 17.4 7 C 15.8 6.8 15.8 7 17.2 7.6 L 17.2 7.6 Z M 11.7 7.6 C 8.5 9.1 6.4 9 6.2 5.4 c -0.2 -5 2.7 -4.1 6.2 -2 c 1.6 1 1.4 1.3 -0.7 0.4 C 10 3 9.1 3.6 9 5.5 C 8.9 6.9 10.1 7.1 11.5 7 C 13.1 6.8 13.1 7 11.7 7.6 L 11.7 7.6 Z M 18.6 9.8 h 8.8 c 0.7 0 0.8 0 0.8 0.7 v 2.4 c 0 0.5 0 0.7 -0.8 0.7 h -8.8 c -0.8 0 -0.8 -0.1 -0.8 -0.7 v -2.4 C 17.8 9.9 17.8 9.8 18.6 9.8 L 18.6 9.8 Z M 1.6 9.8 h 8.8 c 0.7 0 0.8 0 0.8 0.7 v 2.4 c 0 0.6 -0.1 0.7 -0.8 0.7 H 1.6 c -0.8 0 -0.8 -0.1 -0.8 -0.7 v -2.4 C 0.8 9.9 0.8 9.8 1.6 9.8 L 1.6 9.8 Z M 15.7 32.3 h -2.3 c -0.6 0 -0.8 0 -0.8 -0.7 V 10.5 c 0 -0.7 0 -0.7 0.8 -0.7 h 2.3 c 0.7 0 0.8 0 0.8 0.7 v 21.1 C 16.5 32.3 16.4 32.3 15.7 32.3 L 15.7 32.3 Z M 18.6 15 h 7.5 c 0.7 0 0.8 0 0.8 0.7 v 15.8 c 0 0.6 -0.1 0.7 -0.8 0.7 h -7.5 c -0.8 0 -0.8 -0.1 -0.8 -0.7 V 15.7 C 17.8 15.2 17.8 15 18.6 15 L 18.6 15 Z" /></g>
							</svg>