<svg xmlns="http://www.w3.org/2000/svg" class="svg" viewBox="0 0 35 35" width="35" height="35"><g>
									<path fill="#fff" d="M 29.8 6.9 h -5.9 v 2.6 c 0 0.7 -0.3 1.3 -0.9 1.7 c -0.6 0.5 -1.4 0.7 -2.3 0.7 h -6.5 c -0.9 0 -1.7 -0.2 -2.3 -0.7 c -0.6 -0.5 -0.9 -1.1 -0.9 -1.7 V 6.9 H 5.1 C 4.7 6.9 4.4 7 4.2 7.2 C 4 7.3 3.8 7.6 3.8 7.8 v 24.5 c 0 0.3 0.1 0.5 0.4 0.7 c 0.2 0.2 0.5 0.3 0.9 0.3 h 8.3 c 0 -0.1 0 -0.2 0 -0.3 v -4.3 c 0 -0.4 0.2 -0.8 0.6 -1.1 c 0.4 -0.3 0.9 -0.5 1.5 -0.5 h 4.1 c 0.6 0 1 0.2 1.5 0.5 c 0.4 0.3 0.6 0.7 0.6 1.1 v 4.3 c 0 0.1 0 0.2 0 0.3 h 8.3 c 0.3 0 0.6 -0.1 0.9 -0.3 c 0.2 -0.2 0.4 -0.4 0.4 -0.7 V 7.8 c 0 -0.3 -0.1 -0.5 -0.4 -0.7 C 30.4 7 30.1 6.9 29.8 6.9 L 29.8 6.9 Z M 27.7 24.7 c -0.1 0.1 -0.3 0.2 -0.5 0.2 h -1.5 c -0.2 0 -0.4 -0.1 -0.5 -0.2 s -0.2 -0.2 -0.2 -0.4 v -1.1 c 0 -0.2 0.1 -0.3 0.2 -0.4 c 0.1 -0.1 0.3 -0.2 0.5 -0.2 h 1.5 c 0.2 0 0.4 0.1 0.5 0.2 c 0.1 0.1 0.2 0.2 0.2 0.4 v 1.1 C 27.9 24.4 27.8 24.5 27.7 24.7 L 27.7 24.7 Z M 27.9 27.7 v 1.1 c 0 0.2 -0.1 0.3 -0.2 0.4 c -0.1 0.1 -0.3 0.2 -0.5 0.2 h -1.5 c -0.2 0 -0.4 -0.1 -0.5 -0.2 c -0.1 -0.1 -0.2 -0.2 -0.2 -0.4 v -1.1 c 0 -0.2 0.1 -0.3 0.2 -0.4 c 0.1 -0.1 0.3 -0.2 0.5 -0.2 h 1.5 c 0.2 0 0.4 0.1 0.5 0.2 C 27.8 27.4 27.9 27.5 27.9 27.7 L 27.9 27.7 Z M 27.7 20.1 c -0.1 0.1 -0.3 0.2 -0.5 0.2 h -1.5 c -0.2 0 -0.4 -0.1 -0.5 -0.2 c -0.1 -0.1 -0.2 -0.2 -0.2 -0.4 v -1.1 c 0 -0.2 0.1 -0.3 0.2 -0.4 c 0.1 -0.1 0.3 -0.2 0.5 -0.2 h 1.5 c 0.2 0 0.4 0.1 0.5 0.2 c 0.1 0.1 0.2 0.2 0.2 0.4 v 1.1 C 27.9 19.8 27.8 20 27.7 20.1 L 27.7 20.1 Z M 27.7 15.5 c -0.1 0.1 -0.3 0.2 -0.5 0.2 h -1.5 c -0.2 0 -0.4 -0.1 -0.5 -0.2 c -0.1 -0.1 -0.2 -0.2 -0.2 -0.4 V 14 c 0 -0.2 0.1 -0.3 0.2 -0.4 c 0.1 -0.1 0.3 -0.2 0.5 -0.2 h 1.5 c 0.2 0 0.4 0.1 0.5 0.2 c 0.1 0.1 0.2 0.2 0.2 0.4 v 1.1 C 27.9 15.3 27.8 15.4 27.7 15.5 L 27.7 15.5 Z M 27.7 11 c -0.1 0.1 -0.3 0.2 -0.5 0.2 h -1.5 c -0.2 0 -0.4 -0.1 -0.5 -0.2 c -0.1 -0.1 -0.2 -0.2 -0.2 -0.4 V 9.4 c 0 -0.2 0.1 -0.3 0.2 -0.4 c 0.1 -0.1 0.3 -0.2 0.5 -0.2 h 1.5 c 0.2 0 0.4 0.1 0.5 0.2 c 0.1 0.1 0.2 0.2 0.2 0.4 v 1.1 C 27.9 10.7 27.8 10.8 27.7 11 L 27.7 11 Z M 18.9 14 c 0 -0.2 0.1 -0.3 0.2 -0.4 c 0.1 -0.1 0.3 -0.2 0.5 -0.2 h 1.5 c 0.2 0 0.4 0.1 0.5 0.2 c 0.1 0.1 0.2 0.2 0.2 0.4 v 1.1 c 0 0.2 -0.1 0.3 -0.2 0.4 c -0.1 0.1 -0.3 0.2 -0.5 0.2 h -1.5 c -0.2 0 -0.4 -0.1 -0.5 -0.2 c -0.1 -0.1 -0.2 -0.2 -0.2 -0.4 V 14 Z M 18.9 18.5 c 0 -0.2 0.1 -0.3 0.2 -0.4 c 0.1 -0.1 0.3 -0.2 0.5 -0.2 h 1.5 c 0.2 0 0.4 0.1 0.5 0.2 c 0.1 0.1 0.2 0.2 0.2 0.4 v 1.1 c 0 0.2 -0.1 0.3 -0.2 0.4 c -0.1 0.1 -0.3 0.2 -0.5 0.2 h -1.5 c -0.2 0 -0.4 -0.1 -0.5 -0.2 c -0.1 -0.1 -0.2 -0.2 -0.2 -0.4 V 18.5 Z M 9.7 24.7 c -0.1 0.1 -0.3 0.2 -0.5 0.2 H 7.7 c -0.2 0 -0.4 -0.1 -0.5 -0.2 s -0.2 -0.2 -0.2 -0.4 v -1.1 c 0 -0.2 0.1 -0.3 0.2 -0.4 c 0.1 -0.1 0.3 -0.2 0.5 -0.2 h 1.5 c 0.2 0 0.4 0.1 0.5 0.2 c 0.1 0.1 0.2 0.2 0.2 0.4 v 1.1 C 9.9 24.4 9.9 24.5 9.7 24.7 L 9.7 24.7 Z M 9.9 27.7 v 1.1 c 0 0.2 -0.1 0.3 -0.2 0.4 c -0.1 0.1 -0.3 0.2 -0.5 0.2 H 7.7 c -0.2 0 -0.4 -0.1 -0.5 -0.2 C 7 29.1 6.9 29 6.9 28.8 v -1.1 c 0 -0.2 0.1 -0.3 0.2 -0.4 c 0.1 -0.1 0.3 -0.2 0.5 -0.2 h 1.5 c 0.2 0 0.4 0.1 0.5 0.2 C 9.9 27.4 9.9 27.5 9.9 27.7 L 9.9 27.7 Z M 9.7 20.1 c -0.1 0.1 -0.3 0.2 -0.5 0.2 H 7.7 c -0.2 0 -0.4 -0.1 -0.5 -0.2 C 7 20 6.9 19.8 6.9 19.7 v -1.1 c 0 -0.2 0.1 -0.3 0.2 -0.4 C 7.3 18 7.5 18 7.7 18 h 1.5 c 0.2 0 0.4 0.1 0.5 0.2 c 0.1 0.1 0.2 0.2 0.2 0.4 v 1.1 C 9.9 19.8 9.9 20 9.7 20.1 L 9.7 20.1 Z M 9.7 15.5 c -0.1 0.1 -0.3 0.2 -0.5 0.2 H 7.7 c -0.2 0 -0.4 -0.1 -0.5 -0.2 c -0.1 -0.1 -0.2 -0.2 -0.2 -0.4 V 14 c 0 -0.2 0.1 -0.3 0.2 -0.4 c 0.1 -0.1 0.3 -0.2 0.5 -0.2 h 1.5 c 0.2 0 0.4 0.1 0.5 0.2 c 0.1 0.1 0.2 0.2 0.2 0.4 v 1.1 C 9.9 15.3 9.9 15.4 9.7 15.5 L 9.7 15.5 Z M 9.7 11 c -0.1 0.1 -0.3 0.2 -0.5 0.2 H 7.7 c -0.2 0 -0.4 -0.1 -0.5 -0.2 c -0.1 -0.1 -0.2 -0.2 -0.2 -0.4 V 9.4 C 6.9 9.3 7 9.1 7.1 9 c 0.1 -0.1 0.3 -0.2 0.5 -0.2 h 1.5 c 0.2 0 0.4 0.1 0.5 0.2 c 0.1 0.1 0.2 0.2 0.2 0.4 v 1.1 C 9.9 10.7 9.9 10.8 9.7 11 L 9.7 11 Z M 15.9 24.3 c 0 0.2 -0.1 0.3 -0.2 0.4 c -0.1 0.1 -0.3 0.2 -0.5 0.2 h -1.5 c -0.2 0 -0.4 -0.1 -0.5 -0.2 c -0.1 -0.1 -0.2 -0.2 -0.2 -0.4 v -1.1 c 0 -0.2 0.1 -0.3 0.2 -0.4 c 0.1 -0.1 0.3 -0.2 0.5 -0.2 h 1.5 c 0.2 0 0.4 0.1 0.5 0.2 c 0.1 0.1 0.2 0.2 0.2 0.4 V 24.3 Z M 15.9 19.7 c 0 0.2 -0.1 0.3 -0.2 0.4 c -0.1 0.1 -0.3 0.2 -0.5 0.2 h -1.5 c -0.2 0 -0.4 -0.1 -0.5 -0.2 c -0.1 -0.1 -0.2 -0.2 -0.2 -0.4 v -1.1 c 0 -0.2 0.1 -0.3 0.2 -0.4 c 0.1 -0.1 0.3 -0.2 0.5 -0.2 h 1.5 c 0.2 0 0.4 0.1 0.5 0.2 c 0.1 0.1 0.2 0.2 0.2 0.4 V 19.7 Z M 15.9 15.1 c 0 0.2 -0.1 0.3 -0.2 0.4 c -0.1 0.1 -0.3 0.2 -0.5 0.2 h -1.5 c -0.2 0 -0.4 -0.1 -0.5 -0.2 c -0.1 -0.1 -0.2 -0.2 -0.2 -0.4 V 14 c 0 -0.2 0.1 -0.3 0.2 -0.4 c 0.1 -0.1 0.3 -0.2 0.5 -0.2 h 1.5 c 0.2 0 0.4 0.1 0.5 0.2 c 0.1 0.1 0.2 0.2 0.2 0.4 V 15.1 Z M 21.2 24.8 h -1.5 c -0.2 0 -0.4 -0.1 -0.5 -0.2 c -0.1 -0.1 -0.2 -0.2 -0.2 -0.4 v -1.1 c 0 -0.2 0.1 -0.3 0.2 -0.4 c 0.1 -0.1 0.3 -0.2 0.5 -0.2 h 1.5 c 0.2 0 0.4 0.1 0.5 0.2 c 0.1 0.1 0.2 0.2 0.2 0.4 v 1.1 c 0 0.2 -0.1 0.3 -0.2 0.4 C 21.5 24.8 21.4 24.8 21.2 24.8 L 21.2 24.8 Z M 21.2 24.8" />
									<path fill="#fff" d="M 12.9 10.6 c 0.4 0.2 0.8 0.4 1.2 0.4 h 6.5 c 0.5 0 0.9 -0.1 1.2 -0.4 c 0 0 0.1 -0.1 0.1 -0.1 c 0.4 -0.3 0.6 -0.6 0.6 -1 v -5 c 0 -0.4 -0.2 -0.8 -0.6 -1 C 21.7 3.1 21.2 3 20.7 3 h -6.5 c -0.5 0 -1 0.1 -1.4 0.4 c -0.4 0.3 -0.6 0.6 -0.6 1 v 5 c 0 0.4 0.2 0.8 0.6 1 C 12.8 10.5 12.9 10.5 12.9 10.6 L 12.9 10.6 Z M 14 6.9 V 4.6 c 0 -0.1 0 -0.2 0.1 -0.2 c 0.1 -0.1 0.2 -0.1 0.3 -0.1 h 0.9 c 0.1 0 0.2 0 0.3 0.1 c 0.1 0.1 0.1 0.1 0.1 0.2 v 1.7 h 3.5 V 4.6 c 0 -0.1 0 -0.2 0.1 -0.2 c 0.1 -0.1 0.2 -0.1 0.3 -0.1 h 0.9 c 0.1 0 0.2 0 0.3 0.1 c 0.1 0.1 0.1 0.1 0.1 0.2 v 4.6 c 0 0.1 0 0.2 -0.1 0.2 c -0.1 0.1 -0.2 0.1 -0.3 0.1 h -0.9 c -0.1 0 -0.2 0 -0.3 -0.1 c -0.1 -0.1 -0.1 -0.1 -0.1 -0.2 V 7.6 h -3.5 v 1.7 c 0 0.1 0 0.2 -0.1 0.2 c -0.1 0.1 -0.2 0.1 -0.3 0.1 h -0.9 c -0.1 0 -0.2 0 -0.3 -0.1 C 14 9.4 14 9.4 14 9.3 V 6.9 Z M 14 6.9" />
									</g>
								</svg>