<?xml version="1.0" encoding="utf-8"?>
<!-- Generator: Adobe Illustrator 23.0.0, SVG Export Plug-In . SVG Version: 6.00 Build 0)  -->
<svg version="1.1" id="圖層_1" xmlns="http://www.w3.org/2000/svg" xmlns:xlink="http://www.w3.org/1999/xlink" x="0px" y="0px"
	 viewBox="0 0 35 35" style="enable-background:new 0 0 35 35;" xml:space="preserve">
<style type="text/css">
	.st0{fill:#FFFFFF;}
</style>
<g>
	<path class="st0" d="M31.4,4.5h-6.8v3c0,0.8-0.3,1.5-1,2c-0.7,0.6-1.6,0.8-2.7,0.8h-7.5c-1,0-2-0.2-2.7-0.8c-0.7-0.6-1-1.3-1-2v-3
		H2.8c-0.5,0-0.8,0.1-1,0.3C1.6,5,1.3,5.3,1.3,5.5v28.3c0,0.3,0.1,0.6,0.5,0.8C2,34.9,2.4,35,2.8,35h9.6c0-0.1,0-0.2,0-0.3v-5
		c0-0.5,0.2-0.9,0.7-1.3c0.5-0.3,1-0.6,1.7-0.6h4.7c0.7,0,1.2,0.2,1.7,0.6c0.5,0.3,0.7,0.8,0.7,1.3v5c0,0.1,0,0.2,0,0.3h9.6
		c0.3,0,0.7-0.1,1-0.3c0.2-0.2,0.5-0.5,0.5-0.8V5.5c0-0.3-0.1-0.6-0.5-0.8C32.1,4.6,31.7,4.5,31.4,4.5L31.4,4.5z M28.9,25
		c-0.1,0.1-0.3,0.2-0.6,0.2h-1.7c-0.2,0-0.5-0.1-0.6-0.2s-0.2-0.2-0.2-0.5v-1.3c0-0.2,0.1-0.3,0.2-0.5s0.3-0.2,0.6-0.2h1.7
		c0.2,0,0.5,0.1,0.6,0.2s0.2,0.2,0.2,0.5v1.3C29.2,24.7,29.1,24.8,28.9,25L28.9,25z M29.2,28.5v1.3c0,0.2-0.1,0.3-0.2,0.5
		s-0.3,0.2-0.6,0.2h-1.7c-0.2,0-0.5-0.1-0.6-0.2s-0.2-0.2-0.2-0.5v-1.3c0-0.2,0.1-0.3,0.2-0.5s0.3-0.2,0.6-0.2h1.7
		c0.2,0,0.5,0.1,0.6,0.2C29.1,28.2,29.2,28.3,29.2,28.5L29.2,28.5z M28.9,19.7c-0.1,0.1-0.3,0.2-0.6,0.2h-1.7
		c-0.2,0-0.5-0.1-0.6-0.2s-0.2-0.2-0.2-0.5V18c0-0.2,0.1-0.3,0.2-0.5s0.3-0.2,0.6-0.2h1.7c0.2,0,0.5,0.1,0.6,0.2s0.2,0.2,0.2,0.5
		v1.3C29.2,19.4,29.1,19.6,28.9,19.7L28.9,19.7z M28.9,14.4c-0.1,0.1-0.3,0.2-0.6,0.2h-1.7c-0.2,0-0.5-0.1-0.6-0.2
		c-0.1-0.1-0.2-0.2-0.2-0.5v-1.3c0-0.2,0.1-0.3,0.2-0.5c0.1-0.1,0.3-0.2,0.6-0.2h1.7c0.2,0,0.5,0.1,0.6,0.2c0.1,0.1,0.2,0.2,0.2,0.5
		V14C29.2,14.2,29.1,14.3,28.9,14.4L28.9,14.4z M28.9,9.2c-0.1,0.1-0.3,0.2-0.6,0.2h-1.7c-0.2,0-0.5-0.1-0.6-0.2
		c-0.1-0.1-0.2-0.2-0.2-0.5V7.4c0-0.2,0.1-0.3,0.2-0.5c0.1-0.1,0.3-0.2,0.6-0.2h1.7c0.2,0,0.5,0.1,0.6,0.2c0.1,0.1,0.2,0.2,0.2,0.5
		v1.3C29.2,8.9,29.1,9,28.9,9.2L28.9,9.2z M18.8,12.7c0-0.2,0.1-0.3,0.2-0.5c0.1-0.1,0.3-0.2,0.6-0.2h1.7c0.2,0,0.5,0.1,0.6,0.2
		c0.1,0.1,0.2,0.2,0.2,0.5V14c0,0.2-0.1,0.3-0.2,0.5c-0.1,0.1-0.3,0.2-0.6,0.2h-1.7c-0.2,0-0.5-0.1-0.6-0.2
		c-0.1-0.1-0.2-0.2-0.2-0.5V12.7z M18.8,17.9c0-0.2,0.1-0.3,0.2-0.5s0.3-0.2,0.6-0.2h1.7c0.2,0,0.5,0.1,0.6,0.2
		c0.1,0.1,0.2,0.2,0.2,0.5v1.3c0,0.2-0.1,0.3-0.2,0.5c-0.1,0.1-0.3,0.2-0.6,0.2h-1.7c-0.2,0-0.5-0.1-0.6-0.2s-0.2-0.2-0.2-0.5V17.9z
		 M8.2,25c-0.1,0.1-0.3,0.2-0.6,0.2H5.8c-0.2,0-0.5-0.1-0.6-0.2C5.2,24.9,5,24.8,5,24.6v-1.3c0-0.2,0.1-0.3,0.2-0.5
		c0.1-0.1,0.3-0.2,0.6-0.2h1.7c0.2,0,0.5,0.1,0.6,0.2s0.2,0.2,0.2,0.5v1.3C8.4,24.7,8.4,24.8,8.2,25L8.2,25z M8.4,28.5v1.3
		c0,0.2-0.1,0.3-0.2,0.5c-0.1,0.1-0.3,0.2-0.6,0.2H5.8c-0.2,0-0.5-0.1-0.6-0.2C5,30.1,4.9,30,4.9,29.8v-1.3c0-0.2,0.1-0.3,0.2-0.5
		s0.3-0.2,0.6-0.2h1.7c0.2,0,0.5,0.1,0.6,0.2C8.4,28.2,8.4,28.3,8.4,28.5L8.4,28.5z M8.2,19.7C8,19.8,7.8,20,7.6,20H5.8
		c-0.2,0-0.5-0.1-0.6-0.2c-0.2-0.1-0.3-0.3-0.3-0.5V18c0-0.2,0.1-0.3,0.2-0.5c0.2-0.2,0.5-0.2,0.7-0.2h1.7c0.2,0,0.5,0.1,0.6,0.2
		s0.2,0.2,0.2,0.5v1.3C8.4,19.4,8.4,19.6,8.2,19.7L8.2,19.7z M8.2,14.4c-0.1,0.1-0.3,0.2-0.6,0.2H5.8c-0.2,0-0.5-0.1-0.6-0.2
		C5.2,14.3,5,14.2,5,14v-1.3c0-0.2,0.1-0.3,0.2-0.5C5.4,12.1,5.6,12,5.8,12h1.7c0.2,0,0.5,0.1,0.6,0.2c0.1,0.1,0.2,0.2,0.2,0.5V14
		C8.4,14.2,8.4,14.3,8.2,14.4L8.2,14.4z M8.2,9.2C8,9.3,7.8,9.5,7.6,9.5H5.8c-0.2,0-0.5-0.1-0.6-0.2C5.2,9.1,5,9,5,8.8V7.4
		C4.9,7.3,5,7,5.2,6.9s0.3-0.2,0.6-0.2h1.7c0.2,0,0.5,0.1,0.6,0.2C8.2,7,8.3,7.1,8.3,7.4v1.3C8.4,8.9,8.4,9,8.2,9.2L8.2,9.2z
		 M15.3,24.6c0,0.2-0.1,0.3-0.2,0.5c-0.1,0.1-0.3,0.2-0.6,0.2h-1.7c-0.2,0-0.5-0.1-0.6-0.2S12,24.8,12,24.6v-1.3
		c0-0.2,0.1-0.3,0.2-0.5c0.1-0.1,0.3-0.2,0.6-0.2h1.7c0.2,0,0.5,0.1,0.6,0.2s0.2,0.2,0.2,0.5V24.6z M15.3,19.3
		c0,0.2-0.1,0.3-0.2,0.5C15,19.8,14.7,20,14.5,20h-1.7c-0.2,0-0.5-0.1-0.6-0.2S12,19.5,12,19.3V18c0-0.2,0.1-0.3,0.2-0.5
		c0.1-0.1,0.3-0.2,0.6-0.2h1.7c0.2,0,0.5,0.1,0.6,0.2s0.2,0.2,0.2,0.5V19.3z M15.3,14c0,0.2-0.1,0.3-0.2,0.5
		c-0.1,0.1-0.3,0.2-0.6,0.2h-1.7c-0.2,0-0.5-0.1-0.6-0.2C12.1,14.3,12,14.2,12,14v-1.3c0-0.2,0.1-0.3,0.2-0.5
		c0.1-0.1,0.3-0.2,0.6-0.2h1.7c0.2,0,0.5,0.1,0.6,0.2c0.1,0.1,0.2,0.2,0.2,0.5V14z M21.4,25.2h-1.7c-0.2,0-0.5-0.1-0.6-0.2
		s-0.2-0.2-0.2-0.5v-1.3c0-0.2,0.1-0.3,0.2-0.5s0.3-0.2,0.6-0.2h1.7c0.2,0,0.5,0.1,0.6,0.2c0.1,0.1,0.2,0.2,0.2,0.5v1.3
		c0,0.2-0.1,0.3-0.2,0.5C21.8,25.2,21.7,25.2,21.4,25.2L21.4,25.2z"/>
	<path class="st0" d="M11.9,8.8c0.5,0.2,0.9,0.5,1.4,0.5h7.5c0.6,0,1-0.1,1.4-0.5l0.1-0.1c0.5-0.3,0.7-0.7,0.7-1.2V1.7
		c0-0.5-0.2-0.9-0.7-1.2C22,0.1,21.4,0,20.9,0h-7.5c-0.6,0-1.2,0.1-1.6,0.5S11,1.1,11,1.6v5.8c0,0.5,0.2,0.9,0.7,1.2
		C11.7,8.6,11.9,8.6,11.9,8.8L11.9,8.8z M13.1,4.5V1.8c0-0.1,0-0.2,0.1-0.2c0.1-0.1,0.2-0.1,0.3-0.1h1c0.1,0,0.2,0,0.3,0.1
		c0.1,0.1,0.1,0.1,0.1,0.2v2h4v-2c0-0.1,0-0.2,0.1-0.2c0.1-0.1,0.2-0.1,0.3-0.1h1c0.1,0,0.2,0,0.3,0.1c0.1,0.1,0.1,0.1,0.1,0.2v5.3
		c0,0.1,0,0.2-0.1,0.2c-0.1,0.1-0.2,0.1-0.3,0.1h-1c-0.1,0-0.2,0-0.3-0.1c-0.1-0.1-0.1-0.1-0.1-0.2V5.3h-4v2c0,0.1,0,0.2-0.1,0.2
		c-0.1,0.1-0.2,0.1-0.3,0.1h-1c-0.1,0-0.2,0-0.3-0.1s-0.1-0.1-0.1-0.2V4.5z"/>
</g>
</svg>
