<?xml version="1.0" encoding="utf-8"?>
<!-- Generator: Adobe Illustrator 22.1.0, SVG Export Plug-In . SVG Version: 6.00 Build 0)  -->
<svg version="1.1" id="圖層_1" xmlns="http://www.w3.org/2000/svg" xmlns:xlink="http://www.w3.org/1999/xlink" x="0px" y="0px"
	 viewBox="0 0 140 46" style="enable-background:new 0 0 140 46;" xml:space="preserve">
<style type="text/css">
	.st0{fill:#3EC729;}
	.st1{enable-background:new    ;}
</style>
<path class="st0" d="M17.3,31.4c3.4-3.9,14.8-4,20.2-8.1c1.5-1.2,2.2-2.5,0.6,0.9c-4.3,9.1-15.6,6.2-20.4,8
	C16.3,32.7,16.2,32.6,17.3,31.4L17.3,31.4z M16.4,29.5c3.5-7.6,18.2-7.6,23.2-15.5c1.1-1.7,1.3-3.1,0.9,0.3
	C39.1,26.2,23.2,25,17,29.9C15.8,30.9,15.8,30.9,16.4,29.5L16.4,29.5z M14.3,36.1c-0.7-2.9-4.6-3.4-5.1-6.3C7,18.5,32.5,18.6,39.2,9
	c1.4-2,1.5-1.9,0.7,0.4c-4,11.8-26.4,12-24.6,22c0.5,2.7,0.5,3.7-0.1,4.8C14.7,37.1,14.5,37.1,14.3,36.1L14.3,36.1z M18.1,33.4
	c2.8-1.5,9.6-0.4,13.3-1.3c1.2-0.3,2.3-1,0.5,1.2c-2.6,3.2-8.3,1.5-13.4,1.3C16.7,34.5,16.6,34.2,18.1,33.4L18.1,33.4z"/>
<g class="st1">
	<path class="st0" d="M17.1,16.3c0,0.1-0.1,0.2-0.2,0.3c-0.1,0.1-0.2,0.1-0.3,0.1c-0.1,0-0.3,0-0.5-0.1c0.1,0.1,0.1,0.1,0.1,0.2
		s0,0.2-0.1,0.3c-0.1,0.1-0.2,0.2-0.4,0.2s-0.3-0.1-0.3-0.2c0.1,0,0.2,0,0.2-0.1s0-0.1-0.1-0.3c-0.1-0.1-0.3-0.3-0.5-0.6
		c-0.2-0.2-0.5-0.6-0.9-1l-0.5,0.4v0.8c0,0.4,0.1,0.7,0.2,0.7c0.1,0,0.2,0,0.2-0.1c0,0.1,0,0.1,0,0.1c0,0.1,0,0.2-0.1,0.2
		c-0.1,0.1-0.2,0.1-0.3,0.1c-0.3,0-0.5-0.1-0.6-0.4c0,0.3-0.2,0.4-0.5,0.4c-0.1,0-0.2,0-0.3-0.1c-0.1,0-0.1-0.1-0.1-0.2v-0.1
		c0.1,0,0.1,0.1,0.2,0.1c0.1,0,0.2-0.2,0.2-0.6c0-0.1,0-0.2,0-0.5c0-0.2,0-0.4,0-0.5s0-0.2,0-0.3c0-0.2,0-0.3,0-0.3
		c0-0.1,0-0.3,0-0.5s0-0.4,0-0.4c0-0.1,0-0.3,0-0.5s-0.1-0.3-0.2-0.3c0,0-0.1,0-0.2,0.1v-0.1c0-0.1,0.1-0.1,0.2-0.2
		c0.1,0,0.2-0.1,0.3-0.1c0.3,0,0.5,0.1,0.5,0.4c0.1-0.2,0.3-0.4,0.5-0.4c0.1,0,0.2,0,0.3,0.1s0.2,0.1,0.2,0.2c0,0,0,0.1-0.1,0.1
		c-0.1-0.1-0.2-0.1-0.2-0.1c-0.1,0-0.2,0.1-0.2,0.3c0,0,0,0.2,0,0.4s0,0.4,0,0.4v0.7c0.2-0.2,0.4-0.3,0.5-0.4
		c0.4-0.3,0.8-0.6,1.1-0.9c0.3-0.3,0.5-0.5,0.5-0.6s-0.1-0.1-0.2-0.1c0-0.1,0.1-0.1,0.2-0.1c0.1,0,0.2,0,0.3,0.1
		c0.1,0,0.1,0.1,0.1,0.2c0,0,0,0.1-0.1,0.2c0.1,0,0.1-0.1,0.2-0.1s0.2,0,0.2,0.1c0.1,0.1,0.1,0.1,0.1,0.2c0,0.1-0.1,0.1-0.2,0.2
		c0-0.1,0-0.1-0.1-0.1s-0.2,0.1-0.4,0.3c-0.4,0.4-0.7,0.6-0.9,0.8c0,0,0.2,0.2,0.4,0.5c0.1,0.1,0.3,0.4,0.6,0.6
		c0.1,0.1,0.3,0.3,0.6,0.6c0.1,0,0.1,0.1,0.2,0.1s0.1-0.1,0.2-0.2C17,16.1,17.1,16.2,17.1,16.3z"/>
	<path class="st0" d="M22.3,16.3c0,0.2-0.1,0.3-0.2,0.4c-0.1,0-0.2,0.1-0.2,0.1c-0.1,0-0.3,0-0.5-0.1c0,0.1,0.1,0.2,0.1,0.2
		c0,0.3-0.2,0.4-0.6,0.4c-0.1,0-0.2-0.1-0.2-0.2c0.2,0,0.2,0,0.2-0.1s-0.1-0.3-0.4-0.7c-0.1-0.1-0.2-0.3-0.3-0.4
		c-0.1-0.1-0.2-0.3-0.4-0.5c-0.2,0-0.4-0.1-0.6-0.1c0,0.2,0,0.4,0,0.4c0,0.1,0,0.3,0,0.5c0,0.3,0,0.4,0,0.4c0,0.2,0.1,0.3,0.2,0.3
		s0.1,0,0.2-0.1v0.1c0,0.2-0.1,0.3-0.4,0.3c-0.1,0-0.3,0-0.4-0.1c-0.1,0-0.2-0.1-0.2-0.3c0,0.3-0.2,0.4-0.5,0.4
		c-0.1,0-0.2,0-0.3-0.1c-0.1,0-0.1-0.1-0.1-0.2c0,0,0,0,0-0.1c0.1,0,0.1,0.1,0.2,0.1s0.2-0.2,0.2-0.5v-0.7c0-0.1,0-0.2,0-0.4
		s0-0.4,0-0.4c0-0.1,0-0.4,0-0.6c0-0.3,0-0.4,0-0.5s0-0.2,0-0.5c0-0.2-0.1-0.3-0.2-0.3s-0.1,0-0.2,0.1c0-0.1-0.1-0.1-0.1-0.1
		c0-0.1,0.1-0.1,0.2-0.2c0.1-0.1,0.2-0.1,0.3-0.1c0.1,0,0.2,0,0.3,0.1c0.1,0,0.2,0.1,0.2,0.3c0.1-0.2,0.3-0.4,0.6-0.4
		c0.1,0,0.1,0,0.2,0.1c0.1,0,0.1,0.1,0.2,0.2c0.2-0.1,0.4-0.2,0.6-0.2s0.4,0,0.5,0.1c0.1,0,0.3,0.1,0.5,0.2c0,0,0.1,0.1,0.2,0.1
		c0.2,0.2,0.3,0.5,0.3,0.8v0.1v0.1c0,0.5-0.3,0.8-0.9,1c0.2,0.2,0.3,0.3,0.3,0.4c0.1,0.1,0.2,0.3,0.3,0.4c0.2,0.2,0.3,0.3,0.4,0.3
		s0.1-0.1,0.2-0.2C22.2,16.2,22.3,16.2,22.3,16.3z M20.6,14c0-0.1,0-0.1,0-0.1c0-0.2-0.1-0.3-0.2-0.5c-0.1-0.1-0.3-0.2-0.5-0.2
		c-0.1,0-0.3,0.1-0.5,0.2v-0.1c0-0.1,0-0.1,0.1-0.2h-0.1c-0.1,0-0.2,0.2-0.2,0.5c0,0,0,0.2,0,0.4c0,0.3,0,0.4,0,0.5s0,0.3,0,0.6h0.1
		c0.8,0,1.2-0.2,1.3-0.6C20.6,14.3,20.6,14.2,20.6,14z"/>
</g>
<g class="st1">
	<path class="st0" d="M47.9,13h3.9v-2.1h3.8V13h3.5v1.4h-3.5V17h2.3c0.7,0,1.1,0.4,1.1,1.2V27h-3.4v2.5h3.6v1.4h-3.6v4h-3.7v-4h-4.2
		v-1.4h4.2V27h-3.8V17h3.7v-2.5h-3.9C47.9,14.5,47.9,13,47.9,13z M51.5,18.4v3c0.7-0.5,1.4-1.1,1.9-1.9c0.5,0.7,1.2,1.3,2.1,1.9
		v-3.1h-4V18.4z M51.5,22.4v3.1h4v-3.3c-0.7,0.5-1.5,1.1-2.1,2C53.2,23.6,52.5,23.1,51.5,22.4z M65.2,24.3h-5.6v-5.8h11
		c0.7,0,1.1,0.4,1.1,1.2v4.6H69v1.5h3.4v1.4H69v3.4h3.5V32H69v3h-3.8v-2.9h-2.5c-0.1,0.5-0.2,0.9-0.3,1.4L59,32.6
		c0.5-1.8,0.9-3.6,1.1-5.3h-0.8v-1.4h5.9V24.3z M59.1,15.7h2.4c0.3-0.7,0.5-1.5,0.7-2.4h-2.5v-1.4h2.8c0.1-0.3,0.2-0.7,0.2-1.1h3.7
		c-0.1,0.4-0.1,0.7-0.2,1.1H70c0.9,0,1.3,0.5,1.4,1.4v2.4h0.9v1.4H59.1V15.7z M63.7,27.3c-0.2,1.1-0.4,2.2-0.6,3.4h2.1v-3.4H63.7z
		 M63.2,19.9v2.9h4.5v-2.9H63.2z M65.9,13.3c-0.2,0.9-0.4,1.6-0.7,2.4h2.2v-2.4C67.4,13.3,65.9,13.3,65.9,13.3z"/>
	<path class="st0" d="M98.5,34.5H75.3V11.3h22.2c0.7,0,1.1,0.4,1.1,1.2L98.5,34.5L98.5,34.5z M79.2,16.1h6.9
		c-0.2-0.7-0.4-1.5-0.5-2.2l3.8-0.5c0.2,1,0.3,1.9,0.5,2.8h2c-0.4-0.4-0.9-0.8-1.7-1.2c0.9-0.4,1.5-1,2.1-1.8
		c0.4,0.7,1.1,1.3,2.1,1.8c-0.6,0.3-1.1,0.7-1.6,1.2h1.5v1.4h-4.1c0.3,1.4,0.6,2.8,1,4.1c0.3-0.4,0.5-0.8,0.8-1
		c0.6-0.5,1.3-0.7,2.1-0.7c0.2,0,0.5,0,0.7,0.1v-7.2H78.7V33h15.9v-2l-1.4,1.1c-0.7-0.8-1.4-1.7-2-2.7c-0.6,1.1-1.3,1.9-2.2,2.5
		c-0.5,0.3-1,0.4-1.7,0.4h-0.5c0.7-1.1,1.5-3.1,2.3-5.9c0.1-0.2,0.1-0.4,0.2-0.6c-0.8-1.7-1.5-3.6-2.2-5.6v7.1h-7.5v-8h6.9
		c0.1,0,0.3,0,0.3,0.1c-0.2-0.6-0.3-1.2-0.5-1.8H79v-1.5H79.2z M87.3,28.3l0.4,1.4c-1.5,0.4-2.9,0.6-4.1,0.8
		c-1.2,0.1-2.6,0.2-4.3,0.2l-0.1-1.5c1.8,0,3.2-0.1,4.2-0.2C84.6,28.9,85.9,28.6,87.3,28.3z M82.7,20.6v5.2h1.5v-5.2
		C84.2,20.6,82.7,20.6,82.7,20.6z M94.7,20.8c-0.9,1-1.6,2.8-2.3,5.2c0.5,1.4,1,2.7,1.5,3.8l0.8-0.7V20.8z"/>
	<path class="st0" d="M124,11.5c0.6,0,0.9,0.3,0.9,1c-0.6,0.6-1.6,1.3-3,2c-0.9,0.4-1.8,0.8-2.7,1c0.3,0.2,0.7,0.5,1,0.7h3.5
		c0.9,0,1.4,0.5,1.4,1.5v12.6c0,0.4-0.2,0.6-0.6,0.7h-3v-4.2h-1.8v4.1h-3.6v-4.1H114c-0.4,2.1-1.5,3.7-3.3,4.7
		c2.3,1.2,5,1.8,8.1,1.8c1.9,0,3.3-0.2,4.3-0.7c0.4-0.2,0.7-0.5,1-0.8c0.2-0.3,0.4-0.6,0.7-0.7c0.5,0.1,0.8,0.4,0.8,1
		c-0.4,0.9-1.3,1.6-2.6,2c-1.2,0.4-2.7,0.5-4.6,0.5c-4.9,0-8.8-1.1-11.7-3.2c-1.3,1.3-2.7,2.3-4.4,3c-0.2,0.1-0.4,0.1-0.5,0.1
		c-0.2,0-0.2-0.2-0.2-0.6c2.6-2.6,4.2-6,4.9-10h-2c-0.4,0.2-0.7,0.4-1.1,0.5c-0.2,0.1-0.5,0.2-0.8,0.2c-0.2,0-0.2-0.2-0.2-0.5
		c1.3-2,2.2-4,2.7-6.1h-3.4v-1.3h7.2c0.6,0,0.9,0.4,0.9,1.1c-0.5,1.3-1.3,2.6-2.6,4c-0.2,0.2-0.4,0.4-0.7,0.6h2.9
		c0.6,0,0.9,0.2,1.1,0.6v-4.5c0.1-1.4,1.2-2.5,3.1-3.2l0.9,0.3c-0.1,0.2-0.1,0.4-0.1,0.5h2.6c-1.3-0.7-2.5-1.4-3.5-2.2l1.5-1.1h-4
		v-1.4L124,11.5L124,11.5z M105.2,11.4c0.5,0.9,1.3,1.8,2.5,2.6c-0.9,0.5-1.7,1.3-2.5,2.6c-0.2-0.7-1.1-1.6-2.5-2.6
		C103.8,13.4,104.6,12.5,105.2,11.4z M108.1,29.6c0.6,0.5,1.3,1,2,1.4c0.2-1.1,0.3-2.3,0.4-3.6v-3.2
		C109.9,26.4,109.1,28.2,108.1,29.6z M114.1,17.6v3.2h2.1v-3.2H114.1z M114.1,22.3v3h2v-3H114.1z M115.7,12.9c0.8,0.7,1.6,1.3,2.5,2
		c0.2-0.2,0.4-0.4,0.6-0.5c0.4-0.4,0.7-0.9,0.9-1.4h-4V12.9z M119.8,17.6v3.2h1.8v-3.2H119.8z M119.8,22.3v3h1.8v-3H119.8z"/>
</g>
</svg>
