<svg xmlns="http://www.w3.org/2000/svg" class="svg" viewBox="0 0 29 34" width="29" height="34"><g fill="none" fill-rule="evenodd"><path d="M -3 -1 h 35 v 35 H -3 Z" /> <path fill="#fff" d="M 26.496 9.765 a 1.004 1.004 0 0 0 -0.996 -0.921 h -5 V 6.82 c 0 -3.347 -2.692 -6.07 -6 -6.07 c -3.31 0 -6 2.723 -6 6.07 v 2.024 h -5 c -0.518 0 -0.95 0.399 -0.996 0.92 l -2 22.258 c -0.025 0.283 0.068 0.563 0.258 0.773 c 0.19 0.21 0.457 0.33 0.738 0.33 h 26 c 0.281 0 0.549 -0.12 0.738 -0.33 c 0.187 -0.21 0.283 -0.49 0.258 -0.773 l -2 -22.257 Z M 10.5 6.82 c 0 -2.231 1.795 -4.046 4 -4.046 s 4 1.815 4 4.046 v 2.024 h -8 V 6.82 Z" /> <path fill="#f6798d" d="M 21.5 14.75 a 1.75 1.75 0 1 1 -3.5 0 a 1.75 1.75 0 0 1 3.5 0 M 11.875 14.75 a 1.75 1.75 0 1 1 -3.5 0 a 1.75 1.75 0 0 1 3.5 0 M 20.565 19.23 c -0.941 2.063 -3.144 3.395 -5.613 3.395 c -2.522 0 -4.737 -1.34 -5.646 -3.412 c -0.155 -0.355 0.022 -0.762 0.397 -0.91 a 0.77 0.77 0 0 1 0.281 -0.053 c 0.288 0 0.562 0.161 0.679 0.43 c 0.68 1.55 2.363 2.553 4.289 2.553 c 1.882 0 3.556 -1.003 4.264 -2.555 c 0.161 -0.353 0.593 -0.516 0.966 -0.363 c 0.372 0.153 0.544 0.562 0.383 0.915" /></g></svg>