<?xml version="1.0" encoding="utf-8"?>
<!-- Generator: Adobe Illustrator 22.1.0, SVG Export Plug-In . SVG Version: 6.00 Build 0)  -->
<svg version="1.1" id="圖層_1" xmlns="http://www.w3.org/2000/svg" xmlns:xlink="http://www.w3.org/1999/xlink" x="0px" y="0px"
	 viewBox="0 0 29 34" style="enable-background:new 0 0 29 34;" xml:space="preserve">
<style type="text/css">
	.st0{fill:none;}
	.st1{fill:#FFFFFF;}
</style>
<path class="st0" d="M-3-1h35v35H-3V-1z"/>
<path class="st1" d="M26.5,9.8c0-0.5-0.5-0.9-1-0.9h-5v-2c0-3.3-2.7-6.1-6-6.1c-3.3,0-6,2.7-6,6.1v2h-5c-0.5,0-1,0.4-1,0.9L0.5,32
	c0,0.3,0.1,0.6,0.3,0.8C1,33,1.2,33.1,1.5,33.1h26c0.3,0,0.5-0.1,0.7-0.3c0.2-0.2,0.3-0.5,0.3-0.8L26.5,9.8z M10.5,6.8
	c0-2.2,1.8-4,4-4s4,1.8,4,4v2h-8V6.8z M8.4,14.8c0-1,0.8-1.8,1.8-1.8s1.8,0.8,1.8,1.8s-0.8,1.8-1.8,1.8S8.4,15.7,8.4,14.8z
	 M20.6,19.2c-0.9,2.1-3.1,3.4-5.6,3.4c-2.5,0-4.7-1.3-5.6-3.4c-0.2-0.4,0-0.8,0.4-0.9c0.1,0,0.2-0.1,0.3-0.1c0.3,0,0.6,0.2,0.7,0.4
	c0.7,1.5,2.4,2.6,4.3,2.6c1.9,0,3.6-1,4.3-2.6c0.2-0.4,0.6-0.5,1-0.4C20.6,18.5,20.7,18.9,20.6,19.2z M19.8,16.5
	c-1,0-1.8-0.8-1.8-1.8s0.8-1.8,1.8-1.8s1.8,0.8,1.8,1.8S20.7,16.5,19.8,16.5z"/>
</svg>
