<?xml version="1.0" encoding="utf-8"?>
<!-- Generator: Adobe Illustrator 23.0.0, SVG Export Plug-In . SVG Version: 6.00 Build 0)  -->
<svg version="1.1" id="圖層_1" xmlns="http://www.w3.org/2000/svg" xmlns:xlink="http://www.w3.org/1999/xlink" x="0px" y="0px"
	 viewBox="0 0 1207.09 847.6" style="enable-background:new 0 0 1207.09 847.6;" xml:space="preserve">
<style type="text/css">
	.st0{fill:#FFFFFF;}
	.st1{fill:#BBDFF5;}
	.st2{fill:#6A79A8;}
	.st3{fill:#FF9C81;}
</style>
<g id="栝鍣_1_1_">
</g>
<g id="栝鍣_2">
</g>
<g id="栝鍣_4">
	<g id="XMLID_68_">
		<g id="XMLID_85_">
			<rect x="300.49" y="315.09" class="st0" width="551.76" height="349.04"/>
		</g>
		<g id="XMLID_82_">
			<rect x="309.61" y="324.21" class="st1" width="551.76" height="349.04"/>
		</g>
		<g>
			<g>
				<g>
					<path class="st2" d="M852.25,665.73H300.49c-0.88,0-1.6-0.72-1.6-1.6V315.17c0-0.88,0.72-1.6,1.6-1.6s1.6,0.72,1.6,1.6v347.36
						h548.56V316.05c0-0.88,0.72-1.6,1.6-1.6c0.88,0,1.6,0.72,1.6,1.6v348.08C853.85,665.01,853.13,665.73,852.25,665.73z"/>
				</g>
				<g id="XMLID_81_">
					<path class="st2" d="M852.25,611.43c-0.35,0-0.71-0.12-1.01-0.36l-184.22-149.5c-0.69-0.56-0.79-1.57-0.23-2.25
						c0.56-0.69,1.57-0.79,2.25-0.23l184.22,149.5c0.69,0.56,0.79,1.57,0.23,2.25C853.17,611.23,852.71,611.43,852.25,611.43z"/>
				</g>
				<g id="XMLID_78_">
					<path class="st2" d="M300.49,611.43c-0.46,0-0.93-0.2-1.24-0.59c-0.56-0.69-0.45-1.7,0.23-2.25l184.78-149.87
						c0.69-0.56,1.7-0.45,2.25,0.23c0.56,0.69,0.45,1.7-0.23,2.25L301.49,611.08C301.2,611.32,300.84,611.43,300.49,611.43z"/>
				</g>
			</g>
			<g id="XMLID_86_">
				<path class="st2" d="M578.16,532.77c-0.34,0-0.7-0.11-0.98-0.34L299.49,316.35c-0.54-0.42-0.75-1.14-0.53-1.78
					c0.22-0.65,0.83-1.08,1.51-1.08h551.76c0.68,0,1.29,0.43,1.51,1.07c0.22,0.65,0.02,1.36-0.52,1.78l-274.08,216.1
					C578.86,532.66,578.51,532.77,578.16,532.77z M305.14,316.69l273.02,212.45l269.48-212.46L305.14,316.69L305.14,316.69z"/>
			</g>
		</g>
		<g>
			<g id="XMLID_77_">
				<ellipse class="st3" cx="483.41" cy="390.92" rx="12.65" ry="16.86"/>
			</g>
			<g id="XMLID_75_">
				<ellipse class="st3" cx="669.33" cy="390.92" rx="12.65" ry="16.86"/>
			</g>
			<g>
				<path class="st2" d="M552.09,359.31c-0.03,0-0.06,0-0.09,0c-0.88-0.05-1.56-0.8-1.51-1.68c0.15-2.84-0.82-5.58-2.72-7.69
					c-1.9-2.12-4.52-3.36-7.36-3.51c-5.86-0.3-10.9,4.22-11.2,10.09c-0.05,0.88-0.8,1.57-1.68,1.51c-0.88-0.05-1.56-0.8-1.51-1.68
					c0.4-7.63,6.95-13.5,14.57-13.11c3.7,0.19,7.1,1.82,9.58,4.57c2.48,2.75,3.74,6.3,3.54,10
					C553.64,358.65,552.93,359.31,552.09,359.31z"/>
			</g>
			<g>
				<path class="st2" d="M629.95,360.61c-0.03,0-0.06,0-0.09,0c-0.88-0.05-1.56-0.8-1.51-1.68c0.15-2.84-0.82-5.58-2.72-7.69
					c-1.9-2.11-4.52-3.36-7.36-3.51c-5.86-0.3-10.9,4.22-11.2,10.09c-0.05,0.88-0.8,1.56-1.68,1.51c-0.88-0.05-1.56-0.8-1.51-1.68
					c0.4-7.63,6.95-13.5,14.57-13.11c7.63,0.4,13.51,6.94,13.11,14.57C631.5,359.96,630.79,360.61,629.95,360.61z"/>
			</g>
			<g>
				<path class="st2" d="M579.44,414.48c-40.1,0-64.58-24.32-64.83-24.57c-0.62-0.63-0.62-1.64,0.02-2.26
					c0.63-0.62,1.64-0.62,2.26,0.02c0.23,0.24,23.83,23.62,62.55,23.62c38.82,0,61.98-21.38,62.21-21.59
					c0.64-0.61,1.66-0.58,2.26,0.07c0.61,0.65,0.58,1.66-0.07,2.26C642.86,392.93,619.51,414.48,579.44,414.48z"/>
			</g>
		</g>
		<g>
			<g>
				<g>
					<path class="st2" d="M706.84,255.56c-0.32,0-0.65-0.1-0.93-0.3c-0.72-0.51-0.89-1.51-0.38-2.23
						c12.15-17.1,26.64-32.39,43.06-45.46c0.69-0.55,1.7-0.44,2.25,0.26c0.55,0.69,0.44,1.7-0.26,2.25
						c-16.18,12.89-30.46,27.96-42.44,44.82C707.83,255.33,707.33,255.56,706.84,255.56z"/>
				</g>
				<g>
					<path class="st2" d="M638.02,226.48c-0.06,0-0.11,0-0.17-0.01c-0.88-0.1-1.52-0.88-1.42-1.76c2.2-20.86,7.31-41.3,15.19-60.74
						c0.33-0.82,1.26-1.22,2.08-0.88s1.22,1.26,0.88,2.08c-7.77,19.17-12.81,39.31-14.98,59.87
						C639.53,225.87,638.84,226.48,638.02,226.48z"/>
				</g>
				<g>
					<path class="st2" d="M533.61,227.76c-0.78,0-1.46-0.57-1.58-1.36c-3.15-20.43-9.15-40.31-17.84-59.09
						c-0.37-0.8-0.02-1.75,0.78-2.12c0.8-0.37,1.75-0.02,2.12,0.78c8.81,19.05,14.9,39.22,18.1,59.94c0.14,0.87-0.46,1.69-1.34,1.82
						C533.77,227.75,533.69,227.76,533.61,227.76z"/>
				</g>
				<g>
					<path class="st2" d="M439.53,265.17c-0.58,0-1.13-0.31-1.42-0.85c-9.71-18.25-21.94-35.04-36.32-49.9
						c-0.62-0.63-0.6-1.65,0.04-2.26c0.63-0.62,1.65-0.6,2.26,0.04c14.59,15.08,26.99,32.11,36.85,50.62
						c0.42,0.78,0.12,1.75-0.66,2.17C440.05,265.11,439.79,265.17,439.53,265.17z"/>
				</g>
			</g>
		</g>
	</g>
	<g>
		<g>
			
				<ellipse transform="matrix(0.7071 -0.7071 0.7071 0.7071 28.9527 689.2078)" class="st0" cx="846.42" cy="309.65" rx="102.74" ry="102.74"/>
		</g>
		<g>
			
				<ellipse transform="matrix(0.7071 -0.7071 0.7071 0.7071 25.2283 698.1916)" class="st3" cx="855.41" cy="318.64" rx="102.74" ry="102.74"/>
		</g>
		<g>
			<path class="st2" d="M846.43,413.99c-57.54,0-104.34-46.81-104.34-104.34c0-57.54,46.81-104.34,104.34-104.34
				c57.54,0,104.34,46.81,104.34,104.34S903.96,413.99,846.43,413.99z M846.43,208.51c-55.77,0-101.14,45.37-101.14,101.14
				s45.37,101.14,101.14,101.14s101.14-45.37,101.14-101.14C947.57,253.89,902.2,208.51,846.43,208.51z"/>
		</g>
		<g>
			<g>
				<path class="st0" d="M848.19,361.71V295.1c-12.39,9.51-20.74,14.27-25.03,14.27c-2.05,0-3.87-0.82-5.46-2.45
					s-2.38-3.53-2.38-5.67c0-2.49,0.78-4.32,2.34-5.49c1.56-1.17,4.32-2.68,8.27-4.54c5.9-2.78,10.62-5.71,14.16-8.78
					c3.54-3.07,6.67-6.51,9.41-10.32c2.74-3.81,4.51-6.14,5.34-7.02c0.83-0.88,2.39-1.32,4.69-1.32c2.58,0,4.66,1,6.22,3
					c1.56,2,2.34,4.76,2.34,8.27v83.81c0,9.81-3.34,14.71-10.02,14.71c-2.98,0-5.37-1-7.18-3
					C849.09,368.57,848.19,365.61,848.19,361.71z"/>
			</g>
			<g>
				<path class="st2" d="M854.08,371.17c-3.43,0-6.25-1.18-8.36-3.53c-2.07-2.3-3.12-5.63-3.12-9.93v-63.38
					c-11.38,8.5-19.06,12.65-23.43,12.65c-2.49,0-4.71-0.99-6.6-2.94c-1.88-1.94-2.83-4.22-2.83-6.78c0-3.01,1-5.29,2.98-6.77
					c1.66-1.25,4.46-2.78,8.55-4.7c5.74-2.7,10.38-5.58,13.79-8.54c3.42-2.98,6.5-6.36,9.15-10.05c2.8-3.9,4.59-6.25,5.48-7.19
					c1.16-1.22,3.07-1.82,5.85-1.82c3.09,0,5.61,1.22,7.48,3.62c1.78,2.28,2.68,5.39,2.68,9.26v83.81
					C865.7,368.33,859.38,371.17,854.08,371.17z M844.19,289.5c0.24,0,0.48,0.06,0.7,0.17c0.54,0.27,0.9,0.82,0.9,1.43v66.61
					c0,3.48,0.78,6.1,2.3,7.78c1.5,1.66,3.46,2.47,5.98,2.47c3.62,0,8.42-1.36,8.42-13.11v-83.8c0-3.13-0.67-5.58-2-7.29
					c-1.26-1.61-2.87-2.38-4.96-2.38c-2.48,0-3.29,0.57-3.52,0.82c-0.54,0.57-1.87,2.22-5.21,6.86c-2.79,3.89-6.04,7.46-9.66,10.59
					c-3.63,3.15-8.52,6.19-14.53,9.02c-3.84,1.8-6.53,3.27-7.99,4.37c-1.14,0.86-1.7,2.23-1.7,4.21c0,1.73,0.63,3.22,1.93,4.56
					c1.28,1.32,2.69,1.97,4.3,1.97c2.69,0,9.05-2.42,24.06-13.94C843.5,289.61,843.85,289.5,844.19,289.5z"/>
			</g>
		</g>
	</g>
</g>
<g id="栝鍣_5">
	<g id="XMLID_79_">
		<g id="XMLID_117_">
			<g id="XMLID_118_">
				<rect x="1097.16" y="340.55" class="st2" width="6" height="14.86"/>
			</g>
		</g>
		<g id="XMLID_113_">
			<g id="XMLID_114_">
				<rect x="1097.16" y="370.66" class="st2" width="6" height="14.86"/>
			</g>
		</g>
		<g id="XMLID_84_">
			<g id="XMLID_112_">
				<rect x="1077.58" y="359.94" class="st2" width="14.86" height="6"/>
			</g>
		</g>
		<g id="XMLID_80_">
			<g id="XMLID_83_">
				<rect x="1107.68" y="359.94" class="st2" width="14.86" height="6"/>
			</g>
		</g>
	</g>
	<g id="XMLID_69_">
		<g id="XMLID_76_">
			<g id="XMLID_53_">
				<rect x="316.65" y="31.2" class="st2" width="6" height="14.86"/>
			</g>
		</g>
		<g id="XMLID_74_">
			<g id="XMLID_52_">
				<rect x="316.65" y="61.3" class="st2" width="6" height="14.86"/>
			</g>
		</g>
		<g id="XMLID_72_">
			<g id="XMLID_73_">
				<rect x="297.08" y="50.59" class="st2" width="14.86" height="6"/>
			</g>
		</g>
		<g id="XMLID_70_">
			<g id="XMLID_71_">
				<rect x="327.18" y="50.59" class="st2" width="14.86" height="6"/>
			</g>
		</g>
	</g>
	<g id="XMLID_60_">
		<g id="XMLID_50_">
			<g id="XMLID_51_">
				<rect x="842.33" y="38.82" class="st3" width="6" height="14.86"/>
			</g>
		</g>
		<g id="XMLID_7_">
			<g id="XMLID_49_">
				<rect x="842.33" y="68.92" class="st3" width="6" height="14.86"/>
			</g>
		</g>
		<g id="XMLID_63_">
			<g id="XMLID_64_">
				<rect x="822.75" y="58.21" class="st3" width="14.86" height="6"/>
			</g>
		</g>
		<g id="XMLID_61_">
			<g id="XMLID_62_">
				<rect x="852.85" y="58.21" class="st3" width="14.86" height="6"/>
			</g>
		</g>
	</g>
	<g id="XMLID_46_">
		<g id="XMLID_58_">
			<g id="XMLID_59_">
				<rect x="44.48" y="343.46" class="st3" width="6" height="14.86"/>
			</g>
		</g>
		<g id="XMLID_56_">
			<g id="XMLID_6_">
				<rect x="44.48" y="373.56" class="st3" width="6" height="14.86"/>
			</g>
		</g>
		<g id="XMLID_54_">
			<g id="XMLID_55_">
				<rect x="24.9" y="362.85" class="st3" width="14.86" height="6"/>
			</g>
		</g>
		<g id="XMLID_47_">
			<g id="XMLID_48_">
				<rect x="55.01" y="362.85" class="st3" width="14.86" height="6"/>
			</g>
		</g>
	</g>
	<g id="XMLID_37_">
		<g id="XMLID_44_">
			<g id="XMLID_45_">
				<rect x="1001.19" y="718.59" class="st3" width="6" height="14.86"/>
			</g>
		</g>
		<g id="XMLID_42_">
			<g id="XMLID_43_">
				<rect x="1001.19" y="748.7" class="st3" width="6" height="14.86"/>
			</g>
		</g>
		<g id="XMLID_40_">
			<g id="XMLID_41_">
				<rect x="981.62" y="737.98" class="st3" width="14.86" height="6"/>
			</g>
		</g>
		<g id="XMLID_38_">
			<g id="XMLID_39_">
				<rect x="1011.72" y="737.98" class="st3" width="14.86" height="6"/>
			</g>
		</g>
	</g>
	<g id="XMLID_20_">
		<g id="XMLID_29_">
			<g id="XMLID_31_">
				<rect x="125.34" y="574.36" class="st2" width="6" height="14.86"/>
			</g>
		</g>
		<g id="XMLID_25_">
			<g id="XMLID_26_">
				<rect x="125.34" y="604.47" class="st2" width="6" height="14.86"/>
			</g>
		</g>
		<g id="XMLID_23_">
			<g id="XMLID_24_">
				<rect x="105.76" y="593.75" class="st2" width="14.86" height="6"/>
			</g>
		</g>
		<g id="XMLID_21_">
			<g id="XMLID_22_">
				<rect x="135.87" y="593.75" class="st2" width="14.86" height="6"/>
			</g>
		</g>
	</g>
	<g id="XMLID_3_">
		<g id="XMLID_18_">
			<g id="XMLID_19_">
				<rect x="411.87" y="763.15" class="st2" width="6" height="14.86"/>
			</g>
		</g>
		<g id="XMLID_16_">
			<g id="XMLID_17_">
				<rect x="411.87" y="793.26" class="st2" width="6" height="14.86"/>
			</g>
		</g>
		<g id="XMLID_12_">
			<g id="XMLID_15_">
				<rect x="392.29" y="782.54" class="st2" width="14.86" height="6"/>
			</g>
		</g>
		<g id="XMLID_5_">
			<g id="XMLID_11_">
				<rect x="422.4" y="782.54" class="st2" width="14.86" height="6"/>
			</g>
		</g>
	</g>
</g>
</svg>
