<?xml version="1.0" encoding="utf-8"?>
<!-- Generator: Adobe Illustrator 23.0.0, SVG Export Plug-In . SVG Version: 6.00 Build 0)  -->
<svg version="1.1" id="圖層_1" xmlns="http://www.w3.org/2000/svg" xmlns:xlink="http://www.w3.org/1999/xlink" x="0px" y="0px"
	 viewBox="0 0 546.65 607.45" style="enable-background:new 0 0 546.65 607.45;" xml:space="preserve">
<style type="text/css">
	.st0{fill:#FFFFFF;}
	.st1{fill:#BBDFF5;}
	.st2{fill:#6A79A8;}
	.st3{fill:#DEF3F9;}
</style>
<g id="栝鍣_1_1_">
</g>
<g id="栝鍣_3">
</g>
<g id="栝鍣_4">
	<g>
		<g>
			<path class="st0" d="M465.78,514.12H70.65c-5.69,0-10.31-4.61-10.31-10.31v-256.8c0-5.69,4.61-10.31,10.31-10.31h395.13
				c5.69,0,10.31,4.61,10.31,10.31v256.81C476.09,509.51,471.47,514.12,465.78,514.12z"/>
		</g>
		<g>
			<path class="st1" d="M473.56,521.9H78.42c-5.69,0-10.31-4.61-10.31-10.31v-256.8c0-5.69,4.61-10.31,10.31-10.31h395.13
				c5.69,0,10.31,4.61,10.31,10.31v256.81C483.86,517.29,479.25,521.9,473.56,521.9z"/>
		</g>
		<g>
			<path class="st2" d="M463.27,515.68H73.16c-7.92,0-14.37-6.44-14.37-14.37V249.52c0-0.85,0.7-1.56,1.56-1.56s1.56,0.7,1.56,1.56
				v251.78c0,6.21,5.06,11.26,11.26,11.26h390.11c6.21,0,11.26-5.06,11.26-11.26V249.52c0-6.21-5.06-11.26-11.26-11.26H250.25
				c-0.86,0-1.56-0.7-1.56-1.56s0.7-1.56,1.56-1.56h213.02c7.92,0,14.37,6.44,14.37,14.37v251.78
				C477.65,509.24,471.19,515.68,463.27,515.68z"/>
		</g>
		<g>
			<g id="XMLID_24_">
				<path class="st0" d="M240.67,92.09l-34.9,208.99c-0.85,5.08,2.6,9.9,7.7,10.76l188.3,31.44c5.1,0.86,9.93-2.58,10.78-7.67
					l5.44-32.57l2.84-17.98L453.97,86.6c0.85-5.08-2.6-9.9-7.7-10.75L298.1,51.1l-57.42,40.95L240.67,92.09z"/>
				<path class="st2" d="M403.31,344.96c-0.6,0-1.2-0.04-1.81-0.14l-188.3-31.44c-5.94-1-9.97-6.61-8.98-12.55l34.9-208.99
					c0-0.01,0-0.02,0.01-0.03l0.01-0.04c0.07-0.4,0.3-0.76,0.63-0.99l57.42-40.95c0.33-0.24,0.76-0.33,1.16-0.26l148.18,24.74
					c2.88,0.49,5.4,2.05,7.09,4.42c1.69,2.38,2.37,5.26,1.89,8.13l-33.15,198.45l-2.83,17.96l-5.45,32.58
					C413.19,341.18,408.55,344.96,403.31,344.96z M242.1,92.94L207.3,301.33c-0.71,4.23,2.18,8.26,6.43,8.96l188.3,31.44
					c4.26,0.71,8.28-2.16,8.99-6.39l5.44-32.57l2.83-17.96l33.14-198.48c0.34-2.05-0.14-4.11-1.34-5.81
					c-1.21-1.69-3.01-2.82-5.08-3.16L298.46,52.74L242.1,92.94z M240.67,92.09l0.05,0.01L240.67,92.09z"/>
			</g>
			<g id="XMLID_23_">
				<path class="st2" d="M281.89,100.5c-0.62,0-1.25-0.05-1.88-0.15l-39.61-6.61c-0.62-0.1-1.12-0.57-1.26-1.18s0.1-1.25,0.61-1.62
					l57.55-41.09c0.51-0.37,1.2-0.39,1.73-0.05c0.54,0.33,0.82,0.95,0.71,1.57l-6.62,39.61C292.18,96.55,287.35,100.5,281.89,100.5z
					 M244.61,91.28l35.91,5.99c2.18,0.37,4.37-0.14,6.17-1.43c1.8-1.29,3-3.19,3.36-5.37l5.99-35.91L244.61,91.28z"/>
			</g>
			<g>
				<g>
					<path class="st1" d="M369.12,215.92c-0.13,0-0.26-0.01-0.39-0.03l-86.77-14.49c-1.27-0.21-2.13-1.41-1.92-2.68
						c0.21-1.27,1.4-2.13,2.68-1.92l86.77,14.49c1.27,0.21,2.13,1.41,1.92,2.68C371.24,215.11,370.25,215.92,369.12,215.92z"/>
				</g>
				<g>
					<path class="st2" d="M397.81,279.01c-0.09,0-0.17-0.01-0.26-0.03L234.22,251.7c-0.85-0.14-1.42-0.95-1.28-1.79
						c0.14-0.85,0.95-1.41,1.79-1.28l163.32,27.28c0.85,0.14,1.42,0.95,1.28,1.79C399.2,278.48,398.55,279.01,397.81,279.01z"/>
				</g>
				<g>
					<path class="st2" d="M401.64,256.02c-0.09,0-0.17-0.01-0.26-0.03l-163.32-27.27c-0.85-0.14-1.42-0.95-1.28-1.79
						c0.14-0.85,0.95-1.42,1.79-1.28l163.32,27.28c0.85,0.14,1.42,0.95,1.28,1.79C403.04,255.48,402.39,256.02,401.64,256.02z"/>
				</g>
				<g>
					<path class="st2" d="M312.92,288.47c-0.09,0-0.17-0.01-0.26-0.03l-82.28-13.74c-0.85-0.14-1.42-0.94-1.28-1.79
						c0.14-0.85,0.95-1.42,1.79-1.28l82.28,13.74c0.85,0.14,1.42,0.95,1.28,1.79C314.32,287.93,313.67,288.47,312.92,288.47z"/>
				</g>
			</g>
			<g>
				<path class="st2" d="M343.91,161.53c-2.71,0-5.57-0.22-8.56-0.71c-20.61-3.45-30.8-16.57-31.22-17.13
					c-0.52-0.68-0.39-1.66,0.3-2.18c0.68-0.52,1.66-0.39,2.18,0.3c0.09,0.13,9.92,12.72,29.26,15.94
					c19.31,3.23,33.04-6.45,33.18-6.54c0.7-0.5,1.67-0.34,2.17,0.35c0.5,0.69,0.35,1.67-0.35,2.17
					C370.36,154.09,359.85,161.53,343.91,161.53z"/>
			</g>
			<g>
				<path class="st2" d="M302.92,126.47c0.43-2.61-1.33-5.08-3.94-5.52c-2.61-0.43-5.08,1.33-5.52,3.94
					c-0.43,2.61,1.33,5.08,3.94,5.52C300.01,130.84,302.49,129.08,302.92,126.47z"/>
			</g>
			<g>
				<path class="st2" d="M385.57,140.26c0.43-2.61-1.33-5.09-3.94-5.52c-2.61-0.43-5.08,1.33-5.52,3.94
					c-0.43,2.61,1.33,5.08,3.94,5.52C382.66,144.64,385.13,142.87,385.57,140.26z"/>
			</g>
			<g>
				<path class="st2" d="M471.96,220.37c-0.14,0-0.29-0.02-0.43-0.06c-32.69-9.33-35.48-35.57-34.68-40.34
					c0.14-0.85,0.95-1.42,1.79-1.28c0.85,0.14,1.41,0.94,1.28,1.79c-0.04,0.26-1.1,27.25,32.46,36.84c0.83,0.23,1.31,1.1,1.06,1.92
					C473.26,219.93,472.63,220.37,471.96,220.37z"/>
			</g>
			<g>
				<path class="st2" d="M231.51,148.44c-0.1,0-0.2-0.01-0.32-0.03c-0.25-0.04-26.11-7.63-41.59-40.01
					c-0.37-0.77-0.04-1.7,0.73-2.08c0.77-0.37,1.7-0.04,2.08,0.73c13.26,27.76,35.56,37.54,39.4,38.31
					c0.84,0.17,1.39,0.99,1.22,1.84C232.89,147.93,232.24,148.44,231.51,148.44z"/>
			</g>
			<g>
				<g>
					<path class="st2" d="M295.35,349.71c-0.09,0-0.17-0.01-0.26-0.03c-0.85-0.14-1.42-0.94-1.28-1.79l3.68-22.04
						c0.14-0.85,0.95-1.41,1.79-1.28c0.85,0.14,1.42,0.94,1.28,1.79l-3.68,22.04C296.75,349.17,296.1,349.71,295.35,349.71z"/>
				</g>
				<g>
					<path class="st2" d="M312.52,352.58c-0.09,0-0.17-0.01-0.26-0.03c-0.85-0.14-1.42-0.94-1.28-1.79l3.68-22.04
						c0.14-0.85,0.94-1.42,1.79-1.28c0.85,0.14,1.42,0.94,1.28,1.79l-3.68,22.04C313.93,352.04,313.26,352.58,312.52,352.58z"/>
				</g>
			</g>
		</g>
		<g>
			<path class="st0" d="M476.09,279.4H281.81c-3.75,0-7.32-1.65-9.75-4.5l-48.39-56.74c-2.43-2.85-6-4.5-9.75-4.5H73.16
				c-7.07,0-12.82,5.74-12.82,12.82v52.92v221.92c0,7.07,5.74,12.82,12.82,12.82h390.11c7.07,0,12.82-5.74,12.82-12.82V279.4z"/>
		</g>
		<g>
			<path class="st3" d="M483.86,287.18H289.58c-3.75,0-7.32-1.65-9.75-4.5l-48.39-56.75c-2.43-2.85-6-4.5-9.75-4.5H80.93
				c-7.07,0-12.82,5.74-12.82,12.82v52.92v221.91c0,7.07,5.74,12.82,12.82,12.82h390.11c7.07,0,12.82-5.74,12.82-12.82
				L483.86,287.18L483.86,287.18z"/>
		</g>
		<g>
			<path class="st2" d="M463.27,515.69H73.16c-7.92,0-14.37-6.44-14.37-14.37V226.47c0-7.92,6.44-14.37,14.37-14.37h140.75
				c4.21,0,8.21,1.85,10.93,5.05l48.39,56.75c2.14,2.51,5.27,3.96,8.57,3.96h194.28c0.86,0,1.56,0.7,1.56,1.56v221.92
				C477.65,509.24,471.19,515.69,463.27,515.69z M73.16,215.21c-6.21,0-11.26,5.06-11.26,11.26v274.84
				c0,6.21,5.06,11.26,11.26,11.26h390.11c6.21,0,11.26-5.06,11.26-11.26V280.95H281.81c-4.21,0-8.21-1.84-10.93-5.05l-48.39-56.74
				c-2.14-2.51-5.27-3.96-8.57-3.96L73.16,215.21L73.16,215.21z"/>
		</g>
		<g>
			<path class="st2" d="M455.15,457.51c-0.86,0-1.56-0.7-1.56-1.56v-7.64c0-0.86,0.7-1.56,1.56-1.56s1.56,0.7,1.56,1.56v7.64
				C456.7,456.82,456,457.51,455.15,457.51z"/>
		</g>
		<g>
			<path class="st2" d="M455.15,469.57c-0.86,0-1.56-0.7-1.56-1.56v-4.66c0-0.86,0.7-1.56,1.56-1.56s1.56,0.7,1.56,1.56v4.66
				C456.7,468.87,456,469.57,455.15,469.57z"/>
		</g>
		<g>
			<path class="st2" d="M443.62,500.55h-10.84c-0.86,0-1.56-0.7-1.56-1.56s0.7-1.56,1.56-1.56h10.84c5.5,0,9.97-4.47,9.97-9.97
				v-12.46c0-0.86,0.7-1.56,1.56-1.56s1.56,0.7,1.56,1.56v12.46C456.7,494.68,450.83,500.55,443.62,500.55z"/>
		</g>
		<g>
			<path class="st2" d="M422.41,500.55h-11.6c-0.86,0-1.56-0.7-1.56-1.56s0.7-1.56,1.56-1.56h11.6c0.86,0,1.56,0.7,1.56,1.56
				S423.27,500.55,422.41,500.55z"/>
		</g>
		<g>
			<g>
				<path class="st2" d="M158.9,337.14c-27.57,0-43.65-14.84-44.33-15.47c-0.62-0.59-0.66-1.58-0.07-2.21
					c0.59-0.62,1.58-0.66,2.2-0.06c0.15,0.14,15.92,14.63,42.2,14.63c26.25,0,42.26-15.85,42.43-16c0.6-0.61,1.58-0.61,2.21-0.01
					c0.6,0.6,0.61,1.58,0.02,2.21C202.86,320.9,186.5,337.14,158.9,337.14z"/>
			</g>
			<g>
				<ellipse class="st2" cx="102.5" cy="299.7" rx="6.37" ry="6.37"/>
			</g>
			<g>
				<ellipse class="st2" cx="213.84" cy="299.7" rx="6.37" ry="6.37"/>
			</g>
		</g>
	</g>
</g>
</svg>
