<?xml version="1.0" encoding="utf-8"?>
<!-- Generator: Adobe Illustrator 23.0.0, SVG Export Plug-In . SVG Version: 6.00 Build 0)  -->
<svg version="1.1" id="圖層_1" xmlns="http://www.w3.org/2000/svg" xmlns:xlink="http://www.w3.org/1999/xlink" x="0px" y="0px"
	 viewBox="0 0 588.43 392.75" style="enable-background:new 0 0 588.43 392.75;" xml:space="preserve">
<style type="text/css">
	.st0{fill:#FFFFFF;}
	.st1{fill:#6A79A8;}
	.st2{fill:#F0F9FC;}
	.st3{enable-background:new    ;}
	.st4{fill:#FF9C81;}
</style>
<g id="XMLID_229_">
	<path class="st0" d="M505.02,299.77V80.94c0-3.96-3.24-7.2-7.2-7.2H137.45c-3.96,0-7.2,3.24-7.2,7.2v218.84H505.02z"/>
	<path class="st1" d="M505.02,300.67H130.25c-0.5,0-0.9-0.41-0.9-0.9V80.94c0-4.47,3.64-8.11,8.11-8.11h360.37
		c4.47,0,8.11,3.64,8.11,8.11v218.84C505.93,300.27,505.53,300.67,505.02,300.67z M131.15,298.87h372.98V80.94
		c0-3.47-2.83-6.3-6.3-6.3H137.45c-3.47,0-6.3,2.83-6.3,6.3L131.15,298.87L131.15,298.87z"/>
</g>
<g id="XMLID_189_">
	<path class="st0" d="M523.85,322.84H111.41c-11.29,0-20.47-9.18-20.47-20.47v-1.23c0-0.66,0.54-1.2,1.2-1.2h451.01
		c0.66,0,1.2,0.54,1.2,1.2v1.2C544.35,313.64,535.15,322.84,523.85,322.84z"/>
	<path class="st1" d="M523.85,323.74H111.41c-11.79,0-21.37-9.59-21.37-21.37v-1.23c0-1.16,0.94-2.1,2.1-2.1h451.01
		c1.16,0,2.1,0.94,2.1,2.1v1.2C545.25,314.14,535.65,323.74,523.85,323.74z M92.14,300.84c-0.17,0-0.3,0.14-0.3,0.3v1.23
		c0,10.79,8.78,19.57,19.57,19.57h412.44c10.8,0,19.6-8.79,19.6-19.6v-1.2c0-0.17-0.14-0.3-0.3-0.3H92.14z"/>
</g>
<g id="XMLID_185_">
	<path class="st1" d="M362.55,306.95h-89.82c-4.03,0-7.43-2.88-8.09-6.86c-0.05-0.26,0.03-0.53,0.2-0.73
		c0.17-0.2,0.42-0.32,0.69-0.32h104.23c0.27,0,0.52,0.12,0.69,0.32s0.24,0.47,0.2,0.73C369.98,304.06,366.58,306.95,362.55,306.95z
		 M266.68,300.85c0.88,2.55,3.27,4.3,6.05,4.3h89.82c2.78,0,5.17-1.76,6.05-4.3H266.68z"/>
</g>
<rect x="151.26" y="91.36" class="st1" width="332.75" height="19.87"/>
<g id="XMLID_1_">
	<path class="st1" d="M484.44,290.31h-333.6c-0.5,0-0.9-0.41-0.9-0.9V91.12c0-0.5,0.41-0.9,0.9-0.9h333.6c0.5,0,0.9,0.41,0.9,0.9
		V289.4C485.34,289.9,484.94,290.31,484.44,290.31z M151.74,288.5h331.8V92.02h-331.8V288.5z"/>
</g>
<rect x="151.74" y="92.02" class="st2" width="331.8" height="196.48"/>
<g>
	<path class="st0" d="M192.07,164.45c8.48-9.47,36.06-9.64,49.36-19.78c3.66-2.83,5.48-5.98,1.5,2.16
		c-10.64,22.1-38.06,15.12-49.86,19.61C189.57,167.77,189.41,167.44,192.07,164.45L192.07,164.45z M189.91,159.8
		c8.64-18.45,44.54-18.61,56.67-37.89c2.66-4.15,3.16-7.64,2.16,0.83c-3.32,29.25-42.21,26.26-57.17,38.22
		C188.24,163.45,188.24,163.29,189.91,159.8L189.91,159.8z M184.59,176.08c-1.66-6.98-11.13-8.14-12.63-15.46
		c-5.15-27.59,57.33-27.42,73.62-50.69c3.32-4.82,3.66-4.65,1.83,1c-9.97,28.92-64.65,29.25-60.16,53.68
		c1.16,6.65,1.16,8.97-0.33,11.63C185.59,178.57,185.25,178.57,184.59,176.08L184.59,176.08z M193.89,169.43
		c6.65-3.66,23.6-1.16,32.57-3.16c2.99-0.66,5.65-2.49,1.16,2.83c-6.32,7.81-20.27,3.66-32.9,3.16
		C190.74,172.09,190.4,171.26,193.89,169.43L193.89,169.43z"/>
	<g>
		<path class="st0" d="M191.57,127.72c0,0.17-0.17,0.5-0.33,0.66c-0.17,0.17-0.5,0.33-0.66,0.33c-0.33,0-0.66-0.17-1.16-0.33
			c0.17,0.17,0.17,0.33,0.17,0.5c0,0.33-0.17,0.5-0.33,0.66c-0.33,0.33-0.66,0.5-0.83,0.5c-0.33,0-0.66-0.17-0.83-0.33
			c0.33,0,0.5-0.17,0.5-0.33s-0.17-0.33-0.33-0.66c-0.33-0.33-0.66-0.83-1.33-1.5c-0.5-0.5-1.16-1.33-2.16-2.49l-1,0.83v1.99
			c0,1,0.17,1.66,0.5,1.66c0.17,0,0.33,0,0.5-0.17c0,0.17,0.17,0.33,0.17,0.33c0,0.17-0.17,0.33-0.33,0.5s-0.5,0.17-0.83,0.17
			c-0.66,0-1.16-0.33-1.5-1c0,0.66-0.5,1-1.33,1c-0.17,0-0.5,0-0.66-0.17c-0.17-0.17-0.33-0.33-0.33-0.5c0,0,0-0.17,0-0.33
			c0.17,0.17,0.33,0.17,0.5,0.17c0.33,0,0.5-0.5,0.5-1.5c0-0.17,0-0.66,0-1.16c0-0.5,0-0.83,0-1.16c0-0.17,0-0.33,0-0.83
			c0-0.33,0-0.66,0-0.83c0-0.33,0-0.66,0-1.33c0-0.66,0-1,0-1c0-0.33,0-0.83,0-1.16c0-0.5-0.17-0.83-0.5-0.83
			c-0.17,0-0.33,0-0.5,0.17c0-0.17,0-0.17,0-0.17c0-0.17,0.17-0.33,0.33-0.5c0.33,0,0.66,0,0.83,0c0.83,0,1.33,0.33,1.33,0.83
			c0.33-0.5,0.66-0.83,1.33-0.83c0.17,0,0.5,0,0.83,0.17c0.17,0.17,0.33,0.33,0.33,0.5c0,0.17,0,0.17-0.17,0.33
			c-0.17-0.17-0.5-0.17-0.5-0.17c-0.33,0-0.5,0.17-0.5,0.66c0,0.17,0,0.5,0,1s0,0.83,0,0.83v1.83c0.5-0.33,1-0.66,1.16-1
			c1-0.83,1.83-1.5,2.66-2.16c0.83-0.66,1.16-1.16,1.16-1.5c0-0.17-0.17-0.33-0.5-0.33c0.17-0.17,0.33-0.33,0.5-0.33
			s0.5,0,0.66,0.17c0.17,0.17,0.33,0.33,0.33,0.5c0,0.17,0,0.17-0.17,0.33c0.17-0.17,0.33-0.17,0.5-0.17c0.17,0,0.33,0,0.5,0.17
			c0.17,0.17,0.17,0.33,0.17,0.5c0,0.17-0.17,0.33-0.5,0.33c0-0.17,0-0.33-0.17-0.33c-0.17,0-0.5,0.17-1,0.66
			c-0.83,0.83-1.66,1.5-2.16,1.99c0,0.17,0.33,0.5,1,1.16c0.33,0.33,0.83,0.83,1.33,1.5c0.33,0.33,0.66,0.83,1.33,1.33
			c0.17,0.17,0.33,0.17,0.5,0.17c0.17,0,0.33-0.17,0.5-0.5C191.4,127.22,191.57,127.39,191.57,127.72z"/>
		<path class="st0" d="M204.2,127.72c0,0.33-0.17,0.66-0.5,0.83c-0.17,0.17-0.33,0.17-0.5,0.17c-0.33,0-0.66-0.17-1.16-0.33
			c0.17,0.17,0.17,0.33,0.17,0.5c0,0.66-0.5,1-1.5,1c-0.33,0-0.5-0.17-0.5-0.33c0.33,0,0.5-0.17,0.5-0.33c0-0.33-0.33-0.83-1-1.66
			c-0.33-0.33-0.5-0.66-0.83-1c-0.17-0.33-0.5-0.66-0.83-1.16c-0.5,0-1-0.17-1.33-0.33c0,0.5,0,1,0,1c0,0.17,0,0.66,0,1.16
			c0,0.66,0,1,0,1c0,0.5,0.17,0.83,0.5,0.83c0.17,0,0.33,0,0.5-0.17c0,0.17,0,0.17,0,0.33c0,0.5-0.33,0.66-1,0.66
			c-0.33,0-0.66,0-0.83-0.17c-0.17-0.17-0.33-0.33-0.66-0.66c0,0.66-0.5,1-1.33,1c-0.17,0-0.5,0-0.66-0.17s-0.33-0.33-0.33-0.5
			v-0.17c0.17,0.17,0.33,0.17,0.5,0.17c0.33,0,0.5-0.33,0.5-1.16v-1.83c0-0.17,0-0.5,0-1c0-0.5,0-0.83,0-1c0-0.33,0-0.83,0-1.5
			s0-1.16,0-1.16c0-0.17,0-0.66,0-1.16s-0.17-0.66-0.5-0.66c-0.17,0-0.33,0.17-0.5,0.33c-0.17-0.17-0.17-0.33-0.17-0.33
			c0-0.17,0.17-0.33,0.5-0.5c0.33-0.17,0.5-0.17,0.83-0.17c0.33,0,0.5,0,0.83,0.17c0.17,0.17,0.5,0.33,0.5,0.66
			c0.17-0.66,0.66-0.83,1.33-0.83c0.17,0,0.33,0,0.5,0.17c0.17,0.17,0.33,0.17,0.33,0.33c0.5-0.33,1-0.5,1.66-0.5
			c0.5,0,1,0,1.33,0.17c0.33,0.17,0.66,0.33,1.16,0.5c0.17,0,0.33,0.17,0.5,0.33c0.5,0.5,0.83,1.16,0.83,1.99c0,0,0,0.17,0,0.33
			c0,0.17,0,0.17,0,0.33c0,1.16-0.66,1.83-2.16,2.33c0.33,0.5,0.66,0.83,0.83,1c0.33,0.33,0.5,0.66,0.83,1
			c0.33,0.5,0.66,0.66,0.83,0.66s0.33-0.17,0.5-0.5C204.2,127.22,204.2,127.39,204.2,127.72z M200.21,122.07c0-0.17,0-0.33,0-0.33
			c0-0.5-0.17-0.83-0.5-1.16c-0.33-0.33-0.83-0.5-1.33-0.5c-0.33,0-0.66,0.17-1.16,0.33v-0.17c0-0.17,0-0.33,0.17-0.5
			c0,0-0.17,0-0.33,0c-0.33,0-0.5,0.33-0.5,1.16c0,0,0,0.5,0,1c0,0.66,0,1,0,1.16c0,0.17,0,0.66,0,1.33h0.17
			c1.99,0,2.99-0.5,3.32-1.5C200.21,122.74,200.21,122.4,200.21,122.07z"/>
	</g>
	<g>
		<path class="st0" d="M266.85,119.58h9.64v-5.15h9.14v5.15h8.64v3.49h-8.64v6.15h5.65c1.83,0,2.66,1,2.66,2.99v21.6h-8.31v6.15
			h8.81v3.49h-8.81v9.81h-9.14v-9.81h-10.3v-3.49h10.3v-6.15h-9.31v-24.6h9.31v-6.15h-9.64V119.58z M275.66,132.71v7.31
			c1.83-1.16,3.32-2.66,4.65-4.49c1.16,1.66,2.99,3.32,5.15,4.65v-7.48C285.46,132.71,275.66,132.71,275.66,132.71z M275.66,142.51
			v7.64h9.97v-8.14c-1.83,1.16-3.66,2.83-5.15,4.82C279.81,145.5,278.15,144.17,275.66,142.51z M309.23,147.17h-13.79v-14.13h26.76
			c1.83,0,2.66,1,2.66,2.99v11.13h-6.65v3.82h8.31v3.49h-8.31v8.31h8.48v3.49h-8.48v7.15h-9.14v-7.15h-5.98
			c-0.33,1.16-0.5,2.33-0.83,3.32l-8.48-2.16c1.16-4.32,2.16-8.64,2.66-12.96h-1.66v-3.49h14.46V147.17z M294.27,126.06h5.82
			c0.66-1.83,1.33-3.82,1.66-5.82h-6.15v-3.49h6.98c0.17-0.83,0.33-1.66,0.5-2.66h9.14c-0.17,1-0.33,1.83-0.5,2.66h9.14
			c2.16,0,3.32,1.16,3.32,3.32v5.82h2.16v3.49h-32.07V126.06z M305.41,154.48c-0.33,2.66-0.83,5.48-1.5,8.31h5.15v-8.31H305.41z
			 M304.41,136.36v7.15h10.97v-7.15H304.41z M310.89,120.41c-0.5,2.16-1,3.99-1.66,5.82h5.48v-5.82H310.89z"/>
		<path class="st0" d="M393.15,172.09h-57v-56.67h54.34c1.83,0,2.66,1,2.66,2.99V172.09z M345.96,127.06h16.78
			c-0.5-1.83-1-3.66-1.33-5.48l9.31-1.33c0.33,2.33,0.83,4.65,1.33,6.81h4.82c-0.83-1-2.33-1.99-4.15-2.99
			c2.16-1,3.82-2.49,4.99-4.49c1,1.66,2.66,3.16,4.99,4.49c-1.33,0.66-2.66,1.66-3.82,2.99h3.82v3.49h-10.14
			c0.66,3.49,1.5,6.81,2.33,10.14c0.66-1,1.33-1.83,1.99-2.49c1.33-1.16,3.16-1.66,5.15-1.83c0.66,0,1.16,0,1.66,0.17v-17.62h-38.89
			v49.69h38.89v-4.99l-3.32,2.66c-1.66-1.99-3.32-4.15-4.82-6.65c-1.33,2.66-3.16,4.65-5.48,5.98c-1.16,0.66-2.49,1-4.15,1.16h-1.33
			c1.83-2.66,3.66-7.48,5.82-14.46c0.17-0.5,0.33-1,0.33-1.33c-1.99-4.15-3.66-8.81-5.32-13.79v17.28h-18.45v-19.61h16.95
			c0.33,0,0.66,0.17,0.83,0.33c-0.5-1.5-0.83-2.99-1.33-4.49h-17.78v-3.66H345.96z M365.73,156.97l0.83,3.32
			c-3.82,1-7.15,1.5-9.97,1.99c-2.99,0.33-6.48,0.5-10.47,0.5l-0.17-3.66c4.32,0,7.81-0.17,10.3-0.5
			C359.08,158.3,362.24,157.8,365.73,156.97z M354.43,138.19v12.63h3.82v-12.63H354.43z M383.68,138.69
			c-2.16,2.49-3.99,6.81-5.48,12.8c1.16,3.32,2.49,6.48,3.66,9.31l1.83-1.66V138.69z"/>
		<path class="st0" d="M457.8,115.76c1.5,0,2.16,0.83,2.16,2.49c-1.5,1.5-3.99,3.16-7.31,4.82c-2.16,1-4.32,1.99-6.65,2.49
			c0.83,0.66,1.66,1.16,2.49,1.66h8.64c2.16,0,3.32,1.16,3.49,3.66v30.74c0,1-0.5,1.5-1.5,1.66h-7.15v-10.3h-4.49v10.14h-8.81
			v-10.14h-5.32c-0.83,5.15-3.66,8.97-8.14,11.47c5.65,2.99,12.3,4.49,19.78,4.49c4.65,0,8.14-0.5,10.47-1.66
			c1-0.5,1.66-1.16,2.33-1.99c0.5-0.83,1-1.33,1.83-1.66c1.16,0.17,1.83,1,1.99,2.33c-1,2.16-2.99,3.82-6.32,4.99
			c-2.99,0.83-6.65,1.33-11.3,1.33c-11.97,0-21.6-2.66-28.58-7.81c-2.99,3.16-6.65,5.65-10.8,7.31c-0.5,0.17-0.83,0.33-1.33,0.33
			c-0.33-0.17-0.5-0.5-0.5-1.33c6.32-6.48,10.3-14.62,11.97-24.43h-4.82c-0.83,0.5-1.83,1-2.66,1.33c-0.5,0.33-1.16,0.33-1.99,0.33
			c-0.33-0.17-0.5-0.5-0.5-1.33c3.32-4.82,5.48-9.81,6.65-14.79h-8.31v-3.16h17.45c1.5,0,2.16,1,2.16,2.83
			c-1.16,3.16-3.32,6.32-6.32,9.81c-0.5,0.5-1,1-1.66,1.5h6.98c1.33,0,2.33,0.5,2.83,1.33v-11.13c0.33-3.49,2.83-6.15,7.48-7.98
			l2.16,0.83c-0.17,0.5-0.17,0.83-0.33,1.33h6.32c-3.16-1.66-5.98-3.49-8.64-5.32l3.66-2.83h-9.8v-3.49L457.8,115.76L457.8,115.76z
			 M411.93,115.59c1.16,2.33,3.32,4.49,5.98,6.32c-2.16,1.16-4.15,3.32-5.98,6.32c-0.5-1.83-2.49-3.99-5.98-6.32
			C408.28,120.58,410.27,118.41,411.93,115.59z M418.91,160.13c1.5,1.33,3.16,2.49,4.99,3.49c0.5-2.66,0.83-5.65,0.83-8.64V147
			C423.23,152.15,421.24,156.64,418.91,160.13z M433.54,130.88v7.81h4.99v-7.81H433.54z M433.54,142.18v7.31h4.99v-7.31H433.54z
			 M437.36,119.25c1.99,1.66,3.99,3.16,6.15,4.82c0.5-0.5,1-0.83,1.33-1.33c1-1,1.66-2.16,2.33-3.49H437.36z M447.5,130.88v7.81
			h4.49v-7.81H447.5z M447.5,142.18v7.31h4.49v-7.31H447.5z"/>
	</g>
	<g class="st3">
		<path class="st0" d="M187.08,196.86h-2.83v-6.65h-5.48v6.65h-2.83v-13.29h2.83v5.65h5.48v-5.65h2.83V196.86z"/>
		<path class="st0" d="M196.06,196.86h-2.83v-0.5c-0.83,0.5-1.66,0.66-2.49,0.66c-1,0-1.99-0.33-2.66-0.83
			c-0.66-0.5-1.16-1.33-1.16-2.49c0-1.16,0.5-1.99,1.5-2.66c0.83-0.5,1.99-0.83,3.16-0.83c0.33,0,0.83,0,1.33,0.17v-1.33
			c0-0.17-0.17-0.5-0.5-0.66s-0.5-0.17-0.83-0.17c-1.16,0-2.33,0.33-3.32,0.83l-0.33-1c1.5-0.66,2.66-0.83,3.66-0.83
			c1.16,0,2.16,0.33,2.83,1c0.83,0.66,1.16,1.66,1.16,2.83v5.82H196.06z M193.23,195.36v-3.66c-0.33-0.17-0.83-0.17-1.16-0.17
			c-0.66,0-1.33,0.17-1.83,0.66c-0.5,0.5-0.66,1-0.66,1.66c0,1.5,0.5,2.16,1.5,2.16C191.73,196.02,192.4,195.86,193.23,195.36z"/>
		<path class="st0" d="M205.2,196.86h-2.83v-5.98c0-0.66-0.17-1.16-0.33-1.5c-0.33-0.5-0.66-0.83-1.33-0.83
			c-0.66,0-1.33,0.17-2.16,0.66v7.64h-2.83v-9.14h2.83v0.5c0.83-0.5,1.66-0.83,2.33-0.83c1.16,0,2.16,0.33,2.83,0.83
			c0.83,0.66,1.16,1.5,1.16,2.66v5.98H205.2z"/>
		<path class="st0" d="M214.34,194.03c0,2.16-0.66,3.66-1.83,4.65c-1,0.83-2.66,1.33-4.82,1.33l-0.17-1c1.99,0,3.16-0.66,3.66-1.83
			c-0.5,0.17-1.16,0.33-1.66,0.33c-1.33,0-2.33-0.5-3.16-1.33c-0.66-0.83-1-1.99-1-3.32c0-1.5,0.33-2.66,1.16-3.66
			c0.83-1,1.99-1.5,3.49-1.5c0.66,0,1.16,0.17,1.66,0.66v-0.5h2.83v6.15H214.34z M211.51,192.7c0-2.66-0.5-3.99-1.66-3.99
			c-1.16,0-1.83,1.33-1.83,3.99c0,2.33,0.5,3.32,1.5,3.32C210.85,196.19,211.51,195.03,211.51,192.7z"/>
		<path class="st0" d="M223.64,196.86h-2.83v-0.66c-0.33,0.33-0.66,0.5-1.16,0.66c-0.5,0.17-0.83,0.33-1.33,0.33
			c-1.16,0-2.16-0.33-2.83-0.83c-0.83-0.66-1.16-1.5-1.16-2.66v-5.98h2.83v5.98c0,0.66,0.17,1.16,0.33,1.5
			c0.33,0.5,0.66,0.83,1.33,0.83s1.33-0.33,2.16-1v-7.48h2.83v9.31H223.64z"/>
		<path class="st0" d="M233.11,196.86c-0.33,0.17-0.66,0.33-1.33,0.33c-1,0-1.83-0.33-2.49-1c-0.33-0.33-0.66-1.16-1.16-2.16
			c-0.5-1-0.83-1.66-1.33-1.99l-0.66,0.5v4.65h-2.83v-13.29h2.83v7.31l5.15-3.49l0.66,1l-4.65,2.99h0.17c1,0,1.83,0.33,2.33,1
			c0.17,0.17,0.66,1,1.33,2.33C231.95,195.86,232.62,196.52,233.11,196.86z"/>
		<path class="st0" d="M250.73,193.03c-1.16,2.66-3.16,3.99-5.98,3.99c-2.16,0-3.66-0.66-4.82-1.83c-1.16-1.16-1.66-2.83-1.66-4.82
			c0-1.99,0.5-3.82,1.66-4.99c1.16-1.33,2.83-2.16,4.82-2.16c2.33,0,4.15,0.66,5.32,2.16l-0.83,0.66c-1.16-1-2.49-1.5-3.99-1.5
			c-1.33,0-2.33,0.66-2.99,1.99c-0.5,1-0.83,2.33-0.83,3.82c0,1.16,0.33,2.33,0.83,3.16c0.66,1.16,1.5,1.66,2.66,1.66
			c2.16,0,3.82-1,4.65-2.83L250.73,193.03z"/>
		<path class="st0" d="M259.54,196.86h-2.83v-0.5c-0.83,0.5-1.66,0.66-2.49,0.66c-1,0-1.99-0.33-2.66-0.83
			c-0.66-0.5-1.16-1.33-1.16-2.49c0-1.16,0.5-1.99,1.5-2.66c0.83-0.5,1.99-0.83,3.16-0.83c0.33,0,0.83,0,1.33,0.17v-1.33
			c0-0.17-0.17-0.5-0.5-0.66c-0.33-0.17-0.5-0.17-0.83-0.17c-1.16,0-2.33,0.33-3.32,0.83l-0.33-1c1.5-0.66,2.66-0.83,3.66-0.83
			c1.16,0,2.16,0.33,2.83,1c0.83,0.66,1.16,1.66,1.16,2.83v5.82H259.54z M256.71,195.36v-3.66c-0.33-0.17-0.83-0.17-1.16-0.17
			c-0.66,0-1.33,0.17-1.83,0.66c-0.5,0.5-0.66,1-0.66,1.66c0,1.5,0.5,2.16,1.5,2.16C255.22,196.02,255.88,195.86,256.71,195.36z"/>
		<path class="st0" d="M268.35,189.21l-1.99,1.33c-0.33-1.33-1.16-1.83-2.16-1.83c-0.33,0-0.83,0.17-1.5,0.66v7.64h-2.83v-9.14h2.83
			v0.5c0.83-0.5,1.66-0.66,2.49-0.66C266.52,187.55,267.52,188.05,268.35,189.21z"/>
		<path class="st0" d="M277.49,194.03c0,2.16-0.66,3.66-1.83,4.65c-1,0.83-2.66,1.33-4.82,1.33l-0.17-1c1.99,0,3.16-0.66,3.66-1.83
			c-0.5,0.17-1.16,0.33-1.66,0.33c-1.33,0-2.33-0.5-3.16-1.33c-0.66-0.83-1-1.99-1-3.32c0-1.5,0.33-2.66,1.16-3.66
			c0.83-1,1.99-1.5,3.49-1.5c0.66,0,1.16,0.17,1.66,0.66v-0.5h2.83v6.15H277.49z M274.66,192.7c0-2.66-0.5-3.99-1.66-3.99
			s-1.83,1.33-1.83,3.99c0,2.33,0.5,3.32,1.5,3.32C274,196.19,274.66,195.03,274.66,192.7z"/>
		<path class="st0" d="M287.79,192.37c0,1.5-0.5,2.66-1.5,3.66c-1,0.83-2.33,1.33-3.82,1.33c-1.5,0-2.66-0.33-3.49-1.16
			c-1-0.83-1.5-1.99-1.5-3.32c0-1.5,0.5-2.83,1.33-3.66c1-1,2.16-1.33,3.66-1.33c1.66,0,2.83,0.33,3.82,1.16
			C287.29,189.54,287.79,190.71,287.79,192.37z M284.8,192.37c0-2.49-0.66-3.82-2.16-3.82c-0.83,0-1.33,0.5-1.83,1.5
			c-0.33,0.66-0.33,1.5-0.33,2.49c0,0.83,0.17,1.5,0.33,2.16c0.33,0.83,0.83,1.33,1.5,1.33c0.83,0,1.5-0.5,1.83-1.33
			C284.63,194.2,284.8,193.37,284.8,192.37z"/>
		<path class="st0" d="M292.61,195.03c-0.83,1.5-1.83,2.66-3.16,3.32c-0.17-0.17-0.33-0.33-0.66-0.66c0.66-0.33,1-0.83,1.16-1.33
			c-0.33-0.5-0.83-1-1.5-1.33c0.83-0.5,1.5-1.16,1.99-2.16C290.95,193.7,291.61,194.53,292.61,195.03z"/>
		<path class="st0" d="M310.06,193.37c0,1.5-0.66,2.49-1.83,3.16c-1,0.5-2.16,0.83-3.82,0.83c-2.49,0-4.49-0.83-6.15-2.66l0.66-0.66
			c1.5,1.16,3.32,1.83,5.15,1.83c0.83,0,1.5-0.17,1.99-0.5c0.66-0.33,1-1,1-1.66c0-0.83-0.83-1.5-2.33-1.83
			c-2.66-0.66-3.99-1.16-4.15-1.16c-1.5-0.66-2.33-1.83-2.33-3.32s0.66-2.49,2.16-3.16c1-0.5,2.33-0.66,3.99-0.66
			c1.99,0,3.82,0.66,5.15,1.99l-0.83,0.83c-0.5-0.5-1.33-0.83-2.16-1.16c-0.83-0.33-1.5-0.5-2.33-0.5s-1.5,0.17-2.16,0.33
			c-0.66,0.33-1.16,1-1.16,1.66c0,0.83,0.5,1.33,1.66,1.66c1,0.33,1.99,0.5,3.16,0.83c1.33,0.33,2.16,0.83,2.83,1.33
			C309.56,191.2,310.06,192.04,310.06,193.37z"/>
		<path class="st0" d="M318.87,196.86h-2.83v-6.32c0-1.33-0.5-1.99-1.66-1.99c-0.33,0-0.83,0.17-1.66,0.5v7.98h-2.83v-13.29h2.83
			v4.15c0.66-0.17,1.33-0.33,1.83-0.33c2.83,0,4.32,1.16,4.32,3.66V196.86z"/>
		<path class="st0" d="M323.35,185.06c-0.83,0.33-1.5,1-1.99,1.99c-0.33-0.83-1-1.5-1.99-1.99c0.83-0.33,1.33-1,1.99-1.99
			C321.69,183.89,322.36,184.56,323.35,185.06z M322.69,196.86h-2.83v-9.14h2.83V196.86z"/>
		<path class="st0" d="M333.33,192.2c0,3.32-1.5,4.99-4.49,4.99c-0.83,0-1.66-0.17-2.16-0.66v3.32h-2.83v-11.97h2.83v0.66
			c0.66-0.66,1.5-1,2.33-1c1.5,0,2.49,0.5,3.32,1.33C332.99,189.54,333.33,190.71,333.33,192.2z M330.5,192.04
			c0-0.83-0.17-1.66-0.5-2.33c-0.5-0.83-1-1.33-1.83-1.33c-0.66,0-1.16,0.33-1.66,1.16v5.32c0.5,0.66,1.16,1,1.66,1
			C329.84,196.02,330.5,194.69,330.5,192.04z"/>
		<path class="st0" d="M342.8,192.2c0,3.32-1.5,4.99-4.49,4.99c-0.83,0-1.66-0.17-2.16-0.66v3.32h-2.83v-11.97h2.83v0.66
			c0.66-0.66,1.5-1,2.33-1c1.5,0,2.49,0.5,3.32,1.33C342.47,189.54,342.8,190.71,342.8,192.2z M339.97,192.04
			c0-0.83-0.17-1.66-0.5-2.33c-0.5-0.83-1-1.33-1.83-1.33c-0.66,0-1.16,0.33-1.66,1.16v5.32c0.5,0.66,1.16,1,1.66,1
			C339.31,196.02,339.97,194.69,339.97,192.04z"/>
		<path class="st0" d="M347.28,185.06c-0.66,0.33-1.33,1-1.99,1.99c-0.33-0.83-1-1.5-1.99-1.99c0.83-0.33,1.33-1,1.99-1.99
			C345.79,183.89,346.45,184.56,347.28,185.06z M346.79,196.86h-2.83v-9.14h2.83V196.86z"/>
		<path class="st0" d="M357.09,196.86h-2.83v-5.98c0-0.66-0.17-1.16-0.33-1.5c-0.33-0.5-0.66-0.83-1.33-0.83
			c-0.66,0-1.33,0.17-2.16,0.66v7.64h-2.49v-9.14h2.83v0.5c0.83-0.5,1.66-0.83,2.33-0.83c1.16,0,2.16,0.33,2.83,0.83
			c0.83,0.66,1.16,1.5,1.16,2.66C357.09,190.87,357.09,196.86,357.09,196.86z"/>
		<path class="st0" d="M366.23,194.03c0,2.16-0.66,3.66-1.83,4.65c-1,0.83-2.66,1.33-4.82,1.33l-0.17-1c1.99,0,3.16-0.66,3.66-1.83
			c-0.5,0.17-1.16,0.33-1.66,0.33c-1.33,0-2.33-0.5-3.16-1.33c-0.66-0.83-1-1.99-1-3.32c0-1.5,0.33-2.66,1.16-3.66
			c0.83-1,1.99-1.5,3.49-1.5c0.66,0,1.16,0.17,1.66,0.66v-0.5h2.83v6.15H366.23z M363.41,192.7c0-2.66-0.5-3.99-1.66-3.99
			s-1.83,1.33-1.83,3.99c0,2.33,0.5,3.32,1.5,3.32C362.74,196.19,363.41,195.03,363.41,192.7z"/>
		<path class="st0" d="M384.34,190.37c-0.5,1.33-1.16,2.49-1.99,3.49c0.5,0.33,1,0.83,1.83,1.33l-1.66,1.83
			c-0.33-0.17-1-0.66-1.83-1.5c-1.33,1.16-2.83,1.66-4.15,1.66c-1.16,0-2.16-0.33-2.99-0.83c-1-0.66-1.5-1.5-1.5-2.49
			c0-1.5,1-2.83,2.83-3.99c-1-1.16-1.5-2.16-1.5-2.99c0-1.16,0.5-1.99,1.33-2.66c0.83-0.5,1.83-0.83,2.99-0.83
			c1,0,1.99,0.33,2.66,0.83c0.83,0.66,1.33,1.33,1.33,2.33c0,1.33-1,2.49-2.83,3.82c0.83,0.83,1.66,1.66,2.83,2.66
			c0.66-0.83,1.16-1.83,1.66-2.99L384.34,190.37z M379.69,194.69c-1.16-1-2.16-1.99-3.32-3.16c-1.16,0.66-1.83,1.5-1.83,2.49
			c0,0.66,0.17,1.16,0.66,1.5c0.5,0.33,1,0.5,1.66,0.5C377.86,196.02,378.69,195.69,379.69,194.69z M379.03,186.05
			c0-0.5-0.17-0.83-0.5-1.16c-0.33-0.33-0.83-0.5-1.33-0.5s-0.83,0.17-1.16,0.5c-0.33,0.33-0.5,0.66-0.5,1.16
			c0,0.66,0.33,1.5,1.16,2.49C378.36,187.71,379.03,186.88,379.03,186.05z"/>
		<path class="st0" d="M401.3,189.88c0,4.65-2.83,6.98-8.64,6.98h-2.49v-12.8c0-0.33,0.17-0.5,0.66-0.5h2.33
			c2.49,0,4.32,0.5,5.65,1.33C400.46,185.89,401.3,187.55,401.3,189.88z M398.47,189.88c0-3.49-1.83-5.15-5.48-5.15v11.13
			C396.64,195.86,398.47,193.86,398.47,189.88z"/>
		<path class="st0" d="M410.44,192.7h-6.32c0,0.83,0.17,1.5,0.5,1.99c0.33,0.66,0.83,1,1.5,1c1.16,0,2.16-0.5,2.99-1.66l1,0.5
			c-0.83,1.83-2.16,2.83-4.15,2.83c-1.5,0-2.49-0.33-3.32-1.16s-1.16-1.99-1.16-3.32c0-1.5,0.33-2.83,1.16-3.66s1.99-1.33,3.49-1.33
			c1.5,0,2.49,0.5,3.32,1.5C409.94,189.88,410.27,191.2,410.44,192.7z M407.61,191.7c0-1.99-0.66-2.99-1.66-2.99s-1.66,1-1.66,2.99
			H407.61z"/>
		<path class="st0" d="M414.42,196.86h-2.83v-13.29h2.83V196.86z"/>
		<path class="st0" d="M420.07,185.06c-0.66,0.33-1.33,1-1.99,1.99c-0.33-0.83-1-1.5-1.99-1.99c0.83-0.33,1.33-1,1.99-1.99
			C418.41,183.89,419.08,184.56,420.07,185.06z M419.41,196.86h-2.83v-9.14h2.83V196.86z"/>
		<path class="st0" d="M431.54,187.88l-3.82,8.97h-2.99c-0.66-0.66-1.16-1.66-1.5-2.99c-0.33-1.16-0.66-2.16-1-3.32
			c-0.5-1.33-1-2.33-1.83-2.99c0.33,0,0.66,0,1,0c1.83,0,2.99,0.66,3.49,1.99c0.33,0.66,0.66,1.83,1.16,3.66
			c0.17,0.5,0.33,1,0.33,1.16c0.17,0.66,0.33,1,0.5,1.16l3.32-7.98L431.54,187.88z"/>
		<path class="st0" d="M440.52,192.7h-6.32c0,0.83,0.17,1.5,0.5,1.99c0.33,0.66,0.83,1,1.5,1c1.16,0,2.16-0.5,2.99-1.66l1,0.5
			c-0.83,1.83-2.16,2.83-4.15,2.83c-1.5,0-2.49-0.33-3.32-1.16s-1.16-1.99-1.16-3.32c0-1.5,0.33-2.83,1.16-3.66s1.99-1.33,3.49-1.33
			c1.5,0,2.49,0.5,3.32,1.5C440.02,189.88,440.52,191.2,440.52,192.7z M437.69,191.7c0-1.99-0.66-2.99-1.66-2.99s-1.66,1-1.66,2.99
			H437.69z"/>
		<path class="st0" d="M449.32,189.21l-1.99,1.33c-0.33-1.33-1.16-1.83-2.16-1.83c-0.33,0-0.83,0.17-1.5,0.66v7.64h-2.83v-9.14h2.83
			v0.5c0.83-0.5,1.66-0.66,2.49-0.66C447.33,187.55,448.49,188.05,449.32,189.21z"/>
		<path class="st0" d="M460.62,188.21l-7.15,11.8l-1.16-0.66l1.99-3.32c-0.33-0.17-0.83-0.66-1.5-1.5c-0.5-0.5-1-1.66-1.66-3.32
			c-0.66-1.5-1.33-2.49-1.99-3.32c1.33,0,2.33,0.17,2.99,0.66c0.83,0.5,1.5,1.16,1.99,2.33c0.5,1.16,1,2.16,1.5,2.99l3.66-6.15
			L460.62,188.21z"/>
	</g>
</g>
<g>
	<path class="st1" d="M243.45,160.19h-6.68v20.15h-3.61v-20.15h-6.66v-3.09h16.95V160.19z"/>
	<path class="st1" d="M253.04,167.1c-0.52-0.34-1.21-0.51-2.07-0.51c-1.14,0-2.06,0.5-2.77,1.5c-0.71,1-1.06,2.32-1.06,3.98v8.26
		h-3.52v-16.59h3.52v3.3h0.07c0.82-2.39,2.27-3.58,4.35-3.58c0.62,0,1.11,0.07,1.47,0.21V167.1z"/>
	<path class="st1" d="M256.14,164.85c1.69-1,3.64-1.5,5.86-1.5c4.19,0,6.29,2.17,6.29,6.49v10.49h-3.42v-2.52h-0.08
		c-1.13,1.94-2.81,2.91-5.04,2.91c-1.63,0-2.91-0.44-3.85-1.32c-0.94-0.88-1.4-2.06-1.4-3.55c0-3.12,1.85-4.94,5.56-5.46l4.82-0.66
		c0-2.47-1.09-3.71-3.26-3.71c-1.99,0-3.82,0.64-5.49,1.93V164.85z M261.23,172.62c-1.2,0.16-2.05,0.46-2.54,0.92
		c-0.5,0.45-0.74,1.11-0.74,1.98c0,0.73,0.26,1.33,0.8,1.79c0.53,0.46,1.21,0.7,2.04,0.7c1.18,0,2.16-0.42,2.94-1.25
		c0.78-0.83,1.17-1.89,1.17-3.16v-1.47L261.23,172.62z"/>
	<path class="st1" d="M284.72,179.63c-1.22,0.73-2.79,1.1-4.7,1.1c-2.42,0-4.38-0.76-5.88-2.29s-2.25-3.53-2.25-6
		c0-2.77,0.8-4.97,2.42-6.62c1.61-1.64,3.76-2.46,6.43-2.46c1.65,0,2.98,0.26,4.01,0.79v3.3c-1.18-0.85-2.46-1.27-3.83-1.27
		c-1.62,0-2.93,0.54-3.94,1.63c-1.01,1.09-1.51,2.54-1.51,4.37c0,1.79,0.48,3.19,1.43,4.21c0.95,1.01,2.24,1.52,3.85,1.52
		c1.4,0,2.72-0.45,3.96-1.35V179.63z"/>
	<path class="st1" d="M303.27,180.33h-4.58l-6.6-8.06h-0.07v8.06h-3.52v-24.56h3.52v15.59h0.07l6.26-7.62h4.38l-7.08,7.93
		L303.27,180.33z"/>
	<path class="st1" d="M305.33,158.04c0-0.59,0.2-1.08,0.61-1.46c0.4-0.38,0.92-0.58,1.54-0.58c0.61,0,1.13,0.19,1.54,0.58
		c0.42,0.38,0.63,0.87,0.63,1.46c0,0.59-0.21,1.08-0.63,1.46c-0.42,0.38-0.94,0.58-1.54,0.58c-0.61,0-1.12-0.2-1.53-0.59
		C305.53,159.11,305.33,158.62,305.33,158.04z M305.67,180.33v-16.59h3.52v16.59H305.67z"/>
	<path class="st1" d="M328.73,180.33h-3.51v-9.38c0-3.19-1.16-4.79-3.48-4.79c-1.17,0-2.14,0.44-2.9,1.33s-1.15,2.01-1.15,3.37v9.46
		h-3.52v-16.59h3.52v2.71h0.07c1.23-2.07,3.03-3.1,5.4-3.1c3.71,0,5.56,2.28,5.56,6.84V180.33z"/>
	<path class="st1" d="M348.3,178.8c0,6.22-3.11,9.33-9.33,9.33c-2.11,0-3.9-0.36-5.37-1.08v-3.24c1.82,1.02,3.59,1.53,5.3,1.53
		c3.92,0,5.88-2.01,5.88-6.01v-1.65h-0.06c-1.22,2.03-3.05,3.04-5.51,3.04c-2.08,0-3.75-0.74-5-2.23c-1.26-1.49-1.88-3.47-1.88-5.95
		c0-2.8,0.69-5.03,2.06-6.7c1.37-1.67,3.21-2.5,5.5-2.5c2.17,0,3.78,0.85,4.83,2.56h0.06v-2.17h3.52V178.8z M344.81,170.61
		c0-1.23-0.4-2.28-1.21-3.14c-0.81-0.86-1.81-1.3-3-1.3c-1.45,0-2.59,0.55-3.43,1.64c-0.83,1.1-1.25,2.61-1.25,4.55
		c0,1.68,0.4,3.02,1.2,4.03c0.8,1,1.85,1.51,3.17,1.51c1.33,0,2.42-0.49,3.26-1.49c0.85-0.99,1.27-2.24,1.27-3.75V170.61z"/>
	<path class="st1" d="M380.85,180.33h-4.02l-11.11-17.13c-0.41-0.63-0.71-1.18-0.9-1.63h-0.09c0.09,0.6,0.14,1.73,0.14,3.39v15.38
		h-3.49V157.1h4.26l10.79,16.8c0.51,0.8,0.85,1.36,1.02,1.66h0.07c-0.11-0.72-0.16-1.83-0.16-3.33V157.1h3.51V180.33z"/>
	<path class="st1" d="M385.19,172.19c0-2.73,0.78-4.88,2.33-6.46c1.55-1.58,3.67-2.37,6.35-2.37c2.53,0,4.53,0.76,6,2.29
		s2.2,3.62,2.2,6.27c0,2.67-0.77,4.81-2.32,6.4c-1.55,1.6-3.62,2.4-6.21,2.4c-2.54,0-4.57-0.77-6.08-2.32
		C385.94,176.85,385.19,174.78,385.19,172.19z M388.77,172.11c0,1.82,0.44,3.24,1.33,4.26c0.88,1.02,2.09,1.53,3.61,1.53
		c3.19,0,4.79-1.96,4.79-5.89c0-1.9-0.41-3.35-1.23-4.34c-0.82-1-2.01-1.49-3.55-1.49c-1.55,0-2.76,0.53-3.63,1.59
		C389.21,168.82,388.77,170.27,388.77,172.11z"/>
	<path class="st1" d="M405.18,178.59c0-0.61,0.22-1.11,0.66-1.51c0.44-0.4,0.96-0.6,1.57-0.6c0.6,0,1.12,0.2,1.56,0.59
		c0.44,0.4,0.66,0.9,0.66,1.52c0,0.58-0.21,1.08-0.63,1.49c-0.42,0.41-0.96,0.62-1.62,0.62c-0.61,0-1.13-0.2-1.56-0.61
		C405.4,179.69,405.18,179.19,405.18,178.59z"/>
</g>
<g>
	<path class="st4" d="M214.04,232.77h-4.21l-3.78-6.33c-0.74-1.24-1.41-2.08-2.02-2.54c-0.61-0.45-1.3-0.67-2.08-0.67H200v9.54h-3.6
		v-23.23h7.4c2.41,0,4.27,0.54,5.59,1.63s1.97,2.62,1.97,4.61c0,1.56-0.46,2.9-1.37,4c-0.91,1.11-2.18,1.89-3.81,2.33v0.06
		c1.04,0.36,2.21,1.58,3.5,3.66L214.04,232.77z M200,212.5v7.74h3.2c1.33,0,2.39-0.38,3.19-1.16c0.79-0.77,1.19-1.75,1.19-2.94
		c0-2.43-1.44-3.65-4.32-3.65H200z"/>
	<path class="st4" d="M234.51,232.77h-4.21l-3.78-6.33c-0.74-1.24-1.41-2.08-2.02-2.54c-0.61-0.45-1.3-0.67-2.08-0.67h-1.95v9.54
		h-3.6v-23.23h7.4c2.41,0,4.27,0.54,5.59,1.63s1.97,2.62,1.97,4.61c0,1.56-0.46,2.9-1.37,4c-0.91,1.11-2.18,1.89-3.81,2.33v0.06
		c1.04,0.36,2.21,1.58,3.5,3.66L234.51,232.77z M220.47,212.5v7.74h3.2c1.33,0,2.39-0.38,3.19-1.16c0.79-0.77,1.19-1.75,1.19-2.94
		c0-2.43-1.44-3.65-4.32-3.65H220.47z"/>
	<path class="st4" d="M237.15,229.2c1.29,0.76,2.69,1.14,4.22,1.14c2.03,0,3.59-0.77,4.68-2.31c1.09-1.54,1.64-3.7,1.64-6.48
		c-0.03,0-0.06,0-0.08-0.01c-1.01,1.82-2.68,2.73-5.01,2.73c-1.97,0-3.58-0.69-4.84-2.06c-1.25-1.37-1.88-3.08-1.88-5.15
		c0-2.32,0.71-4.22,2.14-5.7c1.42-1.48,3.28-2.22,5.57-2.22c2.41,0,4.28,0.93,5.6,2.79s1.99,4.5,1.99,7.92
		c0,4.16-0.84,7.42-2.51,9.77s-4.06,3.53-7.17,3.53c-1.67,0-3.12-0.27-4.35-0.81V229.2z M239.39,216.67c0,1.44,0.37,2.59,1.1,3.44
		c0.73,0.85,1.75,1.28,3.05,1.28c1.13,0,2.07-0.39,2.83-1.17c0.75-0.78,1.13-1.73,1.13-2.86c0-1.49-0.37-2.76-1.12-3.81
		c-0.74-1.05-1.75-1.58-3.01-1.58c-1.17,0-2.13,0.46-2.87,1.37C239.76,214.25,239.39,215.36,239.39,216.67z"/>
	<path class="st4" d="M264.9,208.92v23.85h-3.63v-19.9c-0.76,0.66-1.63,1.26-2.6,1.8c-0.97,0.54-1.89,0.93-2.77,1.15v-3.42
		c2.56-0.81,4.82-1.97,6.78-3.48H264.9z"/>
	<path class="st4" d="M286.59,212.94c-1.18-0.64-2.45-0.96-3.81-0.96c-2,0-3.58,0.85-4.73,2.54c-1.16,1.69-1.73,3.88-1.72,6.56h0.08
		c1.09-1.99,2.81-2.98,5.16-2.98c2,0,3.59,0.66,4.77,1.99c1.18,1.33,1.77,3.06,1.77,5.2c0,2.26-0.71,4.14-2.12,5.63
		c-1.42,1.5-3.23,2.24-5.44,2.24c-2.51,0-4.43-0.95-5.77-2.84c-1.34-1.9-2.01-4.5-2.01-7.82c0-3.93,0.87-7.14,2.61-9.62
		s4.16-3.73,7.26-3.73c1.67,0,2.99,0.22,3.96,0.66V212.94z M276.5,225.15c0,1.45,0.38,2.68,1.14,3.68c0.76,1,1.75,1.51,2.97,1.51
		c1.21,0,2.17-0.45,2.89-1.36s1.07-2.04,1.07-3.38c0-1.51-0.34-2.67-1.02-3.49c-0.68-0.81-1.67-1.22-2.97-1.22
		c-1.16,0-2.13,0.41-2.91,1.23C276.89,222.94,276.5,223.95,276.5,225.15z"/>
	<path class="st4" d="M301.5,208.92v23.85h-3.63v-19.9c-0.76,0.66-1.63,1.26-2.59,1.8c-0.97,0.54-1.9,0.93-2.78,1.15v-3.42
		c2.56-0.81,4.82-1.97,6.78-3.48H301.5z"/>
	<path class="st4" d="M319.8,208.92v23.85h-3.63v-19.9c-0.76,0.66-1.63,1.26-2.59,1.8c-0.97,0.54-1.9,0.93-2.78,1.15v-3.42
		c2.56-0.81,4.82-1.97,6.78-3.48H319.8z"/>
	<path class="st4" d="M341.49,212.94c-1.18-0.64-2.45-0.96-3.81-0.96c-2,0-3.58,0.85-4.73,2.54s-1.73,3.88-1.72,6.56h0.08
		c1.09-1.99,2.81-2.98,5.16-2.98c2,0,3.59,0.66,4.77,1.99c1.18,1.33,1.77,3.06,1.77,5.2c0,2.26-0.71,4.14-2.12,5.63
		c-1.42,1.5-3.23,2.24-5.44,2.24c-2.51,0-4.43-0.95-5.77-2.84c-1.34-1.9-2.01-4.5-2.01-7.82c0-3.93,0.87-7.14,2.61-9.62
		s4.16-3.73,7.26-3.73c1.67,0,2.99,0.22,3.96,0.66V212.94z M331.4,225.15c0,1.45,0.38,2.68,1.14,3.68s1.75,1.51,2.97,1.51
		c1.21,0,2.17-0.45,2.89-1.36s1.07-2.04,1.07-3.38c0-1.51-0.34-2.67-1.02-3.49c-0.68-0.81-1.67-1.22-2.97-1.22
		c-1.16,0-2.13,0.41-2.91,1.23S331.4,223.95,331.4,225.15z"/>
	<path class="st4" d="M347.07,229.17c1.45,0.7,2.96,1.05,4.54,1.05c1.57,0,2.81-0.39,3.71-1.17c0.9-0.78,1.36-1.84,1.36-3.18
		c0-2.83-1.88-4.25-5.63-4.25c-1.16,0-2.36,0.06-3.58,0.19c0.06-1.08,0.13-2.12,0.19-3.11c0.07-1,0.14-2,0.21-3.01
		c0.07-1.01,0.14-2.02,0.21-3.04c0.07-1.02,0.14-2.06,0.21-3.13h11.13v3.23H351l-0.39,6.03c1.33-0.12,2.32-0.18,2.97-0.18
		c2.1,0,3.75,0.61,4.95,1.81c1.23,1.17,1.84,2.81,1.84,4.92c0,2.32-0.75,4.19-2.23,5.63c-1.49,1.46-3.52,2.19-6.08,2.19
		c-1.92,0-3.58-0.28-5-0.84V229.17z"/>
	<path class="st4" d="M379.28,212.07c-1.9,3.56-3.31,6.39-4.24,8.48c-0.93,2.09-1.67,4.13-2.24,6.1c-0.57,1.98-1.01,4.02-1.33,6.12
		h-3.96c0.5-3,1.38-6.06,2.64-9.17s3.12-6.73,5.58-10.84h-11.5v-3.23h15.04V212.07z"/>
	<path class="st4" d="M383.67,229.17c1.45,0.7,2.96,1.05,4.54,1.05c1.57,0,2.81-0.39,3.71-1.17c0.9-0.78,1.36-1.84,1.36-3.18
		c0-2.83-1.88-4.25-5.63-4.25c-1.16,0-2.36,0.06-3.58,0.19c0.06-1.08,0.13-2.12,0.19-3.11c0.07-1,0.14-2,0.21-3.01
		c0.07-1.01,0.14-2.02,0.21-3.04c0.07-1.02,0.14-2.06,0.21-3.13h11.13v3.23h-8.43l-0.39,6.03c1.33-0.12,2.32-0.18,2.97-0.18
		c2.1,0,3.75,0.61,4.95,1.81c1.23,1.17,1.84,2.81,1.84,4.92c0,2.32-0.75,4.19-2.23,5.63c-1.49,1.46-3.52,2.19-6.08,2.19
		c-1.92,0-3.58-0.28-5-0.84V229.17z"/>
	<path class="st4" d="M419.31,232.77h-4.79l-8.19-10.44c-0.3-0.38-0.5-0.71-0.62-0.98h-0.08v11.42h-3.6v-23.23h3.6v10.95h0.08
		c0.14-0.28,0.35-0.6,0.63-0.97l7.88-9.98h4.38l-9.3,11.13L419.31,232.77z"/>
	<path class="st4" d="M439.74,232.77h-4.21l-3.78-6.33c-0.74-1.24-1.41-2.08-2.02-2.54c-0.6-0.45-1.3-0.67-2.08-0.67h-1.95v9.54
		h-3.6v-23.23h7.39c2.41,0,4.27,0.54,5.59,1.63c1.31,1.08,1.97,2.62,1.97,4.61c0,1.56-0.46,2.9-1.37,4
		c-0.91,1.11-2.18,1.89-3.81,2.33v0.06c1.04,0.36,2.2,1.58,3.49,3.66L439.74,232.77z M425.7,212.5v7.74h3.2
		c1.33,0,2.39-0.38,3.19-1.16c0.79-0.77,1.19-1.75,1.19-2.94c0-2.43-1.44-3.65-4.32-3.65H425.7z"/>
</g>
</svg>
