<?xml version="1.0" encoding="utf-8"?>
<!-- Generator: Adobe Illustrator 23.0.0, SVG Export Plug-In . SVG Version: 6.00 Build 0)  -->
<svg version="1.1" id="圖層_1" xmlns="http://www.w3.org/2000/svg" xmlns:xlink="http://www.w3.org/1999/xlink" x="0px" y="0px"
	 viewBox="0 0 1256.33 847.6" style="enable-background:new 0 0 1256.33 847.6;" xml:space="preserve">
<style type="text/css">
	.st0{fill:#F0F9FC;}
	.st1{fill:#FFFFFF;}
	.st2{fill:#6A79A8;}
	.st3{fill:#BBDFF5;}
	.st4{fill:#FF9C81;}
</style>
<g id="栝鍣_1_1_">
</g>
<g id="栝鍣_2">
</g>
<g>
	<g>
		<path class="st0" d="M358.83,771.82c-21.73-3.66-282.81-36.7-263.59-280.33s43.34-316.9,144.85-343.7
			c101.51-26.81,348.24-153.65,541.87-33.04s402.55,228.77,319.64,421.35c-82.91,192.57-96.48,256.8-312.8,246.98
			C572.47,773.24,462.16,789.25,358.83,771.82z"/>
	</g>
	<g id="XMLID_8_">
		<g id="XMLID_27_">
			<path class="st1" d="M1081.5,461.96H715.12c-13.28,0-24.15-10.86-24.15-24.15v-9.68c0-13.28,10.86-24.15,24.15-24.15h366.38
				c13.28,0,24.15,10.86,24.15,24.15v9.68C1105.65,451.09,1094.78,461.96,1081.5,461.96z"/>
		</g>
		<g id="XMLID_14_">
			<path class="st1" d="M1111.5,383.97H964.61c-12.72,0-23.12-10.4-23.12-23.12l0,0c0-12.72,10.4-23.12,23.12-23.12h146.89
				c12.72,0,23.12,10.4,23.12,23.12l0,0C1134.62,373.56,1124.21,383.97,1111.5,383.97z"/>
		</g>
		<g id="XMLID_13_">
			<path class="st1" d="M1138.98,526.15H992.09c-12.72,0-23.12-10.4-23.12-23.12l0,0c0-12.72,10.4-23.12,23.12-23.12h146.89
				c12.72,0,23.12,10.4,23.12,23.12l0,0C1162.1,515.74,1151.7,526.15,1138.98,526.15z"/>
		</g>
		<g id="XMLID_10_">
			<path class="st1" d="M1061.82,481.74c-7.17,0-12.97-4.43-12.97-9.89s5.81-9.89,12.97-9.89h-56.58c7.17,0,12.97,4.43,12.97,9.89
				s-5.81,9.89-12.97,9.89H1061.82z"/>
		</g>
		<g id="XMLID_9_">
			<path class="st1" d="M1080.15,404.62c-7.47,0-13.53-4.62-13.53-10.33s6.06-10.33,13.53-10.33h-59.06
				c7.47,0,13.53,4.62,13.53,10.33s-6.06,10.33-13.53,10.33H1080.15z"/>
		</g>
	</g>
	<g id="XMLID_1_">
		<g id="XMLID_6_">
			<path class="st1" d="M195.6,236.6h366.38c13.28,0,24.15,10.86,24.15,24.15v9.68c0,13.28-10.86,24.15-24.15,24.15H195.6
				c-13.28,0-24.15-10.86-24.15-24.15v-9.68C171.45,247.47,182.31,236.6,195.6,236.6z"/>
		</g>
		<g id="XMLID_5_">
			<path class="st1" d="M165.6,314.6h146.89c12.72,0,23.12,10.4,23.12,23.12l0,0c0,12.72-10.4,23.12-23.12,23.12H165.6
				c-12.72,0-23.12-10.4-23.12-23.12l0,0C142.48,325,152.88,314.6,165.6,314.6z"/>
		</g>
		<g id="XMLID_4_">
			<path class="st1" d="M138.11,172.41H285c12.72,0,23.12,10.4,23.12,23.12l0,0c0,12.72-10.4,23.12-23.12,23.12H138.11
				c-12.72,0-23.12-10.4-23.12-23.12l0,0C114.99,182.82,125.39,172.41,138.11,172.41z"/>
		</g>
		<g id="XMLID_3_">
			<path class="st1" d="M215.27,216.82c7.17,0,12.97,4.43,12.97,9.89s-5.81,9.89-12.97,9.89h56.58c-7.17,0-12.97-4.43-12.97-9.89
				s5.81-9.89,12.97-9.89H215.27z"/>
		</g>
		<g id="XMLID_2_">
			<path class="st1" d="M196.95,293.95c7.47,0,13.53,4.62,13.53,10.33c0,5.7-6.06,10.33-13.53,10.33H256
				c-7.47,0-13.53-4.62-13.53-10.33c0-5.7,6.06-10.33,13.53-10.33H196.95z"/>
		</g>
	</g>
	<g id="栝鍣_4">
		<g>
			<g>
				
					<rect x="847.56" y="476.34" transform="matrix(0.2647 -0.9643 0.9643 0.2647 128.2949 1274.9263)" class="st1" width="105.23" height="153.99"/>
				<path class="st2" d="M960.49,626.2c-0.14,0-0.3-0.02-0.45-0.06l-148.49-40.77c-0.91-0.25-1.44-1.18-1.19-2.09l27.85-101.48
					c0.12-0.43,0.41-0.81,0.8-1.03c0.39-0.22,0.86-0.28,1.29-0.16l148.49,40.77c0.91,0.25,1.44,1.18,1.19,2.09l-27.85,101.47
					C961.93,625.7,961.24,626.2,960.49,626.2z M814.09,582.55l145.22,39.87l26.96-98.2l-145.22-39.86L814.09,582.55z"/>
			</g>
			<g>
				<polygon class="st1" points="988.36,523.02 839.85,482.25 879.85,478.23 1028.35,518.99 				"/>
				<path class="st2" d="M988.36,524.72c-0.15,0-0.31-0.02-0.45-0.06L839.41,483.9c-0.79-0.21-1.31-0.97-1.24-1.79
					c0.07-0.82,0.71-1.47,1.52-1.55l39.99-4.03c0.2-0.03,0.42,0,0.62,0.05l148.49,40.77c0.79,0.21,1.31,0.97,1.24,1.78
					c-0.07,0.82-0.71,1.47-1.52,1.55l-39.99,4.03C988.47,524.72,988.41,524.72,988.36,524.72z M849.11,483.03L988.5,521.3l30.6-3.09
					l-139.39-38.26L849.11,483.03z"/>
			</g>
			<g>
				<polygon class="st1" points="1028.6,518.85 988.36,523.02 960.49,624.5 1000.6,620.85 				"/>
				<path class="st2" d="M960.49,626.2c-0.5,0-0.98-0.22-1.3-0.61c-0.36-0.42-0.48-1-0.33-1.54l27.85-101.48
					c0.19-0.67,0.77-1.17,1.46-1.24l40.26-4.17c0.55-0.06,1.1,0.16,1.47,0.6c0.37,0.42,0.49,1.01,0.34,1.55l-28,102
					c-0.19,0.68-0.78,1.18-1.49,1.24l-40.11,3.65C960.6,626.19,960.54,626.2,960.49,626.2z M989.68,524.59l-26.9,97.99l36.49-3.32
					l27.03-98.46L989.68,524.59z"/>
			</g>
			<g>
				<g>
					<path class="st2" d="M864.41,571.41c-0.14,0-0.3-0.02-0.45-0.06l-27.92-7.67c-0.91-0.25-1.44-1.18-1.19-2.09
						c0.25-0.9,1.18-1.44,2.09-1.19l27.92,7.67c0.91,0.25,1.44,1.18,1.19,2.09C865.85,570.92,865.16,571.41,864.41,571.41z"/>
				</g>
				<g>
					<path class="st2" d="M838.79,569.46c-0.14,0-0.3-0.02-0.45-0.06l-3.6-0.99c-0.91-0.25-1.44-1.18-1.19-2.09
						c0.25-0.91,1.18-1.45,2.09-1.19l3.6,0.99c0.91,0.25,1.44,1.18,1.19,2.09C840.22,568.97,839.54,569.46,838.79,569.46z"/>
				</g>
				<g>
					<path class="st2" d="M845.1,571.2c-0.14,0-0.3-0.02-0.45-0.06l-3.6-0.99c-0.91-0.25-1.44-1.18-1.19-2.09
						c0.25-0.9,1.18-1.45,2.09-1.19l3.6,0.99c0.91,0.25,1.44,1.18,1.19,2.09C846.53,570.71,845.85,571.2,845.1,571.2z"/>
				</g>
				<g>
					<path class="st2" d="M851.4,572.93c-0.14,0-0.3-0.02-0.45-0.06l-3.6-0.99c-0.91-0.25-1.44-1.18-1.19-2.09
						c0.25-0.91,1.18-1.45,2.09-1.19l3.6,0.99c0.91,0.25,1.44,1.18,1.19,2.09C852.83,572.43,852.15,572.93,851.4,572.93z"/>
				</g>
			</g>
			<g>
				<g>
					<path class="st2" d="M1004.02,580.79c-0.14,0-0.3-0.02-0.45-0.06c-0.91-0.25-1.44-1.18-1.19-2.09l4.73-17.24
						c0.25-0.9,1.18-1.44,2.09-1.19c0.91,0.25,1.44,1.18,1.19,2.09l-4.73,17.24C1005.45,580.29,1004.77,580.79,1004.02,580.79z"/>
				</g>
				<g>
					<path class="st2" d="M1002.28,587.14c-0.14,0-0.3-0.02-0.45-0.06c-0.91-0.25-1.44-1.18-1.19-2.09l0.75-2.72
						c0.25-0.9,1.18-1.45,2.09-1.19c0.91,0.25,1.44,1.18,1.19,2.09l-0.75,2.72C1003.71,586.65,1003.02,587.14,1002.28,587.14z"/>
				</g>
				<g>
					<path class="st2" d="M999.47,597.4c-0.14,0-0.3-0.02-0.45-0.06c-0.91-0.25-1.44-1.18-1.19-2.09l1.95-7.08
						c0.25-0.9,1.18-1.44,2.09-1.19c0.91,0.25,1.44,1.18,1.19,2.09l-1.95,7.08C1000.89,596.9,1000.21,597.4,999.47,597.4z"/>
				</g>
			</g>
			<g>
				<path class="st2" d="M1027.69,519.84c-0.24,0-0.48-0.05-0.71-0.15l-91.76-41.9c-0.85-0.39-1.23-1.4-0.84-2.25
					s1.39-1.23,2.25-0.84l91.76,41.9c0.85,0.39,1.23,1.4,0.84,2.25C1028.94,519.48,1028.33,519.84,1027.69,519.84z"/>
			</g>
			<g>
				<path class="st2" d="M879.85,479.93c-0.9,0-1.66-0.71-1.7-1.62c-0.04-0.93,0.69-1.73,1.62-1.78l54.48-2.42
					c0.93-0.05,1.73,0.69,1.78,1.62c0.04,0.93-0.69,1.73-1.62,1.78l-54.48,2.42C879.9,479.93,879.87,479.93,879.85,479.93z"/>
			</g>
			<g>
				<path class="st2" d="M988.6,523.8c-0.4,0-0.79-0.14-1.11-0.42l-52.67-45.87c-0.71-0.62-0.78-1.69-0.17-2.4
					c0.62-0.71,1.69-0.78,2.4-0.16l52.67,45.86c0.71,0.62,0.78,1.69,0.17,2.4C989.55,523.61,989.08,523.8,988.6,523.8z"/>
			</g>
			<g>
				<g>
					<path class="st2" d="M912.34,565.15c-4.03,0-8.54-0.49-13.4-1.83c-18.43-5.06-26.39-18.93-26.72-19.52
						c-0.46-0.82-0.17-1.85,0.65-2.31c0.82-0.46,1.85-0.17,2.31,0.65c0.11,0.19,7.68,13.24,24.66,17.91
						c17.04,4.67,29.84-1.89,29.97-1.96c0.83-0.43,1.86-0.12,2.29,0.71c0.43,0.83,0.12,1.85-0.71,2.29
						C930.97,561.31,923.55,565.15,912.34,565.15z"/>
				</g>
				<g>
					<path class="st2" d="M886.93,529.74c0,1.95-1.59,3.54-3.54,3.54c-1.95,0-3.54-1.58-3.54-3.54c0-1.96,1.59-3.54,3.54-3.54
						C885.34,526.19,886.93,527.78,886.93,529.74z"/>
				</g>
				<g>
					<path class="st2" d="M934.13,542.97c0,1.96-1.58,3.54-3.54,3.54c-1.96,0-3.54-1.58-3.54-3.54c0-1.96,1.58-3.54,3.54-3.54
						C932.55,539.43,934.13,541.02,934.13,542.97z"/>
				</g>
			</g>
			<g>
				<g>
					<path class="st1" d="M862.11,344.44c15.36-55.96,73.18-88.88,129.15-73.51c55.96,15.37,88.88,73.18,73.51,129.15l0,0
						c3.04-11.09-8.44-22.75-25.29-27.38c-16.85-4.62-32.98,0.61-36.02,11.7l0,0c1.88-12.4-13.05-25.18-34.38-31.03
						c-21.55-5.92-41.34-2.75-45.79,9.14l0,0c3.04-11.09-8.59-24.06-25.45-28.7c-16.85-4.62-32.67-0.5-35.72,10.58L862.11,344.44z"
						/>
				</g>
				<g>
					<path class="st1" d="M863.64,347.12c15.36-55.96,73.18-88.88,129.15-73.51c55.96,15.37,88.88,73.18,73.51,129.15l0,0
						c3.04-11.09-8.44-22.75-25.29-27.38c-16.85-4.62-32.98,0.61-36.02,11.7l0,0c1.88-12.4-13.05-25.18-34.38-31.03
						c-21.55-5.92-41.34-2.75-45.79,9.14l0,0c3.04-11.09-8.59-24.06-25.45-28.7c-16.85-4.62-32.67-0.5-35.72,10.58L863.64,347.12z"
						/>
				</g>
				<g>
					<path class="st2" d="M1064.77,401.78c-0.14,0-0.3-0.02-0.45-0.06c-0.91-0.25-1.44-1.18-1.19-2.09l0,0c0-0.01,0-0.02,0.01-0.02
						c2.65-9.73-7.93-20.83-24.11-25.27c-7.83-2.15-15.73-2.18-22.21-0.07c-6.24,2.03-10.4,5.79-11.72,10.57
						c-0.24,0.87-1.11,1.4-1.99,1.22c-0.88-0.19-1.46-1.03-1.33-1.92c1.69-11.14-12.26-23.4-33.15-29.14
						c-21.39-5.87-39.8-2.47-43.75,8.09c-0.32,0.85-1.25,1.3-2.12,1.02s-1.36-1.19-1.11-2.07c1.31-4.78-0.42-10.17-4.9-15.19
						c-4.63-5.2-11.51-9.26-19.36-11.42c-16.46-4.52-30.91-0.48-33.63,9.39c0,0.01,0,0.02-0.01,0.03c0,0.01-0.01,0.02-0.01,0.03l0,0
						c-0.26,0.88-1.2,1.41-2.08,1.16c-0.91-0.25-1.45-1.16-1.2-2.07c15.59-56.78,74.46-90.29,131.24-74.7s90.29,74.46,74.7,131.24
						C1066.21,401.28,1065.52,401.78,1064.77,401.78z M1027.31,369.31c4.11,0,8.37,0.59,12.62,1.75
						c12.59,3.46,21.9,10.51,25.45,18.41c8.76-51.66-22.98-102.74-74.57-116.9c-51.58-14.16-104.94,13.53-123.79,62.41
						c7.08-4.96,18.69-6.26,31.27-2.8c8.48,2.33,15.94,6.74,21,12.44c3.35,3.77,5.38,7.78,5.98,11.72
						c7.82-7.97,24.71-9.96,44.24-4.6c19.15,5.25,32.51,15.55,35.27,26.42c2.5-3.13,6.24-5.57,10.97-7.11
						C1019.31,369.88,1023.23,369.31,1027.31,369.31z"/>
				</g>
				<g>
					<path class="st2" d="M1003.78,385.11c-0.14,0-0.3-0.02-0.45-0.06c-0.91-0.25-1.44-1.18-1.19-2.09
						c12.41-45.22,9.4-81.46-8.95-107.7c-1.27-1.83-1.75-2.51-1.77-3.35c-0.03-0.93,0.72-1.72,1.66-1.73
						c0.82-0.04,1.54,0.57,1.7,1.35c0.16,0.31,0.71,1.09,1.2,1.79c3.07,4.39,10.26,14.68,14.24,32.59
						c4.93,22.19,3.32,48.42-4.79,77.96C1005.2,384.61,1004.52,385.11,1003.78,385.11z M994.81,271.82L994.81,271.82L994.81,271.82z
						 M994.75,271.45L994.75,271.45L994.75,271.45z"/>
				</g>
				<g>
					<path class="st2" d="M923.32,363.31c-0.14,0-0.3-0.02-0.45-0.06c-0.91-0.25-1.44-1.18-1.19-2.09
						c8.11-29.55,20.18-52.95,35.86-69.56c12.66-13.4,24.2-18.61,29.12-20.83c0.78-0.35,1.66-0.75,1.96-0.93
						c0.54-0.6,1.44-0.73,2.16-0.3c0.8,0.5,1.04,1.55,0.54,2.35c-0.45,0.71-1.22,1.06-3.26,1.98
						c-29.46,13.3-50.69,42.98-63.11,88.19C924.76,362.81,924.07,363.31,923.32,363.31z M988.45,270.08L988.45,270.08L988.45,270.08
						z"/>
				</g>
				<g>
					<path class="st2" d="M936.77,478.17c-0.58,0-1.14-0.3-1.46-0.83c-0.48-0.81-0.22-1.85,0.59-2.33l128.01-76.39
						c0.81-0.48,1.85-0.22,2.33,0.59c0.48,0.81,0.22,1.85-0.59,2.33l-128.01,76.39C937.36,478.09,937.06,478.17,936.77,478.17z"/>
				</g>
				<g>
					<path class="st2" d="M935.93,477.94c-0.35,0-0.71-0.11-1-0.33c-0.76-0.55-0.92-1.62-0.37-2.38l67.53-91.84
						c0.55-0.76,1.62-0.92,2.38-0.37c0.76,0.55,0.92,1.62,0.37,2.38l-67.53,91.84C936.97,477.7,936.46,477.94,935.93,477.94z"/>
				</g>
				<g>
					<path class="st2" d="M935.44,477.8c-0.86,0-1.6-0.65-1.69-1.52l-12.16-113.6c-0.1-0.93,0.58-1.77,1.51-1.87
						c0.93-0.1,1.77,0.58,1.87,1.51l12.15,113.6c0.1,0.93-0.58,1.77-1.51,1.87C935.56,477.8,935.5,477.8,935.44,477.8z"/>
				</g>
				<g>
					<path class="st2" d="M934.33,477.5c-0.6,0-1.18-0.31-1.49-0.88l-72.22-131.36c-0.45-0.82-0.15-1.85,0.67-2.31
						c0.82-0.45,1.86-0.15,2.31,0.67l72.22,131.36c0.45,0.82,0.15,1.85-0.67,2.31C934.89,477.44,934.61,477.5,934.33,477.5z"/>
				</g>
			</g>
		</g>
		<g>
			<g>
				
					<rect x="208.32" y="413.8" transform="matrix(0.979 -0.2039 0.2039 0.979 -90.6444 70.8061)" class="st1" width="179.95" height="122.97"/>
				<path class="st2" d="M222.73,555.52c-0.79,0-1.5-0.55-1.67-1.35l-25.07-120.39c-0.09-0.44-0.01-0.9,0.25-1.27
					c0.25-0.37,0.64-0.64,1.08-0.73l176.17-36.69c0.92-0.2,1.82,0.4,2.01,1.32l25.07,120.39c0.09,0.44,0.01,0.9-0.25,1.27
					c-0.25,0.37-0.64,0.64-1.08,0.73l-176.17,36.69C222.96,555.52,222.84,555.52,222.73,555.52z M199.67,434.76l24.38,117.05
					l172.84-35.99l-24.37-117.05L199.67,434.76z"/>
			</g>
			<g>
				<polygon class="st1" points="373.83,396.76 197.66,433.44 237.12,407.95 413.28,371.27 				"/>
				<path class="st2" d="M197.66,435.14c-0.68,0-1.31-0.41-1.57-1.05c-0.31-0.76-0.03-1.63,0.65-2.07l39.46-25.49
					c0.18-0.11,0.37-0.2,0.58-0.24l176.17-36.69c0.8-0.16,1.61,0.26,1.92,1.02c0.31,0.76,0.03,1.63-0.65,2.07l-39.46,25.49
					c-0.18,0.11-0.37,0.2-0.58,0.24l-176.17,36.69C197.89,435.13,197.77,435.14,197.66,435.14z M237.77,409.55l-31.53,20.37
					l166.92-34.76l31.53-20.37L237.77,409.55z M373.83,396.76L373.83,396.76L373.83,396.76z"/>
			</g>
			<g>
				<polygon class="st1" points="413.48,370.98 373.83,396.76 398.9,517.15 438.67,491.99 				"/>
				<path class="st2" d="M398.9,518.85c-0.22,0-0.45-0.04-0.66-0.14c-0.51-0.22-0.88-0.67-1-1.22l-25.07-120.39
					c-0.14-0.69,0.15-1.39,0.74-1.77l39.64-25.78c0.47-0.31,1.06-0.36,1.58-0.14c0.52,0.21,0.89,0.67,1.01,1.22l25.19,121.01
					c0.14,0.7-0.15,1.4-0.76,1.79l-39.77,25.16C399.53,518.75,399.21,518.85,398.9,518.85z M375.73,397.55l24.34,116.85l36.7-23.21
					l-24.45-117.42L375.73,397.55z"/>
			</g>
			<g>
				<g>
					<path class="st2" d="M236.65,519.94c-0.79,0-1.5-0.55-1.67-1.35c-0.2-0.92,0.4-1.82,1.32-2.01l33.12-6.9
						c0.92-0.19,1.82,0.4,2.01,1.32c0.2,0.92-0.4,1.82-1.32,2.01L237,519.9C236.88,519.92,236.77,519.94,236.65,519.94z"/>
				</g>
				<g>
					<path class="st2" d="M237.82,525.55c-0.79,0-1.5-0.55-1.67-1.35c-0.2-0.92,0.4-1.82,1.32-2.01l4.27-0.89
						c0.92-0.19,1.82,0.4,2.01,1.32s-0.4,1.82-1.32,2.01l-4.27,0.89C238.05,525.53,237.93,525.55,237.82,525.55z"/>
				</g>
				<g>
					<path class="st2" d="M245.3,523.98c-0.79,0-1.5-0.55-1.67-1.35c-0.2-0.92,0.4-1.82,1.32-2.01l4.27-0.89
						c0.92-0.19,1.82,0.4,2.01,1.32s-0.4,1.82-1.32,2.01l-4.27,0.89C245.53,523.97,245.42,523.98,245.3,523.98z"/>
				</g>
				<g>
					<path class="st2" d="M252.79,522.43c-0.79,0-1.5-0.55-1.67-1.35c-0.2-0.92,0.4-1.82,1.32-2.01l4.27-0.89
						c0.92-0.19,1.82,0.4,2.01,1.32c0.2,0.92-0.4,1.82-1.32,2.01l-4.27,0.89C253.02,522.42,252.9,522.43,252.79,522.43z"/>
				</g>
			</g>
			<g>
				<g>
					<path class="st2" d="M419.99,448.42c-0.79,0-1.5-0.55-1.67-1.35l-4.26-20.45c-0.2-0.92,0.4-1.82,1.32-2.01
						c0.92-0.2,1.82,0.4,2.01,1.32l4.26,20.45c0.2,0.92-0.4,1.82-1.32,2.01C420.22,448.42,420.1,448.42,419.99,448.42z"/>
				</g>
				<g>
					<path class="st2" d="M421.55,455.97c-0.79,0-1.5-0.55-1.67-1.35l-0.67-3.22c-0.2-0.92,0.4-1.82,1.32-2.01
						c0.92-0.2,1.82,0.4,2.01,1.32l0.67,3.22c0.2,0.92-0.4,1.82-1.32,2.01C421.79,455.96,421.67,455.97,421.55,455.97z"/>
				</g>
				<g>
					<path class="st2" d="M424.08,468.14c-0.79,0-1.5-0.55-1.67-1.35l-1.75-8.4c-0.2-0.92,0.4-1.82,1.32-2.01
						c0.92-0.2,1.82,0.4,2.01,1.32l1.75,8.4c0.2,0.92-0.4,1.82-1.32,2.01C424.31,468.12,424.2,468.14,424.08,468.14z"/>
				</g>
			</g>
			<g>
				<path class="st2" d="M294.39,377.71c-0.9,0-1.66-0.71-1.7-1.62c-0.04-0.93,0.69-1.73,1.62-1.78l117.75-5.28
					c0.94-0.05,1.73,0.68,1.78,1.62c0.04,0.94-0.69,1.73-1.62,1.78l-117.75,5.28C294.44,377.71,294.42,377.71,294.39,377.71z"/>
			</g>
			<g>
				<path class="st2" d="M237.12,409.65c-0.6,0-1.16-0.31-1.48-0.86c-0.47-0.82-0.18-1.85,0.64-2.32l55.38-31.54
					c0.82-0.47,1.85-0.18,2.32,0.64c0.47,0.82,0.18,1.85-0.64,2.32l-55.38,31.54C237.69,409.58,237.4,409.65,237.12,409.65z"/>
			</g>
			<g>
				<path class="st2" d="M373.6,397.37c-0.14,0-0.27-0.02-0.41-0.05l-79.21-19.65c-0.91-0.23-1.47-1.15-1.24-2.06
					c0.23-0.91,1.15-1.47,2.06-1.24l79.21,19.65c0.91,0.23,1.47,1.15,1.24,2.06C375.06,396.85,374.37,397.37,373.6,397.37z"/>
			</g>
			<g>
				<g id="XMLID_17_">
					<path class="st3" d="M254.92,481.9c1.04,4.97-1.15,9.64-4.88,10.41s-7.59-2.63-8.63-7.6c-1.04-4.97,1.15-9.64,4.88-10.41
						C250.02,473.52,253.88,476.93,254.92,481.9z"/>
				</g>
				<g id="XMLID_16_">
					<path class="st3" d="M354.18,461.23c1.04,4.97-1.15,9.64-4.88,10.41c-3.73,0.77-7.59-2.63-8.63-7.6
						c-1.04-4.97,1.15-9.64,4.88-10.41S353.14,456.25,354.18,461.23z"/>
				</g>
				<g>
					<path class="st2" d="M272.27,461.26c-3.42,0-6.49-2.4-7.21-5.87c-0.19-0.92,0.4-1.82,1.33-2.01c0.92-0.19,1.82,0.4,2.01,1.33
						c0.44,2.13,2.53,3.52,4.67,3.08c2.14-0.44,3.52-2.53,3.08-4.67c-0.19-0.92,0.4-1.82,1.33-2.01c0.93-0.19,1.82,0.4,2.01,1.33
						c0.82,3.98-1.75,7.87-5.72,8.69C273.25,461.21,272.75,461.26,272.27,461.26z"/>
				</g>
				<g>
					<path class="st2" d="M316.17,452.95c-3.42,0-6.49-2.4-7.21-5.87c-0.19-0.92,0.4-1.82,1.33-2.01c0.92-0.19,1.82,0.4,2.01,1.33
						c0.44,2.13,2.53,3.52,4.68,3.08c1.04-0.21,1.93-0.82,2.51-1.7c0.58-0.88,0.78-1.94,0.57-2.97c-0.19-0.92,0.4-1.82,1.33-2.01
						c0.92-0.19,1.82,0.4,2.01,1.33c0.4,1.93,0.02,3.89-1.06,5.53c-1.08,1.64-2.74,2.76-4.66,3.16
						C317.15,452.9,316.66,452.95,316.17,452.95z"/>
				</g>
				<g>
					<path class="st2" d="M291.01,487.18c-15.72,0-26.22-6.84-26.76-7.19c-0.78-0.52-0.99-1.57-0.48-2.35
						c0.52-0.78,1.57-0.99,2.35-0.48l0,0c0.15,0.1,15.1,9.77,35.4,5.53c20.34-4.23,30.21-17.97,30.3-18.11
						c0.54-0.77,1.6-0.95,2.37-0.42c0.77,0.54,0.95,1.6,0.42,2.36c-0.42,0.61-10.68,14.97-32.39,19.49
						C298.27,486.84,294.51,487.18,291.01,487.18z"/>
				</g>
			</g>
			<g>
				<g>
					<path class="st1" d="M147.42,278.24c-13.83-66.39,28.79-131.41,95.17-145.24c66.39-13.82,131.42,28.79,145.24,95.17l0,0
						c-2.74-13.16-20.9-19.18-40.89-15.01c-19.99,4.16-33.97,18.2-31.23,31.36l0,0c-4.65-13.9-26.98-19.24-52.28-13.97
						c-25.56,5.32-44.46,19.17-42.76,33.89l0,0c-2.74-13.16-21.76-20.45-41.75-16.29c-19.99,4.17-34.25,16.87-31.51,30.03
						L147.42,278.24z"/>
				</g>
				<g>
					<path class="st1" d="M150.43,280.22c-13.82-66.39,28.79-131.42,95.18-145.24s131.42,28.79,145.24,95.17l0,0
						c-2.74-13.16-20.9-19.18-40.88-15.01c-19.99,4.16-33.97,18.2-31.23,31.36l0,0c-4.65-13.9-26.98-19.24-52.28-13.97
						c-25.56,5.32-44.46,19.17-42.76,33.89l0,0c-2.74-13.16-21.76-20.45-41.75-16.29c-19.99,4.17-34.25,16.87-31.51,30.03
						L150.43,280.22z"/>
				</g>
				<g>
					<path class="st2" d="M145.75,278.59c-13.99-67.2,29.29-133.25,96.49-147.25c32.56-6.78,65.8-0.48,93.61,17.75
						c27.81,18.22,46.86,46.19,53.64,78.74c0.2,0.92-0.4,1.82-1.32,2.01c-0.93,0.2-1.82-0.4-2.01-1.32
						c-1.18-5.68-5.75-10.21-12.88-12.74c-7.27-2.59-16.5-2.92-25.99-0.95c-9.35,1.95-17.61,6.15-23.28,11.84
						c-5.48,5.51-7.84,11.72-6.63,17.5c0.19,0.88-0.35,1.75-1.22,1.99c-0.87,0.24-1.77-0.25-2.06-1.11
						c-4.22-12.63-25.39-18.03-50.33-12.84c-25.53,5.31-42.95,18.79-41.42,32.03c0.1,0.9-0.52,1.73-1.42,1.87
						c-0.89,0.14-1.75-0.44-1.94-1.33c-2.52-12.08-20.71-18.94-39.74-14.98c-9.5,1.98-17.83,5.97-23.47,11.22
						c-5.52,5.15-7.91,11.12-6.72,16.8l0,0c0,0.02,0.01,0.03,0.01,0.06L145.75,278.59z M267.87,132.08
						c-8.29,0-16.63,0.85-24.93,2.58c-61.64,12.83-102.6,70.71-95.65,132.09c1.36-2.86,3.43-5.63,6.19-8.19
						c6.08-5.68,14.99-9.96,25.09-12.06c17.67-3.68,34.26,1.21,40.99,11.12c3.52-12.59,20.09-23.83,43.53-28.71
						c22.96-4.79,42.5-1.05,50.86,9.05c0.82-4.73,3.42-9.42,7.66-13.68c6.13-6.15,15.01-10.69,25-12.77
						c10.1-2.1,19.98-1.72,27.83,1.07c3.55,1.27,6.56,2.98,8.96,5.07c-8.25-27-25.49-50.06-49.39-65.72
						C314.03,138.85,291.19,132.08,267.87,132.08z"/>
				</g>
				<g>
					<path class="st2" d="M315.5,245.03c-0.79,0-1.5-0.55-1.67-1.35c-11.19-53.73-33.67-89.88-66.82-107.45
						c-2.24-1.19-3.09-1.63-3.51-2.42c-0.45-0.82-0.14-1.86,0.69-2.3c0.75-0.4,1.66-0.2,2.16,0.46c0.31,0.24,1.3,0.76,2.26,1.27
						c5.52,2.92,18.44,9.78,32.08,26.24c16.91,20.42,29.19,48.52,36.47,83.52c0.2,0.92-0.4,1.82-1.32,2.01
						C315.74,245.02,315.62,245.03,315.5,245.03z M246.51,132.18L246.51,132.18L246.51,132.18z"/>
				</g>
				<g>
					<path class="st2" d="M220.22,265.2c-0.79,0-1.5-0.55-1.67-1.35c-7.28-35-7.2-65.72,0.26-91.31
						c6.01-20.63,15.21-32.16,19.14-37.09c0.68-0.86,1.39-1.74,1.58-2.08c0.2-0.8,0.96-1.34,1.79-1.28c0.93,0.08,1.63,0.9,1.55,1.84
						c-0.08,0.89-0.67,1.65-2.27,3.65c-23.61,29.6-29.92,71.85-18.73,125.58c0.2,0.92-0.4,1.82-1.32,2.01
						C220.46,265.19,220.34,265.2,220.22,265.2z M239.5,133.64L239.5,133.64L239.5,133.64z"/>
				</g>
				<g>
					<path class="st2" d="M295.38,377.51c-0.31,0-0.62-0.09-0.9-0.26c-0.8-0.5-1.04-1.55-0.54-2.35l92.45-147.64
						c0.5-0.8,1.55-1.04,2.35-0.54c0.8,0.5,1.04,1.55,0.54,2.35l-92.46,147.64C296.49,377.23,295.94,377.51,295.38,377.51z"/>
				</g>
				<g>
					<path class="st2" d="M294.39,377.71c-0.09,0-0.18-0.01-0.27-0.03c-0.93-0.15-1.56-1.02-1.4-1.95l21.33-131.5
						c0.15-0.93,1.03-1.56,1.95-1.4c0.93,0.15,1.56,1.02,1.4,1.95l-21.33,131.49C295.93,377.13,295.21,377.71,294.39,377.71z"/>
				</g>
				<g>
					<path class="st2" d="M293.81,377.84c-0.55,0-1.1-0.27-1.43-0.77l-73.15-111.69c-0.51-0.78-0.3-1.84,0.49-2.35
						c0.78-0.51,1.84-0.3,2.35,0.49l73.15,111.69c0.51,0.78,0.3,1.84-0.49,2.35C294.45,377.75,294.13,377.84,293.81,377.84z"/>
				</g>
				<g>
					<path class="st2" d="M292.49,378.11c-0.33,0-0.66-0.09-0.95-0.29l-145.07-98.17c-0.77-0.53-0.98-1.58-0.46-2.36
						c0.53-0.77,1.58-0.98,2.36-0.46l145.08,98.17c0.77,0.53,0.98,1.58,0.46,2.36C293.57,377.85,293.03,378.11,292.49,378.11z"/>
				</g>
			</g>
		</g>
		<g>
			<g>
				<polygon class="st1" points="518.78,742.35 454.05,714.75 719.87,714.75 784.61,742.35 				"/>
				<path class="st2" d="M784.61,744.05H518.78c-0.23,0-0.46-0.04-0.66-0.14l-64.74-27.62c-0.74-0.31-1.16-1.11-0.99-1.9
					c0.16-0.79,0.86-1.36,1.67-1.36h265.83c0.23,0,0.46,0.04,0.66,0.14l64.73,27.62c0.74,0.31,1.16,1.11,0.99,1.9
					C786.12,743.49,785.42,744.05,784.61,744.05z M519.13,740.65h257.16l-56.77-24.22H462.36L519.13,740.65z"/>
			</g>
			<g>
				<rect x="454.05" y="533.08" class="st1" width="265.83" height="181.65"/>
				<path class="st2" d="M719.87,716.45H454.05c-0.93,0-1.7-0.77-1.7-1.7V533.08c0-0.93,0.76-1.7,1.7-1.7h265.83
					c0.93,0,1.7,0.77,1.7,1.7v181.65C721.57,715.68,720.81,716.45,719.87,716.45z M455.75,713.05h262.43V534.78H455.75V713.05z"/>
			</g>
			<g>
				<polygon class="st1" points="719.87,714.75 784.97,742.28 784.97,560.44 719.87,533.08 				"/>
				<path class="st2" d="M784.97,743.98c-0.22,0-0.45-0.04-0.66-0.14l-65.1-27.53c-0.63-0.26-1.04-0.88-1.04-1.56V533.08
					c0-0.57,0.28-1.1,0.76-1.42c0.48-0.31,1.07-0.37,1.6-0.15l65.1,27.35c0.63,0.26,1.05,0.88,1.05,1.56v181.84
					c0,0.57-0.29,1.11-0.77,1.42C785.63,743.88,785.3,743.98,784.97,743.98z M721.57,713.62l61.7,26.1V561.57l-61.7-25.93
					L721.57,713.62L721.57,713.62z"/>
			</g>
			<g>
				<g>
					<rect x="479.1" y="661.38" class="st3" width="77.33" height="33.53"/>
				</g>
				<g>
					<path class="st2" d="M534.89,669.15H484.9c-0.94,0-1.7-0.77-1.7-1.7c0-0.93,0.76-1.7,1.7-1.7h49.99c0.93,0,1.7,0.77,1.7,1.7
						C536.59,668.4,535.82,669.15,534.89,669.15z"/>
				</g>
				<g>
					<path class="st2" d="M491.34,677.63h-6.44c-0.93,0-1.7-0.77-1.7-1.7c0-0.93,0.76-1.7,1.7-1.7h6.44c0.94,0,1.7,0.77,1.7,1.7
						C493.04,676.86,492.29,677.63,491.34,677.63z"/>
				</g>
				<g>
					<path class="st2" d="M502.64,677.63h-6.44c-0.94,0-1.7-0.77-1.7-1.7c0-0.93,0.76-1.7,1.7-1.7h6.44c0.94,0,1.7,0.77,1.7,1.7
						C504.34,676.86,503.58,677.63,502.64,677.63z"/>
				</g>
				<g>
					<path class="st2" d="M513.93,677.63h-6.44c-0.94,0-1.7-0.77-1.7-1.7c0-0.93,0.76-1.7,1.7-1.7h6.44c0.93,0,1.7,0.77,1.7,1.7
						C515.63,676.86,514.87,677.63,513.93,677.63z"/>
				</g>
				<g>
					<path class="st2" d="M552.66,692.84h-77.33c-0.94,0-1.7-0.77-1.7-1.7v-33.53c0-0.93,0.76-1.7,1.7-1.7h77.33
						c0.93,0,1.7,0.77,1.7,1.7v33.53C554.36,692.09,553.6,692.84,552.66,692.84z M477.03,689.44h73.93v-30.13h-73.93V689.44
						L477.03,689.44z"/>
				</g>
			</g>
			<g>
				<g>
					<path class="st2" d="M771.57,673.65c-0.93,0-1.7-0.77-1.7-1.7v-30.86c0-0.93,0.77-1.7,1.7-1.7c0.93,0,1.7,0.77,1.7,1.7v30.86
						C773.27,672.88,772.52,673.65,771.57,673.65z"/>
				</g>
				<g>
					<path class="st2" d="M771.57,685.03c-0.93,0-1.7-0.77-1.7-1.7v-4.87c0-0.93,0.77-1.7,1.7-1.7c0.93,0,1.7,0.77,1.7,1.7v4.87
						C773.27,684.27,772.52,685.03,771.57,685.03z"/>
				</g>
				<g>
					<path class="st2" d="M771.57,703.38c-0.93,0-1.7-0.77-1.7-1.7V689c0-0.93,0.77-1.7,1.7-1.7c0.93,0,1.7,0.77,1.7,1.7v12.67
						C773.27,702.62,772.52,703.38,771.57,703.38z"/>
				</g>
			</g>
			<g>
				<g id="XMLID_15_">
					<ellipse class="st4" cx="512.07" cy="620.41" rx="10.19" ry="13.59"/>
				</g>
				<g id="XMLID_12_">
					<ellipse class="st4" cx="661.85" cy="620.41" rx="10.19" ry="13.59"/>
				</g>
				<g>
					<path class="st2" d="M567.4,595.35c-0.03,0-0.06,0-0.09,0c-0.93-0.05-1.66-0.85-1.61-1.78c0.11-2.18-0.63-4.28-2.09-5.9
						c-1.46-1.62-3.47-2.58-5.64-2.69c-2.18-0.11-4.28,0.63-5.9,2.09c-1.62,1.46-2.58,3.47-2.69,5.64
						c-0.05,0.93-0.84,1.65-1.78,1.61c-0.93-0.05-1.66-0.85-1.61-1.78c0.16-3.09,1.51-5.92,3.82-8c2.3-2.07,5.27-3.12,8.36-2.96
						s5.92,1.51,8,3.82c2.07,2.3,3.12,5.26,2.96,8.36C569.05,594.64,568.29,595.35,567.4,595.35z"/>
				</g>
				<g>
					<path class="st2" d="M630.12,596.4c-0.03,0-0.06,0-0.09,0c-0.93-0.05-1.66-0.85-1.61-1.78c0.11-2.18-0.63-4.28-2.09-5.9
						c-1.46-1.62-3.47-2.58-5.64-2.69c-2.18-0.11-4.28,0.63-5.9,2.09c-1.62,1.46-2.58,3.47-2.69,5.64
						c-0.05,0.93-0.85,1.65-1.78,1.61c-0.93-0.05-1.66-0.85-1.61-1.78c0.16-3.09,1.51-5.92,3.82-8c2.29-2.07,5.27-3.12,8.36-2.96
						s5.92,1.51,8,3.82c2.07,2.29,3.12,5.26,2.96,8.36C631.77,595.7,631.02,596.4,630.12,596.4z"/>
				</g>
				<g>
					<path class="st2" d="M589.43,639.79c-32.49,0-51.72-19.1-52.52-19.92c-0.66-0.67-0.65-1.74,0.02-2.41
						c0.66-0.66,1.74-0.65,2.41,0.01c0.19,0.19,19.1,18.9,50.11,18.9c31.04,0,49.66-17.11,49.84-17.28c0.69-0.64,1.76-0.6,2.41,0.08
						c0.65,0.68,0.61,1.76-0.08,2.4C640.81,622.33,621.88,639.79,589.43,639.79z"/>
				</g>
			</g>
			<g>
				<g>
					<path class="st1" d="M428.11,346.2c0-100.18,81.21-181.39,181.39-181.39s181.39,81.21,181.39,181.39l0,0
						c0-19.85-24.45-34.03-54.61-34.03c-30.17,0-54.61,16.09-54.61,35.95l0,0c-2.54-21.5-33.23-35.95-71.42-35.95
						c-38.57,0-70.07,14.33-72.05,36.13l0,0c0-19.85-25.31-36.13-55.47-36.13c-30.16,0-54.61,14.08-54.61,33.94L428.11,346.2
						L428.11,346.2z"/>
				</g>
				<g>
					<path class="st4" d="M431.88,349.96c0-100.18,81.21-181.39,181.39-181.39s181.39,81.21,181.39,181.39l0,0
						c0-19.85-24.45-34.03-54.61-34.03c-30.17,0-54.61,16.09-54.61,35.95l0,0c-2.54-21.5-33.23-35.95-71.42-35.95
						c-38.57,0-70.07,14.33-72.05,36.13l0,0c0-19.85-25.31-36.13-55.47-36.13c-30.17,0-54.61,14.08-54.61,33.94V349.96z"/>
				</g>
				<g>
					<path class="st2" d="M538.2,350c-0.03,0-0.05,0-0.08,0c-0.91-0.04-1.62-0.79-1.62-1.7c0-18.67-24.62-34.43-53.77-34.43
						c-30.14,0-52.88,13.84-52.91,32.2c0,0.04,0,0.08,0,0.13c0,0.93-0.77,1.7-1.7,1.7s-1.7-0.76-1.7-1.7v-0.09c0-0.02,0-0.03,0-0.05
						c0.03-48.86,19.07-94.78,53.63-129.33c34.58-34.58,80.56-53.63,129.46-53.63c48.91,0,94.89,19.05,129.46,53.63
						s53.63,80.56,53.63,129.46c0,0.93-0.77,1.7-1.7,1.7s-1.7-0.76-1.7-1.7c0-18.43-22.75-32.33-52.91-32.33
						c-29.18,0-52.91,15.36-52.91,34.25c0,0.9-0.71,1.64-1.6,1.7c-0.89,0.05-1.68-0.6-1.79-1.5c-2.35-19.96-31.68-34.44-69.73-34.44
						c-38.96,0-68.54,14.54-70.35,34.59C539.82,349.33,539.08,350,538.2,350z M482.73,310.47c27.32,0,50.23,12.74,55.85,29.72
						c3.39-7.73,10.67-14.54,21.18-19.66c13.31-6.49,31.25-10.06,50.49-10.06c35.53,0,63.04,11.88,70.97,29.72
						c5.46-16.97,28.08-29.72,55.05-29.72c24.45,0,44.32,8.91,52.41,22.15c-6.96-92.77-84.67-166.12-179.18-166.12
						c-94.49,0-172.19,73.31-179.18,166.06C438.41,319.35,458.29,310.47,482.73,310.47z"/>
				</g>
				<g>
					<path class="st2" d="M681.74,348.02c-0.93,0-1.7-0.76-1.7-1.7c0-81.33-21.73-140.6-64.57-176.15
						c-2.75-2.28-3.77-3.14-4.09-4.17c-0.27-0.9,0.24-1.84,1.14-2.12c0.84-0.25,1.73,0.18,2.06,0.98c0.32,0.43,1.72,1.58,3.06,2.69
						c7.06,5.86,23.6,19.58,38.29,47.36c18.25,34.51,27.51,78.72,27.51,131.4C683.44,347.26,682.67,348.02,681.74,348.02z
						 M614.64,165.03C614.64,165.03,614.64,165.03,614.64,165.03C614.64,165.03,614.64,165.03,614.64,165.03z M614.55,164.82
						L614.55,164.82L614.55,164.82z"/>
				</g>
				<g>
					<path class="st2" d="M537.86,348.5c-0.93,0-1.7-0.77-1.7-1.7c0-52.68,9.34-96.96,27.77-131.59
						c14.83-27.88,31.53-41.72,38.66-47.63c1.36-1.13,2.76-2.29,3.09-2.72c0.33-0.79,1.22-1.22,2.06-0.97
						c0.9,0.27,1.41,1.22,1.14,2.12c-0.31,1.04-1.35,1.9-4.12,4.2c-43.27,35.85-65.2,95.27-65.2,176.6
						C539.56,347.73,538.79,348.5,537.86,348.5z M605.62,165.03C605.62,165.03,605.62,165.03,605.62,165.03
						C605.62,165.03,605.62,165.03,605.62,165.03z M605.71,164.82L605.71,164.82L605.71,164.82z"/>
				</g>
				<g>
					<path class="st2" d="M612.72,533.56c-0.43,0-0.85-0.15-1.17-0.48c-0.68-0.65-0.7-1.73-0.05-2.41l178.18-185.67
						c0.65-0.68,1.73-0.7,2.41-0.05c0.68,0.65,0.7,1.73,0.05,2.41L613.95,533.03C613.61,533.38,613.17,533.56,612.72,533.56z"/>
				</g>
				<g>
					<path class="st2" d="M611.23,533.56c-0.2,0-0.41-0.03-0.61-0.11c-0.88-0.34-1.32-1.32-0.98-2.19l70.44-183.75
						c0.33-0.88,1.32-1.31,2.19-0.98c0.88,0.34,1.32,1.32,0.98,2.19l-70.44,183.75C612.55,533.14,611.91,533.56,611.23,533.56z"/>
				</g>
				<g>
					<path class="st2" d="M610.35,533.56c-0.68,0-1.32-0.41-1.58-1.08l-72.15-183.56c-0.34-0.88,0.08-1.86,0.96-2.2
						c0.88-0.34,1.86,0.08,2.2,0.96l72.15,183.56c0.34,0.88-0.08,1.86-0.96,2.2C610.77,533.53,610.57,533.56,610.35,533.56z"/>
				</g>
				<g>
					<path class="st2" d="M608.36,533.56c-0.44,0-0.88-0.17-1.22-0.52L426.9,347.38c-0.65-0.67-0.64-1.75,0.03-2.41
						c0.67-0.65,1.75-0.64,2.41,0.03l180.25,185.67c0.65,0.67,0.64,1.75-0.03,2.41C609.22,533.4,608.79,533.56,608.36,533.56z"/>
				</g>
			</g>
		</g>
	</g>
</g>
</svg>
