<?xml version="1.0" encoding="utf-8"?>
<!-- Generator: Adobe Illustrator 23.0.0, SVG Export Plug-In . SVG Version: 6.00 Build 0)  -->
<svg version="1.1" id="圖層_1" xmlns="http://www.w3.org/2000/svg" xmlns:xlink="http://www.w3.org/1999/xlink" x="0px" y="0px"
	 viewBox="0 0 1262.75 872.33" style="enable-background:new 0 0 1262.75 872.33;" xml:space="preserve">
<style type="text/css">
	.st0{fill:#FFFFFF;}
	.st1{fill:#6A79A8;}
	.st2{fill:#BBDFF5;}
	.st3{fill:#FF9C81;}
</style>
<g id="栝鍣_1_1_">
</g>
<g id="栝鍣_2">
</g>
<g>
	<path class="st0" d="M357.54,815.85l511.77,1.56c5.92,0.02,10.73-4.78,10.73-10.7V453.64c0-5.91-4.79-10.7-10.7-10.7H371.96h-1.18
		c-17.21,0.33-22.92,11.79-23.18,20.78v0.58l-0.43,329.68c0,0,0.4,8.85,1.92,13.11c1.51,4.27,3.57,8.61,3.57,8.61L357.54,815.85z"/>
	<g>
		<path class="st1" d="M869.34,819.41c-0.01,0-0.03,0-0.04,0l-511.77-1.56c-0.02,0-0.04,0-0.06,0l-4.89-0.15
			c-0.75-0.02-1.42-0.46-1.75-1.14c-0.09-0.18-2.11-4.48-3.64-8.79c-1.59-4.5-2.01-13.32-2.03-13.69l0.43-330.36
			c0.3-10.32,7.06-22.43,25.15-22.77h1.22h497.38c7,0,12.7,5.7,12.7,12.7v353.08c0,3.4-1.33,6.59-3.73,9
			C875.91,818.1,872.73,819.41,869.34,819.41z M357.57,813.85l511.74,1.56c0.01,0,0.02,0,0.03,0c2.32,0,4.5-0.9,6.14-2.54
			c1.65-1.64,2.56-3.83,2.56-6.16V453.64c0-4.8-3.9-8.7-8.7-8.7H370.78c-15.21,0.29-20.93,9.92-21.19,18.84v0.53l-0.43,329.67l0,0
			c0,0,0.41,8.51,1.8,12.44c1.01,2.85,2.29,5.77,2.98,7.31L357.57,813.85z"/>
	</g>
</g>
<path class="st0" d="M836.27,403.69L589.6,650.36c-15.14,15.14-39.68,15.14-54.81,0L387.27,502.84c-15.14-15.14-15.14-39.68,0-54.81
	l246.67-246.67c15.14-15.14,39.68-15.14,54.81,0l147.52,147.52C851.41,364.01,851.41,388.56,836.27,403.69z"/>
<path class="st2" d="M845.92,403.69L599.25,650.36c-15.14,15.14-39.68,15.14-54.81,0L396.92,502.84
	c-15.14-15.14-15.14-39.68,0-54.81l246.67-246.67c15.14-15.14,39.68-15.14,54.81,0l147.52,147.52
	C861.06,364.01,861.06,388.56,845.92,403.69z"/>
<g>
	<path class="st1" d="M562.2,663.52c-10.84,0-21.02-4.22-28.68-11.88L385.99,504.12c-15.81-15.81-15.81-41.54,0-57.36l246.67-246.67
		c7.66-7.66,17.85-11.88,28.68-11.88s21.01,4.22,28.68,11.88l147.52,147.52c7.66,7.66,11.88,17.85,11.88,28.68
		s-4.22,21.02-11.88,28.68L590.88,651.64C583.21,659.3,573.03,663.52,562.2,663.52z M661.35,191.81c-9.87,0-19.15,3.84-26.14,10.83
		L388.54,449.3c-14.41,14.41-14.41,37.85,0,52.27l147.52,147.52c6.98,6.98,16.26,10.83,26.14,10.83c9.87,0,19.15-3.84,26.14-10.83
		L835,402.42c6.98-6.98,10.83-16.26,10.83-26.14c0-9.87-3.84-19.15-10.83-26.14L687.47,202.63
		C680.5,195.65,671.22,191.81,661.35,191.81z"/>
</g>
<g>
	<path class="st1" d="M432.86,453.85c-0.46,0-0.92-0.18-1.27-0.53c-0.7-0.7-0.7-1.85,0-2.55l83.93-83.93c0.7-0.7,1.84-0.7,2.55,0
		c0.7,0.7,0.7,1.85,0,2.55l-83.93,83.93C433.79,453.67,433.33,453.85,432.86,453.85z"/>
</g>
<g>
	<path class="st1" d="M410.38,476.33c-0.46,0-0.92-0.18-1.27-0.53c-0.7-0.7-0.7-1.84,0-2.55l16.26-16.26c0.7-0.7,1.85-0.7,2.55,0
		c0.7,0.7,0.7,1.85,0,2.55l-16.26,16.26C411.31,476.15,410.84,476.33,410.38,476.33z"/>
</g>
<g>
	<circle class="st0" cx="661.15" cy="279.91" r="37.14"/>
	<circle class="st0" cx="641.69" cy="299.37" r="37.14"/>
</g>
<g>
	<path class="st1" d="M679.64,307.97c-0.46,0-0.92-0.18-1.27-0.53c-0.7-0.7-0.7-1.84,0-2.55c6.68-6.68,10.35-15.55,10.35-24.99
		c0-9.44-3.67-18.32-10.35-24.99s-15.55-10.35-24.99-10.35s-18.31,3.68-24.99,10.35c-0.7,0.7-1.85,0.7-2.55,0s-0.7-1.85,0-2.55
		c7.35-7.35,17.14-11.4,27.54-11.4s20.18,4.05,27.54,11.4c7.35,7.35,11.4,17.14,11.4,27.54s-4.05,20.18-11.4,27.54
		C680.55,307.8,680.09,307.97,679.64,307.97z"/>
</g>
<g>
	<path class="st1" d="M633.92,338.31c-10.4,0-20.18-4.05-27.54-11.4c-7.35-7.35-11.4-17.14-11.4-27.54s4.05-20.18,11.4-27.54
		c7.35-7.35,17.14-11.4,27.54-11.4c10.4,0,20.18,4.05,27.54,11.4l0,0l0,0c7.35,7.35,11.4,17.14,11.4,27.54s-4.05,20.18-11.4,27.54
		C654.09,334.26,644.31,338.31,633.92,338.31z M633.92,264.02c-9.44,0-18.31,3.67-24.99,10.35c-6.68,6.68-10.35,15.55-10.35,24.99
		c0,9.44,3.68,18.32,10.35,24.99c6.67,6.68,15.55,10.35,24.99,10.35c9.44,0,18.32-3.67,24.99-10.35
		c6.68-6.68,10.35-15.55,10.35-24.99c0-9.44-3.67-18.32-10.35-24.99l0,0C652.23,267.7,643.36,264.02,633.92,264.02z"/>
</g>
<path class="st0" d="M537.88,491l-40.87,40.87c-5.7,5.7-14.94,5.7-20.64,0l-25.62-25.62c-5.7-5.7-5.7-14.94,0-20.64l40.87-40.87
	c5.7-5.7,14.94-5.7,20.64,0l25.62,25.62C543.58,476.06,543.58,485.31,537.88,491z"/>
<g>
	<path class="st1" d="M478.54,538.44c-4.38,0-8.5-1.7-11.59-4.81l-25.62-25.62c-6.39-6.39-6.39-16.79,0-23.18l40.87-40.87
		c3.1-3.1,7.22-4.81,11.59-4.81c4.38,0,8.5,1.7,11.59,4.81L531,469.58c6.39,6.39,6.39,16.79,0,23.18l-40.87,40.87
		C487.04,536.74,482.92,538.44,478.54,538.44z M493.79,442.76c-3.42,0-6.63,1.33-9.05,3.74l-40.87,40.87
		c-4.99,4.99-4.99,13.1,0,18.1l25.62,25.62c2.42,2.42,5.63,3.74,9.05,3.74c3.42,0,6.63-1.33,9.04-3.74l40.87-40.87
		c2.42-2.42,3.74-5.63,3.74-9.04c0-3.42-1.33-6.63-3.74-9.04l-25.62-25.62C500.42,444.1,497.21,442.76,493.79,442.76z"/>
</g>
<g>
	
		<ellipse id="XMLID_245_" transform="matrix(0.7071 -0.7071 0.7071 0.7071 -75.487 520.9553)" class="st1" cx="591.11" cy="351.6" rx="4.41" ry="4.58"/>
	<path id="XMLID_244_" class="st1" d="M679.76,446.47c-1.79-1.79-1.84-4.63-0.13-6.35c1.72-1.72,4.57-1.66,6.35,0.13
		c1.79,1.79,1.84,4.64,0.13,6.35C684.4,448.32,681.55,448.26,679.76,446.47z"/>
	<g>
		
			<ellipse id="XMLID_237_" transform="matrix(0.7071 -0.7071 0.7071 0.7071 -92.6035 520.8882)" class="st3" cx="582.47" cy="372.23" rx="11" ry="8.25"/>
		
			<ellipse id="XMLID_236_" transform="matrix(0.7071 -0.7071 0.7071 0.7071 -125.8383 601.1351)" class="st3" cx="662.72" cy="452.47" rx="11" ry="8.25"/>
	</g>
	<g>
		<path class="st1" d="M644.26,442.44c-0.05,0-0.11,0-0.15-0.01c-13.1-1.13-25.44-6.88-34.76-16.2
			c-9.51-9.51-15.28-22.13-16.26-35.53c-0.07-0.99,0.67-1.85,1.66-1.93c0.98-0.08,1.85,0.67,1.93,1.67
			c0.91,12.54,6.31,24.34,15.21,33.25c8.71,8.71,20.27,14.09,32.52,15.16c0.99,0.09,1.73,0.95,1.64,1.95
			C645.97,441.74,645.18,442.44,644.26,442.44z"/>
	</g>
</g>
<g>
	<g>
		<path class="st1" d="M559.5,625.46c-0.46,0-0.92-0.18-1.27-0.53c-0.7-0.7-0.7-1.84,0-2.55l56.26-56.26c0.7-0.7,1.84-0.7,2.55,0
			s0.7,1.85,0,2.55l-56.26,56.26C560.42,625.28,559.96,625.46,559.5,625.46z"/>
	</g>
	<g>
		<path class="st1" d="M759.08,425.87c-0.46,0-0.92-0.18-1.27-0.53c-0.7-0.7-0.7-1.84,0-2.55l56.26-56.26c0.7-0.7,1.84-0.7,2.55,0
			c0.7,0.7,0.7,1.84,0,2.55l-56.26,56.26C760.01,425.7,759.55,425.87,759.08,425.87z"/>
	</g>
	<g>
		<path class="st1" d="M692.35,492.61c-0.46,0-0.92-0.18-1.27-0.53c-0.7-0.7-0.7-1.85,0-2.55l56.26-56.26c0.7-0.7,1.84-0.7,2.55,0
			s0.7,1.84,0,2.55l-56.26,56.26C693.27,492.43,692.81,492.61,692.35,492.61z"/>
	</g>
	<g>
		<path class="st1" d="M625.89,559.07c-0.46,0-0.92-0.18-1.27-0.53c-0.7-0.7-0.7-1.85,0-2.55l56.26-56.26c0.7-0.7,1.84-0.7,2.55,0
			s0.7,1.85,0,2.55l-56.26,56.26C626.81,558.89,626.35,559.07,625.89,559.07z"/>
	</g>
</g>
<g>
	<path id="XMLID_88_" class="st0" d="M347.16,793.98l0.43-329.68l0.45-2.98c0,0,2.88,6.59,13.53,6.02h482.4
		c5.5,0,9.96,4.46,9.96,9.96v352.44c0,5.5-4.46,9.96-9.96,9.96H392.88C367.63,839.69,347.16,819.22,347.16,793.98z"/>
	<g id="XMLID_87_">
		<path class="st1" d="M843.97,841.69H392.88c-26.31,0-47.71-21.4-47.71-47.71l0,0l0.43-329.68c0-0.1,0.01-0.2,0.02-0.29l0.45-2.98
			c0.13-0.88,0.83-1.57,1.72-1.69c0.89-0.11,1.74,0.37,2.1,1.18c0.09,0.2,2.58,5.3,11.58,4.82c0.04,0,0.07,0,0.11,0h482.4
			c6.59,0,11.96,5.36,11.96,11.96v352.44C855.93,836.33,850.56,841.69,843.97,841.69z M349.16,793.98
			c0,24.1,19.61,43.71,43.71,43.71h451.09c4.39,0,7.96-3.57,7.96-7.96V477.29c0-4.39-3.57-7.96-7.96-7.96H361.62
			c-5.87,0.3-9.67-1.38-12.03-3.2L349.16,793.98L349.16,793.98z"/>
	</g>
</g>
<g>
	<path id="XMLID_86_" class="st0" d="M884.39,618.32H760.84l-22.42,22.42c-10.15,10.15-9.77,26.72,0.84,36.4l20.41,18.6H884.4
		v-77.42H884.39z"/>
	<g id="XMLID_85_">
		<path class="st1" d="M884.39,697.74L884.39,697.74H759.66c-0.5,0-0.98-0.19-1.35-0.52l-20.41-18.6
			c-5.54-5.05-8.68-11.96-8.86-19.45c-0.17-7.49,2.65-14.54,7.95-19.84l22.42-22.42c0.38-0.38,0.88-0.59,1.41-0.59H785
			c1.1,0,2,0.9,2,2s-0.9,2-2,2h-23.35l-21.83,21.83c-4.52,4.52-6.93,10.53-6.78,16.92c0.15,6.39,2.83,12.28,7.55,16.59l19.83,18.08
			h121.96v-73.43h-72.65c-1.1,0-2-0.9-2-2s0.9-2,2-2h74.65c1.1,0,2,0.9,2,2v77.43c0,0.53-0.21,1.04-0.59,1.41
			S884.92,697.74,884.39,697.74z"/>
	</g>
	<g id="XMLID_84_">
		<path class="st1" d="M797.49,675.84c-9.89,0-17.93-8.04-17.93-17.93s8.04-17.93,17.93-17.93s17.93,8.04,17.93,17.93
			C815.42,667.8,807.38,675.84,797.49,675.84z M797.49,643.98c-7.68,0-13.93,6.25-13.93,13.93s6.25,13.93,13.93,13.93
			s13.93-6.25,13.93-13.93S805.17,643.98,797.49,643.98z"/>
	</g>
</g>
<g>
	<path id="XMLID_83_" class="st1" d="M540.79,663.69c-2.4-0.23-4.74-1.4-6.42-3.44l0,0c-3.29-4-2.81-9.85,1.07-13.05
		c1.89-1.56,4.3-2.26,6.77-1.97c2.44,0.29,4.66,1.5,6.24,3.42c3.29,4,2.81,9.85-1.07,13.05
		C545.48,663.28,543.1,663.92,540.79,663.69z"/>
	<path id="XMLID_82_" class="st1" d="M666.19,658.21c-2.4-0.23-4.74-1.4-6.42-3.44l0,0c-3.29-4-2.81-9.85,1.07-13.05
		s9.72-2.54,13.01,1.45c1.58,1.92,2.35,4.33,2.16,6.78c-0.19,2.49-1.34,4.71-3.23,6.27C670.88,657.79,668.5,658.43,666.19,658.21z"
		/>
	<path id="XMLID_81_" class="st1" d="M572.72,715.73c-7.32,0.1-12.49,7.23-10.31,14.22c6.32,20.2,25.32,34.74,47.57,34.45
		c22.24-0.29,40.84-15.32,46.63-35.66c2.01-7.06-3.36-14.07-10.7-13.97L572.72,715.73z"/>
	<g>
		
			<ellipse id="XMLID_80_" transform="matrix(0.0964 -0.9953 0.9953 0.0964 -255.6884 1132.7987)" class="st3" cx="496.06" cy="707.22" rx="20.46" ry="15.34"/>
		
			<ellipse id="XMLID_79_" transform="matrix(0.0965 -0.9953 0.9953 0.0965 -79.0971 1369.8965)" class="st3" cx="715.02" cy="728.52" rx="20.46" ry="15.34"/>
	</g>
</g>
<g>
	<g>
		<path class="st1" d="M833.76,596.7c-1.1,0-2-0.9-2-2v-56.94c0-1.1,0.9-2,2-2s2,0.9,2,2v56.94
			C835.76,595.8,834.86,596.7,833.76,596.7z"/>
	</g>
	<g>
		<path class="st1" d="M663.32,821.17h-27.74c-1.1,0-2-0.9-2-2s0.9-2,2-2h27.74c1.1,0,2,0.9,2,2S664.42,821.17,663.32,821.17z"/>
	</g>
	<g>
		<path class="st1" d="M740.27,821.17h-43.66c-1.1,0-2-0.9-2-2s0.9-2,2-2h43.66c1.1,0,2,0.9,2,2S741.37,821.17,740.27,821.17z"/>
	</g>
	<g>
		<path class="st1" d="M587.12,821.17H459.9c-1.1,0-2-0.9-2-2s0.9-2,2-2h127.22c1.1,0,2,0.9,2,2S588.22,821.17,587.12,821.17z"/>
	</g>
	<g>
		<path class="st1" d="M366.96,637.9c-1.1,0-2-0.9-2-2V531.91c0-1.1,0.9-2,2-2s2,0.9,2,2V635.9
			C368.96,637,368.07,637.9,366.96,637.9z"/>
	</g>
	<g>
		<path class="st1" d="M365.78,720.42c-1.1,0-2-0.9-2-2v-37.86c0-1.1,0.9-2,2-2s2,0.9,2,2v37.86
			C367.78,719.53,366.89,720.42,365.78,720.42z"/>
	</g>
</g>
<g>
	<g>
		<path class="st1" d="M442.13,222.8c-0.55,0-1.09-0.25-1.44-0.72c-14.95-19.99-32.63-37.78-52.53-52.87
			c-0.79-0.6-0.95-1.73-0.35-2.52c0.6-0.79,1.73-0.95,2.52-0.35c20.18,15.29,38.09,33.32,53.24,53.58c0.59,0.79,0.43,1.93-0.36,2.52
			C442.89,222.68,442.51,222.8,442.13,222.8z"/>
	</g>
	<g>
		<path class="st1" d="M542.31,182.48c-0.89,0-1.66-0.66-1.78-1.57c-3.21-24.76-9.88-48.93-19.82-71.85
			c-0.4-0.91,0.03-1.97,0.94-2.37c0.91-0.4,1.97,0.03,2.37,0.94c10.07,23.23,16.83,47.72,20.09,72.81c0.13,0.99-0.57,1.89-1.56,2.02
			C542.47,182.48,542.39,182.48,542.31,182.48z"/>
	</g>
	<g>
		<path class="st1" d="M659.34,167.7c-0.08,0-0.15-0.01-0.23-0.02c-0.99-0.13-1.68-1.04-1.56-2.02
			c3.26-25.09,10.02-49.59,20.09-72.81c0.4-0.91,1.46-1.33,2.37-0.94c0.91,0.4,1.33,1.46,0.94,2.37
			c-9.94,22.91-16.6,47.09-19.82,71.85C661.01,167.03,660.23,167.7,659.34,167.7z"/>
	</g>
	<g>
		<path class="st1" d="M782.92,204.34c-0.27,0-0.55-0.06-0.8-0.19c-0.89-0.45-1.25-1.53-0.8-2.41
			c11.35-22.62,25.8-43.51,42.97-62.12c0.67-0.73,1.81-0.77,2.55-0.1c0.73,0.68,0.77,1.81,0.1,2.55
			c-16.94,18.36-31.2,38.98-42.4,61.29C784.22,203.97,783.59,204.34,782.92,204.34z"/>
	</g>
	<g>
		<path class="st1" d="M835.88,266.37c-0.46,0-0.93-0.18-1.28-0.53c-0.7-0.7-0.69-1.85,0.01-2.55
			c17.95-17.83,38.3-33.05,60.49-45.23c0.87-0.48,1.96-0.16,2.45,0.71c0.48,0.87,0.16,1.96-0.71,2.45
			c-21.9,12.02-41.98,27.04-59.69,44.63C836.79,266.19,836.33,266.37,835.88,266.37z"/>
	</g>
</g>
<g id="栝鍣_5">
	<g id="XMLID_226_">
		<g id="XMLID_234_">
			<rect id="XMLID_235_" x="973.09" y="171.22" class="st1" width="6" height="14.86"/>
		</g>
		<g id="XMLID_232_">
			<rect id="XMLID_233_" x="973.09" y="201.32" class="st1" width="6" height="14.86"/>
		</g>
		<g id="XMLID_230_">
			<rect id="XMLID_231_" x="953.51" y="190.61" class="st1" width="14.86" height="6"/>
		</g>
		<g id="XMLID_227_">
			<rect id="XMLID_229_" x="983.62" y="190.61" class="st1" width="14.86" height="6"/>
		</g>
	</g>
	<g id="XMLID_217_">
		<g id="XMLID_224_">
			<rect id="XMLID_225_" x="61.51" y="414.3" class="st1" width="6" height="14.86"/>
		</g>
		<g id="XMLID_222_">
			<rect id="XMLID_223_" x="61.51" y="444.4" class="st1" width="6" height="14.86"/>
		</g>
		<g id="XMLID_220_">
			<rect id="XMLID_221_" x="41.93" y="433.69" class="st1" width="14.86" height="6"/>
		</g>
		<g id="XMLID_218_">
			<rect id="XMLID_219_" x="72.04" y="433.69" class="st1" width="14.86" height="6"/>
		</g>
	</g>
	<g id="XMLID_164_">
		<g id="XMLID_215_">
			<rect id="XMLID_216_" x="958.23" y="543.75" class="st3" width="6" height="14.86"/>
		</g>
		<g id="XMLID_213_">
			<rect id="XMLID_214_" x="958.23" y="573.85" class="st3" width="6" height="14.86"/>
		</g>
		<g id="XMLID_211_">
			<rect id="XMLID_212_" x="938.65" y="563.14" class="st3" width="14.86" height="6"/>
		</g>
		<g id="XMLID_175_">
			<rect id="XMLID_177_" x="968.75" y="563.14" class="st3" width="14.86" height="6"/>
		</g>
	</g>
	<g id="XMLID_144_">
		<g id="XMLID_160_">
			<rect id="XMLID_161_" x="141.04" y="692.28" class="st3" width="6" height="14.86"/>
		</g>
		<g id="XMLID_156_">
			<rect id="XMLID_158_" x="141.04" y="722.38" class="st3" width="6" height="14.86"/>
		</g>
		<g id="XMLID_154_">
			<rect id="XMLID_155_" x="121.46" y="711.67" class="st3" width="14.86" height="6"/>
		</g>
		<g id="XMLID_145_">
			<rect id="XMLID_146_" x="151.56" y="711.67" class="st3" width="14.86" height="6"/>
		</g>
	</g>
	<g id="XMLID_135_">
		<g id="XMLID_142_">
			<rect id="XMLID_143_" x="305.43" y="138.44" class="st3" width="6" height="14.86"/>
		</g>
		<g id="XMLID_140_">
			<rect id="XMLID_141_" x="305.43" y="168.55" class="st3" width="6" height="14.86"/>
		</g>
		<g id="XMLID_138_">
			<rect id="XMLID_139_" x="285.86" y="157.83" class="st3" width="14.86" height="6"/>
		</g>
		<g id="XMLID_136_">
			<rect id="XMLID_137_" x="315.96" y="157.83" class="st3" width="14.86" height="6"/>
		</g>
	</g>
	<g id="XMLID_43_">
		<g id="XMLID_66_">
			<rect id="XMLID_97_" x="247.02" y="521.26" class="st1" width="6" height="14.86"/>
		</g>
		<g id="XMLID_64_">
			<rect id="XMLID_65_" x="247.02" y="551.37" class="st1" width="6" height="14.86"/>
		</g>
		<g id="XMLID_59_">
			<rect id="XMLID_62_" x="227.45" y="540.65" class="st1" width="14.86" height="6"/>
		</g>
		<g id="XMLID_44_">
			<rect id="XMLID_54_" x="257.55" y="540.65" class="st1" width="14.86" height="6"/>
		</g>
	</g>
	<g id="XMLID_1_">
		<g id="XMLID_41_">
			<rect id="XMLID_42_" x="1060.32" y="736.38" class="st1" width="6" height="14.86"/>
		</g>
		<g id="XMLID_6_">
			<rect id="XMLID_39_" x="1060.32" y="766.49" class="st1" width="6" height="14.86"/>
		</g>
		<g id="XMLID_47_">
			<rect id="XMLID_48_" x="1040.75" y="755.77" class="st1" width="14.86" height="6"/>
		</g>
		<g id="XMLID_45_">
			<rect id="XMLID_46_" x="1070.85" y="755.77" class="st1" width="14.86" height="6"/>
		</g>
	</g>
</g>
</svg>
