<?xml version="1.0" encoding="utf-8"?>
<!-- Generator: Adobe Illustrator 23.0.0, SVG Export Plug-In . SVG Version: 6.00 Build 0)  -->
<svg version="1.1" id="圖層_1" xmlns="http://www.w3.org/2000/svg" xmlns:xlink="http://www.w3.org/1999/xlink" x="0px" y="0px"
	 viewBox="0 0 751.8 857.8" style="enable-background:new 0 0 751.8 857.8;" xml:space="preserve">
<style type="text/css">
	.st0{fill:#F2F2F2;}
	.st1{fill:#FFFFFF;}
	.st2{fill:#6A79A8;}
	.st3{fill:#DDDDDD;}
	.st4{fill:#FF9C81;}
	.st5{clip-path:url(#SVGID_2_);}
	.st6{fill:#BBDFF5;}
</style>
<g id="栝鍣_1_1_">
</g>
<g id="栝鍣_2">
</g>
<g>
	<path class="st0" d="M740.7,791.7c-0.2,2.4-1.9,5.1-5.5,8.2c-16.2,14.1-72.4,20.6-100.2,23.2c-40.6,3.9-83.7,8.5-123.1,6.7
		c-29.9-1.4-64.6-8.5-34.9-25.3c9.6-5.5,36-10.6,49.8-13.9c31.1-7.4,63.7-13.7,96.7-16c24-1.6,46.5,0,69.1,1.4
		C712.9,777.2,741.7,781,740.7,791.7z"/>
</g>
<g>
	<path class="st0" d="M486.3,803.3c-0.4,5.9-2.4,12.4-6.5,19.3c-19,31.9-83.5,34.9-115.4,35c-46.6,0.3-96,1.6-141-12.3
		c-34.1-10.6-73.6-36.8-39.1-72.5c11.2-11.6,41.6-18.4,57.4-23.4c35.9-11.4,73.3-19.7,111.1-17.4c27.5,1.6,53.2,11,79,20
		C455,760.1,487.9,776.4,486.3,803.3z"/>
</g>
<g>
	<path class="st0" d="M256.5,791.7c6.9,6.3,11.4,14,10.2,22.4c-1.1,8.1-7.6,15-15.4,19.5c-7.9,4.4-17.1,6.7-26.4,8.6
		c-43.4,8.9-106.2,16.7-149,0.5C47.4,831.8,30.5,808,17.2,785c-7.9-13.6-21.8-31.6-15.7-47.5c8-20.9,38.7-22.5,60.5-19.6
		c22.5,3,44.2,13,58.5,28.5c16.1,17.4,24.9,32,51.7,25c24.7-6.4,40.4-3.4,64.8,7.8C243.9,782.4,251,786.6,256.5,791.7z"/>
</g>
<g>
	<g>
		<path class="st1" d="M520,821.6c-6.3-0.2-7.1-12.4-7.6-16.6c-1.6-13.5-1.3-27.3-1.1-40.9c0.3-17.6,0.9-35.3,1.2-52.9
			c0.2-9,0.2-18,0.1-27.1c0-4.3-0.1-8.7-0.3-13c-0.1-1.9-0.5-4,0-5.8c0.7-2.1,2.1-4.3,3.4-6.2c1.4-2.1,3.2-4,5.5-5.3
			c3.2-1.8,7-2.1,10.7-2.3c6.5-0.3,13.1-0.3,19.6,0.9c6.4,1.2,12.7,3.7,17.8,7.9c1,0.8,1.9,1.7,2.4,2.9c1.1,2.6-1.7,7.5-2.6,10.2
			c-1.1,3.4-2.2,6.8-3.3,10.2c-2.3,7.4-4.4,14.8-6.4,22.3c-4.3,15.7-8.2,31.4-12.3,47.1c-3.6,13.9-7.2,27.8-11.6,41.4
			c-2.6,8.1-5.3,18-11,24.6C523.4,820.2,521.9,821.7,520,821.6z"/>
	</g>
	<g>
		<g>
			<path class="st2" d="M569,666.8c-15.3,42.6-22.5,87.6-36.9,130.5c-2.3,6.7-4.5,14.2-8.7,20c-1.3,1.9-2.2,3.1-3.3,2.7
				c-1.9-0.8-2.8-4-3.4-5.7c-5.8-17.5-3.3-39.4-2.9-57.5c0.6-30.3,2-60.6,0.7-91c0-1.3-5-0.4-5,1.3c1.3,30.3-0.1,60.7-0.7,91
				c-0.3,12.7-0.5,25.4,0.2,38c0.4,7.1,0.3,16.5,4.1,22.9c5.3,9,13.9,0.5,17.1-5.5c9.9-18.7,14.2-41.2,19.5-61.5
				c7.5-28.7,14.2-57.9,24.2-85.8C574.4,664.7,569.5,665.3,569,666.8L569,666.8z"/>
		</g>
	</g>
	<g>
		<path class="st1" d="M700.9,794.4c-6.9,5.9-17.5-16-19.5-19.6c-10-18.3-18.3-37.5-27.1-56.4c-8.5-18.4-16.7-38-28.3-54.7
			c-2.9-4.2-5.8-8.8-0.8-13.1c2.9-2.4,6.8-3.1,10.5-3.7c16.8-2.6,33.5-5.2,50.3-7.8c2.7,30.8,7.2,61.3,11.7,91.9
			c2.6,17.8,6.9,36.8,5.8,54.9C703.3,788.8,703.1,792.3,700.9,794.4z"/>
	</g>
	<g>
		<g>
			<path class="st2" d="M684.5,653.4c3.5,29.6,8,59,12.2,88.5c1.4,9.7,2.8,19.3,3.7,29c0.6,6.1,1.6,13.1,0.1,19.2
				c-1.3,5.3-3.1,3.3-6.3-0.2c-4.7-5.2-8.1-11.8-11.4-17.9c-9.5-17.7-17.5-36.1-25.9-54.3c-9.1-19.5-18-39.6-30.2-57.5
				c-1-1.5-5.8,0.2-4.6,2c25,36.8,37.4,80.7,60,118.8c3.3,5.6,11.7,21.1,20.4,14.2c3.4-2.7,3.5-7.8,3.6-11.7
				c0.2-8.1-0.8-16.3-1.8-24.3c-4.4-35.8-10.5-71.3-14.7-107.2C689.3,650.2,684.3,651.3,684.5,653.4L684.5,653.4z"/>
		</g>
	</g>
	<g>
		<g>
			<path class="st3" d="M743.4,633.1C683,649.8,620.7,668,557.5,667.2c-17.7-0.2-46.8-0.8-55.7-19.7c-1.8-3.9-16.3,1.2-14.9,4
				c8,16.8,30.5,20,46.9,21.4c18.8,1.6,37.6,0.1,56.3-1.3c39.2-3.1,77.7-13.5,115.7-23.2c13-3.3,26-6.7,39-10.3
				c1.3-0.4,7.6-2.2,6.8-4.5C750.7,631.3,744.8,632.7,743.4,633.1L743.4,633.1z"/>
		</g>
	</g>
	<g>
		<path class="st0" d="M483.8,646.5c-1.3-1.5-2.5-3.1-3.7-4.8c-9.6-14.1-13.1-31.4-15.5-48.3c-4.1-29.3-0.8-57.4,1.5-86.8
			c2.4-30.8,5.5-61.5,10.2-92c7.8-50.7,28.2-187.4,110.9-155.6c62,23.9,106.9,147.5,137,270.1c10,41,18.4,64.7,25.2,101.7
			c0,0-117,33.7-153.7,34.3C561,665.5,509.5,676.2,483.8,646.5z"/>
	</g>
	<g>
		<path class="st1" d="M554.4,331.7c-2.6,1-5.3,1.5-8,1.2c-3.5-0.3-6.7-1.9-9.8-3.5c-5.3-2.8-10.4-6.1-15.2-9.7
			c-1.8-1.3-3.7-2.4-5.6-3.5c-1.7-1-3.1-2.5-4.5-4c-2.3-2.5-5.6-6-6.6-9.4c-0.5-1.5,0.9-3.1,1.7-4.4c1.1-1.8,2.3-3.5,3.3-5.2
			c3.4-5.8,7.2-11.4,11.5-16.5c17.1-20.1,40.9-27.4,65.9-17.8c14.6,5.6,27.2,16.2,37.4,27.9c1.5,1.8,1.8,2.5,1.3,4.7
			c-0.5,2.1-1,4.1-1.6,6.1c-1.3,3.9-3,7.8-5.4,11.1c-4.1,5.6-9.2,10.8-14.4,15.4c-1,0.9-1.9,2.1-3.1,2.8c-1.5,0.8-3.4,1.2-5.1,1.5
			c-3.6,0.5-7.3,0.1-10.7-0.8c-3.1-0.8-6-2.1-8.9-3.6c-2.4-1.2-5.1-4.2-8-2.5c-1.7,1-3,2.8-4.5,4c-1.7,1.5-3.5,2.9-5.5,4.1
			C557.3,330.5,555.9,331.2,554.4,331.7z"/>
	</g>
	<g>
		<path class="st1" d="M611,192.4c-6.1-54.7-35.1-96.3-64.8-93c-29.7,3.3-48.8,50.3-42.8,105c0.1,1.3,0.8,7.6,1.1,9.8
			c3.4,30.3,8.3,51.2,14.5,65.4c12.6,29.2,50.3,37.8,50.3,37.8s35.8-16.5,42.3-44.6c3.6-15.4,4.1-37.7,0.5-70.5
			C611.8,200.1,611.1,193.8,611,192.4z"/>
	</g>
	<g>
		<path class="st4" d="M616.1,274.6c14.5,0.2,31.7-3.7,43.3-12c19.8-14.2,16.6-42,13-63c-4.4-25.4-13.7-50-27.5-71.9
			c-10.2-16.2-23.1-31.1-39.5-40.9c-9.1-5.5-19.3-9.3-29.8-10.7c-11-1.5-20.4,1.5-31,2.5c-16.2,1.6-31.5,8.7-45.3,17.3
			c-8.8,5.5-17.7,12.3-20.7,22.3c-7.9,26.4,27.8,47.5,49.8,48.5c12.1,0.5,24.2-3.1,34.1-10c7.9-5.4,19.6-16.1,18.8-26.5
			c1.2,14.7,10.7,28.4,11.4,42.7c0.9,18.6,0.6,36.9,3.4,55.5C597.7,240.7,598.3,274.4,616.1,274.6z"/>
	</g>
	<g>
		<g>
			<path class="st2" d="M613.5,191.8c-2.8-23.7-9.5-47.7-23.1-67.6c-8.8-13-22-25.6-38.6-26.1c-37.1-1.1-49.7,46.6-51.6,75.4
				c-1.6,24.1,1.9,49.3,6.5,72.9c3.6,18.5,8.3,38.1,22.4,51.6c9.6,9.1,23.3,17.1,36.4,19.9c6.5,1.4,13-4.1,18.1-7.5
				c16.5-11.1,29-25.6,31.9-45.7C619.1,240.5,616.1,215.8,613.5,191.8c-0.1-1.2-5.2-0.2-5,1.3c3.8,33.9,12.2,78.7-14.7,105.5
				c-5.2,5.2-11.1,9.6-17.3,13.5c-2,1.2-4.1,2.2-6.1,3.5c-4.7,3,0.5-1.1,0.9,0.7c-0.1-0.5-6.9-2.1-7.7-2.4
				c-7.2-2.6-14.1-5.9-20.4-10.2c-30.8-20.8-33.3-63.8-37-97.4c-2.3-20.7-2-41.8,3.5-62c4.4-15.8,13-35.8,29.5-42.3
				c18.1-7.1,35.5,8.4,45.2,22.1c14.3,20,21.2,44.8,24,69C608.6,194.3,613.6,193.3,613.5,191.8z"/>
		</g>
	</g>
	<g>
		<path class="st3" d="M516.8,318.8c4.2,4,8.1,8.4,13.4,10.8c6.3,2.8,12,4.6,19,4.4c6.6-0.2,10.8-6.2,14.6-11.2
			c2-2.8,9.5-0.3,11.5,1c3.9,2.5,6.6,5.8,11.4,5.5c4.3-0.2,12.9,1,16.4-1.6c7.5-5.6,12.6-14,17.4-21.8c3.3-5.4,11-1,12.2,3.6
			c1.6,6.5-5.9,14-9.9,18.4c-4.9,5.3-10.8,9.7-17.8,11.7c-11.4,3.3-21.3-1.3-30.6-7c-6,6.7-14,12.6-23,12.6c-9.7,0-19-3.9-27.1-9
			c-4.9-3.1-10.2-6.4-13.3-11.4c-1-1.6-3.4-5.5-1.8-7.4C510.7,315.5,515.5,317.5,516.8,318.8z"/>
	</g>
	<g>
		<g>
			<path class="st2" d="M620.2,301c-4.8,8.3-10.1,18.4-18.5,23.5c-7.7,4.7-14.5,4-21.7-0.8c-1.1-0.8-8.7-5.7-8.2-6.3
				c1.4-2.3-3.7-1.7-4.7-0.3c-2.5,3.4-4.8,7.1-7.9,10c-6.4,6.1-13.9,5.8-21.4,2.2c-9-4.3-16.5-11.1-23.4-18.1
				c-1.4-1.4-6.1,0.5-4.6,2c9.6,9.7,22.8,22.1,37.4,22.4c11.5,0.2,18.6-10,24.6-18.3c-1.6-0.1-3.1-0.2-4.7-0.3
				c-0.2,0.4-0.5,0.8-0.7,1.2c-0.3,0.6-0.1,1.1,0.4,1.5c10,6.9,19.4,15.1,32.1,9.9c12.4-5.1,19.7-17.2,26.1-28.4
				C626.1,299.1,621.1,299.4,620.2,301L620.2,301z"/>
		</g>
	</g>
	<g>
		<g>
			<path class="st2" d="M488.9,331.9c-10.5,6.9-20.6,14.6-29.4,23.7c-8.8,9.1-18.2,18.8-25.8,29c-11.8,15.9-16.2,41.9,4.4,53
				c15.1,8,36.1,6.1,50.5-2.5c8.7-5.2,15.3-13.5,17.3-23.6c0.9-4.7,1-9.7-0.3-14.3c-0.6-2-2.6-4.6-2.8-6.5c-0.4-4.5,3.5-5.5,7-7.3
				c2.9-1.5-1.6-1.7-3-1c-8.9,4.7-10.6,4.2-6.9,13.9c3.1,8.1,1.9,17.5-2.1,25c-11.1,21.1-49.3,27-64.1,6.7
				c-13.1-17.9,0-39.2,12.6-53c14.5-15.8,28.3-30.8,46.4-42.6C495,330.9,490,331.2,488.9,331.9L488.9,331.9z"/>
		</g>
	</g>
	<g>
		<path class="st2" d="M569.2,247.1c1.3,1.7-2.3,9.2-2.9,10.5c-2.2,4.9-5.5,9.2-10.1,12c-3.7,2.2-8.3,0.6-11.8-1.3
			c-2.5-1.3-15.7-9.6-11-13.2c0.7-0.5,1.5-0.7,2.4-0.8c7.7-1.3,15.6-2.2,23.1-4.3c1.7-0.5,3.4-1,5-1.6c1.2-0.4,3.2-1.8,4.5-1.6
			C568.8,246.8,569,246.9,569.2,247.1z"/>
	</g>
	<g>
		<path class="st1" d="M626.8,374.1c-2.6-3.7-4.2-8.8-4.2-14.5c0-11.1,6.1-20.1,13.7-20.1c7.6,0,13.7,9,13.7,20.1
			c0,5.5-1.5,10.6-4,14.2L626.8,374.1z"/>
	</g>
	<g>
		<g>
			<path class="st2" d="M617.1,282.3c30.8,31.9,49.4,74.9,64.9,115.8c19.1,50.5,31.7,102.6,45.5,154.6c6.9,26.1,14.3,52,19.3,78.6
				c0.8-0.5,1.5-1,2.3-1.5c-21.2,6.1-42.6,11.8-64,17.2c-31.5,7.9-63.1,15.7-95.6,17.2c-21.7,1-43.6,3.9-65.2,0.5
				c-25.2-4-42.7-18.3-50.9-42.7c-9-26.9-9.1-56.3-7.3-84.3c2.1-31.4,4.8-62.9,8.6-94.1c6.1-50.5,13-105.4,37.6-150.7
				c0.4-0.8-4.2-0.5-4.9,0.8c-22.7,41.7-29.6,91.1-35.9,137.6c-4.1,30.3-6.6,60.7-9.1,91.1c-2.5,30.5-4,61.3,3.3,91.3
				c5.5,22.8,17.6,41.9,40.5,49.6c19.8,6.7,41.6,5.4,62.2,4.1c15.8-1,31.6-1.2,47.2-3.6c17-2.7,33.9-6.5,50.6-10.4
				c28-6.6,55.8-13.9,83.4-21.9c0.5-0.2,2.4-0.7,2.3-1.5c-4.4-23.7-10.8-47-17.1-70.2c-7.1-26.4-13.3-53-20.7-79.3
				c-13.9-49.5-30.1-99.3-54.2-144.9c-10.4-19.8-22.5-38.9-38.1-55C620.9,279.6,616.3,281.4,617.1,282.3L617.1,282.3z"/>
		</g>
	</g>
	<g>
		<g>
			<path class="st2" d="M629.1,373.1c-3.4-5.4-4.6-11.7-3.7-18c0.9-6.3,5.4-17.1,14-12.8c10.7,5.4,9.4,23.2,4.3,31.5
				c-1.3,2.1,3.7,1.9,4.7,0.3c6.7-10.9,5.6-37.5-12.5-36c-17.3,1.4-18.5,25.8-11.4,37.1C625.5,376.8,630.3,375,629.1,373.1
				L629.1,373.1z"/>
		</g>
	</g>
	<g>
		<g>
			<path class="st2" d="M635.1,357.7c1,16.6,4.5,34.8-1.8,50.8c-8.6,22-34.5,36.3-57.5,35.1c-16.7-0.9-35.6-8-47.1-20.5
				c-6.8-7.4-10.1-16.2-5.6-25.6c3.2-6.6,3.7-13.2-2.6-18.2c-1.1-0.9-5.6,1-4.7,1.8c11.1,8.7-1.7,19,0.4,29.8
				c1.9,9.6,9.7,17,17.6,22.1c15.1,9.9,34.4,14.9,52.3,12.2c18.5-2.9,37.4-13.2,47.8-29.2c11.6-17.8,7.2-39.6,6.1-59.5
				C640,355.4,635,356.2,635.1,357.7L635.1,357.7z"/>
		</g>
	</g>
</g>
<g>
	<g>
		<g>
			<g>
				<path class="st2" d="M333.8,757.4c-1.9-17.8-1-36.8-0.6-54.7c0.4-16.7,0.7-33.3,1.1-50c0.1-2.6-5-1.9-5,0.4
					c-0.4,17.7-0.8,35.4-1.1,53.1c-0.4,17.2-1.1,35.5,0.7,52.5C329.1,761,334.1,759.8,333.8,757.4L333.8,757.4z"/>
			</g>
		</g>
		<g>
			<g>
				<path class="st2" d="M298.6,763.7c20.4-5.6,55.3-4.3,65.5,18.5c0.7,1.6,5.6,0.1,5-1.3c-11.1-24.8-49-25.5-71.1-19.5
					C295,762.2,295.6,764.5,298.6,763.7L298.6,763.7z"/>
			</g>
		</g>
		<g>
			<g>
				<path class="st2" d="M368.1,760.5c-22.1-5.4-61.3-3.4-70.9,22.3c-0.6,1.5,4.4,0.9,5-0.7c8.5-23,43.1-23.9,62.8-19.1
					C366.5,763.5,370.8,761.2,368.1,760.5L368.1,760.5z"/>
			</g>
		</g>
	</g>
	<g>
		
			<ellipse transform="matrix(2.959887e-02 -0.9996 0.9996 2.959887e-02 -291.614 926.1915)" class="st1" cx="331.2" cy="613.3" rx="26.3" ry="94"/>
	</g>
	<g>
		<g>
			<path class="st0" d="M400.2,634.3c-5.9,4-13.9,4.8-20.8,5.5c-15.1,1.7-30.4,1.5-45.6,1c-21-0.7-47.7,0.7-66.6-10
				c-4.5-2.6-18.2,3.9-11.8,7.5c8.6,4.9,18.5,6.9,28.1,8.3c17,2.4,34.2,3,51.3,3.4c15.8,0.3,31.9,0.4,47.6-1.9
				c9.4-1.4,19.3-3.4,27.3-8.8C418,633.6,405.2,630.9,400.2,634.3L400.2,634.3z"/>
		</g>
	</g>
	<g>
		<g>
			<path class="st2" d="M403.6,630.9c-23.1,7-48.5,7.7-72.5,7c-24-0.7-49.1-2.7-71.9-10.7c-2-0.7-5.8,2.2-2.9,3.2
				c24.2,8.5,50.9,10.5,76.3,11c23.8,0.5,48.9-0.3,71.9-7.3C407.5,633.2,406.7,630,403.6,630.9L403.6,630.9z"/>
		</g>
	</g>
	<g>
		<g>
			<path class="st2" d="M405,638.8c-19.8,11.1-45.4,12.4-67.6,12.3c-24.8-0.1-51.7-2.6-74.3-13.3c-1.9-0.9-6.3,1.7-3.9,2.8
				c23.6,11.1,51.3,13.9,77.1,14.1c23.1,0.1,50.1-1.4,70.9-13C410.1,639.9,407.5,637.5,405,638.8L405,638.8z"/>
		</g>
	</g>
</g>
<g>
	<g>
		<g>
			<path class="st1" d="M208.3,582.5c16.8-101.9,62.1-299.7,154.6-251.7c59,30.6,90,158.4,106.2,283.6c0,0-107.4-0.8-142.8-5.4
				C296.4,605,208.3,582.5,208.3,582.5z"/>
		</g>
		<g>
			<g>
				<g>
					<defs>
						<path id="SVGID_1_" d="M209.2,582.5c16.8-101.9,62.1-299.7,154.6-251.7c59,30.6,90,158.4,106.2,283.6c0,0-107.4-0.8-142.8-5.4
							C297.3,605,209.2,582.5,209.2,582.5z"/>
					</defs>
					<clipPath id="SVGID_2_">
						<use xlink:href="#SVGID_1_"  style="overflow:visible;"/>
					</clipPath>
					<g class="st5">
						<g>
							<g>
								<g>
									<path class="st6" d="M216.1,370.4c0,5.7,0,11.5,0,17.2c0,2.7,5.1,2.1,5.1-0.3c0-5.7,0-11.5,0-17.2
										C221.2,367.4,216.1,368,216.1,370.4L216.1,370.4z"/>
								</g>
							</g>
							<g>
								<g>
									<path class="st6" d="M233.4,370.6c0,5.7,0,11.5,0,17.2c0,2.2,5,1.2,5-0.6c0-5.7,0-11.5,0-17.2
										C238.4,367.8,233.4,368.8,233.4,370.6L233.4,370.6z"/>
								</g>
							</g>
							<g>
								<g>
									<path class="st6" d="M250.5,370.9c0,5.7,0,11.5,0,17.2c0,1.5,5,0.6,5-1.3c0-5.7,0-11.5,0-17.2
										C255.5,368.1,250.5,369,250.5,370.9L250.5,370.9z"/>
								</g>
							</g>
							<g>
								<g>
									<path class="st6" d="M267.7,370.9c0,5.7,0,11.5,0,17.2c0,1.3,5,0.4,5-1.3c0-5.7,0-11.5,0-17.2
										C272.7,368.3,267.7,369.2,267.7,370.9L267.7,370.9z"/>
								</g>
							</g>
							<g>
								<g>
									<path class="st6" d="M284.9,370.9c0,5.7,0,11.5,0,17.2c0,1.5,5,0.6,5-1.3c0-5.7,0-11.5,0-17.2
										C289.9,368.1,284.9,369,284.9,370.9L284.9,370.9z"/>
								</g>
							</g>
							<g>
								<g>
									<path class="st6" d="M302.1,370.5c0,5.7,0,11.5,0,17.2c0,2.5,5,1.6,5-0.5c0-5.7,0-11.5,0-17.2
										C307.1,367.6,302.1,368.4,302.1,370.5L302.1,370.5z"/>
								</g>
							</g>
							<g>
								<g>
									<path class="st6" d="M319.3,370.9c0,5.7,0,11.5,0,17.2c0,1.3,5,0.4,5-1.3c0-5.7,0-11.5,0-17.2
										C324.2,368.4,319.3,369.2,319.3,370.9L319.3,370.9z"/>
								</g>
							</g>
							<g>
								<g>
									<path class="st6" d="M336.4,370.5c0,5.7,0,11.5,0,17.2c0,2.5,5,1.7,5-0.4c0-5.7,0-11.5,0-17.2
										C341.4,367.5,336.4,368.4,336.4,370.5L336.4,370.5z"/>
								</g>
							</g>
							<g>
								<g>
									<path class="st6" d="M353.6,370.5c0,5.7,0,11.5,0,17.2c0,2.4,5,1.5,5-0.5c0-5.7,0-11.5,0-17.2
										C358.6,367.6,353.6,368.5,353.6,370.5L353.6,370.5z"/>
								</g>
							</g>
							<g>
								<g>
									<path class="st6" d="M370.8,370.5c0,5.7,0,11.5,0,17.2c0,2.2,5,1.2,5-0.6c0-5.7,0-11.5,0-17.2
										C375.8,367.8,370.8,368.8,370.8,370.5L370.8,370.5z"/>
								</g>
							</g>
							<g>
								<g>
									<path class="st6" d="M387.9,370.4c0,5.7,0,11.5,0,17.2c0,2.7,5.1,2.1,5.1-0.3c0-5.7,0-11.5,0-17.2
										C393,367.4,387.9,368,387.9,370.4L387.9,370.4z"/>
								</g>
							</g>
							<g>
								<g>
									<path class="st6" d="M405.1,370.5c0,5.7,0,11.5,0,17.2c0,2.3,5,1.3,5-0.5c0-5.7,0-11.5,0-17.2
										C410.1,367.8,405.1,368.7,405.1,370.5L405.1,370.5z"/>
								</g>
							</g>
							<g>
								<g>
									<path class="st6" d="M422.3,370.5c0,5.7,0,11.5,0,17.2c0,2.3,5,1.4,5-0.5c0-5.7,0-11.5,0-17.2
										C427.3,367.7,422.3,368.6,422.3,370.5L422.3,370.5z"/>
								</g>
							</g>
							<g>
								<g>
									<path class="st6" d="M439.5,370.9c0,5.7,0,11.5,0,17.2c0,0.7,5,0.1,5-1.3c0-5.7,0-11.5,0-17.2
										C444.5,368.9,439.5,369.5,439.5,370.9L439.5,370.9z"/>
								</g>
							</g>
							<g>
								<g>
									<path class="st6" d="M456.7,370.9c0,5.7,0,11.5,0,17.2c0,1,5,0.2,5-1.3c0-5.7,0-11.5,0-17.2
										C461.7,368.6,456.7,369.4,456.7,370.9L456.7,370.9z"/>
								</g>
							</g>
							<g>
								<g>
									<path class="st6" d="M473.9,370.9c0,5.7,0,11.5,0,17.2c0,1,5,0.2,5-1.3c0-5.7,0-11.5,0-17.2
										C478.9,368.6,473.9,369.4,473.9,370.9L473.9,370.9z"/>
								</g>
							</g>
						</g>
						<g>
							<g>
								<g>
									<path class="st6" d="M207.6,404.9c0,5.7,0,11.5,0,17.2c0,2.3,5,1.4,5-0.5c0-5.7,0-11.5,0-17.2
										C212.6,402,207.6,403,207.6,404.9L207.6,404.9z"/>
								</g>
							</g>
							<g>
								<g>
									<path class="st6" d="M224.8,405.3c0,5.7,0,11.5,0,17.2c0,1.5,5,0.6,5-1.3c0-5.7,0-11.5,0-17.2
										C229.8,402.5,224.8,403.4,224.8,405.3L224.8,405.3z"/>
								</g>
							</g>
							<g>
								<g>
									<path class="st6" d="M241.9,405.3c0,5.7,0,11.5,0,17.2c0,1.2,5,0.4,5-1.3c0-5.7,0-11.5,0-17.2
										C246.9,402.8,241.9,403.6,241.9,405.3L241.9,405.3z"/>
								</g>
							</g>
							<g>
								<g>
									<path class="st6" d="M259.1,404.8c0,5.7,0,11.5,0,17.2c0,2.5,5,1.8,5-0.4c0-5.7,0-11.5,0-17.2
										C264.1,401.9,259.1,402.7,259.1,404.8L259.1,404.8z"/>
								</g>
							</g>
							<g>
								<g>
									<path class="st6" d="M276.3,404.9c0,5.7,0,11.5,0,17.2c0,2.2,5,1.1,5-0.6c0-5.7,0-11.5,0-17.2
										C281.3,402.2,276.3,403.2,276.3,404.9L276.3,404.9z"/>
								</g>
							</g>
							<g>
								<g>
									<path class="st6" d="M293.5,404.8c0,5.7,0,11.5,0,17.2c0,2.6,5,1.9,5-0.4c0-5.7,0-11.5,0-17.2
										C298.5,401.8,293.5,402.5,293.5,404.8L293.5,404.8z"/>
								</g>
							</g>
							<g>
								<g>
									<path class="st6" d="M310.6,404.8c0,5.7,0,11.5,0,17.2c0,2.6,5,1.8,5-0.4c0-5.7,0-11.5,0-17.2
										C315.7,401.9,310.6,402.6,310.6,404.8L310.6,404.8z"/>
								</g>
							</g>
							<g>
								<g>
									<path class="st6" d="M327.9,405.3c0,5.7,0,11.5,0,17.2c0,0.9,5,0.1,5-1.3c0-5.7,0-11.5,0-17.2
										C332.8,403.1,327.9,403.8,327.9,405.3L327.9,405.3z"/>
								</g>
							</g>
							<g>
								<g>
									<path class="st6" d="M345,404.8c0,5.7,0,11.5,0,17.2c0,2.7,5.1,2,5.1-0.3c0-5.7,0-11.5,0-17.2
										C350,401.8,345,402.4,345,404.8L345,404.8z"/>
								</g>
							</g>
							<g>
								<g>
									<path class="st6" d="M362.2,404.9c0,5.7,0,11.5,0,17.2c0,2.4,5,1.5,5-0.5c0-5.7,0-11.5,0-17.2
										C367.2,402,362.2,402.9,362.2,404.9L362.2,404.9z"/>
								</g>
							</g>
							<g>
								<g>
									<path class="st6" d="M379.4,405.3c0,5.7,0,11.5,0,17.2c0,1.2,5,0.4,5-1.3c0-5.7,0-11.5,0-17.2
										C384.4,402.8,379.4,403.6,379.4,405.3L379.4,405.3z"/>
								</g>
							</g>
							<g>
								<g>
									<path class="st6" d="M396.6,405.3c0,5.7,0,11.5,0,17.2c0,1.5,5,0.6,5-1.3c0-5.7,0-11.5,0-17.2
										C401.5,402.5,396.6,403.4,396.6,405.3L396.6,405.3z"/>
								</g>
							</g>
							<g>
								<g>
									<path class="st6" d="M413.7,405.3c0,5.7,0,11.5,0,17.2c0,1.5,5,0.5,5-1.3c0-5.7,0-11.5,0-17.2
										C418.7,402.5,413.7,403.4,413.7,405.3L413.7,405.3z"/>
								</g>
							</g>
							<g>
								<g>
									<path class="st6" d="M430.9,404.9c0,5.7,0,11.5,0,17.2c0,2.3,5,1.4,5-0.5c0-5.7,0-11.5,0-17.2
										C435.9,402,430.9,403,430.9,404.9L430.9,404.9z"/>
								</g>
							</g>
							<g>
								<g>
									<path class="st6" d="M448.1,405.3c0,5.7,0,11.5,0,17.2c0,0.8,5,0.1,5-1.3c0-5.7,0-11.5,0-17.2
										C453.1,403.2,448.1,403.9,448.1,405.3L448.1,405.3z"/>
								</g>
							</g>
							<g>
								<g>
									<path class="st6" d="M465.3,405.3c0,5.7,0,11.5,0,17.2c0,0.9,5,0.2,5-1.3c0-5.7,0-11.5,0-17.2
										C470.3,403.1,465.3,403.8,465.3,405.3L465.3,405.3z"/>
								</g>
							</g>
						</g>
						<g>
							<g>
								<g>
									<path class="st6" d="M216.2,439.7c0,5.7,0,11.5,0,17.2c0,1.3,5,0.5,5-1.3c0-5.7,0-11.5,0-17.2
										C221.2,437,216.2,437.9,216.2,439.7L216.2,439.7z"/>
								</g>
							</g>
							<g>
								<g>
									<path class="st6" d="M233.3,439.2c0,5.7,0,11.5,0,17.2c0,2.6,5,1.9,5-0.4c0-5.7,0-11.5,0-17.2
										C238.4,436.2,233.3,437,233.3,439.2L233.3,439.2z"/>
								</g>
							</g>
							<g>
								<g>
									<path class="st6" d="M250.5,439.7c0,5.7,0,11.5,0,17.2c0,1.5,5,0.6,5-1.3c0-5.7,0-11.5,0-17.2
										C255.5,436.8,250.5,437.7,250.5,439.7L250.5,439.7z"/>
								</g>
							</g>
							<g>
								<g>
									<path class="st6" d="M267.7,439.3c0,5.7,0,11.5,0,17.2c0,2.2,5,1.2,5-0.6c0-5.7,0-11.5,0-17.2
										C272.7,436.5,267.7,437.5,267.7,439.3L267.7,439.3z"/>
								</g>
							</g>
							<g>
								<g>
									<path class="st6" d="M284.9,439.1c0,5.7,0,11.5,0,17.2c0,2.7,5.1,2.1,5.1-0.3c0-5.7,0-11.5,0-17.2
										C289.9,436.1,284.9,436.8,284.9,439.1L284.9,439.1z"/>
								</g>
							</g>
							<g>
								<g>
									<path class="st6" d="M302,439.2c0,5.7,0,11.5,0,17.2c0,2.6,5,1.8,5-0.4c0-5.7,0-11.5,0-17.2C307.1,436.2,302,437,302,439.2
										L302,439.2z"/>
								</g>
							</g>
							<g>
								<g>
									<path class="st6" d="M319.3,439.7c0,5.7,0,11.5,0,17.2c0,1,5,0.2,5-1.3c0-5.7,0-11.5,0-17.2
										C324.2,437.3,319.3,438.1,319.3,439.7L319.3,439.7z"/>
								</g>
							</g>
							<g>
								<g>
									<path class="st6" d="M336.4,439.7c0,5.7,0,11.5,0,17.2c0,1.4,5,0.5,5-1.3c0-5.7,0-11.5,0-17.2
										C341.4,437,336.4,437.8,336.4,439.7L336.4,439.7z"/>
								</g>
							</g>
							<g>
								<g>
									<path class="st6" d="M353.6,439.7c0,5.7,0,11.5,0,17.2c0,1.5,5,0.6,5-1.3c0-5.7,0-11.5,0-17.2
										C358.6,436.8,353.6,437.8,353.6,439.7L353.6,439.7z"/>
								</g>
							</g>
							<g>
								<g>
									<path class="st6" d="M370.8,439.7c0,5.7,0,11.5,0,17.2c0,0.9,5,0.1,5-1.3c0-5.7,0-11.5,0-17.2
										C375.8,437.5,370.8,438.2,370.8,439.7L370.8,439.7z"/>
								</g>
							</g>
							<g>
								<g>
									<path class="st6" d="M388,439.7c0,5.7,0,11.5,0,17.2c0,1.4,5,0.5,5-1.3c0-5.7,0-11.5,0-17.2C393,436.9,388,437.8,388,439.7
										L388,439.7z"/>
								</g>
							</g>
							<g>
								<g>
									<path class="st6" d="M405.1,439.1c0,5.7,0,11.5,0,17.2c0,2.7,5.1,2,5.1-0.3c0-5.7,0-11.5,0-17.2
										C410.2,436.1,405.1,436.8,405.1,439.1L405.1,439.1z"/>
								</g>
							</g>
							<g>
								<g>
									<path class="st6" d="M422.3,439.7c0,5.7,0,11.5,0,17.2c0,0.9,5,0.1,5-1.3c0-5.7,0-11.5,0-17.2
										C427.3,437.4,422.3,438.2,422.3,439.7L422.3,439.7z"/>
								</g>
							</g>
							<g>
								<g>
									<path class="st6" d="M439.5,439.2c0,5.7,0,11.5,0,17.2c0,2.6,5,1.8,5-0.4c0-5.7,0-11.5,0-17.2
										C444.5,436.2,439.5,437,439.5,439.2L439.5,439.2z"/>
								</g>
							</g>
							<g>
								<g>
									<path class="st6" d="M456.7,439.3c0,5.7,0,11.5,0,17.2c0,2.1,5,1,5-0.6c0-5.7,0-11.5,0-17.2
										C461.7,436.6,456.7,437.6,456.7,439.3L456.7,439.3z"/>
								</g>
							</g>
							<g>
								<g>
									<path class="st6" d="M473.9,439.2c0,5.7,0,11.5,0,17.2c0,2.5,5,1.6,5-0.4c0-5.7,0-11.5,0-17.2
										C478.9,436.3,473.9,437.1,473.9,439.2L473.9,439.2z"/>
								</g>
							</g>
						</g>
						<g>
							<g>
								<g>
									<path class="st6" d="M207.6,473.6c0,5.7,0,11.5,0,17.2c0,2.4,5,1.5,5-0.5c0-5.7,0-11.5,0-17.2
										C212.6,470.7,207.6,471.6,207.6,473.6L207.6,473.6z"/>
								</g>
							</g>
							<g>
								<g>
									<path class="st6" d="M224.8,474c0,5.7,0,11.5,0,17.2c0,1.3,5,0.5,5-1.3c0-5.7,0-11.5,0-17.2
										C229.8,471.4,224.8,472.2,224.8,474L224.8,474z"/>
								</g>
							</g>
							<g>
								<g>
									<path class="st6" d="M241.9,474c0,5.7,0,11.5,0,17.2c0,0.9,5,0.1,5-1.3c0-5.7,0-11.5,0-17.2
										C246.9,471.8,241.9,472.5,241.9,474L241.9,474z"/>
								</g>
							</g>
							<g>
								<g>
									<path class="st6" d="M259.1,474c0,5.7,0,11.5,0,17.2c0,1.5,5,0.5,5-1.3c0-5.7,0-11.5,0-17.2
										C264.1,471.2,259.1,472.1,259.1,474L259.1,474z"/>
								</g>
							</g>
							<g>
								<g>
									<path class="st6" d="M276.3,473.5c0,5.7,0,11.5,0,17.2c0,2.7,5.1,2.1,5.1-0.3c0-5.7,0-11.5,0-17.2
										C281.3,470.5,276.3,471.1,276.3,473.5L276.3,473.5z"/>
								</g>
							</g>
							<g>
								<g>
									<path class="st6" d="M293.5,473.6c0,5.7,0,11.5,0,17.2c0,2.4,5,1.4,5-0.5c0-5.7,0-11.5,0-17.2
										C298.5,470.8,293.5,471.7,293.5,473.6L293.5,473.6z"/>
								</g>
							</g>
							<g>
								<g>
									<path class="st6" d="M310.7,474c0,5.7,0,11.5,0,17.2c0,0.7,5,0.1,5-1.3c0-5.7,0-11.5,0-17.2
										C315.6,471.9,310.7,472.6,310.7,474L310.7,474z"/>
								</g>
							</g>
							<g>
								<g>
									<path class="st6" d="M327.9,474c0,5.7,0,11.5,0,17.2c0,0.6,5,0,5-1.3c0-5.7,0-11.5,0-17.2
										C332.8,472.1,327.9,472.7,327.9,474L327.9,474z"/>
								</g>
							</g>
							<g>
								<g>
									<path class="st6" d="M345,474c0,5.7,0,11.5,0,17.2c0,1.4,5,0.5,5-1.3c0-5.7,0-11.5,0-17.2C350,471.3,345,472.2,345,474
										L345,474z"/>
								</g>
							</g>
							<g>
								<g>
									<path class="st6" d="M362.2,474c0,5.7,0,11.5,0,17.2c0,1.5,5,0.5,5-1.3c0-5.7,0-11.5,0-17.2
										C367.2,471.2,362.2,472.1,362.2,474L362.2,474z"/>
								</g>
							</g>
							<g>
								<g>
									<path class="st6" d="M379.4,474c0,5.7,0,11.5,0,17.2c0,1.3,5,0.4,5-1.3c0-5.7,0-11.5,0-17.2
										C384.4,471.4,379.4,472.3,379.4,474L379.4,474z"/>
								</g>
							</g>
							<g>
								<g>
									<path class="st6" d="M396.5,473.6c0,5.7,0,11.5,0,17.2c0,2.4,5,1.5,5-0.5c0-5.7,0-11.5,0-17.2
										C401.6,470.7,396.5,471.6,396.5,473.6L396.5,473.6z"/>
								</g>
							</g>
							<g>
								<g>
									<path class="st6" d="M413.7,474c0,5.7,0,11.5,0,17.2c0,1.4,5,0.5,5-1.3c0-5.7,0-11.5,0-17.2
										C418.7,471.3,413.7,472.2,413.7,474L413.7,474z"/>
								</g>
							</g>
							<g>
								<g>
									<path class="st6" d="M430.9,473.6c0,5.7,0,11.5,0,17.2c0,2.2,5,1.2,5-0.6c0-5.7,0-11.5,0-17.2
										C435.9,470.9,430.9,471.9,430.9,473.6L430.9,473.6z"/>
								</g>
							</g>
							<g>
								<g>
									<path class="st6" d="M448.1,473.5c0,5.7,0,11.5,0,17.2c0,2.6,5,1.8,5-0.4c0-5.7,0-11.5,0-17.2
										C453.1,470.6,448.1,471.4,448.1,473.5L448.1,473.5z"/>
								</g>
							</g>
							<g>
								<g>
									<path class="st6" d="M465.3,473.6c0,5.7,0,11.5,0,17.2c0,2.1,5,1.1,5-0.6c0-5.7,0-11.5,0-17.2
										C470.3,470.9,465.3,472,465.3,473.6L465.3,473.6z"/>
								</g>
							</g>
						</g>
						<g>
							<g>
								<g>
									<path class="st6" d="M216.2,507.9c0,5.7,0,11.4,0,17.2c0,2.5,5,1.8,5-0.4c0-5.7,0-11.5,0-17.2
										C221.2,505,216.2,505.8,216.2,507.9L216.2,507.9z"/>
								</g>
							</g>
							<g>
								<g>
									<path class="st6" d="M233.4,508.4c0,5.7,0,11.5,0,17.2c0,0.9,5,0.1,5-1.3c0-5.7,0-11.5,0-17.2
										C238.3,506.2,233.4,506.9,233.4,508.4L233.4,508.4z"/>
								</g>
							</g>
							<g>
								<g>
									<path class="st6" d="M250.5,508.4c0,5.7,0,11.5,0,17.2c0,1.4,5,0.5,5-1.3c0-5.7,0-11.5,0-17.2
										C255.5,505.6,250.5,506.5,250.5,508.4L250.5,508.4z"/>
								</g>
							</g>
							<g>
								<g>
									<path class="st6" d="M267.7,508.4c0,5.7,0,11.5,0,17.2c0,1,5,0.2,5-1.3c0-5.7,0-11.5,0-17.2
										C272.7,506,267.7,506.8,267.7,508.4L267.7,508.4z"/>
								</g>
							</g>
							<g>
								<g>
									<path class="st6" d="M284.9,508c0,5.7,0,11.4,0,17.2c0,2.3,5,1.4,5-0.5c0-5.7,0-11.5,0-17.2
										C289.9,505.1,284.9,506.1,284.9,508L284.9,508z"/>
								</g>
							</g>
							<g>
								<g>
									<path class="st6" d="M302.1,508.4c0,5.7,0,11.5,0,17.2c0,1.3,5,0.5,5-1.3c0-5.7,0-11.5,0-17.2
										C307.1,505.7,302.1,506.6,302.1,508.4L302.1,508.4z"/>
								</g>
							</g>
							<g>
								<g>
									<path class="st6" d="M319.3,508.4c0,5.7,0,11.5,0,17.2c0,1,5,0.3,5-1.3c0-5.7,0-11.5,0-17.2
										C324.2,506,319.3,506.8,319.3,508.4L319.3,508.4z"/>
								</g>
							</g>
							<g>
								<g>
									<path class="st6" d="M336.4,508.4c0,5.7,0,11.5,0,17.2c0,1.1,5,0.3,5-1.3c0-5.7,0-11.5,0-17.2
										C341.4,505.9,336.4,506.7,336.4,508.4L336.4,508.4z"/>
								</g>
							</g>
							<g>
								<g>
									<path class="st6" d="M353.6,508c0,5.7,0,11.5,0,17.2c0,2.2,5,1.1,5-0.6c0-5.7,0-11.5,0-17.2
										C358.6,505.3,353.6,506.3,353.6,508L353.6,508z"/>
								</g>
							</g>
							<g>
								<g>
									<path class="st6" d="M370.8,508.4c0,5.7,0,11.5,0,17.2c0,0.6,5,0,5-1.3c0-5.7,0-11.5,0-17.2
										C375.8,506.4,370.8,507.1,370.8,508.4L370.8,508.4z"/>
								</g>
							</g>
							<g>
								<g>
									<path class="st6" d="M388,508c0,5.7,0,11.5,0,17.2c0,2.2,5,1.2,5-0.6c0-5.7,0-11.5,0-17.2C393,505.2,388,506.3,388,508
										L388,508z"/>
								</g>
							</g>
							<g>
								<g>
									<path class="st6" d="M405.1,507.9c0,5.7,0,11.4,0,17.2c0,2.6,5,1.8,5-0.4c0-5.7,0-11.5,0-17.2
										C410.2,505,405.1,505.7,405.1,507.9L405.1,507.9z"/>
								</g>
							</g>
							<g>
								<g>
									<path class="st6" d="M422.3,507.9c0,5.7,0,11.4,0,17.2c0,2.5,5,1.6,5-0.4c0-5.7,0-11.5,0-17.2
										C427.3,505,422.3,505.8,422.3,507.9L422.3,507.9z"/>
								</g>
							</g>
							<g>
								<g>
									<path class="st6" d="M439.5,507.9c0,5.7,0,11.5,0,17.2c0,2.7,5,2,5-0.3c0-5.7,0-11.5,0-17.2
										C444.5,504.9,439.5,505.5,439.5,507.9L439.5,507.9z"/>
								</g>
							</g>
							<g>
								<g>
									<path class="st6" d="M456.7,507.9c0,5.7,0,11.5,0,17.2c0,2.7,5,2,5-0.3c0-5.7,0-11.5,0-17.2
										C461.7,504.9,456.7,505.6,456.7,507.9L456.7,507.9z"/>
								</g>
							</g>
							<g>
								<g>
									<path class="st6" d="M473.9,508.4c0,5.7,0,11.5,0,17.2c0,1.3,5,0.5,5-1.3c0-5.7,0-11.5,0-17.2
										C478.9,505.7,473.9,506.6,473.9,508.4L473.9,508.4z"/>
								</g>
							</g>
						</g>
						<g>
							<g>
								<g>
									<path class="st6" d="M207.6,542.7c0,5.7,0,11.5,0,17.2c0,1.5,5,0.6,5-1.3c0-5.7,0-11.5,0-17.2
										C212.6,539.9,207.6,540.8,207.6,542.7L207.6,542.7z"/>
								</g>
							</g>
							<g>
								<g>
									<path class="st6" d="M224.8,542.7c0,5.7,0,11.5,0,17.2c0,1,5,0.3,5-1.3c0-5.7,0-11.5,0-17.2
										C229.8,540.3,224.8,541.1,224.8,542.7L224.8,542.7z"/>
								</g>
							</g>
							<g>
								<g>
									<path class="st6" d="M241.9,542.7c0,5.7,0,11.5,0,17.2c0,1.4,5,0.5,5-1.3c0-5.7,0-11.5,0-17.2
										C246.9,540,241.9,540.9,241.9,542.7L241.9,542.7z"/>
								</g>
							</g>
							<g>
								<g>
									<path class="st6" d="M259.1,542.3c0,5.7,0,11.5,0,17.2c0,2.3,5,1.4,5-0.5c0-5.7,0-11.5,0-17.2
										C264.1,539.5,259.1,540.4,259.1,542.3L259.1,542.3z"/>
								</g>
							</g>
							<g>
								<g>
									<path class="st6" d="M276.3,542.3c0,5.7,0,11.5,0,17.2c0,2.6,5,1.8,5-0.4c0-5.7,0-11.5,0-17.2
										C281.3,539.3,276.3,540.1,276.3,542.3L276.3,542.3z"/>
								</g>
							</g>
							<g>
								<g>
									<path class="st6" d="M293.5,542.7c0,5.7,0,11.5,0,17.2c0,1,5,0.3,5-1.3c0-5.7,0-11.5,0-17.2
										C298.5,540.4,293.5,541.1,293.5,542.7L293.5,542.7z"/>
								</g>
							</g>
							<g>
								<g>
									<path class="st6" d="M310.7,542.7c0,5.7,0,11.5,0,17.2c0,1.2,5,0.4,5-1.3c0-5.7,0-11.5,0-17.2
										C315.6,540.2,310.7,541,310.7,542.7L310.7,542.7z"/>
								</g>
							</g>
							<g>
								<g>
									<path class="st6" d="M327.8,542.3c0,5.7,0,11.5,0,17.2c0,2.4,5,1.5,5-0.5c0-5.7,0-11.5,0-17.2
										C332.9,539.4,327.8,540.3,327.8,542.3L327.8,542.3z"/>
								</g>
							</g>
							<g>
								<g>
									<path class="st6" d="M345,542.7c0,5.7,0,11.5,0,17.2c0,0.7,5,0,5-1.3c0-5.7,0-11.5,0-17.2C350,540.8,345,541.4,345,542.7
										L345,542.7z"/>
								</g>
							</g>
							<g>
								<g>
									<path class="st6" d="M362.2,542.7c0,5.7,0,11.5,0,17.2c0,1,5,0.2,5-1.3c0-5.7,0-11.5,0-17.2
										C367.2,540.4,362.2,541.2,362.2,542.7L362.2,542.7z"/>
								</g>
							</g>
							<g>
								<g>
									<path class="st6" d="M379.4,542.2c0,5.7,0,11.5,0,17.2c0,2.7,5.1,2.1,5.1-0.3c0-5.7,0-11.5,0-17.2
										C384.4,539.2,379.4,539.8,379.4,542.2L379.4,542.2z"/>
								</g>
							</g>
							<g>
								<g>
									<path class="st6" d="M396.6,542.7c0,5.7,0,11.5,0,17.2c0,1.2,5,0.3,5-1.3c0-5.7,0-11.5,0-17.2
										C401.5,540.2,396.6,541,396.6,542.7L396.6,542.7z"/>
								</g>
							</g>
							<g>
								<g>
									<path class="st6" d="M413.7,542.7c0,5.7,0,11.5,0,17.2c0,1.3,5,0.4,5-1.3c0-5.7,0-11.5,0-17.2
										C418.7,540.1,413.7,541,413.7,542.7L413.7,542.7z"/>
								</g>
							</g>
							<g>
								<g>
									<path class="st6" d="M430.9,542.7c0,5.7,0,11.5,0,17.2c0,1.4,5,0.5,5-1.3c0-5.7,0-11.5,0-17.2
										C435.9,540,430.9,540.9,430.9,542.7L430.9,542.7z"/>
								</g>
							</g>
							<g>
								<g>
									<path class="st6" d="M448.1,542.2c0,5.7,0,11.5,0,17.2c0,2.7,5,2,5-0.3c0-5.7,0-11.5,0-17.2
										C453.1,539.2,448.1,539.9,448.1,542.2L448.1,542.2z"/>
								</g>
							</g>
							<g>
								<g>
									<path class="st6" d="M465.3,542.7c0,5.7,0,11.5,0,17.2c0,1.2,5,0.4,5-1.3c0-5.7,0-11.5,0-17.2
										C470.3,540.2,465.3,541,465.3,542.7L465.3,542.7z"/>
								</g>
							</g>
						</g>
						<g>
							<g>
								<g>
									<path class="st6" d="M216.2,576.7c0,5.7,0,11.5,0,17.2c0,2.4,5,1.5,5-0.5c0-5.7,0-11.5,0-17.2
										C221.2,573.8,216.2,574.7,216.2,576.7L216.2,576.7z"/>
								</g>
							</g>
							<g>
								<g>
									<path class="st6" d="M233.4,577.1c0,5.7,0,11.5,0,17.2c0,0.7,5,0,5-1.3c0-5.7,0-11.5,0-17.2
										C238.3,575.1,233.4,575.7,233.4,577.1L233.4,577.1z"/>
								</g>
							</g>
							<g>
								<g>
									<path class="st6" d="M250.5,577.1c0,5.7,0,11.5,0,17.2c0,0.6,5,0,5-1.3c0-5.7,0-11.5,0-17.2
										C255.5,575.1,250.5,575.8,250.5,577.1L250.5,577.1z"/>
								</g>
							</g>
							<g>
								<g>
									<path class="st6" d="M267.7,577.1c0,5.7,0,11.5,0,17.2c0,1.1,5,0.3,5-1.3c0-5.7,0-11.5,0-17.2
										C272.7,574.7,267.7,575.5,267.7,577.1L267.7,577.1z"/>
								</g>
							</g>
							<g>
								<g>
									<path class="st6" d="M284.9,576.6c0,5.7,0,11.5,0,17.2c0,2.7,5.1,2,5.1-0.3c0-5.7,0-11.5,0-17.2
										C289.9,573.6,284.9,574.2,284.9,576.6L284.9,576.6z"/>
								</g>
							</g>
							<g>
								<g>
									<path class="st6" d="M302.1,577.1c0,5.7,0,11.5,0,17.2c0,0.7,5,0,5-1.3c0-5.7,0-11.5,0-17.2
										C307.1,575.1,302.1,575.7,302.1,577.1L302.1,577.1z"/>
								</g>
							</g>
							<g>
								<g>
									<path class="st6" d="M319.2,576.7c0,5.7,0,11.5,0,17.2c0,2.4,5,1.5,5-0.5c0-5.7,0-11.5,0-17.2
										C324.3,573.8,319.2,574.7,319.2,576.7L319.2,576.7z"/>
								</g>
							</g>
							<g>
								<g>
									<path class="st6" d="M336.4,576.7c0,5.7,0,11.5,0,17.2c0,2.2,5,1.2,5-0.6c0-5.7,0-11.5,0-17.2
										C341.4,574,336.4,575,336.4,576.7L336.4,576.7z"/>
								</g>
							</g>
							<g>
								<g>
									<path class="st6" d="M353.6,577.1c0,5.7,0,11.5,0,17.2c0,1.2,5,0.4,5-1.3c0-5.7,0-11.5,0-17.2
										C358.6,574.5,353.6,575.4,353.6,577.1L353.6,577.1z"/>
								</g>
							</g>
							<g>
								<g>
									<path class="st6" d="M370.8,576.6c0,5.7,0,11.5,0,17.2c0,2.7,5.1,2.1,5.1-0.3c0-5.7,0-11.5,0-17.2
										C375.8,573.5,370.8,574.2,370.8,576.6L370.8,576.6z"/>
								</g>
							</g>
							<g>
								<g>
									<path class="st6" d="M388,576.7c0,5.7,0,11.5,0,17.2c0,2.4,5,1.5,5-0.5c0-5.7,0-11.5,0-17.2C393,573.8,388,574.7,388,576.7
										L388,576.7z"/>
								</g>
							</g>
							<g>
								<g>
									<path class="st6" d="M405.1,577.1c0,5.7,0,11.5,0,17.2c0,1,5,0.3,5-1.3c0-5.7,0-11.5,0-17.2
										C410.1,574.7,405.1,575.5,405.1,577.1L405.1,577.1z"/>
								</g>
							</g>
							<g>
								<g>
									<path class="st6" d="M422.3,576.6c0,5.7,0,11.5,0,17.2c0,2.5,5,1.6,5-0.4c0-5.7,0-11.5,0-17.2
										C427.3,573.7,422.3,574.6,422.3,576.6L422.3,576.6z"/>
								</g>
							</g>
							<g>
								<g>
									<path class="st6" d="M439.5,577.1c0,5.7,0,11.5,0,17.2c0,1.4,5,0.5,5-1.3c0-5.7,0-11.5,0-17.2
										C444.5,574.3,439.5,575.2,439.5,577.1L439.5,577.1z"/>
								</g>
							</g>
							<g>
								<g>
									<path class="st6" d="M456.7,577.1c0,5.7,0,11.5,0,17.2c0,1.1,5,0.3,5-1.3c0-5.7,0-11.5,0-17.2
										C461.7,574.7,456.7,575.5,456.7,577.1L456.7,577.1z"/>
								</g>
							</g>
							<g>
								<g>
									<path class="st6" d="M473.9,576.7c0,5.7,0,11.5,0,17.2c0,2.1,5,1.1,5-0.6c0-5.7,0-11.5,0-17.2
										C478.9,574,473.9,575,473.9,576.7L473.9,576.7z"/>
								</g>
							</g>
						</g>
						<g>
							<g>
								<g>
									<path class="st6" d="M207.6,611c0,5.7,0,11.5,0,17.2c0,2.7,5.1,2,5.1-0.3c0-5.7,0-11.5,0-17.2
										C212.6,607.9,207.6,608.6,207.6,611L207.6,611z"/>
								</g>
							</g>
							<g>
								<g>
									<path class="st6" d="M224.8,611c0,5.7,0,11.5,0,17.2c0,2.3,5,1.3,5-0.5c0-5.7,0-11.5,0-17.2
										C229.8,608.3,224.8,609.2,224.8,611L224.8,611z"/>
								</g>
							</g>
							<g>
								<g>
									<path class="st6" d="M241.9,611c0,5.7,0,11.5,0,17.2c0,2.5,5,1.6,5-0.4c0-5.7,0-11.5,0-17.2
										C247,608.1,241.9,608.9,241.9,611L241.9,611z"/>
								</g>
							</g>
							<g>
								<g>
									<path class="st6" d="M259.1,611.5c0,5.7,0,11.5,0,17.2c0,1,5,0.2,5-1.3c0-5.7,0-11.5,0-17.2
										C264.1,609.1,259.1,609.9,259.1,611.5L259.1,611.5z"/>
								</g>
							</g>
							<g>
								<g>
									<path class="st6" d="M276.3,611c0,5.7,0,11.5,0,17.2c0,2.6,5,1.8,5-0.4c0-5.7,0-11.5,0-17.2
										C281.3,608,276.3,608.8,276.3,611L276.3,611z"/>
								</g>
							</g>
							<g>
								<g>
									<path class="st6" d="M293.5,611c0,5.7,0,11.5,0,17.2c0,2.4,5,1.6,5-0.5c0-5.7,0-11.5,0-17.2
										C298.5,608.1,293.5,609,293.5,611L293.5,611z"/>
								</g>
							</g>
							<g>
								<g>
									<path class="st6" d="M310.7,611.1c0,5.7,0,11.5,0,17.2c0,2.1,5,1.1,5-0.6c0-5.7,0-11.5,0-17.2
										C315.6,608.4,310.7,609.4,310.7,611.1L310.7,611.1z"/>
								</g>
							</g>
							<g>
								<g>
									<path class="st6" d="M327.8,611c0,5.7,0,11.5,0,17.2c0,2.7,5,2,5-0.3c0-5.7,0-11.5,0-17.2C332.9,608,327.8,608.7,327.8,611
										L327.8,611z"/>
								</g>
							</g>
							<g>
								<g>
									<path class="st6" d="M345,611.5c0,5.7,0,11.5,0,17.2c0,0.8,5,0.1,5-1.3c0-5.7,0-11.5,0-17.2C350,609.3,345,610,345,611.5
										L345,611.5z"/>
								</g>
							</g>
							<g>
								<g>
									<path class="st6" d="M362.2,611.5c0,5.7,0,11.5,0,17.2c0,0.8,5,0.1,5-1.3c0-5.7,0-11.5,0-17.2
										C367.2,609.3,362.2,610,362.2,611.5L362.2,611.5z"/>
								</g>
							</g>
							<g>
								<g>
									<path class="st6" d="M379.4,610.9c0,5.7,0,11.5,0,17.2c0,2.7,5.1,2.1,5.1-0.3c0-5.7,0-11.5,0-17.2
										C384.4,607.9,379.4,608.5,379.4,610.9L379.4,610.9z"/>
								</g>
							</g>
							<g>
								<g>
									<path class="st6" d="M396.6,611.5c0,5.7,0,11.5,0,17.2c0,1.3,5,0.5,5-1.3c0-5.7,0-11.5,0-17.2
										C401.5,608.8,396.6,609.7,396.6,611.5L396.6,611.5z"/>
								</g>
							</g>
							<g>
								<g>
									<path class="st6" d="M413.7,611.5c0,5.7,0,11.5,0,17.2c0,0.9,5,0.2,5-1.3c0-5.7,0-11.5,0-17.2
										C418.7,609.2,413.7,609.9,413.7,611.5L413.7,611.5z"/>
								</g>
							</g>
							<g>
								<g>
									<path class="st6" d="M430.9,611.5c0,5.7,0,11.5,0,17.2c0,1.4,5,0.5,5-1.3c0-5.7,0-11.5,0-17.2
										C435.9,608.7,430.9,609.6,430.9,611.5L430.9,611.5z"/>
								</g>
							</g>
							<g>
								<g>
									<path class="st6" d="M448.1,611.5c0,5.7,0,11.5,0,17.2c0,1.2,5,0.3,5-1.3c0-5.7,0-11.5,0-17.2
										C453.1,609,448.1,609.8,448.1,611.5L448.1,611.5z"/>
								</g>
							</g>
							<g>
								<g>
									<path class="st6" d="M465.2,610.9c0,5.7,0,11.5,0,17.2c0,2.7,5.1,2.1,5.1-0.3c0-5.7,0-11.5,0-17.2
										C470.3,607.9,465.2,608.5,465.2,610.9L465.2,610.9z"/>
								</g>
							</g>
						</g>
					</g>
				</g>
			</g>
		</g>
		<g>
			<path class="st1" d="M324.8,405.4c-7.8-5.4-15.5-10.7-23.3-16c-7.4-5.1-17-9.8-23.3-16.1c-5.9-5.9,0.3-11,4.9-17
				c4-5.4,8.4-10.5,13.3-15.1c19.2-18.1,43.7-22.8,67.5-10.4c13.9,7.2,25.2,19.1,34.1,31.9c5.9,8.5-1.3,14-7.6,20.7
				c-5.7,6-12.1,11.4-19.1,15.9c-6,3.9-13,7.3-20.2,6.3s-7-9.6-11.3-15.2C334.7,395.4,329.7,400.4,324.8,405.4z"/>
		</g>
	</g>
	<g>
		<g>
			<g>
				<path class="st2" d="M472.3,611.4c-6.6-50-15.1-99.8-28.8-148.3c-5.2-18.3-10.8-36.3-18.1-53.9c-8.4-20.4-18.5-42.7-34.4-58.4
					c-1.1-1.1-5.8,0.7-4.6,1.9c16.8,16.6,27.2,40.4,35.7,62c6.7,16.8,12,34,16.9,51.4c13.5,48,21.8,97.4,28.4,146.7
					C467.5,614.1,472.5,613.1,472.3,611.4L472.3,611.4z"/>
			</g>
		</g>
		<g>
			<g>
				<path class="st2" d="M289,344.3c-11.4,16.8-22.3,33.5-31.2,51.8c-0.4,0.8,4.3,0.5,4.9-0.8c9-18.2,19.8-35,31.2-51.8
					C294.3,342.9,289.8,343,289,344.3L289,344.3z"/>
			</g>
		</g>
		<g>
			<g>
				<path class="st2" d="M214.3,566.8c9.7-54.2,22.1-108.6,43.2-159.6c0.7-1.7-4.3-1.1-5,0.6c-21.2,51-33.5,105.4-43.2,159.6
					C209,569.3,214,568.5,214.3,566.8L214.3,566.8z"/>
			</g>
		</g>
		<g>
			<path class="st0" d="M391,380c-7,9-15.1,16.7-25,22.2c-2.9,1.6-8.7,5-12.6,6.4c-3.7-6-7.3-12-11-18c-0.7-1.1-3.3-2.4-4.5-1.4
				c-1,0.9-9.1,12.4-11.8,15.1c-1.6,1.6-2.4,3.3-4.8,2.3c-1.6-0.6-2.8-2.2-4.1-3.3c-10.9-8.6-21.8-17.3-32.8-25.9
				c-3.5-2.8-11.9,2.3-7.4,5.9c13.8,10.9,27.5,21.8,41.3,32.6c2.2,1.8,6.1,0.7,7.8-1.4c3.6-4.6,7.3-9.3,11-13.9
				c1.9,3.1,3.8,6.2,5.7,9.3c2.9,4.7,4,7.7,10,6.2c18.2-4.7,35-18.3,46.5-33.1C403,378.2,393.9,376.4,391,380z"/>
		</g>
		<g>
			<g>
				<path class="st2" d="M391.9,377.1c-6.4,8.5-13.8,16.1-23,21.7c-3.1,1.9-6.3,3.5-9.6,5c-1.6,0.7-3.1,1.5-4.7,2.1
					c-1.6,0.7-4,0.5-2.5,1.5c2.1,1.4-0.8-3.2-0.9-3.4c-1.3-2.2-2.6-4.5-3.9-6.7c-2-3.4-4-6.8-6-10.1c-0.6-1.1-4.4,0.4-4.9,1.1
					c-5.2,6.8-10.3,13.5-15.5,20.3c1.6-0.4,3.2-0.9,4.8-1.3c-13.4-10.9-26.7-21.8-40.1-32.6c-1-0.8-5.3,1.2-4.7,1.6
					c13.4,10.9,26.7,21.8,40.1,32.6c0.9,0.8,4.2-0.5,4.8-1.3c5.2-6.8,10.3-13.5,15.5-20.3c-1.6,0.4-3.3,0.8-4.9,1.1
					c4,6.8,8,13.5,12,20.3c0.1,0.3,0.6,0.3,0.9,0.3c6.1-0.3,12.9-4.6,18.3-7.4c11.8-6.1,21.4-15,29.3-25.5
					C396.9,375.9,392.7,376,391.9,377.1L391.9,377.1z"/>
			</g>
		</g>
		<g>
			<g>
				<g>
					<path class="st0" d="M361.4,442.9c0.9,1.8,4.1,1.6,5.8,1.8c2.6,0.3,5.3,0.4,7.9,0.5c5.1,0.1,10.3-1.7,15.3-1.4
						c1.6,0.1,4.1-0.7,5.4-1.5c1.4-0.9,0.9-2.3-0.8-2.3c-1.4,0-2.7,0.2-4,0.4c-2.6,0.4-5.2,1-7.8,1c-5,0.1-10.1-0.5-15-1.3
						c-1.9-0.3-3.9,0.1-5.6,0.8c-0.9,0.3-1.5,0.4-1.3,1.4C361.2,442.5,361.3,442.7,361.4,442.9z"/>
				</g>
			</g>
			<g>
				<g>
					<path class="st2" d="M360.3,441.2c5.4,0.8,10.9,1.4,16.3,1.5c5.6,0.1,11.2-1.7,16.7-1.4c1.9,0.1,5.3-2.6,1.9-2.9
						c-5-0.3-10.1,1.3-15,1.4c-5.6,0.1-11.3-0.5-16.8-1.3C361.8,438.2,357.5,440.8,360.3,441.2L360.3,441.2z"/>
				</g>
			</g>
			<g>
				<circle class="st2" cx="378.1" cy="454" r="4.3"/>
			</g>
		</g>
	</g>
</g>
<g>
	<path class="st1" d="M391.8,262.8c0.9-55-22.5-100-52.4-100.5S284.5,206,283.6,261c0,1.3-0.1,7.6-0.2,9.9
		c-0.5,30.5,1.7,51.8,6,66.7c3.3,11.5,10.9,21.2,19.9,28.8c6.5,5.5,13.9,10,21.6,13.5c2.2,1,4.5,1.2,6.8,0.4
		c1.4-0.5,2.8-1.1,4.2-1.7c4-1.7,7.9-3.7,11.7-5.9c9.6-5.6,18.6-12.8,24.6-22.2c1.5-2.5,2.9-5.1,3.9-7.9c5.5-14.8,8.9-36.9,9.5-69.9
		C391.7,270.5,391.8,264.1,391.8,262.8z"/>
</g>
<g>
	<path class="st6" d="M397.8,212.4c11.8-13.8,11-35.8,0.6-50.7c-10.5-14.9-28.7-23.1-46.9-24.4s-36.3,3.5-53.1,10.3
		c-10.7,4.3-21.9,10.2-27,20.5c-5.5,10.9-2.6,24.8,5.1,34.3s19.5,15,31.4,17.5c12,2.4,24.3,2.1,36.6,1.7c7.9-0.2,15.9-0.5,23.2-3.6
		s13.6-9.4,14.4-17.2L397.8,212.4z"/>
</g>
<g>
	<g>
		<path class="st2" d="M394.3,262.1c0.2-22.3-2.9-45.1-12.2-65.6c-6-13.3-15.3-27.1-29.3-32.8c-27-11-49.5,14.8-59.3,36.9
			c-8.5,19.2-11.9,40.3-12.4,61.1c-0.5,19.8-0.6,39.8,2.3,59.4c3,20.6,11,37.1,28.1,49.6c5.9,4.4,14.5,11.2,22.4,11.1
			c6.6-0.1,14-4.8,19.5-7.8c19.5-10.8,31-25.6,35.6-47.3C393.6,305.5,394,283.7,394.3,262.1c0-0.8-5-0.1-5,1.3
			c-0.3,16.5-0.6,32.9-2.7,49.3c-2,15.5-5,32.4-15.5,44.5c-6.7,7.7-15.4,13.6-24.5,18.1c-12.6,6.4-22.7-0.3-32.6-8.1
			c-14.4-11.3-21.8-25.6-24.9-43.4c-3-17.1-3.3-34.7-3.1-52.1c0.2-17.1,1-34,5.2-50.7c6.1-24.4,27.1-71.3,60-54.4
			c13.7,7.1,22.3,21.6,27.9,35.4c7.8,19.4,10.5,40.5,10.3,61.3C389.3,264.2,394.3,263.6,394.3,262.1z"/>
	</g>
</g>
<g>
	<g>
		<path class="st2" d="M256.2,397.4c-21.8,4.5-55.8,6.7-72.7-10.9c-15.2-15.9-15.7-39.3-11-59.5c5.6-24.1,15.3-46.5,18.8-71.2
			c1.5-10.5,4.5-22.5,3.8-33.1c-0.2-3.1-1.1-5.9-3.4-8.1c-3.1-3-8.2-3.4-10.3-7.5c-1.1-2.1-5.8-0.2-4.5,2.3c1.8,3.6,4.5,4,7.6,6
			c7,4.4,5.3,11.2,4.4,18.4c-1.7,13.8-3,27.7-6,41.3c-5.8,25.9-19.9,51-18.2,78.2c1,16.8,9.1,35.5,24.9,43.3
			c20.1,9.9,46.3,8.7,67.6,4.3C260.4,400.4,259.4,396.8,256.2,397.4L256.2,397.4z"/>
	</g>
</g>
<g>
	<g>
		<g>
			<path class="st1" d="M320.8,257.3c-0.1,10-8.3,17.9-18.3,17.8c-10-0.1-17.9-8.3-17.8-18.3c0.1-10,8.3-17.9,18.3-17.8
				C312.9,239.1,320.9,247.3,320.8,257.3z"/>
		</g>
		<g>
			<g>
				<path class="st2" d="M318.2,257.5c-0.6,8.9-7.2,16.8-16.9,15.6c-8-1-14.3-8.5-14.1-16.5c0.1-8.5,6.6-15.5,15.3-15.6
					C311.6,240.8,317.9,248.9,318.2,257.5c0.1,2.7,5.1,1.9,5-0.4c-1-25.9-40.6-25.9-41.1-0.2c-0.6,26.2,39.4,25.5,41.1,0.2
					C323.5,254.5,318.4,255.1,318.2,257.5z"/>
			</g>
		</g>
	</g>
	<g>
		<g>
			<ellipse class="st1" cx="355.9" cy="257.8" rx="18" ry="18"/>
		</g>
		<g>
			<g>
				<path class="st2" d="M371.5,258.8c-0.3,3.8-1.3,7.1-3.6,10.1c-4.2,5.4-13.1,7-19,3.5c-5.4-3.2-8.6-9.3-8.5-15.5
					c0-3,1-6.2,2.6-8.8c3.6-5.9,12.2-8.5,18.4-5.5C367.9,245.6,371.2,251.8,371.5,258.8c0,1,5,0.2,5-1.3c-1-25.4-40.8-23.7-41,0.8
					c-0.3,25.8,39.4,23.3,41-0.8C376.5,256.5,371.6,257.1,371.5,258.8z"/>
			</g>
		</g>
	</g>
	<g>
		<g>
			<path class="st2" d="M375.9,255.8c4.8-2.1,10.5-3.6,15.8-2.5c2,0.4,4,1.1,4.7,3.2c0.3,0.7,0.4,4.4-1,4.8
				c-2.9,0.7-2.5,2.5,0.5,1.8c5.9-1.5,8.2-9,1.5-11.5c-7.7-2.8-17.4,0.1-24.4,3.3C370,256.3,374.6,256.4,375.9,255.8L375.9,255.8z"
				/>
		</g>
	</g>
	<g>
		<g>
			<path class="st2" d="M323.2,261.2c-0.2-3.2,2.1-7.5,5.8-6.7c3,0.6,4.9,3.7,5.3,6.5c0.2,1.8,5.2,0.6,5-1.3
				c-1.7-12.7-21.7-9.4-21,2.8C318.3,264.2,323.3,263.2,323.2,261.2L323.2,261.2z"/>
		</g>
	</g>
</g>
<g>
	<g>
		<path class="st6" d="M486.3,648.5c-0.9-20-5.1-40.6-17.9-56.6c-1-1.3-2.1-2.5-3.2-3.8c-30.5-32.9-80.5-7.1-109.4,13.3
			c-6.6,4.7-42,4.7-48.6,0c-28.9-20.4-78.8-46.2-109.4-13.3c-1.1,1.2-2.2,2.5-3.2,3.8c-12.8,16-17,36.6-17.9,56.6
			c-1.1,23.3,2.3,47.3,6.1,70.2c1.7,10.4,3.8,20.7,6.1,31c2.1,9.1,3.4,17.9,5.3,27c2.8,13.2,5.5,26.5,8.3,39.7
			c0.9,4.5,0.8,11.7,4.9,14.5c4.7,3.2,9.4,0.9,12.9-3c7.2-8.2,8.6-19.9,10.6-30.4c2.1-10.8,17-171.3,21.5-171.2c0,0,158.3,0,158.3,0
			c4.5,0,19.4,160.4,21.5,171.2c2,10.5,3.4,22.2,10.6,30.4c3.4,3.9,8.2,6.2,12.9,3c4.1-2.8,3.9-10,4.9-14.5
			c2.8-13.2,5.5-26.5,8.3-39.7c1.9-9,3.2-17.9,5.3-27c2.4-10.3,4.4-20.6,6.1-31C484,695.8,487.4,671.7,486.3,648.5z"/>
	</g>
	<g>
		<g>
			<path class="st2" d="M309.5,600.6c-32-22.5-84-47.1-115.6-10.5c-18.3,21.3-20.9,51.3-19.7,78.2c1.5,33,9.3,64.7,15.2,97
				c3.2,17.3,7.5,34.4,10.6,51.7c1.4,7.9,2.2,17.7,12.7,16.2c16.7-2.3,19.4-26.7,21.1-39.9c3.8-28.7,6.4-57.6,9.7-86.4
				c2.1-18.9,4.3-37.8,6.9-56.6c0.9-6.5,1.8-13,2.9-19.5c0.4-2,1.1-4.2,1.3-6.2c0.2-2.5,2.2-2.7-0.9-1.9c2.9-0.7,2.5-2.4-0.5-1.7
				c-4.6,1.1-4.5,8.8-5.1,12.4c-2.1,12.2-3.6,24.6-5.1,36.9c-3.9,31.5-7.3,63-10.7,94.5c-1.1,9.8-2.1,19.6-3.4,29.3
				c-0.7,5.4-1.7,10.8-2.9,16.1c-1.1,4.9-3.4,14.8-8,17.8c-4.8,3-9.2,2.5-11.2-2.5c-1-2.5-1-5.4-1.5-8.1
				c-9.6-57.9-31.1-117.1-25.7-176.5c2.8-31,18.5-68.2,55.1-67.5c25.5,0.5,49.8,14.6,70.1,28.8C306,603.2,310.4,601.2,309.5,600.6
				L309.5,600.6z"/>
		</g>
	</g>
	<g>
		<g>
			<path class="st2" d="M406.9,622.1c2.3,0.6,3.9,19.6,4.2,21.9c2.3,15.9,4.3,31.9,6.2,47.9c3.8,31.8,7.1,63.5,10.9,95.3
				c1.6,13.2,2.5,28.7,10.6,39.6c4.5,6.1,12.5,9.1,19,3.9c3.4-2.7,3.9-7,4.5-11c1.4-8.5,3.3-16.9,5.1-25.3
				c6.8-32.6,14.2-65.3,18.6-98.3c3.9-28.8,6.4-61-5.4-88.4c-10.7-25-32.8-39-59.9-35.8c-24.4,2.9-47.1,15.6-66.9,29.5
				c-2.1,1.5,2.9,1,3.9,0.3c19.2-13.5,41.7-26.6,65.7-28c27.6-1.6,47.1,18.2,55.1,43.1c8.8,27.7,5.8,58.4,1.7,86.6
				c-4.3,29.7-10.9,59.2-17,88.6c-1.5,7.2-3,14.3-4.5,21.5c-0.5,2.7-1,5.4-1.4,8.1c-0.8,4.8-0.4,6.8-6.1,7.1
				c-5.8,0.2-7.4-2.5-10.1-7.6c-1.1-2.2-2-4.6-2.8-7c-1.8-5.6-2.8-11.6-3.7-17.4c-1.1-7.1-1.8-14.3-2.7-21.5
				c-3.5-30.2-6.7-60.4-10.4-90.6c-1.9-15.3-3.7-30.7-6.1-46c-0.4-2.5-1.1-17.7-4.5-18.5C409.8,619.8,405.4,621.7,406.9,622.1
				L406.9,622.1z"/>
		</g>
	</g>
	<g>
		<g>
			<path class="st2" d="M279,627.3c34.1,0.3,68.2,0.3,102.4,0c1.5,0,5.4-2.2,2.1-2.2c-34.6,0.3-66.7,0.3-101.3,0
				C281,625.2,276.5,627.3,279,627.3L279,627.3z"/>
		</g>
	</g>
</g>
<g>
	<path class="st2" d="M318.8,315.3c-1.7-0.6-4.2-1.7-5.6-1.2c-1.9,0.8-0.9,3.2-0.4,4.8c1.1,3.5,2.8,7.2,4.8,10.2
		c2.9,4.5,7.1,6.1,11.9,4.8c2.5-0.7,4.8-2.4,6.6-4.5c1.9-2.1,4.5-5.7,1.6-8.2c-1-0.8-2.1-1.2-3.3-1.5c-4.9-1.4-9.8-2.7-14.8-4.1
		C319.4,315.5,319.1,315.4,318.8,315.3z"/>
</g>
<g>
	<g>
		<path class="st2" d="M196.1,204.3c-3,0.6-7.2,1.3-8.9,4.1c-2,3.3,1.2,6.6,2.6,9.3c0.8,1.6,5.6-0.1,5-1.3c-1-1.9-2.6-3.5-3-5.7
			c-0.6-2.9,1.3-3.4,3.6-3.9c0.7-0.1,2.8-0.6,2.9-1.6C198.2,204.1,196.8,204.1,196.1,204.3L196.1,204.3z"/>
	</g>
</g>
<g>
	<g>
		<path class="st2" d="M194.5,209c0.3,2.2,0.2,4.4-0.8,6.4c-1,1.9-2.7,3.5-4,5.3c-1,1.4,3.8,0.7,4.5-0.3c1.4-1.9,3.2-3.7,4.4-5.8
			c1.1-2.1,1.2-4.6,0.9-6.9C199.3,206.6,194.3,207.7,194.5,209L194.5,209z"/>
	</g>
</g>
<g>
	<g>
		<g>
			<path class="st2" d="M418.2,402.2c28.6,25.4,25.5,65.4,0.8,92c-25.2,27.1-63.4,37.6-98.2,24.1c-2.1-0.8-5.8,2.2-2.9,3.3
				c36.4,14.1,76.5,3.4,103.5-24.1c12.6-12.8,22.1-29.6,22.9-47.9c0.9-19.4-7.8-37.5-22.2-50.3C420.4,397.9,416,400.3,418.2,402.2
				L418.2,402.2z"/>
		</g>
	</g>
	<g>
		<g>
			<g>
				<path class="st2" d="M321.6,531c2.8-2.2,5.5-4.4,8.3-6.6c0.9-0.7,1.2-1.9,0.3-2.6c-1-0.8-2.7-0.4-3.6,0.3
					c-2.8,2.2-5.5,4.4-8.3,6.6c-0.9,0.7-1.2,1.9-0.3,2.6C319,532,320.7,531.7,321.6,531L321.6,531z"/>
			</g>
		</g>
		<g>
			<g>
				<path class="st2" d="M316.5,525.6c2.3-0.3,4.6-0.5,6.9-0.8c0.8-0.1,2.7-0.5,2.9-1.5c0.2-1-1.6-0.7-2-0.7
					c-2.3,0.3-4.6,0.5-6.9,0.8c-0.8,0.1-2.7,0.5-2.9,1.5C314.3,525.9,316.1,525.7,316.5,525.6L316.5,525.6z"/>
			</g>
		</g>
	</g>
</g>
<g>
	<g>
		<g>
			<path class="st2" d="M117.6,560.1c-8.1,79.2-16.1,158.4-24.2,237.7c-1.1,11-2.2,22.1-3.4,33.1c-0.3,2.6,4.8,2,5.1-0.3
				c8.1-79.2,16.1-158.4,24.2-237.6c1.1-11,2.2-22.1,3.4-33.1C123,557.1,117.9,557.8,117.6,560.1L117.6,560.1z"/>
		</g>
	</g>
	<g>
		<g>
			<path class="st2" d="M336.4,567.5c9.8,77,19.6,153.9,29.5,230.8c1.4,10.9,2.8,21.7,4.2,32.6c0.3,2.4,5.3,1.1,5-1.3
				c-9.8-77-19.6-153.9-29.5-230.8c-1.4-10.9-2.8-21.7-4.2-32.6C341.1,563.7,336.1,565,336.4,567.5L336.4,567.5z"/>
		</g>
	</g>
	<g>
		<g>
			<path class="st2" d="M19.7,745.4c11.8-74,23.6-148,35.4-222c1.7-10.3,3.3-20.7,5-31c0.4-2.6-4.7-2-5,0.3
				c-11.8,74-23.6,148-35.4,222c-1.6,10.3-3.3,20.7-4.9,31C14.3,748.3,19.4,747.7,19.7,745.4L19.7,745.4z"/>
		</g>
	</g>
	<g>
		<path class="st0" d="M126.2,485.7H40.2c-3.9,0-6.4,4-4.7,7.5c9.4,19.4,35.7,70.2,59.4,83.1c5.7,3.1,261.3,0,261.3,0v-23.8H217.6
			C164.6,552.5,126.2,532.9,126.2,485.7z"/>
	</g>
	<g>
		<g>
			<path class="st2" d="M35.3,484.1c-6.1,10.9,4.8,24.1,10,33.6c6.4,11.6,13.5,23,21.2,33.8c6.7,9.4,17,24.9,29.5,26.4
				c17.5,2.1,35.9,0.9,53.5,1c57.9,0.2,115.7-0.4,173.6-1c8.9-0.1,17.9-0.2,26.8-0.3c1.6,0,3.4,0.2,5-0.1c6.5-0.9,4.6-4.5,7-9.8
				c0.5-1.1-4.3-0.7-4.9,0.8c-0.4,1-2.2,8.7,0.1,6.6c-0.2,0.2-1,0-1.2,0c-1.7,0.5-4.1,0-5.9,0.1c-7.7,0.1-15.3,0.2-23,0.3
				c-25.3,0.3-50.6,0.5-75.9,0.7c-48.5,0.3-97.3,1.7-145.8-0.2c-2.3-0.1-5,0.1-7.2-0.5c-6.5-1.6-13-8.9-17.4-13.9
				c-9.9-11.2-18.1-24.1-25.6-37c-3.7-6.3-7.2-12.8-10.6-19.2c-3.8-7.1-8.6-14-4.2-22C40.7,482.4,36,482.7,35.3,484.1L35.3,484.1z"
				/>
		</g>
	</g>
	<g>
		<g>
			<path class="st1" d="M134.1,482.8H42.3c0,0,32.6,68.6,61.2,83.4c5.5,2.8,254.3,0,254.3,0v-21.9H223
				C171.4,544.3,134.1,526.3,134.1,482.8z"/>
		</g>
		<g>
			<g>
				<path class="st2" d="M135.1,481.6c-30.6,0-61.2,0-91.8,0c-0.5,0-4.1,0.7-3.5,1.9c12.1,25.3,26.8,51.7,46.5,71.9
					c5.6,5.7,11.7,11.9,19.9,12.5c7.7,0.5,15.4,0.5,23.1,0.6c58.8,0.7,117.6,0,176.4-0.6c17-0.2,34.1-0.3,51.1-0.5
					c1,0,3.5-0.5,3.5-1.9c0-7.3,0-14.6,0-21.9c0-0.5-1.2-0.5-1.5-0.5c-27.3,0-54.6,0-81.8,0c-31.2,0-66.5,3.6-96.6-5.8
					c-26.2-8.1-43.4-27.3-43.8-55.2c0-1.2-5-0.3-5,1.3c0.8,52.1,54.4,62,96.4,62c37.7,0,75.5,0,113.2,0c3.1,0,12.6-1.7,15.3,0
					c-2.2-1.4-1.2,6-1.2,8c0,4.5,0,8.9,0,13.4c1.2-0.6,2.3-1.2,3.5-1.9c-42,0.5-84,0.8-125.9,1.1c-29.2,0.2-58.4,0.3-87.6,0.1
					c-9.7-0.1-19.5-0.1-29.2-0.4c-6.4-0.2-10.2,0-15.4-3.7c-16.6-11.8-28.4-30.9-38.6-48c-6.2-10.4-12.1-21-17.3-31.9
					c-1.2,0.6-2.3,1.2-3.5,1.9c30.6,0,61.2,0,91.8,0C134.6,484,138.4,481.6,135.1,481.6z"/>
			</g>
		</g>
	</g>
</g>
<g>
	<g id="XMLID_23_">
		<g>
			<path class="st0" d="M126.2,552.5c62.1,1.8,124.3,4.6,186.4,4.3c3.1,0,8.5-0.9,9.8-4.3c1.2-3.1-1-5.5-4.3-5.5
				c-62.1,0.2-124.3-2.5-186.4-4.3c-3.1-0.1-8.5,1-9.8,4.3C120.7,550.2,123,552.4,126.2,552.5L126.2,552.5z"/>
		</g>
	</g>
	<g id="XMLID_35_">
		<path class="st1" d="M132.4,541.3l186.6,5.4c6,0.2,11-5.3,11.2-12.2l0-0.7c0-0.4-0.3-0.7-0.6-0.8l-31.8-0.9l-3.5-0.4
			c-9.9,2.5-12.7-19.3-13.5-25.4c-3.5-27.2-7.5-73.7-9.1-95.1c-0.5-6.5-5.7-11.5-12.2-11.8c-32.3-1.4-123.3-1.8-153.4-1.9
			c-5.3,0-9.3,4.5-8.8,9.7c3.4,32.2,14.8,133.2,24.7,134.2L132.4,541.3z"/>
	</g>
	<g id="XMLID_58_">
		<path class="st0" d="M194.9,448.9l-2.5-0.1c-7.9-0.2-14.4,6-14.7,13.9l0,0c-0.2,7.9,6,14.5,13.9,14.7l2.5,0.1
			c7.9,0.2,14.4-6,14.7-13.9l0,0C209,455.7,202.8,449.2,194.9,448.9z"/>
	</g>
	<g id="XMLID_51_">
		<g>
			<path class="st2" d="M131.5,542.9c39.3,1.1,78.6,2.3,117.9,3.4c20.3,0.6,40.6,1.2,60.9,1.8c4.3,0.1,9.2,0.8,13.3-0.8
				c5.9-2.3,14.7-15.4,4.2-16.1c-9.8-0.6-19.6-0.3-29.3-0.9c-7.8-0.5-10.5-4-12.5-11.4c-1.8-6.3-2.5-12.9-3.3-19.4
				c-2.3-19.2-4.1-38.4-5.8-57.6c-0.7-7.9-1.4-15.8-2-23.7c-0.5-6.4,0.5-15.1-5.8-18.9c-3.8-2.3-9.2-1.7-13.5-1.8
				c-7-0.2-14.1-0.4-21.1-0.5c-16-0.3-32-0.5-48-0.6c-16.8-0.2-33.6-0.3-50.4-0.4c-6.7,0-13.3-0.1-20-0.1c-4.5,0-10-0.9-14.3,0.4
				C89.9,399.7,96,418.2,97,427c1.9,16.3,3.9,32.6,6.2,48.8c2.3,15.9,4.7,31.9,8.4,47.6c1.1,4.6,2.9,18.1,8.9,19.4
				c1.9,0.4,5.9-2.4,2.9-3.1c-4.4-0.9-6.5-15.8-7.3-19.1c-2.9-12.6-5-25.5-6.9-38.3c-3.8-25-7.8-50.6-9.5-75.9
				c-0.5-8.3,7-7.5,13-7.5c6.5,0,13.1,0.1,19.6,0.1c15.2,0.1,30.4,0.2,45.7,0.4c26.8,0.3,54-0.6,80.7,1.4
				c9.7,0.7,10.2,7.1,10.8,15.1c0.6,7.5,1.2,15,1.9,22.6c1.5,17.9,3.2,35.8,5.1,53.6c1.3,11.3,1.2,26.7,7.7,36.5
				c4.2,6.3,12,5.1,18.8,5.3c5.6,0.2,11.3,0.3,17,0.5c1.9,0,5-0.5,6.7,0.2c0,0,1.2-0.1,1.3,0c-0.9-0.8,0,1-0.8,2.6
				c-4.9,9-7.7,7.8-16,7.6c-18.7-0.5-37.4-1.1-56-1.6c-40.7-1.2-81.4-2.4-122.1-3.5C131.1,539.6,128.1,542.8,131.5,542.9
				L131.5,542.9z"/>
		</g>
	</g>
	<g id="XMLID_49_">
		<g>
			<path class="st2" d="M122,528.6c44.7,1.3,89.4,2.6,134.1,3.9c6.5,0.2,12.9,0.4,19.4,0.6c2.2,0.1,5.2-3.2,1.8-3.3
				c-44.7-1.3-89.4-2.6-134.1-3.9c-6.4-0.2-12.9-0.4-19.4-0.6C121.6,525.3,118.6,528.5,122,528.6L122,528.6z"/>
		</g>
	</g>
</g>
<path class="st2" d="M118.1,157.1c17.7-20.3,77.1-20.9,105.3-42.2c7.8-6.3,11.5-13,3.1,4.7c-22.4,47.4-81.3,32.3-106.3,41.7
	C112.9,163.9,112.4,163.4,118.1,157.1L118.1,157.1z M113.4,147.2c18.2-39.6,94.9-39.6,120.9-80.8c5.7-8.9,6.8-16.2,4.7,1.6
	c-7.3,62-90.2,55.8-122.5,81.3C110.3,154.5,110.3,154.5,113.4,147.2L113.4,147.2z M102.5,181.6c-3.7-15.1-24-17.7-26.6-32.8
	C64.4,89.9,197.3,90.4,232.2,40.4c7.3-10.4,7.8-9.9,3.6,2.1C215,104,98.3,105,107.7,157.1c2.6,14.1,2.6,19.3-0.5,25
	C104.6,186.8,103.5,186.8,102.5,181.6L102.5,181.6z M122.3,167.6c14.6-7.8,50-2.1,69.3-6.8c6.3-1.6,12-5.2,2.6,6.3
	c-13.6,16.7-43.3,7.8-69.8,6.8C115,173.3,114.4,171.7,122.3,167.6L122.3,167.6z"/>
<g>
	<path class="st2" d="M117.1,78.4c0,0.5-0.5,1-1,1.6c-0.5,0.5-1,0.5-1.6,0.5s-1.6,0-2.6-0.5c0.5,0.5,0.5,0.5,0.5,1s0,1-0.5,1.6
		s-1,1-2.1,1s-1.6-0.5-1.6-1c0.5,0,1,0,1-0.5s0-0.5-0.5-1.6c-0.5-0.5-1.6-1.6-2.6-3.1c-1-1-2.6-3.1-4.7-5.2l-2.6,2.1v4.2
		c0,2.1,0.5,3.7,1,3.7s1,0,1-0.5c0,0.5,0,0.5,0,0.5c0,0.5,0,1-0.5,1c-0.5,0.5-1,0.5-1.6,0.5c-1.6,0-2.6-0.5-3.1-2.1
		c0,1.6-1,2.1-2.6,2.1c-0.5,0-1,0-1.6-0.5c-0.5,0-0.5-0.5-0.5-1v-0.5c0.5,0,0.5,0.5,1,0.5s1-1,1-3.1c0-0.5,0-1,0-2.6
		c0-1,0-2.1,0-2.6c0-0.5,0-1,0-1.6c0-1,0-1.6,0-1.6c0-0.5,0-1.6,0-2.6s0-2.1,0-2.1c0-0.5,0-1.6,0-2.6s-0.5-1.6-1-1.6
		c0,0-0.5,0-1,0.5v-0.5c0-0.5,0.5-0.5,1-1c0.5,0,1-0.5,1.6-0.5c1.6,0,2.6,0.5,2.6,2.1c0.5-1,1.6-2.1,2.6-2.1c0.5,0,1,0,1.6,0.5
		s1,0.5,1,1c0,0,0,0.5-0.5,0.5c-0.5-0.5-1-0.5-1-0.5c-0.5,0-1,0.5-1,1.6c0,0,0,1,0,2.1s0,2.1,0,2.1v3.7c1-1,2.1-1.6,2.6-2.1
		c2.1-1.6,4.2-3.1,5.7-4.7s2.6-2.6,2.6-3.1s-0.5-0.5-1-0.5c0-0.5,0.5-0.5,1-0.5c0.5,0,1,0,1.6,0.5c0.5,0,0.5,0.5,0.5,1
		c0,0,0,0.5-0.5,1c0.5,0,0.5-0.5,1-0.5c0.5,0,1,0,1,0.5c0.5,0.5,0.5,0.5,0.5,1c0,0.5-0.5,0.5-1,1c0-0.5,0-0.5-0.5-0.5
		s-1,0.5-2.1,1.6c-2.1,2.1-3.7,3.1-4.7,4.2c0,0,1,1,2.1,2.6c0.5,0.5,1.6,2.1,3.1,3.1c0.5,0.5,1.6,1.6,3.1,3.1c0.5,0,0.5,0.5,1,0.5
		s0.5-0.5,1-1C116.5,77.4,117.1,77.9,117.1,78.4z"/>
	<path class="st2" d="M144.2,78.4c0,1-0.5,1.6-1,2.1c-0.5,0-1,0.5-1,0.5c-0.5,0-1.6,0-2.6-0.5c0,0.5,0.5,1,0.5,1
		c0,1.6-1,2.1-3.1,2.1c-0.5,0-1-0.5-1-1c1,0,1,0,1-0.5s-0.5-1.6-2.1-3.7c-0.5-0.5-1-1.6-1.6-2.1c-0.5-0.5-1-1.6-2.1-2.6
		c-1,0-2.1-0.5-3.1-0.5c0,1,0,2.1,0,2.1c0,0.5,0,1.6,0,2.6c0,1.6,0,2.1,0,2.1c0,1,0.5,1.6,1,1.6s0.5,0,1-0.5v0.5
		c0,1-0.5,1.6-2.1,1.6c-0.5,0-1.6,0-2.1-0.5c-0.5,0-1-0.5-1-1.6c0,1.6-1,2.1-2.6,2.1c-0.5,0-1,0-1.6-0.5c-0.5,0-0.5-0.5-0.5-1
		c0,0,0,0,0-0.5c0.5,0,0.5,0.5,1,0.5s1-1,1-2.6v-3.7c0-0.5,0-1,0-2.1s0-2.1,0-2.1c0-0.5,0-2.1,0-3.1c0-1.6,0-2.1,0-2.6s0-1,0-2.6
		c0-1-0.5-1.6-1-1.6s-0.5,0-1,0.5c0-0.5-0.5-0.5-0.5-0.5c0-0.5,0.5-0.5,1-1c0.5-0.5,1-0.5,1.6-0.5s1,0,1.6,0.5c0.5,0,1,0.5,1,1.6
		c0.5-1,1.6-2.1,3.1-2.1c0.5,0,0.5,0,1,0.5c0.5,0,0.5,0.5,1,1c1-0.5,2.1-1,3.1-1s2.1,0,2.6,0.5c0.5,0,1.6,0.5,2.6,1
		c0,0,0.5,0.5,1,0.5c1,1,1.6,2.6,1.6,4.2v0.5v0.5c0,2.6-1.6,4.2-4.7,5.2c1,1,1.6,1.6,1.6,2.1c0.5,0.5,1,1.6,1.6,2.1
		c1,1,1.6,1.6,2.1,1.6s0.5-0.5,1-1C143.6,77.9,144.2,77.9,144.2,78.4z M135.3,66.4c0-0.5,0-0.5,0-0.5c0-1-0.5-1.6-1-2.6
		c-0.5-0.5-1.6-1-2.6-1c-0.5,0-1.6,0.5-2.6,1v-0.5c0-0.5,0-0.5,0.5-1H129c-0.5,0-1,1-1,2.6c0,0,0,1,0,2.1c0,1.6,0,2.1,0,2.6
		c0,0.5,0,1.6,0,3.1h0.5c4.2,0,6.3-1,6.8-3.1C135.3,68,135.3,67.5,135.3,66.4z"/>
</g>
</svg>
