<?xml version="1.0" encoding="utf-8"?>
<!-- Generator: Adobe Illustrator 22.1.0, SVG Export Plug-In . SVG Version: 6.00 Build 0)  -->
<svg version="1.1" id="圖層_1" xmlns="http://www.w3.org/2000/svg" xmlns:xlink="http://www.w3.org/1999/xlink" x="0px" y="0px"
	 viewBox="0 0 24 24" style="enable-background:new 0 0 24 24;" xml:space="preserve">
<style type="text/css">
	.st0{fill:#7C25D2;}
</style>
<path class="st0" d="M20.5,3.5c-2.3-2.3-5.3-3.6-8.5-3.6S5.8,1.1,3.6,3.4C-1,7.9-1.2,15.3,3.2,20c-0.5,0.9-1.2,2.1-2.4,2.7
	c-0.4,0.2-0.3,0.8,0.1,0.9c1.3,0.2,3.3,0,5-1.3C7.7,23.4,9.8,24,12,24c3.2,0,6.2-1.2,8.4-3.5C25.1,15.9,25.2,8.2,20.5,3.5z
	 M17.6,15.5c0,0.4-0.3,0.7-0.7,0.7h-10c-0.4,0-0.7-0.3-0.7-0.7V8.4c0-0.3,0.2-0.5,0.4-0.6c0.3-0.1,0.6,0,0.7,0.2l1.9,2.3L11.3,8
	c0.1-0.2,0.3-0.2,0.5-0.2s0.4,0.1,0.5,0.2l1.9,2.3L16.3,8c0.2-0.2,0.5-0.3,0.7-0.2c0.3,0.1,0.4,0.3,0.4,0.6v7.1H17.6z"/>
</svg>
