<?xml version="1.0" encoding="utf-8"?>
<!-- Generator: Adobe Illustrator 22.1.0, SVG Export Plug-In . SVG Version: 6.00 Build 0)  -->
<svg version="1.1" id="圖層_1" xmlns="http://www.w3.org/2000/svg" xmlns:xlink="http://www.w3.org/1999/xlink" x="0px" y="0px"
	 viewBox="409.4 846.9 24 24" style="enable-background:new 409.4 846.9 24 24;" xml:space="preserve">
<style type="text/css">
	.st0{fill:#FFFFFF;}
</style>
<path class="st0" d="M429.9,850.4c-2.3-2.3-5.3-3.6-8.5-3.6c-3.2,0-6.2,1.2-8.4,3.5c-4.6,4.5-4.8,11.9-0.4,16.6
	c-0.5,0.9-1.2,2.1-2.4,2.7c-0.4,0.2-0.3,0.8,0.1,0.9c1.3,0.2,3.3,0,5-1.3c1.8,1.1,3.9,1.7,6.1,1.7c3.2,0,6.2-1.2,8.4-3.5
	C434.5,862.8,434.6,855.1,429.9,850.4z M427,862.4c0,0.4-0.3,0.7-0.7,0.7h-10c-0.4,0-0.7-0.3-0.7-0.7v-7.1c0-0.3,0.2-0.5,0.4-0.6
	c0.3-0.1,0.6,0,0.7,0.2l1.9,2.3l2.1-2.3c0.1-0.2,0.3-0.2,0.5-0.2c0.2,0,0.4,0.1,0.5,0.2l1.9,2.3l2.1-2.3c0.2-0.2,0.5-0.3,0.7-0.2
	c0.3,0.1,0.4,0.3,0.4,0.6V862.4z"/>
</svg>
