<?xml version="1.0" encoding="utf-8"?>
<!-- Generator: Adobe Illustrator 22.1.0, SVG Export Plug-In . SVG Version: 6.00 Build 0)  -->
<svg version="1.1" id="圖層_1" xmlns="http://www.w3.org/2000/svg" xmlns:xlink="http://www.w3.org/1999/xlink" x="0px" y="0px"
	 viewBox="409.4 846.9 24 24" style="enable-background:new 409.4 846.9 24 24;" xml:space="preserve">
<style type="text/css">
	.st0{fill:#FFFFFF;}
</style>
<path class="st0" d="M429.9,850.4c-2.3-2.3-5.3-3.6-8.5-3.6c-3.2,0-6.2,1.2-8.4,3.5c-4.6,4.5-4.8,11.9-0.4,16.6
	c-0.5,0.9-1.2,2.1-2.4,2.7c-0.4,0.2-0.3,0.8,0.1,0.9c1.3,0.2,3.3,0,5-1.3c1.8,1.1,3.9,1.7,6.1,1.7c3.2,0,6.2-1.2,8.4-3.5
	C434.5,862.8,434.6,855.1,429.9,850.4z M424.9,864.2h-6.1c-1.7-0.6-2.9-2.4-2.7-4.4c0.3-2,3.4-5.4,4.6-7.6v0
	c0.9,1.7,1.9,3.4,2.8,5.1l1-1.3C425.7,858.4,428.5,862.2,424.9,864.2z"/>
</svg>
