<?xml version="1.0" encoding="utf-8"?>
<!-- Generator: Adobe Illustrator 22.1.0, SVG Export Plug-In . SVG Version: 6.00 Build 0)  -->
<svg version="1.1" id="圖層_1" xmlns="http://www.w3.org/2000/svg" xmlns:xlink="http://www.w3.org/1999/xlink" x="0px" y="0px"
	 viewBox="411 850.9 16 16" style="enable-background:new 411 850.9 16 16;" xml:space="preserve">
<style type="text/css">
	.st0{fill:#FFFFFF;}
</style>
<path class="st0" d="M413.3,853.2c-3,3-3.1,7.8-0.3,11l0.1,0.1c-0.3,0.6-0.8,1.4-1.6,1.9c-0.3,0.1-0.2,0.5,0.1,0.6
	c0.9,0.1,2.2,0,3.4-0.9h0c3.1,1.8,7.1,1.4,9.7-1.3c3.1-3.1,3.1-8.2,0-11.3C421.5,850.1,416.4,850.1,413.3,853.2z M423.1,859.7
	l-0.5,0.5l-3.6,3.6l-3.6-3.6l-0.5-0.5c-1-1-1-2.6,0-3.6c1-1,2.6-1,3.6,0l0.5,0.5l0.5-0.5c1-1,2.6-1,3.6,0
	C424.1,857.1,424.1,858.7,423.1,859.7z"/>
</svg>
