<?xml version="1.0" encoding="utf-8"?>
<!-- Generator: Adobe Illustrator 22.1.0, SVG Export Plug-In . SVG Version: 6.00 Build 0)  -->
<svg version="1.1" id="圖層_1" xmlns="http://www.w3.org/2000/svg" xmlns:xlink="http://www.w3.org/1999/xlink" x="0px" y="0px"
	 viewBox="815.9 494.8 16 15" style="enable-background:new 815.9 494.8 16 15;" xml:space="preserve">
<style type="text/css">
	.st0{fill:#FFFFFF;}
</style>
<path class="st0" d="M831.8,500.4c-0.1-0.3-0.5-0.6-0.8-0.6h-4.9l-1.5-4.5c-0.1-0.3-0.5-0.6-0.8-0.6s-0.7,0.2-0.8,0.6l-1.5,4.5h-4.9
	c-0.3,0-0.7,0.2-0.8,0.6c-0.1,0.3,0,0.7,0.3,0.9l3.9,2.8l-1.5,4.5c-0.1,0.3,0,0.7,0.3,0.9c0.3,0.2,0.7,0.2,1,0l3.9-2.8l3.9,2.8
	c0.2,0.1,0.3,0.2,0.5,0.2c0.2,0,0.3-0.1,0.4-0.2c0.3-0.2,0.4-0.6,0.3-0.9l-1.5-4.5l3.9-2.8C831.8,501.1,831.9,500.7,831.8,500.4z
	 M826.1,503.1c-0.3,0.2-0.4,0.6-0.3,0.9l0.9,2.7l-2.3-1.7c-0.2-0.1-0.3-0.2-0.5-0.2s-0.3,0.1-0.5,0.2l-2.3,1.7l0.9-2.7
	c0.1-0.3,0-0.7-0.3-0.9l-2.3-1.7h2.9c0.3,0,0.7-0.2,0.8-0.6l0.9-2.7l0.9,2.6c0.1,0.3,0.5,0.6,0.8,0.6h2.9L826.1,503.1z"/>
</svg>
