<?xml version="1.0" encoding="utf-8"?>
<!-- Generator: Adobe Illustrator 22.1.0, SVG Export Plug-In . SVG Version: 6.00 Build 0)  -->
<svg version="1.1" id="圖層_1" xmlns="http://www.w3.org/2000/svg" xmlns:xlink="http://www.w3.org/1999/xlink" x="0px" y="0px"
	 viewBox="0 0 17 17" style="enable-background:new 0 0 17 17;" xml:space="preserve">
<style type="text/css">
	.st0{fill:#FFFFFF;}
</style>
<g>
	<g>
		<path class="st0" d="M8.5,17c-1.7,0-3.3-0.5-4.7-1.4c-1-0.6-1.8-1.4-2.4-2.4c-0.6-0.9-1-1.9-1.2-3S0,8,0.2,6.9s0.6-2.2,1.3-3.1
			L0.2,2.5C0.1,2.4,0.1,2.4,0.1,2.3s0-0.2,0.1-0.2C0.3,2,0.3,2,0.4,2h1.7V0.3c0-0.1,0-0.2,0.1-0.2C2.3,0,2.3,0,2.4,0
			c0.1,0,0.2,0,0.2,0.1l1.3,1.3C5.3,0.5,6.9,0,8.6,0l0,0c1.7,0,3.3,0.5,4.7,1.4c1,0.6,1.8,1.4,2.4,2.4c0.6,0.9,1,1.9,1.2,3
			s0.2,2.2,0,3.3s-0.6,2.2-1.3,3.1C14,15.6,11.4,17,8.5,17L8.5,17z M1.9,4.3C1.1,5.6,0.7,7,0.7,8.6c0,4.3,3.5,7.9,7.9,7.9l0,0
			c1.5,0,3-0.4,4.3-1.3c3.7-2.4,4.7-7.2,2.4-10.9C13.8,2,11.4,0.7,8.7,0.7c-1.5,0-3,0.4-4.2,1.2l0.4,0.4C5,2.4,5,2.4,5,2.5v1.9
			l0.3,0.3c1-0.8,2.2-1.3,3.5-1.3s2.5,0.5,3.5,1.3c1,0.9,1.6,2.2,1.7,3.6s-0.4,2.7-1.3,3.8c-0.5,0.6-1.1,1-1.8,1.3s-1.4,0.4-2.1,0.4
			c-1.3,0-2.5-0.5-3.5-1.3c-1-0.9-1.6-2.2-1.7-3.6C3.5,7.5,4,6.2,4.9,5.2L4.6,4.9H2.7c-0.1,0-0.2,0-0.2-0.1L1.9,4.3z M5,5.5
			c-1.5,1.7-1.5,4.4,0,6.1c0.9,1,2.1,1.5,3.4,1.5c1.1,0,2.2-0.4,3.1-1.2C12.4,11.1,13,10,13,8.7c0.1-1.2-0.3-2.4-1.2-3.3
			c-0.9-1-2.1-1.5-3.4-1.5c-1.1,0-2.2,0.4-3,1.1L7,6.6c0.4-0.3,0.9-0.5,1.5-0.5C9,6.1,9.6,6.3,10,6.6c0.5,0.4,0.8,1,0.9,1.6
			s-0.1,1.3-0.5,1.8c-0.5,0.6-1.2,0.9-1.9,0.9l0,0c-0.6,0-1.1-0.2-1.5-0.5c-0.5-0.4-0.8-1-0.9-1.6C6,8.2,6.2,7.5,6.6,7L5,5.5z
			 M7,7.5C6.5,8.1,6.6,9,7,9.6c0.3,0.5,0.9,0.7,1.5,0.7c0.4,0,0.8-0.1,1.1-0.4c0.4-0.3,0.6-0.7,0.7-1.2s-0.1-1-0.3-1.4
			C9.7,6.8,9.1,6.6,8.5,6.6c-0.4,0-0.7,0.1-1.1,0.3l0.9,0.9h0.1c0.1,0,0.1,0,0.2,0s0.3,0.1,0.3,0.3C9,8.2,9,8.4,9,8.5
			C8.9,8.7,8.7,8.9,8.4,8.9l0,0c-0.1,0-0.1,0-0.2,0S7.9,8.8,7.9,8.6C7.8,8.5,7.8,8.3,7.8,8.2L7,7.5z M3.7,4.1L2.2,2.6H1.1l1.5,1.5
			H3.7z M4.1,3.7V2.6L2.6,1.1v1.1L4.1,3.7z"/>
		<path class="st0" d="M8.5,0.1c-1.7,0-3.3,0.5-4.7,1.4L2.5,0.2c-0.1-0.1-0.3-0.1-0.4,0c0,0-0.1,0.1-0.1,0.2v1.7H0.3
			C0.2,2.1,0,2.2,0,2.4c0,0.1,0,0.1,0.1,0.2l1.3,1.3C-1.2,7.8-0.1,13,3.8,15.6s9.1,1.5,11.7-2.4C18,9.3,17,4.1,13.1,1.5
			C11.8,0.6,10.2,0.1,8.5,0.1z M4.1,2.6v1.2L2.5,2.2V1L4.1,2.6z M6.6,7C5.8,8,5.9,9.5,7,10.3s2.5,0.7,3.3-0.4S11,7.4,9.9,6.6
			c-0.9-0.7-2.1-0.7-3,0L5.3,5c1.9-1.7,4.9-1.5,6.6,0.4s1.5,4.9-0.4,6.6s-4.9,1.5-6.6-0.4c-1.6-1.8-1.6-4.4,0-6.2L6.6,7z M8,8.4
			C7.9,8.7,8.1,9,8.4,9.1S9,9,9.1,8.7C9.2,8.4,9,8.1,8.7,8C8.6,8,8.5,8,8.4,8l-1-1c0.8-0.6,2-0.4,2.6,0.4s0.4,2-0.4,2.6
			c-0.8,0.6-2,0.4-2.6-0.4C6.5,8.9,6.5,8,7,7.4L8,8.4z M2.2,2.6l1.6,1.6H2.6L1,2.6H2.2z M8.5,16.5c-4.4,0-7.9-3.5-7.9-7.9
			c0-1.5,0.4-3,1.3-4.3l0.4,0.4c0,0,0.1,0.1,0.2,0.1h1.9l0.4,0.4c-1.9,2.1-1.7,5.4,0.4,7.3s5.4,1.7,7.3-0.4s1.7-5.4-0.4-7.3
			c-2-1.8-5-1.8-6.9,0L4.8,4.4V2.5c0-0.1,0-0.1-0.1-0.2L4.3,1.9c3.7-2.4,8.6-1.3,11,2.4s1.3,8.6-2.4,11C11.5,16,10,16.5,8.5,16.5z"
			/>
	</g>
</g>
</svg>
