<?xml version="1.0" encoding="utf-8"?>
<!-- Generator: Adobe Illustrator 22.1.0, SVG Export Plug-In . SVG Version: 6.00 Build 0)  -->
<svg version="1.1" id="圖層_1" xmlns="http://www.w3.org/2000/svg" xmlns:xlink="http://www.w3.org/1999/xlink" x="0px" y="0px"
	 viewBox="411 851.4 15 15" style="enable-background:new 411 851.4 15 15;" xml:space="preserve">
<style type="text/css">
	.st0{fill:#FFFFFF;}
</style>
<path class="st0" d="M413.2,853.6c-2.8,2.8-2.9,7.3-0.3,10.3l0.1,0.1c-0.3,0.6-0.8,1.4-1.5,1.7c-0.3,0.1-0.2,0.5,0.1,0.5
	c0.8,0.1,2.1,0,3.2-0.9h0c2.9,1.7,6.6,1.3,9.1-1.2c2.9-2.9,2.9-7.7,0-10.6C420.9,850.6,416.1,850.6,413.2,853.6z M422.4,859.7
	l-0.5,0.5l-3.4,3.4l-3.4-3.4l-0.5-0.5c-0.9-0.9-0.9-2.5,0-3.4c0.9-0.9,2.5-0.9,3.4,0l0.5,0.5l0.5-0.5c0.9-0.9,2.5-0.9,3.4,0
	C423.3,857.2,423.3,858.7,422.4,859.7z"/>
</svg>
