<?xml version="1.0" encoding="utf-8"?>
<!-- Generator: Adobe Illustrator 22.1.0, SVG Export Plug-In . SVG Version: 6.00 Build 0)  -->
<svg version="1.1" id="Objects" xmlns="http://www.w3.org/2000/svg" xmlns:xlink="http://www.w3.org/1999/xlink" x="0px" y="0px"
	 viewBox="0 0 23 45" style="enable-background:new 0 0 23 45;" xml:space="preserve">
<style type="text/css">
	.st0{fill:#F9B233;}
	.st1{fill:#36A9E1;}
	.st2{fill:#FFFFFF;}
	.st3{fill:#FFCC00;}
	.st4{fill:#FDC00F;}
	.st5{fill:#FFD633;}
</style>
<path class="st0" d="M23,5.3c0,1-0.8,1.8-1.8,1.8H1.8C0.8,7.1,0,6.3,0,5.3V1.8C0,0.8,0.8,0,1.8,0h19.5c1,0,1.8,0.8,1.8,1.8L23,5.3
	L23,5.3z"/>
<polyline class="st1" points="11.4,24.8 2.3,15.9 2.3,3.4 20.7,3.4 20.7,15.9 11.4,24.8 "/>
<polyline class="st2" points="11.4,24.8 7.9,21.3 7.9,3.4 15.1,3.4 15.1,21.3 11.4,24.8 "/>
<g>
	<path class="st3" d="M11.5,42.4c-4.4,0-7.9-3.4-7.9-7.6s3.5-7.6,7.9-7.6s7.9,3.4,7.9,7.6S15.9,42.4,11.5,42.4z"/>
	<path class="st4" d="M11.5,29.8c2.9,0,5.3,2.3,5.3,5c0,2.8-2.4,5-5.3,5s-5.3-2.3-5.3-5C6.2,32.1,8.6,29.8,11.5,29.8 M11.5,24.7
		c-5.8,0-10.4,4.5-10.4,10.1C1.1,40.5,5.7,45,11.5,45s10.4-4.5,10.4-10.1S17.3,24.7,11.5,24.7L11.5,24.7z"/>
</g>
<g>
	<path class="st3" d="M18.2,34.9c0,3.6-3,6.5-6.7,6.5s-6.7-2.9-6.7-6.5s3-6.5,6.7-6.5S18.2,31.3,18.2,34.9z"/>
</g>
<rect x="1.9" y="2.3" class="st0" width="19.1" height="1.3"/>
<path class="st0" d="M12.4,26.8c0,0.4-0.4,0.8-0.9,0.8h-0.1c-0.5,0-0.9-0.3-0.9-0.8V23c0-0.4,0.4-0.8,0.9-0.8h0.1
	c0.5,0,0.9,0.3,0.9,0.8V26.8z"/>
<g>
	<path class="st5" d="M19,34.9c0,4-3.4,7.3-7.5,7.3S4,38.9,4,34.9s3.4-7.3,7.5-7.3S19,30.8,19,34.9z"/>
</g>
<g>
	<path class="st1" d="M10.6,38h4.5v1.8H8V39c0-0.6,0.1-1.1,0.3-1.5s0.5-0.9,0.8-1.3s0.9-0.9,1.7-1.4c0.7-0.5,1.2-1,1.4-1.4
		s0.4-0.8,0.4-1.3c0-1-0.5-1.4-1.6-1.4c-0.9,0-1.8,0.4-2.6,1.1v-2c0.9-0.6,2-0.9,3.1-0.9c1.1,0,1.9,0.3,2.5,0.8s0.9,1.3,0.9,2.2
		c0,0.5-0.1,1-0.3,1.4s-0.4,0.8-0.8,1.2s-0.9,0.8-1.6,1.3c-0.7,0.5-1.2,0.9-1.4,1.2S10.6,37.8,10.6,38z"/>
</g>
</svg>
