<?xml version="1.0" standalone="no"?>
<!DOCTYPE svg PUBLIC "-//W3C//DTD SVG 1.1//EN" "http://www.w3.org/Graphics/SVG/1.1/DTD/svg11.dtd" >
<svg xmlns="http://www.w3.org/2000/svg">
<metadata>
Created by FontForge 20120731 at Tue Apr 11 11:57:51 2017
 By admin
</metadata>
<defs>
<font id="iconfont" horiz-adv-x="1024" >
  <font-face 
    font-family="iconfont"
    font-weight="500"
    font-stretch="normal"
    units-per-em="1024"
    panose-1="2 0 6 3 0 0 0 0 0 0"
    ascent="896"
    descent="-128"
    x-height="792"
    bbox="-21 -173 1030 914"
    underline-thickness="0"
    underline-position="0"
    unicode-range="U+0078-E69B"
  />
<missing-glyph 
 />
    <glyph glyph-name=".notdef" 
 />
    <glyph glyph-name=".notdef" 
 />
    <glyph glyph-name=".null" horiz-adv-x="0" 
 />
    <glyph glyph-name="nonmarkingreturn" horiz-adv-x="341" 
 />
    <glyph glyph-name="x" unicode="x" horiz-adv-x="1001" 
d="M281 543q-27 -1 -53 -1h-83q-18 0 -36.5 -6t-32.5 -18.5t-23 -32t-9 -45.5v-76h912v41q0 16 -0.5 30t-0.5 18q0 13 -5 29t-17 29.5t-31.5 22.5t-49.5 9h-133v-97h-438v97zM955 310v-52q0 -23 0.5 -52t0.5 -58t-10.5 -47.5t-26 -30t-33 -16t-31.5 -4.5q-14 -1 -29.5 -0.5
t-29.5 0.5h-32l-45 128h-439l-44 -128h-29h-34q-20 0 -45 1q-25 0 -41 9.5t-25.5 23t-13.5 29.5t-4 30v167h911zM163 247q-12 0 -21 -8.5t-9 -21.5t9 -21.5t21 -8.5q13 0 22 8.5t9 21.5t-9 21.5t-22 8.5zM316 123q-8 -26 -14 -48q-5 -19 -10.5 -37t-7.5 -25t-3 -15t1 -14.5
t9.5 -10.5t21.5 -4h37h67h81h80h64h36q23 0 34 12t2 38q-5 13 -9.5 30.5t-9.5 34.5q-5 19 -11 39h-368zM336 498v228q0 11 2.5 23t10 21.5t20.5 15.5t34 6h188q31 0 51.5 -14.5t20.5 -52.5v-227h-327z" />
    <glyph glyph-name="qq" unicode="&#xe612;" 
d="M203 425l-1 5l-2 6v4v14l1 5l2 6l2 7l2 6l4 8l5 7v5v4l1 7l2 7l2 8l2 3l2 4l2 3l3 3v18l1 9l2 10l2 13l4 13l3 7l3 8l2 8l4 8l4 8l4 8l4 9l6 9l3 5l3 4l6 9l7 9l7 9l8 9l9 9l9 9l11 10l6 6l9 7l8 6l10 5l8 5l10 4l11 5l10 4l11 3l11 4l12 3l12 2l12 2l12 1l11 2l13 1h38
l12 -2l13 -1l13 -2l12 -3l12 -2l12 -3l13 -4l12 -4l11 -5l12 -5l11 -5l11 -6l10 -7l9 -7l5 -3l4 -3l8 -7l7 -7l8 -7l6 -8l6 -7l7 -8l5 -9l4 -7l5 -9l5 -8l7 -16l3 -8l3 -8l3 -8l2 -8l2 -7l2 -8l4 -14l2 -13l2 -12l1 -9l2 -15l1 -2l2 -3l4 -8l3 -5l3 -5l3 -6l3 -7l2 -7l2 -8
l2 -8l1 -4v-5v-4v-4v-5l-1 -5l-3 -10l-2 -5l-2 -5v-2l1 -2l2 -4l11 -16l9 -12l4 -8l6 -9l5 -10l6 -11l5 -12l7 -13l3 -8l4 -8l2 -9l3 -8l2 -8l2 -7l3 -15l2 -15l2 -13v-19l-1 -6l-2 -12l-2 -10l-3 -9l-1 -4l-2 -5l-2 -3l-2 -4l-2 -2l-3 -4l-2 -2l-3 -2l-3 -2l-2 -1l-3 -1h-3
l-2 1l-5 2l-4 3l-2 2l-2 2l-4 4l-4 6l-3 6l-4 5l-3 5l-5 10l-5 10h-1h-1l-2 -1l-1 -3l-2 -3l-4 -10l-5 -14l-7 -17l-5 -9l-6 -9l-6 -10l-7 -9l-4 -5l-4 -5l-10 -9l1 -1l1 -2l5 -2l21 -10l9 -5l8 -5l9 -6l7 -7l4 -3l3 -3l2 -4l3 -4l1 -3l2 -5v-3l1 -4l-1 -3v-3v-3l-2 -3
l-1 -2l-1 -2l-4 -5l-3 -4l-3 -4l-2 -2l-6 -4l-6 -4l-7 -3l-7 -3l-8 -3l-5 -2l-4 -1l-9 -2l-10 -2l-10 -2l-11 -2l-11 -1l-11 -1h-35l-13 1l-12 1l-12 2l-13 1l-13 2l-13 3l-13 3l-12 3l-13 5l-13 3l-6 3l-6 2l-4 1l-4 1h-10l-12 1h-6l-8 1l-5 -4l-7 -5l-9 -4l-11 -6l-6 -3
l-7 -2l-14 -6l-8 -2l-8 -2l-12 -3h-7l-8 -1l-7 -1h-10h-37h-22l-20 2l-11 2l-20 3l-9 2l-9 3l-10 2l-8 3l-8 3l-7 4l-6 3l-6 5l-3 2l-2 3l-2 2l-2 3l-2 3l-1 2l-2 6l-1 3l-1 4v3l1 3v3l1 4v7v4l2 4l1 4l2 5l2 2l2 2l4 5l3 2l3 2l2 2l5 2l3 2l4 2l5 1l5 2l6 1l5 1l7 1h7l1 1
h1l1 1v0l-2 2l-3 2l-9 8l-7 5l-7 6l-7 7l-8 9l-8 10l-3 6l-5 5l-3 7l-4 7l-4 7l-3 7l-3 8l-4 9l-2 8l-3 10l-1 1v0h-1h-1h-1l-1 -1l-1 -1v-2l-1 -2l-1 -3l-4 -8l-3 -4l-3 -4l-4 -5l-4 -6l-4 -4l-5 -5l-5 -4l-5 -3l-6 -4l-5 -2l-7 -2h-6h-1h-2l-1 3l-2 1l-2 6l-2 3l-1 5l-2 5
v4l-2 11l-1 6v21l1 15l1 8l1 8l2 9l2 8l3 9l3 10l3 9l4 9l4 9l5 10l5 9l7 10l6 9l7 10l6 7l7 8l8 8l3 4l4 4l7 5l6 6l11 9l7 6z" />
    <glyph glyph-name="sina" unicode="&#xe61b;" 
d="M-21 914v0v0zM729 418q-16 3 -20.5 9.5t-1.5 11.5l3 5q1 1 2 3l4.5 9t5 13.5t2.5 16.5t-0.5 18.5t-6.5 19t-13 18.5q-14 15 -37.5 19t-47 0.5t-44 -9.5t-33.5 -11l-14 -6q-10 -3 -17 -4t-10.5 0.5t-5.5 3t-1.5 7.5t1 10t2.5 12.5t3 14.5q0 12 -1.5 23t-6.5 24.5t-15 21.5
t-25 13t-38.5 3t-53.5 -12q-37 -12 -74 -36.5t-64.5 -51t-50 -51t-35.5 -40.5l-11 -17q-34 -44 -50.5 -88.5t-15.5 -67.5v-21q6 -50 30 -89.5t58 -63.5t79.5 -41t87 -25t88.5 -11q77 -6 159 12t153 62.5t100 106.5q17 36 17.5 68t-10.5 52.5t-29.5 36t-34.5 22.5t-28 9v0z
M413 96q-111 -5 -189 44t-78 123q0 73 77.5 126.5t190 58.5t190 -37.5t77.5 -115.5q0 -74 -79 -133.5t-189 -65.5v0zM383 383q-30 -3 -53.5 -14t-37 -25t-23 -30t-13 -31.5t-4.5 -28.5t-1 -20l1 -8v-4q0 -3 2 -12.5t5.5 -17.5t12 -17t19.5 -15q69 -34 128 -21t95 60
q14 17 18.5 43t-2 52.5t-23 48t-49 33.5t-75.5 7v0zM346 187q-6 -1 -11.5 -0.5t-10.5 2.5t-9.5 4t-7.5 5.5t-5.5 7t-4.5 8.5t-2 10q0 11 6.5 22t17.5 18.5t24 8.5q9 1 18 -0.5t15 -5t11 -8t7 -11t2 -13.5q0 -11 -7 -21.5t-18 -17.5t-25 -8v-1zM434 262q-7 -5 -15 -4.5
t-11 6.5l-2 4q-1 2 -1 4v4q0 4 1 6l2 4q1 2 3 3l3 4q9 6 16.5 5t10.5 -8q3 -4 2.5 -9.5t-3 -10t-6.5 -8.5v0zM801 478q7 0 12 3t8 8t4 10q1 1 1 3q13 118 -83 134q-28 6 -51 1q-8 0 -13 -3.5t-8.5 -9t-3.5 -11.5q0 -11 7 -18t18 -7q80 18 87 -52q2 -17 -3 -33
q0 -10 7.5 -17.5t17.5 -7.5v0zM784 770q-46 10 -122 -4q-1 0 -2 -1l-1 -2l-2 -1q-11 -4 -18 -13.5t-7 -21.5q0 -15 10 -25.5t25 -10.5h3q1 0 4.5 1t7.5 1.5t9 2t8.5 3t14 1.5t25.5 -1.5t33 -7.5t36 -15.5t36 -26t32 -37.5q27 -61 10 -118q0 -1 -0.5 -2.5t-1.5 -5.5t-2 -7.5
t-2 -9t-1 -10.5q0 -9 5 -15t13 -8.5t18 -2.5q29 0 34 35q13 40 14.5 77t-5.5 64.5t-20.5 52t-31 41.5t-39 31t-42 22.5t-41.5 13.5v0z" />
    <glyph glyph-name="android" unicode="&#xe64a;" 
d="M227 410v-245q0 -25 -16.5 -42t-41 -17t-41.5 17t-17 42v245q0 24 17 41t41 17t41 -17t17 -41zM775 478h-527q0 67 36.5 123t97.5 87l-40 75q-4 7 3 11q7 3 11 -3l41 -76q54 24 114.5 24t114.5 -24l41 76q4 6 12 3q7 -4 3 -11l-41 -75q61 -31 97.5 -87t36.5 -123zM773 78
q0 -26 -18 -44.5t-44 -18.5h-42v-129q0 -25 -17.5 -42t-41.5 -17t-41.5 17t-17.5 42v129h-78v-129q0 -25 -17.5 -42t-41.5 -17t-41 17t-17 42l-1 129h-42q-26 0 -44.5 18.5t-18.5 44.5v379h523v-379zM414 595q0 9 -6.5 15.5t-15.5 6.5t-15.5 -6.5t-6.5 -15.5t6.5 -15.5
t15.5 -6.5t15.5 6.5t6.5 15.5zM654 595q0 9 -6.5 15.5t-15.5 6.5t-15.5 -6.5t-6.5 -15.5t6.5 -15.5t15.5 -6.5t15.5 6.5t6.5 15.5zM913 165q0 -25 -17 -42t-42 -17q-24 0 -41 17.5t-17 41.5v245q0 24 17 41t41 17q25 0 42 -17t17 -41v-245z" />
    <glyph glyph-name="sina-radius" unicode="&#xe61f;" 
d="M471 386q-67 -3 -113.5 -35t-46.5 -76q0 -45 47 -74t113 -26q67 3 114 38.5t47 80.5q0 44 -46.5 69.5t-114.5 22.5zM532 236q-22 -27 -57.5 -35t-75.5 12q-11 6 -17 16t-7 17v7q1 0 -0.5 8t2.5 21.5t10.5 26.5t24 24t42.5 14q31 3 53 -8.5t30 -30t6.5 -38.5t-11.5 -34z
M430 281q-12 -1 -20.5 -10t-8.5 -20t9 -17t21.5 -4.5t21 9.5t8.5 19t-8.5 17.5t-22.5 5.5zM472 293q-10 -8 -4 -17q6 -10 16 -2t5 17q-6 10 -17 2zM512 829q-91 0 -173.5 -35.5t-142.5 -95t-95 -142.5t-35 -174t35 -173.5t95 -142.5t142.5 -95t173.5 -35t174 35t142.5 95
t95 142.5t35.5 173.5t-35.5 174t-95 142.5t-142.5 95t-174 35.5zM712 255q-26 -55 -100.5 -85t-146.5 -24q-36 3 -67 10.5t-62.5 22t-52 41.5t-24.5 64v14.5t9.5 37.5t29.5 55q3 4 8 10t20 23t31 31.5t38.5 29.5t43.5 22q85 29 85 -43q-6 -17 -4 -24.5t21 -1.5q3 1 8 3.5
t19.5 6.5t27 6t27 -1t23.5 -11q11 -11 12 -26t-4 -24l-4 -9q-10 -11 11 -15q10 -2 21.5 -8.5t25 -20.5t14.5 -34.5t-10 -49.5zM638 470q-6 0 -10 4t-4 10t4 10.5t10 4.5q4 1 10 1.5t21 -2t26 -9.5t19 -25.5t5 -45.5q0 -1 -1 -2q-1 -12 -14 -12q-6 0 -10.5 4t-4.5 10l1 24
q-5 38 -52 28zM793 391h-1q-2 -18 -20 -18q-9 0 -15 5.5t-6 13.5l4 21q10 34 -7 71q-14 24 -39.5 37.5t-42.5 15t-23 -0.5l-19 -5q-9 0 -15.5 6.5t-6.5 14.5q0 17 16 21l0.5 0.5t1 0.5h0.5q42 8 73 1q24 -5 45 -17.5t39.5 -35.5t22 -55t-6.5 -76z" />
    <glyph glyph-name="phone" unicode="&#xe62e;" 
d="M742 768h-460q-10 0 -18 -8t-8 -18v-723q0 -5 8.5 -12t17.5 -7h460q10 0 18 8t8 18v716q0 10 -8 18t-18 8zM595 83q0 -9 -8 -17t-17 -8h-20h-76h-26q-10 0 -18 8t-8 17v13q0 10 8 18t18 8h26h76h26q10 0 18 -8t8 -18v-13h-7zM704 198q0 -9 -8 -17t-18 -8h-332
q-10 0 -18 8t-8 17v487q0 9 8 17t18 8h332q10 0 18 -8t8 -17v-487z" />
    <glyph glyph-name="wechat" unicode="&#xe622;" 
d="M701 525h-33q-106 1 -181 -66q-72 -64 -82 -159q-3 -32 6 -75q1 -10 -0.5 -13t-11.5 -2q-58 4 -100 11q-30 5 -51 -7q-8 -4 -75 -38q-2 -1 -6.5 -2.5t-8.5 -3.5q1 4 2 9t1 6q4 12 12 35.5t12 35.5q4 11 -7 20q-58 42 -89 99q-32 62 -24 132.5t54 125.5q80 96 212 113
q110 15 208 -31q124 -59 157 -174q2 -4 2 -8q3 -4 3 -8v0zM455 573q1 -15 13 -25.5t32 -12.5q15 0 26 11t11 26.5t-10.5 26t-26.5 11.5q-17 1 -31 -10.5t-14 -26.5v0zM317 573q0 16 -10.5 26.5t-26.5 11.5q-17 0 -30.5 -11.5t-14.5 -25.5t13.5 -26t31.5 -12q16 0 26.5 10.5
t10.5 26.5zM872 20q-49 25 -61 34q-24 16 -54 9q-127 -33 -236 39q-88 58 -101 157q-10 87 46 155q69 84 183 97q128 15 223 -61q76 -60 85 -148q8 -72 -42 -135q-19 -23 -56 -57q-12 -10 -7 -24q7 -19 17 -55q0 -1 0.5 -2t1 -4t1.5 -5v0zM603 325q14 0 24.5 8.5t10.5 20.5
t-10 21t-24 9q-11 1 -21 -9t-10 -21q0 -10 10 -19.5t20 -9.5v0zM776 325q13 0 24.5 9t11.5 20t-11.5 20.5t-24.5 9.5q-11 0 -20.5 -9.5t-9.5 -20.5t9.5 -20t20.5 -9v0z" />
    <glyph glyph-name="wechat-radius" unicode="&#xe623;" 
d="M570 384q-8 0 -14 -6.5t-6 -14.5t6 -14t14 -6q11 0 18 6t7 14t-7 14.5t-18 6.5zM680 384q-7 0 -13.5 -6.5t-6.5 -14.5t6.5 -14t13.5 -6q11 0 18 6t7 14t-7 14.5t-18 6.5zM512 832q-91 0 -174 -35.5t-143 -95.5t-95.5 -143t-35.5 -174t35.5 -174t95.5 -143t143 -95.5
t174 -35.5t174 35.5t143 95.5t95.5 143t35.5 174t-35.5 174t-95.5 143t-143 95.5t-174 35.5zM429 270q-19 0 -70 10l-70 -36l20 62q-81 58 -81 140q0 74 59 125.5t142 51.5q74 0 132 -41.5t71 -104.5q-11 1 -20 1q-71 0 -120.5 -48t-49.5 -116q0 -21 6 -43q-10 -1 -19 -1z
M725 197l15 -52l-55 31q-40 -10 -60 -10q-71 0 -121 44t-50 106.5t50 106.5t121 44q68 0 119.5 -44.5t51.5 -105.5q0 -65 -71 -120zM504 483q12 0 19 7t7 18.5t-7 19t-19 7.5q-11 0 -20.5 -7.5t-9.5 -19t9.5 -18.5t20.5 -7zM364 535q-12 0 -21 -7.5t-9 -19t9 -18.5t21 -7
q11 0 18 7t7 18.5t-7 19t-18 7.5z" />
    <glyph glyph-name="qq-radius" unicode="&#xe620;" 
d="M512 815q-117 0 -216.5 -57.5t-157 -157t-57.5 -216.5t57.5 -216t157 -157t216.5 -58t216.5 58t157 157t57.5 216t-57.5 216.5t-157 157t-216.5 57.5zM693 291q-10 -1 -18.5 13t-12.5 17q-6 -33 -32 -53q4 -3 16.5 -9t19 -13t5.5 -18q-1 -20 -31 -29t-65 -6q-30 2 -62 24
q-5 -2 -14.5 -8t-14.5 -8q-30 -14 -79.5 -6.5t-52.5 32.5q-1 12 5 19t20 13.5t17 8.5q-27 19 -32 51q-5 -1 -13.5 -14.5t-17.5 -13.5q-11 0 -15 19t-3 40q1 10 4 19.5t8.5 19t9 15t11 15t8.5 11.5q-1 35 9 48q1 63 44 106q45 45 103 45q60 1 106 -44q32 -32 40 -73
q1 -4 1.5 -15.5t1.5 -17.5q1 -3 4.5 -8.5t3.5 -8.5q1 -5 0.5 -15t0.5 -15q1 -3 3 -6.5t5.5 -7l4.5 -4.5q26 -33 28 -61q3 -21 -1 -41t-15 -21z" />
    <glyph glyph-name="home" unicode="&#xe639;" 
d="M951 365l-425 424q-7 6 -15.5 6t-15.5 -6l-319 -318v0l-106 -106q-7 -6 -7 -15t6.5 -15t15.5 -6t15 6l70 70v-352q0 -35 25 -59.5t60 -24.5h149q9 0 15 6t6 15v191h192q9 0 15 6t6 15t-6 15t-15 6h-213q-9 0 -15 -6t-6 -15v-191h-128q-18 0 -30.5 12.5t-12.5 29.5v394
l299 297l410 -409q7 -6 15.5 -6t15 6t6.5 15t-7 15zM830 308q-9 0 -15 -6.5t-6 -14.5v-234q0 -17 -12.5 -29.5t-30.5 -12.5h-149q-9 0 -15 -6t-6 -15t6 -15t15 -6h149q35 0 60 24.5t25 59.5v234q0 8 -6 14.5t-15 6.5z" />
    <glyph glyph-name="portrait" unicode="&#xe626;" 
d="M513.5 310q-107.5 0 -183.5 76.5t-76 183.5t76 183.5t183.5 76.5t184 -76.5t76.5 -183.5t-76.5 -183.5t-184 -76.5zM514 768q-82 0 -140 -58t-58 -140t58 -140t140 -58t140 58t58 140t-58 140t-140 58zM883.5 -62q-12.5 0 -21.5 9t-9 22q0 92 -45.5 170t-123.5 123.5
t-170 45.5t-170 -45.5t-123.5 -123.5t-45.5 -170q0 -13 -9 -22t-22 -9t-22 9t-9 22q0 109 54 201t146 146t200.5 54t201 -54t146 -146t53.5 -201q0 -13 -9 -22t-21.5 -9z" />
    <glyph glyph-name="error" unicode="&#xe627;" 
d="M830 700q-64 63 -146 97t-172 34t-172 -34t-146 -97t-98 -145t-34 -171.5t34 -171.5t98 -145.5t146 -97t172 -33.5t172 33.5t146 97t98 145.5t34 171.5t-34 171.5t-98 145v0v0zM737 344h-257v0v0h-193q-13 0 -22.5 11.5t-9.5 28t9.5 28t22.5 11.5h450q13 0 22.5 -11.5
t9.5 -28t-9.5 -28t-22.5 -11.5v0v0zM737 351z" />
    <glyph glyph-name="fwymoer" unicode="&#xe65b;" 
d="M852.5 308q42.5 0 72.5 30t30 72.5t-30 72.5t-72.5 30t-72.5 -30t-30 -72.5t30 -72.5t72.5 -30zM510.5 308q42.5 0 72.5 30t30 72.5t-30 72.5t-72.5 30t-72.5 -30t-30 -72.5t30 -72.5t72.5 -30zM168.5 308q42.5 0 73 30t30.5 72.5t-30.5 72.5t-73 30t-72.5 -30t-30 -72.5
t30 -72.5t72.5 -30z" />
    <glyph glyph-name="ios" unicode="&#xe64b;" 
d="M774 357q0 31 10 59.5t22.5 46.5t30.5 34t25.5 21.5t15.5 9.5l1 1q-20 27 -46.5 46t-52.5 27t-44 11.5t-34 4.5q-33 3 -70.5 -7.5t-69 -22.5t-45.5 -12q-16 0 -70.5 20t-88.5 20q-62 -1 -115.5 -31.5t-84.5 -81.5q-31 -50 -38.5 -113t5.5 -124t37.5 -117t56.5 -99
q19 -26 32.5 -42t34 -35.5t42 -28.5t43.5 -8q28 1 73.5 19t85.5 18q37 0 82.5 -18t76.5 -18q24 0 44.5 9t40 27t32 33t31.5 41q39 54 67 128v1q-8 2 -17 6.5t-31 20t-38.5 34t-29.5 51t-14 69.5zM652.5 691.5q26.5 30.5 40.5 68t10 75.5q-37 -1 -76.5 -20t-65.5 -48
q-26 -28 -41.5 -65.5t-10.5 -73.5q39 -3 78 15t65.5 48.5z" />
    <glyph glyph-name="collecth" unicode="&#xe600;" 
d="M516 771l-115 -279l-279 -17l210 -219l-61 -274l245 131l241 -125l-32 292l185 176l-270 33z" />
    <glyph glyph-name="collectn" unicode="&#xe601;" 
d="M238 -61l69 310l-236 245l315 20l129 315l141 -319l305 -38l-212 -201l35 -323l-268 139l-278 -148v0zM172 455l185 -192l-53 -237l212 113l214 -111l-29 260l158 151l-235 29l-107 244l-100 -242l-245 -15v0z" />
    <glyph glyph-name="topc" unicode="&#xe602;" 
d="M382 732v-132h-218l367 -431l329 427h-219l-2 136h-257zM164 79h696v-43h-696v43z" />
    <glyph glyph-name="toph" unicode="&#xe603;" 
d="M642 36v132h218l-367 431l-329 -427h219l2 -136h257zM164 732h696v-43h-696v43z" />
    <glyph glyph-name="topn" unicode="&#xe604;" 
d="M491 565l329 -386h-201v-150h-212l-1 115l-1 39h-207zM490 629l-373 -486h248l3 -155h291v150h249zM116 780h792v-49h-792v49z" />
    <glyph glyph-name="liveanimation" unicode="&#xe605;" 
d="M463 336l143 86l-143 99v-185zM945 149v567h-867v-567h420v-76h-132v-46h299v46h-132v76h412zM130 664h763v-463h-763v463z" />
    <glyph glyph-name="liveword" unicode="&#xe606;" 
d="M766 581q-74 -206 -208 -343q154 -130 359 -181q-22 -21 -45 -61q-216 61 -364 194q-145 -126 -370 -198q-17 35 -41 62q218 62 363 184q-135 138 -214 343h-136v65h795v-65h-139zM315 581q72 -176 193 -297q117 117 183 297h-376zM503 648q-18 61 -66 139l69 20
q50 -79 69 -136z" />
    <glyph glyph-name="fbcompany" unicode="&#xe607;" 
d="M844 692h-92l-2 136h-477v-136h-74q-36 0 -83.5 -45.5t-47.5 -104.5v-126h887v148q0 41 -41 84.5t-70 43.5zM626 692h-224v61h224v-61zM616 212h-206l-1 136h-341v-337h887v337h-340zM479 348h65v-64h-65v64z" />
    <glyph glyph-name="fbcup" unicode="&#xe608;" 
d="M988 685h-206q2 34 2.5 68.5t-0.5 50.5v17h-545q0 -7 -0.5 -18t-1 -48t1.5 -70h-206q0 -8 -1 -20.5t2 -49t12 -70t31.5 -75.5t56 -73.5t91.5 -55.5t132 -29q39 -34 88 -41v-204h-206v-70h546v75h-205l-2 197q50 5 89 43q73 5 130.5 28.5t91 55t56 73.5t31 76t11.5 70.5
t2.5 49t-1.5 20.5v0zM152 454q-27 30 -44 71q-13 34 -19 73q-3 17 -4 34h158q15 -169 68 -262q-40 8 -73 22q-52 22 -86 62zM937 632q-1 -17 -3 -34q-6 -39 -19 -73q-17 -41 -43 -71q-34 -40 -85 -62q-35 -15 -77 -23q51 94 68 263h159z" />
    <glyph glyph-name="close" unicode="&#xe609;" 
d="M477 385q-5 4 -5 5q-14 13 -117.5 116.5l-158.5 158.5q-10 10 -9 23q2 14 15.5 19.5t25.5 -3.5l5 -5q170 -170 273 -274q1 0 4 -5h1h1l4 5q45 45 136.5 137t138.5 138q11 12 25 9t18.5 -17t-5.5 -24q-1 -1 -4 -5q-194 -193 -274 -273l-6 -5l6 -5q39 -39 132 -131.5
t143 -142.5q9 -10 9 -20q0 -16 -14 -23t-27 4l-5 5l-273 273l-4 5l-5 -4q-207 -208 -276 -276q-12 -12 -26 -8q-13 3 -17 16.5t5 23.5q1 1 4 5q168 167 274 274q1 0 6 4v0v0z" />
    <glyph glyph-name="arrow" unicode="&#xe60a;" 
d="M487 217l352 367q14 12 32.5 10.5t30 -16t10 -32.5t-15.5 -30l-353 -367q-14 -12 -32 -10.5t-29.5 15.5t-10 32.5t15.5 30.5zM184 584l352 -367q14 -12 16 -30.5t-10 -32.5t-30 -15.5t-32 10.5l-353 367q-14 12 -15.5 30.5t10 32.5t30 15.5t32.5 -10.5z" />
    <glyph glyph-name="fbbet" unicode="&#xe60b;" 
d="M24 866h60v-970h-60v970zM24 -50h971v-54h-971v54zM206 212l-48 38l209 262l327 -214l275 435l52 -33l-309 -487l-332 217z" />
    <glyph glyph-name="fbconfrontation" unicode="&#xe60c;" 
d="M973 677v-562h-922v562h922zM1024 728h-1024v-664h1024v664v0zM196 589h53l65 -217q5 -17 17.5 -61.5t21.5 -70.5h2q8 26 20.5 69t18.5 63l64 217h51l-127 -401h-58zM529 241l30 34q48 -50 111 -50q39 0 61.5 18t22.5 48q0 15 -4.5 25.5t-15.5 19t-19.5 13.5t-27.5 13
l-57 25q-82 35 -82 103q0 46 36 76t90 30q70 0 118 -49l-26 -33q-41 38 -92 38q-34 0 -54 -16t-20 -43q0 -14 5 -24.5t16.5 -18.5t20 -12.5t24.5 -11.5l57 -24q40 -17 61 -41.5t21 -65.5q0 -49 -37 -81.5t-99 -32.5q-83 0 -140 60z" />
    <glyph glyph-name="fbstandings" unicode="&#xe60d;" 
d="M512 892q-103 0 -197 -40t-162.5 -108.5t-108.5 -162.5t-40 -197t40 -197t108.5 -162.5t162.5 -108.5t197 -40t197 40t162.5 108.5t108.5 162.5t40 197t-40 197t-108.5 162.5t-162.5 108.5t-197 40zM968 414h-221q5 40 17 80q32 102 98 183q96 -114 106 -263zM541 840
q166 -10 286 -125q-74 -89 -110 -206q-15 -47 -21 -95h-155v426zM477 840v-426h-123q-5 48 -20 95q-18 56 -48.5 110t-45 72.5t-24.5 28.5l-37 -34q7 -9 20 -25.5t41.5 -66t44.5 -100.5q13 -40 18 -80h-247q7 112 64.5 206.5t151 152.5t205.5 67zM56 356h251
q-1 -152 -116 -287l39 -33q127 148 128 320h119v-427h64v427h152q1 -169 121 -315q-130 -114 -302 -114q-119 0 -221.5 57t-165 155.5t-69.5 216.5zM850 77q-106 131 -107 279h225q-9 -160 -118 -279z" />
    <glyph glyph-name="fbteam" unicode="&#xe60e;" horiz-adv-x="1025" 
d="M905 460q60 58 60 142q0 80 -57 137.5t-137.5 57.5t-137.5 -57.5t-57 -137.5q0 -79 54 -135q-70 -41 -105 -114q-15 12 -30 21q38 34 59 80.5t21 98.5q0 98 -70 168t-168.5 70t-168.5 -70t-70 -168q0 -101 72 -171q-77 -43 -122.5 -118.5t-45.5 -165.5q0 -54 18 -104
l6 -18l598 -5l6 17q19 53 19 110q0 20 -2 40l356 -4l6 17q16 43 16 89q0 67 -32 125.5t-88 94.5zM588 23l-525 4q-9 35 -9 71q0 85 47 154t127 100l45 18l-40 27q-40 26 -62 67.5t-22 88.5q0 77 55 132t132.5 55t132.5 -55t55 -132q0 -50 -24 -92.5t-67 -68.5l-42 -25
l45 -20q74 -33 118 -100.5t44 -148.5q0 -39 -10 -75zM966 185l-330 4q-22 77 -78 134l8 -3q17 40 48 70.5t72 46.5l46 18l-41 27q-30 20 -47 52t-17 68q0 59 42 101.5t101.5 42.5t101.5 -42.5t42 -101.5q0 -38 -18.5 -71t-50.5 -52l-42 -26l45 -20q57 -25 91 -77.5
t34 -115.5q0 -28 -7 -55z" />
    <glyph glyph-name="fbtotal" unicode="&#xe60f;" 
d="M78 460h51v-465h-51v465zM363 808h51v-813h-51v813zM654 517h51v-522h-51v522zM902 640h51v-645h-51v645z" />
    <glyph glyph-name="icondatum2" unicode="&#xe613;" 
d="M56 -72v968h-56v-1024h1024v56h-968zM220.5 14q41.5 0 70.5 29.5t29 70.5q0 29 -15 53l181 203l138 -87l309 385v-140h51v254l-252 -70l14 -49l150 41l-283 -354l-136 86l-210 -234q-22 12 -47 12q-41 0 -70.5 -29.5t-29.5 -70.5t29.5 -70.5t71 -29.5zM220 163
q20 0 34.5 -14.5t14.5 -34.5t-14.5 -34.5t-34.5 -14.5t-34 14.5t-14 34.5t14 34.5t34 14.5z" />
    <glyph glyph-name="notice" unicode="&#xe614;" 
d="M471 745l-97 -119l-335 -4v-504h331q23 -32 94 -113q20 -22 43.5 -39t42.5 -24.5t35 -12t25 -4.5l9 -1v920q-2 0 -6.5 0.5t-19 -2.5t-30.5 -12t-41 -31t-51 -54zM931 533q-12 34 -29.5 65.5t-33 51.5t-32.5 38t-24 24t-11 9q-12 10 -28 8t-26 -14.5t-7.5 -28.5t14.5 -26
q8 -5 21 -17.5t40.5 -52t43.5 -83.5q73 -200 -105 -431q-9 -13 -7 -29t14 -25q11 -8 24 -8q19 0 30 15q60 78 94.5 154t42 140.5t2 114.5t-22.5 95z" />
    <glyph glyph-name="datedropmenu" unicode="&#xe615;" 
d="M878 -63h-685q-86 0 -125 39q-25 25 -25 53v649q0 40 30 68q18 17 48.5 27.5t56 12.5t48 3t25.5 -1l-4 -49v0v0q-33 3 -76.5 -3t-64.5 -26q-14 -13 -14 -32v-648q1 -3 2 -6.5t7 -10.5t15.5 -12.5t29.5 -10t47 -4.5h685q31 0 42 15t11 54v605q0 29 -39 54.5t-116 25.5v49
q57 0 99.5 -13.5t64 -34.5t31 -41.5t9.5 -39.5v-605q0 -118 -102 -118zM299 844h60v-176h-60v176zM422 780h181v-56h-181v56zM666 844h61v-180h-61v180zM298 508h427v-61h-427v61zM298 375h427v-59h-427v59zM298 242h305v-59h-305v59z" />
    <glyph glyph-name="top" unicode="&#xe618;" 
d="M510 509q12 14 25 0l270 -310q6 -6 15 -7t15.5 5t7 15t-5.5 15l-270 310q-18 20 -44 20.5t-45 -20.5l-280 -309q-6 -7 -6 -16t7 -14.5t15.5 -5.5t14.5 7z" />
    <glyph glyph-name="down" unicode="&#xe619;" 
d="M478 252q19 -20 45 -20t44 21l270 309q6 7 5.5 15.5t-7 14.5t-15.5 5.5t-15 -7.5l-270 -309q-13 -14 -25 -1l-281 310q-6 7 -14.5 7.5t-15.5 -5.5t-7 -15t6 -15z" />
    <glyph glyph-name="iconcompany" unicode="&#xe61a;" 
d="M770 557q-51 101 -148.5 162t-214.5 61q-110 0 -204 -54.5t-148.5 -148.5t-54.5 -204.5t54.5 -204.5t148.5 -148.5t204 -54.5q116 0 213 60t149 160q13 25 83 75.5t108 74t63 38.5v0q-25 14 -63 37t-107.5 73t-82.5 74z" />
    <glyph glyph-name="down1" unicode="&#xe610;" horiz-adv-x="1000" 
d="M232 354h174v279h209v-279h174l-279 -278z" />
    <glyph glyph-name="top1" unicode="&#xe611;" horiz-adv-x="1000" 
d="M792 402h-174v-279h-209v279h-174l279 279z" />
    <glyph glyph-name="next" unicode="&#xe624;" 
d="M306.5 711.5q-7.5 -6.5 -7.5 -16.5t7 -16l334 -331q7 -7 17.5 -7t17.5 6.5t7.5 16.5t-7.5 17l-334 330q-7 7 -17 7t-17.5 -6.5zM305 22q6 -8 15.5 -8.5t17.5 6.5l337 327q7 7 7.5 17t-6 18t-16 8.5t-16.5 -6.5l-337 -327q-7 -7 -7.5 -17t5.5 -18z" />
    <glyph glyph-name="prev" unicode="&#xe625;" 
d="M696.5 730q7.5 -7 7.5 -16.5t-7 -16.5l-335 -330q-7 -7 -17 -7.5t-17.5 6.5t-7.5 16.5t7 16.5l335 330q7 7 17 7.5t17.5 -6.5zM698.5 40.5q-6.5 -7.5 -16 -8t-16.5 5.5l-338 327q-7 7 -7.5 17.5t5.5 18t15.5 8t16.5 -6.5l339 -327q7 -7 7.5 -17t-6 -17.5z" />
    <glyph glyph-name="iconchoicec" unicode="&#xe617;" 
d="M512 -96q-98 0 -187 38q-86 36 -152.5 102.5t-102.5 152.5q-38 89 -38 187t38 187q36 86 102.5 152.5t152.5 102.5q89 38 187 38q134 0 249 -70q12 -7 15.5 -21.5t-4 -27.5t-22 -16.5t-27.5 4.5q-97 59 -211 59q-111 0 -204.5 -55t-148.5 -148.5t-55 -204.5t55 -204.5
t148.5 -148.5t204.5 -55t204.5 55t148.5 148.5t55 204.5q0 58 -16 112q-4 15 3 28t21.5 17t27.5 -3t17 -22q19 -64 19 -132q0 -98 -38 -187q-36 -86 -102.5 -152.5t-152.5 -102.5q-89 -38 -187 -38zM552 57q-14 0 -24 9l-347 312q-11 10 -11.5 25t9.5 26t24.5 11.5
t26.5 -9.5l312 -281l382 683q8 13 22 17t27 -3.5t17 -21.5t-3 -27l-404 -723q-8 -15 -25 -18h-6v0z" />
    <glyph glyph-name="iconchoicen" unicode="&#xe616;" 
d="M512 792q83 0 159 -32q73 -31 129.5 -87.5t87.5 -129.5q32 -76 32 -159t-32 -159q-31 -73 -87.5 -129.5t-129.5 -87.5q-76 -32 -159 -32t-159 32q-73 31 -129.5 87.5t-87.5 129.5q-32 76 -32 159t32 159q31 73 87.5 129.5t129.5 87.5q76 32 159 32zM512 864
q-98 0 -186.5 -38t-153 -102.5t-102.5 -153t-38 -186.5t38 -186.5t102.5 -153t153 -102.5t186.5 -38t186.5 38t153 102.5t102.5 153t38 186.5t-38 186.5t-102.5 153t-153 102.5t-186.5 38v0z" />
    <glyph glyph-name="iconunfinish" unicode="&#xe61c;" 
d="M860 768h36v64h-34v0h-695h-39v-64h41q11 -128 70 -230t147 -148q-91 -47 -151.5 -151.5t-71.5 -238.5h-34v-64h32v0h695v0h40v64h-42q-10 131 -69 235t-148 152q91 45 151.5 147.5t71.5 233.5zM703 244q42 -57 65 -131q17 -54 23 -113h-564q5 59 22 113q23 74 65 131
q40 54 90 83t104.5 29t104.5 -29t90 -83zM514.5 421q-54.5 0 -104.5 28.5t-90 81.5q-42 55 -65 128q-17 53 -22 109h563q-5 -56 -21 -109q-24 -73 -65 -128q-40 -53 -90.5 -81.5t-105 -28.5z" />
    <glyph glyph-name="iconfinish" unicode="&#xe61d;" 
d="M512 832q-91 0 -174 -35.5t-143 -95.5t-95.5 -143t-35.5 -174t35.5 -174t95.5 -143t143 -95.5t174 -35.5t174 35.5t143 95.5t95.5 143t35.5 174t-35.5 174t-95.5 143t-143 95.5t-174 35.5zM783.5 112q-53.5 -53 -122.5 -82q-71 -31 -149 -31t-149 31q-69 29 -122.5 82
t-82.5 122q-30 72 -30 150t30 150q29 69 82.5 122t122.5 82q71 31 149 31t149 -31q69 -29 122.5 -82t82.5 -122q30 -72 30 -150t-30 -150q-29 -69 -82.5 -122zM513 703h-64v-319v-4v-60h319v64h-255v319z" />
    <glyph glyph-name="iconresults" unicode="&#xe61e;" 
d="M941.5 675q-14.5 15 -36 15.5t-36.5 -14.5l-481 -465l-224 207q-15 14 -36.5 13.5t-35.5 -16.5t-13.5 -37t16.5 -35l259 -240v0v0h1l4 -4h0.5t0.5 -0.5t1 -1l1 -0.5l1 -0.5l1 -0.5l1 -0.5t1.5 -0.5t1 -0.5t1 -0.5t1 -0.5t1.5 -0.5t1 -1h1h1q1 0 2 -1h1h1h1q1 -1 2 -1h1h1
h0.5h0.5h2v0v0h3v0v0h2h0.5h0.5h2h0.5h0.5h1h1q1 1 2 1h1h1h1q1 1 2 1h1l1 1h1t1.5 0.5t1 0.5t1 0.5t1 0.5t1.5 0.5l1 0.5l1 0.5t1 1t1 1t1.5 0.5t0.5 0.5v0.5q1 0 1.5 0.5l0.5 0.5v0l2 2l1 1v0h1l515 499q15 14 15.5 35.5t-14 36.5z" />
    <glyph glyph-name="iconhint" unicode="&#xe621;" 
d="M281 -38q-99 0 -133 5q-73 9 -100 59q-14 30 -13 58.5t12 51.5q17 33 156.5 284t184.5 324q54 89 130 90q25 0 47 -11.5t34 -30.5q30 -47 48 -76q5 -8 3 -17.5t-10 -14.5t-17.5 -3t-14.5 10q-23 36 -48 76q-13 21 -42 21q-50 -1 -91 -68q-44 -71 -184 -323t-155 -282
q-6 -13 -7 -30t7 -37q16 -29 65 -36q69 -8 538 4q188 5 213 4q27 0 41 21q13 19 13 48t-13 55q-14 30 -101 169q-5 8 -2.5 17.5t10.5 14.5t17 3t14 -10q88 -142 104 -174q17 -38 17 -78q-1 -41 -21 -70q-28 -43 -80 -42q-24 1 -210 -4q-295 -8 -412 -8zM713.5 314
q39.5 24 54.5 70q21 65 -14 122.5t-115 80.5q-38 12 -77.5 13.5t-113.5 -8.5l-20 -63q-9 -29 -1 -44.5t27 -20.5q19 -6 34.5 3t24.5 37l4 11q50 7 96 -6q45 -14 62.5 -41.5t8.5 -55.5q-6 -20 -33 -33t-139 -19l-14 -44q-10 -29 -2 -44.5t27 -20.5q17 -6 32 1t24 29
q95 9 134.5 33zM543.5 156.5q-10.5 15.5 -42.5 25.5q-33 9 -50 2t-23 -25.5t4.5 -34t42.5 -25t49.5 -2t23.5 25.5t-4.5 33.5z" />
    <glyph glyph-name="favourite" unicode="&#xe628;" 
d="M772 248l11 -93q-17 -17 -28 -21q-15 -5 -29 2t-20 22v4l-5 31l-8 89l152 164l-222 47l-111 197v-4l-109 -195l-217 -48l147 -161l-31 -234l210 101l201 -90v1l86 -40q1 -1 2.5 -3t4.5 -9t4.5 -14t1 -16t-4.5 -17q-4 -9 -7.5 -14t-7.5 -8t-5.5 -4t-7.5 -2.5t-8 -1.5
l-259 124l-261 -125q-22 6 -35 25l36 293l-200 219q1 22 18 39l281 55l145 269q16 4 31 0l145 -269l281 -55q16 -17 18 -40z" />
    <glyph glyph-name="iconphone" unicode="&#xe629;" 
d="M821 -29q9 8 11 20t-5 22l-123 188q-7 10 -16 13q-14 4 -29 -5l-46 -24q-28 -15 -56 -6t-48 39q-33 49 -66 117q-37 67 -58 122q-13 33 -4.5 61t36.5 43l49 24q27 15 17 41l-82 209q-6 14 -20 19q-10 3 -17 1l-6 -2l-71 -34l-5 -3q-27 -19 -57.5 -57t-32.5 -76
q-3 -49 29.5 -169.5t88.5 -231.5l12 -24q59 -110 139 -206t121 -122q11 -7 24 -11q39 -9 73.5 -5.5t61.5 12.5l6 3l68 38l6 4v0z" />
    <glyph glyph-name="icofeedback" unicode="&#xe62a;" 
d="M927 -61h-830q-13 0 -22 9t-9 22v766q0 13 9 22t22 9h462q12 0 21 -9t9 -21.5t-9 -21.5t-21 -9h-432v-705h769v393q0 13 9 21.5t21.5 8.5t21.5 -8.5t9 -21.5v-424q0 -13 -9 -22t-21 -9zM355 173q-13 0 -23 10q-9 10 -8 24l18 157q1 12 9 19l471 449q9 9 22 8.5t21 -9.5
l121 -125q8 -8 8 -20.5t-8 -21.5l-467 -477q-9 -9 -21 -9l-142 -5h-1zM401 347l-12 -111l95 3l437 446l-79 82z" />
    <glyph glyph-name="icosucceed" unicode="&#xe62b;" 
d="M509.5 -58q-90.5 0 -173.5 35q-80 34 -141.5 95.5t-95.5 141.5q-35 83 -35 173.5t35 173.5q34 79 95.5 141t141.5 96q83 35 173.5 35t173.5 -35q80 -34 141.5 -95.5t95.5 -141.5q35 -83 35 -173.5t-35 -173.5q-34 -80 -95.5 -141.5t-141.5 -95.5q-83 -35 -173.5 -35z
M510 771q-104 0 -192.5 -51.5t-140 -140t-51.5 -192.5t51.5 -192.5t140 -140t192.5 -51.5t192.5 51.5t139.5 140t51 192.5t-51 192.5t-139.5 140t-192.5 51.5zM446 204l-183 167q-9 9 -10 21.5t8 22t21.5 10t21.5 -7.5l140 -128l271 273q9 9 22 9t22 -9t9 -22t-9 -22z" />
    <glyph glyph-name="iconemail" unicode="&#xe62c;" 
d="M935 59h-843q-12 0 -21 9t-9 22v434q0 16 12.5 25t27.5 5l408 -129l309 131q11 5 23 0t17 -16.5t0 -23.5t-16 -17l-320 -135q-10 -4 -21 -1l-379 119v-361h781v521h-813q-13 0 -22 9t-9 22t9 22t22 9h844q13 0 22 -9t9 -22v-583q0 -13 -9 -22t-22 -9z" />
    <glyph glyph-name="tennisball" unicode="&#xe62d;" horiz-adv-x="1029" 
d="M494 -128q-55 -2 -109 13t-97 40t-82.5 56.5t-68 63t-50 58.5t-31.5 42.5t-11 16.5q26 135 437 -94q21 -12 23 -13q127 -70 224 -43q55 16 107.5 47.5t95.5 77t67 108.5t18 132q-26 331 -313 438q-166 61 -373 39q-30 -4 -29 -4q94 41 190 45t176 -24t149.5 -80.5
t117 -120.5t73 -147t20.5 -157q-6 -112 -52.5 -204.5t-120.5 -153.5t-166.5 -96t-194.5 -40zM589 750q68 -16 122.5 -36.5t92 -43t65 -50.5t43.5 -54t25.5 -59t13 -60.5t3.5 -62.5q5 -52 -12 -95t-45 -70.5t-67 -49t-73.5 -32t-70.5 -16.5q-31 -5 -64.5 0t-78.5 23.5
t-78.5 35t-98 50t-102.5 52.5q-38 18 -71.5 26t-57 7t-43.5 -8.5t-31.5 -16t-21 -19.5t-12 -15.5t-3.5 -7.5v0q-20 72 -23.5 138.5t6.5 115.5t26.5 91t36.5 70.5t38 48t29.5 29t12.5 9.5q9 2 26 4.5t68 8.5t101 7.5t118 -3t126 -17.5z" />
    <glyph glyph-name="toolbarpreserve" unicode="&#xe62f;" 
d="M322 418l117 -232q4 10 11.5 27t33 69t53.5 102t72.5 116.5t90.5 121.5t106.5 107.5t121.5 85.5q-2 -24 -8 -79.5t-7 -85t5.5 -76.5t24.5 -89q-47 -11 -119.5 -72.5t-142.5 -143t-132 -167.5t-95 -148q-92 116 -193.5 200.5t-178.5 113.5z" />
    <glyph glyph-name="toolbarhide" unicode="&#xe630;" horiz-adv-x="1041" 
d="M546 61q-258 0 -536 271l-10 9l7 12q5 8 13 19.5t32 41.5t51.5 56.5t70 58.5t87.5 55t105.5 39t122.5 16q258 0 532 -262l9 -10l-6 -11q-5 -8 -13 -20.5t-31.5 -43t-50.5 -58t-69 -60.5t-87 -57t-104.5 -40t-122.5 -16zM66 346q251 -238 479 -238q68 0 133 22t109 51.5
t85 69.5t59.5 64t32.5 46q-246 231 -474 231q-68 0 -133 -21.5t-110 -50t-86 -67t-60.5 -62t-34.5 -45.5zM498 67q-118 0 -202 84t-84 202t84 202t202 84t202 -84t84 -202t-84 -202t-202 -84zM498 590q-98 0 -167.5 -69.5t-69.5 -167.5t69.5 -167.5t167.5 -69.5t167.5 69.5
t69.5 167.5t-69.5 167.5t-167.5 69.5zM498.5 497q59.5 0 101.5 -42.5t42 -102t-42 -101.5t-101.5 -42t-102 42t-42.5 101.5t42.5 102t102 42.5zM46 113l-15 30l919 477l16 -31l-920 -476v0z" />
    <glyph glyph-name="404cross" unicode="&#xe631;" horiz-adv-x="1025" 
d="M1024 461h-437v435h-151v-435h-435v-154h435v-435h151v435h437v154z" />
    <glyph glyph-name="404circle" unicode="&#xe632;" 
d="M513 -119h-1q-104 0 -200 42t-167 118l41 39q63 -67 148.5 -104.5t177.5 -37.5zM625 -106l-13 56q90 20 165 75.5t121 136.5l50 -29q-53 -90 -137.5 -153t-185.5 -86zM77 131q-68 117 -68 253q0 75 22 147l55 -17q-20 -63 -20 -130q0 -120 61 -224zM993 236l-55 17
q20 64 20 131q0 120 -60 223l49 29q67 -117 68 -252q0 -76 -22 -148zM125 605l-49 29q52 91 136.5 153.5t185.5 86.5l13 -56q-90 -21 -165 -76.5t-121 -136.5zM838 687q-63 68 -148 105.5t-178 37.5l-2 57h2q104 0 200.5 -42t167.5 -119z" />
    <glyph glyph-name="iconepdatabase" unicode="&#xe633;" horiz-adv-x="1025" 
d="M579 -9h-231q-6 0 -10 4.5t-4 10.5v717q0 6 4 10.5t10 4.5h231q6 0 10.5 -4.5t4.5 -10.5v-717q0 -6 -4.5 -10.5t-10.5 -4.5zM461.5 98q22.5 0 38.5 17t16 41t-16 41.5t-38.5 17.5t-38.5 -17.5t-16 -41.5t16 -41t38.5 -17zM520 622h-113v-251h113v251zM246 -9h-231
q-6 0 -10.5 4.5t-4.5 10.5v717q0 6 4.5 10.5t10.5 4.5h231q6 0 10 -4.5t4 -10.5v-717q0 -6 -4 -10.5t-10 -4.5zM174 624h-113v-251h113v251zM119.5 215q-22.5 0 -38.5 -17.5t-16 -41.5t16 -41t38.5 -17t38.5 17t16 41t-16 41.5t-38.5 17.5zM1012 41l-225 -52q-6 -1 -11 2.5
t-7 9.5l-142 699q-2 6 1.5 11.5t9.5 7.5l225 52q6 1 11.5 -2.5t6.5 -9.5l143 -699q1 -6 -2.5 -11.5t-9.5 -7.5zM829 643l-111 -25l50 -245l111 25zM911.5 187.5q-4.5 21.5 -21.5 33.5t-37 7.5t-31 -23t-6.5 -40.5t21.5 -34t37 -7t31 23.5t6.5 40z" />
    <glyph glyph-name="iconepindex" unicode="&#xe634;" 
d="M1012.5 794q-11.5 14 -27.5 14h-946q-16 0 -27.5 -14t-11.5 -34v-752q0 -20 11.5 -34t27.5 -14h946q16 0 27.5 14t11.5 34v752q0 20 -11.5 34zM255 201h-92v7q0 3 2.5 5.5t6.5 2.5h75q3 0 5.5 -2.5t2.5 -5.5v-7zM368 201h-92v113q0 4 2.5 6.5t5.5 2.5h75q4 0 6.5 -2.5
t2.5 -6.5v-113zM480 201h-92v157q0 4 2.5 6.5t6.5 2.5h75q3 0 5.5 -2.5t2.5 -6.5v-157zM512 26q-17 0 -29 11.5t-12 28t12 28.5t29 12t29 -12t12 -28.5t-12 -28t-29 -11.5zM593 201h-92v139q0 4 2.5 6.5t5.5 2.5h75q4 0 6.5 -2.5t2.5 -6.5v-139zM706 201h-93v209
q0 4 2.5 6.5t6.5 2.5h75q4 0 6.5 -2.5t2.5 -6.5v-209v0zM818 201h-92v297q0 4 2.5 6.5t6.5 2.5h75q3 0 5.5 -2.5t2.5 -6.5v-297v0zM887 671l-48 -83q-2 -2 -5 -2.5t-5 2.5l-11 14l-295 -230l-152 65l-242 -230q-2 -2 -6 -2t-6 3l-12 12q-2 3 -2 6.5t2 5.5l258 245l155 -65
l279 217l-11 15q-2 2 -1 5t4 4l92 27q4 1 6 -2.5t0 -6.5z" />
    <glyph glyph-name="iconepnews" unicode="&#xe635;" horiz-adv-x="1027" 
d="M975 -81h-921q-21 0 -36 15t-15 36v491q0 11 7.5 18t18.5 7h972q10 0 17.5 -7t7.5 -18v-491q0 -21 -15 -36t-36 -15zM645 242h-225q-20 0 -34 -14t-14 -34t14 -34t34 -14h225q20 0 34 14t14 34t-14 34t-34 14zM164 555l23 41h658l23 -41h-704zM227 683h566l22 -41h-610z
M273 769h484l20 -40h-524zM800 811l161 -306h-896l161 306h574zM823 849h-620l-201 -382h1023l-202 382v0z" />
    <glyph glyph-name="iconepresult" unicode="&#xe636;" 
d="M916 -128h-808q-21 0 -35.5 14.5t-14.5 35.5v924q0 21 14.5 35.5t35.5 14.5h808q21 0 35.5 -14.5t14.5 -35.5v-924q0 -21 -14.5 -35.5t-35.5 -14.5zM538 610h-261q-10 0 -16.5 -7t-6.5 -17t6.5 -17t16.5 -7h261q10 0 17 7t7 17t-7 17t-17 7zM538 414h-261q-10 0 -16.5 -7
t-6.5 -17t6.5 -17t16.5 -7h261q10 0 17 7t7 17t-7 17t-17 7zM538 213h-261q-10 0 -16.5 -7t-6.5 -16.5t6.5 -16.5t16.5 -7h261q10 0 17 7t7 16.5t-7 16.5t-17 7zM818 652q-6 7 -15 8t-16 -5l-85 -72l-39 46q-4 5 -11.5 4.5t-13.5 -5.5t-7.5 -12t2.5 -12l56 -67q4 -5 11.5 -5
t13.5 6q1 1 3 2q3 2 5 3l93 79q7 5 8 14t-5 16zM818 456.5q-6 6.5 -15 7.5t-16 -5l-85 -72l-39 46q-4 5 -11.5 5t-13.5 -5.5t-7.5 -12.5t2.5 -12l56 -67q4 -5 11.5 -4.5t13.5 5.5q1 1 3 2q3 2 5 4l93 78q7 6 8 15t-5 15.5zM818 256q-6 7 -15 7.5t-16 -5.5l-85 -72l-39 46
q-4 5 -11.5 5t-13.5 -5.5t-7.5 -12.5t2.5 -12l56 -67q4 -5 11.5 -4.5t13.5 5.5l3 3q3 1 5 3l93 78q7 6 8 15t-5 16z" />
    <glyph glyph-name="iconepschedule" unicode="&#xe637;" 
d="M957.5 -113.5q-14.5 -14.5 -35.5 -14.5h-820q-21 0 -35.5 14.5t-14.5 34.5v43h920v-43q0 -20 -14.5 -34.5zM52 738q0 20 14.5 34.5t35.5 14.5h112q-3 4 -3 9v86q0 6 4 10t10 4h9q6 0 10 -4t4 -10v-86q0 -5 -3 -9h158q-4 4 -4 9v86q0 6 4 10t10 4h10q5 0 9 -4t4 -10v-86
q0 -5 -3 -9h150q-3 4 -3 9v86q0 6 4 10t10 4h10q5 0 9 -4t4 -10v-86q0 -5 -3 -9h155q-3 4 -3 9v86q0 6 4 10t10 4h10q5 0 9 -4t4 -10v-86q0 -5 -3 -9h122q21 0 35.5 -14.5t14.5 -34.5v-755h-920v755zM299 644h-39q-10 0 -10 -10t10 -10h39q10 0 10 10t-10 10zM365 634
q0 -10 10 -10h40q10 0 10 10t-10 10h-40q-10 0 -10 -10zM418.5 775q-14.5 0 -24.5 -10t-10 -23.5t10 -23.5t24.5 -10t24.5 10t10 23.5t-10 23.5t-24.5 10zM603.5 775q-14.5 0 -24.5 -10t-10 -23.5t10 -23.5t24.5 -10t24.5 10t10 23.5t-10 23.5t-24.5 10zM646 644h-39
q-10 0 -10 -10t10 -10h39q10 0 10 10t-10 10zM712 634q0 -10 10 -10h40q10 0 10 10t-10 10h-40q-10 0 -10 -10zM838 624h40q9 0 9 10t-9 10h-40q-10 0 -10 -10t10 -10zM823 741.5q0 13.5 -10 23.5t-24.5 10t-24.5 -10t-10 -23.5t10 -23.5t24.5 -10t24.5 10t10 23.5zM560 132
h248v75h-70v316h-70q-40 -25 -97 -36v-57h73v-223h-84v-75v0v0zM531 624q9 0 9 10t-9 10h-40q-10 0 -10 -10t10 -10h40zM345 124q62 0 103.5 31t41.5 83q0 37 -20.5 61t-55.5 34v3q64 25 64 86q0 52 -36.5 80t-98.5 28q-64 0 -122 -48l48 -58q38 33 70 33q45 0 45 -42
q0 -51 -88 -51v-66q58 0 79 -13t21 -40q0 -22 -16 -33.5t-44 -11.5q-42 0 -82 38l-43 -59q47 -55 134 -55zM233.5 708q14.5 0 24.5 10t10 23.5t-10 23.5t-24.5 10t-25 -10t-10.5 -23.5t10.5 -23.5t25 -10zM144 624h40q10 0 10 10t-10 10h-40q-10 0 -10 -10t10 -10z" />
    <glyph glyph-name="iconepscore" unicode="&#xe638;" horiz-adv-x="1026" 
d="M985 -72h-406q-17 0 -28.5 11.5t-11.5 28.5v422h192v-15q60 0 83.5 -15.5t23.5 -46.5q0 -25 -18 -39t-48 -14q-46 0 -86 39l-36 -48q47 -53 129 -53q58 0 97 30t39 81q0 53 -45 81h154v24h-170q49 27 49 80q0 48 -34.5 75t-91.5 27q-62 0 -116 -47l39 -47q37 34 74 35
q24 -1 37.5 -13.5t13.5 -35.5q0 -58 -94 -58v-16h-192v386q0 17 11.5 28.5t28.5 11.5h406q17 0 28.5 -11.5t11.5 -28.5v-832q0 -17 -11.5 -28.5t-28.5 -11.5zM447 -72h-406q-17 0 -28.5 11.5t-11.5 28.5v422h247q-37 -54 -130 -138v-43h250v63h-81q-24 0 -61 -4
q69 67 99 122h162v-422q0 -17 -11.5 -28.5t-28.5 -11.5zM350 475q0 52 -32 83.5t-85 31.5q-37 0 -64.5 -13.5t-54.5 -42.5l40 -41q35 39 69 39q27 0 41.5 -16t14.5 -45q0 -26 -17 -57h-261v386q0 17 11.5 28.5t28.5 11.5h406q17 0 28.5 -11.5t11.5 -28.5v-386h-150
q13 32 13 61z" />
    <glyph glyph-name="set" unicode="&#xe63a;" 
d="M718 808l67 -50q-19 -93 21 -171q45 -88 154 -141v-105q-86 -32 -131 -104q-52 -83 -40 -199l-82 -68q-82 64 -170 64q-99 0 -186 -78l-103 73q6 67 -9 124.5t-44 98t-61.5 68t-69.5 45.5v74q105 32 158 115t42 199l78 50q100 -75 196 -75q102 0 180 80zM706 896
q-3 -4 -7.5 -11t-20 -25t-33.5 -32t-47 -25t-60 -11q-91 0 -192 90l-152 -98q1 -5 3 -14.5t4 -36t-0.5 -51.5t-14.5 -57.5t-33 -57.5t-60.5 -47t-92.5 -31v-168q9 -3 24 -8.5t51 -30.5t61.5 -57.5t40.5 -93t3 -133.5l180 -126q3 4 8.5 10.5t23.5 23.5t37 30t48.5 23.5
t59.5 10.5q86 0 169 -84l152 126q-1 5 -3 13.5t-3.5 34t0.5 49t12 54t28 54.5t52 45t80 31v196q-3 1 -8.5 3t-21 9t-30.5 15.5t-34 23t-34.5 30.5t-28.5 39t-19 48.5t-4 58t14 68.5l-152 112v0zM512 160q-59 0 -111 29l32 56q37 -21 79 -21q66 0 113 47t47 113t-47 113
t-113 47t-113 -47t-47 -113q0 -41 20 -77l-57 -30q-27 50 -27 107q0 93 65.5 158.5t158.5 65.5t158.5 -65.5t65.5 -158.5t-65.5 -158.5t-158.5 -65.5z" />
    <glyph glyph-name="iconclock01" unicode="&#xe63b;" 
d="M512 -63q-91 0 -174 35q-81 34 -143 96t-96 142q-35 84 -35 175q0 140 79 254q8 11 20.5 13t23 -5t12.5 -19.5t-5 -23.5q-68 -99 -68 -219q0 -105 51.5 -194t140.5 -141t194 -52t194 52t140.5 141t51.5 194q0 98 -46.5 183.5t-127.5 139t-178 62.5q-13 1 -21.5 10.5
t-7 22.5t11 21t22.5 7q83 -7 158 -44t132 -99q58 -62 88.5 -140.5t30.5 -162.5q0 -91 -35 -175q-34 -80 -96 -142t-143 -96q-83 -35 -174 -35zM439 835q24 0 41 -17t17 -41t-17 -41t-41 -17t-41 17t-17 41t17 41t41 17zM439 896q-50 0 -85 -35t-35 -84.5t35 -84t84.5 -34.5
t84.5 34.5t35 84t-35 84.5t-84 35v0zM513 354q-13 0 -22 9t-9 22t9 22l337 340q9 9 21.5 9.5t21.5 -8.5t9.5 -22t-8.5 -22l-337 -340q-9 -10 -22 -10z" />
    <glyph glyph-name="iconclock02" unicode="&#xe63c;" 
d="M512 -63q-91 0 -174 35q-81 34 -143 96t-96 142q-35 84 -35 175q0 140 79 254q8 11 20.5 13t23 -5t12.5 -19.5t-5 -23.5q-68 -99 -68 -219q0 -105 51.5 -194t140.5 -141t194 -52t194 52t140.5 141t51.5 194q0 98 -46.5 183.5t-127.5 139t-178 62.5q-13 1 -21.5 10.5
t-7 22.5t11 21t22.5 7q83 -7 158 -44t132 -99q58 -62 88.5 -140.5t30.5 -162.5q0 -91 -35 -175q-34 -80 -96 -142t-143 -96q-83 -35 -174 -35zM439 835q24 0 41 -17t17 -41t-17 -41t-41 -17t-41 17t-17 41t17 41t41 17zM439 896q-50 0 -85 -35t-35 -84.5t35 -84t84.5 -34.5
t84.5 34.5t35 84t-35 84.5t-84 35v0zM491 363q-9 9 -9 22t9 22t22 9l479 -2q13 0 22 -9t9 -22t-9 -22t-22 -9l-479 2q-13 0 -22 9z" />
    <glyph glyph-name="iconclock03" unicode="&#xe63d;" 
d="M512 -63q-91 0 -174 35q-81 34 -143 96t-96 142q-35 84 -35 175q0 140 79 254q8 11 20.5 13t23 -5t12.5 -19.5t-5 -23.5q-68 -99 -68 -219q0 -105 51.5 -194t140.5 -141t194 -52t194 52t140.5 141t51.5 194q0 98 -46.5 183.5t-127.5 139t-178 62.5q-13 1 -21.5 10.5
t-7 22.5t11 21t22.5 7q83 -7 158 -44t132 -99q58 -62 88.5 -140.5t30.5 -162.5q0 -91 -35 -175q-34 -80 -96 -142t-143 -96q-83 -35 -174 -35zM439 835q24 0 41 -17t17 -41t-17 -41t-41 -17t-41 17t-17 41t17 41t41 17zM439 896q-50 0 -85 -35t-35 -84.5t35 -84t84.5 -34.5
t84.5 34.5t35 84t-35 84.5t-84 35v0zM492 407q9 9 21.5 9t21.5 -9t9 -22v-479q0 -13 -9 -22t-22 -9t-22 9t-9 22l1 479q0 13 9 22z" />
    <glyph glyph-name="iconclock04" unicode="&#xe63e;" 
d="M512 -63q-91 0 -174 35q-81 34 -143 96t-96 142q-35 84 -35 175q0 140 79 254q8 11 20.5 13t23 -5t12.5 -19.5t-5 -23.5q-68 -99 -68 -219q0 -105 51.5 -194t140.5 -141t194 -52t194 52t140.5 141t51.5 194q0 98 -46.5 183.5t-127.5 139t-178 62.5q-13 1 -21.5 10.5
t-7 22.5t11 21t22.5 7q83 -7 158 -44t132 -99q58 -62 88.5 -140.5t30.5 -162.5q0 -91 -35 -175q-34 -80 -96 -142t-143 -96q-83 -35 -174 -35zM439 835q24 0 41 -17t17 -41t-17 -41t-41 -17t-41 17t-17 41t17 41t41 17zM439 896q-50 0 -85 -35t-35 -84.5t35 -84t84.5 -34.5
t84.5 34.5t35 84t-35 84.5t-84 35v0zM514 416q12 0 21 -9t9 -22t-9 -22l-339 -338q-9 -9 -21.5 -9t-21.5 9t-9 21.5t9 21.5l339 339q9 9 22 9z" />
    <glyph glyph-name="iconclock05" unicode="&#xe63f;" 
d="M512 -63q-91 0 -174 35q-81 34 -143 96t-96 142q-35 84 -35 175q0 140 79 254q8 11 20.5 13t23 -5t12.5 -19.5t-5 -23.5q-68 -99 -68 -219q0 -105 51.5 -194t140.5 -141t194 -52t194 52t140.5 141t51.5 194q0 98 -46.5 183.5t-127.5 139t-178 62.5q-13 1 -21.5 10.5
t-7 22.5t11 21t22.5 7q83 -7 158 -44t132 -99q58 -62 88.5 -140.5t30.5 -162.5q0 -91 -35 -175q-34 -80 -96 -142t-143 -96q-83 -35 -174 -35zM439 835q24 0 41 -17t17 -41t-17 -41t-41 -17t-41 17t-17 41t17 41t41 17zM439 896q-50 0 -85 -35t-35 -84.5t35 -84t84.5 -34.5
t84.5 34.5t35 84t-35 84.5t-84 35v0zM535 405q9 -9 9 -21.5t-9 -21.5t-22 -9l-479 1q-12 0 -21 9t-9 21.5t9 21.5t21 9l479 -1q13 0 22 -9z" />
    <glyph glyph-name="iconclock06" unicode="&#xe640;" 
d="M512 -63q-91 0 -174 35q-81 34 -143 96t-96 142q-35 84 -35 175q0 140 79 254q8 11 20.5 13t23 -5t12.5 -19.5t-5 -23.5q-68 -99 -68 -219q0 -105 51.5 -194t140.5 -141t194 -52t194 52t140.5 141t51.5 194q0 98 -46.5 183.5t-127.5 139t-178 62.5q-13 1 -21.5 10.5
t-7 22.5t11 21t22.5 7q83 -7 158 -44t132 -99q58 -62 88.5 -140.5t30.5 -162.5q0 -91 -35 -175q-34 -80 -96 -142t-143 -96q-83 -35 -174 -35zM439 835q24 0 41 -17t17 -41t-17 -41t-41 -17t-41 17t-17 41t17 41t41 17zM439 896q-50 0 -85 -35t-35 -84.5t35 -84t84.5 -34.5
t84.5 34.5t35 84t-35 84.5t-84 35v0zM544 384q0 -13 -9 -22t-21.5 -9t-21.5 9l-339 339q-9 9 -9 22t9 22t22 9t22 -9l338 -340q9 -9 9 -21z" />
    <glyph glyph-name="iconclock07" unicode="&#xe641;" 
d="M386 529q-21 17 -67 17h-115v-149h115q46 0 67 19t21 60q0 36 -21 53zM512 833q-91 0 -174 -35.5t-143 -95.5t-95.5 -143t-35.5 -174t35.5 -174t95.5 -143t143 -95.5t174 -35.5t174 35.5t143 95.5t95.5 143t35.5 174t-35.5 174t-95.5 143t-143 95.5t-174 35.5zM431 381.5
q-35 -34.5 -97 -34.5q-83 1 -130 0v-181h-29h-29v429h29h159q62 0 97 -31t35 -87q0 -61 -35 -95.5zM814 166l-152 213l-65 -63v-150h-29h-29v429h29h29v-208l209 208h40h40l-182 -175l185 -254h-37h-38z" />
    <glyph glyph-name="iconclock08" unicode="&#xe642;" 
d="M841 688q-10 12 -22 23q-57 58 -140 89q-62 25 -128 31q-5 0 -10 -1l-29 1v-447l206 -326q-94 -60 -206 -60q-105 0 -194 52t-140.5 141t-51.5 194q0 120 68 219q7 11 5 23.5t-12.5 19.5t-23 5t-20.5 -13q-79 -114 -79 -254q0 -91 35 -175q34 -80 96 -142t143 -96
q83 -35 174 -35t174 35q81 34 143 96t96 142q35 84 35 175q0 84 -30.5 162.5t-88.5 140.5z" />
    <glyph glyph-name="iconclock09" unicode="&#xe643;" 
d="M841 688q-10 12 -22 23q-57 58 -140 89q-62 25 -128 31q-5 0 -10 -1l-29 1v-447l-322 260q-2 2 -4 3q-10 7 -22.5 5t-20.5 -13q-79 -114 -79 -254q0 -91 35 -175q34 -80 96 -142t143 -96q83 -35 174 -35t174 35q81 34 143 96t96 142q35 84 35 175q0 84 -30.5 162.5
t-88.5 140.5z" />
    <glyph glyph-name="iconoddsop" unicode="&#xe644;" 
d="M939 864h53v-960h-53v960zM32 -43h960v-53h-960v53zM299 195h53v-252h-53v252zM622 435h53v-480h-53v480zM99 864v-559h413v67h-337v188h304v67h-304v170h333v67h-409z" />
    <glyph glyph-name="iconoddsyp" unicode="&#xe645;" 
d="M938 864h52v-960h-52v960zM34 -43h956v-53h-956v53zM335 788l79 -228h-162zM299 864l-195 -515h72l54 149h206l52 -149h75l-185 515h-79zM300 194h53v-251h-53v251zM622 433h53v-479h-53v479z" />
    <glyph glyph-name="iconoddsdx" unicode="&#xe646;" 
d="M939 864h53v-960h-53v960zM32 -43h960v-53h-960v53zM299 182h53v-252h-53v252zM622 423h53v-481h-53v481zM319 730h-164v58h395v-58h-165v-430h-66v430z" />
    <glyph glyph-name="livepants" unicode="&#xe647;" 
d="M254 896q11 -3 30 -7.5t78 -12.5t117.5 -11t139 4t151.5 27q3 -6 8 -16.5t19 -47t25 -75.5t22.5 -100t16.5 -123q2 -25 -89 -52.5t-184 -33.5q-6 7 -16 19t-30 53t-30 84q-1 -9 -5 -24.5t-23.5 -57t-46.5 -74.5q-7 1 -38 6.5t-48 9t-47 9.5t-49 12.5t-40 14t-33 16.5
t-17 19l1 8t2.5 22t4 33t6.5 42.5t8.5 48.5t11.5 52.5t15 53.5t18 52.5t22 48.5z" />
    <glyph glyph-name="liveshirt" unicode="&#xe648;" 
d="M742 250l19 -378h-499l21 376l-116 -34l-104 133q40 40 91.5 79.5t81.5 58.5t31 19l119 25l5 -12.5t18.5 -26t36.5 -30.5l22.5 -7.5t49 -5t61.5 13.5q4 2 10.5 6t21.5 21.5t25 41.5l120 -25q141 -94 202 -158l-104 -132z" />
    <glyph glyph-name="icon_date" unicode="&#xe669;" 
d="M944 759q-21 20 -56.5 30t-57 9t-30.5 0l4 -61q22 1 52 -3.5t46 -19.5q11 -10 11 -26v-637q0 -39 -10 -64q-7 -19 -19 -19h-683q-35 0 -50 22q-14 19 -14 51v635q0 19 13 30q16 16 47 21t54 4l2 30l2 31q-24 1 -53 -2q-62 -8 -94 -39q-32 -30 -32 -75v-635q0 -51 25 -87
q34 -47 100 -47h683q53 0 76 58q14 35 14 86v637q0 43 -30 71zM406 795h238v-57h-238v57zM297 870h57v-179h-57v179zM684 870h58v-179h-58v179zM187 38h670v554h-670v-554zM249 531h546v-432h-546v432zM280 430h117v-42h-117v42zM464 430h117v-42h-117v42zM644 430h117v-42
h-117v42zM280 323h117v-43h-117v43zM464 323h117v-43h-117v43zM280 215h117v-43h-117v43zM464 215h117v-43h-117v43zM644 323h117v-43h-117v43z" />
    <glyph glyph-name="icon_datum" unicode="&#xe66a;" 
d="M2 668h777v-116h-777v116zM2 184h481v-117h-481v117zM2 426h1020v-116h-1020v116z" />
    <glyph glyph-name="icon_location" unicode="&#xe66b;" 
d="M521.5 885q-102.5 0 -190 -50.5t-138 -138t-50.5 -190.5q0 -59 39 -143t94.5 -162.5t111 -148.5t94.5 -112l40 -43q7 9 21 23.5t53 60.5t75 90.5t80 106.5t75 116.5t53 111.5t22 100q0 103 -51 190.5t-138.5 138t-190 50.5zM524.5 370q-65.5 0 -112 46.5t-46.5 112
t46.5 112t112 46.5t112 -46.5t46.5 -112t-46.5 -112t-112 -46.5z" />
    <glyph glyph-name="icon_datum_point" unicode="&#xe66c;" 
d="M512 384zM380 384v0q0 -54 39 -93t93 -39t93 39t39 93v0q0 54 -39 93t-93 39t-93 -39t-39 -93v0zM512 -115q-100 0 -191 38t-161.5 108.5t-108.5 161.5t-38 191t38 191t108.5 161.5t161.5 108.5t191 38t191 -38t161.5 -108.5t108.5 -161.5t38 -191t-38 -191
t-108.5 -161.5t-161.5 -108.5t-191 -38zM512 813q-116 0 -215 -57.5t-156.5 -156.5t-57.5 -215t57.5 -215t156.5 -156.5t215 -57.5t215 57.5t156.5 156.5t57.5 215t-57.5 215t-156.5 156.5t-215 57.5z" />
    <glyph glyph-name="ico-answer-rule" unicode="&#xe68f;" 
d="M747 -101h-475q-77 0 -131 54t-54 131v592q0 76 54 130t131 54h475q76 0 130 -54t54 -130v-592q0 -77 -54 -131t-130 -54zM272 809q-55 0 -94 -39t-39 -94v-592q0 -56 39 -95t94 -39h475q55 0 94 39t39 95v592q0 55 -39 94t-94 39h-475zM273 682h275v-57h-275v57z
M273 511h472v-56h-472v56zM273 336h472v-56h-472v56zM273 172h472v-56h-472v56z" />
    <glyph glyph-name="ico-answer-query" unicode="&#xe690;" 
d="M944 -14q-6 18 -213 277q95 103 95 242q0 97 -48 179.5t-130.5 130.5t-180 48t-180 -48t-130.5 -130.5t-48 -179.5t48 -179.5t130.5 -130.5t179.5 -48h1q28 0 66 7t64 18q204 -270 231 -279q5 -2 11 -2v0q16 0 38 13t31.5 21t15.5 14q26 26 19 47zM161 505q0 127 90 217
t216.5 90t216.5 -90t90 -217t-90 -217t-216.5 -90t-216.5 90t-90 217zM845 -56q-41 41 -200 250q26 15 49 34q159 -199 196 -251q-23 -24 -45 -33z" />
    <glyph glyph-name="behaviour" unicode="&#xe699;" 
d="M430 192q-17 0 -25 14l-79 136h-112v57h129v0q16 0 24 -14l56 -96l87 260q6 20 26 20q17 0 25 -15l86 -160h126v-56h-143q-17 0 -25 15l-63 117l-86 -258q-6 -20 -26 -20v0z" />
    <glyph glyph-name="trend-tagging" unicode="&#xe69a;" 
d="M969 426h-205q-22 85 -92 140t-160 55t-160 -55t-92 -140h-205v-119h202q19 -89 90.5 -147.5t164.5 -58.5t164.5 58.5t90.5 147.5h202v119zM512 203q-65 0 -111.5 46.5t-46.5 111.5t46.5 111.5t111.5 46.5t111.5 -46.5t46.5 -111.5t-46.5 -111.5t-111.5 -46.5z" />
    <glyph glyph-name="return" unicode="&#xe69b;" 
d="M193 650h638v-108h-638v108zM193 438h638v-108h-638v108zM193 225h638v-107h-638v107z" />
  </font>
</defs>
</svg>
