<?xml version="1.0" encoding="utf-8"?>
<!-- Generator: Adobe Illustrator 23.0.1, SVG Export Plug-In . SVG Version: 6.00 Build 0)  -->
<svg version="1.1" id="圖層_1" xmlns="http://www.w3.org/2000/svg" xmlns:xlink="http://www.w3.org/1999/xlink" x="0px" y="0px"
	 viewBox="0 0 32 32" style="enable-background:new 0 0 32 32;" xml:space="preserve">
<style type="text/css">
	.st0{fill:#FFFFFF;}
</style>
<title>arrow</title>
<path class="st0" d="M15.2,21.2l11-11.5c0.3-0.3,0.6-0.4,1-0.3c0.4,0,0.7,0.2,0.9,0.5s0.3,0.6,0.3,1s-0.2,0.7-0.5,0.9L17,23.3
	c-0.3,0.3-0.6,0.4-1,0.3c-0.4,0-0.7-0.2-0.9-0.5s-0.3-0.6-0.3-1C14.8,21.8,14.9,21.5,15.2,21.2L15.2,21.2z M5.8,9.8l11,11.5
	c0.3,0.3,0.5,0.6,0.5,1c0,0.4-0.1,0.7-0.3,1s-0.6,0.5-0.9,0.5c-0.4,0-0.7-0.1-1-0.3L4,11.9c-0.3-0.3-0.5-0.6-0.5-1
	c0-0.4,0.1-0.7,0.3-1s0.6-0.5,0.9-0.5C5.1,9.4,5.5,9.5,5.8,9.8L5.8,9.8z"/>
</svg>
