<?xml version="1.0" encoding="utf-8"?>
<svg xmlns="http://www.w3.org/2000/svg" width="40" height="40" viewBox="0 0 40 40"><g fill="none" fill-rule="evenodd"><path class="control-stroke" stroke="#FFF" stroke-linecap="round" stroke-linejoin="round" stroke-width="2" d="M26.551 16.841V10H4.493v15.633h6.653"></path><path class="control-stroke" stroke="#FFF" stroke-width="2" d="M18.223 21.875h12.688c.135 0 .245.11.245.246v8.332c0 .135-.11.245-.245.245H18.223a.245.245 0 0 1-.245-.245V22.12c0-.136.11-.246.245-.246z"></path><g class="control-fill" fill="#FFF"><path d="M18.626 22.385a.964.964 0 0 0 0-1.358l-5.437-5.485a.953.953 0 0 0-1.35 0 .964.964 0 0 0 0 1.358l5.437 5.485a.95.95 0 0 0 1.35 0z"></path><path d="M17.63 15.977l-5.382-.195.193 5.393 5.19-5.198"></path><path d="M11.918 21.465a.52.52 0 0 0 .369-.153l5.19-5.198a.528.528 0 0 0-.35-.898l-5.383-.195a.58.58 0 0 0-.389.154.527.527 0 0 0-.153.39l.193 5.393c.008.21.138.393.331.47l.192.037zm3.967-5.242l-3.488 3.494-.129-3.625 3.617.131z"></path></g></g></svg>