<?xml version="1.0" encoding="utf-8"?>
<!-- Generator: Adobe Illustrator 22.1.0, SVG Export Plug-In . SVG Version: 6.00 Build 0)  -->
<svg version="1.1" xmlns="http://www.w3.org/2000/svg" xmlns:xlink="http://www.w3.org/1999/xlink" x="0px" y="0px"
	 viewBox="0 0 32 32" style="enable-background:new 0 0 32 32;" xml:space="preserve">
<title>close</title>
<path d="M14.9,16c-0.1-0.1-0.2-0.1-0.2-0.2c-0.3-0.3-1.5-1.5-3.7-3.6l-5-5C5.9,7,5.8,6.8,5.8,6.5C5.9,6.2,6,6,6.3,5.9S6.9,5.8,7.1,6
	l0.2,0.2c3.5,3.5,6.4,6.4,8.5,8.6c0,0,0.1,0.1,0.1,0.2H16l0.1-0.2c0.9-0.9,2.4-2.4,4.3-4.3c1.9-1.9,3.3-3.4,4.3-4.3
	c0.2-0.3,0.5-0.3,0.8-0.3C25.8,6,26,6.1,26.1,6.4s0,0.5-0.2,0.8c0,0-0.1,0.1-0.1,0.2c-4,4-6.9,6.9-8.6,8.5L17,16l0.2,0.2
	c0.8,0.8,2.2,2.2,4.1,4.1s3.4,3.4,4.5,4.5c0.2,0.2,0.3,0.4,0.3,0.6c0,0.3-0.1,0.6-0.4,0.7s-0.6,0.1-0.8-0.1l-8.7-8.7L16,17.1
	l-0.2,0.1c-4.3,4.3-7.2,7.2-8.6,8.6c-0.3,0.2-0.5,0.3-0.8,0.3C6.1,26,6,25.8,5.9,25.5s0-0.5,0.2-0.7c0,0,0.1-0.1,0.1-0.2
	C9.7,21.1,12.6,18.3,14.9,16C14.7,16.1,14.8,16.1,14.9,16L14.9,16L14.9,16L14.9,16z"/>
</svg>
