<?xml version="1.0" encoding="utf-8"?>
<!-- Generator: Adobe Illustrator 23.0.1, SVG Export Plug-In . SVG Version: 6.00 Build 0)  -->
<svg version="1.1" id="圖層_1" xmlns="http://www.w3.org/2000/svg" xmlns:xlink="http://www.w3.org/1999/xlink" x="0px" y="0px"
	 viewBox="0 0 32 32" style="enable-background:new 0 0 32 32;" xml:space="preserve">
<style type="text/css">
	.st0{fill:#DE1030;}
</style>
<title>error</title>
<path class="st0" d="M25.9,6.1C23.3,3.5,19.8,2,16,2S8.7,3.5,6.1,6.1C3.4,8.8,1.9,12.3,1.9,16c0,3.7,1.5,7.3,4.1,9.9
	C8.7,28.6,12.2,30,16,30s7.3-1.5,9.9-4.1s4.1-6.2,4.1-9.9C30.1,12.3,28.6,8.8,25.9,6.1L25.9,6.1C25.9,6.1,25.9,6.1,25.9,6.1z
	 M23,17.3h-8c8,0,0,0,0,0l0,0H9c-0.6,0-1-0.6-1-1.2s0.5-1.2,1-1.2H23c0.6,0,1,0.6,1,1.2C24,16.7,23.6,17.3,23,17.3L23,17.3L23,17.3z
	"/>
</svg>
