<?xml version="1.0" encoding="utf-8"?>
<!-- Generator: Adobe Illustrator 22.1.0, SVG Export Plug-In . SVG Version: 6.00 Build 0)  -->
<svg version="1.1" id="圖層_1" xmlns="http://www.w3.org/2000/svg" xmlns:xlink="http://www.w3.org/1999/xlink" x="0px" y="0px"
	 viewBox="0 0 88 30" style="enable-background:new 0 0 88 30;" xml:space="preserve">
<style type="text/css">
	.st0{fill-rule:evenodd;clip-rule:evenodd;fill:#FFFFFF;}
	.st1{fill-rule:evenodd;clip-rule:evenodd;fill:#393938;}
	.st2{fill-rule:evenodd;clip-rule:evenodd;fill:#B1B2B3;}
	.st3{fill-rule:evenodd;clip-rule:evenodd;fill:#ED3245;}
	.st4{fill-rule:evenodd;clip-rule:evenodd;fill:#B82B39;}
	.st5{fill:#393938;}
	.st6{fill-rule:evenodd;clip-rule:evenodd;fill:#484847;}
	.st7{fill:#FFFFFF;}
</style>
<g>
	<path class="st0" d="M20.9,5.8c0.3,0.1,0.6,0.1,0.9,0.2l0.7,0.1v1.6h1l0.1,0.8c0.2,2,0.2,4.1-0.1,6.1c-0.5,3.9-2.1,7.7-4.8,10.7
		c-1.7,1.8-3.7,3.4-6.1,4.3L11.9,30l-0.8-0.3c-2.3-1-4.4-2.5-6.1-4.3c-1.3-1.4-2.3-3.1-3.1-4.8c-1.7-3.7-2.2-8-1.8-12l0.1-0.8h1V6.1
		L2,6c0.3-0.1,0.6-0.1,0.9-0.2c1.1-2.2,3-4,5.5-4.8l2.8-0.8L11.9,0l0.7,0.2l2.8,0.8C17.8,1.8,19.8,3.6,20.9,5.8L20.9,5.8z"/>
	<path class="st1" d="M15.1,1.9C17.7,2.7,19.9,5,20.8,8c1.2,4.4-1,8.8-4.8,9.7c-1.9,0.5-3.9,0-5.6-1.2c1.1,0.3,2.3,0.4,3.4,0.1
		c3.8-1,6-5.3,4.8-9.7C18,4.8,16.7,3,15.1,1.9L15.1,1.9z"/>
	<path class="st1" d="M8.7,1.9C6.1,2.7,3.9,5,3,8c-1.2,4.4,1,8.8,4.8,9.7c1.9,0.5,3.9,0,5.6-1.2C12.3,17,11.2,17,10,16.7
		c-3.8-1-6-5.3-4.8-9.7C5.8,4.8,7.1,3,8.7,1.9L8.7,1.9z"/>
	<path class="st1" d="M11.5,28.9c-2.2-0.9-4.2-2.4-5.8-4.1C1.7,20.4,0.4,14.3,1,8.6h0.4c0.4,0,0.7-0.3,0.7-0.7V6.9
		c6.7-1.3,12.8-1.3,19.4,0v1.1c0,0.4,0.3,0.7,0.7,0.7h0.4c0.6,5.6-0.7,11.8-4.7,16.1c-1.6,1.7-3.5,3.2-5.8,4.1L11.9,29L11.5,28.9
		L11.5,28.9z"/>
	<path class="st0" d="M11.9,27.6c2-0.9,3.7-2.2,5.1-3.7c2.8-3,4.3-6.9,4.5-10.9c-3.2-0.6-6.4-0.9-9.6-0.9c-3.2,0-6.4,0.3-9.6,0.9
		c0.2,4,1.7,7.9,4.5,10.9C8.2,25.4,9.9,26.7,11.9,27.6L11.9,27.6z"/>
	<path class="st2" d="M21.1,15.8c0.2-0.9,0.3-1.9,0.4-2.9c-3.2-0.6-6.4-0.9-9.6-0.9c-3.2,0-6.4,0.3-9.6,0.9c0.1,1,0.2,1.9,0.4,2.9
		c0.5,1.1,1.2,2.2,2.1,3c1.9,1.8,4.4,2.9,7.1,2.9c2.7,0,5.2-1,7.1-2.9C19.9,17.9,20.6,16.9,21.1,15.8L21.1,15.8z"/>
	<path class="st3" d="M7.9,12.8C6.3,13,4.7,13.2,3,13.5c0.3,3.6,1.7,7.2,4.3,9.9c1.1,1.2,2.4,2.2,3.9,3c-0.2-0.3-0.4-0.6-0.6-1
		c-0.3-0.6-0.6-1.4-0.9-2.1c-0.5-1.5-0.9-3.2-1.2-5C8.2,16.6,8,14.7,7.9,12.8L7.9,12.8z"/>
	<path class="st4" d="M7.9,12.8C6.3,13,4.7,13.2,3,13.5C3.2,15,3.5,16.5,4,18c0.2,0.3,0.5,0.6,0.8,0.8c1.2,1.2,2.7,2,4.3,2.5
		c-0.2-0.9-0.4-1.9-0.6-3C8.2,16.6,8,14.7,7.9,12.8L7.9,12.8z"/>
	<path class="st3" d="M20.8,13.5c-1.6-0.3-3.3-0.5-4.9-0.6c-0.1,1.9-0.3,3.8-0.5,5.5c-0.3,1.8-0.7,3.5-1.2,5
		c-0.3,0.8-0.6,1.5-0.9,2.1c-0.2,0.4-0.4,0.7-0.6,1c1.5-0.8,2.8-1.8,3.9-3C19,20.6,20.4,17.1,20.8,13.5L20.8,13.5z"/>
	<path class="st4" d="M20.8,13.5c-1.6-0.3-3.3-0.5-4.9-0.6c-0.1,1.9-0.3,3.8-0.5,5.5c-0.2,1-0.4,2-0.6,3c1.6-0.5,3.1-1.3,4.3-2.5
		c0.3-0.3,0.5-0.5,0.8-0.8C20.3,16.5,20.6,15,20.8,13.5L20.8,13.5z"/>
	<path class="st5" d="M11.9,2.5c2.6,0,4.9,1,6.6,2.7c1.7,1.6,2.7,3.9,2.7,6.4c0,2.5-1,4.8-2.7,6.4c-1.7,1.6-4,2.7-6.6,2.7
		c-2.6,0-4.9-1-6.6-2.7c-1.7-1.6-2.7-3.9-2.7-6.4c0-2.5,1-4.8,2.7-6.4C7,3.6,9.3,2.5,11.9,2.5L11.9,2.5z"/>
	<path class="st0" d="M11.9,4c4.3,0,7.8,3.4,7.8,7.6c0,4.2-3.5,7.6-7.8,7.6c-4.3,0-7.8-3.4-7.8-7.6C4.1,7.4,7.6,4,11.9,4L11.9,4z"/>
	<path class="st2" d="M19.2,12c-0.2,3.7-3.3,6.7-7.2,6.7c-3.9,0-7-3-7.2-6.7c1.1,2.9,3.9,4.9,7.2,4.9C15.3,16.9,18.1,14.8,19.2,12
		L19.2,12z"/>
	<path class="st1" d="M8,10.1L6.7,8.9l1.2-2.4L5.6,8.1l-1.5-1L4.5,9l-1.4,1.3l1.8,0.1l0.8,2.5l0.6-2.5L8,10.1L8,10.1z M11.9,7.4
		l1,2.4l2.7,0.2l-2.1,1.7l0.6,2.5l-2.3-1.4l-2.3,1.4l0.6-2.5L8.2,10l2.7-0.2L11.9,7.4L11.9,7.4z M15.8,10.1l1.3-1.2l-1.2-2.4
		l2.2,1.6l1.5-1L19.3,9l1.4,1.3l-1.8,0.1l-0.8,2.5l-0.6-2.5L15.8,10.1L15.8,10.1z M11.9,7.1l0.8-1.5l2.5,0.1l-2-1.2l0.5-1.6
		l-1.7,0.8l-1.7-0.8l0.5,1.6L8.6,5.8l2.5-0.2L11.9,7.1L11.9,7.1z"/>
	<path class="st6" d="M6.8,9.7L6,9l0.5-0.9L5.6,8.7L4.9,8.2l0.2,1L5,9.2c0.2,0.2,0.5,0.5,0.8,0.7l0-0.1L6.8,9.7L6.8,9.7z M18.8,9.2
		c-0.2,0.2-0.5,0.5-0.8,0.7l0-0.1l-1-0.1L17.8,9l-0.5-0.9l0.9,0.6l0.7-0.5L18.8,9.2L18.8,9.2L18.8,9.2z M13,11.6c-0.4,0-0.7,0-1.1,0
		c-0.4,0-0.7,0-1.1,0l0-0.1l-1.3-1.1l1.7-0.1l0.7-1.6l0.7,1.6l1.7,0.1L13,11.6L13,11.6L13,11.6z M11.9,6l0.4-0.9l0.9,0l-0.7-0.4
		l0.2-0.8l-0.9,0.4L11,3.9l0.2,0.8l-0.7,0.5l0.9-0.1L11.9,6L11.9,6z"/>
	<polygon class="st1" points="9.5,14.6 7.9,15.5 6,13.9 6.8,16.2 5.4,17.3 6.8,18.1 8.2,19.2 8.8,17.6 11.4,17.7 9.2,16.4 9.5,14.6 
			"/>
	<polygon class="st1" points="14.3,14.6 15.9,15.5 17.8,13.9 17,16.2 18.4,17.3 17,18.1 15.6,19.2 15,17.6 12.4,17.7 14.6,16.4 
		14.3,14.6 	"/>
	<polygon class="st1" points="11.9,22.5 12.2,23.3 13,23.3 12.3,23.8 12.6,24.6 11.9,24.1 11.2,24.6 11.5,23.8 10.8,23.3 11.6,23.3 
		11.9,22.5 	"/>
</g>
<g>
	<g>
		<path class="st7" d="M39.9,16.6v1.1H26v-1.1h6.3v-1.7h-4.5v-1h4.5v-1.5h-3.9c-0.5,0.7-1.1,1.3-1.6,1.8c-0.2-0.2-0.7-0.6-1-0.8
			c1.2-0.9,2.3-2.3,2.9-3.7l1.2,0.3c-0.2,0.4-0.5,0.9-0.7,1.3h3.2v-1.3h1.2v1.3h5.3v1h-5.3v1.5h4.7v1h-4.7v1.7H39.9z M38.3,9.8H27.7
			V4.1h10.6V9.8z M37.1,5.1h-8.2v1.4h8.2V5.1z M37.1,7.4h-8.2v1.4h8.2V7.4z"/>
		<path class="st7" d="M46.4,14.2c-1.5,0.6-3.1,1.2-4.4,1.7l-0.4-1.2c0.5-0.2,1.2-0.4,1.9-0.7V8.5h-1.7V7.4h1.7V3.7h1.1v3.7h1.5v1.1
			h-1.5v5.3l1.6-0.6L46.4,14.2z M55.9,9c-0.5,2.1-1.3,3.9-2.2,5.4c0.4,1.5,0.8,2.4,1.4,2.4c0.3,0,0.5-0.8,0.5-2.6
			c0.2,0.3,0.6,0.5,0.9,0.6c-0.2,2.4-0.5,3.1-1.6,3.1c-0.9,0-1.6-0.9-2.1-2.4c-0.8,1-1.6,1.8-2.7,2.5c-0.2-0.2-0.6-0.7-0.8-0.8
			c1.2-0.8,2.3-1.8,3.2-3c-0.4-1.9-0.7-4.4-0.8-7.2H48v2.1H51c0,0,0,0.3,0,0.5c0,3.6-0.1,4.9-0.4,5.3c-0.2,0.3-0.4,0.4-0.8,0.4
			c-0.3,0-0.9,0-1.4,0c0-0.3-0.1-0.7-0.3-1c0.5,0,1,0,1.2,0c0.2,0,0.3,0,0.4-0.2c0.2-0.2,0.2-1.3,0.3-4.1h-2v0.7
			c0,2.2-0.3,5.3-2,7.3c-0.2-0.2-0.6-0.6-0.9-0.8c1.6-1.8,1.8-4.5,1.8-6.5V5.9h4.8c0-0.8,0-1.6,0-2.4h1.1c0,0.8,0,1.7,0,2.4h2.1
			c-0.4-0.5-1.2-1.3-1.8-1.8l0.8-0.5c0.7,0.5,1.5,1.2,1.9,1.8L55,5.9h1.2V7h-3.3c0.1,2.2,0.3,4.2,0.5,5.8c0.6-1.2,1.1-2.5,1.5-4
			L55.9,9z"/>
		<path class="st7" d="M62.1,3.9c-0.4,1.1-0.9,2.3-1.4,3.4v10.8h-1.1V9.2c-0.4,0.7-0.9,1.3-1.4,1.8c-0.1-0.3-0.5-0.9-0.7-1.2
			C58.9,8.3,60.2,6,61,3.5L62.1,3.9z M68.2,7.8c0.9,2.7,2.6,5.3,4.3,6.7c-0.3,0.2-0.7,0.6-0.9,0.9c-1.7-1.5-3.2-4.2-4.2-7v5.6H70
			v1.1h-2.6V18h-1.2v-2.9h-2.6v-1.1h2.6V8.6c-1,2.8-2.6,5.4-4.2,6.9c-0.2-0.3-0.6-0.7-0.9-0.9c1.7-1.4,3.4-4.1,4.4-6.8h-3.8V6.7h4.5
			V3.5h1.2v3.2h4.8v1.2H68.2z"/>
		<path class="st7" d="M88,6.1h-4.3c1.2,0.9,2.8,2.2,3.6,3l-1,0.7c-0.3-0.3-0.7-0.7-1.2-1.1c-8.1,0.5-8.9,0.5-9.5,0.7
			c-0.1-0.3-0.3-0.9-0.4-1.2c0.3,0,0.6-0.2,1.1-0.5c0.3-0.2,1.1-0.8,1.9-1.6H74V5.1h6.6c-0.2-0.4-0.5-1-0.8-1.4l1.2-0.3
			c0.3,0.5,0.7,1.2,1,1.7H88V6.1z M85.9,16.8c0,0.7-0.2,1-0.8,1.2c-0.6,0.2-1.6,0.2-3.1,0.2c-0.1-0.3-0.3-0.7-0.4-1
			c1.2,0,2.4,0,2.7,0c0.3,0,0.4-0.1,0.4-0.4v-1.4h-7.3v2.8h-1.2v-8h9.7V16.8z M77.4,11.1v1.2h7.3v-1.2H77.4z M84.7,14.5v-1.2h-7.3
			v1.2H84.7z M84.1,7.8c-0.5-0.4-1-0.9-1.5-1.2l0.7-0.4H80c-0.8,0.7-1.6,1.4-2.4,2L84.1,7.8z"/>
	</g>
	<g>
		<path class="st7" d="M25.9,26.6l1.5-3l-0.9-2.7h0.7l0.7,2l1-2h0.7l-1.5,2.8l0.9,2.9h-0.7l-0.7-2.2l-1,2.2H25.9z"/>
		<path class="st7" d="M30.4,26.6l0.6-5.7h0.7l-0.6,5.7H30.4z"/>
		<path class="st7" d="M32.8,26.6l0.6-5.7h0.5l1.2,3.8l0.4-3.8h0.6l-0.6,5.7h-0.5l-1.2-3.9l-0.4,3.9H32.8z"/>
		<path class="st7" d="M38.5,26.6c-0.2,0-0.4,0-0.6-0.1c-0.2-0.1-0.3-0.1-0.4-0.3c-0.1-0.1-0.2-0.2-0.2-0.4
			c-0.1-0.2-0.1-0.3-0.1-0.5c0,0,0-0.1,0-0.1c0-0.2,0-0.3,0-0.5l0.2-2c0-0.3,0.1-0.6,0.2-0.8c0.1-0.2,0.2-0.4,0.3-0.6
			c0.1-0.2,0.3-0.3,0.5-0.4s0.5-0.1,0.8-0.1c0.3,0,0.5,0,0.7,0.1c0.2,0.1,0.3,0.2,0.4,0.3s0.2,0.3,0.2,0.5c0,0.1,0,0.2,0,0.3
			c0,0.1,0,0.2,0,0.4l0,0.4h-0.7l0-0.4c0-0.1,0-0.2,0-0.2c0-0.1,0-0.1,0-0.2c0-0.1,0-0.1,0-0.2c0,0,0-0.1,0-0.1c0-0.1,0-0.1,0-0.1
			c0,0,0-0.1-0.1-0.1c0,0-0.1-0.1-0.1-0.1s-0.1,0-0.2,0c-0.1,0-0.1,0-0.2,0c-0.1,0-0.2,0-0.3,0.1c-0.1,0-0.2,0.1-0.2,0.2
			c-0.1,0.1-0.1,0.1-0.2,0.3c0,0.1-0.1,0.2-0.1,0.3c0,0.1,0,0.2-0.1,0.4L38,24.9c0,0.1,0,0.3,0,0.4c0,0.2,0,0.4,0.1,0.5
			c0.1,0.2,0.3,0.3,0.6,0.3c0.1,0,0.2,0,0.3,0s0.1-0.1,0.2-0.1c0.1-0.1,0.1-0.1,0.1-0.2c0-0.1,0.1-0.1,0.1-0.2c0-0.1,0-0.2,0.1-0.3
			c0-0.1,0-0.2,0-0.3l0-0.4h0.7l0,0.4c0,0.3-0.1,0.5-0.1,0.7c-0.1,0.2-0.2,0.4-0.3,0.5c-0.1,0.2-0.3,0.3-0.5,0.4
			C39.1,26.6,38.8,26.6,38.5,26.6z"/>
		<path class="st7" d="M41.1,26.6l1.8-5.7h0.7l0.6,5.7h-0.7l-0.1-1.4h-1.2l-0.4,1.4H41.1z M42.4,24.6h1L43.2,22L42.4,24.6z"/>
		<path class="st7" d="M46.9,26.6c-0.5,0-0.8-0.1-1-0.4c-0.2-0.3-0.3-0.6-0.3-1.1c0,0,0-0.1,0-0.1l0.7-0.2c0,0.1,0,0.1,0,0.2
			c0,0.1,0,0.2,0,0.3c0,0.1,0,0.3,0.1,0.4c0,0.1,0.1,0.2,0.2,0.3c0.1,0.1,0.2,0.1,0.4,0.1c0.2,0,0.4-0.1,0.5-0.2s0.2-0.3,0.2-0.5
			c0,0,0-0.1,0-0.1c0-0.1,0-0.1,0-0.2c0-0.1,0-0.2-0.1-0.2c0-0.1-0.1-0.1-0.1-0.2c-0.1-0.1-0.1-0.1-0.1-0.2c0,0-0.1-0.1-0.2-0.2
			l-0.9-0.9c-0.2-0.2-0.3-0.4-0.4-0.5c0-0.1-0.1-0.3-0.1-0.5c0-0.1,0-0.2,0-0.2c0-0.4,0.2-0.7,0.5-1c0.3-0.2,0.6-0.3,1-0.3
			c0,0,0,0,0,0c0.4,0,0.8,0.1,1,0.4c0.2,0.2,0.3,0.6,0.3,1c0,0,0,0,0,0.1l-0.7,0.2c0-0.1,0-0.1,0-0.2c0-0.1,0-0.2,0-0.3
			c0-0.1,0-0.2-0.1-0.3c0-0.1-0.1-0.2-0.2-0.2c-0.1,0-0.2-0.1-0.3-0.1c0,0,0,0-0.1,0c-0.4,0-0.7,0.2-0.7,0.6c0,0,0,0.1,0,0.1
			c0,0.1,0,0.2,0.1,0.3c0,0.1,0.1,0.2,0.2,0.4l0.9,0.9c0.2,0.2,0.4,0.5,0.5,0.7c0.1,0.2,0.1,0.4,0.1,0.7c0,0.1,0,0.1,0,0.2
			c0,0.4-0.2,0.7-0.5,1C47.6,26.5,47.3,26.6,46.9,26.6z"/>
		<path class="st7" d="M50.2,26.6l0.5-5.1h-1l0.1-0.6h2.8l-0.1,0.6h-1l-0.5,5.1H50.2z"/>
		<path class="st7" d="M53.1,26.6l0.6-5.7h0.8L53.9,26h1.5l-0.1,0.6H53.1z"/>
		<path class="st7" d="M56.5,26.6l0.6-5.7h2.2l-0.1,0.6h-1.4l-0.2,1.9h1.2l-0.1,0.6h-1.2L57.4,26h1.4l-0.1,0.6H56.5z"/>
		<path class="st7" d="M60.2,24.7l0.1-0.5h1.6l-0.1,0.5H60.2z"/>
		<path class="st7" d="M64.3,26.6c-0.5,0-0.8-0.1-1-0.4c-0.2-0.3-0.3-0.6-0.3-1.1c0,0,0-0.1,0-0.1l0.7-0.2c0,0.1,0,0.1,0,0.2
			c0,0.1,0,0.2,0,0.3c0,0.1,0,0.3,0.1,0.4s0.1,0.2,0.2,0.3c0.1,0.1,0.2,0.1,0.4,0.1c0.2,0,0.4-0.1,0.5-0.2s0.2-0.3,0.2-0.5
			c0,0,0-0.1,0-0.1c0-0.1,0-0.1,0-0.2c0-0.1,0-0.2-0.1-0.2c0-0.1-0.1-0.1-0.1-0.2c-0.1-0.1-0.1-0.1-0.1-0.2c0,0-0.1-0.1-0.2-0.2
			l-0.9-0.9c-0.2-0.2-0.3-0.4-0.4-0.5c0-0.1-0.1-0.3-0.1-0.5c0-0.1,0-0.2,0-0.2c0-0.4,0.2-0.7,0.5-1c0.3-0.2,0.6-0.3,1-0.3
			c0,0,0,0,0,0c0.4,0,0.8,0.1,1,0.4c0.2,0.2,0.3,0.6,0.3,1c0,0,0,0,0,0.1l-0.7,0.2c0-0.1,0-0.1,0-0.2c0-0.1,0-0.2,0-0.3
			c0-0.1,0-0.2-0.1-0.3c0-0.1-0.1-0.2-0.2-0.2c-0.1,0-0.2-0.1-0.3-0.1c0,0,0,0-0.1,0c-0.4,0-0.7,0.2-0.7,0.6c0,0,0,0.1,0,0.1
			c0,0.1,0,0.2,0.1,0.3c0,0.1,0.1,0.2,0.3,0.4l0.9,0.9c0.2,0.2,0.4,0.5,0.5,0.7c0.1,0.2,0.1,0.4,0.1,0.7c0,0.1,0,0.1,0,0.2
			c0,0.4-0.2,0.7-0.5,1C65.1,26.5,64.7,26.6,64.3,26.6z"/>
		<path class="st7" d="M67,26.6l0.6-5.7H69c0.5,0,0.8,0.1,1,0.4c0.2,0.2,0.2,0.5,0.2,0.9c0,0.1,0,0.2,0,0.3
			c-0.1,0.5-0.2,0.8-0.5,1.1s-0.6,0.4-1.1,0.4h-0.6l-0.3,2.6H67z M68.1,23.4h0.4c0.3,0,0.6-0.1,0.7-0.2s0.2-0.4,0.3-0.7
			c0-0.1,0-0.3,0-0.4c0,0,0,0,0-0.1c0-0.1,0-0.2,0-0.3s-0.1-0.1-0.1-0.2c-0.1,0-0.2-0.1-0.3-0.1c-0.1,0-0.2,0-0.4,0h-0.4L68.1,23.4z
			"/>
		<path class="st7" d="M72.5,26.6c-0.3,0-0.5,0-0.7-0.1c-0.2-0.1-0.3-0.2-0.4-0.4c-0.1-0.2-0.2-0.4-0.2-0.6c0-0.1,0-0.2,0-0.4
			c0-0.1,0-0.3,0-0.4l0.2-2.2c0.1-0.6,0.2-1,0.5-1.3c0.3-0.3,0.7-0.5,1.2-0.5c0.3,0,0.5,0,0.7,0.1s0.3,0.2,0.4,0.4
			c0.1,0.2,0.2,0.3,0.2,0.6c0,0.1,0,0.2,0,0.4c0,0.1,0,0.3,0,0.4l-0.2,2.2c0,0.3-0.1,0.5-0.2,0.8c-0.1,0.2-0.2,0.4-0.3,0.6
			s-0.3,0.3-0.5,0.4C73,26.6,72.8,26.6,72.5,26.6z M72.6,26c0.2,0,0.3,0,0.4-0.1c0.1,0,0.2-0.1,0.3-0.2c0.1-0.1,0.1-0.2,0.1-0.3
			c0-0.1,0.1-0.3,0.1-0.4l0.3-2.5c0-0.1,0-0.2,0-0.3c0,0,0-0.1,0-0.1c0-0.1,0-0.2-0.1-0.3c0-0.1-0.1-0.2-0.2-0.2
			c-0.1,0-0.2-0.1-0.4-0.1s-0.3,0-0.4,0.1c-0.1,0-0.2,0.1-0.3,0.2s-0.1,0.2-0.1,0.3c0,0.1-0.1,0.3-0.1,0.4L71.9,25
			c0,0.1,0,0.2,0,0.3c0,0.1,0,0.2,0,0.2c0,0.2,0.1,0.3,0.2,0.4C72.2,26,72.4,26,72.6,26z"/>
		<path class="st7" d="M75.5,26.6l0.6-5.7h1.2c0.6,0,1,0.1,1.2,0.4c0.2,0.2,0.3,0.5,0.3,0.9c0,0.1,0,0.2,0,0.3
			c-0.1,0.7-0.4,1.2-0.9,1.3l0.5,2.8h-0.7l-0.5-2.7h-0.6l-0.3,2.7H75.5z M76.6,23.3H77c0.3,0,0.6-0.1,0.8-0.2
			c0.2-0.1,0.3-0.4,0.3-0.7c0-0.1,0-0.2,0-0.2c0-0.2,0-0.4-0.1-0.5c-0.1-0.1-0.3-0.2-0.7-0.2h-0.4L76.6,23.3z"/>
		<path class="st7" d="M80.4,26.6l0.5-5.1h-1l0.1-0.6h2.8l-0.1,0.6h-1l-0.5,5.1H80.4z"/>
		<path class="st7" d="M84.7,26.6c-0.5,0-0.8-0.1-1-0.4c-0.2-0.3-0.3-0.6-0.3-1.1c0,0,0-0.1,0-0.1l0.7-0.2c0,0.1,0,0.1,0,0.2
			c0,0.1,0,0.2,0,0.3c0,0.1,0,0.3,0.1,0.4s0.1,0.2,0.2,0.3c0.1,0.1,0.2,0.1,0.4,0.1c0.2,0,0.4-0.1,0.5-0.2c0.1-0.1,0.2-0.3,0.2-0.5
			c0,0,0-0.1,0-0.1c0-0.1,0-0.1,0-0.2c0-0.1,0-0.2-0.1-0.2c0-0.1-0.1-0.1-0.1-0.2c-0.1-0.1-0.1-0.1-0.1-0.2c0,0-0.1-0.1-0.2-0.2
			l-0.9-0.9c-0.2-0.2-0.3-0.4-0.4-0.5c0-0.1-0.1-0.3-0.1-0.5c0-0.1,0-0.2,0-0.2c0-0.4,0.2-0.7,0.5-1c0.3-0.2,0.6-0.3,1-0.3
			c0,0,0,0,0,0c0.4,0,0.8,0.1,1,0.4c0.2,0.2,0.3,0.6,0.3,1c0,0,0,0,0,0.1l-0.7,0.2c0-0.1,0-0.1,0-0.2c0-0.1,0-0.2,0-0.3
			c0-0.1,0-0.2-0.1-0.3s-0.1-0.2-0.2-0.2c-0.1,0-0.2-0.1-0.3-0.1c0,0,0,0-0.1,0c-0.4,0-0.7,0.2-0.7,0.6c0,0,0,0.1,0,0.1
			c0,0.1,0,0.2,0.1,0.3c0,0.1,0.1,0.2,0.3,0.4l0.9,0.9c0.2,0.2,0.4,0.5,0.5,0.7c0.1,0.2,0.1,0.4,0.1,0.7c0,0.1,0,0.1,0,0.2
			c0,0.4-0.2,0.7-0.5,1S85.1,26.6,84.7,26.6z"/>
	</g>
</g>
</svg>
