<?xml version="1.0" encoding="utf-8"?>
<svg xmlns="http://www.w3.org/2000/svg" width="40" height="40" viewBox="0 0 40 40"><path d="M12.942 15.099l6.351-5.276a1 1 0 0 1 1.64.769v19.274a1 1 0 0 1-1.64.769l-6.35-5.276H8a1 1 0 0 1-1-1v-8.26a1 1 0 0 1 1-1h4.942zm1 1.769a1 1 0 0 1-.639.23H9v6.26h4.303a1 1 0 0 1 .64.232l4.99 4.145V12.723l-4.99 4.145zm15.969-5.679c4.803 4.989 4.803 13.09 0 18.08a1 1 0 1 0 1.441 1.387c5.549-5.764 5.549-15.09 0-20.854a1 1 0 0 0-1.44 1.387zm-4.68 4.86c2.215 2.3 2.215 6.045 0 8.346a1 1 0 0 0 1.441 1.387c2.96-3.075 2.96-8.045 0-11.12a1 1 0 1 0-1.44 1.387z" fill="#FFF"></path></svg>