<?xml version="1.0" encoding="utf-8"?>
<!-- Generator: Adobe Illustrator 22.1.0, SVG Export Plug-In . SVG Version: 6.00 Build 0)  -->
<svg version="1.1" id="圖層_1" xmlns="http://www.w3.org/2000/svg" xmlns:xlink="http://www.w3.org/1999/xlink" x="0px" y="0px"
	 viewBox="0 0 32 32" style="enable-background:new 0 0 32 32;" xml:space="preserve">
<style type="text/css">
	.st0{fill:#FFFFFF;}
</style>
<title>b2</title>
<path class="st0" d="M5.6,9.6H1.9c0,0-1.1,0-1.1,0.8s1.1,0.8,1.1,0.8h3.7V9.6z"/>
<path class="st0" d="M30.6,9.6H10.4v1.6h20.2c0,0,0.6,0,0.6-0.8S30.6,9.6,30.6,9.6z"/>
<path class="st0" d="M6.4,12.8V6.4c0,0,0-1.6,1.8-1.6c1.4,0,1.4,1.6,1.4,1.6v6.4c0,0,0,1.6-1.6,1.6S6.4,12.8,6.4,12.8z"/>
<path class="st0" d="M24.8,20.8h5.3c0,0,1.1,0,1.1,0.8s-1.1,0.8-1.1,0.8h-5.3C24.8,22.4,24.8,20.8,24.8,20.8z"/>
<path class="st0" d="M1.4,20.8H20v1.6H1.4c0,0-0.6,0-0.6-0.8S1.4,20.8,1.4,20.8z"/>
<path class="st0" d="M24,25.6v-6.4c0,0,0-1.6-1.8-1.6c-1.4,0-1.4,1.6-1.4,1.6v6.4c0,0,0,1.6,1.6,1.6S24,25.6,24,25.6z"/>
</svg>
