<?xml version="1.0" encoding="utf-8"?>
<!-- Generator: Adobe Illustrator 22.1.0, SVG Export Plug-In . SVG Version: 6.00 Build 0)  -->
<svg version="1.1" id="圖層_1" xmlns="http://www.w3.org/2000/svg" xmlns:xlink="http://www.w3.org/1999/xlink" x="0px" y="0px"
	 viewBox="0 0 20 20" style="enable-background:new 0 0 20 20;" xml:space="preserve">
<style type="text/css">
	.st0{display:none;}
	.st1{fill:#FFFFFF;}
	.st2{fill:none;stroke:#FFFFFF;stroke-miterlimit:10;}
</style>
<rect x="-10.4" y="-6.8" class="st0" width="39.1" height="34.8"/>
<g>
	<path class="st1" d="M4.9,19.2V16c0,0,0-0.8,0.6-0.8C6,15.2,6,16,6,16v3.3c0,0,0,0.8-0.6,0.8S4.9,19.2,4.9,19.2z"/>
	<path class="st1" d="M13.8,19.2V16c0,0,0-0.8,0.6-0.8c0.5,0,0.5,0.8,0.5,0.8v3.3c0,0,0,0.8-0.6,0.8S13.8,19.2,13.8,19.2z"/>
	<path class="st1" d="M19,16.4h-18c0,0-1.1,0-1.1-0.6c0-0.6,1.1-0.6,1.1-0.6h18c0,0,1,0,1,0.6C20,16.4,19,16.4,19,16.4z"/>
</g>
<g>
	<path class="st2" d="M18.5,13h-17c-0.6,0-1-0.4-1-1V4c0-0.5,0.4-1,1-1h17c0.5,0,1,0.5,1,1v8C19.5,12.6,19,13,18.5,13z"/>
	<g>
		<path class="st1" d="M7.7,10.5v1.4H2.5c0.1-0.5,0.2-1,0.5-1.5c0.3-0.5,0.8-1.1,1.7-1.9c0.7-0.6,1.1-1.1,1.2-1.3
			c0.2-0.3,0.3-0.6,0.3-0.9C6.2,6,6.1,5.7,6,5.5S5.5,5.2,5.2,5.2c-0.3,0-0.6,0.1-0.7,0.3C4.3,5.7,4.2,6,4.1,6.5L2.6,6.3
			C2.7,5.5,3,4.9,3.5,4.5S4.5,4,5.2,4C6,4,6.6,4.2,7.1,4.6C7.5,5,7.7,5.6,7.7,6.2c0,0.4-0.1,0.7-0.2,1c-0.1,0.3-0.3,0.7-0.6,1
			c-0.2,0.2-0.5,0.6-1,1c-0.5,0.4-0.8,0.7-0.9,0.9c-0.1,0.1-0.2,0.3-0.3,0.4H7.7z"/>
		<path class="st1" d="M9.3,6.7V5.2h1.5v1.5H9.3z M9.3,10.9V9.4h1.5v1.5H9.3z"/>
		<path class="st1" d="M14.9,4c0.8,0,1.4,0.3,1.8,0.8c0.5,0.6,0.8,1.7,0.8,3.2c0,1.5-0.3,2.5-0.8,3.2c-0.4,0.5-1,0.8-1.8,0.8
			c-0.8,0-1.4-0.3-1.8-0.9c-0.5-0.6-0.7-1.6-0.7-3.1c0-1.5,0.3-2.5,0.8-3.2C13.6,4.3,14.2,4,14.9,4z M14.9,5.2
			c-0.2,0-0.3,0.1-0.5,0.2c-0.1,0.1-0.3,0.3-0.3,0.6C14,6.4,14,7.1,14,8s0,1.6,0.1,1.9c0.1,0.3,0.2,0.6,0.3,0.7
			c0.1,0.1,0.3,0.2,0.5,0.2c0.2,0,0.3-0.1,0.5-0.2c0.1-0.1,0.3-0.3,0.3-0.6c0.1-0.4,0.2-1,0.2-2s0-1.6-0.1-1.9
			c-0.1-0.3-0.2-0.6-0.3-0.7C15.3,5.3,15.1,5.2,14.9,5.2z"/>
	</g>
</g>
</svg>
