<?xml version="1.0" encoding="utf-8"?>
<!-- Generator: Adobe Illustrator 22.1.0, SVG Export Plug-In . SVG Version: 6.00 Build 0)  -->
<svg version="1.1" id="圖層_1" xmlns="http://www.w3.org/2000/svg" xmlns:xlink="http://www.w3.org/1999/xlink" x="0px" y="0px"
	 viewBox="0 0 18 18" style="enable-background:new 0 0 18 18;" xml:space="preserve">
<style type="text/css">
	.st0{display:none;fill:#BBBBBB;}
	.st1{fill:#BBBBBB;}
	.st2{fill:none;stroke:#BBBBBB;stroke-width:1.25;stroke-linecap:round;stroke-miterlimit:10;}
</style>
<path class="st0" d="M17.8,3.5l-3.3-3.3c-0.3-0.3-0.8-0.3-1.1,0L5.2,8.4C5,8.6,4.9,8.8,4.9,9v3.3c0,0.5,0.3,0.8,0.8,0.8H9
	c0.2,0,0.4-0.1,0.6-0.2l8.2-8.2C18.1,4.3,18.1,3.8,17.8,3.5z M8.7,11.5H6.5V9.3L13.9,2L16,4.1L8.7,11.5z"/>
<g>
	<path class="st1" d="M7.2,1.3 M8.4,1.2 M16.3,9.5 M17.5,9.5 M12.2,0H8.4H3.3C1.8,0,0.5,1.3,0.5,3v12c0,1.7,1.3,3,2.8,3h11.3
		c1.6,0,2.8-1.3,2.8-3V6.5h-1.2l0,4.3V15c0,1-0.7,1.8-1.7,1.8H3.3c-0.9,0-1.7-0.8-1.7-1.8V3c0-1,0.7-1.8,1.7-1.8h8.8"/>
	<line class="st2" x1="5.6" y1="12.3" x2="16.6" y2="1.3"/>
</g>
</svg>
