<?xml version="1.0" encoding="utf-8"?>
<!-- Generator: Adobe Illustrator 22.1.0, SVG Export Plug-In . SVG Version: 6.00 Build 0)  -->
<svg version="1.1" id="圖層_1" xmlns="http://www.w3.org/2000/svg" xmlns:xlink="http://www.w3.org/1999/xlink" x="0px" y="0px"
	 viewBox="0 0 32 32" style="enable-background:new 0 0 32 32;" xml:space="preserve">
<style type="text/css">
	.st0{fill:#FFFFFF;}
</style>
<title>expand</title>
<path class="st0" d="M1.5,32h9c0.3,0,0.5-0.2,0.5-0.5S10.8,31,10.5,31h-9C1.2,31,1,30.8,1,30.5v-29C1,1.2,1.2,1,1.5,1h29
	C30.8,1,31,1.2,31,1.5v9c0,0.3,0.2,0.5,0.5,0.5s0.5-0.2,0.5-0.5v-9C32,0.7,31.3,0,30.5,0l-29,0C0.7,0,0,0.7,0,1.5l0,29
	C0,31.3,0.7,32,1.5,32z M13.7,13l-7-7h6.8C13.8,6,14,5.8,14,5.5S13.8,5,13.5,5h-8C5.2,5,5,5.2,5,5.5v8C5,13.8,5.2,14,5.5,14
	S6,13.8,6,13.5V6.7l7,7v16.8c0,0.8,0.7,1.5,1.5,1.5h16c0.8,0,1.5-0.7,1.5-1.5v-16c0-0.8-0.7-1.5-1.5-1.5C30.5,13,13.7,13,13.7,13z
	 M14,14h16.5c0.3,0,0.5,0.2,0.5,0.5v16c0,0.3-0.2,0.5-0.5,0.5h-16c-0.3,0-0.5-0.2-0.5-0.5V14z"/>
</svg>
