<!-- Generated by IcoMoon.io -->
<svg version="1.1" xmlns="http://www.w3.org/2000/svg" width="32" height="32" viewBox="0 0 32 32">
<title>iconpopu</title>
<path fill="#bbb" d="M25.371 17.829c-0.686-0.229-1.371-0.457-2.057-0.457 1.829-1.143 3.2-3.657 3.2-6.4 0-3.886-2.514-6.857-5.486-6.857s-5.486 3.2-5.486 6.857c0 2.743 1.371 5.029 3.2 6.171-0.686 0.229-1.6 0.229-2.286 0.457-5.486 2.057-6.629 7.543-6.629 10.971h22.171c0-3.429-1.143-8.914-6.629-10.743z"></path>
<path fill="#bbb" d="M13.257 18.057c-0.457-0.229-0.914-0.457-1.371-0.686s-1.143-0.229-1.6-0.457c1.371-0.686 2.514-2.514 2.514-4.571 0-2.743-1.829-5.029-4.343-5.029s-4.343 2.286-4.343 5.029c0 2.057 0.914 3.657 2.514 4.571-0.686 0-1.143 0.229-1.6 0.457-4.114 1.371-5.029 5.486-5.029 7.771h8c0.457-2.514 2.514-6.629 5.257-7.086z"></path>
</svg>
