<!-- Generated by IcoMoon.io -->
<svg version="1.1" xmlns="http://www.w3.org/2000/svg" width="32" height="32" viewBox="0 0 32 32">
<title>iconresults</title>
<path d="M29.422 6.906q-0.453-0.469-1.125-0.484t-1.141 0.453l-15.031 14.531-7-6.469q-0.469-0.438-1.141-0.422t-1.109 0.516-0.422 1.156 0.516 1.094l8.094 7.5h0.031l0.125 0.125h0.016t0.016 0.016 0.031 0.031l0.125 0.063t0.047 0.016 0.031 0.016 0.031 0.016 0.031 0.016 0.047 0.016 0.031 0.031h0.063q0.031 0 0.063 0.031h0.094q0.031 0.031 0.063 0.031h0.5q0.031-0.031 0.063-0.031h0.094q0.031-0.031 0.063-0.031h0.031l0.031-0.031h0.031t0.047-0.016 0.031-0.016 0.031-0.016 0.031-0.016 0.047-0.016l0.063-0.031t0.031-0.031 0.031-0.031 0.047-0.016 0.016-0.016v-0.016q0.031 0 0.047-0.016l0.109-0.109h0.031l16.094-15.594q0.469-0.438 0.484-1.109t-0.438-1.141z"></path>
</svg>
