<?xml version="1.0" encoding="utf-8"?>
<!-- Generator: Adobe Illustrator 22.1.0, SVG Export Plug-In . SVG Version: 6.00 Build 0)  -->
<svg version="1.1" id="圖層_1" xmlns="http://www.w3.org/2000/svg" xmlns:xlink="http://www.w3.org/1999/xlink" x="0px" y="0px"
	 viewBox="0 0 16 16" style="enable-background:new 0 0 16 16;" xml:space="preserve">
<style type="text/css">
	.st0{fill:#FFFFFF;}
</style>
<title>gift</title>
<path class="st0" d="M11.9,4c0.1,0,0.2-0.1,0.2-0.1c0.8-0.4,1.4-1.1,1.4-1.8c0-0.5-0.1-1-0.5-1.3c-0.3-0.4-0.8-0.7-1.4-0.7
	C11-0.1,10.1,0.2,9.5,0.9C8.9,1.4,8.4,2.2,7.9,3.3C7.5,2.4,7,1.8,6.4,1.3C5.6,0.8,4.8,0.6,4,0.7C3,0.9,2.3,1.6,2.4,2.5
	C2.5,3.1,3,3.6,3.8,4h-3C-0.1,4,0,4.6,0,5.3v2.3C0,7.9,0.2,8,0.4,8h0.4v6.7c0,0.7,0.7,1.3,1.6,1.3h11.2c0.9,0,1.6-0.6,1.6-1.3V8h0.4
	C15.8,8,16,7.8,16,7.7V5.3C16,4.6,15.3,4,14.4,4L11.9,4z M9.6,15.3H6.4V4.7h3.2V15.3z M10.1,1.3c0.4-0.4,0.9-0.6,1.4-0.6
	c0.1,0,0.1,0,0.2,0c0.7,0.1,1.2,0.7,1.2,1.4C12.7,2.9,11.5,3.9,8.5,4C8.9,2.8,9.4,1.9,10.1,1.3z M3.2,2.4c-0.1-0.5,0.4-0.9,1-1
	c0.1,0,0.2,0,0.3,0c0.4,0,0.9,0.2,1.4,0.5C6.5,2.3,7,3,7.4,4C4.5,3.9,3.3,3.1,3.2,2.4L3.2,2.4z M0.8,4.7h4.8v2.7H0.8V4.7z M1.6,8h4
	v7.3h-4V8z M14.4,15.3h-4V8h4V15.3z M10.4,7.3V4.7h4.8v2.7H10.4z"/>
</svg>
