<!-- Generated by IcoMoon.io -->
<svg version="1.1" xmlns="http://www.w3.org/2000/svg" width="42" height="32" viewBox="0 0 42 32">
<title>live-tv</title>
<path fill="#e74c5b" d="M32 32h-22.4c-5.28 0-9.6-4.32-9.6-9.6v-12.8c0-5.28 4.32-9.6 9.6-9.6h22.4c5.28 0 9.6 4.32 9.6 9.6v12.8c0 5.28-4.32 9.6-9.6 9.6z"></path>
<path fill="#fff" d="M24.8 15.040l-7.040 3.84v-7.84l7.040 4zM29.92 20.96v-11.84h-18.24v11.68h18.24zM29.92 7.2c1.12 0 2.080 0.8 2.080 1.92v11.68c0 1.12-0.96 1.92-2.080 1.92h-5.12v1.92h-8.16v-1.92h-4.96c-1.12 0-2.080-0.8-2.080-1.92v-11.68c0-1.12 0.96-1.92 2.080-1.92h18.24z"></path>
</svg>
