<!-- Generated by IcoMoon.io -->
<svg version="1.1" xmlns="http://www.w3.org/2000/svg" width="42" height="32" viewBox="0 0 42 32">
<title>live-animation</title>
<path fill="#168058" d="M32 32h-22.4c-5.28 0-9.6-4.32-9.6-9.6v-12.8c0-5.28 4.32-9.6 9.6-9.6h22.4c5.28 0 9.6 4.32 9.6 9.6v12.8c0 5.28-4.32 9.6-9.6 9.6z"></path>
<path fill="#fff" d="M9.6 13.12v5.92h-1.6v-5.92h1.6zM11.2 11.52h-4.8v9.12h4.8v-9.12z"></path>
<path fill="#fff" d="M33.6 13.12v5.92h-1.6v-5.92h1.6zM35.2 11.52h-4.8v9.12h4.8v-9.12z"></path>
<path fill="#fff" d="M33.6 8v16h-25.6v-16h25.6zM33.6 6.4h-25.6c-0.96 0-1.6 0.64-1.6 1.6v16c0 0.96 0.64 1.6 1.6 1.6h25.6c0.8 0 1.6-0.64 1.6-1.6v-16c0-0.96-0.8-1.6-1.6-1.6v0z"></path>
<path fill="none" stroke="#fff" stroke-width="1.6" stroke-miterlimit="10" stroke-linecap="butt" stroke-linejoin="miter" d="M25.6 16c0 2.209-2.149 4-4.8 4s-4.8-1.791-4.8-4c0-2.209 2.149-4 4.8-4s4.8 1.791 4.8 4z"></path>
<path fill="none" stroke="#fff" stroke-width="1.6" stroke-miterlimit="10" stroke-linecap="butt" stroke-linejoin="miter" d="M20.8 7.36v17.28"></path>
</svg>
