<?xml version="1.0" encoding="utf-8"?>
<!-- Generator: Adobe Illustrator 22.1.0, SVG Export Plug-In . SVG Version: 6.00 Build 0)  -->
<svg version="1.1" id="圖層_1" xmlns="http://www.w3.org/2000/svg" xmlns:xlink="http://www.w3.org/1999/xlink" x="0px" y="0px"
	 viewBox="0 0 32 32" style="enable-background:new 0 0 32 32;" xml:space="preserve">
<style type="text/css">
	.st0{fill:#14805E;}
</style>
<title>nav_date</title>
<path class="st0" d="M27.3,3.9h-3.6v1.4h3.6c0.3,0,0.5,0.1,0.7,0.3c0.2,0.2,0.3,0.4,0.3,0.7v2.4H3.7V6.3c0-0.3,0.1-0.5,0.3-0.7
	c0.2-0.2,0.5-0.3,0.7-0.3h3.5V3.9H4.7C4,3.9,3.4,4.1,3,4.6S2.2,5.7,2.2,6.3v20.5c0,0.7,0.2,1.3,0.7,1.7s1.1,0.7,1.8,0.7h22.6
	c0.7,0,1.3-0.2,1.8-0.7c0.5-0.5,0.7-1,0.7-1.7V6.3c0-0.7-0.2-1.2-0.7-1.7C28.6,4.1,28,3.9,27.3,3.9L27.3,3.9z M28.3,26.8
	c0,0.3-0.1,0.5-0.3,0.7s-0.4,0.3-0.7,0.3H4.7c-0.3,0-0.5-0.1-0.8-0.3c-0.2-0.2-0.3-0.4-0.3-0.7V9.9h24.7L28.3,26.8L28.3,26.8z
	 M13.5,3.9h4.8v1.4h-4.8V3.9z M9.9,2.5h1.6v5H9.9C9.9,7.5,9.9,2.5,9.9,2.5z M20.5,2.5h1.6v5h-1.6C20.5,7.5,20.5,2.5,20.5,2.5z
	 M11.6,14.8v7.8h1.2v-10h-0.8c-0.2,0.4-0.6,0.9-1.1,1.3c-0.5,0.5-1.1,0.9-1.8,1.2v1.2c0.4-0.1,0.8-0.3,1.3-0.6
	C10.9,15.4,11.3,15.1,11.6,14.8L11.6,14.8z M19.2,21.8c-0.5,0-0.9-0.2-1.3-0.5s-0.6-0.8-0.7-1.4L16,20c0.1,0.8,0.4,1.5,1,2
	s1.3,0.8,2.2,0.8c1.1,0,2-0.4,2.6-1.2c0.5-0.6,0.8-1.4,0.8-2.3c0-0.9-0.3-1.7-0.9-2.3c-0.6-0.6-1.3-0.9-2.2-0.9
	c-0.7,0-1.3,0.2-1.9,0.6l0.5-2.7h4v-1.2h-4.9l-1,5.1l1.1,0.2c0.2-0.3,0.4-0.5,0.8-0.7s0.7-0.3,1-0.3c0.6,0,1.2,0.2,1.5,0.6
	s0.6,0.9,0.6,1.7c0,0.7-0.2,1.3-0.6,1.8C20.2,21.6,19.7,21.8,19.2,21.8z"/>
</svg>
