<?xml version="1.0" encoding="utf-8"?>
<!-- Generator: Adobe Illustrator 22.1.0, SVG Export Plug-In . SVG Version: 6.00 Build 0)  -->
<svg version="1.1" id="圖層_1" xmlns="http://www.w3.org/2000/svg" xmlns:xlink="http://www.w3.org/1999/xlink" x="0px" y="0px"
	 viewBox="0 0 32 32" style="enable-background:new 0 0 32 32;" xml:space="preserve">
<style type="text/css">
	.st0{fill:#BBBBBB;}
</style>
<title>next</title>
<path class="st0" d="M9.6,5.8C9.4,5.9,9.3,6.1,9.3,6.3s0.1,0.4,0.2,0.5L20,17.1c0.1,0.1,0.3,0.2,0.5,0.2s0.4-0.1,0.5-0.2
	c0.1-0.1,0.2-0.3,0.2-0.5c0-0.2-0.1-0.4-0.2-0.5L10.7,5.8c-0.1-0.1-0.3-0.2-0.5-0.2S9.7,5.6,9.6,5.8L9.6,5.8z M9.5,27.3
	c0.1,0.2,0.3,0.3,0.5,0.3c0.2,0,0.4-0.1,0.5-0.2l10.5-10.2c0.1-0.1,0.2-0.3,0.2-0.5s-0.1-0.4-0.2-0.6c-0.1-0.2-0.3-0.3-0.5-0.3
	s-0.4,0.1-0.5,0.2L9.6,26.2c-0.1,0.1-0.2,0.3-0.2,0.5S9.4,27.1,9.5,27.3L9.5,27.3z"/>
</svg>
