<?xml version="1.0" encoding="utf-8"?>
<!-- Generator: Adobe Illustrator 22.1.0, SVG Export Plug-In . SVG Version: 6.00 Build 0)  -->
<svg version="1.1" id="圖層_1" xmlns="http://www.w3.org/2000/svg" xmlns:xlink="http://www.w3.org/1999/xlink" x="0px" y="0px"
	 viewBox="0 0 32 32" style="enable-background:new 0 0 32 32;" xml:space="preserve">
<style type="text/css">
	.st0{fill:#FFFFFF;}
</style>
<title>prev</title>
<path class="st0" d="M21.8,5.2C21.9,5.3,22,5.5,22,5.7s-0.1,0.4-0.2,0.5L11.3,16.5c-0.1,0.1-0.3,0.2-0.5,0.2c-0.2,0-0.4-0.1-0.5-0.2
	C10.1,16.4,10,16.2,10,16c0-0.2,0.1-0.4,0.2-0.5L20.7,5.2C20.8,5.1,21,5,21.2,5S21.6,5,21.8,5.2z M21.8,26.7
	c-0.1,0.2-0.3,0.2-0.5,0.3c-0.2,0-0.4,0-0.5-0.2L10.2,16.6C10.1,16.4,10,16.3,10,16c0-0.2,0-0.4,0.2-0.6s0.3-0.2,0.5-0.3
	s0.4,0.1,0.5,0.2l10.6,10.2c0.1,0.1,0.2,0.3,0.2,0.5C22,26.4,22,26.6,21.8,26.7L21.8,26.7z"/>
</svg>
