<?xml version="1.0" encoding="utf-8"?>
<!-- Generator: Adobe Illustrator 22.1.0, SVG Export Plug-In . SVG Version: 6.00 Build 0)  -->
<svg version="1.1" id="圖層_1" xmlns="http://www.w3.org/2000/svg" xmlns:xlink="http://www.w3.org/1999/xlink" x="0px" y="0px"
	 viewBox="0 0 18 18" style="enable-background:new 0 0 18 18;" xml:space="preserve">
<style type="text/css">
	.st0{fill:none;stroke:#BBBBBB;stroke-width:1.25;stroke-miterlimit:10;}
	.st1{fill:none;stroke:#BBBBBB;stroke-miterlimit:10;}
	.st2{fill:#BBBBBB;}
</style>
<g>
	<line class="st0" x1="2.5" y1="9.5" x2="15.5" y2="9.5"/>
</g>
<line class="st0" x1="2.5" y1="12" x2="11.5" y2="12"/>
<line class="st0" x1="2.5" y1="14.5" x2="13.5" y2="14.5"/>
<circle class="st1" cx="5" cy="5.5" r="2"/>
<g>
	<path class="st2" d="M15,1.3c1,0,1.8,0.8,1.8,1.8v12c0,1-0.8,1.8-1.8,1.8H3c-1,0-1.8-0.8-1.8-1.8V3C1.3,2,2,1.3,3,1.3H15 M15,0H3
		C1.3,0,0,1.3,0,3v12c0,1.6,1.3,3,3,3h12c1.6,0,3-1.4,3-3V3C18,1.3,16.6,0,15,0L15,0z"/>
</g>
</svg>
