<!-- Generated by IcoMoon.io -->
<svg version="1.1" xmlns="http://www.w3.org/2000/svg" width="32" height="32" viewBox="0 0 32 32">
<title>qq-radius</title>
<path d="M16 2.531q-3.656 0-6.766 1.797t-4.906 4.906-1.797 6.766 1.797 6.75 4.906 4.906 6.766 1.813 6.766-1.813 4.906-4.906 1.797-6.75-1.797-6.766-4.906-4.906-6.766-1.797zM21.656 18.906q-0.313 0.031-0.578-0.406t-0.391-0.531q-0.188 1.031-1 1.656 0.125 0.094 0.516 0.281t0.594 0.406 0.172 0.563q-0.031 0.625-0.969 0.906t-2.031 0.188q-0.938-0.063-1.938-0.75-0.156 0.063-0.453 0.25t-0.453 0.25q-0.938 0.438-2.484 0.203t-1.641-1.016q-0.031-0.375 0.156-0.594t0.625-0.422 0.531-0.266q-0.844-0.594-1-1.594-0.156 0.031-0.422 0.453t-0.547 0.422q-0.344 0-0.469-0.594t-0.094-1.25q0.031-0.313 0.125-0.609t0.266-0.594 0.281-0.469 0.344-0.469 0.266-0.359q-0.031-1.094 0.281-1.5 0.031-1.969 1.375-3.313 1.406-1.406 3.219-1.406 1.875-0.031 3.313 1.375 1 1 1.25 2.281 0.031 0.125 0.047 0.484t0.047 0.547q0.031 0.094 0.141 0.266t0.109 0.266q0.031 0.156 0.016 0.469t0.016 0.469q0.031 0.094 0.094 0.203t0.172 0.219l0.141 0.141q0.813 1.031 0.875 1.906 0.094 0.656-0.031 1.281t-0.469 0.656z"></path>
</svg>
