<!-- Generated by IcoMoon.io -->
<svg version="1.1" xmlns="http://www.w3.org/2000/svg" width="32" height="32" viewBox="0 0 32 32">
<title>qq</title>
<path d="M6.344 14.719l-0.031-0.156-0.063-0.188v-0.563l0.031-0.156 0.063-0.188 0.063-0.219 0.063-0.188 0.125-0.25 0.156-0.219v-0.281l0.031-0.219 0.063-0.219 0.063-0.25 0.063-0.094 0.063-0.125 0.063-0.094 0.094-0.094v-0.563l0.031-0.281 0.063-0.313 0.063-0.406 0.125-0.406 0.094-0.219 0.094-0.25 0.063-0.25 0.375-0.75 0.125-0.281 0.188-0.281 0.094-0.156 0.094-0.125 0.188-0.281 0.438-0.563 0.25-0.281 0.563-0.563 0.344-0.313 0.188-0.188 0.281-0.219 0.25-0.188 0.313-0.156 0.25-0.156 0.313-0.125 0.344-0.156 0.313-0.125 0.344-0.094 0.344-0.125 0.375-0.094 0.75-0.125 0.375-0.031 0.344-0.063 0.406-0.031h1.188l0.375 0.063 0.406 0.031 0.406 0.063 0.375 0.094 0.375 0.063 0.375 0.094 0.406 0.125 0.375 0.125 0.344 0.156 0.375 0.156 0.344 0.156 0.344 0.188 0.313 0.219 0.281 0.219 0.156 0.094 0.125 0.094 0.25 0.219 0.219 0.219 0.25 0.219 0.188 0.25 0.188 0.219 0.219 0.25 0.156 0.281 0.125 0.219 0.156 0.281 0.156 0.25 0.219 0.5 0.281 0.75 0.063 0.25 0.063 0.219 0.063 0.25 0.125 0.438 0.063 0.406 0.063 0.375 0.031 0.281 0.063 0.469 0.031 0.063 0.063 0.094 0.125 0.25 0.188 0.313 0.094 0.188 0.094 0.219 0.063 0.219 0.156 0.625v0.563l-0.031 0.156-0.094 0.313-0.125 0.313v0.063l0.094 0.188 0.344 0.5 0.281 0.375 0.125 0.25 0.188 0.281 0.156 0.313 0.188 0.344 0.156 0.375 0.219 0.406 0.094 0.25 0.125 0.25 0.063 0.281 0.094 0.25 0.063 0.25 0.063 0.219 0.094 0.469 0.063 0.469 0.063 0.406v0.594l-0.094 0.563-0.063 0.313-0.094 0.281-0.031 0.125-0.063 0.156-0.063 0.094-0.063 0.125-0.063 0.063-0.094 0.125-0.063 0.063-0.188 0.125-0.063 0.031-0.094 0.031h-0.094l-0.063-0.031-0.156-0.063-0.125-0.094-0.25-0.25-0.125-0.188-0.094-0.188-0.125-0.156-0.094-0.156-0.313-0.625h-0.063l-0.063 0.031-0.031 0.094-0.063 0.094-0.125 0.313-0.156 0.438-0.219 0.531-0.156 0.281-0.188 0.281-0.188 0.313-0.219 0.281-0.25 0.313-0.313 0.281 0.031 0.031 0.031 0.063 0.156 0.063 0.656 0.313 0.281 0.156 0.25 0.156 0.281 0.188 0.219 0.219 0.125 0.094 0.094 0.094 0.063 0.125 0.094 0.125 0.031 0.094 0.063 0.156v0.094l0.031 0.125-0.031 0.094v0.188l-0.063 0.094-0.063 0.125-0.125 0.156-0.188 0.25-0.063 0.063-0.375 0.25-0.438 0.188-0.25 0.094-0.156 0.063-0.125 0.031-0.281 0.063-0.625 0.125-0.344 0.063-0.688 0.063h-1.094l-0.406-0.031-0.375-0.031-0.375-0.063-0.406-0.031-0.406-0.063-0.813-0.188-0.375-0.094-0.406-0.156-0.406-0.094-0.188-0.094-0.188-0.063-0.25-0.063h-0.313l-0.375-0.031h-0.188l-0.25-0.031-0.156 0.125-0.219 0.156-0.281 0.125-0.344 0.188-0.188 0.094-0.219 0.063-0.438 0.188-0.875 0.219h-0.219l-0.25 0.031-0.219 0.031h-2.156l-0.625-0.063-0.344-0.063-0.625-0.094-0.281-0.063-0.281-0.094-0.313-0.063-0.5-0.188-0.219-0.125-0.188-0.094-0.188-0.156-0.094-0.063-0.063-0.094-0.063-0.063-0.125-0.188-0.031-0.063-0.094-0.281-0.031-0.125v-0.094l0.031-0.094v-0.094l0.031-0.125v-0.344l0.063-0.125 0.031-0.125 0.063-0.156 0.125-0.125 0.125-0.156 0.188-0.125 0.063-0.063 0.156-0.063 0.094-0.063 0.125-0.063 0.156-0.031 0.156-0.063 0.188-0.031 0.156-0.031 0.219-0.031h0.219l0.031-0.031h0.031l0.031-0.031-0.063-0.063-0.094-0.063-0.281-0.25-0.219-0.156-0.219-0.188-0.219-0.219-0.25-0.281-0.25-0.313-0.094-0.188-0.156-0.156-0.094-0.219-0.25-0.438-0.094-0.219-0.094-0.25-0.125-0.281-0.063-0.25-0.094-0.313-0.031-0.031h-0.094l-0.063 0.063v0.063l-0.031 0.063-0.031 0.094-0.125 0.25-0.188 0.25-0.125 0.156-0.125 0.188-0.281 0.281-0.156 0.125-0.156 0.094-0.188 0.125-0.156 0.063-0.219 0.063h-0.281l-0.031-0.094-0.063-0.031-0.063-0.188-0.063-0.094-0.031-0.156-0.063-0.156v-0.125l-0.063-0.344-0.031-0.188v-0.656l0.031-0.469 0.063-0.5 0.063-0.281 0.063-0.25 0.094-0.281 0.094-0.313 0.094-0.281 0.25-0.563 0.156-0.313 0.156-0.281 0.219-0.313 0.188-0.281 0.219-0.313 0.188-0.219 0.219-0.25 0.25-0.25 0.094-0.125 0.125-0.125 0.219-0.156 0.188-0.188 0.344-0.281 0.219-0.188z"></path>
</svg>
