<?xml version="1.0" encoding="utf-8"?>
<!-- Generator: Adobe Illustrator 22.0.1, SVG Export Plug-In . SVG Version: 6.00 Build 0)  -->
<svg version="1.1" id="圖層_1" xmlns="http://www.w3.org/2000/svg" xmlns:xlink="http://www.w3.org/1999/xlink" x="0px" y="0px"
	 viewBox="0 0 20 20" style="enable-background:new 0 0 20 20;" xml:space="preserve">
<style type="text/css">
	.st0{fill:#FFFFFF;}
</style>
<title>shopping-cart</title>
<path class="st0" d="M13,17c0,1.1,0.9,2,2,2c1.1,0,2-0.9,2-2c0-1.1-0.9-2-2-2C13.9,15,13,15.9,13,17z M3,17c0,1.1,0.9,2,2,2
	c1.1,0,2-0.9,2-2c0-1.1-0.9-2-2-2C3.9,15,3,15.9,3,17z M6.5,12.2L17.6,9C17.8,8.9,18,8.7,18,8.5V3H4V1.4C4,1.2,3.8,1,3.6,1H0.4
	C0.2,1,0,1.2,0,1.4V3h2l1.9,9L4,12.9v1.6c0,0.2,0.2,0.4,0.4,0.4h13.2c0.2,0,0.4-0.2,0.4-0.4V13H6.8C5.6,13,5.6,12.4,6.5,12.2z"/>
</svg>
