<svg id="圖層_1" data-name="圖層 1" xmlns="http://www.w3.org/2000/svg" xmlns:xlink="http://www.w3.org/1999/xlink" viewBox="0 0 16 16"><defs><style>.cls-1,.cls-3{fill:none;}.cls-2{fill:url(#linear-gradient);}.cls-3{stroke-miterlimit:10;stroke-width:0.5px;stroke:url(#linear-gradient-2);}.cls-4{fill:url(#linear-gradient-3);}.cls-5{clip-path:url(#clip-path);}.cls-6{clip-path:url(#clip-path-2);}.cls-7{fill:url(#linear-gradient-4);}</style><linearGradient id="linear-gradient" x1="2.22" y1="-1.15" x2="13.79" y2="17.2" gradientUnits="userSpaceOnUse"><stop offset="0" stop-color="#601986"/><stop offset="0.14" stop-color="#5b1880"/><stop offset="0.33" stop-color="#4f156e"/><stop offset="0.55" stop-color="#3a0f51"/><stop offset="0.79" stop-color="#1d0828"/><stop offset="1"/></linearGradient><linearGradient id="linear-gradient-2" x1="2.52" y1="13.46" x2="13.44" y2="2.54" gradientUnits="userSpaceOnUse"><stop offset="0" stop-color="#9c8368"/><stop offset="0.08" stop-color="#a2896d"/><stop offset="0.19" stop-color="#b19b7c"/><stop offset="0.32" stop-color="#cab894"/><stop offset="0.46" stop-color="#ede1b6"/><stop offset="0.5" stop-color="#faefc2"/><stop offset="0.77" stop-color="#c4b18f"/><stop offset="1" stop-color="#9c8368"/></linearGradient><linearGradient id="linear-gradient-3" x1="3.06" y1="13.28" x2="13.25" y2="3.09" xlink:href="#linear-gradient-2"/><clipPath id="clip-path"><path class="cls-1" d="M-.08,0V16h16V0ZM13.36,7.37l-2,1.77.56,2.6a1.17,1.17,0,0,1-.43,1.18,1.22,1.22,0,0,1-.68.22,1,1,0,0,1-.57-.16L8,11.63,5.7,13a1.1,1.1,0,0,1-.58.16A1.14,1.14,0,0,1,4,11.74l.57-2.6-2-1.77a1.15,1.15,0,0,1,.65-2L5.88,5.1,6.94,2.66A1.13,1.13,0,0,1,8,2a1.16,1.16,0,0,1,1,.69L10.09,5.1l2.63.26a1.14,1.14,0,0,1,1,.79A1.16,1.16,0,0,1,13.36,7.37Z"/></clipPath><clipPath id="clip-path-2"><path class="cls-1" d="M14.1,8A6.12,6.12,0,1,1,8,1.83,6.14,6.14,0,0,1,14.1,8Z"/></clipPath><linearGradient id="linear-gradient-4" x1="0.75" y1="8.66" x2="15.26" y2="8.66" xlink:href="#linear-gradient-2"/></defs><title>star</title><ellipse class="cls-2" cx="7.98" cy="8" rx="7.44" ry="7.5"/><ellipse class="cls-3" cx="7.98" cy="8" rx="7.44" ry="7.5"/><path class="cls-4" d="M12.94,6.4a.36.36,0,0,0-.3-.24L9.55,5.85,8.3,3a.35.35,0,0,0-.64,0L6.42,5.85l-3.1.31a.35.35,0,0,0-.19.61L5.45,8.85l-.66,3.06a.35.35,0,0,0,.13.36.31.31,0,0,0,.2.07.41.41,0,0,0,.18-.05L8,10.7l2.68,1.59a.41.41,0,0,0,.18.05.31.31,0,0,0,.2-.07.34.34,0,0,0,.14-.36l-.67-3.06,2.33-2.08A.36.36,0,0,0,12.94,6.4Z"/><g class="cls-5"><g class="cls-6"><path class="cls-7" d="M15.12,10.11,8.19,7.9l4.43-5.77a.2.2,0,0,0,0-.28.19.19,0,0,0-.27,0L7.87,7.66l-4-5.94a.18.18,0,0,0-.27-.05.2.2,0,0,0-.06.27l4,6L.89,10.27a.2.2,0,0,0-.13.25.21.21,0,0,0,.19.13H1L7.67,8.28,8,15.51a.21.21,0,0,0,.2.19h0a.2.2,0,0,0,.19-.21L8.07,8.28,15,10.5h.06a.2.2,0,0,0,.19-.14A.2.2,0,0,0,15.12,10.11Z"/></g></g></svg>