<?xml version="1.0" encoding="utf-8"?>
<!-- Generator: Adobe Illustrator 22.0.1, SVG Export Plug-In . SVG Version: 6.00 Build 0)  -->
<svg version="1.1" id="圖層_1" xmlns="http://www.w3.org/2000/svg" xmlns:xlink="http://www.w3.org/1999/xlink" x="0px" y="0px"
	 viewBox="0 0 16 16" style="enable-background:new 0 0 16 16;" xml:space="preserve">
<style type="text/css">
	.st0{fill:none;}
	.st1{fill:none;stroke:#FFFFFF;stroke-miterlimit:10;}
	.st2{clip-path:url(#SVGID_2_);}
	.st3{clip-path:url(#SVGID_4_);}
	.st4{fill:#FFFFFF;}
</style>
<title>star</title>
<g>
	<ellipse class="st0" cx="8" cy="8" rx="7.4" ry="7.5"/>
	<ellipse class="st1" cx="8" cy="8" rx="7.4" ry="7.5"/>
	<path class="st1" d="M12.9,6.4c0-0.1-0.2-0.2-0.3-0.2l-3-0.4L8.3,3C8.2,2.8,8,2.7,7.8,2.8c0,0.1-0.1,0.1-0.1,0.2L6.4,5.8L3.3,6.2
		C3.1,6.2,3,6.4,3,6.5s0.1,0.2,0.1,0.2l2.3,2.1l-0.7,3.1c0,0.1,0,0.3,0.1,0.4c0.1,0,0.1,0.1,0.2,0.1s0.1,0,0.2-0.1L8,10.7l2.7,1.6
		c0.1,0,0.1,0,0.2,0.1c0.1,0,0.1,0,0.2-0.1c0.1-0.1,0.2-0.2,0.1-0.4l-0.7-3.1l2.3-2.1C13,6.7,13,6.5,12.9,6.4z"/>
	<g>
		<g>
			<defs>
				<path id="SVGID_1_" d="M-0.1,0v16h16V0H-0.1z M13.4,7.4l-2,1.8l0.6,2.6c0.1,0.4-0.1,0.9-0.4,1.2c-0.2,0.1-0.4,0.2-0.7,0.2
					c-0.2,0-0.4-0.1-0.6-0.2L8,11.6L5.7,13c-0.2,0.1-0.4,0.2-0.6,0.2C4.5,13.2,4,12.7,4,12c0-0.1,0-0.2,0-0.3l0.6-2.6l-2-1.8
					C2.1,6.9,2.1,6.2,2.5,5.7C2.7,5.5,3,5.4,3.2,5.3L5.9,5L7,2.6C7.1,2.2,7.5,2,8,2c0.4,0,0.8,0.3,1,0.7l1.1,2.4l2.6,0.3
					c0.5,0,0.9,0.3,1,0.8C13.9,6.6,13.7,7.1,13.4,7.4z"/>
			</defs>
			<clipPath id="SVGID_2_">
				<use xlink:href="#SVGID_1_"  style="overflow:visible;"/>
			</clipPath>
			<g class="st2">
				<g>
					<g>
						<defs>
							<path id="SVGID_3_" d="M14.1,8c0,3.4-2.8,6.1-6.2,6.1s-6.1-2.8-6.1-6.2s2.8-6.1,6.1-6.1C11.4,1.9,14.1,4.6,14.1,8z"/>
						</defs>
						<clipPath id="SVGID_4_">
							<use xlink:href="#SVGID_3_"  style="overflow:visible;"/>
						</clipPath>
						<g class="st3">
							<path class="st4" d="M15.1,10.1L8.2,7.9l4.4-5.8c0.1-0.1,0.1-0.2,0-0.3c-0.1-0.1-0.2-0.1-0.3,0l0,0L7.9,7.7l-4-5.9
								c0-0.1-0.2-0.1-0.2-0.1l0,0c-0.2,0-0.2,0.1-0.2,0.2l4,6l-6.7,2.3c-0.1,0-0.2,0.1-0.1,0.3c0,0.1,0.1,0.1,0.2,0.1H1l6.7-2.4
								L8,15.5c0,0.1,0.1,0.2,0.2,0.2l0,0c0.1,0,0.2-0.1,0.2-0.2l0,0L8.1,8.3l6.9,2.2h0.1c0.1,0,0.2-0.1,0.2-0.1
								C15.3,10.3,15.2,10.1,15.1,10.1z"/>
						</g>
						<g class="st3">
							<path class="st4" d="M15.1,9.9L8.2,7.7l4.4-5.8c0.1-0.1,0.1-0.2,0-0.3c-0.1-0.1-0.2-0.1-0.3,0l0,0L7.9,7.5l-4-5.9
								c0-0.1-0.2-0.1-0.2-0.1l0,0c-0.2,0-0.2,0.1-0.2,0.2l4,6L0.8,10c-0.1,0-0.2,0.1-0.1,0.3c0,0.1,0.1,0.1,0.2,0.1H1L7.7,8L8,15.3
								c0,0.1,0.1,0.2,0.2,0.2l0,0c0.1,0,0.2-0.1,0.2-0.2l0,0L8.1,8.1l6.9,2.2h0.1c0.1,0,0.2-0.1,0.2-0.1
								C15.3,10.1,15.2,9.9,15.1,9.9z"/>
						</g>
					</g>
				</g>
			</g>
		</g>
	</g>
</g>
</svg>
