<?xml version="1.0" encoding="utf-8"?>
<!-- Generator: Adobe Illustrator 22.1.0, SVG Export Plug-In . SVG Version: 6.00 Build 0)  -->
<svg version="1.1" id="圖層_1" xmlns="http://www.w3.org/2000/svg" xmlns:xlink="http://www.w3.org/1999/xlink" x="0px" y="0px"
	 viewBox="0 0 24 24" style="enable-background:new 0 0 24 24;" xml:space="preserve">
<style type="text/css">
	.st0{fill:url(#SVGID_1_);}
	.st1{fill:url(#SVGID_2_);}
	.st2{fill:url(#SVGID_3_);}
	.st3{fill:none;stroke:url(#SVGID_4_);stroke-width:0.5;stroke-miterlimit:10;}
	.st4{fill:url(#SVGID_5_);}
	.st5{clip-path:url(#SVGID_7_);}
	.st6{clip-path:url(#SVGID_9_);}
	.st7{fill:url(#SVGID_10_);}
</style>
<title>star</title>
<g>
	
		<linearGradient id="SVGID_1_" gradientUnits="userSpaceOnUse" x1="25.1585" y1="14.3736" x2="36.6842" y2="14.3736" gradientTransform="matrix(0.8612 2.190148e-02 -2.508488e-02 0.9864 -7.2359 -2.6808)">
		<stop  offset="0" style="stop-color:#9C8368"/>
		<stop  offset="8.000000e-02" style="stop-color:#A2896D"/>
		<stop  offset="0.19" style="stop-color:#B19B7C"/>
		<stop  offset="0.32" style="stop-color:#CAB894"/>
		<stop  offset="0.46" style="stop-color:#EDE1B6"/>
		<stop  offset="0.5" style="stop-color:#FAEFC2"/>
		<stop  offset="0.77" style="stop-color:#C4B18F"/>
		<stop  offset="1" style="stop-color:#9C8368"/>
	</linearGradient>
	<path class="st0" d="M16.1,3.1c-0.6,0-1.2,0.1-1.8,0.2c3.6,1,6.1,4.7,6,9s-2.9,7.8-6.5,8.6c0.6,0.2,1.2,0.3,1.8,0.3
		c4.5,0.1,8.2-3.8,8.3-8.8C24.1,7.3,20.6,3.2,16.1,3.1z"/>
	
		<linearGradient id="SVGID_2_" gradientUnits="userSpaceOnUse" x1="21.2573" y1="25.7713" x2="35.0629" y2="3.8756" gradientTransform="matrix(0.8612 2.190148e-02 -2.508488e-02 0.9864 -7.2359 -2.6808)">
		<stop  offset="0" style="stop-color:#601986"/>
		<stop  offset="0.14" style="stop-color:#5B1880"/>
		<stop  offset="0.33" style="stop-color:#4F156E"/>
		<stop  offset="0.55" style="stop-color:#3A0F51"/>
		<stop  offset="0.79" style="stop-color:#1D0828"/>
		<stop  offset="1" style="stop-color:#000000"/>
	</linearGradient>
	<path class="st1" d="M15.7,3.1c-0.6,0-1.2,0.1-1.8,0.2c3.6,1,6.1,4.7,6,9S17,20,13.4,20.8c0.6,0.2,1.2,0.3,1.8,0.3
		c4.5,0.1,8.2-3.8,8.3-8.8S20.2,3.2,15.7,3.1z"/>
</g>
<g>
	
		<linearGradient id="SVGID_3_" gradientUnits="userSpaceOnUse" x1="2.8859" y1="21.4416" x2="17.3543" y2="-1.5053" gradientTransform="matrix(1 0 0 -1 0 22)">
		<stop  offset="0" style="stop-color:#601986"/>
		<stop  offset="0.14" style="stop-color:#5B1880"/>
		<stop  offset="0.33" style="stop-color:#4F156E"/>
		<stop  offset="0.55" style="stop-color:#3A0F51"/>
		<stop  offset="0.79" style="stop-color:#1D0828"/>
		<stop  offset="1" style="stop-color:#000000"/>
	</linearGradient>
	<ellipse class="st2" cx="10.1" cy="12" rx="9.3" ry="9.4"/>
	
		<linearGradient id="SVGID_4_" gradientUnits="userSpaceOnUse" x1="3.3117" y1="3.2117" x2="16.8883" y2="16.7883" gradientTransform="matrix(1 0 0 -1 0 22)">
		<stop  offset="0" style="stop-color:#9C8368"/>
		<stop  offset="8.000000e-02" style="stop-color:#A2896D"/>
		<stop  offset="0.19" style="stop-color:#B19B7C"/>
		<stop  offset="0.32" style="stop-color:#CAB894"/>
		<stop  offset="0.46" style="stop-color:#EDE1B6"/>
		<stop  offset="0.5" style="stop-color:#FAEFC2"/>
		<stop  offset="0.77" style="stop-color:#C4B18F"/>
		<stop  offset="1" style="stop-color:#9C8368"/>
	</linearGradient>
	<ellipse class="st3" cx="10.1" cy="12" rx="9.3" ry="9.4"/>
	
		<linearGradient id="SVGID_5_" gradientUnits="userSpaceOnUse" x1="3.9807" y1="3.3504" x2="16.7288" y2="16.0985" gradientTransform="matrix(1 0 0 -1 0 22)">
		<stop  offset="0" style="stop-color:#9C8368"/>
		<stop  offset="8.000000e-02" style="stop-color:#A2896D"/>
		<stop  offset="0.19" style="stop-color:#B19B7C"/>
		<stop  offset="0.32" style="stop-color:#CAB894"/>
		<stop  offset="0.46" style="stop-color:#EDE1B6"/>
		<stop  offset="0.5" style="stop-color:#FAEFC2"/>
		<stop  offset="0.77" style="stop-color:#C4B18F"/>
		<stop  offset="1" style="stop-color:#9C8368"/>
	</linearGradient>
	<path class="st4" d="M16.3,10c-0.1-0.2-0.2-0.3-0.4-0.3L12,9.3l-1.6-3.6C10.3,5.5,10,5.4,9.8,5.5c-0.1,0-0.2,0.1-0.2,0.2L8.1,9.3
		L4.3,9.7c-0.2,0-0.4,0.2-0.4,0.5c0,0.1,0.1,0.2,0.1,0.3l2.9,2.6l-0.8,3.8c0,0.2,0,0.3,0.2,0.4c0.1,0.1,0.2,0.1,0.3,0.1
		c0.1,0,0.2,0,0.2-0.1l3.4-2l3.4,2c0.1,0,0.1,0.1,0.2,0.1c0.1,0,0.2,0,0.3-0.1s0.2-0.3,0.2-0.5L13.5,13l2.9-2.6
		C16.3,10.3,16.4,10.2,16.3,10z"/>
	<g>
		<g>
			<g>
				<defs>
					<path id="SVGID_6_" d="M0,2v20h20V2H0z M16.8,11.2l-2.5,2.2l0.7,3.3c0.1,0.6-0.1,1.1-0.5,1.5c-0.2,0.2-0.5,0.3-0.9,0.3
						c-0.3,0-0.5-0.1-0.7-0.2l-2.8-1.7l-2.9,1.7c-0.2,0.1-0.5,0.2-0.7,0.2c-0.8,0-1.4-0.6-1.4-1.4c0-0.1,0-0.2,0-0.4l0.7-3.3
						l-2.5-2.2c-0.6-0.5-0.6-1.4-0.1-2c0.2-0.3,0.6-0.4,0.9-0.5l3.3-0.3l1.3-3C9,4.8,9.5,4.5,10.1,4.5c0.5,0,1,0.4,1.3,0.9l1.4,3
						L16,8.7c0.6,0,1.1,0.4,1.3,1C17.4,10.2,17.3,10.8,16.8,11.2z"/>
				</defs>
				<clipPath id="SVGID_7_">
					<use xlink:href="#SVGID_6_"  style="overflow:visible;"/>
				</clipPath>
				<g class="st5">
					<g>
						<g>
							<g>
								<defs>
									<path id="SVGID_8_" d="M17.8,12c0,4.2-3.5,7.6-7.7,7.6s-7.6-3.5-7.6-7.7S6,4.3,10.2,4.3S17.8,7.8,17.8,12z"/>
								</defs>
								<clipPath id="SVGID_9_">
									<use xlink:href="#SVGID_8_"  style="overflow:visible;"/>
								</clipPath>
								<g class="st6">
									
										<linearGradient id="SVGID_10_" gradientUnits="userSpaceOnUse" x1="1.0401" y1="9.2328" x2="19.2019" y2="9.2328" gradientTransform="matrix(1 0 0 -1 0 22)">
										<stop  offset="0" style="stop-color:#9C8368"/>
										<stop  offset="8.000000e-02" style="stop-color:#A2896D"/>
										<stop  offset="0.19" style="stop-color:#B19B7C"/>
										<stop  offset="0.32" style="stop-color:#CAB894"/>
										<stop  offset="0.46" style="stop-color:#EDE1B6"/>
										<stop  offset="0.5" style="stop-color:#FAEFC2"/>
										<stop  offset="0.77" style="stop-color:#C4B18F"/>
										<stop  offset="1" style="stop-color:#9C8368"/>
									</linearGradient>
									<path class="st7" d="M19,14.6l-8.7-2.8l5.5-7.2c0.1-0.1,0.1-0.3,0-0.4s-0.2-0.1-0.3,0l0,0L10,11.6L5,4.2
										C4.9,4,4.7,4,4.6,4.1l0,0C4.5,4.2,4.5,4.3,4.5,4.4l5,7.5l-8.3,2.9C1.1,14.8,1,15,1,15.1s0.1,0.2,0.2,0.2h0.1l8.3-3l0.4,9
										c0,0.1,0.1,0.2,0.3,0.2l0,0c0.1,0,0.2-0.1,0.2-0.3l0,0l-0.4-9l8.7,2.8H19c0.1,0,0.2-0.1,0.2-0.2
										C19.2,14.8,19.2,14.7,19,14.6z"/>
								</g>
							</g>
						</g>
					</g>
				</g>
			</g>
		</g>
	</g>
</g>
</svg>
