<?xml version="1.0" encoding="utf-8"?>
<!-- Generator: Adobe Illustrator 22.1.0, SVG Export Plug-In . SVG Version: 6.00 Build 0)  -->
<svg version="1.1" id="圖層_1" xmlns="http://www.w3.org/2000/svg" xmlns:xlink="http://www.w3.org/1999/xlink" x="0px" y="0px"
	 viewBox="0 0 18 18" style="enable-background:new 0 0 18 18;" xml:space="preserve">
<style type="text/css">
	.st0{fill:none;stroke:#BBBBBB;stroke-miterlimit:10;}
	.st1{clip-path:url(#SVGID_2_);}
	.st2{clip-path:url(#SVGID_4_);}
	.st3{fill:#999999;}
	.st4{fill:#BBBBBB;}
</style>
<title>star</title>
<g>
	<path class="st0" d="M15.3,10.1c0-0.1-0.1-0.2-0.2-0.2l-2.2-0.2l-0.9-2c-0.1-0.1-0.2-0.2-0.3-0.1c-0.1,0-0.1,0.1-0.1,0.1l-0.9,2
		L8.6,9.9c-0.1,0-0.2,0.1-0.2,0.3c0,0.1,0,0.1,0.1,0.2l1.6,1.5L9.6,14c0,0.1,0,0.2,0.1,0.3c0,0,0.1,0,0.1,0c0,0,0.1,0,0.1,0l1.9-1.1
		l1.9,1.1c0,0,0.1,0,0.1,0c0.1,0,0.1,0,0.1,0c0.1-0.1,0.1-0.2,0.1-0.3l-0.5-2.2l1.6-1.5C15.3,10.3,15.3,10.2,15.3,10.1z"/>
	<g>
		<defs>
			<path id="SVGID_1_" d="M6.2,5.6v11.2h11.2V5.6H6.2z M15.6,10.8L14.2,12l0.4,1.8c0.1,0.3,0,0.6-0.3,0.8c-0.1,0.1-0.3,0.2-0.5,0.2
				c-0.1,0-0.3,0-0.4-0.1l-1.6-0.9l-1.6,1c-0.1,0.1-0.3,0.1-0.4,0.1c-0.4,0-0.8-0.3-0.8-0.8c0-0.1,0-0.1,0-0.2L9.4,12L8,10.8
				C7.7,10.5,7.7,10,8,9.7c0.1-0.1,0.3-0.2,0.5-0.3l1.9-0.2l0.7-1.7C11.2,7.2,11.5,7,11.8,7c0.3,0,0.6,0.2,0.7,0.5l0.8,1.7l1.8,0.2
				c0.3,0,0.6,0.2,0.7,0.6C15.9,10.3,15.8,10.6,15.6,10.8z"/>
		</defs>
		<clipPath id="SVGID_2_">
			<use xlink:href="#SVGID_1_"  style="overflow:visible;"/>
		</clipPath>
		<g class="st1">
			<g>
				<defs>
					<path id="SVGID_3_" d="M16.1,11.2c0,2.4-2,4.3-4.3,4.3s-4.3-2-4.3-4.3c0-2.4,1.9-4.3,4.3-4.3C14.2,6.9,16.1,8.9,16.1,11.2z"/>
				</defs>
				<clipPath id="SVGID_4_">
					<use xlink:href="#SVGID_3_"  style="overflow:visible;"/>
				</clipPath>
				<g class="st2">
					<path class="st3" d="M16.8,12.7L12,11.2l3.1-4.1c0.1-0.1,0.1-0.1,0-0.2c-0.1-0.1-0.1-0.1-0.2,0c0,0,0,0,0,0L11.8,11L9,6.8
						c0-0.1-0.1-0.1-0.2,0c0,0,0,0,0,0c-0.1,0-0.1,0.1,0,0.2l2.8,4.2l-4.7,1.6c-0.1,0-0.1,0.1-0.1,0.2c0,0.1,0.1,0.1,0.1,0.1h0
						l4.7-1.7l0.2,5.1c0,0.1,0.1,0.1,0.1,0.1l0,0c0.1,0,0.1-0.1,0.1-0.1c0,0,0,0,0,0l-0.2-5.1l4.9,1.6h0c0.1,0,0.1,0,0.1-0.1
						C16.9,12.8,16.9,12.7,16.8,12.7z"/>
				</g>
			</g>
		</g>
	</g>
</g>
<path class="st4" d="M11.8,5c-0.4,0-0.8,0-1.2,0.1c0,0-0.1,0-0.1-0.1c0.5-0.3,0.8-0.7,0.8-1.1V2.8c0-1.3-2.5-2.3-5.6-2.3
	S0,1.5,0,2.8v1.1C0,4.3,0.3,4.7,0.8,5C0.3,5.4,0,5.8,0,6.2v1.1c0,0.4,0.3,0.8,0.8,1.1C0.3,8.8,0,9.2,0,9.6v1.1
	c0,0.4,0.3,0.8,0.8,1.1C0.3,12.2,0,12.6,0,13v1.1c0,1.3,2.5,2.3,5.6,2.3c0.8,0,1.6-0.1,2.3-0.2c1.1,0.8,2.4,1.3,3.8,1.3
	c3.4,0,6.2-2.8,6.2-6.3S15.2,5,11.8,5z M0.6,2.8c0-0.3,0.5-0.8,1.3-1.1c1-0.4,2.3-0.6,3.8-0.6s2.8,0.2,3.8,0.6
	c0.8,0.3,1.3,0.7,1.3,1.1s-0.5,0.8-1.3,1.1C9.1,4,8.7,4.1,8.3,4.2C7.5,4.4,6.6,4.5,5.6,4.5S3.7,4.4,2.9,4.2C2.5,4.1,2.2,4,1.9,3.8
	C1.1,3.5,0.6,3.1,0.6,2.8z M0.6,9.6c0-0.3,0.3-0.5,0.7-0.8c1,0.5,2.6,0.8,4.3,0.8c0.1,0,0.1,0,0.2,0c-0.1,0.5-0.2,1.1-0.2,1.7
	c0,0,0,0,0,0c-0.9,0-1.9-0.1-2.6-0.3c-0.4-0.1-0.7-0.2-1.1-0.3C1.1,10.3,0.6,9.9,0.6,9.6L0.6,9.6z M5.6,14.7c-1.4,0-2.8-0.2-3.8-0.6
	c-0.8-0.3-1.3-0.7-1.3-1.1c0-0.3,0.3-0.5,0.7-0.8c1,0.5,2.6,0.8,4.3,0.8c0.1,0,0.1,0,0.2,0c0.2,0.6,0.4,1.2,0.8,1.7
	C6.3,14.7,5.9,14.7,5.6,14.7L5.6,14.7z M5.6,7.9c-1,0-1.9-0.1-2.7-0.3C2.5,7.5,2.2,7.4,1.9,7.2C1.1,6.9,0.6,6.5,0.6,6.2
	c0-0.3,0.3-0.5,0.7-0.8c1,0.5,2.6,0.8,4.3,0.8c1.2,0,2.2-0.1,3.1-0.4C7.9,6.3,7.1,7,6.6,7.8C6.3,7.9,5.9,7.9,5.6,7.9L5.6,7.9z
	 M11.8,16.4c-2.8,0-5.1-2.3-5.1-5.1S9,6.1,11.8,6.1s5.1,2.3,5.1,5.1S14.6,16.4,11.8,16.4z"/>
</svg>
