<!-- Generated by IcoMoon.io -->
<svg version="1.1" xmlns="http://www.w3.org/2000/svg" width="32" height="32" viewBox="0 0 32 32">
<title>tab1</title>
<path fill="#999" d="M24 1.733c3.467 0 6.4 2.8 6.4 6.4v16c0 3.467-2.8 6.4-6.4 6.4h-16c-3.467 0-6.4-2.8-6.4-6.4v-16.133c0-3.467 2.8-6.4 6.4-6.4h16zM24 0h-16c-4.4 0-8 3.6-8 8v16c0 4.4 3.6 8 8 8h16c4.4 0 8-3.6 8-8v-16c0-4.4-3.6-8-8-8v0z"></path>
<path fill="none" stroke="#999" stroke-width="1.6667" stroke-miterlimit="10" stroke-linecap="butt" stroke-linejoin="miter" d="M11.067 9.6l10 6.4-10 6.4v-12.8z"></path>
</svg>
