<?xml version="1.0" encoding="utf-8"?>
<!-- Generator: Adobe Illustrator 22.1.0, SVG Export Plug-In . SVG Version: 6.00 Build 0)  -->
<svg version="1.1" id="圖層_1" xmlns="http://www.w3.org/2000/svg" xmlns:xlink="http://www.w3.org/1999/xlink" x="0px" y="0px"
	 viewBox="0 0 65 65" style="enable-background:new 0 0 65 65;" xml:space="preserve">
<style type="text/css">
	.st0{fill:#D83058;}
	.st1{fill:#FFFFFF;}
</style>
<g>
	<circle class="st0" cx="32.5" cy="32.5" r="32.5"/>
	<path class="st1" d="M28,40.4c0.6-0.9,0.3-2-0.7-2.4c-0.9-0.4-2.1,0-2.7,0.9c-0.6,0.9-0.3,2,0.6,2.4C26.2,41.7,27.4,41.3,28,40.4
		L28,40.4z M29.9,37.9c0.2-0.4,0.1-0.8-0.3-0.9c-0.4-0.1-0.8,0-1,0.4c-0.2,0.4-0.1,0.8,0.3,0.9C29.3,38.4,29.7,38.3,29.9,37.9z
		 M33.5,40.1c-1.2,2.8-4.8,4.3-7.8,3.3c-2.9-0.9-4.1-3.8-2.9-6.4c1.3-2.5,4.5-3.9,7.4-3.2C33.2,34.6,34.7,37.4,33.5,40.1z
		 M39.8,36.8c-0.4-4-5.6-6.7-11.6-6.1C22.1,31.4,17.6,35,18,39c0.4,4,5.6,6.7,11.6,6.1C35.6,44.5,40.2,40.8,39.8,36.8z M46,36.9
		c0,4.6-6.6,10.3-16.5,10.3c-7.6,0-15.3-3.7-15.3-9.7c0-3.1,2-6.8,5.4-10.2c4.6-4.6,9.9-6.7,11.9-4.7c0.9,0.9,1,2.4,0.4,4.2
		c-0.3,0.9,0.9,0.4,0.9,0.4c3.7-1.6,6.9-1.6,8.1,0c0.6,0.9,0.6,2.2,0,3.6c-0.3,0.7,0.1,0.8,0.6,0.9C43.7,32.6,46,34.2,46,36.9
		L46,36.9z M44.5,24.2c1.2,1.3,1.5,3,1,4.6c-0.2,0.6-0.9,1-1.5,0.8c-0.6-0.2-1-0.9-0.8-1.5l0,0c0.2-0.8,0.1-1.6-0.5-2.3
		c-0.6-0.6-1.4-0.9-2.2-0.7l0,0c-0.7,0.1-1.3-0.3-1.4-0.9c-0.1-0.6,0.3-1.3,0.9-1.4C41.7,22.5,43.4,22.9,44.5,24.2L44.5,24.2z
		 M48.2,20.9c2.4,2.6,3,6.3,2,9.4l0,0c-0.2,0.7-1,1.1-1.7,0.9c-0.7-0.2-1.1-1-0.9-1.7l0,0c0.7-2.3,0.3-4.8-1.4-6.7
		c-1.7-1.9-4.2-2.6-6.5-2.1c-0.8,0.2-1.5-0.3-1.7-1.1c-0.2-0.8,0.3-1.5,1.1-1.6l0,0C42.3,17.3,45.8,18.3,48.2,20.9z"/>
</g>
</svg>
