<?xml version="1.0" encoding="utf-8"?>
<!-- Generator: Adobe Illustrator 22.1.0, SVG Export Plug-In . SVG Version: 6.00 Build 0)  -->
<svg version="1.1" id="圖層_1" xmlns="http://www.w3.org/2000/svg" xmlns:xlink="http://www.w3.org/1999/xlink" x="0px" y="0px"
	 viewBox="0 0 65 65" style="enable-background:new 0 0 65 65;" xml:space="preserve">
<style type="text/css">
	.st0{fill:#00AAFF;}
	.st1{fill:#FFFFFF;}
</style>
<g>
	<circle class="st0" cx="32.5" cy="32.5" r="32.5"/>
	<path class="st1" d="M19.8,30.7c-0.1-0.3-0.2-0.7-0.2-1.1c0-0.6,0.4-1.5,0.7-1.9c0-0.5,0.2-1.6,0.6-2c0-3.8,2.9-8.5,6.3-10.1
		c2.1-1,4.3-1.3,6.6-1.3c1.8,0,3.7,0.4,5.4,1.1c4.8,2,5.8,5.7,6.9,10.5l0,0.1c0.6,0.9,1.1,1.9,1.1,3c0,0.5-0.4,1.1-0.4,1.6
		c0,0,0.1,0.2,0.1,0.2c1.7,2.6,3.3,5.4,3.3,8.6c0,0.7-0.4,3.2-1.5,3.2c-0.8,0-1.7-1.9-2-2.5c0,0,0,0-0.1,0l-0.1,0.1
		C46,42,45.3,43.6,44,44.8c1.2,1.1,3,1,3.4,2.9c-0.1,0.2-0.1,0.5-0.2,0.7c-1.2,1.7-4.3,2-6.1,2c-2.5,0-4.5-0.6-6.8-1.3
		C33.7,49,33,49,32.5,49c-1.2,1.4-4.3,1.7-6,1.7c-1.5,0-7.5-0.1-7.5-2.7c0-1.1,0.2-1.5,1-2.2c0.6-0.1,1.1-0.5,1.8-0.5
		c0.1,0,0.2,0,0.3,0c0,0,0,0,0-0.1l0-0.1c-1.4-0.3-3.4-3.9-3.7-5.3l-0.1-0.1c-0.1,0-0.2,0.3-0.2,0.4c-0.4,1-1.5,2.2-2.7,2.3h0
		c-0.2,0-0.1-0.2-0.2-0.2c-0.3-0.7-0.5-1.3-0.5-2C14.7,36.1,16.6,33.1,19.8,30.7z"/>
</g>
</svg>
