<?xml version="1.0" encoding="utf-8"?>
<!-- Generator: Adobe Illustrator 22.1.0, SVG Export Plug-In . SVG Version: 6.00 Build 0)  -->
<svg version="1.1" id="圖層_1" xmlns="http://www.w3.org/2000/svg" xmlns:xlink="http://www.w3.org/1999/xlink" x="0px" y="0px"
	 viewBox="0 0 65 65" style="enable-background:new 0 0 65 65;" xml:space="preserve">
<style type="text/css">
	.st0{fill:#3EB135;}
	.st1{fill:#FFFFFF;}
</style>
<g>
	<circle class="st0" cx="32.5" cy="32.5" r="32.5"/>
	<path class="st1" d="M23.5,23.7c0-1.1-0.7-1.8-1.8-1.8c-1.1,0-2.2,0.7-2.2,1.8c0,1.1,1.1,1.8,2.2,1.8
		C22.8,25.5,23.5,24.8,23.5,23.7z M38.6,34c0-0.7-0.7-1.5-1.8-1.5c-0.7,0-1.5,0.7-1.5,1.5c0,0.8,0.7,1.5,1.5,1.5
		C37.8,35.4,38.6,34.7,38.6,34z M33.8,23.7c0-1.1-0.7-1.8-1.8-1.8c-1.1,0-2.2,0.7-2.2,1.8c0,1.1,1.1,1.8,2.2,1.8
		C33,25.5,33.8,24.8,33.8,23.7z M46.7,34c0-0.7-0.8-1.5-1.8-1.5c-0.7,0-1.5,0.7-1.5,1.5c0,0.8,0.7,1.5,1.5,1.5
		C45.9,35.4,46.7,34.7,46.7,34z M41.3,25.9c-0.5-0.1-0.9-0.1-1.4-0.1c-7,0-12.5,5.2-12.5,11.6c0,1.1,0.2,2.1,0.5,3.1
		c-0.5,0-0.9,0.1-1.4,0.1c-1.8,0-3.3-0.4-5.2-0.7l-5.1,2.6l1.5-4.4c-3.7-2.6-5.9-5.9-5.9-10c0-7,6.6-12.5,14.7-12.5
		C33.7,15.6,40,20,41.3,25.9z M53.3,37.3c0,3.3-2.2,6.3-5.2,8.5l1.1,3.7l-4-2.2c-1.5,0.4-3,0.8-4.4,0.8c-7,0-12.5-4.8-12.5-10.7
		s5.5-10.7,12.5-10.7C47.4,26.6,53.3,31.4,53.3,37.3z"/>
</g>
</svg>
