<?xml version="1.0" encoding="utf-8"?>
<!-- Generator: Adobe Illustrator 17.1.0, SVG Export Plug-In . SVG Version: 6.00 Build 0)  -->
<!DOCTYPE svg PUBLIC "-//W3C//DTD SVG 1.1//EN" "http://www.w3.org/Graphics/SVG/1.1/DTD/svg11.dtd">
<svg version="1.1" xmlns="http://www.w3.org/2000/svg" xmlns:xlink="http://www.w3.org/1999/xlink" x="0px" y="0px" width="286.3px"
	 height="250.7px" viewBox="0 0 286.3 250.7" enable-background="new 0 0 286.3 250.7" xml:space="preserve">
<g id="Layer_5">
</g>
<g id="Layer_4">
</g>
<g id="Layer_3">
	<g>
		<g>
			<defs>
				<path id="SVGID_1_" d="M278.1,147.8c0,3.5-3,6.3-6.7,6.3H150.5c-3.7,0-6.7-2.8-6.7-6.3V26.1c0-3.5,3-6.3,6.7-6.3h120.8
					c3.7,0,6.7,2.8,6.7,6.3V147.8z"/>
			</defs>
			<clipPath id="SVGID_2_">
				<use xlink:href="#SVGID_1_"  overflow="visible"/>
			</clipPath>
			<path clip-path="url(#SVGID_2_)" fill="#00101D" stroke="#231815" stroke-width="0.8835" d="M129.7,121.2
				c-2.5-15.8-1.7-33.2-0.8-48.6c0.9-16.1-2.6-32,4.6-47.2c7.5-15.8,28.1-17.6,43.4-18C189.4,7,201.6,7.2,214,7.2
				c14.3,0,29.1,0.2,43.3,1.4c10.3,0.9,19.2,6.6,22.7,16.5c3.3,9.3,2.8,21.2,2.8,31c0.1,14.4,0,28.6,0,43c0,8.3-0.2,17-0.9,25.2
				c-1.1,12.4,0.5,22.9-10.1,31.5c-6.8,5.6-14.9,5.6-23.3,6.7c-17.4,2.3-34.4,1.9-51.5,1.6c-8.3-0.1-16.4,0.8-24.7,0.2
				c-7.4-0.6-13.8-1.9-20.7-3.3c-13.3-2.8-16.8-18.6-19.9-30.2C130.9,127.7,130.2,124.5,129.7,121.2z"/>
			<path clip-path="url(#SVGID_2_)" fill="none" stroke="#3676BC" stroke-width="0.8835" d="M143.4,86.8c2.1-6.5,9.3-13.3,16.4-12.9
				c3.6,0.2,7.1,2.7,9.8,5.3c2.1,2,2.9,4.3,5.7,3.6c7.9-2.1,17-33.2,27.6-24.9c5.3,4.2,9.8,32.4,18.6,31c7.6-1.2,7.4-18.4,14.5-18.6
				c5-0.1,4.2,8.8,9.3,8.1c3.1-0.4,5.1-4.9,6.4-7.2c3.2-6,7.2-14.3,14.9-8c3,2.5,3.8,7.8,8.7,6.6c3.8-0.9,6.5-5.4,9.4-7.6"/>
			<path clip-path="url(#SVGID_2_)" fill="none" stroke="#E60012" stroke-width="0.8835" d="M139.2,95c51.5-0.1,102.5-1.1,154-0.4"
				/>
		</g>
		<g>
			<path fill="none" stroke="#231815" stroke-width="0.8835" d="M187,158.4c-2.4,3.1-4.7,6.3-7.3,9.2"/>
			<path fill="none" stroke="#231815" stroke-width="0.8835" d="M179.8,158.4c0.1-1,2.1-2.5,1.9-0.4c-0.1,1.7-1.8,2.7-2.6,4.3
				c0.8,0,1.8,0.1,2.5,0"/>
			<path fill="none" stroke="#231815" stroke-width="0.8835" d="M185.5,163.7c0,1.6-0.3,3.1-0.8,4.6"/>
		</g>
		<g>
			<path fill="none" stroke="#231815" stroke-width="0.8835" d="M208.2,157.7c-2.4,3.1-4.7,6.3-7.3,9.2"/>
			<path fill="none" stroke="#231815" stroke-width="0.8835" d="M200.9,157.7c0.1-1,2.1-2.5,1.9-0.4c-0.1,1.7-1.8,2.7-2.5,4.3
				c0.8,0,1.8,0.1,2.5,0"/>
			<path fill="none" stroke="#231815" stroke-width="0.8835" d="M206.7,163.1c0,1.6-0.3,3.1-0.8,4.6"/>
			<path fill="none" stroke="#231815" stroke-width="0.8835" d="M209.5,162.8c-0.1,1-0.6,2.1-1,2.9c3.5-0.5,1,2.6-0.8,3.2"/>
			<path fill="none" stroke="#231815" stroke-width="0.8835" d="M209,163.8c0.8,0.1,2.7-1,4-1.5"/>
		</g>
		<g>
			<path fill="none" stroke="#231815" stroke-width="0.8835" d="M234.1,158.2c-2.4,3.1-4.7,6.3-7.3,9.2"/>
			<path fill="none" stroke="#231815" stroke-width="0.8835" d="M232.6,163.6c0,1.6-0.3,3.1-0.8,4.6"/>
			<path fill="none" stroke="#231815" stroke-width="0.8835" d="M227.9,157.4c0.4-0.2,0.8-0.5,1.4-0.3c0,1.4-1,2.4-2.2,3.2
				c3.2-2.3,1.7,4.8-1,4"/>
		</g>
		<g>
			<path fill="none" stroke="#231815" stroke-width="0.8835" d="M255.5,157.9c-2.4,3.1-4.7,6.3-7.3,9.2"/>
			<path fill="none" stroke="#231815" stroke-width="0.8835" d="M253.9,163.3c0,1.6-0.3,3.1-0.8,4.6"/>
			<path fill="none" stroke="#231815" stroke-width="0.8835" d="M256.8,163c-0.1,1-0.6,2.1-1,2.9c3.5-0.5,1,2.6-0.8,3.2"/>
			<path fill="none" stroke="#231815" stroke-width="0.8835" d="M256.3,164c0.8,0.1,2.7-1,3.9-1.5"/>
			<path fill="none" stroke="#231815" stroke-width="0.8835" d="M248.9,156.4c0.4-0.2,0.7-0.5,1.4-0.3c0,1.4-1,2.4-2.2,3.2
				c3.2-2.3,1.7,4.8-1,4"/>
		</g>
		<path fill="none" stroke="#231815" stroke-width="0.8835" d="M269.9,167.6c1.3-1.7,3.9-2.8,4.4-5c0.4-1.9-0.5-3.9-2.7-3.5
			C271.1,161.7,271.7,165.5,269.9,167.6z"/>
		<path fill="none" stroke="#231815" stroke-width="0.8835" d="M278.1,164.5c-1.8-2.5-3.6,1.1-3.5,3c1.4-0.1,2.3-1.5,3-2.6
			c-0.4,1.4,0.1,2.7,1.6,2.1"/>
		<path fill="none" stroke="#231815" stroke-width="0.8835" d="M279.2,162c0.9-0.1,1.8-0.3,2.7-0.5"/>
		<path fill="none" stroke="#231815" stroke-width="0.8835" d="M281.4,157.1c-0.7,1.9-1.7,8.2-0.3,9.8"/>
		<path fill="none" stroke="#231815" stroke-width="0.8835" d="M282.7,165c1.1-0.3,2-1,2.4-1.9c-3.1-1.7-2.7,5.9,0.8,2.2"/>
		<path fill="none" stroke="#231815" stroke-width="0.8835" d="M128.9,3.6c0.5,1.2-1.1,6.8,0.2,7.1c1.7,0.4,2.2-3.3,2.5-4.4
			c0,1.3-0.3,3.5,0.7,4.4c1.5-1.5,3.6-11.5,1.1-10.1"/>
		<path fill="none" stroke="#231815" stroke-width="0.8835" d="M137.9,8.1c0.5-2.7-3.2-0.5-3,1.5c0.3,2.9,2.3-0.8,2.6-2
			c-0.3,1.2-0.3,3.5,1.5,1.7c0.8-0.7,1.2-2.5,1.5-3.5c-0.5,1.1-1.3,3.8-0.3,4.7c0.6-0.3,0.9-0.8,0.9-1.3"/>
		<path fill="none" stroke="#231815" stroke-width="0.8835" d="M143.7,7.3c-0.5-2.4-2.4,2.1-2.4,3.2c1.4-0.2,2.4-2.2,2.8-3.5
			c-0.9,1.8-2.8,7.5-1.1,8.8c0.2-0.2,0.3-0.5,0.4-0.8"/>
		<path fill="none" stroke="#231815" stroke-width="0.8835" d="M140.1,3.2c0.3,0.7,0.8,0.9,1.3,0.6"/>
		<path fill="none" stroke="#231815" stroke-width="0.8835" d="M145.4,2.3c1.7,0.7,0,6.6-0.6,7.9c0.1-0.9,0.5-2.5,1.2-3.1
			c2-1.7,0.8,2.4,1,3.2"/>
		<path fill="none" stroke="#231815" stroke-width="0.8835" d="M148.5,5c0.7,0,2.4-0.7,2.4-1.1"/>
		<path fill="none" stroke="#231815" stroke-width="0.8835" d="M150.2,2.2c0.1,1.6-1.6,7.7-0.3,8.3"/>
		<path fill="none" stroke="#231815" stroke-width="0.8835" d="M155.3,3.2c-1.5,1.6-2.4,5-0.8,6.8"/>
		<path fill="none" stroke="#231815" stroke-width="0.8835" d="M158.3,3.2c0.1,2.1-0.8,4.3-0.9,6.4"/>
		<path fill="none" stroke="#231815" stroke-width="0.8835" d="M160.1,5.1c-0.6,0.8-1.3,1.8-2.2,2.3c0.5,1,1,2.8,2.5,2.1"/>
		<path fill="none" stroke="#231815" stroke-width="0.8835" d="M163.4,7.8c0.4-0.4,0.3-1.5-0.4-1.8c-1.2-0.5-1.3,2-1.5,2.9
			c0.9,0.3,1.9-1.6,2.2-2.4c-0.7,2-2,5-1.2,7.1c0.2,0.1,0.1-0.1,0.2-0.1"/>
		<path fill="none" stroke="#231815" stroke-width="0.8835" d="M166.7,3.5c1.9,1.2,1,6.5-0.9,7.5"/>
		<path fill="none" stroke="#231815" stroke-width="0.8835" d="M138.3,18.5c1.1-1.1,0-3.7-1.8-2.7c-1.8,1,1.5,3.7,1.4,5
			c-0.2,1.9-2.2,1.2-0.7-0.9c0.7-1,2.7-1.9,3.5-2.1c-1.2,1.8,0.7,4.3,1.7,2c0.9-1.8-1.7-3.2-2.2-1.2"/>
		<path fill="#875349" stroke="#231815" stroke-width="0.8835" d="M167.8,222c1.8-2.5,2.8-7.1,1.1-9.9c-0.6-1-2-1.3-2.1-2.5
			c-0.2-1.6,1.5-2.1,2.7-1.4c2.1,1,3.4,5.3,3.6,7.3c0.3,3.1-0.9,5.5-2.1,8.2"/>
		<path fill="#875349" stroke="#231815" stroke-width="0.8835" d="M142,225.2c1.9,3.7,3.9,6.1,7.8,8c5.4,2.5,11.4,1.4,16.5-1.4
			c2.6-1.4,4.6-2.6,6.8-4.7c4.7-4.6,7.6-11.2,5.7-17.7c-0.3-1.2-2.3-5.4-4.2-4.5c-1.8,0.8-0.6,4.1,0.1,5.2
			c3.6,5.9-1.3,10.2-5.3,14.4c1-1.6-1.3-3.7-3-3.9c-1.2-0.1-2.6,0.1-3.4,1c-1.1,1.4-0.2,2.2-2.2,3c-1.7,0.7-4,0.3-5.8-0.1
			c-1.8-0.4-3.5-1.6-5.1-2c-2.4-0.6-3.9,1.4-5.8,2.3"/>
		<path fill="#875349" stroke="#231815" stroke-width="0.8835" d="M143.2,222.2c-2.5,1.6-4.8,3.1-7.6,4.3c-2.7,1.1-5.4,2.4-7.5,4.5
			c-1.6,1.5-2.4,5.2-0.6,7c1.6,1.5,7.2,1.8,7.2-1.3c0-3.2-5.2-0.3-3.7-3.4c0.9-2,4.9-2.8,6.7-3.6c1.7-0.8,10.2-1.1,9.3-4"/>
		<path fill="#FBE0D0" stroke="#231815" stroke-width="0.9467" d="M105.1,115.8c-10.2-1.1-16.4,4-21,13.7c-2.5,5.3-8,25.5-0.4,31.8
			c7.6,6.3,29.2-22.6,35.6-26"/>
		<path fill="#FBE0D0" stroke="#231815" stroke-width="0.9467" d="M141.1,99.8c15.3,3.1,28.1,4.6,33.2,28.4
			c2.7,12.5,7.3,22.6-5.9,27.3c-2.4-4.8-11.4,4.9-11.3-0.5c0.1-6.8-1.6-13.5-3.6-19.8c-1.8-5.8-6.9-5.4-11.2-9.5
			c-2.6-2.4-0.6-6.3-0.5-9.8c0.1-2.6,0.9-10,2.6-10.4"/>
		<path fill="#F29755" stroke="#231815" stroke-width="0.9467" d="M103.8,125.1c-0.4,1,0,1.7,0.1,2.7c0.1,1.2,0,2.7-0.1,3.9
			c-1.8,1-3.8,3.5-4.4,4.9c-1.7,3.9-1.6,10.3,2.3,14.1c-1.7-1.7-9,14.9-10.1,16.1c-4.9,5.6-9.9,27.1-3.7,31.7
			c2.9,2.2,11.1-0.3,14.8-0.3c10,0,17,4,26.4,3.8c9.7-0.2,30.5-2.9,37.5-12.9c9.1-12.8,2.3-32.7-12.6-37c4.3-2.5,3.8-11,2.8-13.9
			c-1.2-3.6-2.8-5.3-4.9-7.9c-1.9-2.4-2.4-2.3-2.4-5.7c0-5.8-1.2-11.7-4.2-16.7c-1.8-3-2.7-4.6-6.3-5.2c-3.6-0.6-7.3,0.9-10.9,1
			c-4.6,0.2-10.5-0.1-14.9-1.3"/>
		<path fill="#FBE0D0" stroke="#231815" stroke-width="0.9467" d="M110.5,124.1c1.2,3,2.2,6,5.4,6.9c6.8,2.1,16,0.9,21.6-3.9
			c3.2-2.7,3.3-10.2,1.2-13.7"/>
		<path fill="#FBE0D0" stroke="#231815" stroke-width="0.9467" d="M161.3,87.8c-0.3,4.3-4.1,7.5-8.4,7.2c-4.3-0.3-7.5-4.1-7.2-8.4
			c0.3-4.3,4.1-7.5,8.4-7.2C158.4,79.8,161.6,83.5,161.3,87.8z"/>
		<circle fill="#FBE0D0" stroke="#231815" stroke-width="0.9467" cx="72.6" cy="106.6" r="7.8"/>
		<path fill="#FBE0D0" stroke="#231815" stroke-width="0.9467" d="M153.7,90.9c4.4,20.9-21.7,37.5-44.9,38.8
			C76.7,131.7,68.3,108,70,84.9c1.7-23.1,21.8-40.5,44.9-38.8C138,47.7,148.9,68.3,153.7,90.9z"/>
		<path fill="#55411F" stroke="#231815" stroke-width="0.8835" d="M134.4,26.9c0.2,0.9,0,1.7-0.4,2.5c3.5-4.6,13.6-2.5,10.8,4.7
			c4.1-4.7,15-1.9,11.8,6.1c5-1.2,11.9,3.3,6.3,8c4.3,0.8,7.1,5.2,4.1,8.9c3.5,0.7,9.4,6.8,3.3,8.6c2.2,2.1,0.2,9.3-3.2,8.2
			c2.7,2.5-1.1,9.5-4.4,7.8c3.6,4.1-6.2,9.4-8.4,3.5c3.3,3.4-1.8,5.2-4.6,3.2c-2.7-1.9-2.7-5.6-2.2-8.5c-0.4,2.2-9.1-3.9-4.6-10.3
			c-5.2,1.6-7.8-1.7-9.6-6.2c0,4.6-6.3,6.9-8.6,2.5c-2,6.5-6.2,6.3-10.4,2.1c-0.6,5.5-5.5,6.9-8.7,2.4c-0.4,5.5-5.1,7.3-8.9,3.2
			c0.5,5.4-4.2,7.6-8.2,4.6c-1,4.4-7.2,6-8.7,1.1c1.8,6.1-1.5,11.1-8.1,11.1c6.7-0.1,5.8,11.9-1.2,12c7.2-0.1-1.2,12.3-6.6,2.8
			c1.3,2.3-14,4.3-8.5-5.7c-6.4,2.6-11.5-9-4.9-11.7c-4.6-2.2-3.4-8.5,2-7.5c-6.1-1-0.2-11.9,3.9-12.7c-5.6-2.6,0.6-10.4,5.1-10.1
			c-4.5-4.1,0.3-12.4,6.4-10.1c-5.3-1.9,2.2-8.6,5.7-7.9c1.3-3.7,5.7-14.6,10.2-7.3c0.8-5.4,7.5-7.3,11.1-3.3
			c-1.7-2.8,0.9-4.1,3.2-4.9c1.2-0.4,2.9,0.5,3.8,0.1c1-0.4,0.9-1.8,1.8-2.3c3-1.8,9.3-4.6,9.3,1.7c1.9-5.6,9-4.3,9.5,1.4
			C121.8,18,133.4,21.4,134.4,26.9z"/>
		<path fill="none" stroke="#231815" stroke-width="0.8835" d="M90.9,81.4c-3,0.9-5.1,4.3-6,7.3"/>
		<path fill="none" stroke="#231815" stroke-width="0.8835" d="M111.8,97.9c-0.3,4.5,4,4.5,2.9,0"/>
		<path fill="none" stroke="#231815" stroke-width="0.8835" d="M116,121.1c1.3-3.1,5-3.7,7.2-1.3"/>
		<path fill="none" stroke="#F5B3A1" stroke-width="0.8835" d="M134.1,97.1c0.8,1.1,1,2.4,0.8,3.8"/>
		<path fill="none" stroke="#F5B3A1" stroke-width="0.8835" d="M137.8,95.8c0.2,1.1,0.7,3.2,0.8,3.8"/>
		<path fill="none" stroke="#F5B3A1" stroke-width="0.8835" d="M141.2,94.6c0.4,1,1.5,2.8,1.7,2.9"/>
		<path fill="none" stroke="#F5B3A1" stroke-width="0.8835" d="M88.2,106.3c-0.2,2.2,0.4,4.2,0.4,6.3"/>
		<path fill="none" stroke="#F5B3A1" stroke-width="0.8835" d="M91.1,106.3c0.7,1.7,0.2,4,0.8,5.5"/>
		<path fill="none" stroke="#F5B3A1" stroke-width="0.8835" d="M94.5,105.5c0.5,1.5,1,3.1,1.3,4.6"/>
		<path fill="#FBE0D0" stroke="#231815" stroke-width="0.9467" d="M158.8,146.4c-4.9,1.3-9.6,5.3-12.9,9c-1.7,1.9-3.9,3.9-5.7,5.7
			c-2,1.9-4.6,3.4-6.9,4.8c-1.2,0.8-2.7,1.1-3.9,1.9c-2,1.3-1.7,4.3-1.6,6.8c0.1,6.6,15.1,0.6,19.1-1c5.9-2.3,27-10.7,28-24.3"/>
		<path fill="#FBE0D0" stroke="#231815" stroke-width="0.9467" d="M80.5,155.2c1.4,9.9,9.1,13.9,14.9,16c7.8,2.8,20.3,6.4,28.3,7.8
			c0.4-2.7-4-9.7-4.2-12.5c0,0-3.2-0.7-3.7-0.9c-5.1-1.8-8.8-7-12.2-11c-1.9-2.2-3.5-4.5-6.3-5.7"/>
		<path fill="#FCE5D3" stroke="#231815" stroke-width="0.9467" d="M117.7,166.9c3.2-1.5,8.4-1.4,11.3,0.8c1.7,1.4,3.3,4.2,1.9,6.2
			c-1.3,1.8-2.3,2.2-4.4,2.5c-1.6,0.3-3.2,0.8-4.9,0.6"/>
		<path fill="#FBE0D0" stroke="#231815" stroke-width="0.9467" d="M130.6,167.5c-1.8-0.8-3.6-1.7-5.5-2c-2-0.4-3.9,0.2-5.8-0.2
			c0.6,2.8,4.3,1.8,5.9,3.9c0.1,0.1-5.4,0.3-6,0.2c-2-0.3-4.1-1.5-4.3-1c-0.7,3.4,5.7,2.9,7.6,3.2c-1.8,0.6-7.2-0.9-7.7-0.8
			c-2.6,2.4,5.4,3,7.3,3.1c-2.5,0.7-5-0.4-7.3-0.4c-1.9,2,4.7,3.3,6.7,3.1c-1.5,1.2-6.1,0.2-6.5,0.6c-0.7,2.4,8.1,3.3,10.8,3
			c3.2-0.3,6.7-0.7,8.9-3.1"/>
		<path fill="none" stroke="#231815" stroke-width="0.9467" d="M116.3,153.8c1.7,0.7,5.1-0.1,7.9-1.4c2.2-1.1,3.1-2,4.4-2.1
			c1.3-0.1,3.5,1.3,4.9,1.7c2.2,0.6,4.8,1.9,7.1,1.6"/>
		<path fill="#FBE0D0" stroke="#231815" stroke-width="0.9467" d="M115.4,212.2c-0.5-3.9-1.6-10.7-6.4-11.4c0.5,0.1,5-0.7,5-0.8
			c-0.3-5-1.6-13.8-9.3-16.3c-3.6-1.1-5-0.8-6.8-0.6c-7.6,0.8-12.5,6-11.3,14.6c1.1,8.1,7.3,15.3,12.5,21c6.1,6.6,19.6,19.3,15.3,29
			c4.3-1.6,1.3-8.6,5.6-10.7c-0.5-2.3-3-2.6-3.4-4.9C115.6,225.6,116.2,218.9,115.4,212.2C115.4,212.3,115.4,212.3,115.4,212.2z"/>
		<path fill="#7D3E5B" stroke="#231815" stroke-width="0.9467" d="M119.1,239.9c0.2,0.8,0.6,1.4,0.7,2.2c0.3-0.1,1.1-0.4,1.3-0.6
			c0.1-2.1,0.5-5.4-1.7-6.5c-1.8,1.2-5,5.3-5.8,7.3c-0.8,2.1,1,5.4-1.9,6.5c-0.3,0.1,2,0.8,2.8,0.6c1.2-0.3,2.2-1.4,2.7-2.4
			C118.5,244.9,117.2,241.6,119.1,239.9z"/>
		<path fill="#FBE0D0" stroke="#231815" stroke-width="0.9467" d="M118.8,127c1.8,2.5,5.5,3,5.3-1.3"/>
		<path fill="none" stroke="#231815" stroke-width="0.9467" d="M155.3,130.4c0.6,1.6,1.4,7,1.8,10.1"/>
		<path fill="#FBE0D0" stroke="#231815" stroke-width="0.9467" stroke-linecap="round" stroke-linejoin="round" d="M134.9,211.4
			c-0.2-3.2-1-9.1-5-9.7c0.5,0.1,7.1-0.4,7.1-0.5c-3.6-10.7-7.2-15.8-14.2-17.6c-4.4-1.1-7.5-0.3-8.9-0.1c-7.8,1.3-9.6,6.6-8.3,15.2
			c1.1,8.1,7.3,15.3,12.5,21c6.1,6.6,19.6,19.3,15.3,29c4.3-1.6,1.3-8.6,5.6-10.7c-0.5-2.3-3-2.6-3.4-4.9
			C134.5,225.9,135.4,218.6,134.9,211.4z"/>
		<path fill="#7D3E5B" stroke="#231815" stroke-width="0.9467" d="M138.1,240.8c0.2,0.8,0.6,1.3,0.7,2.2c0.3-0.1,1.1-0.4,1.3-0.6
			c0.1-2.1,0.5-5.4-1.7-6.5c-1.8,1.2-5,5.3-5.8,7.3c-0.8,2.1,1,5.4-1.9,6.5c-0.3,0.1,2,0.8,2.8,0.6c1.2-0.3,2.2-1.4,2.7-2.4
			C137.4,245.8,136.2,242.5,138.1,240.8z"/>
		<path fill="none" stroke="#231815" stroke-width="0.9467" stroke-linecap="round" stroke-linejoin="round" d="M111.9,198.3
			c0.3,0.5,0.9,0.5,1.5,0.4"/>
		<path fill="none" stroke="#231815" stroke-width="0.9467" stroke-linecap="round" stroke-linejoin="round" d="M97.9,198.7
			c0.4,0,0.8,0,1.1,0"/>
		<path fill="#FFFFFF" stroke="#231815" stroke-width="0.8835" d="M71.4,197.8c7.2-4.4,0.4-12.9-0.5-18.2c3.8-2.1,6.6,8.9,7.1,10.9
			c1.3,6,1.4,13.5-5.2,16.3c-0.6,0.3-2,0.8-2.6,0.6c-1.9-0.5-1.6-4.2-1.6-6.1"/>
		<path fill="none" stroke="#231815" stroke-width="0.8835" d="M58.2,129.5c7.5,18.8,10.6,36.6,15.9,56.1"/>
		<path fill="#FFFFFF" stroke="#231815" stroke-width="0.8835" stroke-linecap="round" stroke-linejoin="round" d="M50.5,211.9
			c-2.7-0.1-4.5-1.3-6.3-3.1c-1-1-3.5-7.3-4.2-7.4c-4.8-0.3,1.8,10.4,2.7,11.6c5.2,6.6,13.2,8,20.8,5.1c2.2,3.1,0.9,3.6,2.5,6.8
			c-1.8,2.6-2,2.8-3.9,5.3c-3.5,4.5-3.2,7.1,1.6,10.9c1.3,1,7.6,7.5,7.7,3.2c0.1-2.5-3.4-5.9-4.7-7.8c0-0.1,11.5-8.7,12.8-9.4
			c-0.3,2.2,1.5,12.8,4.7,12.6c-1.2-4.9,3.3-25.8-7.5-18.7c0.4-2,2.4-11-2-15.8"/>
		<path fill="#FFFFFF" stroke="#231815" stroke-width="0.8835" stroke-linecap="round" stroke-linejoin="round" d="M61.6,189.3
			c-0.5-3.1-1.6-12.6-4.3-13.7c-5.2-2.2-0.5,11.1,0.7,14.1c-3.6,0.9-7.1,3.1-9.1,6.2c-2.2-2.7-5.6-11.1-8.3-11.4
			c-5.2-0.6,4.1,11.7,6.9,14.3c-0.3,1-0.5,2.1-0.5,3.3c0,6.9,4.3,16,12.5,14.2c5.2-1.1,10-4,12.2-9
			C74.9,200.4,69.2,189.5,61.6,189.3z"/>
		<path fill="#F2A6C0" d="M52.2,203.8c0.5,0.8,2.3-0.2,2.3-1.1c0-1.6-2.4-0.3-2.4,0.6C52.1,203.5,52.2,203.7,52.2,203.8z"/>
		<path fill="#F2A6C0" d="M67.4,195.9c-0.2,0.2-0.5,0.3-0.8,0.4c-1.8,0.5-2.1-1.1-0.6-2C67.8,193.3,68.5,195,67.4,195.9z"/>
		<path fill="none" stroke="#231815" stroke-width="0.8835" d="M1.6,184.6c11.5,5.5,28,13.9,39,19.3"/>
		<path fill="#E9589A" stroke="#231815" stroke-width="0.8835" stroke-linecap="round" stroke-linejoin="round" d="M65.8,152.3
			c-2.7-11.2-4.9-17.8-6.9-23c-8.2,1.4-23.5,8.2-37.4,21.9C6,166.5,0.4,183.2,0.4,185.5c0,0.6,19.3,8.4,21,10.1
			c6.2-14.2,15.3-24.2,22.5-30C52.9,158.5,65.7,151.6,65.8,152.3z"/>
		<path fill="none" stroke="#231815" stroke-width="0.8835" stroke-linecap="round" stroke-linejoin="round" d="M69.1,220.8
			c0,0.8,0,1.6-0.3,2.3"/>
		<path fill="none" stroke="#231815" stroke-width="0.8835" stroke-linecap="round" stroke-linejoin="round" d="M68.2,221.5
			c0.6-0.1,1.2,0.2,1.7,0.5"/>
		<path fill="none" stroke="#231815" stroke-width="0.8835" d="M62.8,192.6c0.8-0.6,1.6-1.3,2.5-1.9"/>
		<path fill="none" stroke="#231815" stroke-width="0.8835" d="M50.6,200.4c0.8-0.8,2.1-1.8,3.2-2.3"/>
		<path fill="#E7325A" stroke="#231815" stroke-width="0.8835" d="M67.7,208.2c-0.6,0.6-1.1,1.1-1.7,1.6c-0.5-0.7-1.6-2.7-0.4-3.2
			C66.3,206.2,68,207.8,67.7,208.2z"/>
		<path fill="#875349" stroke="#231815" stroke-width="0.8835" d="M129.6,233.8c5.6-2.7,5.3,6.2,2.3,5.2"/>
		<path fill="none" stroke="#231815" stroke-width="0.8835" d="M136,215c0.1,1-0.4,1.9-1.1,2.6"/>
		<path fill="#875349" stroke="#231815" stroke-width="0.8835" d="M144.9,228.3c-1.2,3.4-3.3,5.4-6.7,5.9c-1.6,0.2-3.6-1.2-4.7,0.5
			c-2.7,4.5,4,5.3,6.7,4.1c3.8-1.7,6.5-5.5,8.9-8.8"/>
		<g>
			<path fill="#875349" stroke="#231815" stroke-width="0.8835" d="M160.4,220.6c-0.4,1.2-1,2.3-1.9,3.2c-3.2,3.1-12.7,6.3-16.8,5.4
				c-6.3-1.3-8.7-10.8-7.4-16.2c2.2-8.8,16.2-16.7,23.1-8.1C160.2,208.5,162,215.7,160.4,220.6z"/>
			<path fill="none" stroke="#231815" stroke-width="0.8835" d="M143.1,211.9c0.9,1.2,2.7,1.8,4.2,1.8"/>
			<path fill="#CCEAFB" stroke="#231815" stroke-width="0.8835" d="M147,218.1c0.5,0.6,2.3,5.4,2.8,2.9c0.2-0.9-1.3-3-1.7-3.8"/>
			<path fill="none" stroke="#231815" stroke-width="0.8835" d="M144.4,218.7c1.6,0.8,2.9-0.4,4-1.5"/>
			<path fill="#875349" stroke="#231815" stroke-width="0.8835" d="M137.7,208.1c0-4.7,0.3-11.5,4.1-14.8c1.7-1.5,6.1-3.5,5.2,0.5
				c-0.5,2.1-3.5,2.7-4.6,4.2c-1.4,1.9-1.2,5.7-1.6,8"/>
			<path fill="#D63841" stroke="#231815" stroke-width="0.8835" d="M140.5,224.6c-0.2,2.1,2.1-0.6,2.5-1.4c0.7,1.7,1.8,3.5,1.9,5.4
				c-1.7,0.3-4.6-3-4.4-3.8"/>
			<path fill="none" stroke="#231815" stroke-width="0.8835" d="M136.1,222.7c1.1,0.1,1.7-1,2.1-1.9"/>
		</g>
		<path fill="#875349" stroke="#231815" stroke-width="0.8835" d="M147.3,204.6c-0.6-4.4,2.9-11.4,6.6-14c2-1.4,8.2-3.4,6.9,1.4
			c-0.5,1.8-2.6,2.9-4,3.9c-1.5,1-3.1,1.8-4.1,3.3c-1,1.5-1.8,3.1-1.1,4.9"/>
		<g>
			<path fill="#FFFFFF" stroke="#231815" stroke-width="0.8835" stroke-linecap="round" stroke-linejoin="bevel" d="M131.7,86.7
				c1,1.9,2.1,5.1-0.9,5.6c-3.1,0.5-2.6-4-3.4-4C128.9,88.3,130.4,87.4,131.7,86.7z"/>
			<path fill="#231815" stroke="#231815" stroke-width="0.8835" stroke-linecap="round" stroke-linejoin="bevel" d="M130.2,92.2
				C129.6,89.3,134.4,91.6,130.2,92.2c0.1-0.4-0.2-0.6-0.2-0.8"/>
		</g>
		<path fill="none" stroke="#231815" stroke-width="0.8835" stroke-linecap="round" stroke-linejoin="bevel" d="M114.6,119.1
			c1-0.2,1.1,1.3,1.3,2.5"/>
		<g>
			<path fill="#FFFFFF" stroke="#231815" stroke-width="0.8835" stroke-linecap="round" stroke-linejoin="bevel" d="M96.3,96
				c1,1.9,2.1,5.1-0.9,5.6c-3.1,0.5-2.6-4-3.4-4C93.6,97.6,95,96.6,96.3,96z"/>
			<path fill="#231815" stroke="#231815" stroke-width="0.8835" stroke-linecap="round" stroke-linejoin="bevel" d="M94.8,101.5
				C94.3,98.6,99,100.9,94.8,101.5c0.1-0.4-0.2-0.6-0.2-0.8"/>
		</g>
		<path fill="none" stroke="#231815" stroke-width="0.8835" stroke-linecap="round" stroke-linejoin="bevel" d="M124.7,73.6
			c2.4-0.8,5.1-1,6.6,1.3"/>
		<linearGradient id="SVGID_3_" gradientUnits="userSpaceOnUse" x1="139.8063" y1="80.6953" x2="135.4742" y2="77.6619">
			<stop  offset="6.060610e-003" style="stop-color:#AADDF7"/>
			<stop  offset="0.1388" style="stop-color:#BFDFEE"/>
			<stop  offset="0.3446" style="stop-color:#DAE2E2"/>
			<stop  offset="0.555" style="stop-color:#EDE4DA"/>
			<stop  offset="0.7707" style="stop-color:#F8E5D5"/>
			<stop  offset="1" style="stop-color:#FCE5D3"/>
		</linearGradient>
		<path fill="url(#SVGID_3_)" stroke="#231815" stroke-width="0.8835" stroke-linecap="round" stroke-linejoin="round" d="
			M136.5,76.1c0.6,1,0.2,5.5,1.9,5.7c1.9,0.2,0.5-3.5,0.6-3.5"/>
		<g>
			<path fill="#FFFFFF" d="M11.7,187.7c-0.3-1-0.9-2.2-1.8-3.7c-0.9-1.4-1.9-2.6-2.9-3.4l1.5-1.7c1.1,1.1,2,2.1,2.7,3l10.8,5.2l-1,2
				l-7.7-3.8c0.4,0.5,0.8,1.3,1.2,2.4L11.7,187.7z M9.2,176c2.2,0.9,3.9,1.5,5.1,1.9l1.7-5.4l2.1,0.7l-1.7,5.3
				c1.3,0.4,2.7,0.6,4.2,0.7c1.4,0.1,2.3-0.1,2.5-0.6c0.1-0.3,0-0.6-0.5-1c-0.5-0.3-1-0.7-1.6-1l2-1.5c2.4,1.5,3.2,3,2.5,4.4
				c-0.5,1.1-1.7,1.7-3.6,1.9c-1.8,0.2-3.9-0.1-6.3-0.7l-0.7,2.1l-2.1-0.7l0.7-2c-1.5-0.5-3.3-1.1-5.3-2L9.2,176z M14.6,175
				c-1.5,0.3-2.8,0.6-3.8,0.9l-0.3-1.9c1-0.5,2.3-0.9,3.6-1.2L14.6,175z"/>
			<path fill="#FFFFFF" d="M16.7,169.6l-1.5-1.2l1-1.3c-0.6-0.2-1.2-0.4-1.8-0.5l1.2-1.9c0.6,0.1,1.3,0.3,1.9,0.6l0.9-1.1l1.5,1.2
				L16.7,169.6z M17.5,169.9l3-3.6l1.4,1.1l-3,3.6L17.5,169.9z M30.5,165c-1.5-1.1-2.3-1.5-2.3-1.5c0.4,0.6,0.7,1.3,0.9,2l3.1,2.5
				c0.8,0.7,0.9,1.3,0.4,2l-1.2,1.5l-1.6-0.9l0.9-1c0.1-0.2,0.1-0.4-0.1-0.5l-1.1-0.9c0.2,1.3,0.3,2.7,0.2,4.2l-2-0.4
				c0.2-0.9,0.3-2,0.3-3.2c0-1.2-0.1-1.9-0.2-2c0,0-0.1,0.4-0.4,1.2c-0.3,0.8-0.7,1.6-1.1,2.3l-1.8-0.9l0.4-0.6l-6.2-5.1l0.9-1.1
				c-0.2-0.4-0.5-0.8-0.9-1.3l1.5-1.5c0.3,0.4,0.6,0.8,0.7,1.2l1.2-1.4l5.1,4.1c-0.3-0.5-0.6-1-1-1.6l0.8,0l0.1-0.9
				c1.1,0.5,2.2,1.1,3.3,1.8l-3.9-3.2l-1.4,1.7l-1.6-1.3l1.4-1.7l-2.3-1.9l1.3-1.6l2.3,1.9l0.5-0.6l1.6,1.3l-0.5,0.6l7.5,6.1
				c0.8,0.7,0.9,1.4,0.3,2.1l-1.4,1.7l-1.8-1.1l1-1.1c0,0,0,0,0.1-0.1c0.1-0.2,0.1-0.3-0.2-0.5l-2.3-1.9L30.5,165z M19.5,171.6
				l3-3.6l1.4,1.1l-3,3.6L19.5,171.6z M21.7,164.1l1-1.2l-0.7-0.6l-1,1.2L21.7,164.1z M29.5,173.7l-1.2,1.5l-0.6-0.5l-0.5,0.7
				l0.7,0.6l-1.2,1.5l-5-4.1l2.9-3.6L29.5,173.7z M23.7,165.6l1-1.2l-0.8-0.6l-1,1.2L23.7,165.6z M24.7,172.2l-0.5,0.7l1.7,1.4
				l0.5-0.7L24.7,172.2z M25.8,167.3c0.3-0.5,0.5-1,0.7-1.5l-0.6-0.5l-1,1.2L25.8,167.3z"/>
			<path fill="#FFFFFF" d="M27.7,152.9l12-8.9l1.4,1.8l-5.7,4.2l2.6,3.5l0-1.9c2-0.5,4.1-0.7,6.3-0.7l0.1,2.6
				c-2.3-0.1-4.4,0-6.2,0.3l4.9,6.6l-2,1.5l-7.7-10.4l-4.3,3.2L27.7,152.9z"/>
			<path fill="#FFFFFF" d="M49.1,144.8c1.2,0.8,2,1.8,2.6,3c0.7,1.6,0.3,2.7-1.2,3.3c-0.4,0.2-0.7,0.2-1,0.3l1.6,3.7l-2,0.8
				l-6.2-14.5l5.2-2.2l0.7,1.7l0.1,0.8c0.9-1.1,1.4-2.5,1.5-4.2l2-0.3c0,0.2,0,0.5-0.1,0.8l4.6-2l0.7,1.5c-0.2,1.1-0.5,2.3-1.2,3.5
				c1.2,0,2.4-0.2,3.6-0.6l0.2,2.1c-1.7,0.4-3.4,0.4-5,0.2c-0.8,1.1-2,2.2-3.5,3.4l-1.8-1.3c1.3-0.8,2.3-1.6,3.2-2.5
				c-0.9-0.3-1.5-0.5-1.8-0.6c-0.2,0.6-0.5,1.1-0.8,1.6l-1.5-1.1C49.1,143.3,49.1,144.1,49.1,144.8z M49.7,148.3
				c-0.4-0.9-1.2-1.7-2.5-2.6c0-1.7-0.1-2.9-0.3-3.8l-1.2,0.5l3,7.1c0.2,0,0.4-0.1,0.6-0.2C49.8,149.1,49.9,148.7,49.7,148.3z
				 M51.9,140.1c0.7,0.3,1.6,0.6,2.5,0.7c0.5-0.8,0.8-1.5,1-2.2L51.9,140.1z M55.3,145.1l-0.5-1.1l2-0.9l0.5,1.1l2.8-1.2l0.7,1.7
				l-2.8,1.2l0.7,1.6L62,146l0.7,1.7l-3.3,1.4l0.9,2l-2,0.9l-0.9-2l-4.3,1.8l-1.2-5.4L55.3,145.1z M54.3,147.5l0.4,1.7l2-0.9
				l-0.7-1.6L54.3,147.5z"/>
		</g>
	</g>
</g>
<g id="Layer_2">
</g>
<g id="圖層_1">
</g>
</svg>
