<?xml version="1.0" encoding="utf-8"?>
<!-- Generator: Adobe Illustrator 17.1.0, SVG Export Plug-In . SVG Version: 6.00 Build 0)  -->
<!DOCTYPE svg PUBLIC "-//W3C//DTD SVG 1.1//EN" "http://www.w3.org/Graphics/SVG/1.1/DTD/svg11.dtd">
<svg version="1.1" xmlns="http://www.w3.org/2000/svg" xmlns:xlink="http://www.w3.org/1999/xlink" x="0px" y="0px" width="195.1px"
	 height="289.5px" viewBox="0 0 195.1 289.5" enable-background="new 0 0 195.1 289.5" xml:space="preserve">
<g id="Layer_5">
	<g>
		<path fill="#CCCDCD" stroke="#231815" stroke-width="0.9924" stroke-linecap="round" stroke-linejoin="round" d="M47.8,271
			c-0.2,10.3,1.3,13.2,10.6,15.4c9.6,2.3,20.8,2.9,30.6,2.5c6.8-0.3,19.7,0.6,25-4c4.8-4.1,1.7-15.5,0.8-20.5"/>
		<path fill="#F0F0F0" stroke="#231815" stroke-width="0.9924" stroke-linecap="round" stroke-linejoin="round" d="M83.8,244.6
			c-6,0.1-12,0.7-17.8,2.2c-4.6,1.2-7.9,6.3-10.2,10c-2.5,4-7,9.2-7.8,14.1c-1.4,8.6,11.5,9.1,17.1,9.7c11.6,1.1,23.5,1.7,35.1,0.8
			c4.8-0.4,13.8,0.9,15.9-5.1c0.9-2.7,0-7.4-0.4-10.7c-0.8-5.9-2-17.4-6.6-19.2c-5.1-2-14.8-1.7-20.4-1.8
			C87,244.6,85.4,244.6,83.8,244.6z"/>
		<path fill="#FBE5D3" stroke="#231815" stroke-width="0.9924" d="M70.1,245.4c0,2.3-0.3,10,2.9,10.4c2.5,0.3,3.3-1.2,3.2-3.3
			c-0.1-2.6,0.1-5.3,0-8"/>
		<path fill="#FBE5D3" stroke="#231815" stroke-width="0.9924" d="M93.3,245.2c0.8,2.8,0.5,6.5,0.7,9.4c2.3,0,5.2,1.4,6.1-1.3
			c1.1-3.4,1.4-6.3,1.4-9.2"/>
		<path fill="#FBE5D3" stroke="#231815" stroke-width="0.9924" d="M94.3,253c-0.7,1.7-2.3,4.6-2.3,6.8c0,2.7,2.3,2.1,4.7,2.2
			c7,0.3,3.4-5.3,3.5-9.7"/>
		<path fill="none" stroke="#231815" stroke-width="0.9924" d="M95.9,259.1c0.1,1.1-0.3,2.1-0.7,3.1"/>
		<path fill="none" stroke="#231815" stroke-width="0.9924" d="M97.7,259.3c0,0.8,0,1.6,0,2.4"/>
		<path fill="none" stroke="#231815" stroke-width="0.9924" d="M99.5,259.3c0.2,0.5,0.3,1.2,0.2,1.8"/>
		<path fill="#FBE5D3" stroke="#231815" stroke-width="0.9924" d="M70.6,251.8c0.2,2.5-1.9,5.8-0.7,8.2c1,2,7.9,3.3,8.7,0.6
			c0.7-2.5-1.6-6.7-2.2-9.1"/>
		<path fill="none" stroke="#231815" stroke-width="0.9924" d="M75.6,259.3c0.3,1,0.4,2.3,0.9,3.1"/>
		<path fill="none" stroke="#231815" stroke-width="0.9924" d="M73.4,259.7c0,0.8,0,2.1,0.2,2.4"/>
		<path fill="none" stroke="#231815" stroke-width="0.9924" d="M71.4,258.9c0,0.7,0,1.5,0,2.2"/>
		<path fill="#865348" stroke="#231815" stroke-width="0.9263" d="M40.2,256.1c-6-2.7-10.8,0.3-14.7,4.8c-2.4,2.7-7.5,8.7-7.1,12.4
			c0.3,2.2,2,2.6,3.8,3c1.4,0.3,2.7,1.1,4,1.5c2.1,0.6,1.8,0.7,2.9-1.6c1.6-3.4,3.4-6.7,5-10.2c0.9-2.1,1.5-4.6,2.7-6.6
			c1-1.7,2.4-3.3,2.8-5.1"/>
		<path fill="#865348" stroke="#231815" stroke-width="0.9263" d="M50.2,244c2.2-2.5,6.7-4.1,10.1-3.8c1.7,0.2,4.3,1.4,2.5,3.8
			c-1.3,1.9-2.7-0.9-4.9-0.4c-2,0.5-4.9,2.5-6.7,3.5"/>
		<path fill="#EF95A6" stroke="#231815" stroke-width="0.9924" d="M50.9,128.9c0,1.7-0.4,5,0.7,6.3c1.1,1.4,2.3,0.4,3.8-0.4
			c3-1.4,8.1-6.5,10.8-8.4c1.3-1,1.1,0.2,2.1-1.2c0.7-1.1,0.7-1.2,0.2-2.6c-0.9-2.6-1.8-5.2-2.8-7.8c-1.9,0.2-4.4,2.6-6.1,3.6"/>
		<path fill="#5E5959" stroke="#231815" stroke-width="0.9924" d="M65,163.1c-8.4,27.1,3.4,56.2,4.6,83.3c2.6,0.1,5.1,0.2,7.6-0.4
			c-0.5-10.6,2.8-21.7,4.7-32c1.8-9.7,3.8-19.8,6.5-29.1c2.3,10.3,3,24.7,3.4,35.2c0.2,5.3,0.4,6.4,0.6,12.1
			c0.1,4.3,0.8,9.1-0.3,13.4c-0.5,1.8,9.6,0.3,10,0.2c1.5-5.3,2.2-11.6,2.2-22c0-5.1,2.9-9.4,5.8-17.9c2.9-8.4,6.3-16.7,7.6-25.5
			c1.5-10-1.6-17.4-5.6-26.4"/>
		<path fill="#EF95A6" stroke="#231815" stroke-width="0.9924" d="M64.9,102.6c-1.1,0.3-2.3,0.5-2.8,1.6c0-0.2-0.4-1.6-0.6-1.6
			c-1.3,0.2-1.7,1.7-2.6,2.5c-1.3-0.6-2.1,1.4-3,2.2c0-0.4-0.1-0.9-0.1-1.3c-1.6,0.5-1.9,3.6-2.6,5.1c0.1-0.6-0.2-1.3-0.2-1.9
			c-2.6-0.4-2.1,3-3.3,4.1c-0.3-0.9-0.3-1.9-0.5-2.9c-2.2,0.8-2.7,3.8-3.1,5.8c-0.6,2.9-1.5,4.4-3.2,6.9c-2.1,3.1-4.5,7.4-3.1,11.4
			c2.1,5.9,8.1,4.5,11.8,1.1c4.5-4.1,10.4-8.9,14.1-13.9"/>
		<path fill="#EF95A6" stroke="#231815" stroke-width="0.9924" d="M112.6,125.5c0,7.7-3.1,13.4,0.1,20.6c2.6,5.9,4.6,12.1,4.7,18.6
			c-2.2,0.6-55.2,2.4-55,1.3c1-5.3,4-9,5.7-14c0.4-1.2,2.9-18.3,3.9-18c-13-4-4.5-16.7-1.9-25.3c1.6-5.4-0.2-13.2,2.3-18.3
			c4.8-9.8,22.9-11.6,32.8-12.7c4.7-0.5,6.4-1.8,8.3,2.1c1.6,3.1,1.2,8.9,1.3,12.2c0.3,11.6,1.6,23.3,1.3,35"/>
		<path fill="#EF95A6" stroke="#231815" stroke-width="0.9924" d="M120.1,143.7c-16.1,2.6-10.7-35.4-9.9-43.4
			c0.2-2.5-0.1-11.2,3-11.1c2.9,0.1,7.1,7.5,7.5,9.9c0.5-1,2.2-2.4,3.4-1.7c1.9,1,0.8,4.4,0.6,5.9c2.1-0.4,3.2-2.2,4,1
			c0.6,2.3-0.9,4.9-1.5,7c0.8,0,1.6-0.3,2.4-0.6c0.8,2.1-0.5,3.8-1,5.7c0.3-0.3,1-0.5,1.3-0.7c0.2,1.8-0.3,3.4-0.6,5.1
			c0.2-0.1,0.9-0.3,1-0.4c0.4,2.3-1,4.6-0.9,7c0.1,2.2,0.1,4.5-0.4,6.7c-0.8,4.1-3,7.9-7.2,9.3C121.2,143.4,120.7,143.6,120.1,143.7
			z"/>
		<path fill="none" stroke="#231815" stroke-width="0.9924" d="M71.3,133.7c1.4,0.4,3.9,0.6,5.4,0.1"/>
		<g>
			<g>
				<path fill="#FFFFFF" stroke="#231815" stroke-width="0.9924" stroke-linecap="round" stroke-linejoin="round" d="M96.7,145.6
					c0.2,0,0.3,0,0.5-0.1c0-0.9-0.1-1.9-0.2-2.9c-1.3,0.3-2.6,0.7-4,0.6c-0.1,0.7-0.1,1.3-0.2,2C94.1,145.3,95.7,145.7,96.7,145.6z"
					/>
				<path fill="#FFFFFF" stroke="#231815" stroke-width="0.9924" stroke-linecap="round" stroke-linejoin="round" d="M95.7,134.1
					c-0.9,0.3-1.8,0.5-2.8,0.6c0.1,0.7,0.1,1.4,0.2,2.1c1-0.2,2-0.4,3-0.6C96,135.5,95.9,134.8,95.7,134.1z"/>
				<path fill="#FFFFFF" stroke="#231815" stroke-width="0.9924" stroke-linecap="round" stroke-linejoin="round" d="M94.7,129.6
					c-0.8,0.3-1.7,0.6-2.5,0.9c0.2,0.8,0.4,1.6,0.5,2.4c0.9-0.1,1.8-0.3,2.7-0.6C95.1,131.4,94.9,130.5,94.7,129.6z"/>
				<path fill="#FFFFFF" stroke="#231815" stroke-width="0.9924" stroke-linecap="round" stroke-linejoin="round" d="M91.7,156.2
					c0,0.2,0,0.3,0,0.5c1.6,0.2,3,1.6,4.7,1.5c0.1-0.4,0.2-0.9,0.3-1.3c-1.2-0.2-2.5,0-3.7-0.3C92.5,156.4,92.1,156.3,91.7,156.2z"
					/>
				<path fill="#FFFFFF" stroke="#231815" stroke-width="0.9924" stroke-linecap="round" stroke-linejoin="round" d="M94.1,127.7
					c-0.5-1.4-1-2.7-1.6-3.9l-1.8,2c0.3,0.9,0.7,1.9,1,2.8l0,0C92.5,128.6,93.3,128.2,94.1,127.7z"/>
				<path fill="#FFFFFF" stroke="#231815" stroke-width="0.9924" stroke-linecap="round" stroke-linejoin="round" d="M96.4,138.1
					c-1.1,0.2-2.2,0.6-3.3,0.7c0,0.9,0,1.7-0.1,2.6c1.3,0,2.5-0.4,3.7-0.8C96.7,139.8,96.5,139,96.4,138.1z"/>
				<path fill="#FFFFFF" stroke="#231815" stroke-width="0.9924" stroke-linecap="round" stroke-linejoin="round" d="M92.5,147.6
					c-0.1,0.9-0.2,1.8-0.3,2.7c1.6,0.4,3.4,0.4,5,0.1c0-0.7,0-1.5,0-2.2c-0.6-0.1-1.2-0.3-1.6-0.3C94.6,147.7,93.6,147.6,92.5,147.6
					z"/>
				<path fill="#FFFFFF" stroke="#231815" stroke-width="0.9924" stroke-linecap="round" stroke-linejoin="round" d="M92.1,152.1
					c-0.1,0.8-0.1,1.5-0.2,2.3c1.6,0.5,3.5,0.4,5.1,0.2c0.1-0.6,0.1-1.2,0.1-1.8c-1.3-0.2-2.7,0-4-0.4
					C92.7,152.2,92.4,152.2,92.1,152.1z"/>
				<path fill="#4A4A4A" stroke="#231815" stroke-width="0.9924" d="M94.1,127.7c-0.7,0.5-1.5,0.9-2.4,0.9l0,0
					c0.2,0.6,0.4,1.2,0.5,1.8c0.8-0.3,1.7-0.6,2.5-0.9C94.5,129,94.3,128.3,94.1,127.7z"/>
				<path fill="#4A4A4A" stroke="#231815" stroke-width="0.9924" d="M95.4,132.3c-0.8,0.4-1.7,0.5-2.7,0.6c0.1,0.6,0.2,1.2,0.3,1.8
					c1-0.1,1.9-0.3,2.8-0.6C95.6,133.5,95.5,132.9,95.4,132.3z"/>
				<path fill="#4A4A4A" stroke="#231815" stroke-width="0.9924" d="M96.1,136.2c-1,0.2-2,0.4-3,0.6c0,0.4,0,0.8,0,1.2
					c0,0.3,0,0.6,0,0.9c1.1-0.2,2.2-0.5,3.3-0.7C96.3,137.5,96.2,136.8,96.1,136.2z"/>
				<path fill="#4A4A4A" stroke="#231815" stroke-width="0.9924" d="M96.7,140.7c-1.2,0.4-2.4,0.8-3.7,0.8c0,0.6-0.1,1.2-0.1,1.8
					c1.4,0,2.7-0.3,4-0.6C96.9,142,96.8,141.3,96.7,140.7z"/>
				<path fill="#4A4A4A" stroke="#231815" stroke-width="0.9924" d="M97.1,145.5c-0.2,0-0.3,0.1-0.5,0.1c-0.9,0.1-2.6-0.3-3.9-0.3
					c-0.1,0.8-0.1,1.5-0.2,2.3c1,0.1,2.1,0.2,3.1,0.3c0.3,0,0.9,0.2,1.6,0.3c0-0.6,0-1.2-0.1-1.8C97.1,146.1,97.1,145.8,97.1,145.5z
					"/>
				<path fill="#4A4A4A" stroke="#231815" stroke-width="0.9924" d="M92.3,150.3c-0.1,0.6-0.1,1.2-0.2,1.8c0.3,0.1,0.7,0.2,1.1,0.3
					c1.4,0.3,2.7,0.2,4,0.4c0-0.8,0.1-1.6,0.1-2.3C95.6,150.6,93.8,150.7,92.3,150.3z"/>
				<path fill="#4A4A4A" stroke="#231815" stroke-width="0.9924" d="M91.9,154.3c0,0.6-0.1,1.2-0.1,1.8c0.3,0.1,0.7,0.2,1.2,0.3
					c1.3,0.3,2.5,0.2,3.7,0.3c0.1-0.8,0.2-1.5,0.3-2.3C95.3,154.8,93.4,154.8,91.9,154.3z"/>
			</g>
			<g>
				<path fill="#FFFFFF" stroke="#231815" stroke-width="0.9924" d="M82.2,112.4c-1.4,1.2-2.9,2.6-4.5,3.3c0.4,0.7,0.9,1.3,1.3,2
					c1.2-0.6,2.8-1.7,4.2-2.7C82.8,114.1,82.5,113.2,82.2,112.4z"/>
				<path fill="#FFFFFF" stroke="#231815" stroke-width="0.9924" d="M96.8,113.7c1.2,0.9,2.8,2,4,2.7c0.5-0.6,0.9-1.2,1.4-1.9
					c-1.6-0.8-3-2.3-4.5-3.4C97.4,112,97.1,112.9,96.8,113.7z"/>
				<path fill="#FFFFFF" stroke="#231815" stroke-width="0.9924" d="M94.6,118.6c0.8,0.5,1.7,1.3,2.5,2c0.6-0.6,1.2-1.3,1.8-2
					c-1.1-0.8-2.1-1.7-3.1-2.5C95.5,117,95.1,117.8,94.6,118.6z"/>
				<path fill="#FFFFFF" stroke="#231815" stroke-width="0.9924" d="M81.2,106.6c-2.1,1.2-4.2,2.9-6.5,3.8c0.5,0.9,0.9,1.8,1.5,2.7
					c1-0.4,3.7-2.1,5.4-3.4C81.4,108.7,81.3,107.7,81.2,106.6z"/>
				<path fill="#FFFFFF" stroke="#231815" stroke-width="0.9924" d="M93.1,120.6c-0.6,0.7-1.3,1.3-2.1,1.7c-1.1,0.5-2.4-0.1-3.5-1.2
					c-0.1,0.2-0.3,0.5-0.6,0.7c-0.8,0.8-1.9,1.3-2.8,2.1c0.9,0.8,1.9,1.4,2.9,1.7c3.2,1,6-1.2,8.3-3.3c-0.7-0.4-1.3-0.9-1.9-1.4
					C93.3,120.9,93.2,120.8,93.1,120.6z"/>
				<path fill="#FFFFFF" stroke="#231815" stroke-width="0.9924" d="M106.7,105.8c0-0.8-0.8-7.1-0.4-7.3c-1.4,0.7-2.8,1.4-4.4,2
					c-2.1,0.7-2,1-2.1,2.6c1.4,1,4.7,2.8,6.8,3.7C106.6,106.4,106.7,106.1,106.7,105.8z"/>
				<path fill="#FFFFFF" stroke="#231815" stroke-width="0.9924" d="M78.7,101.2c-1.9-0.5-5.5-0.6-6.8-1.8c0,2.9,0.6,5.6,1.6,8.3
					c2.4-1,6.4-3.2,7.5-4.1C80.7,102.5,80.2,101.6,78.7,101.2z"/>
				<path fill="#FFFFFF" stroke="#231815" stroke-width="0.9924" d="M98.5,108.7c1.5,1.2,4,2.9,5.3,3.4c0.5-0.7,0.9-1.4,1.4-2.2
					c0.1-0.2,0.2-0.3,0.3-0.5c-2.2-0.9-4.2-2.5-6.2-3.7C99.1,106.8,98.8,107.8,98.5,108.7z"/>
				<path fill="#FFFFFF" stroke="#231815" stroke-width="0.9924" d="M84.3,117.2c-1.2,1-2.4,2.1-3.6,2.9c0.5,0.7,1.1,1.4,1.6,2.1
					c1.2-0.8,2.4-2,3.6-2.7C85.3,118.6,84.7,117.8,84.3,117.2z"/>
				<path fill="#4A4A4A" stroke="#231815" stroke-width="0.9924" d="M93.1,120.6c0.1,0.1,0.2,0.2,0.3,0.4c0.5,0.5,1.2,1,1.9,1.4
					c0.6-0.6,1.2-1.2,1.7-1.7c0,0,0.1-0.1,0.1-0.1c-0.8-0.7-1.7-1.5-2.5-2C94.2,119.4,93.7,120,93.1,120.6z"/>
				<path fill="#4A4A4A" stroke="#231815" stroke-width="0.9924" d="M96.4,114.7c-0.2,0.5-0.3,1-0.6,1.5c1,0.8,2,1.7,3.1,2.5
					c0.6-0.7,1.2-1.5,1.8-2.2c-1.2-0.7-2.8-1.8-4-2.7C96.7,114.1,96.6,114.4,96.4,114.7z"/>
				<path fill="#4A4A4A" stroke="#231815" stroke-width="0.9924" d="M97.7,111.2c1.4,1.1,2.9,2.6,4.5,3.4c0.6-0.8,1.1-1.6,1.7-2.4
					c-1.3-0.6-3.8-2.2-5.3-3.4C98.3,109.5,98,110.3,97.7,111.2z"/>
				<path fill="#4A4A4A" stroke="#231815" stroke-width="0.9924" d="M99.8,103c0,0.3-0.1,0.7-0.1,1.2c-0.1,0.6-0.2,1.1-0.3,1.7
					c2,1.2,4,2.8,6.2,3.7c0.6-1,0.9-1.8,1.1-2.8C104.5,105.8,101.2,104,99.8,103z"/>
				<path fill="#4A4A4A" stroke="#231815" stroke-width="0.9924" d="M87.5,121.1c-0.6-0.5-1.1-1.1-1.6-1.7c-1.2,0.7-2.4,2-3.6,2.7
					c0.6,0.7,1.2,1.3,1.8,1.8c0.9-0.8,2-1.3,2.8-2.1C87.1,121.6,87.3,121.4,87.5,121.1z"/>
				<path fill="#4A4A4A" stroke="#231815" stroke-width="0.9924" d="M83.9,116.4c-0.3-0.5-0.5-1-0.7-1.5c-1.3,1-3,2.1-4.2,2.7
					c0.1,0.1,0.1,0.2,0.2,0.3c0.4,0.6,0.9,1.4,1.5,2.1c1.3-0.8,2.5-1.9,3.6-2.9C84.1,116.9,84,116.7,83.9,116.4z"/>
				<path fill="#4A4A4A" stroke="#231815" stroke-width="0.9924" d="M81.6,109.8c-1.7,1.3-4.4,3.1-5.4,3.4c0.5,0.8,1,1.7,1.5,2.5
					c1.6-0.7,3.1-2.1,4.5-3.3C82,111.5,81.7,110.6,81.6,109.8z"/>
				<path fill="#4A4A4A" stroke="#231815" stroke-width="0.9924" d="M81.2,106c0-0.9,0-1.7-0.2-2.5c-1.1,0.9-5.1,3.1-7.5,4.1
					c0.4,0.9,0.8,1.9,1.2,2.8c2.3-0.9,4.4-2.6,6.5-3.8C81.2,106.4,81.2,106.2,81.2,106z"/>
			</g>
			<g>
				<path fill="#FFFFFF" stroke="#231815" stroke-width="0.9924" d="M85.1,155.4c1.3,0.1,2.8,0,4.1-0.4c-0.1-1.1-0.1-2.3,0-3.5
					c-1.5,0.2-3,0.5-4.6,0.7C84.8,153.2,84.9,154.3,85.1,155.4z"/>
				<path fill="#FFFFFF" stroke="#231815" stroke-width="0.9924" d="M90.4,126.7l-3.1,1.1c0,0.5,0,1.1,0,1.6c1,0,2-0.2,3-0.5
					C90.4,128.1,90.4,127.4,90.4,126.7z"/>
				<path fill="#FFFFFF" stroke="#231815" stroke-width="0.9924" d="M84.7,149.6c1.6,0.2,3.3,0,4.9-0.4c0.1-0.8,0.2-1.6,0.3-2.3
					c0-0.2,0.1-0.5,0.1-0.7c-1.7,0.2-3.3,0.6-5.1,0.7C84.8,147.8,84.8,148.7,84.7,149.6z"/>
				<path fill="#FFFFFF" stroke="#231815" stroke-width="0.9924" d="M90.7,134.1c-0.1-1-0.1-2-0.2-2.9c-1.1,0.1-2.1,0.4-3.2,0.6
					c-0.1,0.9-0.2,1.8-0.3,2.7C88.2,134.5,89.5,134.4,90.7,134.1z"/>
				<path fill="#FFFFFF" stroke="#231815" stroke-width="0.9924" d="M86,158.1c0.2-0.2,0.4-0.3,0.6-0.5c-0.2,0-0.5,0.1-0.7,0.1
					C85.9,157.9,85.9,158,86,158.1z"/>
				<path fill="#FFFFFF" stroke="#231815" stroke-width="0.9924" d="M90.8,139.2c0-0.3,0-0.7,0-1c0-0.6,0-1.3-0.1-1.9
					c-1.4,0.2-2.8,0.5-4.2,0.6c-0.2,0.9-0.3,1.8-0.5,2.8C87.6,139.9,89.3,139.6,90.8,139.2z"/>
				<path fill="#FFFFFF" stroke="#231815" stroke-width="0.9924" d="M85.6,142.2c-0.1,0.7-0.2,1.4-0.3,2.1c1.6,0.2,3.4,0,5-0.5
					c0.1-0.8,0.2-1.5,0.3-2.3C89,141.7,87.3,142.1,85.6,142.2z"/>
				<path fill="#4A4A4A" stroke="#231815" stroke-width="0.9924" d="M90.4,128.9c-1,0.3-2,0.5-3,0.5c0,0.8,0,1.6-0.1,2.4
					c1.1-0.2,2.1-0.5,3.2-0.6C90.4,130.4,90.4,129.6,90.4,128.9z"/>
				<path fill="#4A4A4A" stroke="#231815" stroke-width="0.9924" d="M90.7,134.1c-1.2,0.3-2.5,0.4-3.7,0.3c-0.1,0.8-0.2,1.7-0.4,2.5
					c1.4-0.1,2.8-0.4,4.2-0.6C90.8,135.6,90.7,134.8,90.7,134.1z"/>
				<path fill="#4A4A4A" stroke="#231815" stroke-width="0.9924" d="M90.8,139.2c-1.5,0.4-3.2,0.6-4.8,0.5c-0.2,0.9-0.3,1.7-0.5,2.6
					c1.7-0.1,3.3-0.5,5-0.7C90.7,140.8,90.8,140,90.8,139.2z"/>
				<path fill="#4A4A4A" stroke="#231815" stroke-width="0.9924" d="M85.3,144.3c-0.1,0.9-0.3,1.7-0.3,2.6c1.7-0.1,3.4-0.5,5.1-0.7
					c0.1-0.8,0.2-1.6,0.3-2.4C88.7,144.3,86.9,144.5,85.3,144.3z"/>
				<path fill="#4A4A4A" stroke="#231815" stroke-width="0.9924" d="M84.7,149.6c0,0.9,0,1.7,0,2.6c1.6-0.1,3-0.5,4.6-0.7
					c0.1-0.8,0.2-1.6,0.3-2.3C88,149.6,86.3,149.8,84.7,149.6z"/>
				<path fill="#4A4A4A" stroke="#231815" stroke-width="0.9924" d="M85.1,155.4c0.2,0.8,0.4,1.6,0.7,2.4c0.2,0,0.5-0.1,0.7-0.1
					c0.9-0.7,1.8-1.4,3-1.5c-0.1-0.4-0.2-0.8-0.3-1.2C87.9,155.3,86.5,155.5,85.1,155.4z"/>
			</g>
			<g>
				<path fill="#FFFFFF" stroke="#231815" stroke-width="0.9924" stroke-linecap="round" stroke-linejoin="round" d="M92.1,127.1
					c0.1,0,0.2,0,0.3,0c0.1-0.6,0.2-1.5,0.3-2.4c-2.2-1-3.8-1.4-4.1-3.8c-0.4,0.2-0.8,0.5-1.1,0.8c0.8,1.2,1.2,2.2,2.4,3.3
					C90.7,125.9,91.5,126.6,92.1,127.1z"/>
				<path fill="#FFFFFF" stroke="#231815" stroke-width="0.9924" d="M92.7,122.8c-0.1-1-0.4-1.9-1.3-2.2c-0.4-0.2-0.9-0.2-1.5-0.1
					C90.6,121.5,91.6,122.4,92.7,122.8z"/>
				<path fill="#FFFFFF" stroke="#231815" stroke-width="0.9924" d="M86.8,122.5c-0.1,0.2-0.2,0.3-0.2,0.5c-0.3,1-0.3,2.9,0.3,4.1
					c0.9,0.6,1.9,0.5,2.9,0.4C88.2,126.2,86.6,124,86.8,122.5z"/>
				<path fill="#FFFFFF" stroke="#231815" stroke-width="0.9924" d="M87.6,127.8l-0.5-0.5C87.2,127.5,87.3,127.6,87.6,127.8z"/>
				<path fill="#FFFFFF" stroke="#231815" stroke-width="0.9924" d="M87,127.2c0-0.1-0.1-0.1-0.1-0.2c-0.1-0.1-0.2-0.1-0.2-0.2
					L87,127.2z"/>
				<path fill="#4A4A4A" stroke="#231815" stroke-width="0.9924" d="M92.7,124.7c0.1-0.7,0.1-1.3,0-1.9c-1.1-0.4-2.1-1.3-2.7-2.4
					c-0.5,0.1-1,0.3-1.4,0.5C88.9,123.3,90.5,123.7,92.7,124.7z"/>
				<path fill="#4A4A4A" stroke="#231815" stroke-width="0.9924" stroke-linecap="round" stroke-linejoin="round" d="M89.8,125
					c-1.1-1.1-1.6-2.1-2.4-3.3c-0.2,0.2-0.5,0.5-0.6,0.8c-0.2,1.5,1.4,3.7,3.1,4.9c0.7-0.1,1.5-0.3,2.2-0.3
					C91.5,126.6,90.7,125.9,89.8,125z"/>
			</g>
		</g>
		<path fill="#E5A93A" stroke="#231815" stroke-width="0.9924" d="M106.6,17.4c0.8-6.4,5.9-13.3,12.9-15.7
			c7.7-2.6,12.5-0.8,15.7,5.5c2.4,4.7,3.8,11.2,0.4,15.8c-3.3,4.6-13.9,9.3-19.9,6.6c-10.5-4.5-3-16.2,4.5-18.8
			c14.6-5.2,14,13,2.1,14.4C107,27.1,124,6.1,129.8,14c2.2,3-2.6,9.8-6.6,9.9c-4.5,0.2-3.6-3.5,0-5"/>
		<path fill="#FADFD0" stroke="#231815" stroke-width="0.9924" d="M140,82.4c-1.8,4.1-6.6,6.1-10.7,4.3c-4.1-1.8-6.1-6.6-4.3-10.7
			c1.8-4.1,6.6-6.1,10.7-4.3C139.9,73.5,141.8,78.3,140,82.4z"/>
		<path fill="#FADFD0" stroke="#231815" stroke-width="0.9924" d="M54.9,83c-1.8,4.1-6.6,6.1-10.7,4.3c-4.1-1.8-6.1-6.6-4.3-10.7
			c1.8-4.1,6.6-6.1,10.7-4.3C54.8,74.1,56.7,78.9,54.9,83z"/>
		<path fill="#FADFD0" stroke="#231815" stroke-width="0.9924" d="M132,79.4c-3.5,18-18.8,22.6-34,27.4c-0.8,4.6-0.2,9-6,8.9
			c-1.2,0-6.9,0.8-8.6-0.9c-1.6-1.6-1.3-6.3-1.4-8.7c-2.6-0.3-5.3-0.8-7.9-1.5c-32.5-9-32.8-35.3-23.3-57.7
			c9.5-22.4,35.3-32.8,57.7-23.3C131,33.1,136.7,55.5,132,79.4z"/>
		<path fill="none" stroke="#F4B2A0" stroke-width="0.9263" d="M110.6,83.4c0,1.7,0,3.3,0,5"/>
		<path fill="none" stroke="#F4B2A0" stroke-width="0.9263" d="M113.6,83.4c0.3,1.3,0.5,2.9,0.3,4.3"/>
		<path fill="none" stroke="#F4B2A0" stroke-width="0.9263" d="M115.9,82.4c0.6,1.4,1.2,4,1.7,4.6"/>
		<path fill="none" stroke="#F4B2A0" stroke-width="0.9263" d="M64.6,83.4c0,1.4-0.3,2.8-1.3,3.6"/>
		<path fill="none" stroke="#F4B2A0" stroke-width="0.9263" d="M68,84.7c-0.1,0.9-0.5,4.3-0.7,3.3"/>
		<path fill="none" stroke="#F4B2A0" stroke-width="0.9263" d="M70.7,85c0,1.3,0,2.6,0,4"/>
		<path fill="#FADFD0" stroke="#231815" stroke-width="0.9924" d="M70.3,97.4c2.7,4.3,4.1,17.5-4.2,16.4c-4.6-0.6-3.7-4.2-4.7-7.4
			c-1.2-3.9-3.9-6.7-5.7-10.4c3-1.2,5.2,4.4,6.5,6.5c-0.6-2.9-1.6-6-1.2-9.1c2.5,1.5,3.4,6.4,4.6,9.2c0-2.9-0.4-5.1-0.2-7.9
			c2.6,1.3,2.4,6.4,3,8.8C69.6,101.3,68.9,97.3,70.3,97.4z"/>
		<path fill="#FADFD0" stroke="#231815" stroke-width="0.9924" d="M63,108.9c-3.6,2.6-6.5,6.1-10,8.7c-3,2.2-6.8,3.7-9.2,6.5
			c-3.8,4.3-9.4,13.8-1,16.5c5.4,1.7,12.1-3.2,15.3-7.3c4.4-5.6,8.9-13.4,11.3-20"/>
		<path fill="#FADFD0" stroke="#231815" stroke-width="0.9924" d="M116.2,93.3c-4.7,2-13.4,12-6,15.8c4.1,2.2,5.5-1.3,8.1-3.4
			c3.2-2.5,7.1-3.3,10.6-5.2c-1.7-2.7-6.8,0.6-9.1,1.6c2.2-2,4.7-4,6.2-6.8c-2.9-0.2-6.4,3.3-9,4.9c1.7-2.4,3.3-3.9,4.7-6.4
			c-2.9-0.4-5.6,3.8-7.5,5.5C114.5,96.9,117.3,94,116.2,93.3z"/>
		<path fill="#FADFD0" stroke="#231815" stroke-width="0.9924" d="M115.5,106.9c1.4,4.2,1.8,8.7,3.2,12.9c1.2,3.5,3.4,6.9,3.9,10.6
			c0.7,5.7-0.2,16.7-8.6,14.1c-5.4-1.7-8-9.5-8.3-14.7c-0.4-7.1,0.4-16,2.2-22.9"/>
		<path fill="none" stroke="#231815" stroke-width="0.9263" d="M46.4,26.8c0.8-2.3,0.8-5.2-1.2-6.9c2.4-0.3,4.8,1.1,7-0.7
			c2.4-1.9,1.6-5.6,1.8-8.3c4.3,5.3,7.7,1.1,7.5-4.4c1.5,1.8,3.2,3.8,5.6,4.4"/>
		<path fill="none" stroke="#231815" stroke-width="0.9924" d="M132.2,115.4c1.4,0.6,0.9,3.8,0.9,5.3"/>
		<path fill="none" stroke="#231815" stroke-width="0.9924" d="M134.6,117c0.4,0.9,0.5,2.9,0.4,4.2"/>
		<path fill="none" stroke="#231815" stroke-width="0.9924" d="M44.9,111.4c0.3-1.4,0.9-2.6,2-3.5"/>
		<path fill="none" stroke="#231815" stroke-width="0.9924" d="M42.9,109c0.3-0.3,0.7-2.1,1.5-2.9"/>
		<g>
			<path fill="#DBB996" d="M164,134c-0.5,0.5-1,0.9-1.6,1.4c-2.2,1.6-4.1,3.3-6,5.3c-1.7-1.7-3.7-2.5-5.4-4.1
				c0.6-1.7,2.2-3.1,2.9-4.9c0.7-1.8,1.4-3.6,1.8-5.5c0.9-4.1,0.6-8.6,3.6-12c1.1,1,1.7,2.4,2.8,3.5c1.3,1.3,2.8,2.5,4.2,3.6
				c1.4,1.1,2.7,1.6,4.4,2.2c0.9,0.3,1.6,0.8,2.5,1.1c0.8,0.2-3.5,4.4-3.9,4.7C167.3,130.8,165.7,132.4,164,134z"/>
			<path fill="none" stroke="#231815" stroke-width="0.9924" stroke-linecap="round" stroke-linejoin="round" d="M168.9,123
				c1.5,0.8,3.1,1.4,4.7,1.7c3.6-3.1-2-8.2-4.6-9.8c-1.8-1.1-5.2-2.8-7.4-2.6C154.6,113.2,167.2,122.1,168.9,123z"/>
			<path fill="none" stroke="#231815" stroke-width="0.9924" stroke-linecap="round" stroke-linejoin="round" d="M159.8,113
				c-3,2.9-3,8-4,11.8c-1,3.8-2.5,8.3-4.6,11.6c1.3,1.8,3.3,3.8,5.5,4.6c6-5.8,12.1-10.6,17.6-17.1"/>
			<path fill="#8E764E" stroke="#231815" stroke-width="0.9263" d="M155.3,134.2c-0.3,0-0.6,0.2-0.9,0.5c-0.7,0.9-0.1,2.5,1.2,2.1
				C157.4,136.1,156.5,134.1,155.3,134.2z"/>
			<path fill="#8E764E" stroke="#231815" stroke-width="0.9263" d="M161.5,131.3c-0.3,0-0.6,0.2-0.9,0.5c-0.7,0.9-0.1,2.5,1.2,2.1
				C163.6,133.3,162.7,131.3,161.5,131.3z"/>
			<path fill="#8E764E" stroke="#231815" stroke-width="0.9263" d="M156.1,136.3c-0.3,0-0.6,0.2-0.9,0.5c-0.7,0.9-0.1,2.5,1.2,2.1
				C158.2,138.3,157.3,136.3,156.1,136.3z"/>
			<path fill="#8E764E" stroke="#231815" stroke-width="0.9263" d="M160.4,125.3c-0.3,0-0.6,0.2-0.9,0.5c-0.7,0.9-0.1,2.5,1.2,2.1
				C162.5,127.3,161.6,125.3,160.4,125.3z"/>
			<path fill="#8E764E" stroke="#231815" stroke-width="0.9263" d="M165.1,125.3c-0.3,0-0.6,0.2-0.9,0.5c-0.7,0.9-0.1,2.5,1.2,2.1
				C167.1,127.2,166.2,125.2,165.1,125.3z"/>
			<path fill="#8E764E" stroke="#231815" stroke-width="0.9263" d="M169.7,124.6c-0.3,0-0.6,0.2-0.9,0.5c-0.7,0.9-0.1,2.5,1.2,2.1
				C171.8,126.5,170.9,124.5,169.7,124.6z"/>
			<path fill="#FFF161" stroke="#231815" stroke-width="0.9924" d="M181.4,115.1c-0.2-0.4-2.8-5.5-2.3-5.7c-3,1.2-5.9,3-8.4,5.1
				c-0.3,0.2-3.7,4-3.6,4c-0.4-0.2-1.4-0.8-1.3-0.8c1.4-2.7,3.3-5.2,5.7-7.2c2.1-1.7,4.5-3.4,7.3-3.5c3.3-0.1,2.1,5,4.9,6.3
				C182.9,113.9,182.1,114.5,181.4,115.1z"/>
			<path fill="none" stroke="#231815" stroke-width="0.9924" d="M180.6,107.5c-1,0.4-1.6,1.4-1.5,2.5"/>
			<path fill="none" stroke="#231815" stroke-width="0.9924" d="M177.5,107.5c0.2,0.7,0.4,1.2,0.8,1.8"/>
		</g>
		<path fill="#C95464" stroke="#231815" stroke-width="0.9924" d="M96.3,92.4c1.2,0.1-1.1,19.1-1.7,20.3c-3-0.8-5.9-1-9.1-0.3
			c-0.9,0.2-2.5-15.1-2.5-16.4c0.1-3.8-0.6-4.5,3.9-4.1C90,92.2,93.2,92.2,96.3,92.4z"/>
		<path fill="none" stroke="#231815" stroke-width="0.9924" d="M89.8,84.5c-0.3,2.5,2.1,3,2.3,0.3"/>
		<circle fill="#FFFFFF" stroke="#231815" stroke-width="0.9924" cx="69.9" cy="79.5" r="2.6"/>
		<circle fill="#FFFFFF" stroke="#231815" stroke-width="0.9924" cx="111.3" cy="78.8" r="2.6"/>
		<path fill="none" stroke="#231815" stroke-width="0.9924" d="M108.9,60.9c1.3-0.5,2.8-0.5,4,0.3"/>
		<path fill="none" stroke="#231815" stroke-width="0.9924" d="M64.9,61.9c1.1-0.8,2.3-1.2,3.6-1.3"/>
		<path fill="#E5A93A" stroke="#231815" stroke-width="0.9924" d="M107.6,14.4c-6.3-2.1-12.9-3.3-19.6-3
			c-10.7,0.5-19.9,3.4-28.7,9.8c-9.6,7-14.6,19.6-16,31.1c-0.5,4.4-0.8,9-0.4,13.4c0.2,2.3,0.7,4.6,1.5,6.8c0.6,1.6,3.1,4.2,3.3,5.6
			c-1.1-10.5-0.6-14.9,3.9-24.6c-0.6,1.2,4.5,2.6,12.5,3.4c0.4-2.1,1.2-4.1,2-6c0.3,2.1,0.6,4.1,0.7,6.2c6,0.5,13.2,0.6,20.9,0
			c0.1-2.4,0.3-4.9,0.4-7.3c0.8,2.1,1.7,4.6,2.2,7.1c4.2-0.4,8.4-0.9,12.7-1.7c2.3-0.4,4.5-1,6.7-1.8c-0.4-1.9-0.5-4.1-0.4-6
			c0.8,1.9,2.1,3.3,3,5c5-1.2,8.4-2.1,12.2-4.7c-1.2,1.1,3.7,8.5,4.4,9.8c3,6.4,4.9,13.3,3.2,20.3c3.8-4.3,5.8-10.6,6.1-16.3
			C139.2,40.4,128.3,21.3,107.6,14.4z"/>
		<g>
			<path fill="#E1E2E2" stroke="#231815" stroke-width="0.9924" stroke-linecap="round" stroke-linejoin="round" d="M10.1,95.2
				c2.2,2.3,4.2,4.7,5.3,7.6c3.3,0,6.5-0.7,9.7-3c-0.6-3.7-1.8-7.8-1.6-11.6"/>
			<path fill="none" stroke="#231815" stroke-width="0.9924" stroke-linecap="round" stroke-linejoin="round" d="M14.7,95.3
				c1.1-0.1,2.9,6.2,3.7,7.1"/>
			<path fill="none" stroke="#231815" stroke-width="0.9924" stroke-linecap="round" stroke-linejoin="round" d="M18.6,95.2
				c0.9,1.9,1.6,4.8,2.2,6.7"/>
			<path fill="none" stroke="#231815" stroke-width="0.9924" stroke-linecap="round" stroke-linejoin="round" d="M20.6,90.5
				c1,1.8,1.3,4.8,1.8,6.8c0.2,1,0.4,3.3,0.4,3.7"/>
			<path fill="#BE8031" stroke="#231815" stroke-width="0.9924" stroke-linecap="round" stroke-linejoin="round" d="M12.3,75.8
				c3-0.6,4.1,1.6,5.8,3.5c3.3-4.7,9.1,1.3,5.9,4.1c4.4-2.1,3.9,9.2-3.1,7c0.7,2.5-0.1,4.8-2.8,5.8c-1.7,0.6-2.9,0-3.5-1.7
				c-1.3,1.8-2.9,4.3-5.8,3.3c-2.3-0.8-3-3.9-1.5-5.6c-2.5,2.8-4.9-1.8-5.2-3.7c-0.4-2.8,1.2-7.6,4.8-6.1
				C6.9,79.4,9.3,76.3,12.3,75.8z"/>
			<path fill="#FCE8D7" stroke="#231815" stroke-width="0.9924" stroke-linecap="round" stroke-linejoin="round" d="M19,81.7
				c-0.4,2.4,2.9,1.6,2.4-0.2C21,80.3,19.2,80.5,19,81.7z"/>
			<path fill="#FCE8D7" stroke="#231815" stroke-width="0.9924" stroke-linecap="round" stroke-linejoin="round" d="M13.3,79.9
				c1.8,1.2-0.1,3.7-1.5,2.4C10.8,81.3,11.9,79,13.3,79.9z"/>
			<path fill="#FCE8D7" stroke="#231815" stroke-width="0.9924" stroke-linecap="round" stroke-linejoin="round" d="M10.6,89.9
				c-0.4,1.8-3.1,0.4-1.8-0.9C9.5,88.3,10.8,88.9,10.6,89.9z"/>
			<path fill="#FCE8D7" stroke="#231815" stroke-width="0.9924" stroke-linecap="round" stroke-linejoin="round" d="M16.6,88.2
				c-0.5,1.6,1.9,2.7,2.3,0.8C19.2,87.6,17.1,86.6,16.6,88.2z"/>
			<path fill="#FCE8D7" stroke="#231815" stroke-width="0.9924" stroke-linecap="round" stroke-linejoin="round" d="M5.2,86.2
				c1.4,0.7,2-1.8,0.4-1.7C4.8,84.5,4.4,85.8,5.2,86.2z"/>
			<path fill="#F2ABB4" stroke="#E85F9D" stroke-width="0.9924" stroke-linecap="round" stroke-linejoin="round" d="M15.5,82.9
				c0.2,0,0.5,0,0.7,0"/>
			<path fill="none" stroke="#F6B34E" stroke-width="0.9924" stroke-linecap="round" stroke-linejoin="round" d="M14.1,86.4
				c0.3-0.4,0.7-0.8,0.9-1.2"/>
			<path fill="none" stroke="#53AE68" stroke-width="0.9924" stroke-linecap="round" stroke-linejoin="round" d="M16.3,84.4
				c0.3,0.3,0.6,0.5,1,0.6"/>
			<path fill="none" stroke="#FFF100" stroke-width="0.9924" stroke-linecap="round" stroke-linejoin="round" d="M10.9,85.9
				c0.6-0.1,1-0.6,1.1-1.3"/>
			<path fill="none" stroke="#73C0E6" stroke-width="0.9924" stroke-linecap="round" stroke-linejoin="round" d="M12.9,86.6
				c0.1,0.6,0.3,1.2,0.4,1.8"/>
			<path fill="none" stroke="#A472AA" stroke-width="0.9924" stroke-linecap="round" stroke-linejoin="round" d="M15.9,87.2
				c0.5-0.3,1.2-0.5,1.7-0.7"/>
		</g>
		<g>
			<g>
				<path fill="#FCE4B5" stroke="#231815" stroke-width="0.9924" stroke-linecap="round" stroke-linejoin="round" d="M161.7,49.5
					c-0.8,1.2-1.7,2.4-2.5,3.4c2.5,2.5,7.5,3.9,10.6,5.7c2.7,1.5,4.7,4,7.9,2.4c1.1-0.5,2.5-1.4,3.9-2.5c-3.3-1.3-6.6-2.7-9.8-4.2
					C168.4,52.8,165,51.4,161.7,49.5z"/>
				<path fill="#FCE4B5" stroke="#231815" stroke-width="0.9924" stroke-linecap="round" stroke-linejoin="round" d="M174.8,53.7
					c2.9,1.2,5.8,2.4,8.7,3.4c1.8-1.6,3.5-3.4,4.4-5c-2.2-2.6-8.3-4.3-11.5-5.3c-4-1.3-8.2,0.4-11.7-0.5l-0.8-0.5
					c-0.3,0.8-0.8,1.6-1.3,2.4c0.3,0.1,0.6,0.2,0.9,0.4C167.1,50.1,171,52.1,174.8,53.7z"/>
				<path fill="#EB683E" stroke="#231815" stroke-width="0.9924" stroke-linecap="round" stroke-linejoin="round" d="M174.8,53.7
					c-3.8-1.6-7.7-3.6-11.3-5.1c-0.3-0.1-0.6-0.2-0.9-0.4c-0.3,0.4-0.6,0.9-0.8,1.3c3.3,1.8,6.6,3.3,10.1,4.9
					c3.2,1.5,6.5,2.9,9.8,4.2c0.6-0.5,1.2-1,1.8-1.5C180.5,56,177.6,54.9,174.8,53.7z"/>
			</g>
			<g>
				<path fill="#EA5C49" stroke="#231815" stroke-width="0.9924" stroke-linecap="round" stroke-linejoin="round" d="M185.7,41.2
					c-4.4,1.1-8.7,1.7-13.2,2.5c-2.9,0.6-6.1,1.1-8.9,2.3c4.7,2.2,10.5,2.2,15.5,4c2.7,1,5.4,1.9,8.4,2.4
					C189,49.7,188.1,43.3,185.7,41.2"/>
				<path fill="#E74134" stroke="#231815" stroke-width="0.9924" stroke-linecap="round" stroke-linejoin="round" d="M191.3,39.5
					c2.8,2-0.9,6.3-2.6,7.7c-3.3,2.6-5.4,2.2-8.2-0.8c-1.6-1.7-1.7-3,0-4.9c1.4-1.5,3-2.3,5-2.4c1.2-0.1,4.3-0.4,5.4,0.1
					C191,39.3,191.1,39.4,191.3,39.5z"/>
				<path fill="none" stroke="#231815" stroke-width="0.9924" stroke-linecap="round" stroke-linejoin="round" d="M189.2,43.1
					c-0.4,0.2-0.7,0.6-0.9,1"/>
				<path fill="none" stroke="#231815" stroke-width="0.9924" stroke-linecap="round" stroke-linejoin="round" d="M186.5,40.7
					c-0.4,0-0.7,0-1,0.2"/>
				<path fill="none" stroke="#231815" stroke-width="0.9924" stroke-linecap="round" stroke-linejoin="round" d="M183.3,41.7
					c-0.2,0.1-0.4,0.2-0.6,0.3"/>
				<path fill="none" stroke="#231815" stroke-width="0.9924" stroke-linecap="round" stroke-linejoin="round" d="M185.7,43.2
					c-0.2,0.2-0.4,0.4-0.7,0.6"/>
				<path fill="none" stroke="#231815" stroke-width="0.9924" stroke-linecap="round" stroke-linejoin="round" d="M187,45.6
					c-0.2,0.2-0.4,0.4-0.7,0.6"/>
				<path fill="none" stroke="#231815" stroke-width="0.9924" stroke-linecap="round" stroke-linejoin="round" d="M189.3,40.6
					c0.2-0.1,0.4-0.1,0.6,0"/>
				<path fill="none" stroke="#231815" stroke-width="0.9924" stroke-linecap="round" stroke-linejoin="round" d="M182.1,43.7
					c-0.3,0.1-0.5,0.3-0.4,0.6"/>
				<path fill="none" stroke="#231815" stroke-width="0.9924" stroke-linecap="round" stroke-linejoin="round" d="M184.6,45.9
					c-0.2,0.1-0.3,0.3-0.5,0.4"/>
				<path fill="#58B661" stroke="#231815" stroke-width="0.9924" stroke-linecap="round" stroke-linejoin="round" d="M184.8,48.5
					c-1.2,1.6-2.6,0.7-4-0.5c-0.6-0.6-1.6-1.3-1.8-2.2c-0.1-0.5,0.5-1.9,0.5-2c0.3,0.7,0.5,1.4,0.9,2.1c0.7-0.5,1.1-0.5,1.8,0.1
					c-0.2,0.3-0.3,0.6-0.6,1c0.8-0.1,1.8-0.1,2.4,0.5c-0.4,0.2-0.6,0.6-1,0.8C183.5,48.3,184.2,48.5,184.8,48.5z"/>
			</g>
		</g>
		<g>
			<path fill="#FFFFFF" stroke="#231815" stroke-width="0.9263" stroke-linecap="round" stroke-linejoin="round" d="M153.9,260.3
				c-3.1,3.5-0.1,7.9,1.7,11.3c0.6,1.1,2.3,4.6,3.8,2.4c0.9-1.3-1.6-5.8-1.9-7.2c-0.6-2.6,6.7-2.1,7.7-2.7c-0.1,0,4.7,14.6,9.2,5.5
				c1-2.1,1.5-4.3,1.8-6.6c0.2-1.6,0.2-5.3-1.8-3.5c-1.5,1.4-1.2,4-2.4,5.6c0,0-1.8-4.3-2-5c2.1-1.6,1.9-4.9-0.6-5.8
				c-0.9-0.3,0.5-5.9,0.5-6.9c0,0.9,4.8,1.4,5.6,1.6c2.4,0.5,4.9,0.3,7.2-0.2c2-0.4,9.3-2.6,7.4-6c-1.6-2.9-5.3,0.5-7.1,1.2
				c-4.3,1.8-9.7,1.3-9-4.7l-5.7,0.9l-10.9-7.7c0.2-3.8,1.5-10.2,4.1-13c0.9-1,4.7-3.3,3.1-5.1c-1-1-3.9,0.3-4.7,1
				c-4.9,3.7-7.1,10.2-6.9,16.1c0.1,3.6,1.6,10.7,5.4,13.2c0.6,0.4-1.5,5.4-1.9,6.4c-1.6,3.5-0.4,6.1,0,6.9c0.3,0.5-0.5,0.6-2.1,2.1
				C154.2,260,154.1,260.2,153.9,260.3z"/>
			<path fill="#FFFFFF" stroke="#231815" stroke-width="0.9263" stroke-linecap="round" stroke-linejoin="round" d="M191.7,212.5
				c-2.9,0.4-5.3,1.8-7.5,3.7c-2,1.8-3.5,4.5-5.2,6.5c-0.8-1.2-3.1-2.3-3.7-2.7c-0.4-0.2-0.8-0.4-1.3-0.6c0.3-0.9,0.6-1.8,1-2.7
				c-0.9,1.6,1.9-4.2,5.2-4.8c1.5-0.3,5.5-0.7,4.6-3.8c-0.9-3.2-8.7,0.6-10.4,2.2c-2.6,2.5-4.3,4.9-5.4,8c-1.6,0-3.1,0.4-4.4,1.3
				c-4.9,3.4-11.1,10.7-6.4,16.6c2.2,2.8,5.5,4.9,9,5.6c1.2,0.3,3.7,0.7,5,0.7c1.6,0,5.6-0.5,6.1-1.5c0.3-1-1-1.2-1.3-1.3
				c1.8-0.7,4.8-1.6,5.5-3.6c-0.9-0.1-1.9,0.4-2.3-0.5c1.2-1.2,3.3-1.7,4.1-3.2c0.8-1.4-1.3-2.1-1.8-1.1c0.5-0.9,1.7-1.3,2.4-2.1
				c1.2-1.5-1.1-0.9-2.1-0.9c0.5-0.4,2.3-1.6,1.9-2.3c-0.4-0.7-2.6-0.1-3.3-0.1c0.4-0.7,1-1.2,1.6-1.9c1.4-1.7,2.9-3.2,4.4-4.8
				c1.6-1.8,2.8-1.4,5-1.9C195.4,216.7,195.6,212,191.7,212.5z"/>
			<path fill="#C80030" stroke="#231815" stroke-width="0.9263" stroke-linecap="round" stroke-linejoin="round" d="M165.5,233.3
				c-1.5,2.2-2.2,5.7-2.6,8.5c-1.3-0.3-2.5-1.6-3.8-2.2c-0.4-0.2,1.1-9,1.3-9.8C160.2,230.6,165.1,233.9,165.5,233.3z"/>
			<path fill="none" stroke="#231815" stroke-width="0.9263" stroke-linecap="round" stroke-linejoin="round" d="M173.5,226.3
				c0.6,0.9,1.3,1.7,2.2,2.2"/>
			<path fill="none" stroke="#231815" stroke-width="0.9263" stroke-linecap="round" stroke-linejoin="round" d="M163.6,221
				c0.6,0.1,1.2,0.4,1.5,0.9"/>
			<path fill="none" stroke="#231815" stroke-width="0.9924" d="M166.3,278c0.9,2.7,3.7,4.3,5.3,6.6"/>
			<path fill="none" stroke="#231815" stroke-width="0.9924" d="M170.1,277.3c-0.1,2.1,2.5,4.8,3.8,6.2"/>
			<path fill="none" stroke="#231815" stroke-width="0.9924" d="M173.1,277.7c1.1,2,2.3,4,3.5,6"/>
			<path fill="#EAD1DD" d="M169.5,231.9c-0.8,1.1-2.3,4.1-0.8,5.1c1.8,1.3,3.1-1.8,3.4-3.1c-1.4,1.5-3.1-0.2-2.8-1.9"/>
			<path fill="none" stroke="#231815" stroke-width="0.9263" stroke-linecap="round" stroke-linejoin="round" d="M170.8,231.2
				c1.5,0.1,1.9,3.2,0.1,3.4c-2,0.3-2.3-3.1-0.4-3.4C170.6,231.2,170.7,231.2,170.8,231.2z"/>
			<path fill="none" stroke="#231815" stroke-width="0.9263" stroke-linecap="round" stroke-linejoin="round" d="M158.4,254.6
				c0.1,0-0.1-0.4,0.2-0.5c0.1,0.5,0.1,0.4,0,0.7C158.3,254.6,158.4,254.6,158.4,254.6"/>
			<path fill="none" stroke="#231815" stroke-width="0.9263" stroke-linecap="round" stroke-linejoin="round" d="M188.5,230.3
				c1.9-0.3,0.9-3.3-0.7-1.9C186.8,229.3,187,230.6,188.5,230.3z"/>
			<path fill="none" stroke="#231815" stroke-width="0.9263" stroke-linecap="round" stroke-linejoin="round" d="M184.1,235.5
				c1.1-1.4,2.3,0.2,1.3,1.3C184.6,237.5,183.4,236.5,184.1,235.5z"/>
			<path fill="#EAD1DD" d="M159.8,225c-0.7,0.6-2.9,3.1-1.7,3.9c0.9,0.6,3.4-1.6,3.4-2.4c-1,0.6-2.3,0.5-2.4-0.9"/>
			<path fill="none" stroke="#231815" stroke-width="0.9263" stroke-linecap="round" stroke-linejoin="round" d="M161.4,227
				c-1.6,0.9-2.7-1.4-1.2-2.3C161.8,223.8,163,226.1,161.4,227z"/>
		</g>
		<path fill="#865348" stroke="#231815" stroke-width="0.9263" d="M29.6,257.5c-5.6-4.8-3.4-9.3,0.2-14.5c5.9-8.6,19-4.9,21.7,4.3
			c1.4,4.6-3.5,13-7.5,14.2C39.1,263,34,261.3,29.6,257.5z"/>
		<path fill="#865348" stroke="#231815" stroke-width="0.9263" d="M43.6,239.8c3.9-5.5,15.4-16.5,21.3-7.9c0.9,1.3,1.6,5.1,0,6.4
			c-2.8,2.2-5.5-3.4-8.4-3.1c-3.4,0.3-7.1,4.5-9.3,6.6"/>
		<path fill="#865348" stroke="#231815" stroke-width="0.9263" d="M41.6,241.5"/>
		<path fill="#FFFFFF" stroke="#231815" stroke-width="0.9263" d="M44.6,256.8c1.7,1.7,3.4-2,1.2-2.6c-1.4-0.4-2.2,1.5-1.3,2.5
			C44.6,256.7,44.6,256.8,44.6,256.8z"/>
		<path fill="#865348" stroke="#231815" stroke-width="0.9263" d="M28.1,271.1c2.4,2.6,6.2,9.4,1.3,10.4c-1.9,0.4-7.3-0.9-9.3-1.1
			c-1.5-0.2-5.2,1.3-5-1.2c0.2-3.5,11.4-2.8,11.4-2.9c-0.1-0.3-0.2-0.1-0.4-0.2"/>
		<path fill="#865348" stroke="#231815" stroke-width="0.9263" stroke-linecap="round" stroke-linejoin="round" d="M32.9,267.4
			c0.8,3.2,1.3,9.2,4.2,11.2c1.2,0.8,4.1,0.4,4.3-0.3c0.5-2.8-2-2.3-2.2-2.7c-1.7-4.1-1.8-9.5-3-13.6c-0.3-0.9-1.1-3.2-2.1-3.4
			c-1.8-0.4-3,0.2-3.6,0.7"/>
		<path fill="none" stroke="#231815" stroke-width="0.9263" stroke-linecap="round" stroke-linejoin="round" d="M40,242.4
			c-0.5,0.6-1.4,1.7-1.5,2.5"/>
		<path fill="none" stroke="#231815" stroke-width="0.9263" stroke-linecap="round" stroke-linejoin="round" d="M42.2,242.9
			c-0.2,0.7-0.9,1.8-1.3,2.5"/>
		<path fill="none" stroke="#231815" stroke-width="0.9263" stroke-linecap="round" stroke-linejoin="round" d="M37.9,241.1
			c-0.4,1.1-1.3,2-1.5,3.2"/>
		<path fill="none" stroke="#231815" stroke-width="0.9263" d="M47.2,248c0.5,1.1,1.7,2.6,2.5,3.4"/>
		<g>
			<g>
				<path fill="#FFFFFF" stroke="#231815" stroke-width="0.9924" stroke-linecap="round" stroke-linejoin="round" d="M28.2,177.5
					c-0.4,0-4.1,2.4-3.8,2.6c-2.4-2.7-3.6-7.5-5.3-10.8c2.3,0.3,4.3-1.6,5.8-3.8c-0.6-1.2-1.2-2.4-2-3.5c-1.4-2.1-1.8-0.7-3.5-1.8
					c-1-0.6-1.5-2.6-1.9-3.7c-1-2.6-1.7-5.7-2-7.3c-0.8,0.9-1.9,1.9-3.2,2c-0.4,0.7,1.9,5.6,2.2,6.4c0.4,1.2,1.3,2.9,1.3,4.3
					c0,1.8-1.5,3.2-1.3,5.1c0.5,3.9,2,7.9,3.9,11.3c0.5,0.9,6.2,7.6,6.6,7.4c2.1-0.8,4.1-1.7,5.5-3.6c-0.7-1.7-1.2-3.4-1.6-5.1
					C28.6,177.1,28.4,177.3,28.2,177.5z"/>
				<path fill="#D2ECFA" stroke="#231815" stroke-width="0.9924" stroke-linecap="round" stroke-linejoin="round" d="M19.1,169.3
					c1.6,3.3,2.8,8.2,5.3,10.8c-0.2-0.2,3.4-2.6,3.8-2.6c0.2-0.2,0.4-0.4,0.6-0.5c-0.4-1.3-0.7-2.7-1.1-4.1c-0.7-2.5-1.6-5-2.8-7.4
					C23.4,167.7,21.4,169.6,19.1,169.3z"/>
			</g>
			<path fill="#FFFFFF" stroke="#231815" stroke-width="0.9924" stroke-linecap="round" stroke-linejoin="round" d="M15.1,148.8
				c0.5,0.3,0.8,0.7,0.7,1.4c-0.2,1.7-3.8,2.6-4,0.5C11.7,148.8,13.9,148.1,15.1,148.8z"/>
			<path fill="none" stroke="#231815" stroke-width="0.9924" stroke-linecap="round" stroke-linejoin="round" d="M21.9,171.2
				c0,0,0.6,1.2,0.9,1.6c0.6-0.7,0.4-1.5,0.5-2.5c0.5,0.3,1.4,0.5,1.9,0.9c0-0.4,0.1-0.8,0.1-1.2c0.2,0.3,0.6,0.6,0.9,0.9
				c0-0.6,0.1-1.3,0-1.9"/>
			<path fill="none" stroke="#231815" stroke-width="0.9924" stroke-linecap="round" stroke-linejoin="round" d="M24.6,174.7
				c1,0.6,2.3-0.8,2.9-1.8"/>
			<path fill="none" stroke="#231815" stroke-width="0.9924" stroke-linecap="round" stroke-linejoin="round" d="M25.5,176.9
				c0.7-0.5,1.7-1.1,2.4-1.8"/>
			<path fill="#FFFCE4" stroke="#231815" stroke-width="0.9924" d="M0.9,145.8c0.9,1.2,3,0.4,4.1,0.3c2-0.3,2.3,0,3.9,1.2
				c-0.9-1.6-1.9-4-3.8-4.7c-1.5-0.6-5.6,0.6-4.4,2.9C0.8,145.6,0.8,145.7,0.9,145.8z"/>
		</g>
		
			<polyline opacity="0.76" fill="#FFFFFF" stroke="#231815" stroke-width="0.9924" stroke-linecap="round" stroke-linejoin="round" stroke-dasharray="3.3081,3.3081" points="
			104.1,242.5 71.9,265.7 72.7,268.3 91.5,276.1 147.1,269.5 		"/>
		<path fill="#413D3C" stroke="#231815" stroke-width="0.9924" stroke-linecap="round" stroke-linejoin="round" d="M82.4,276.3
			c-1.6,0-3.1,0-4.8-0.1c-0.7,0-8.3-0.1-8.1-1.2c0.6-2.7,2-6.7,2.3-9.4c0.1-0.8,10.3-0.2,11.4-0.2c2.6,0.1,6.1,0.2,8.8,0.2
			c0.2,2.6-0.3,4.3-0.2,6.8c0.1,1.4-0.1,1.9-0.1,3.3C88.8,276.1,85.6,276.3,82.4,276.3z"/>
		<path fill="none" stroke="#FFFFFF" stroke-width="0.6616" stroke-linecap="round" stroke-linejoin="round" d="M76.5,274.4
			c0.4-1,0.7-1.8,1.3-2.7"/>
		<path fill="none" stroke="#FFFFFF" stroke-width="0.6616" stroke-linecap="round" stroke-linejoin="round" d="M74.8,273.4
			c1.9,0.1,1.5-1.1,0.9-1.9"/>
		<path fill="none" stroke="#FFFFFF" stroke-width="0.6616" stroke-linecap="round" stroke-linejoin="round" d="M73,272.2
			c0.3-0.1,0.5-0.3,0.8-0.3c0.3,0.4,0.4,0.8,0.2,1.2c-0.3,0.1-0.7,0-1,0c-0.3-0.9,0-2,1.5-1.9"/>
		<path fill="none" stroke="#FFF23A" stroke-width="0.6616" stroke-linecap="round" stroke-linejoin="round" d="M88.3,269.8
			c-0.7,0.1-1.7,0.2-2.3,0.1c-0.2-0.3-0.2-1.3-0.2-1.5c1.4,0,3.1,0.6,2.5-1.5c-0.8,0.2-2.5,0-2.9-0.1"/>
		<path fill="none" stroke="#FFF23A" stroke-width="0.6616" stroke-linecap="round" stroke-linejoin="round" d="M75.6,268.8
			c-0.3,0.3,2.4-2.4,2.5-2.5"/>
		<path fill="none" stroke="#FFFFFF" stroke-width="0.6616" stroke-linecap="round" stroke-linejoin="round" d="M87.9,274.5
			c0.3-0.7,0.2-1.9,0.2-2.8c-1,0.4-2.2,0.2-3.2,0.4"/>
		<path fill="none" stroke="#FFFFFF" stroke-width="0.6616" stroke-linecap="round" stroke-linejoin="round" d="M86.1,274.3
			c0-1,0-2.7,0-3.3"/>
		<path fill="none" stroke="#FFFFFF" stroke-width="0.6616" stroke-linecap="round" stroke-linejoin="round" d="M80.3,274.6
			c0.9,0,1.8,0,2.6,0c0.1-1.1,0.2-2.2,0.2-3.4c-1-0.2-1.9,0.2-2.9,0.2c-0.2,1.2-0.2,2.4-0.2,3.6"/>
		<path fill="none" stroke="#FFFFFF" stroke-width="0.6616" stroke-linecap="round" stroke-linejoin="round" d="M80.2,273.3
			c0.8-0.3,1.9-0.2,2.8-0.2"/>
		<path fill="none" stroke="#FFF23A" stroke-width="0.6616" stroke-linecap="round" stroke-linejoin="round" d="M81,268.7
			c0.8,0.1,1.6,0,2.3-0.1c0.1,0.4,0.1,1.1,0,1.4c-0.9,0.1-1.8,0.1-2.7-0.1c-0.1-1-0.1-2.3,0-3.3c-0.1,0.7,2.4-0.1,2.7-0.1"/>
		<path fill="none" stroke="#FFF23A" stroke-width="0.6616" stroke-linecap="round" stroke-linejoin="round" d="M78,269.1
			c-0.4,0.8-1.5-0.2-0.7-0.7C77.8,268.1,78.3,268.6,78,269.1z"/>
		<path fill="none" stroke="#FFF23A" stroke-width="0.6616" stroke-linecap="round" stroke-linejoin="round" d="M74.4,267.6
			c0-0.6,0.1-1.2,0.9-0.8c0.1,0.5-0.2,0.9-0.6,0.6"/>
		<path fill="#281E1C" stroke="#E50012" stroke-width="0.9924" stroke-linecap="round" stroke-linejoin="round" d="M151.3,265.7
			c0,2.2-1.6,4-3.5,4h-42c-1.9,0-3.5-1.8-3.5-4v-21c0-2.2,1.6-4,3.5-4h42c1.9,0,3.5,1.8,3.5,4V265.7z"/>
		<path fill="none" stroke="#FFFFFF" stroke-width="1.0586" d="M113.8,243.2c0,2.7-0.2,5.4-0.1,8.2c0,0.5,5.8,0.1,6.2,0.2"/>
		<path fill="none" stroke="#FFFFFF" stroke-width="1.0586" d="M121.3,249.2c2.3,0,3.3,0,5.3-0.1"/>
		<path fill="none" stroke="#FFF23A" stroke-width="1.0586" stroke-linecap="round" stroke-linejoin="round" d="M114.3,257.1
			c1.2,0,3.8,0.1,5.1,0.1c-0.1,1.2,0.1,3-0.1,4.2c-1.6,0.1-3.3-0.1-4.9-0.1c-0.1,1.8-0.1,3.4,0,5.2c1.8,0,3.4,0.1,5.4,0"/>
		<path fill="none" stroke="#FFF23A" stroke-width="1.0586" stroke-linecap="round" stroke-linejoin="round" d="M121.9,266.6
			c2.1,0.1,3.8,0,5.6,0c0.1-2.9,0.2-5.5,0-9.3c0,0-4.2,0-5.6-0.1c0.1,1.9-0.1,3.3,0,5.2c1.5,0,4-0.1,5.8,0"/>
		<path fill="none" stroke="#FFF23A" stroke-width="1.0586" stroke-linecap="round" stroke-linejoin="round" d="M141,258.9
			c-2.8,3.3-4.2,4.8-7.3,8.2"/>
		<path fill="none" stroke="#FFF23A" stroke-width="1.0586" stroke-linecap="round" stroke-linejoin="round" d="M135.6,262.1
			c-0.9,0.5-2.1-0.4-1.6-1.9c0.6-1.5,2.7-0.9,2.3,0.8C136.2,261.6,135.9,261.9,135.6,262.1z"/>
		<path fill="none" stroke="#FFF23A" stroke-width="1.0586" stroke-linecap="round" stroke-linejoin="round" d="M139.1,266.3
			c2,0.9,2.3-2.8,0.3-2.6C137.9,263.8,137.8,265.7,139.1,266.3z"/>
		<path fill="none" stroke="#FFFFFF" stroke-width="1.0586" d="M134.4,243.1c0,3,0,6.8,0.1,9.6"/>
		<path fill="none" stroke="#FFFFFF" stroke-width="1.0586" d="M137.3,247.3c-0.9,0.9-1.8,1.8-2.7,2.7c1.5,1.2,1.9,1.6,2.8,2.4"/>
		<path fill="none" stroke="#FFFFFF" stroke-width="1.0586" d="M141.7,251.1c1-0.9,0.5-3-0.9-3c-1.2,0-2,1.7-1.3,2.8
			C140.1,251.8,141,251.7,141.7,251.1z"/>
		<path fill="none" stroke="#FFFFFF" stroke-width="1.0586" d="M142.2,250c0.2,1.7,0.6,5.7-1.4,5.8c-0.7,0-1.8-0.1-1.5-1.1"/>
		<path fill="none" stroke="#FFFFFF" stroke-width="1.0586" d="M116.8,244.3c0.1,3.3,0.2,7.8,0.3,10.6"/>
		<path fill="none" stroke="#FFFFFF" stroke-width="1.0586" d="M120.9,253.5c2,0.1,3.9,0.1,5.8-0.1c0-1.7-0.1-3.7-0.2-5.5
			c-0.1-1,0-3.3-0.3-4.2c-0.1-0.6-4.1,0-5.5,0C120.8,245.9,121.1,253.5,120.9,253.5z"/>
		<path fill="none" stroke="#E50025" stroke-width="0.9924" stroke-linecap="round" stroke-linejoin="round" d="M134.1,274.6
			c0,2.1-0.2,2.9-0.2,5.1"/>
		<path fill="none" stroke="#E50025" stroke-width="0.9924" stroke-linecap="round" stroke-linejoin="round" d="M138,274.5
			c0.8,2.8,1.2,3.9,1.7,5.7"/>
		<path fill="none" stroke="#E50025" stroke-width="0.9924" stroke-linecap="round" stroke-linejoin="round" d="M141.4,273.8
			c1.8,1.8,2.6,2.6,3.8,3.8"/>
	</g>
</g>
<g id="Layer_4">
</g>
<g id="Layer_3">
</g>
<g id="Layer_2">
</g>
<g id="圖層_1">
</g>
</svg>
