<?xml version="1.0" encoding="utf-8"?>
<!-- Generator: Adobe Illustrator 17.1.0, SVG Export Plug-In . SVG Version: 6.00 Build 0)  -->
<!DOCTYPE svg PUBLIC "-//W3C//DTD SVG 1.1//EN" "http://www.w3.org/Graphics/SVG/1.1/DTD/svg11.dtd">
<svg version="1.1" xmlns="http://www.w3.org/2000/svg" xmlns:xlink="http://www.w3.org/1999/xlink" x="0px" y="0px" width="234.7px"
	 height="239.3px" viewBox="0 0 234.7 239.3" enable-background="new 0 0 234.7 239.3" xml:space="preserve">
<g id="Layer_5">
</g>
<g id="Layer_4">
</g>
<g id="Layer_3">
</g>
<g id="Layer_2">
	<g>
		<path fill="#C5C5C6" stroke="#231815" stroke-width="0.8429" stroke-linecap="round" stroke-linejoin="round" d="M118.9,29.7
			c-0.9-1.3-9.1-6.6-11.1-4.2c0.2-5.7-1.4-9.5-5.8-11.9c-2.6-1.4-5.8-2.2-8.8-1.9c-0.7,0.1-5.4,0.5-4.7,2c-2.5-5.6-7-9.9-12.9-11.8
			c-3-1-6.1-1.3-9.2-1.4C56.3,0,45.2,4.8,38.1,12.2c-3.6,3.8-6.2,9.6-6.2,15c-7.7,0.7-14,3.6-17.7,10.9c-2.6,5.1-2.4,10.9-0.4,16.2
			c2.8,7.4,11.9,12.8,20.9,12.2c7.7-0.5,12.5-4.8,16.7-10.2c3.1,5.6,12.7,4.6,18.5,2.8c5.4-1.7,9-4.7,12.3-8.4
			c0.6-0.6,1.1-1.3,1.7-1.9c5.1,5.9,12.5,6.3,20.4,3.6C115.6,48.4,125.4,38.9,118.9,29.7z"/>
		<path fill="#FFFFFF" stroke="#231815" stroke-width="0.8429" stroke-linecap="round" stroke-linejoin="round" d="M44.1,28.4
			c0.7,1.7,3.9,2.5,6.7,0.8c-0.3,1-1.9,2.5-3.9,2.5c-2.2,0-2.2-2.1-2.4-2.8"/>
		<path fill="#C5C5C6" stroke="#231815" stroke-width="0.8429" stroke-linecap="round" stroke-linejoin="round" d="M39.4,35.7"/>
		<path fill="none" stroke="#231815" stroke-width="0.8429" stroke-linecap="round" stroke-linejoin="round" d="M74.8,20.7
			c2.4,2.1,4.8-1.5,6-3.3"/>
		<path fill="none" stroke="#231815" stroke-width="0.8429" stroke-linecap="round" stroke-linejoin="round" d="M44.8,19.8
			c2.3-5,5.3,2.3,6.6,3.8"/>
		<path fill="none" stroke="#231815" stroke-width="0.8429" stroke-linecap="round" stroke-linejoin="round" d="M53.2,24.2
			c0.2,0.6,0.1,1.1-0.4,1.2"/>
		<path fill="none" stroke="#231815" stroke-width="0.8429" stroke-linecap="round" stroke-linejoin="round" d="M66.7,22.2
			c-0.7-0.7-1.4-1.5-1.8-2.4"/>
		<path fill="none" stroke="#231815" stroke-width="0.8429" stroke-linecap="round" stroke-linejoin="round" d="M63,20.1
			c0.2,1,0,2.3-0.3,3"/>
		<path fill="#999A9A" d="M69.4,37.4c-3.7-0.2-7.6-0.9-11.2-1.7c-5.4-1.1-9.7-1.8-15-0.1c-1.7,0.6-3.9,0.9-5.4,2
			c2.9-2.2,6.8-4.5,10.6-4.8c4-0.3,7.9-0.8,11.6-2.6c1.6-0.8,3.8-3.2,5.4-3.6c1.8-0.4,5,1.6,6.6,2.3c4.6,2,8.5,1.9,13.5,1.9
			c4.2,0,9.6-0.3,11.4,4.5c-2.4-3.7-8.9-0.6-12.1,0c-4.7,0.9-9.5,2.1-14.4,2C70.2,37.4,69.8,37.4,69.4,37.4z"/>
		<g>
			<path fill="#3B0014" stroke="#231815" stroke-width="0.8429" d="M104.6,44.2c-3.1-3.8-9.7-2.6-14.1-2.8
				c-6.2-0.3-12.5,1.1-18.7,1.3c-6.7,0.1-13.3-1.8-19.6-3.2c-3.2-0.7-6.4-0.7-9.5,0c-0.2,1.6-0.3,3.8-0.4,5.4
				c-1.4-0.6-2.1-3-2.3-4.6c-1.2,0.5-2.3,1.1-3.4,1.8c-3.2,2.1-5.6,6.1-5.8,10.2c-0.1,3.2,1.8,11,6,10.9l70.1-8.7
				c0.2-0.5,0.3-1.2,0.4-1.7C107.9,49.5,106.8,46.8,104.6,44.2z"/>
			<path fill="#FFFFFF" stroke="#231815" stroke-width="0.8429" stroke-linecap="round" stroke-linejoin="round" d="M40,40.3
				c0.9-0.4,1.8-0.6,2.7-0.9"/>
			<path fill="#FFFFFF" stroke="#231815" stroke-width="0.8429" stroke-linecap="round" stroke-linejoin="round" d="M42.4,44.9
				c0.1-1.7,0.2-3.8,0.4-5.4c-0.9,0.2-2.5,0.8-3.4,1.1C39.7,42.1,40.9,44.3,42.4,44.9z"/>
		</g>
		<g>
			<path fill="#8D7041" stroke="#231815" stroke-width="0.8429" stroke-linecap="round" stroke-linejoin="round" d="M20.7,236.9
				c-0.5,0.4-1.4,1-2,1.5c-3.1-7.6-1-16.1-0.9-24c0-3.7,0.1-7.5,0.1-11.2c0-2.9-0.8-5.9-0.3-8.8c0.8-4.9,4.4-1.6,8-3.5
				c-1.7,7.3-2.9,14.3-3.8,21.6C20.7,220.7,21.2,228.8,20.7,236.9z"/>
			<path fill="#9D7D4A" stroke="#231815" stroke-width="0.8429" stroke-linecap="round" stroke-linejoin="round" d="M10.8,191.8
				c-0.1,9.3,0.5,18.6,1.2,27.9c0.5,6.2,0.9,12.4,1.3,18.7c0.1,1.1,5.5-0.3,6-0.2c-0.4-3.9,0.2-8,0.2-12c0-4.7,0-9.4,0.4-14.1
				c0.2-2.4,1-23.3,1.1-23.3c-3.6,0.9-6.6,2.2-10.7,1.7"/>
		</g>
		<g>
			<path fill="#8D7041" stroke="#231815" stroke-width="0.8429" stroke-linecap="round" stroke-linejoin="round" d="M117.3,236.9
				c-0.5,0.4-1.4,1-2,1.5c-3.1-7.6-1-16.1-0.9-24c0-3.7,0.1-7.5,0.1-11.2c0-2.9-0.8-5.9-0.3-8.8c0.8-4.9,4.4-1.6,8-3.5
				c-1.7,7.3-2.9,14.3-3.8,21.6C117.3,220.7,117.8,228.8,117.3,236.9z"/>
			<path fill="#9D7D4A" stroke="#231815" stroke-width="0.8429" stroke-linecap="round" stroke-linejoin="round" d="M107.4,191.8
				c-0.1,9.3,0.5,18.6,1.2,27.9c0.5,6.2,0.9,12.4,1.3,18.7c0.1,1.1,5.5-0.3,6-0.2c-0.4-3.9,0.2-8,0.2-12c0-4.7,0-9.4,0.4-14.1
				c0.2-2.4,1-23.3,1.1-23.3c-3.6,0.9-6.6,2.2-10.7,1.7"/>
		</g>
		<path fill="#241207" stroke="#231815" stroke-width="0.8429" stroke-linecap="round" stroke-linejoin="round" d="M133.3,198.2
			c-4.3,0.9,2.3,10.3,4.9,10.4c2.8,0.1,0.2-3.6-0.5-4.6c-1.1-1.8-1.8-5.3-4-6c-0.1,0.5-0.5,0.6-0.6,0.8"/>
		<path fill="#FAD8C3" stroke="#231815" stroke-width="0.8429" d="M133.1,199.2c-0.5,1.7,3.2,5.6,4.4,6.8c0.7-1.4-2.2-7.1-4-6.2"/>
		<path fill="#676057" stroke="#231815" stroke-width="0.8429" stroke-linecap="round" stroke-linejoin="round" d="M119.3,152.6
			c5.1-1.2,6.6-3.8,12.2-1.7c4.3,1.6,8.2,4.4,11.3,7.6c4.8,5,8.5,10.5,11.2,16.9c3.7,8.5,4.3,18.3-7.2,20.3c-0.3,0-8.3,2.3-10.9,5.9
			c-0.2-0.2-3.2-2.5-3.2-2.6c0.5-0.9-0.7-12.3,5.5-10.5c-6.2-2.2-9.5-2.7-14-5.8c-2.4-1.6-2.8-5.3-5.1-7.1
			c-3.9-3.1-4.1-7.4-6.3-11.7"/>
		<path fill="#FFEE97" stroke="#231815" stroke-width="0.8429" stroke-linecap="round" stroke-linejoin="round" d="M67.5,117.1
			c3,10.5-2.6,23.7,1.8,37.1c6.4,0.3,20.3,0.3,26.7-0.1c2.3-0.1,4.2,0,6.4,0.5c4.2,0.9,8-0.6,11.7,2.1c0.6,0.4,1.1,1.3,1.8,1.3
			c1.4,0,2-3.3,2.2-4.4c1.2-5.6,0-11.2,0-16.8c0-2.8-0.1-5.6-0.4-8.5c-0.1-1.3-0.2-2.6-0.2-3.9c0-2.4,0.2-5.2-0.2-7.6
			c-0.5-2.8-0.7-5.7-1.5-8.5c-1.6-5.8-5.8-9.4-11.9-9.5c-4.1,0-8.3,0.7-12.3,1.7c-6.3,1.6-12.1,5.9-18.3,7.3"/>
		<path fill="#FFEE97" stroke="#231815" stroke-width="0.8429" stroke-linecap="round" stroke-linejoin="round" d="M111.5,126.1
			c9.5,1.5,19.3,15.3,17.2,23.8c-0.5,1.9-7,1.5-9,2.2c-2.1,0.7-4.7,0.6-6.8,1.1"/>
		<path fill="#FFEE97" stroke="#231815" stroke-width="0.8429" stroke-linecap="round" stroke-linejoin="round" d="M94.7,91
			c-8-2.2-38.3,19.1-43.8,40.7c-2,8-0.3,16.3,5.6,16.5c4.6,0.1,7.6-1.8,11.4-4"/>
		<path fill="#9D7D4A" stroke="#231815" stroke-width="0.8429" stroke-linecap="round" stroke-linejoin="round" d="M61.2,179.1
			c-3.5,2-7.5,2.8-11.1,4.6c-4,2-7.9,4.3-12.1,6c-5.4,2.3-32.9,4.3-37.6,7.8c1.1,3.3,1,4.7,1.8,5c2.6,1,51.4-0.2,65.1-0.2
			c19.1,0,40.4,0,59.4-1.6c0.8-2.4,3.6-5.6-0.8-13"/>
		<path fill="#FFFFFF" stroke="#231815" stroke-width="0.8429" stroke-linecap="round" stroke-linejoin="round" d="M77.2,26.1
			c2.6,0.3,4.9-0.9,4.9-3.7c0.4,1.9,1,3.5-1.3,4.7c-1.5,0.8-3.1,0.5-3.4-1.2"/>
		<path fill="#FFEE97" stroke="#231815" stroke-width="0.8429" stroke-linecap="round" stroke-linejoin="round" d="M103.2,97.7
			c5-3.7,12-4.7,17.9-3.2c10.5,2.6,18.2,15.4,12.2,25.5c-1.6,2.7-5.4,7.5-8.5,8.4c-0.5-1.1-2.3-3-2.3-4.2c0-1.2,0.8-1.3,1.2-2.5
			c0.6-1.7,0.9-3.7,1-5.5c0,0-7,5.5-7.6,5.9"/>
		<path fill="#ED752A" stroke="#231815" stroke-width="0.8429" stroke-linecap="round" stroke-linejoin="round" d="M77.5,124.9
			c2.1,3.1,3.6,4.5,9.6,7.5c2.1-8.1,3.9-13.5,1.8-14.1c-3.4-1.6-7.3,4.1-10.8,5.1"/>
		<path fill="#ED752A" stroke="#231815" stroke-width="0.8429" stroke-linecap="round" stroke-linejoin="round" d="M105.2,103.8
			c1.9,3.2-0.2,7.2-1.5,10.2c-2,4.7-4.5,9.3-6.1,14.2c-3-3-7.6-9.3-12.2-9.1c1.3-3.7,9.4-7.3,12.3-9.9"/>
		<path fill="#FFFFFF" stroke="#231815" stroke-width="0.8429" stroke-linecap="round" stroke-linejoin="round" d="M65.6,133.2
			c-1.6,1.5-2,3.8-3,5.7c-0.2,0.4-1,2-1.3,2.3c-0.5,0.4-1.4,0.1-1.9,0.6c-1.5,1.7,1.3,3.8,2.6,1.7c-0.5,0.9-0.5,3.5,1.2,3
			c1-0.3,1-2.6,1.2-3.4c0.8-3.1,3-6,5-8.4"/>
		<circle fill="#FAD8C3" stroke="#231815" stroke-width="0.8429" cx="110" cy="76.5" r="7.4"/>
		<circle fill="#FAD8C3" stroke="#231815" stroke-width="0.8429" cx="34.9" cy="100.6" r="7.4"/>
		<path fill="#FAD8C3" stroke="#231815" stroke-width="0.8429" d="M113.4,91.4c0.1,20.8-17.5,29.6-38.7,35.7
			c-19.7,5.6-37.9,0-36.9-20.5c0.1-1.1-6.6-13.6-5.9-22.7c1.8-22,21.2-38.4,43.2-36.6C97.2,49.3,113.3,69.3,113.4,91.4z"/>
		<path fill="#AF4046" stroke="#231815" stroke-width="0.8429" d="M73.8,117.8c-0.9,1.1-1.8,2.3-3,2.8c-5.3,2.5-8.4-6.4-7.1-10.3
			c3.7-10.3,23.7-10.7,28.8-2c1.7,2.8,1.5,5.7-0.8,8.2c-3.2,3.5-3.3,0.8-5.9-1.3c-2.5-2-5.8-1.7-8.6-0.5
			C75.8,115.3,74.8,116.6,73.8,117.8z"/>
		<path fill="none" stroke="#F4B2A0" stroke-width="0.8429" d="M92.4,87.4c0.3,0.5,0.7,1.9,0.6,2.6"/>
		<path fill="none" stroke="#F4B2A0" stroke-width="0.8429" d="M95.1,85.9c0.5,0.6,1.1,2.6,1.2,3.3"/>
		<path fill="none" stroke="#F4B2A0" stroke-width="0.8429" d="M96.9,84.2c0.5,0.6,1.1,1.8,1.7,2.6"/>
		<path fill="none" stroke="#F4B2A0" stroke-width="0.8429" d="M48.9,98.5c0,1,0.1,2.2-0.2,3.2"/>
		<path fill="none" stroke="#F4B2A0" stroke-width="0.8429" d="M52.4,98.2c0.3,1.1,0.5,2.2,0.5,3.3"/>
		<path fill="none" stroke="#F4B2A0" stroke-width="0.8429" d="M55.7,97.8c0.1,0.9,0.5,1.8,0.6,2.7"/>
		<path fill="none" stroke="#231815" stroke-width="0.8429" d="M73.5,90.2c0.1,0.9-0.1,1.8-0.8,2.4c0.5,0.9,1.5,0.7,2.4,0.2"/>
		<path fill="#F7B766" stroke="#231815" stroke-width="0.8429" d="M81.1,121.9c2.1,0.2,1.2,3.5-0.9,3.2c1.9,1.1,0.8,4.2-1.7,3.4
			c2.3,0.6-0.4,4.3-2.6,3.2c0.5,0.8-0.4,2.8-2.2,1.7c0.2,1.5-2.3,4.2-2.6,1.6c-0.8,1.9-3.6,2.4-3.3-0.2c-1.5,3.3-2.2,1-2.4-1.3
			c-1.7,2.2-4.2-1.6-1.9-1.6c-2.4-0.2-1.3-2.7,0.3-3c-2,0.2-2.3-2.5-0.3-2.3c-0.7-1-0.8-3,1.1-2.8c-0.9-0.9-1-2.8,1-2.4
			c-1.1-0.6-1.5-3,0.5-2.2c-2.1-1-0.7-3.5,1.6-2.6c-2-1.2-0.6-3.2,1.4-2.3c-1.1-0.5-1.2-1.8-0.7-2.9c0.4,0.1,0.8-0.1,1.3,0.1
			c-0.4-0.6-0.2-1-0.3-1.8c0.4,0.1,0.8-0.1,1.3,0.1c-1.4-0.6-0.2-3.6,1.6-2.7c0.7-2.2,3.7-3.2,3.9-0.1c-0.4-2.7,3.1-2.6,2.6,0.4
			c0.1-2.4,2.8-1.8,2.8,0.4c1.1-0.8,4.7-0.5,2.9,1.1c2-1.8,2.5,2.5,0.3,3c0.6-0.3,1.2-0.4,1.8-0.4c0.7,1.2,0.6,3.3-1.2,3.2
			c2.5,0,0,5.4-3.2,3.6C84.1,120.2,83.9,122.3,81.1,121.9z"/>
		<path fill="none" stroke="#231815" stroke-width="0.8429" stroke-linecap="round" stroke-linejoin="round" d="M81.7,112.5
			c1.3,0.3,1.6,1.6,0.6,2.4"/>
		<path fill="none" stroke="#231815" stroke-width="0.8429" stroke-linecap="round" stroke-linejoin="round" d="M66,130.4
			c-0.1,1.1,1,2.2,1.8,1.2"/>
		<path fill="none" stroke="#231815" stroke-width="0.8429" stroke-linecap="round" stroke-linejoin="round" d="M68.9,124.8
			c-1.2,0.4-0.8,1.6-0.2,2.4"/>
		<path fill="none" stroke="#231815" stroke-width="0.8429" stroke-linecap="round" stroke-linejoin="round" d="M75.1,112.3
			c0.3-1.2,1.4-1.1,2.2-0.4"/>
		<path fill="none" stroke="#231815" stroke-width="0.8429" stroke-linecap="round" stroke-linejoin="round" d="M79.3,116.9
			c0.5,1.1-0.1,1.9-1.4,1.6"/>
		<path fill="none" stroke="#231815" stroke-width="0.8429" stroke-linecap="round" stroke-linejoin="round" d="M71.3,118.5
			c-0.2-0.9,0.3-1.5,1.2-1.6"/>
		<path fill="none" stroke="#231815" stroke-width="0.8429" stroke-linecap="round" stroke-linejoin="round" d="M76.9,122.4
			c0.8,0.7,0.4,2.3-0.8,1.8"/>
		<path fill="none" stroke="#231815" stroke-width="0.8429" stroke-linecap="round" stroke-linejoin="round" d="M72.5,128.2
			c-0.3,1.4,1.9,1.7,2.2,0"/>
		<path fill="#FAD8C3" stroke="#231815" stroke-width="0.8429" d="M57.7,141c-1.4-2.6,0.8-6.4,3.9-6.7c3.4-0.3,7.1,2.5,6.6,6.1
			c-0.5,4.2-7.5,3.6-9.9,1.3C58,141.6,57.8,141.3,57.7,141z"/>
		<g>
			<path fill="#FFFFFF" stroke="#231815" stroke-width="0.8429" stroke-linecap="round" stroke-linejoin="round" d="M126.9,128.2
				c0.9-0.4-3.5-5.7-3.8-6.1c-0.5,0.8-1.7,1.5-2.4,2.1c1.4,1.8,2.4,3.8,3.9,5.5C125.3,129.1,126,128.5,126.9,128.2z"/>
		</g>
		<path fill="#FAD8C3" stroke="#231815" stroke-width="0.8429" d="M128.3,130.7c-0.4,0.1-0.8,0.1-1.2,0.1c-1.2-0.1-2.3-1.2-3.4-1.2
			c-1.2,0-2.4,0.7-3.4-0.4c-1.1-1.3-0.4-3-1.2-4.4c-0.2-0.3-1.7-2.7-2.1-2.2c2.6-2.6,3.6,0.4,4.7,1.4c0.1-2.1,1.6-6.6,2.7-6.5
			c1.6,0.2-0.3,4.9-0.6,6.8c0.5-2.1,1.4-6,3.6-7.2c1.7,0-0.7,5.7-1.3,7.8c0.6-1.9,1.1-4,2.7-5.7c2.6,0.3-0.5,4.9-0.8,6.5
			c0.8-1.5,0.9-3.7,2.9-3.9c0.7-0.1-1,4.5-1,4.8c-0.2,1,0.3,2.1-0.2,3.1C129.4,130.3,128.9,130.6,128.3,130.7z"/>
		<path fill="none" stroke="#231815" stroke-width="0.8429" stroke-linecap="round" stroke-linejoin="round" d="M55.8,135.6
			c2.2-0.9,3.5-1.4,6-1.4"/>
		
			<circle fill="#FFEE97" stroke="#231815" stroke-width="0.8429" stroke-linecap="round" stroke-linejoin="round" cx="100.7" cy="99.5" r="0.1"/>
		
			<circle fill="#FFEE97" stroke="#231815" stroke-width="0.8429" stroke-linecap="round" stroke-linejoin="round" cx="94.8" cy="101.3" r="0.1"/>
		
			<circle fill="#FFEE97" stroke="#231815" stroke-width="0.8429" stroke-linecap="round" stroke-linejoin="round" cx="94.4" cy="97" r="0.1"/>
		
			<circle fill="#FFEE97" stroke="#231815" stroke-width="0.8429" stroke-linecap="round" stroke-linejoin="round" cx="87.5" cy="98.4" r="0.1"/>
		
			<circle fill="#FFEE97" stroke="#231815" stroke-width="0.8429" stroke-linecap="round" stroke-linejoin="round" cx="98.7" cy="105.1" r="0.1"/>
		
			<circle fill="#FFEE97" stroke="#231815" stroke-width="0.8429" stroke-linecap="round" stroke-linejoin="round" cx="96.9" cy="109.1" r="0.1"/>
		
			<circle fill="#FFEE97" stroke="#231815" stroke-width="0.8429" stroke-linecap="round" stroke-linejoin="round" cx="101.8" cy="107" r="0.1"/>
		
			<circle fill="#FFEE97" stroke="#231815" stroke-width="0.8429" stroke-linecap="round" stroke-linejoin="round" cx="104.2" cy="103.2" r="0.1"/>
		
			<circle fill="#FFEE97" stroke="#231815" stroke-width="0.8429" stroke-linecap="round" stroke-linejoin="round" cx="108.9" cy="101.5" r="0.1"/>
		
			<circle fill="#FFEE97" stroke="#231815" stroke-width="0.8429" stroke-linecap="round" stroke-linejoin="round" cx="110.4" cy="95.6" r="0.1"/>
		
			<circle fill="#FFEE97" stroke="#231815" stroke-width="0.8429" stroke-linecap="round" stroke-linejoin="round" cx="105.9" cy="107.5" r="0.1"/>
		
			<circle fill="#FFEE97" stroke="#231815" stroke-width="0.8429" stroke-linecap="round" stroke-linejoin="round" cx="106.1" cy="97.6" r="0.1"/>
		
			<circle fill="#FFEE97" stroke="#231815" stroke-width="0.8429" stroke-linecap="round" stroke-linejoin="round" cx="109" cy="90.5" r="0.1"/>
		
			<circle fill="#FFEE97" stroke="#231815" stroke-width="0.8429" stroke-linecap="round" stroke-linejoin="round" cx="61.8" cy="119" r="0.1"/>
		
			<circle fill="#FFEE97" stroke="#231815" stroke-width="0.8429" stroke-linecap="round" stroke-linejoin="round" cx="59.7" cy="113.3" r="0.1"/>
		
			<circle fill="#FFEE97" stroke="#231815" stroke-width="0.8429" stroke-linecap="round" stroke-linejoin="round" cx="57.4" cy="121" r="0.1"/>
		
			<circle fill="#FFEE97" stroke="#231815" stroke-width="0.8429" stroke-linecap="round" stroke-linejoin="round" cx="60.7" cy="126.4" r="0.1"/>
		
			<circle fill="#FFEE97" stroke="#231815" stroke-width="0.8429" stroke-linecap="round" stroke-linejoin="round" cx="55.3" cy="114.9" r="0.1"/>
		
			<circle fill="#FFEE97" stroke="#231815" stroke-width="0.8429" stroke-linecap="round" stroke-linejoin="round" cx="57.2" cy="108.1" r="0.1"/>
		
			<circle fill="#FFEE97" stroke="#231815" stroke-width="0.8429" stroke-linecap="round" stroke-linejoin="round" cx="61" cy="102.2" r="0.1"/>
		
			<circle fill="#FFEE97" stroke="#231815" stroke-width="0.8429" stroke-linecap="round" stroke-linejoin="round" cx="61.4" cy="107.8" r="0.1"/>
		<path fill="#FFEE97" stroke="#231815" stroke-width="0.8429" stroke-linecap="round" stroke-linejoin="round" d="M43.1,114.3
			C43.1,114.4,43,114.4,43.1,114.3c-0.2,0.1-0.2,0.1-0.2,0"/>
		
			<circle fill="#FFEE97" stroke="#231815" stroke-width="0.8429" stroke-linecap="round" stroke-linejoin="round" cx="51.4" cy="118.2" r="0.1"/>
		
			<circle fill="#FFEE97" stroke="#231815" stroke-width="0.8429" stroke-linecap="round" stroke-linejoin="round" cx="53.1" cy="125.3" r="0.1"/>
		
			<circle fill="#FFEE97" stroke="#231815" stroke-width="0.8429" stroke-linecap="round" stroke-linejoin="round" cx="45.4" cy="120.6" r="0.1"/>
		
			<circle fill="#FFEE97" stroke="#231815" stroke-width="0.8429" stroke-linecap="round" stroke-linejoin="round" cx="68.3" cy="100.2" r="0.1"/>
		
			<circle fill="#FFEE97" stroke="#231815" stroke-width="0.8429" stroke-linecap="round" stroke-linejoin="round" cx="73.6" cy="99" r="0.1"/>
		
			<circle fill="#FFEE97" stroke="#231815" stroke-width="0.8429" stroke-linecap="round" stroke-linejoin="round" cx="79.5" cy="97.6" r="0.1"/>
		
			<circle fill="#FFEE97" stroke="#231815" stroke-width="0.8429" stroke-linecap="round" stroke-linejoin="round" cx="101.2" cy="112" r="0.1"/>
		
			<circle fill="#FFEE97" stroke="#231815" stroke-width="0.8429" stroke-linecap="round" stroke-linejoin="round" cx="95.5" cy="115" r="0.1"/>
		
			<circle fill="#FFEE97" stroke="#231815" stroke-width="0.8429" stroke-linecap="round" stroke-linejoin="round" cx="92.1" cy="119" r="0.1"/>
		
			<circle fill="#FFEE97" stroke="#231815" stroke-width="0.8429" stroke-linecap="round" stroke-linejoin="round" cx="86.7" cy="121.7" r="0.1"/>
		<path fill="#B69058" stroke="#231815" stroke-width="0.8429" stroke-linecap="round" stroke-linejoin="round" d="M36.8,148.9
			c10.6-0.9,83-2.3,86.6-1.1c1.8,0.6,5.4,35,4.8,48.4c-15.7,1.6-121.4,1.3-127.8,0.9C4,191.3,34.5,149.1,36.8,148.9z"/>
		<path fill="#A5834E" d="M85.5,172.9c-3.1,1.8-0.7,8.8,0.8,11.1c2,3.2,5.3,4.3,8.8,5.1c6.9,1.5,18.7,1.6,21.7-6.4
			c1.2-3.2,1.3-6.4-0.6-9.4c-1.9-2.9-3.4-3.9-6.8-4.2c-4-0.3-8.4-0.4-12.3,0"/>
		<path fill="#A5834E" d="M26.9,180.4c0.1-0.2,0.2-0.3,0.3-0.5c-1,0.5-2.2,1.6-2.5,2.8c-0.3,1.2,0.2,1.6,1.2,2.3
			c2,1.4,4.6,2.2,7,2.4c2.8,0.3,5.5,0,8.2-0.9c0.9-0.3,3.3-1.3,3.7-2.4c0.4-1-0.4-2.6-1.3-3"/>
		<path fill="#A5834E" d="M113.2,161.7c1.3-2.7-2.6-3-4.3-3.3c-1.7-0.3-3.4-0.2-5.1,0c-1.7,0.2-7.2,1.3-3.9,3.9c1.3,1,3,1.2,4.5,1.2
			c2.4,0,6,0.4,8.1-1C112.8,162.3,113,162,113.2,161.7z"/>
		<path fill="#A5834E" d="M50.4,164.1c-1.4,2.1,0.4,5.6,1.8,7.2c2.2,2.4,4,3.2,7.1,3.9c4.1,1,8.4,0.9,12.3-0.5
			c3.4-1.2,6.6-3.6,9.2-6c3.6-3.3,3.6-7.5,0.4-11.1c-0.7-0.8-1.5-1.6-2.4-2.2"/>
		<g>
			<path fill="#FFFFFF" stroke="#231815" stroke-width="0.8429" stroke-linecap="round" stroke-linejoin="round" d="M56.7,172.1
				c-1.6-0.6-3.1-1.5-4.4-2.8c-1.5-1.5-2.6-3.5-2.8-5.7c-0.4-6.7,7-10.6,12.5-11.7c4.7-0.9,8.4-0.6,12.9,1.1c5.7,2.2,9.2,9,4.8,14.2
				c-2.7,3.1-6.6,4.5-10.5,5.2C65.2,173.2,60.6,173.6,56.7,172.1z"/>
			<path fill="#FFFFFF" stroke="#231815" stroke-width="0.8429" stroke-linecap="round" stroke-linejoin="round" d="M57,168.2
				c-0.9-0.4-2.7,0.3-3.6,0.6c-0.5,0.2-1-0.6-1.1,0.4c0,0.6,0.6,0.9,1.2,0.9c-0.1,0.4-0.2,1.4,0.4,1.6c0.8,0.3,0.9-0.5,1.3-0.9
				c0.3-0.2,0.2-0.6,0.4-0.8c0.2-0.1,0.7,0,0.9-0.1c0.5-0.2,1.1-0.6,1.6-0.6"/>
			<g>
				<path fill="#F7B766" stroke="#231815" stroke-width="0.8429" d="M58.8,166.9c-1.7-1.3,1.1-4.9,2.6-3.5c-0.5-0.5,1.6-4.6,3.5-2.3
					c-0.6-0.7,2.6-4.8,2.8-1.4c0.9-0.3,3.1-3.2,2.9-0.1c0.2-1,1.1-1.6,2.1-1.4c1.2,0.3,1,0.9,1.1,2.1c1.9-1.6,3.2,0.6,2.1,2.3
					c0.4-0.6,0.9,0.7,0.9,0.9c0.1,0.8-1,1.2-1.7,1.1c1,0.4,0.9,1.5,0.2,2.1c-0.8,0.8-1.7,0.3-2.6-0.1c2,1-1.2,4.1-1.7,1
					c-0.5,2.5-2.6,3.2-3.2,0.4c0.1,0.6-0.1,1.4-0.7,1.7c-0.3-0.4-0.7-0.7-0.9-1.1c1,2.2-2,0.8-2.6,0.8c-0.1,0.7-0.6,1.6-1.4,1.6
					c-0.9,0-0.5-0.9-1.4-1c-0.6-0.1-1.5,1.5-2.4,0.9c-0.6-0.4-0.6-1-0.1-1.4c-1.2,0.8-1.8-0.4-1.5-1.4c0.2-0.7,1.6-1.6,1.6-0.7"/>
				<path fill="none" stroke="#231815" stroke-width="0.8429" stroke-linecap="round" stroke-linejoin="round" d="M70.7,161.3
					c0.6,0,0.9,0.4,0.9,1.1"/>
				<path fill="none" stroke="#231815" stroke-width="0.8429" stroke-linecap="round" stroke-linejoin="round" d="M71.8,165.1
					c0.1,0.6-0.1,1-0.6,1.1"/>
				<path fill="none" stroke="#231815" stroke-width="0.8429" stroke-linecap="round" stroke-linejoin="round" d="M67,162.5
					c0.3-0.2,0.7-0.4,1-0.4c0.1,0.2,0.1,0.4,0.2,0.6"/>
				<path fill="none" stroke="#231815" stroke-width="0.8429" stroke-linecap="round" stroke-linejoin="round" d="M66,165.7
					c0.4,0.5,0.9,0.9,1.5,0.6"/>
				<path fill="none" stroke="#231815" stroke-width="0.8429" stroke-linecap="round" stroke-linejoin="round" d="M62.1,166.1
					c0-0.4,0.2-0.8,0.6-0.9"/>
			</g>
		</g>
		<path fill="#FFFFFF" stroke="#231815" stroke-width="0.8429" stroke-linecap="round" stroke-linejoin="round" d="M87,182.2
			c6.9,6.7,24.8,8.2,29.5-2.6c2.2-5-2.1-10.7-6-12.7c-6.6-3.2-16.2-2-22.3,2.4C84.1,172.3,83.1,178.5,87,182.2
			C86.9,182.2,87,182.2,87,182.2z"/>
		<path fill="#F7B766" stroke="#231815" stroke-width="0.8429" d="M54.9,162c0.1,0,0.2,0,0.3,0c-0.3,0.5-0.6,1-0.7,1.6
			c-0.1,0.3,1.6,0.7,1.1,1.6c-0.3,0.6-1,0.4-1.5,0.1C52.6,164.4,53.4,162.2,54.9,162z"/>
		<path fill="#F7B766" stroke="#231815" stroke-width="0.8429" d="M60.5,160.2c-2.5,0.5-1.6-3.3-0.3-2.2
			C60.6,158.5,60.4,159.7,60.5,160.2z"/>
		<path fill="#DEDEDE" d="M90.6,176.3c-0.7,2.6,0.1,5.1,2.7,6.1c1,0.4,2.2,0.1,3.3,0.5c1.2,0.4,1.9,1,3.3,1.2
			c1.3,0.2,2.1-0.4,3.3-0.5c1.2-0.1,2.1,0.7,3.5,0.5c1.9-0.4,5.3-3.1,6-5c1-2.4,0.1-4.3-2.4-5.1c-3.8-1.2-9.8-2.5-13.6-0.6"/>
		<path fill="#9A4C45" stroke="#231815" stroke-width="0.8429" stroke-linecap="round" stroke-linejoin="round" d="M90.5,172.3
			c-1.1,1.3-0.4,4.1,0.3,5.6c1,2.2,1.3,2.3,3.4,1.9c1.8-0.3,3.7-0.9,5.6-1.2c1.9-0.3,3.2,0.4,4.9,0.8c2.9,0.6,7.2,0.8,8.4-2.6
			c0.4-1.2,0.5-4.1-0.1-5.2c-1.3-2.9-4.7-1.3-6.6-3"/>
		<path fill="#AE5750" stroke="#231815" stroke-width="0.8429" stroke-linecap="round" stroke-linejoin="round" d="M97.8,174.3
			c-1.8,0.6-5.4,2.4-7.2,1.2c-2-1.3-0.3-4.5,1-5.8c1.9-1.8,5-2.9,7.6-3.1c3.5-0.2,7.7-2.8,10.5,0.2c1.5,1.6,3.9,4.7,3.4,7
			c-0.4,2.3-2.4,4.7-4.8,4.2C103.8,177.1,103,172.7,97.8,174.3z"/>
		<path fill="#00AC69" stroke="#231815" stroke-width="0.8429" stroke-linecap="round" stroke-linejoin="round" d="M98.6,182.8
			c-0.7-0.1-1.4-0.8-2.2-0.9c-0.6-0.1-1.3,0.1-1.9-0.3c-1.2-0.7-1.4-2.3-0.3-3.2c0.5-0.4,1.9-0.2,2.5,0c0,0.3,0.1,0.6,0,0.8
			c0-0.7,0.3-1.6,1-1.9c0.3,0.4,0.6,0.8,0.7,1.3c1.1-1.8,2.8-0.3,1.8,1.2c0.3-0.6,0.4-0.4,0.8-0.7c0.1,0.5,0,1-0.2,1.5
			c1.5,0.6-0.6,2.9-1.1,1.2C100.5,182.6,99.3,182.9,98.6,182.8z"/>
		<path fill="#00AC69" stroke="#231815" stroke-width="0.8429" stroke-linecap="round" stroke-linejoin="round" d="M104.6,179.3
			c-0.1,0.1-0.2,0.2-0.4,0.3c1.2-2.5,4.7-1.6,2.6,0.6c1-0.8,2.5-0.7,1.9,0.8c-0.4,1.1-3.5,2.2-3,0.3c1.3,0,1,1.7-0.3,1.8
			c-1.2,0.1-2.3-1.3-2.4-2.4c0.5,0.4,0.4,0.6-0.3,0.8c-1,0.3-1.2-0.3-2-0.6c-0.9-0.4-0.8,0.7-1.4-0.6c-0.4-0.8,0.1-2.2,0.8-2.7
			c0.6-0.5,2.8-1.1,3.6-0.9C105.1,177.2,105.4,178.4,104.6,179.3z"/>
		<path fill="#F7B766" stroke="#231815" stroke-width="0.8429" d="M91,152.9c0.5,0.9-0.9,1.7-1.5,0.9
			C88.7,152.9,90.4,151.7,91,152.9z"/>
		<path fill="#F7B766" stroke="#231815" stroke-width="0.8429" d="M80.7,153.3c0.5,0.9-0.9,1.7-1.5,0.9
			C78.4,153.3,80.1,152.1,80.7,153.3z"/>
		<path fill="#F7B766" stroke="#231815" stroke-width="0.8429" d="M89.7,160.1c-1-0.3-1.6-1.7-1.4-2.6c0.5,0.5,1.8,0.9,2.1,1.3
			C90.8,159.4,90.7,160.4,89.7,160.1z"/>
		<path opacity="0.43" fill="#FFFFFF" d="M112.2,160.1c-1.3,1.3-5.1,1-6.8,1c-2.5,0-4.3,0.6-5.6-1.7c-1.8-3.3-2.2-8-2.7-11.7
			c-0.3-2.4-1.5-3.8,1.1-4.7c2.2-0.8,4.7-0.7,7-1.2c2.4-0.5,4.5-0.9,7-0.8c0.7,3.6,1.6,7.2,1.4,11
			C113.5,153.9,113.5,158.7,112.2,160.1z"/>
		<path opacity="0.58" fill="#FFEC8D" d="M97.4,149.3c2.7,0,5.4,0.2,8.2,0.1c2.6,0,5-0.5,7.6-0.8c0.5,1.3,0.4,3.5,0.3,4.9
			c-0.1,1.7-0.4,3.4-0.9,5c-0.6,2.1-1.1,2.3-3.2,2.4c-1.6,0.1-3.2-0.1-4.8,0c-3,0.3-4.4-0.1-5.8-3.1c-1.2-2.5-0.7-5.9-1.5-8.4"/>
		<path fill="#FFFFFF" d="M99.8,150.6c0.4,1.2-1.2-0.2-1.3-0.3c-0.4,1.6-1.2-0.7-1.3-1.2c-0.1-0.9-0.2-2.1,0.4-2.8
			c0.1,0,0.4,0.2,0.4,0.4c-0.1-1.3,0.9-1.4,1.8-1c0.4-1.5,1.3-0.1,1.5,0.6c0-0.1,0.3-0.7,0.4-0.7c0.6-0.1,0.8,0.3,1.2,0.2
			c1-0.1,1-0.9,2.2,0.1c0.6-0.8,1.5-1.3,2-0.3c0.6-0.9,1.4-1.1,1.8,0c0.3-0.8,1.5-1.2,1.5,0c0.8-0.8,1,0.3,1.1,0.9
			c0.1-0.3,0.3-0.4,0.4-0.6c0.7,0.6,1.8,4.2,0.2,4.1c0,1.3-1.3,0.9-1.6,0c-0.4,1-1.4,1.4-1.9,0.2c-1,0.8-0.8,1.7-2.1,0.6
			c-0.2,0.2-0.4,0.8-0.6,1c-0.9,0.5-0.5-0.5-1.1-0.6c-0.8-0.2-1,1.4-1.8,0c-0.2,0.2-0.5,0.8-0.8,0.8c-0.5,0.1-0.3-0.3-0.6-0.5
			c-1.1-0.8-0.4-0.4-1.4,0.3C100,151.3,99.9,150.8,99.8,150.6z"/>
		<path fill="none" stroke="#231815" stroke-width="0.8429" stroke-linecap="round" stroke-linejoin="round" d="M112,160.1
			c-1.3,1.3-5.1,1-6.8,1c-2.5,0-4.3,0.6-5.6-1.7c-1.8-3.3-2.2-8-2.7-11.7c-0.3-2.4-1.5-3.8,1.1-4.7c2.2-0.8,4.3-1,6.6-1.4
			c2.4-0.4,5.8-0.8,7.3-0.6c0.7,3.6,1.6,7.2,1.4,11C113.3,153.9,113.3,158.7,112,160.1z"/>
		<path fill="none" stroke="#231815" stroke-width="0.8429" stroke-linecap="round" stroke-linejoin="round" d="M97,143.9
			c-0.9,1.7,3.8,1.1,4.5,1c1.6-0.1,3.1-0.5,4.7-0.7c1.5-0.2,5.3-0.9,5.4-2.9"/>
		<path fill="#A5834E" d="M55.3,185.3c-0.8,1.7-1.1,3.1-0.3,4.9c0.7,1.5,2.2,1.4,3.7,1.7c1.8,0.3,2.2-0.1,3.2-1.6
			c0.5-0.8,1.1-1.5,2.2-1c0.8,0.4,1,1.2,1.9,1.6c1.2,0.4,2.2,0,3.2-0.7c0.9-0.6,1.8-1.6,2.1-2.6c0.3-0.9,0.3-3.2-0.1-4.2
			c-0.7-1.9-5.6-1.8-7.2-1.5c-1.4,0.3-6.7,4.6-8.1,3.1"/>
		<g>
			<path fill="#DDC38B" stroke="#231815" stroke-width="0.8429" stroke-linecap="round" stroke-linejoin="round" d="M59.8,186.9
				c0.8,1,2.9,0.7,4.3,0.1c2.2-1.1,4.2-3.5,4.8-5.7c0.4-1.4,0.3-3.7-2.2-3.4c-2,0.2-2.1,2.4-3,3.6c-1.2,1.4-4.1,1.9-4.3,4
				C59.3,186.1,59.5,186.6,59.8,186.9z"/>
			<path fill="none" stroke="#231815" stroke-width="0.8429" stroke-linecap="round" stroke-linejoin="round" d="M62.7,184.9
				c-0.2,0-0.4,0.1-0.5,0.3"/>
			<path fill="none" stroke="#231815" stroke-width="0.8429" stroke-linecap="round" stroke-linejoin="round" d="M65.5,183.2
				c-0.1,0.3-0.3,0.5-0.5,0.6"/>
			<path fill="none" stroke="#231815" stroke-width="0.8429" stroke-linecap="round" stroke-linejoin="round" d="M64.6,185.5
				c0,0.1-0.2,0.2-0.3,0.3"/>
			<path fill="none" stroke="#231815" stroke-width="0.8429" stroke-linecap="round" stroke-linejoin="round" d="M67.4,180.4
				c0.1,0.3,0,0.6-0.2,0.9"/>
			<path fill="none" stroke="#231815" stroke-width="0.8429" stroke-linecap="round" stroke-linejoin="round" d="M66.2,180.4
				c-0.1,0.2-0.2,0.5-0.2,0.8"/>
			<path fill="#DDC38B" stroke="#231815" stroke-width="0.8429" stroke-linecap="round" stroke-linejoin="round" d="M70.8,185.8
				c0-0.2,0-0.3,0.1-0.5c0.3-1,1.1-1.9,0.6-3c-0.5-1-1.8-1-2.7-0.4c-1.2,0.9-1.2,2.2-1.9,3.3c-0.7,1.1-1.5,1.5-1.1,2.9
				c0.5,1.5,1.5,1.7,3,1.2c0.7-0.3,1.7-0.9,2-1.5C71,187.3,70.8,186.5,70.8,185.8z"/>
			<path fill="none" stroke="#231815" stroke-width="0.8429" stroke-linecap="round" stroke-linejoin="round" d="M69,185.9
				c0.1,0.5,0,1-0.2,1.1"/>
			<path fill="none" stroke="#231815" stroke-width="0.8429" stroke-linecap="round" stroke-linejoin="round" d="M67.6,187.1
				c0,0.3,0,0.5-0.2,0.8"/>
			<path fill="none" stroke="#231815" stroke-width="0.8429" stroke-linecap="round" stroke-linejoin="round" d="M69.8,187.3
				c-0.1,0.3-0.5,0.9-0.5,0.9"/>
			<path fill="#DDC38B" stroke="#231815" stroke-width="0.8429" stroke-linecap="round" stroke-linejoin="round" d="M58.3,190
				c-3.2,0.1-3.7-2.7-3.2-4.8c0.2-1.2,0.8-2.5,1.5-3.5c0.8-1,2-1.7,3.3-0.7c1.5,1.2-0.3,2.5-0.3,4C59.6,186.7,61.6,189.9,58.3,190z"
				/>
			<path fill="none" stroke="#231815" stroke-width="0.8429" stroke-linecap="round" stroke-linejoin="round" d="M56.2,186.6
				c0,0.2,0,0.5,0.1,0.7"/>
			<path fill="none" stroke="#231815" stroke-width="0.8429" stroke-linecap="round" stroke-linejoin="round" d="M58.1,186.6
				c0,0.2,0.1,0.3,0.3,0.5"/>
			<path fill="none" stroke="#231815" stroke-width="0.8429" stroke-linecap="round" stroke-linejoin="round" d="M57.7,188.2
				c0.1,0.2,0.3,0.4,0.5,0.5"/>
			<path fill="none" stroke="#231815" stroke-width="0.8429" stroke-linecap="round" stroke-linejoin="round" d="M57.2,184.4
				c0,0.2,0,0.3,0,0.5"/>
		</g>
		<path fill="none" d="M93.3,171c-0.3,0.4-0.4,0.9-0.5,1.4"/>
		<path fill="none" stroke="#231815" stroke-width="0.8429" stroke-linecap="round" stroke-linejoin="round" d="M92.5,171.7
			c-0.3,0.2-0.4,0.6-0.3,1"/>
		<path fill="none" stroke="#231815" stroke-width="0.8429" stroke-linecap="round" stroke-linejoin="round" d="M93.9,173.1
			c0,0.3,0,0.7,0.1,0.9"/>
		<path fill="none" stroke="#231815" stroke-width="0.8429" stroke-linecap="round" stroke-linejoin="round" d="M95.8,169.2
			c-0.2,0.2-0.4,0.4-0.5,0.7"/>
		<path fill="none" stroke="#231815" stroke-width="0.8429" stroke-linecap="round" stroke-linejoin="round" d="M96.7,171.3
			c-0.2,0.1-0.4,0.4-0.4,0.7"/>
		<path fill="none" stroke="#231815" stroke-width="0.8429" stroke-linecap="round" stroke-linejoin="round" d="M98.5,168.9
			c0.3-0.1,0.5-0.3,0.8-0.4"/>
		<path fill="none" stroke="#231815" stroke-width="0.8429" stroke-linecap="round" stroke-linejoin="round" d="M102.8,167.8
			c0.2,0,0.5,0,0.7,0"/>
		<path fill="#A5834E" d="M74.9,180.7c-0.4,1-0.5,2.3-1,3.3c-0.4,0.8-0.9,1.5-1,2.4c-0.2,2.4,1.4,5.1,4.1,4.7c3.5-0.5,3-4.5,2.4-7
			c-0.2-1-0.3-1.6-0.9-2.3c-0.4-0.5-1.2-1.9-2-1.2"/>
		<g>
			<path fill="#DDC38B" stroke="#231815" stroke-width="0.8429" stroke-linecap="round" stroke-linejoin="round" d="M77.5,189.6
				c-1.6,0.4-2.8-1.2-3.1-2.6c-0.1-0.7,0.1-1.1,0.3-1.7c0.2-0.9,0.3-1.8,0.3-2.7c0-0.8-0.1-2.4,0.7-2.8c2.2-1.1,2.6,2.3,3,3.5
				C79.5,185.4,80.7,188.8,77.5,189.6z"/>
			<path fill="none" stroke="#231815" stroke-width="0.8429" stroke-linecap="round" stroke-linejoin="round" d="M76.3,185
				c-0.1,0.2-0.1,0.4-0.1,0.7"/>
			<path fill="none" stroke="#231815" stroke-width="0.8429" stroke-linecap="round" stroke-linejoin="round" d="M76.1,187.4
				c-0.1,0.2,0,0.5,0.2,0.6"/>
			<path fill="none" stroke="#231815" stroke-width="0.8429" stroke-linecap="round" stroke-linejoin="round" d="M77.6,186.8
				c0,0.3,0.1,0.5,0.3,0.7"/>
		</g>
		<g>
			<g>
				<g>
					<path fill="#67381D" stroke="#231815" stroke-width="0.8429" stroke-linecap="round" stroke-linejoin="round" d="M31.7,177.6
						c0.1-4.2-0.9-8.5-1.3-12.6c-0.4-4.6,0.4-9.1,0.3-13.7c4,1,7-2.1,10.3-3.5c-0.3-1.4-0.8-2.8-1.5-4.2c-1.4-2.7-3.2-5.7-3.8-8.7
						c-0.2-0.9-0.2-10.8,0.2-10.9c-0.7,0.1-5.5,0.6-5.5-0.4c0.1,4.1,0.6,8.7-0.4,12.8c-0.3,1.4-0.9,2.6-1.6,3.9
						c-1.1,2.2-2.3,4.4-2.3,7c0,4.1,0,8.2,0,12.4c0,5.8,0.6,11.5,0.8,17.2c0.2,4.5-0.3,6.5,4.3,7.8c2.1,0.6,7.3,0.7,9.4-0.2
						c2.7-1.2,2.1-4.1,2-6.7C38.7,179,31.6,180,31.7,177.6z"/>
					<path fill="#CE0058" stroke="#231815" stroke-width="0.8429" stroke-linecap="round" stroke-linejoin="round" d="M42.8,176.8
						c0.4-7.9,0.8-16.3-0.8-24.1c-0.3-1.7-0.6-3.3-1-4.9c-3.2,1.4-6.3,4.5-10.3,3.5c0.1,4.5-0.7,9.1-0.3,13.7
						c0.4,4.1,1.4,8.5,1.3,12.6c-0.1,2.4,7,1.4,11.1,0C42.8,177.3,42.8,177,42.8,176.8z"/>
				</g>
				
					<ellipse transform="matrix(0.9993 -3.624624e-002 3.624624e-002 0.9993 -4.4458 1.2857)" fill="#67381D" stroke="#231815" stroke-width="0.8429" stroke-linecap="round" stroke-linejoin="round" cx="33.2" cy="123.3" rx="2.8" ry="1.7"/>
				<path fill="#FFFFFF" stroke="#231815" stroke-width="0.8429" stroke-linecap="round" stroke-linejoin="round" d="M37.5,160.9
					c-0.4-0.4-1.4-0.1-2-0.8c-0.4-0.5-0.6-1.2-0.8-1.8c-0.3-1.1-0.4-2.7,1.2-2.5c0-0.6,0.2-1,0.8-1.2c0.1,0.1,0.1,0.2,0.2,0.3
					c0.3-0.2,0.8-0.2,1.1-0.4c-0.2,0.6-0.7,1.3-0.9,1.9c0.1,0,0.3,0,0.4,0.1C36.1,157.5,35.9,159.5,37.5,160.9z"/>
				<path fill="#FFFFFF" stroke="#231815" stroke-width="0.8429" stroke-linecap="round" stroke-linejoin="round" d="M40.7,159.6
					c-1.7,1.8-4.1-2.1-1.5-2.5C40.6,156.9,41.7,158.6,40.7,159.6z"/>
				<path fill="#FFFFFF" stroke="#231815" stroke-width="0.8429" stroke-linecap="round" stroke-linejoin="round" d="M41.7,159.7
					c0.6-1.4,0.3-4.3-1-5.4c-0.1-0.1-1.7-0.7-1.6-0.4c0.3,1.1,1.4,2,2.1,3C41.7,157.9,41.6,158.7,41.7,159.7z"/>
				<path fill="none" stroke="#231815" stroke-width="0.8429" stroke-linecap="round" stroke-linejoin="round" d="M34.6,165
					c0.6-0.1,1.1,0.4,1.7,0.8"/>
				<path fill="none" stroke="#231815" stroke-width="0.8429" stroke-linecap="round" stroke-linejoin="round" d="M34.8,168
					c0.4,0.3,1,0.5,1.5,0.6"/>
				<path fill="none" stroke="#231815" stroke-width="0.8429" stroke-linecap="round" stroke-linejoin="round" d="M35.7,173.4
					c0.1-0.8,0.2-1.5,0.3-2.3"/>
				<path fill="none" stroke="#231815" stroke-width="0.8429" stroke-linecap="round" stroke-linejoin="round" d="M37.5,164.4
					c1.7,0.6,3.4-1,5.1-1.1"/>
				<path fill="none" stroke="#231815" stroke-width="0.8429" stroke-linecap="round" stroke-linejoin="round" d="M42.8,166.2
					c-0.9,0.2-4.1,0.2-4.6,0.9c-0.6,0.7,0,4.3,0.3,5.1c1.6,0.3,3-0.8,4.5-0.9"/>
				<path fill="none" stroke="#231815" stroke-width="0.8429" stroke-linecap="round" stroke-linejoin="round" d="M39,164.4
					c0.4,1.9,0.6,3.7,0.6,5.7"/>
				<path fill="none" stroke="#231815" stroke-width="0.8429" stroke-linecap="round" stroke-linejoin="round" d="M40.8,164.1
					c0,1,0.6,5.9,2,5.3"/>
				<path fill="none" stroke="#231815" stroke-width="0.8429" stroke-linecap="round" stroke-linejoin="round" d="M40.7,170.7
					c0.3,0,0.7-0.1,0.9-0.3"/>
				<path fill="none" stroke="#231815" stroke-width="0.8429" stroke-linecap="round" stroke-linejoin="round" d="M32,123
					c0.5-0.5,1.9-0.5,2.6-0.3C34.4,123.4,32.5,123.4,32,123c0-0.1,0.1-0.1,0.2-0.2"/>
			</g>
			<path fill="#FFF8DE" stroke="#231815" stroke-width="0.8429" stroke-linecap="round" stroke-linejoin="round" d="M25.2,137.9
				c0.3,1.4,1.8,1.7,2.6,0.2c1.1,1.7,3.1,0.1,1.9-1.5c1.5,0.3,1.5-2.9,0.2-2.2c0.5-0.2,1.3-1.1,1.3-1.7c0-0.3-0.9-1.5-1.2-1.2
				c0.6-0.6,0.5-3.2-0.1-2.7c1-0.9,2-2.5,0-2.8c1.3-0.4,1.1-2.2,0.9-3.2c0.3,0.3,2,1.6,1.7,0.3c0.3,0.5,0.8,0.5,1.4,0.3
				c0.4-0.1,1.2-0.8,0.3-1c1.2,0.3,0.8-1.8-0.2-1.3c1.5-0.9-0.6-1.9-1-1.2c0.2-0.3,0.6-1,0.1-1.3c-0.5-0.3-1.1,0.4-1.3,0.7
				c-0.6-1.2-2.7-0.2-2.2,0.5c-0.9-1.3-2.1,0.2-1.6,1.4c-1-1.3-2.8,1.7-1.1,2.2c-1.5,0.3-0.5,3,0,2.6c-0.7,0.6-0.7,2.1,0.4,2.1
				c-0.4,0.3-1.5,1.6-0.4,1.9c-0.9-0.1-2.2,0.9-1.2,1.7c-1-0.1-2.4,1.2-1.2,1.9c-1.8-0.4-1.9,2.7-0.6,2.5c-1.3,0,0,2.8,1.4,1.2
				C25.2,137.6,25.2,137.8,25.2,137.9z"/>
			<path fill="none" stroke="#231815" stroke-width="0.8429" stroke-linecap="round" stroke-linejoin="round" d="M26.5,134.3
				c-0.2,0.3-0.2,0.8,0.3,0.7"/>
			<path fill="none" stroke="#231815" stroke-width="0.8429" stroke-linecap="round" stroke-linejoin="round" d="M28.7,131.7
				c0.1,0,0.3,0,0.4,0c0.1,0.4-0.1,0.7-0.4,0.8"/>
		</g>
		<path fill="none" stroke="#231815" stroke-width="0.8429" d="M86.5,74.2c-0.2,1-0.7,2.3-1.6,2.8"/>
		<path fill="none" stroke="#231815" stroke-width="0.8429" d="M54.1,83.4c0.7,1,1.3,2.3,2.6,2.6"/>
		<path fill="none" stroke="#231815" stroke-width="0.8429" d="M137.8,100.9c3.7,5.3,4.2,11.3,3,17.5"/>
		<path fill="none" stroke="#231815" stroke-width="0.8429" d="M143.9,104.5c2.4,3.3,2.7,6.9,2.4,10.8"/>
		<path fill="#FFFFFF" stroke="#231815" stroke-width="0.8429" stroke-linecap="round" stroke-linejoin="round" d="M167.2,202.2
			c1.7,4.9,0,10.5,1.4,15.5c0.5,1.9,3.8,9.3-2.6,8c-6.9-1.3-4-21.1-4-24.6"/>
		<path fill="#FFFFFF" stroke="#231815" stroke-width="0.8429" stroke-linecap="round" stroke-linejoin="round" d="M160.6,178.8
			c-1.1,6.7-2.5,13.4-3.3,20.1c-0.9,8,3.4,16.1,2.3,24c-0.2,1.7-3,3.6-1,5.2c2.5,1.9,6-1.2,6.8-2.7c1-2,0.1-4.6-0.3-6.7
			c-0.2-1.2-3.2-10.7-0.8-11.1c2.2-0.3,6-1.1,6.7-3.6c0.7-2.4-1.9-3.9-2.3-6.1c-1.1-5.9,4.2-12.5,5.1-18.1"/>
		<path fill="#FFFFFF" stroke="#231815" stroke-width="0.8429" stroke-linecap="round" stroke-linejoin="round" d="M172.4,161.8
			c3.6-3.5,8.7-6,14-6.9c2.1-0.4,7.1-1.1,6.4,2.9c-0.5,2.7-4.2,2.2-6.2,2.9c-2.2,0.7-4.4,1.9-6.5,3c-0.9,0.5-2.9,1.9-3.6,2"/>
		<path fill="#FFFFFF" stroke="#231815" stroke-width="0.8429" d="M178.5,180c1.6-4.2,3.4-9.9,0.4-13.9c-2.9-3.9-10.3-7.5-15.2-6.3
			c-5.2,1.3-9.7,5.9-11.9,10.6c-3.5,7.6,2.5,13.5,9.2,16.1C167.6,189,175.8,187,178.5,180z"/>
		<path fill="#FFFFFF" stroke="#231815" stroke-width="0.8429" stroke-linecap="round" stroke-linejoin="round" d="M175.5,163.4
			c4.4-1.8,8.3-4.7,12.8-6c2.6-0.8,6.2-1.3,8.6,0c1.3,0.7,2.3,1.8,2.2,3.3c-0.2,2.6-2.1,2.1-3.9,1.8c-5-0.7-12.4,1.6-16.6,4.5"/>
		<path fill="#DD5D1B" stroke="#231815" stroke-width="0.8429" d="M155.4,180.3c0.2-2.3,1.3-4.8,2.6-6.8c0.8-1.1,2.5-2,2.8-3.4
			c0.2-1-3.5-3.5-4.3-3.5c-2.1,0.2-3.6,5.4-4,7c-0.3,1.3-0.5,2.8,0.1,4.1C152.8,178.2,155.4,180.5,155.4,180.3z"/>
		<path fill="none" stroke="#231815" stroke-width="0.8429" d="M167.4,163.4c-0.5,1.8-3.3,0.6-2-0.9
			C166.2,161.7,167.8,162.2,167.4,163.4z"/>
		<path fill="#F1A6BF" d="M165.4,167.7c-0.9,0.6-2.6-0.6-2.3-1.8C163.5,164,166.8,166.8,165.4,167.7z"/>
		<path fill="#FFFFFF" stroke="#231815" stroke-width="0.8429" stroke-linecap="round" stroke-linejoin="round" d="M161.8,188.9
			c-0.9,3.9-1.9,9.9-1.9,14.9c0,1.3-0.3,6.4,2.1,6.7c4.8,0.7,2.2-8.1,2.4-9.4c0.4-2.9,3-7.2,2.6-10.2"/>
		<path fill="#FFFFFF" stroke="#231815" stroke-width="0.8429" stroke-linecap="round" stroke-linejoin="round" d="M171.4,202.5
			c0.4-1.2,1.3-1.8,2.5-1.6c-0.1,0.5-0.1,1.6-0.2,1.7c1.7-1.7,2.7,0.3,1,1.3c0.7,1.2,0.3,2-1,2c-0.1,0.6-0.4,0.7-0.8,1.2
			c-0.8-0.7-1.4-1.1-1.3-2.2c0,0-0.9,0.4-1,0.5c-0.6-1.3-0.3-2.4,1-2.6"/>
		<path fill="#54411E" stroke="#231815" stroke-width="0.8429" d="M110.4,61.6c-0.5-3.6-1.5-7.2-3.3-10.7c-0.8-1.6-1.9-3.1-3.4-4.2
			c-0.5-0.4-4.8-2.2-4.8-2.3c0.2,0.7,0.1,1.4,0.3,2.1c-1.9-3.8-5.6-7.3-9.9-8.5c0.6,0.2,1.2,0.4,1.7,0.7c-6-2.7-12.2-0.2-18.5-0.3
			c0.8,0.1,1.6,0.2,2.3,0.5c-1.1,0.6-2.8,0.5-4,0.4c0.3,0.2,0.5,0.6,0.7,0.7c0,0.2,0,0.3-0.1,0.4c-1.8,0.4-3.6,0.1-5.4,0.4
			c1,0.5,2.3,0.3,3.3,0.4c-5.6,0.7-11.2,1.8-16.8,2.5c1.5,0.3,3-0.2,4.4-0.4c-2.9,0.7-6.4,0.9-9,2.4c0.4,0,1,0,1.5-0.1
			c-2.7,2-6.5,2.4-9.1,4.6c1-0.4,2-1,3-1.2c-2.7,1-4.9,2.9-7.5,4.3c0.6-0.4,1.3-0.7,1.9-1.1c-2.2,1.5-4.7,3-6.6,4.8
			c0.8,0.3,1.8,0.3,2.6,0.1c-1.4,1.3-4.9,3-5.3,5.1c0.5-0.6,1.2-1,1.9-1.2c-1.8,3.2-3.8,5.8-4.9,9.5c1.2-1.2,1.2-2.9,3.1-3.6
			c-1.9,2.7-3.4,6-3.3,9.4c0-1.7,2.1-4.2,3.3-5c-2.2,1.8-2.3,8.3-2.2,11c0.1,3.1,1,6.5,2.3,9.3c0.8,1.6,2.4,4.3,3.6,5.5
			c-1.7-4.2-0.8-11.6,1.3-15.5c0.1,1.6,0.5,3.6,0.1,5.1c1-1.9,2.9-3.3,3.7-5.3c0.1,0.8,0,1.7-0.2,2.4c2.2-2.2,4.4-4.7,6.6-7
			c-0.1,1.4-1.2,2.7-2.3,3.4c3.2-1.8,5.9-4.1,8.5-6.8c0.3,1.4-0.6,2.7-1.4,3.7c5.3-0.6,7.8-7.1,11.3-10.2c0.2,1.4-0.5,2.9-1.8,3.6
			c2.8,0.2,5-3.3,7.6-4.2c0,0.4,0,1.8-0.5,2c1.9-0.7,3.1-2.4,4.8-3.4c-0.3,0.7-0.7,1.4-1.2,1.9c0.4-0.4,2.8-0.9,3.5-1.3
			c2.3-1.5,4.5-4,5.5-6.6c0.5,1.3,0,2.9-0.3,4.2c2.6-1.7,2.6-5.4,3.4-8c0.7,1.5,1.7,3.6,1.4,5.3c1.9-1.1,4.6-4.7,4.3-7
			c0.4,2.5,1.4,5.1,2.1,7.4c0.9-1.7,0.9-3.8,1.1-5.7c0.9,3,2.6,6.8,4.9,8.8c-0.2-1.3-0.4-2.7-0.7-4.1c0.8,3.8,7.9,11.3,11,13.4
			c-0.8-2-1.1-4.2-1.2-6.5c0.3,5,7.1,7.1,7.4,12.4C111,72.9,111.2,67.2,110.4,61.6z"/>
		<path fill="#FFFFFF" stroke="#231815" stroke-width="0.8429" stroke-linecap="round" stroke-linejoin="round" d="M89.2,44.2
			c0.6,1.1,0.7,2.6,0.6,3.9c1.9,0,3-3.1,2.6-4.5"/>
		<path fill="#C5C5C6" stroke="#231815" stroke-width="0.8429" stroke-linecap="round" stroke-linejoin="round" d="M48.6,38.9
			c4.9,0.2,11.5,2.2,16.2,3.6c6.8,2,12.5,3.1,19.5,2.8c3-0.1,7.9-1.1,10.6-2.2c2.6-1,5-2.5,7.8-1.2c2.7,1.2,4.2,5.4,5.2,7.8
			c0.2,0.5,0.1,0.9,0.5,1.2c2,1.7,5.3,1.3,7.4,0.1c1.5-0.8,2.5-2,3.3-3.5c2.4-5-0.3-9-1.8-13.7"/>
		<path fill="#C5C5C6" stroke="#231815" stroke-width="0.8429" stroke-linecap="round" stroke-linejoin="round" d="M110,24.9
			c6.3,1,11.2,5,13.7,10.8c3.3,7.9,3.1,16.6-1.6,23.8c-1.3,2.1-6.4,6.7-8.7,7.6c-1.2,0.5-5,1.2-3.5-1.2c0.5-0.8,1.5-0.8,2-1.4
			c0.9-0.8,1.7-2,2.1-3c-2.4,0.2-7.4,6.8-10.1,3.2c0.7-1.8,2.5-1.4,3.8-2.3c1.4-0.9,3.8-3.1,4-4.6c-1.6-0.5-10.2,8.7-11,3.2
			c-0.4-2.4,3-2,3.9-2.6c1.1-0.7,2.8-3.6,3.3-4.7c-0.9,2.2-8,6.2-10,3.9c-0.9-1-0.3-2.3,0.7-3.1c0.8-0.6,3.5,0,3.2,0.3
			c1.1-1,6.4-4,2.7-5.4c-1.5-0.6-4.3,1-5.1,2.2c-0.1,0.1-1.7-1.8-0.8-3.1c3-4.4,12.7-3.6,16-0.8c-0.5-0.4,1.8-5.3,1.9-6.1
			c0-2.1-1.3-4.7-2.4-6.5"/>
		<path fill="#C5C5C6" stroke="#231815" stroke-width="0.8429" stroke-linecap="round" stroke-linejoin="round" d="M12.4,49.5
			c-2,9.5,3.9,18.5,8.5,19.3c-0.4-0.4-1.5,6.5-1.5,7.2c0.1,2.4,0.6,4.7,1.5,7c1.7,4.1,11.9,10.4,12.8,8.5c1.5-3.1-7.4-6.2-7.6-9.3
			c1.5,1.7,10.3,5.1,11.6,2.9c1.5-2.7-6.4-3.4-9.2-8.1c1.6,0.3,12.1,7.1,12.1,2.5c0-3.1-8.8-3.9-7.8-9.6c1.6,0.5,9.1,7.7,9.9,4.5
			c0.8-3-4.8-4.3-5.9-6.4c-2.8-5.6,3.4-1.7,5.8-0.2c3.5,2.2,5.2,1.6,2.9-2.1c-1.6-2.6-4.8-4.2-7.5-5.1c-3.5-1.2-8-2-11.1,0.4
			c0.8-0.6-4.7-2.5-5.1-3.1c-1.2-2.2-2.7-4.8-2.6-7.2"/>
		<path fill="#865348" stroke="#231815" stroke-width="0.8429" d="M187.2,216.5c0.1,3.2,0.8,7.4,2.6,10.2c1.1,1.6,4.5,4.1,4.7,5.8
			c0.4,2.6-3.1,0.7-4.1,0c-3.5-2.6-4.3-6.4-6.2-10.2"/>
		<path fill="#865348" stroke="#231815" stroke-width="0.8429" d="M190.6,198.6c-2-1.2-4.6-3.4-5.9-5.3c-0.8-1.2-0.8-3.7-0.9-5
			c-0.1-1.3,0.2-4.3-1.1-4.9c-3.1-1.4-3.3,3.3-3.1,4.9c0.3,2.6,1,6,2.5,8.2c1.6,2.3,3.7,4.8,6.6,5"/>
		<path fill="#865348" stroke="#231815" stroke-width="0.8429" stroke-linecap="round" stroke-linejoin="round" d="M190.8,215.2
			c-0.1-1.9,2.7-1.7,2,0.1c1.1-0.6,1.8,0.9,0.5,1.4c1.4-0.3-0.1,2.9-1,0.9c0.3,1.2-1.9,0.8-2.3,0.3c-0.3-0.4-0.6-1.9-0.5-2.4"/>
		<path fill="#865348" stroke="#231815" stroke-width="0.8429" d="M196.6,194c-5.5,2.1-10.8,5.9-13.5,11.2
			c-2.8,5.5-3.1,15.4-1.9,21.3c0.3,1.4,3.1,13,6.1,10.4c1.1-1-1-5.6-1.3-6.7c-0.9-3.9,0.4-8.4,0.9-12.2c1.6,0.9,3.5-0.4,4.1-1.9
			c1.1-2.6,0-2.2-0.4-4.2c-0.4-1.7,4.1-8.5,5.2-9.8c1.6-1.8,3.5-0.4,5.2-1.8"/>
		<path fill="#865348" stroke="#231815" stroke-width="0.8429" d="M211.2,187.9c6.2,0,13.9-0.7,19.2,3.1c2.8,2,6.8,10.3,0.7,10.3
			c-4.5-6.7-11.4-11.5-19.9-9.3"/>
		<path fill="#865348" stroke="#231815" stroke-width="0.8429" d="M188.8,194.5c0.1,4.6,1.8,9.7,5.1,11.4c5.2,2.6,13.4,1.1,17.5-2.9
			c5.8-5.7,2.1-18-5.9-19.2c-2.8-0.4-5.8-1.1-8.6-0.7c-3.4,0.6-2.3,2.6-1.9,5.3c0.2,1.4,1.5,5.3,0.8,6.4c-1.7-2.5-2.5-6.4-3.2-9.2
			C190,187.7,188.8,191.3,188.8,194.5z"/>
		<path fill="#865348" stroke="#231815" stroke-width="0.8429" d="M212.5,195.3c6.1,0,10.8,0.5,15.5,4.5c1.8,1.5,6.8,9,1.5,9.3
			c-2.6,0.1-5.3-5.5-7.4-6.8c-2.9-1.7-6.4-2.9-9.6-3.5"/>
		<path fill="#FFF6DB" stroke="#231815" stroke-width="0.8429" d="M193.6,183.5c0.3,0.9-0.1,1.6,0,2.7c0.1,0.6,0.6,0.8,0.8,1.4
			c0.3,1.6-1.7,3.9-0.1,5.3c-1.5-0.3-1.5-2.4-1.6-3.5c-0.1-0.4,0.2-0.6,0.1-1.1c-0.1-0.2-0.6,0-0.8-0.3c-0.4-0.9,0.2-1.8,0-2.5
			c-0.5-1.3-2.9-0.8-2-2.7c-1.1,2.3-3.7-1-1.9-2.4c-0.7,2.6-4.4,0.2-2.2-2c-1.5,2.2-2.5-2.7-0.5-3.4c-3.3,0.7-1.9-4.7,0.2-2.5
			c0.3-1.1,1.6-2.3,2.8-2.3c0,0.3,0.1,0.7,0,1.1c-0.3-2.3,3.1-3.4,3-0.4c2-2.4,2.8,2.3,1.2,2.9c1.7,0.2,0.6,3.1-1,3.1
			c2.5,0,0.2,2.7,0.4,4c0.2,1.1,0.6,1.1,1.2,2C193.4,183,193.5,183.3,193.6,183.5z"/>
		<path fill="#FDF8FA" stroke="#231815" stroke-width="0.8429" d="M206.3,195.1c1.1,0.2,1.6-5.3-0.1-4.3
			C205.2,191.3,205,194.8,206.3,195.1z"/>
		<path fill="none" stroke="#231815" stroke-width="0.8429" d="M207,191.5c-0.4,0.6-0.5,1.3,0,1.8"/>
		<path fill="#865348" stroke="#231815" stroke-width="0.8429" d="M188.6,201.4c-1.3,1-4.6,1-6.2,0.8c-2.3-0.4-5-2.3-6.2-4.2
			c-0.7-1.2-0.9-3.6-2.8-3.2c-1.7,0.4-1.4,2.7-1,4c0.9,3.1,4.3,5.6,7.4,6c2.4,0.3,7.8,1.1,9.7-0.6"/>
		<path fill="none" stroke="#F8C9B2" stroke-width="0.8429" stroke-linecap="round" stroke-linejoin="round" d="M200.3,184.2
			c0.5,0.7,1.6,1.8,2.3,2.1"/>
		<path fill="none" stroke="#F8C9B2" stroke-width="0.8429" stroke-linecap="round" stroke-linejoin="round" d="M200.1,186.4
			c0.7,1.1,1.4,1.6,2.4,2.4"/>
		<path fill="none" stroke="#F8C9B2" stroke-width="0.8429" stroke-linecap="round" stroke-linejoin="round" d="M199.9,193.5
			c0.6,0.2,1.2,0.3,1.8,0.5"/>
		<path fill="none" stroke="#F8C9B2" stroke-width="0.8429" stroke-linecap="round" stroke-linejoin="round" d="M200.1,190.1
			c0.3,0.9,1.4,0.8,2,1.3"/>
		<path fill="none" stroke="#231815" stroke-width="0.8429" stroke-linecap="round" stroke-linejoin="round" d="M177.9,217.4
			c-0.1,4.3,0.7,8.9,2.1,12.9"/>
		<path fill="none" stroke="#231815" stroke-width="0.8429" stroke-linecap="round" stroke-linejoin="round" d="M175.8,221.9
			c0.1,2.8,0.9,6.6,2.4,9"/>
		<path fill="none" stroke="#231815" stroke-width="0.8429" stroke-linecap="round" stroke-linejoin="round" d="M222.7,206.3
			c0.7,1.9,2.3,3.1,3.3,4.8"/>
		<path fill="none" stroke="#231815" stroke-width="0.8429" stroke-linecap="round" stroke-linejoin="round" d="M221.8,209.3
			c0.5,1.1,1.3,2.1,2.4,2.4"/>
		<path fill="#FFFFFF" stroke="#231815" stroke-width="0.8429" d="M87,83.3c0.6,4.2,9,0.3,4.6-3.7"/>
		<path fill="#FAD8C3" stroke="#231815" stroke-width="0.8429" d="M93.1,77.6c-0.8,2.8-2.2,4.7-4.9,5.8c-2.2,0.9-3.8,0.5-3.5-2.2"/>
		<path fill="#FFFFFF" stroke="#231815" stroke-width="0.8429" d="M53,91c0,2.5,0.5,3.5,3.1,3.1c1.6-0.3,3-1.7,1.8-3.6"/>
		<path fill="#FAD8C3" stroke="#231815" stroke-width="0.8429" d="M57.8,87.6c4.1,4.3-5.1,5.2-7.1,2.5"/>
		<path fill="#231815" stroke="#231815" stroke-width="0.8429" d="M90.6,84.5c0-0.8-1.3-0.8-1.5,0.1"/>
		<path fill="#231815" stroke="#231815" stroke-width="0.8429" d="M56.1,93.7c-0.2-1,1.2-1.1,1.5-0.3"/>
	</g>
</g>
<g id="圖層_1">
</g>
</svg>
