<?xml version="1.0" encoding="utf-8"?>
<!-- Generator: Adobe Illustrator 17.1.0, SVG Export Plug-In . SVG Version: 6.00 Build 0)  -->
<!DOCTYPE svg PUBLIC "-//W3C//DTD SVG 1.1//EN" "http://www.w3.org/Graphics/SVG/1.1/DTD/svg11.dtd">
<svg version="1.1" xmlns="http://www.w3.org/2000/svg" xmlns:xlink="http://www.w3.org/1999/xlink" x="0px" y="0px" width="205.1px"
	 height="243.8px" viewBox="0 0 205.1 243.8" enable-background="new 0 0 205.1 243.8" xml:space="preserve">
<g id="Layer_5">
</g>
<g id="Layer_4">
</g>
<g id="Layer_3">
</g>
<g id="Layer_2">
</g>
<g id="圖層_1">
	<g>
		<path fill="#86C257" stroke="#231815" stroke-width="0.888" stroke-linecap="round" stroke-linejoin="round" d="M2.4,187.7
			c5.1-50.9,75.8-67.3,115.8-62.6c19.1,2.2,35.8,8.4,49.5,18.2c21.3,15.3,28,44,27.7,69c-0.2,16-6.4,10.9-19.1,10.5
			c-16.1-0.5-33.1,2.9-49.1,4.7c-23.7,2.6-49.7,8.4-73.1,1c-5.8-1.8-16.9-6.8-20.2-11.8c-4.9-7.2,2.2-11.7,0.9-18.7
			c-3-15.9-31.8,2.2-32.9-10.7"/>
		<path fill="#F0BE98" stroke="#231815" stroke-width="0.888" stroke-linecap="round" stroke-linejoin="round" d="M28.3,187.9
			c2.5-0.1,5.1,0.1,8,0.8c5.8,1.5,6.6,6.4,4.3,11c-8,15.9,5.7,22.3,19.6,24.1c11.2,1.5,22.5,1.5,33.7,0.2c18.8-2.1,36.6-8.4,55-12.6
			c14-3.2,27.4-4.1,41.6-2.3c4.4,0.5,4.4-3.2,4.5-6.3c0,0.6,2.7,1.7,3.3,2.1c1.5,0.8,2.5,1.5,3.6,2.9c3.9,5.2,3.9,12.7-1.5,16.9
			c-8.1,6.2-21.6,5-30.9,5c-15.7,0-30.3,6-45.4,9.1c-12.1,2.5-24.4,4.3-36.8,4.6c-19.2,0.4-39.5-1.1-56.3-11.8
			c-6-3.8-11.6-10.2-11.8-17.6c-0.1-4.5,1.9-7.5,4.7-10.7c2.9-3.2,10.2-8,2.2-8.9c-3.9-0.4-7.9,1-11.7,1.5
			c-7.7,1-18.7-4.4-11.4-12.8c-2.9,8.9,8.1,8.3,13.7,7.1C20.9,189,24.5,188.1,28.3,187.9z"/>
		<path fill="#EFB081" d="M114.7,225.6c-5.9-0.1-11.6,0.3-17.4,1.1c-6.4,0.9-12.4,3.4-18.8,4c-3.9,0.3-7.8-0.8-11.8-0.8
			c-3.3,0-9.7-1-11.4,2.7c2.2,2.4,6.2,1.8,9.2,1.9c2.7,0.1,5.2,1,7.8,1.8c3.3,1,6.9,1.1,10.2,2.2c3.8,1.3,7.1,2.1,11.2,2.3
			c6.1,0.4,11.6-1.6,17.6-2.6c3.9-0.6,7.6-0.9,11.1-2.8c3.1-1.6,5.8-4.6,9.5-4.6c1,0,12.1,0.6,9.4-3.1c-1-1.4-13.1-0.9-15.3-1.3
			C122.4,225.8,118.5,225.6,114.7,225.6z"/>
		<path fill="#EFB081" d="M153.6,225.9c1.7,1.7,6,0.1,7.7-0.7c2.2-1,3.9-2.6,6.2-3.4c2.6-0.9,5.3-0.4,8-0.6c2.3-0.2,6.7-1.2,7.4-3.8
			c0.8-3-2-4.4-4.5-4.2c-5,0.4-11.8,2.1-16.6,3.6C159.7,217.4,151.2,223.5,153.6,225.9z"/>
		<path fill="#EFB081" d="M44,224.6c-2.8-0.6-10.9-6.2-13.3-2.5c-2.4,3.9,6.5,6.1,8.9,5.9c1-0.1,14.1-2.1,14.2-1.5
			c-0.4-2.4-2.7-2.5-4.6-2.3c-1.4,0.1-2.2,0.7-3.6,0.7C45,224.8,44.5,224.7,44,224.6z"/>
		<path fill="#FBE1D1" stroke="#231815" stroke-width="0.888" stroke-linecap="round" stroke-linejoin="round" d="M64.8,210
			c-0.7,1.8-1.9,5.6-3.4,6.8c-1.2,1-3.5,0.1-3.6,1.9c-0.1,2.2,1.7,3.9,2.2,5.9c0.5,2,0.5,4.5,2,6.1c0.7,0.7,4.9,2.2,5.6,0.8
			c0.5-1-1.8-1.4-2.2-1.6c-1.6-0.9-1.4-7.3,0.4-10.5c1.4-2.4,3.2-4.6,4.5-7.1"/>
		<path fill="#FBE1D1" stroke="#231815" stroke-width="0.888" stroke-linecap="round" stroke-linejoin="round" d="M126.9,207.8
			c2.8,4.4,2.5,10.2,5.4,14.6c1.4,2.1,4.2,5.6,7.2,5.5c0,0.3,0,0.5,0,0.7c-0.8,0.3-1.6,0.7-2.5,0.6c-1.2-0.1-1.2-0.6-2.2-0.9
			c-1.4-0.6-3.7-0.1-5.1-0.6c-2.1-0.8-0.8-1-1.4-3c-0.7-2.1-2.7-4.6-3.7-6.5c-1.8-3.4-3.5-7.4-4.9-11.1"/>
		<path fill="#515779" stroke="#231815" stroke-width="0.888" d="M90,143.7c1.1,2.2,0,5.2,8.5,19.8c4.4,7.6,13.1,18.3,14,25.8
			c0.6,4.7,1.3,6.3,4.3,13.2c1.9,4.3,5.5,10.7,5.9,14.6c2.2-0.2,5.3-0.7,7.2-1.8c-3.2-8.3-4.1-17.3-6.2-25.9
			c-1.2-4.8-2.7-9.6-3.8-14.5c-0.8-3.7-2.7-20.2-3.4-24c-0.8-4.2-5.9-15.5-5.9-15.6"/>
		<path fill="#494E6E" stroke="#231815" stroke-width="0.888" d="M128.6,228.2c-0.2-0.2-0.4-0.5-0.6-1c-0.3-0.8-0.3-1.9,0-2.6
			c-0.3,0.8,2.9,1.8,3.2,1.9c1.5,0.5,3,0.9,4.5,0.8c1,0,1.5-0.2,2.5-0.1c1.1,0.1,2.9,0,3.8,0.5c0.4,0.2-1.5,1.6-1.7,1.7
			c-0.7,0.3-1.7,0.4-2.5,0.4c-2.2,0-4.1-1.1-6.2-1.6C130.8,228.1,129.3,228.7,128.6,228.2z"/>
		<path fill="#494E6E" stroke="#231815" stroke-width="0.888" d="M63.8,227.9c0.7,1.4,1.2,1.4,2.7,1.8c2.4,0.6,1.9,3-0.8,2.5
			c-1.7-0.3-3.4-0.3-4.4-2c-0.8-1.4-0.8-2.9-1.1-4.4c-0.2-1.1-0.5-2.3-1.1-3.3c-1.5-2.3-3.1-6.6,1.5-6.2c0.1,1.1,0.2,1.7,0.4,2.6
			C61.7,221.3,62.6,225.7,63.8,227.9z"/>
		<path fill="#865348" stroke="#231815" stroke-width="0.8288" stroke-linecap="round" stroke-linejoin="round" d="M34.8,191.7
			c1.5-3.5,7.9-2.7,9.5,0.1c1.2,2.3,1.8,4.9,2.9,7.3c0.6,1.2,1.2,2.7,2.3,3.6c0.8,0.7,3.2,1.2,2.8,2.6c-0.3,1.1-2.6,1.2-3.4,0.9
			c-2.5-0.7-3.1-3.4-4.2-5.3c0.7,1.3,0.4,2.7,0.7,4.1c0.3,1.3,0.9,2.4,1.2,3.6c0.2,0.7,0.8,1.8,0.7,2.6c0.1-0.3-1.8,0.2-1.9,0.2
			c-0.7,0.2-1.2,0.9-1.9,1.1c-0.8,0.2-1.7,0.2-2.5,0.1c-1.6-0.2-3.2-1-4.3-2.2c-0.6-0.6-0.9-1.2-1.1-1.8c-0.7-2.2,0.8-4.4,0.6-7
			C36,198.5,33.5,194.6,34.8,191.7z"/>
		<path fill="#865348" stroke="#231815" stroke-width="0.8288" stroke-linecap="round" stroke-linejoin="round" d="M20.7,169.4
			c0.5-1,2.1-2.3,4.4-1.1c2.4,1.1,3.7,4,5.1,6.2c0.2,0.4,2.2,3.8,2.6,5c0,0,3.6-0.9,3.9-1c-0.8-3.7-1-6.6-2.6-10.9
			c-0.8,0-1.6-0.5-1.7-0.6c-0.5-0.3-0.8-1.3-0.9-1.8c-0.2-1.4,0.8-2.6,2.2-3c2.5-0.6,4.2,1.2,5,3.3c1.5,4.2,1.9,10.1,2.6,12.5
			c0.3,0,1.4,0.4,1.6,0.5c4.3,1.4,7,5.7,7,10.1c0,1-0.1,2-0.4,2.9c-1.8,6.3-10.6,5.9-15.8,5.2c-6.4-1-8.8-10-4.8-14.7
			c0.9-1-3.9-7.8-4.6-8.9C21.9,174.1,19.4,171.9,20.7,169.4z"/>
		<path fill="#F1A6BF" d="M31,187.4c0.5,0.7,2.3,0.6,2.4-0.3c0-1.1-2.2-1-2.4-0.2C30.9,187.1,30.9,187.3,31,187.4z"/>
		<path fill="#F1A6BF" d="M46.3,184.5c-0.3,0.8-2.1,1.1-2.4,0.2c-0.3-1.1,2-1.5,2.3-0.7C46.4,184.2,46.4,184.4,46.3,184.5z"/>
		<path fill="none" stroke="#231815" stroke-width="0.8288" stroke-linecap="round" stroke-linejoin="round" d="M33.1,195.4
			c0,0.1,0,0.2,0,0.3"/>
		<path fill="#865348" stroke="#231815" stroke-width="0.8288" stroke-linecap="round" stroke-linejoin="round" d="M36.5,197.8
			c-0.8,2-1.2,3.2-3,2.6c-2.6-1-2.4-10.6,1.9-9.4C38.2,191.6,37.7,194.8,36.5,197.8z"/>
		<path fill="#865348" stroke="#231815" stroke-width="0.8288" stroke-linecap="round" stroke-linejoin="round" d="M41.8,212.4
			c1.6,2.6,3.4,5.8,4.8,8.5c1.1,1.9,2.1,4.6,4.7,4.9c1.1,0.1,2.7-0.4,2.3-1.7c-0.3-0.9-1.9-1.2-2.5-2c-1.2-1.6-1.3-3.8-1.9-5.7
			c-0.7-2.6-1.3-5.2-2.5-7.5"/>
		<path fill="#865348" stroke="#231815" stroke-width="0.8288" stroke-linecap="round" stroke-linejoin="round" d="M39.5,211.9
			c-1,2-5.3,8.6-7.9,5.7c-0.9-1-1.3-5.3-0.8-6.6c1.2-2.8,2.2,1,2.7,2.3c1.2-3.1,1.9-4.4,2.2-5.2"/>
		<path fill="none" stroke="#231815" stroke-width="0.8288" stroke-linecap="round" stroke-linejoin="round" d="M39.1,191.8
			c0.4,0,1.5-1.6,1-2c0.6,0.4,1.2,1.2,1.9,1.4"/>
		<path fill="none" stroke="#231815" stroke-width="0.8288" stroke-linecap="round" stroke-linejoin="round" d="M42.5,182.4
			c-0.3-1.6,1.2-0.9,1.5,0.3"/>
		<path fill="none" stroke="#231815" stroke-width="0.8288" stroke-linecap="round" stroke-linejoin="round" d="M32,185
			c-0.2-1.4,0.8-2.3,1.2-0.6"/>
		<g>
			<path fill="#515779" stroke="#231815" stroke-width="0.888" d="M104.3,135.9c-2-5.4-13.7,5-19,4.8c-5.2-0.2-10.2,3-8.5,11.5
				c0.6,3.2,1.5,4.3,1.6,7.9c0.1,5.2-2.1,15.2-2.7,20.3c-0.7,5.2-3,6.1-5,12.3c-1.6,4.9-2.3,6.8-3.3,10.1c-0.9,3-2.1,6.6-4.1,7.6
				c2.1,1.7,4.6,3.1,6.5,3.8c3.3-5.2,9.7-15.3,13.5-21.6c3-4.9,3.6-6.2,4.7-8.5c-0.6-0.2-1.1-0.5-1.6-0.7c-1.3-0.8-1.8-1.8-2.5-3.1
				c1.2,1.1,2.9,2.1,4.7,2.6c0.4-0.7,0.8-1.5,1.3-2.5c-0.7-0.3-1.5-0.7-1.7-0.8c-0.9-0.5-2-1.4-2.4-2.4c0,0,0-0.1,0-0.1
				c0.2,0.7,3.3,2,4.7,2c2.8-5.2,3.6-7.4,4-8.2C99.2,162.3,107.8,145.5,104.3,135.9z"/>
			<path fill="#FBE1D1" stroke="#231815" stroke-width="0.888" stroke-linecap="round" stroke-linejoin="round" d="M86,177
				C86,177,86,177,86,177c0.4,1.1,1.5,2,2.4,2.5c0.2,0.1,1,0.5,1.7,0.8c0,0,0-0.1,0-0.1c0.2-0.4,0.8-1.4,1-1.8
				C89.7,178.4,86.2,177.7,86,177z"/>
			<path fill="#FBE1D1" stroke="#231815" stroke-width="0.888" stroke-linecap="round" stroke-linejoin="round" d="M86.5,183.4
				c0.5,0.3,1,0.5,1.6,0.7c0.2-0.4,0.7-1.2,1-1.6c-1.3,0-5.1-2.2-6.2-3.3C83.5,180.5,85.1,182.6,86.5,183.4z"/>
		</g>
		<path fill="#906500" stroke="#231815" stroke-width="0.888" d="M45.3,137.1c-0.7,4.9,2.1,9.9,1.8,14.8c-2.8,0.6-5.7,0.3-8.4,0.1
			c0.5-8.7-0.3-17.8-0.5-26.7c0.5-0.3,1.9-0.7,2.5-0.8c0.4,3.1,0.5,6.1,1.4,8.9c3.4-1.5,2-6.5,1.9-9.7
			C48.9,126,45.8,133.4,45.3,137.1z"/>
		<path fill="#D3DC00" stroke="#231815" stroke-width="0.888" d="M53,123.9c4.8-5.9,2-20.1,0.3-26.4c-2.5-9.3-6.6-18.3-9.1-27.6
			c-1.9-7-2.6-17.4-7-23.1c1.4,12.5-4.5,26.8-6.7,39.1c-1.9,10.2-5.2,20.8-3.9,31.3C28.1,130.4,43.9,135,53,123.9z"/>
		<path fill="#515779" d="M107.4,149.4c0.4,4.6-2.8,4.6-6.2,5.5c-3.6,0.9-5.7,2.5-8.1-0.8c-2.8-3.9-2.2-9.3,0.6-13.1
			c6.6-8.6,18-2.4,17.9,7.4"/>
		<path fill="#FFFFFF" stroke="#231815" stroke-width="0.888" d="M77.4,141.8c0,0.3-2.2,6.4-1.2,7c5.4,3.2,18.3,2.8,21.3,2.9
			c5.8,0.2,14.6-1,17.4-2.4c0.4-0.2,0.9-0.2,1.4-0.3c-0.3-1.5-1.1-3-1.4-4.6"/>
		<path fill="#DB90BB" stroke="#231815" stroke-width="0.888" d="M111.2,79.4c2.2,2.8,9.3,1,8.3,16.4c-0.9,13.7-12.3,43.7-13.5,46.1
			"/>
		<path fill="#515779" stroke="#231815" stroke-width="0.888" d="M106.8,148.2"/>
		<path fill="#515779" stroke="#231815" stroke-width="0.888" d="M87.7,141.5"/>
		<path fill="#DB90BB" stroke="#231815" stroke-width="0.888" d="M111.6,80.8c0.1-4-5.2-4.7-8.7-6.9c-9-5.6-8.1-6-18.4-7.6
			c-4.2-0.6-5.8-1.8-7.6,1.7c-1.5,2.8-0.9,9.8-1.1,12.9c-0.3,6.1-4.4,7.8-3.6,14.1c1.1,8.6,8.3,27.7,8.1,36.4
			c-0.1,2.3-3.7,7.6-4.7,14c-0.3,2.3,13.3,3.4,15,3.5c9.2,0.7,18.9-0.3,25.6-2.5c-0.6-4.3-4.7-15.1-4.8-16.1
			c-0.3-2.4,0.7-8.5,1.4-13.2c0.7-4.5,3.4-8.2,4.4-12.6"/>
		<path fill="#DB90BB" stroke="#231815" stroke-width="0.888" d="M117.2,103.6c2.2,6.9-0.1,14.4-7.3,16.7"/>
		<g>
			<path fill="#FBE1D1" stroke="#231815" stroke-width="0.888" stroke-linecap="round" stroke-linejoin="round" d="M93.5,128.1
				c8.9,5.3,12.5,13.7,18.9,17.7c1.3,0.8,4,1,5.4,1.7c3.2,1.6,3.8,4.1,0.6,7.3c-4.9,5-6.8-3-8.3-4.1c-3.7-2.8-15-9.7-20-13.8
				c-1.1-1-0.9-1.2-2.1-2"/>
			<path fill="#FBE1D1" stroke="#231815" stroke-width="0.888" stroke-linecap="round" stroke-linejoin="round" d="M115.5,146.8
				c1.6,0.4,2.8,0.9,4.2,1.5c1.2,0.6,2.1,1.3,3.3,1.4c-0.3,2-2.9,0.5-4.1,0.5"/>
			<path fill="#FBE1D1" stroke="#231815" stroke-width="0.888" stroke-linecap="round" stroke-linejoin="round" d="M119.5,150.7
				c1.1,1,2.3,1.9,3.5,2.8c0.6,0.4,1.9,0.7,1.6,1.5c-0.4,1.1-5.2-2.1-5.4-2.1"/>
			<path fill="#FBE1D1" stroke="#231815" stroke-width="0.888" stroke-linecap="round" stroke-linejoin="round" d="M119.1,152.9
				c1.1,1,0.5,0.4,2.3,2c1.5,1.4,3.1,2,2.8,2.5c-0.6,1.1-2,0.3-2.7-0.1c-0.8-0.5-2.4-2-3.8-3"/>
			<path fill="#FBE1D1" stroke="#231815" stroke-width="0.888" stroke-linecap="round" stroke-linejoin="round" d="M117.7,154.2
				c1.1,1,1.2,1.3,2.2,2.3c0,0,2.6,2.9,1.4,2.8c-0.8-0.1-1.4-0.8-2.1-1.3c-1.1-0.8-2-1.7-2.9-2.7"/>
			<path fill="#FBE1D1" stroke="#231815" stroke-width="0.888" stroke-linecap="round" stroke-linejoin="round" d="M116.3,155.1
				c1.1,1,0.9,1.3,1.9,2.6c0,0.1,1,2.2,0.2,2.4c-0.8,0.2-1.3-1.3-2-1.8c-1.1-0.8-2.6-2.3-3.5-3.2"/>
		</g>
		<path fill="#DB90BB" stroke="#231815" stroke-width="0.888" d="M79.3,78C69,81.2,67.5,93.7,69.2,102.5c1.1,5.7,2.3,9.9,6.4,17.8
			c2.8,5.3,5.5,7.8,7.4,9.8c1.4,1.5,3.4,3.5,4.9,4.6c2.1-2.3,5-5.3,6.6-6.7c0.3-0.3-7.4-7.3-10.6-18.8c-0.9-3.2-0.5-2.8,1.2-4.7"/>
		<path fill="none" stroke="#231815" stroke-width="0.888" d="M100.5,155.3c1.7,0.1,3.4-1.2,4.1-2.7"/>
		<path fill="none" stroke="#231815" stroke-width="0.888" d="M87.3,117.7c1.8,1.4,5.6,2.6,7.8,2.1"/>
		<g>
			<path fill="#FBE1D1" stroke="#231815" stroke-width="0.888" stroke-linecap="round" stroke-linejoin="round" d="M114.4,68.5
				c0,0-4.8,5.7-5.5,3.2c-2-6.8-4.8,8.9-11.6,6.7c-5.7-1.8-11.6-3.3-17.2-5.5c0.9,0.3-1.6,2.8-1.8,3c-2.3,2.2-11.2-8.6-1,4.5
				c2.8,3.6,7.3,8.2,10.7,11.1c2,1.7,4.8,3.7,6.9,5.4c1.4,1.1,4.3,1,6.6,1c3.1,0.1,4.4-0.7,7.3-2.1c0.3-0.9,2.7-12.4,2.7-21.2
				C111.4,74.5,114.3,68.7,114.4,68.5z"/>
			<path fill="#FFFFFF" stroke="#231815" stroke-width="0.888" d="M95.5,97.2c3,2.1,7.4,5.7,10.3,7.4c1.3-2.9,2.1-4.6,3-9.4
				c-1.4,1.5-1.6,1.7-4.6,2.3C100.4,98.3,97.6,97.9,95.5,97.2z"/>
		</g>
		<path fill="#FFFFFF" stroke="#231815" stroke-width="0.888" d="M93.1,131.3c0.9-0.7,1.8-1.6,2.9-1.8c-0.4,0.1-1.5-2.4-1.9-2.6
			c-3.2,1.9-6.8,3.9-8.2,7.6c0.8,0.5,1.5,1.4,2.2,1.9C89.9,134.8,91.2,132.8,93.1,131.3z"/>
		<path fill="#906500" stroke="#231815" stroke-width="0.888" d="M23.4,152.1c-0.4,3.6,1.7,7.3,1.5,10.9c-2.1,0.5-4.2,0.3-6.2,0.2
			c0.3-6.4-0.5-13.1-0.8-19.6c0.4-0.2,1.4-0.5,1.8-0.6c0.3,2.3,0.4,4.5,1.2,6.5c2.5-1.1,1.3-4.8,1.3-7.2
			C25.9,143.9,23.7,149.4,23.4,152.1z"/>
		<path fill="#39AD36" stroke="#231815" stroke-width="0.888" d="M29.4,141.7c3.4-4.4,1.2-14.8-0.2-19.4c-2-6.8-5.1-13.3-7.1-20.2
			c-1.5-5.1-2.2-12.7-5.5-16.9c1.2,9.2-2.9,19.8-4.4,28.8c-1.2,7.5-3.5,15.4-2.4,23.1C11.2,146.9,22.9,150,29.4,141.7z"/>
		<path fill="#906500" stroke="#231815" stroke-width="0.888" stroke-linecap="round" stroke-linejoin="round" d="M163.1,143
			c0.2,5,0.4,10.3,0.6,10.2c-1.9,0.4-3.9,0.1-5.8-0.1c-0.1,0-0.1-0.3-0.1-0.3c-0.5-5.8,1.9-11.8,0.9-17.5c2.3-0.4,3.3-2.3,3.9,0.6
			C163.1,138.1,163,140.7,163.1,143z"/>
		<path fill="#53B232" stroke="#231815" stroke-width="0.888" d="M168.6,137c3.4-3.9,1.8-13.8,0.7-18.2c-1.6-6.5-4.1-12.7-5.7-19.2
			c-1.2-4.9-1.5-12-4.4-16.1c0.7,8.7-3.6,18.4-5.4,26.7c-1.5,7-4,14.2-3.3,21.5C151.3,141,162.1,144.5,168.6,137z"/>
		<g>
			<path fill="#FFFFFF" stroke="#231815" stroke-width="0.888" d="M159.9,196.4c-2.2,1.7-4.9,3.9-7.7,4.7c-1,0.3-4.1-0.5-3.7,1.2
				c0.4,1.8,3.9,1.7,5.2,1.6c3-0.2,5.7-1.4,8.3-3"/>
			<path fill="#FFFFFF" stroke="#231815" stroke-width="0.888" d="M166.9,205.7c4,1.7,8,5.7,12,6.6c0.5,0.1,2.4-0.6,2.8-0.3
				c1.7,1.1-1.6,3.8-2.8,3.7c-1.1-0.1-2.8-0.4-6.1-1.2c-2.5-0.6-8.6-2.9-11.1-3.9"/>
			<path fill="#FFFFFF" stroke="#231815" stroke-width="0.888" d="M156.2,213.4c0.3-1.6,0.5-2.3,1.2-4.7c-1.9-0.9-2.1-1.6-1.8-2.8
				c0.3-1.1,1.9-1.8,2.5-2.8c0.7-1.2,1-2.7,1.2-4.1c0.4-2.9,0.3-5.9,0.3-8.8c0,0.5,6.9-2.2,7.4-2.5c0.7,2.4,1.9,5.2,2.1,7.7
				c0.3,3.5-1,7.3-2.2,10.5c-0.8,2-1.9,3.7-2.9,5.6c-1.2,2.1-2.5,4.1-3.8,6.2c-0.8,1.4-2.7,3.9-2.5,5.7c0,0.5,0.9,0.6,0.7,1.4
				c-0.3,1.3-2.1,0.7-3,0.3c-2-1-1.2-3.3-0.7-4.9c0.6-1.9,0.8-3.8,1.3-5.7C156,214.1,156.1,213.8,156.2,213.4z"/>
			<path fill="#FFFFFF" stroke="#231815" stroke-width="0.888" d="M168.2,193.9c3.8,0.4,7.6,1.8,11.4,1.8c0.6,0,1-0.1,1.4-0.1
				c1.1-0.1,1.9-1.3,2,0.9c0.2,3.9-7.5,3-9.5,3.1c-2.6,0.1-5.1,0.2-7.7,0.2"/>
			<path fill="#FFFFFF" stroke="#231815" stroke-width="0.888" d="M155.6,181c-1.4-1.2-2.4-3.1-3.5-4.7c-1.4-2.1-2.4-3.5-3.8-3.9
				c-1.4-0.5-2.6,0.1-3.5-1.4c-0.8-1.3-0.1-3.8,1.4-4.4c5.9-2.5,11.1,10.4,12.2,14.3"/>
			<path fill="#FFFFFF" stroke="#231815" stroke-width="0.888" d="M155.1,194.1c-2.5-2.6-4.8-7.4-3.3-10.9c1.4-3.4,5-5.5,8.3-6.5
				c4.2-1.3,7.7-2,10.9,1.6c2,2.3,3.9,6,3.4,9.1C173.3,194.6,160.3,199.6,155.1,194.1z"/>
			<path fill="none" stroke="#231815" stroke-width="0.888" stroke-linecap="round" stroke-linejoin="round" d="M174.4,185.2
				c-1.7,1.8-3.1,3-5.4,3.9"/>
			<path fill="#F1A6BF" d="M167.3,186.4c0.5-0.1,2.3-1,2.5-1.4c1.1-2.7-2.1-2.1-3.2-1C165.5,185.1,165.2,186.7,167.3,186.4z"/>
			<path fill="none" stroke="#231815" stroke-width="0.888" stroke-linecap="round" stroke-linejoin="round" d="M166.1,181.9
				c-0.1-0.7,0-1.6,0.1-2.3c0.5,0.2,1.3,0.6,1.7,1.1"/>
			<path fill="#FFFFFF" stroke="#231815" stroke-width="0.888" d="M163.9,178.3c0-3.2-1.3-7.4-2.2-10.4c-0.7-2.4-3-7.4-6.3-6.6
				c-3.1,0.8-3.1,5.3-0.7,6.9c0.6,0.4,1.6,0.3,2.1,0.6c0.7,0.5,1.1,1.6,1.4,2.4c0.5,1.2,1.1,2.5,1.4,3.7c0.2,1.1,1,3.1,0.8,4.1"/>
		</g>
		<path fill="none" stroke="#231815" stroke-width="0.888" stroke-linecap="round" stroke-linejoin="round" d="M177.8,180.2
			c-1-5.1,6.4-3.2,7.5-8.3"/>
		<path fill="#231815" stroke="#231815" stroke-width="0.888" stroke-linecap="round" stroke-linejoin="round" d="M189.1,168.9
			c0.3,0.3,0.8,0.4,1.5-0.1c1.4-0.9,1.2-3.1-0.8-2.3C188.7,167.1,188.5,168.4,189.1,168.9z"/>
		<path fill="none" stroke="#231815" stroke-width="0.888" stroke-linecap="round" stroke-linejoin="round" d="M191.4,167.9
			c0.4-2.5,0.5-5.5,0.4-8.1c0.2,1.2,1.6,0.9,2.5,1.3"/>
		<g>
			<path fill="#DD7233" stroke="#231815" stroke-width="0.888" d="M140.9,39c-2.2-10.7-7.6-20.6-15.9-28.2c-0.7-0.7-1.5-1.3-2.2-1.9
				C107.6-2.2,86.9-2,70.7,7.3c-6.8,3.9-13.3,9.6-17.6,16.2c-1.7,2.6-3.1,5.4-4.3,8.2c-4,9.6-7,21.1-4.4,31.4c1,4.1,3.1,8,6.6,10.5
				c7.4,5.4,20.8,5.6,25.1-3.4l-3-33.7c0.7,0.2,1.5,0.4,2.3,0.6c0.8-1.5,1.9-2.8,2.7-4.5c0,1.7,0,3.7-0.4,5.4c2,0.7,4,1.2,6,1.6
				c3.8,0.7,7.6,1.2,11.3,1.5c0.4-2.2,1.2-4.5,2-6.3c0.1,2.1,0.3,4.3,0.4,6.5c6.9,0.5,13.4,0.4,18.7,0c0.1-1.9,0.3-3.7,0.6-5.6
				c0.7,1.7,1.4,3.5,1.8,5.3c0,0-2.6,30.1-2.6,30.1c-0.4,4.7,4.2,6.2,8,6.4c8.8,0.4,15.2-5.9,17.5-14.1
				C143.7,55.6,142.6,47,140.9,39z"/>
			<path fill="#FBE1D1" stroke="#231815" stroke-width="0.888" stroke-linecap="round" stroke-linejoin="round" d="M58.7,60.6
				c0.8,1.8,2.3,3.1,3.2,4.8c0.7,1.4,2.6,1.9,3.2,3.4c2.1,5.7,5.4,8.1,10.4,10.4c6.6,3,11.4,3.5,18.2,4.9c4.2,0.9,8.6,3.1,13,2.2
				c2.5-0.5,5.4-3.2,7.4-4.6c3.4-2.4,5.8-2.6,9.3-4.9c3.4-2.3,5.9-5.1,7.9-8.7c6.5-11.3,4-24.9-0.8-36.2
				c-8.5-20-31.6-29.3-51.6-20.8c-5.7,2.4-10.9,6.2-14.6,11.1c-5.9,7.8-7.9,17.7-7.7,27.3C56.6,53.4,57,57.2,58.7,60.6z"/>
			<path fill="none" stroke="#F4B2A0" stroke-width="0.8288" d="M85.1,57.4c0,1.5,0,3,0,4.4"/>
			<path fill="none" stroke="#F4B2A0" stroke-width="0.8288" d="M82.4,57.4c-0.3,1.2-0.5,2.6-0.3,3.8"/>
			<path fill="none" stroke="#F4B2A0" stroke-width="0.8288" d="M80.3,56.6c-0.5,1.2-1.1,3.6-1.5,4.1"/>
			<path fill="none" stroke="#F4B2A0" stroke-width="0.8288" d="M128,56.3c0,1.2,0.3,2.5,1.2,3.3"/>
			<path fill="none" stroke="#F4B2A0" stroke-width="0.8288" d="M124.9,57.3c0.1,0.8,0.4,3.8,0.6,3"/>
			<path fill="none" stroke="#F4B2A0" stroke-width="0.8288" d="M122.6,57.6c0,1.2,0,2.4,0,3.6"/>
			<path fill="#DD7233" d="M71.5,12c-4.6,3.8-9,8.3-11.3,13.8c-1.3,3.1-3.8,7.1-3.5,10.5c0.5,5.2,3.9,0.9,6.8,0.3
				c2.7-0.6,6.7,0.9,9.4,1.1c3.9,0.4,8.2-0.2,12.2-0.2c4.1,0,7.7,0.3,11.6,0.6c6.3,0.4,12.9,0,19.2,0c4.3,0,9.3-0.2,13.4,0.5
				c2.3,0.4,4.3,2.4,5.6-0.2c1.4-2.7-1.5-8-2.8-10.4c-2.4-4.6-4.8-8-9.3-10.7c-2.5-1.5-4.4-2.8-6.3-5c-1.9-2.1-3.1-3.5-6-4.2
				c-5-1.3-10.6-1.4-15.7-2.4c-2.3-0.5-5.1-0.6-7.4-0.1c-3,0.7-5.2,3.1-8,3.9"/>
			<path fill="#FFFFFF" stroke="#231815" stroke-width="0.888" d="M123,53.9c2.4,1.6,3.9-2.3,1.7-3.1
				C122.8,50.2,121.3,52.8,123,53.9z"/>
			<circle fill="#231815" cx="124.4" cy="53" r="1.1"/>
			<path fill="#FFFFFF" stroke="#231815" stroke-width="0.888" d="M81.7,53.5c2.4,1.6,3.9-2.3,1.7-3.1
				C81.5,49.8,79.9,52.4,81.7,53.5z"/>
			<circle fill="#231815" cx="83.2" cy="52.6" r="1.1"/>
			<path fill="#DD7233" d="M130.4,39.3c5.1,6.5,3.6,15.1,4,22.9c4.5-1.3,4.2-11.2,4.4-14.2c0.3-5.8-0.4-13.6-4.4-18.1
				c-4.8-5.4-12.1-2.6-18.5-2.4c-4.9,0.2-9.5-1-14.4-1c-5.2,0-10.3,0.8-15.4,1.8c-6.3,1.2-12.2,2.8-18.6,3.2
				c-4.5,0.3-7.2,1.5-8.4,6.2c-0.8,3.4-1.4,6-3.2,9c-2.6,4.4-3.4,9.6-3,14.7c0.2,2.5,0.7,5,1.4,7.4c0.7,2.3,2.1,3.9,3.8,5.5
				c1,0.9,2.3,1.4,3.6,1.7c1.2,0.3,2.6-0.1,3.8,0.4c0.4,0.2,0.8,0.6,1.2,0.6c0.6,0.1,2.2-0.5,2.8-0.8c0.9-0.4,1.8-1.2,2.5-1.9
				c1.5-1.5,2.5-3.4,3-5.4c1.1-4.7-1.7-10-5.4-12.7c-1.3-1-1.6-1-1.5-2.7c0.2-1.5,0.3-3,0.6-4.4c0.5-3.1,0.9-6.1,1.7-9.2
				c0.1-0.3,5.6,0,6.3,0.2c2.3,0.4,4.4,0.2,6.6,0.5c2.4,0.3,4.7,1,7.1,0.8c5.6-0.3,11.1,0.5,16.6,0.7c4.5,0.2,9.2-1,13.7-1.2
				c1.8-0.1,9.3-2.6,9.8-1"/>
			<path fill="none" stroke="#231815" stroke-width="0.888" stroke-linecap="round" stroke-linejoin="round" d="M134,61.4
				c0.9-3.7,0.8-8.4,0-12.4c-0.3-1.7-0.7-3.8-1.4-5.5c-0.6-1.4-1-2.5-2.2-4.2c-9.9,2.7-25.8,2.9-35.9,2.5
				c-5.5-0.2-16.4-1.3-24.2-2.3c-0.7,3.1-2.4,10.7-2.4,15.9c0,0.1,2.3,1.4,2.5,1.7c3.3,2.8,5.1,7.4,4.5,11.8
				c-0.7,5.4-4.5,7.6-9.6,8.3"/>
			<path fill="#DD7233" d="M58.6,35.5c-1.5-0.2-2.7,2.8-3.2,4c-1.7,4-1.3,8.6-0.9,12.8c0.4,5,1.1,11.7,4.1,16c1.3,1.8,3.2,3,4.6,4.9
				c0.8,1.1,2.1,3.2,3.9,2.5c3.2-1.3,0.3-7.8-0.2-9.8c-0.6-2.7-1.8-5.4-2.8-8c-1.7-4.5-2.4-9-2.4-13.9c0-3.7-0.7-7.4-0.8-11
				c-0.7,0.1-1.6,0.5-2.1,0.2"/>
			<path fill="none" stroke="#231815" stroke-width="0.888" d="M108.6,57.1c0.6,0.7,0.7,1.9,1.9,1.8c0.2,0-0.2,1.2-0.3,1.3
				c-0.4,0.4-1.1,0.3-1.6,0.3"/>
			<path fill="none" stroke="#231815" stroke-width="0.888" d="M122.2,45.4c0.8-0.7,1.8-1.5,3-1.5"/>
			<path fill="none" stroke="#231815" stroke-width="0.888" d="M81,44.8c1.4-0.7,2.9,0.1,3.6,1.5"/>
			<path fill="#C3363E" stroke="#231815" stroke-width="0.888" stroke-linecap="round" stroke-linejoin="round" d="M101.2,69.3
				c2.7,1.3,6.9,1.4,9.6-0.1c0.3,4.1,0.2,10.9-5.9,10c-4-0.6-5-6.7-3.8-10.1"/>
			<path fill="#F8D500" stroke="#231815" stroke-width="0.888" stroke-linecap="round" stroke-linejoin="round" d="M60.6,42
				c0-0.1,0.3-28,26.6-36c32.9-10,45.6,23.9,44.7,21.6c-1.1-2.7-3.1-4.1-5.1-6.2c-4.4-4.4-12.7-7.6-18.7-8.7
				C94.1,10.2,80,16,70.2,25.9c-2.2,2.2-4,4.7-5.6,7.4C63.4,35.4,60.7,39.4,60.6,42z"/>
		</g>
		<path fill="none" stroke="#231815" stroke-width="0.888" stroke-linecap="round" stroke-linejoin="round" d="M52,102.5
			c0.3,1.3,0.3,2.5,0.3,3.9"/>
		<path fill="none" stroke="#231815" stroke-width="0.888" stroke-linecap="round" stroke-linejoin="round" d="M53.6,111.4
			c0,0.9,0,1.7-0.2,2.6"/>
		<path fill="none" stroke="#231815" stroke-width="0.888" stroke-linecap="round" stroke-linejoin="round" d="M50.9,110.9
			c0,0.7,0.1,1.4-0.2,2.1"/>
		<path fill="none" stroke="#231815" stroke-width="0.888" stroke-linecap="round" stroke-linejoin="round" d="M51.8,116.7
			c0,0.5-0.1,1-0.3,1.4"/>
		<path fill="none" stroke="#231815" stroke-width="0.888" stroke-linecap="round" stroke-linejoin="round" d="M51,121.8
			c-0.2,0.7-0.5,1.3-1,1.8"/>
		<path fill="none" stroke="#231815" stroke-width="0.888" stroke-linecap="round" stroke-linejoin="round" d="M27.9,128.9
			c0.5,0.9,0.3,2.1,0.3,3"/>
		<path fill="none" stroke="#231815" stroke-width="0.888" stroke-linecap="round" stroke-linejoin="round" d="M27,135
			c0,0.7,0,1.6-0.5,2.1"/>
		<path fill="none" stroke="#231815" stroke-width="0.888" stroke-linecap="round" stroke-linejoin="round" d="M29.9,135.1
			c0,0.5,0,1.1-0.2,1.6"/>
		<path fill="none" stroke="#231815" stroke-width="0.888" stroke-linecap="round" stroke-linejoin="round" d="M27.8,139.5
			c-0.2,0.7-0.4,1.6-1.1,2.1"/>
		<path fill="none" stroke="#231815" stroke-width="0.888" stroke-linecap="round" stroke-linejoin="round" d="M167.8,123.2
			c0.2,0.7,0.3,1.5,0.3,2.3"/>
		<path fill="none" stroke="#231815" stroke-width="0.888" stroke-linecap="round" stroke-linejoin="round" d="M166.8,128.8
			c0,0.6,0.1,1.3-0.1,1.9"/>
		<path fill="none" stroke="#231815" stroke-width="0.888" stroke-linecap="round" stroke-linejoin="round" d="M169.1,131.2
			c0,0.6-0.2,1.2-0.4,1.7"/>
		<path fill="none" stroke="#231815" stroke-width="0.888" stroke-linecap="round" stroke-linejoin="round" d="M166.7,134.9
			c-0.2,0.5-0.5,0.9-0.9,1.1"/>
		<path fill="none" stroke="#231815" stroke-width="0.888" stroke-linecap="round" stroke-linejoin="round" d="M161.6,137.6
			c0.3,0,0.5,0,0.8-0.1"/>
	</g>
</g>
</svg>
