<?xml version="1.0" encoding="utf-8"?>
<!-- Generator: Adobe Illustrator 17.1.0, SVG Export Plug-In . SVG Version: 6.00 Build 0)  -->
<!DOCTYPE svg PUBLIC "-//W3C//DTD SVG 1.1//EN" "http://www.w3.org/Graphics/SVG/1.1/DTD/svg11.dtd">
<svg version="1.1" xmlns="http://www.w3.org/2000/svg" xmlns:xlink="http://www.w3.org/1999/xlink" x="0px" y="0px" width="230.6px"
	 height="247.3px" viewBox="0 0 230.6 247.3" enable-background="new 0 0 230.6 247.3" xml:space="preserve">
<g id="Layer_5">
</g>
<g id="Layer_4">
	<g>
		<path fill="#FFFFFF" stroke="#231815" stroke-width="0.9554" d="M73.1,237.2c-0.1,1.9-1.8,9.3,1.9,5.9c1.8-1.6,4-7.5,4-9.7"/>
		<path fill="#85815B" stroke="#231815" stroke-width="0.9554" d="M134.3,189.8c-0.9,8.8,0,18.4,3.8,26.5c3.4,7.2,13.3,8.9,20.2,9.5
			c8.2,0.6,16.5,0.2,23.7-4.3c6.2-3.9,8.4-18.9,9.5-25.4c1.1-6.5,1.7-17.3-4.8-21.2"/>
		<path fill="#C0BB85" stroke="#231815" stroke-width="0.9554" d="M133.8,178c-2.5,9.8-5.1,18.2,5.5,23.6c7.6,3.9,16.7,5,25.1,4.3
			c7-0.6,19.4-3.2,24-9.2c5.8-7.6,0.4-20.6-2.7-28.2"/>
		<path fill="#CFC98F" stroke="#231815" stroke-width="0.9554" d="M150.1,197.1c11.9,0.9,25.9-2,31.5-5.5c4.1-2.6,8.1-7.3,5.9-12.7
			c-1.8-4.6-10.9-7.3-15.1-8.5c-9.8-2.7-23.2-4.3-32.8-0.2c-4.6,2-8.3,5.9-9,11.1C129.3,191.8,138.8,196.2,150.1,197.1z"/>
		<g>
			<g>
				<path fill="#FFFFFF" stroke="#231815" stroke-width="0.9554" d="M58.2,204.6c3.5-1.1,6.9-2.5,9.9-5c4-3.4,2.5-4.7,1-9.4
					c-2.1-6.6-3.1-14.4-6.1-20.5c-2.1-0.1-4.6,2.7-6.7,3.6c-2.9,1.4-5.4,2-8.5,2.5C48.5,178.5,56.5,205.1,58.2,204.6z"/>
				<path fill="#92CA8A" stroke="#231815" stroke-width="0.9554" stroke-linecap="round" stroke-linejoin="round" d="M54.8,178.6
					c-0.2,0-0.4,0.1-0.6,0.1c0.7,1.7,1.7,3.7,1.8,5.5c0.6-0.4,1.4-0.5,2-0.7c-0.1,0-1.4-5.6-1.5-6C56.1,178.1,55.4,178.5,54.8,178.6
					z"/>
				<path fill="#92CA8A" stroke="#231815" stroke-width="0.9554" stroke-linecap="round" stroke-linejoin="round" d="M58.4,177.3
					c-0.2,0-0.4,0.1-0.6,0.1c0.7,1.7,1.7,3.7,1.8,5.5c0.6-0.4,1.4-0.5,2-0.7c-0.1,0-1.4-5.6-1.5-6C59.6,176.7,59,177.1,58.4,177.3z"
					/>
				<path fill="#92CA8A" stroke="#231815" stroke-width="0.9554" stroke-linecap="round" stroke-linejoin="round" d="M61.9,175.6
					c-0.2,0-0.4,0.1-0.6,0.1c0.7,1.7,1.7,3.7,1.8,5.5c0.6-0.4,1.4-0.5,2-0.7c-0.1,0-1.4-5.6-1.5-6C63.2,175,62.6,175.4,61.9,175.6z"
					/>
				<path fill="#92CA8A" stroke="#231815" stroke-width="0.9554" stroke-linecap="round" stroke-linejoin="round" d="M50.7,180.2
					c-0.2,0-0.4,0.1-0.6,0.1c0.7,1.7,1.7,3.7,1.8,5.5c0.6-0.4,1.4-0.5,2-0.7c-0.1,0-1.4-5.6-1.5-6C52,179.6,51.3,180,50.7,180.2z"/>
				<path fill="#92CA8A" stroke="#231815" stroke-width="0.9554" stroke-linecap="round" stroke-linejoin="round" d="M59,192.3
					c-0.2,0-0.4,0.1-0.6,0.1c0.7,1.7,1.7,3.7,1.8,5.5c0.6-0.4,1.4-0.5,2-0.7c-0.1,0-1.4-5.6-1.5-6C60.3,191.7,59.7,192.1,59,192.3z"
					/>
				<path fill="#92CA8A" stroke="#231815" stroke-width="0.9554" stroke-linecap="round" stroke-linejoin="round" d="M62.6,188.5
					c-0.2,0-0.4,0.1-0.6,0.1c0.7,1.7,1.7,3.7,1.8,5.5c0.6-0.4,1.4-0.5,2-0.7c-0.1,0-1.4-5.6-1.5-6C63.8,188,63.2,188.4,62.6,188.5z"
					/>
				<path fill="#92CA8A" stroke="#231815" stroke-width="0.9554" stroke-linecap="round" stroke-linejoin="round" d="M66.2,189.2
					c-0.2,0-0.4,0.1-0.6,0.1c0.7,1.7,1.7,3.7,1.8,5.5c0.6-0.4,1.4-0.5,2-0.7c-0.1,0-1.4-5.6-1.5-6C67.5,188.7,66.9,189.1,66.2,189.2
					z"/>
				<path fill="#92CA8A" stroke="#231815" stroke-width="0.9554" stroke-linecap="round" stroke-linejoin="round" d="M55,193.8
					c-0.2,0-0.4,0.1-0.6,0.1c0.7,1.7,1.7,3.7,1.8,5.5c0.6-0.4,1.4-0.5,2-0.7c-0.1,0-1.4-5.6-1.5-6C56.2,193.3,55.6,193.7,55,193.8z"
					/>
				<path fill="#E3E4E4" stroke="#231815" stroke-width="0.9554" stroke-linecap="round" stroke-linejoin="round" d="M62.6,168.3
					c3.2,3.3-9.9,7.8-11.7,7.8c-3.1,0-4.2-1.6-1.6-3.9c1.4-1.2,3.2-1.9,4.9-2.6C55.8,169,61.1,166.7,62.6,168.3z"/>
				<path fill="none" stroke="#231815" stroke-width="0.9554" d="M52,173.4c0-1.7,6.3-3.6,8.2-2.7"/>
				<path fill="none" stroke="#231815" stroke-width="0.9554" d="M54.7,190.3c-0.4-3,1-3.2,1.8-0.5c0-0.6,0.4-1.4,0.5-2
					c0.4,0.5,1,1.1,1.3,1.8c0.3-0.9,0.4-1.8,0.6-2.7c0.5,0.8,1.3,1.6,2.4,1.3c0-0.7,0.3-1.3,0.3-2c0.5,0.5,1,2.1,2,1.8
					c0.9-0.3,1-2,0.9-2.7c-0.5,2.3,2.7,1,1.4-0.9"/>
			</g>
			<path fill="#F2A6AB" stroke="#231815" stroke-width="0.9554" d="M10.5,223.3c1.5,3.6,4.3,4.8,7,7.3c-2.3,0.2-4.3,1.3-6.7,1.1
				c-0.1,0.4-0.1,0.7,0,1.1c3.4,0.5,7.2,0.5,10.7,0.3c1.3-0.1,4.3-0.2,5.2-1.4c2.8-3.8-3-9.7-6.1-10.7"/>
			<path fill="#F2A6AB" stroke="#231815" stroke-width="0.9554" d="M19.9,195.5c-3,3.4-6.4,11-7.3,15.6c-5.5-1.8-7.8,6.3-5.5,10
				c2.6,4.2,9.1,6.7,13.7,6c10-1.4,16.3-10.7,16.6-20.2c0.1-3.6-1.1-6.9-1.6-10.4c-0.4-2.6-0.2-4.6-2-6.7c-4.1-4.6-11-1.8-15.4,0.9
				c-6.1,3.8,4.6-0.5,3.3,3.9"/>
			<path fill="#231815" stroke="#231815" stroke-width="0.9554" d="M11.5,231.7c-0.9-0.3-1.7-0.8-2.5-1.3c-0.2,0.8,0.2,1.3,0.8,1.5
				c-0.5,0.2-0.8,0.6-1.2,1c1.1,0.2,2.7-0.3,3.7-0.7c-0.2-0.4-0.5-0.3-0.5-0.3"/>
			<path fill="#F2A6AB" stroke="#231815" stroke-width="0.9554" d="M8.9,216.4c-3.9,1.2-8.9,1-8.4-4.1c0.1-1.1,0.6-3.7,2.3-3.4
				c1.4,0.2,1.7,2.1,0.2,2.5c-0.2-0.2-0.5-0.3-0.6-0.5c-0.6,4.6,1.4,5,5.4,3.8"/>
			<path fill="#F2A6AB" stroke="#231815" stroke-width="0.9554" stroke-linecap="round" stroke-linejoin="round" d="M34.4,214.8
				c5.5,0.1,11.5,0,14.1-0.9c3.2-1.1,10.5-6.9,10.3-12.7c0-0.2,0-0.2,0.1,0c-0.1,0-1.8-0.1-2.2,0c-1.2,2.9-5,5.5-8.2,6.5
				c-2.3,0.7-8.6-1.4-13.2-1.6"/>
			<path fill="#F2A6AB" stroke="#231815" stroke-width="0.9554" d="M29,218c2.8,3,5.4,8.3,5.1,12.6c-0.5,7.5-13.1,4.4-17.8,4.1
				c0.2-0.4,0.3-0.7,0.5-1.2c2.7-0.5,5.8-1.5,8.1-2.7c-0.8,0.4-10.4-4.2-11.6-5"/>
			<path fill="#231815" stroke="#231815" stroke-width="0.9554" d="M17,233.7c-0.6-0.6-1.6-1.2-2.4-1.5c0.1,0.5,0.2,1,0.5,1.5
				c-0.5,0.3-1,0.6-1.3,1c1.1,0.3,2.1,0.1,3.2,0c0-0.4,0-0.8-0.1-1.2"/>
			<path fill="#231815" stroke="#231815" stroke-width="0.9554" stroke-linecap="round" stroke-linejoin="round" d="M57.6,199.1
				c1-0.1,2-0.4,2.9-0.8c-1,0.5-0.3,3.7-2.3,3.9c-2.1,0.3-2.1-2.9-1.8-4.4c0.2,0.4,0.7,0.8,0.9,1.3
				C57.3,199.1,57.5,199.1,57.6,199.1z"/>
			<g>
				<path fill="#F2A6AB" stroke="#231815" stroke-width="0.9554" d="M16.3,176c2-3.9,2.6-8.4,7.5-9.4c0.5,4.3,4.1,9.5,1.2,13.5"/>
				<path fill="#F2A6AB" stroke="#231815" stroke-width="0.9554" d="M44.8,191.2c5.3-1,7.2,3.1,5.6,7.6c-2.1,6.1-5.8,5.6-10.8,4.1"
					/>
				<path fill="#F2A6AB" stroke="#231815" stroke-width="0.9554" d="M48.4,194.8c1.5-5.7,2.6-11.5-2.1-16.6
					c-3.6-3.8-9.3-5.8-14.4-6.5c-11.8-1.6-23.6,4-24.3,17c-0.6,11.3,15.4,16.8,24.2,18c8.3,1.1,13.8-1.2,15.9-8.9
					C47.9,196.8,48.1,195.8,48.4,194.8z"/>
				<path fill="#F2A6AB" stroke="#231815" stroke-width="0.9554" d="M34.6,177.3c-2.3-4,7.4-7.8,10.4-7.7c1,5.2,1.9,10-1.8,14.5"/>
			</g>
		</g>
		<path fill="#FBE5D3" stroke="#231815" stroke-width="0.9554" d="M188.9,231.5c-1.9,4.2,2.6,7.1,6.4,7.3c3.1,0.1,2-1,1.5-3
			c-0.4-1.8-0.4-4-0.4-5.9c-1.8-0.2-3.6,0.5-5.4,0.4"/>
		<path fill="#FBE5D3" stroke="#231815" stroke-width="0.9554" d="M119,216.2c1.1,2,1.7,4.6,2.5,6.7c-1.8,0.4-4.2,3.4-5.5,4.8
			c1.1,0.5,2.8-0.6,3.9-1c1.3-0.5,2.4-1.3,3.5-1.9c1.5-0.8,4.9-1.7,5.5-3.2c0.8-1.9-0.4-5.9-0.7-7.9c-0.4-3,0-8.8-2-11.1"/>
		<path fill="#999A9A" stroke="#231815" stroke-width="0.9554" stroke-linecap="round" stroke-linejoin="round" d="M125.5,191.8
			c8.4-2,17.5-1.9,26.1-2.8c8.2-0.9,16.5-1.9,24.4-4.2c-0.8,0.2,5.6,8.1,6.1,8.9c2.5,3.8,3.8,9.5,4.6,14.1
			c1.5,7.6,1.3,17.4,1.2,25.1c0.6,0,9.7-0.5,9.7-0.2c0.2-10.1,3.9-19.2,5.7-28.8c2.6-14.1,4.2-34-5.6-45.6c-0.6-0.7-2-1.1-2.4-1.9
			c-0.8-1.7,0-5.9,0-7.8c0-4.2,0.6-5.6-3.8-5.9c-5.4-0.3-11.3,0.4-16.7,0.7c-6.9,0.3-13.1-0.1-20-0.4c-3.8-0.2-7.9-0.7-11.7-0.3
			c-4.1,0.4-8.2,1.3-12.1,2.5c-1.3,0.4-3.9,0.9-4.8,2c-0.7,1-0.1,6.6-0.3,6.7c-10.6,5.3-20.9,12.4-20.9,27.3c0,7,2.5,13.7,5.5,20
			c2.5,5.4,6.1,10.2,8.6,15.6c-0.3-0.7,9.3-2.6,10-2.8c-0.6,0.2,0.5-7.7,0.6-8.5c0.8-5.4-0.8-9.6-4.6-13.4
			C125.1,191.9,125.3,191.9,125.5,191.8z"/>
		<path fill="#FBE5D3" stroke="#231815" stroke-width="0.9554" d="M116.1,152.9c0,20.1,39,19.3,51.8,18.8c7.2-0.3,27-3.8,28.9-8.2
			c3.1-7.2-6.6-16.1-12.6-19c-8.1-4-17.6-3.5-26.3-3.8c-11-0.4-26.1-0.9-35.7,5.5"/>
		<path fill="#FFFFFF" stroke="#231815" stroke-width="0.9554" d="M132,76.1c-6.4-0.1-12.1,10.7-12.3,15.9
			c-0.1,4.2-2.1,14.4,1.4,16.9c2.4,1.7,8.2,3.2,10.6,1.6c0,4.7-0.6,9.2-1.6,13.7c-6,3.5-9.3,5.4-12.5,11.7
			c-3.3,6.5-3.9,11.5-1.9,20.4c3.2-2.2,6.2-3.6,9.9-4.3c20.7-4,55.7-3.9,71.4,11.7c4.4-5.9,3-16.9,1.3-23.7
			c-0.7-2.6-2.2-5.4-2.7-7.9c-0.9-4.2-3.5-13,0.7-13.3c6.7-0.6,6.8-12,7.8-17.9c2-10.9-2-16.5-14.5-18.3c-10.5-1.5-21-0.7-31.6-1.4
			c-5.8-0.4-7.6-2.2-11.7-5.7c-1.7-1.5-3.2-3-5.6-2.5"/>
		<path fill="#FBE5D3" stroke="#231815" stroke-width="0.9554" d="M113.1,86.8c-12.9,7.2-31,13.7-38.9,27
			c-2.8,4.8-2.8,13.6,2.1,17.1c6.3,4.6,19.5-0.9,25.7-4c9.9-4.9,20.9-9.3,29.8-15.9"/>
		<path fill="#FBE5D3" stroke="#231815" stroke-width="0.9554" d="M197.6,107.3c1.4,5.2,0.4,18.3,4.7,22.4c2.9,2.8,16,9.1,18.2,4.8
			c2.1-4.2-0.2-20.2-0.9-24.6c-1.3-8.4-5.5-8.6-14.4-10.7"/>
		<path fill="#FBE5D3" stroke="#231815" stroke-width="0.9554" d="M221.2,130.2c0.2,10.7-12.2,14.2-19.2,9.7
			c-5-3.2-8.8-7.7-12.7-12.1c-2-2.3-4.2-4.6-6.2-6.9c-2.4-2.7-0.4-4.9,1.2-7.9c1.7-3.3,3.5-1,6.2,0.5c5.9,3.2,14.9,3.9,19.3,9.2"/>
		<path fill="#FFFFFF" stroke="#231815" stroke-width="0.9554" d="M195.1,84.2c2.7-1.9,9.3,0.5,12.2,2.1c4.5,2.6,7.4,6.1,9.9,10.6
			c2.9,5.3,3.6,11.7,3.3,17.4c-5.4-6-16.1-2.7-22.5-1.4c-0.3-2.6-1-5.5-1.2-9.1"/>
		<path fill="#FADABB" stroke="#231815" stroke-width="0.9554" d="M183.4,110.4c-1.2-3.4-5.6-1-6.5,1.3c-1,2.4-1.3,8.3,0.9,10.3
			c3.9,3.5,7.8-0.9,9-4.5"/>
		<circle fill="#FBE5D3" stroke="#231815" stroke-width="0.9554" cx="120.5" cy="57.9" r="8.4"/>
		<circle fill="#FBE5D3" stroke="#231815" stroke-width="0.9554" cx="210.5" cy="69.2" r="8.4"/>
		<path fill="#FBE5D3" stroke="#231815" stroke-width="0.9554" d="M209.2,75.9c-2.7,11.5-11.4,19.8-23.2,21.6
			c-15.3,2.2-31.8-0.7-46.4-5.5c-5.6-1.8-11.1-4.5-15.4-8.5c-8.4-7.9-9.1-18.8-3.6-28.6c0.6-1.1,0.1-17.1,5.4-26
			c12.9-21.5,40.8-28.5,62.3-15.6c8.5,5.1,15,13,18.7,22.2c2.9,7.4,3.1,14.6,3.1,22.3c0,5.4,0.5,11.7-0.6,16.9
			C209.4,75,209.3,75.4,209.2,75.9z"/>
		<path fill="#412F0E" stroke="#231815" stroke-width="0.9554" d="M216.2,55.7c1.3-3.5,2.6-7,3-10.9c0.4-4,1.6-10.6-0.2-14.4
			c-0.3-0.7-4-4.8-4-5c-0.2,0.8-0.6,1.6-0.8,2.5c0-5.2-2.1-10.8-6-14.3c0.5,0.5,1,1.1,1.5,1.6c-4.9-6.1-13-6.6-19.7-10
			c0.8,0.6,1.6,1,2.3,1.7C190.7,7,189,6,187.7,5.3c0.2,0.4,0.2,0.9,0.4,1.2c-0.1,0.2-0.2,0.3-0.4,0.4c-2.1-0.5-4-1.7-6-2.4
			c0.8,1,2.3,1.5,3.3,2.2c-6.4-2.1-12.9-3.9-19.4-5.9c1.5,1.1,3.3,1.4,4.9,1.9c-3.5-0.7-7.3-2.3-10.9-2.1c0.5,0.2,1.1,0.6,1.6,0.7
			c-3.9,0.8-8.2-0.8-12.3,0.2c1.3,0.1,2.7,0,3.9,0.3c-3.5-0.3-6.8,0.6-10.3,0.7c0.9,0,1.8-0.1,2.6-0.2c-3.1,0.5-6.7,0.9-9.7,1.7
			c0.7,0.8,1.7,1.2,2.8,1.4c-2.1,0.7-6.9,0.7-8.4,2.8c0.8-0.4,1.8-0.5,2.7-0.3c-3.7,2.6-7.2,4.4-10.4,7.8c2-0.7,2.9-2.5,5.3-2.3
			c-3.5,1.9-7.8,10.8-9.6,14.5c0.9-1.8,5.4-9.5,7.3-9.8c-7.8,1.3-8.5,22.9-8.1,28.4c0.4,5.2,2.5,10.9,1.2,16.1
			c0.4-1.8,1.8-3.6,2.2-5.6c0.5-2.2,0.4-4.5,1-6.7c1.1-4.5,3.2-8.6,6-12.2c1.8-2.4,8.9-5.4,9.2-8.1c-0.4,2.7,0.6,6.9,3.3,7.9
			c-0.4-1.2-0.6-2.6-0.3-3.9c0.4,2.9,3.2,4.9,6,5.1c-0.4-0.6-0.8-1.4-1.3-1.9c2,2.3,4.6,4.8,7.9,4.7c-0.2-1.3-0.9-2.5-1.9-3.4
			c2.3,3,6.8,5.8,10.5,6.2c-1-1.3-2-2.6-3.1-3.7c1.6,2.4,5.2,5.1,8.3,4.1c-0.4-1.1-0.8-2.3-1.1-3.4c1,1.2,1.1,2.8,2.1,4
			c1.4-1.2,2.6-2.7,4.7-2.7c-0.9,0.7-1.3,1.8-2,2.6c2.8,0.8,5.8-0.9,8.5-1.7c-1.3,0.4-1.2,0.8-1.9,1.5c4.1,1.3,7.8-1.4,11.1-3.4
			c0.1,6.3,8.5-2.6,9.5-4.1c0,1.8-0.7,3.5-1.1,5.2c1.9,0.8,3.4-0.4,4.9-1.4c-0.8,4.4-0.1,9,0.9,13.3c0.7,3,2.4,10.6,5.6,11.5
			c2.1,0.6,1.6,9.3,1.5,10.9c3.7-2,3.7-9,4.6-12.7C213.9,61.5,215.1,58.6,216.2,55.7z"/>
		<path fill="none" stroke="#F4B2A0" stroke-width="0.9554" d="M186,79.6c0.1,0.6-0.3,2.3-0.7,2.9"/>
		<path fill="none" stroke="#F4B2A0" stroke-width="0.9554" d="M188.9,79.2c0.3,0.8-0.2,3.2-0.4,4"/>
		<path fill="none" stroke="#F4B2A0" stroke-width="0.9554" d="M191.5,78.4c0.2,0.8,0.2,2.4,0.4,3.4"/>
		<path fill="none" stroke="#F4B2A0" stroke-width="0.9554" d="M138.1,69.9c-0.5,1-0.9,2.3-1.7,3.1"/>
		<path fill="none" stroke="#231815" stroke-width="0.9554" d="M162.3,77.3c-0.4,1-1,1.8-2,2.1c0,1.1,1.2,1.5,2.3,1.4"/>
		<path fill="none" stroke="#F4B2A0" stroke-width="0.9554" d="M140.7,70.8c-0.1,1.2-0.5,2.5-1.2,3.5"/>
		<path fill="none" stroke="#F4B2A0" stroke-width="0.9554" d="M144.1,71.1c0.3,1.2-0.5,2.5-0.3,3.4"/>
		<path fill="none" stroke="#231815" stroke-width="0.9554" stroke-linecap="round" stroke-linejoin="round" d="M188.9,46.9
			c1.6-1.2,3.5-0.8,4.4,1.1"/>
		<path fill="none" stroke="#231815" stroke-width="0.9554" stroke-linecap="round" stroke-linejoin="round" d="M142.3,45.4
			c1.2-1.4,2.8-1.8,4.3-0.7"/>
		<path fill="#CB2F2E" stroke="#231815" stroke-width="0.9554" d="M180.1,90c0.7-0.3,0.4,9.7,0.1,10.8c-1.9,7.5-2.7,17.7-12.5,16.6
			c-9-1-19.4-2.9-27.8-6.1c0-4.8,0-9.6,0.6-14.4c0.4-3.2,1.8-12.6,5.9-12.3c2.1,0.2,3.8,1.3,6,1.7c5.2,0.9,10,0.8,15.2,2.4
			C171.6,90.1,176.3,91.8,180.1,90z"/>
		<g>
			<path fill="#F8BD57" stroke="#231815" stroke-width="0.9554" stroke-linecap="round" stroke-linejoin="round" d="M140.4,111
				c-0.9,0.5-1.7,3.3-1.9,4.3c-1.1,5.7,9,6.1,12.4,6.6c4.9,0.8,9.9,1.3,14.9,1.4c2.6,0.1,7.9,0.8,10.4-0.6c2.1-1.2,1.4-5.1,1.1-7.1"
				/>
			<path fill="#75BA2A" stroke="#231815" stroke-width="0.9554" stroke-linecap="round" stroke-linejoin="round" d="M175.1,113.8
				c2.1,1,5.2,2.5,3.4,5.1c-2.5,3.5-7.8,0-10.8,0.7c-1.6,0.4-2.2,1.6-4,1.2c-2.1-0.5-3.1-3.5-5.6-3c-1.4,0.3-2.1,1.4-3.6,1.2
				c-1.3-0.1-1.8-1.3-3-1.6c-1-0.2-1.2,0.3-2.4,0.5c-1.9,0.4-5.4-0.6-5.3-3c-1.7,0.8-4.6,2.4-6,0.3c-0.9-1.5,0.2-2.8,1.7-3.5"/>
			<path fill="#E7421F" stroke="#231815" stroke-width="0.9554" stroke-linecap="round" stroke-linejoin="round" d="M176.7,115.3
				c0.2-0.3,0.4-0.8,0.5-1.2c1.1-5.7-11.3-2.8-14.2-2.9c-4.4-0.1-9.2-1.1-13.5-1.8c-2.3-0.4-10.6-3.5-10.1,1.5
				c0.4,3.9,8.1,4,10.8,4.2c5.4,0.5,10.6,1.5,16.1,1.7C169,116.9,174.8,118.4,176.7,115.3z"/>
			<path fill="#845123" stroke="#231815" stroke-width="0.9554" stroke-linecap="round" stroke-linejoin="round" d="M139.5,104.4
				c-4,9,8.5,6.9,13.4,8c4.5,1.1,9.1,1.6,13.7,1.8c3.5,0.2,11.3,2.7,12.7-2.4c0.6-2.1,0.1-5.7-1-7.6c-1.9-3-6.9-2.4-9.9-2.3
				c-5.7,0-11-0.9-16.4-2.1c-4.1-0.9-9-1.3-12.6,1.1"/>
			<path fill="#75BA2A" stroke="#231815" stroke-width="0.9554" stroke-linecap="round" stroke-linejoin="round" d="M139.6,99.4
				c-2,0.5-5.4,4.4-3.7,6.8c1.7,2.5,6.5,0.2,8.9,1.2c1.4,0.6,2.2,2.2,3.7,2.6c1.8,0.5,3-0.8,4.7-1.2c3-0.7,4.2,2.3,6.9,3
				c2,0.5,3.9-0.9,5.7-1.4c1.6-0.5,1.5-0.3,3.2,0c1.5,0.3,3.3,0.8,4.8,0.7c1.4,0,2.8-1,4.2-1c1.5,0,1.8,0.7,3.1,0
				c1.6-0.8,1.6-1.5,0.9-2.7c-0.8-1.4-3.7-2.5-5.1-3.6c-4.4-3.2-9-4.1-13.9-5.9c-3.1-1.2-6.4-2.9-9.9-2.4c-2.8,0.4-5.8,2-8.6,2.8"/>
			<path fill="#F8BD57" stroke="#231815" stroke-width="0.9554" stroke-linecap="round" stroke-linejoin="round" d="M180.8,98.6
				c0.6,1.6,1,3.3,1.2,5.1c0.3,3.7-2.4,4.3-5.6,4.7c-5.1,0.7-10.6,0-15.7-0.8c-4.5-0.7-9.3-1.3-13.7-2.3c-2.7-0.7-8.7-2.1-9.7-5.2
				c-0.9-3.1,3.4-7.7,5.3-9.2c5.3-4.1,12-4.8,18.4-4.1c3.1,0.4,6.1,1.1,9.1,2C175.1,90.3,179,93.9,180.8,98.6z"/>
			<path fill="none" stroke="#231815" stroke-width="0.9554" stroke-linecap="round" stroke-linejoin="round" d="M172.7,94.1
				C170.3,95.8,173.9,98,172.7,94.1"/>
			<path fill="none" stroke="#231815" stroke-width="0.9554" stroke-linecap="round" stroke-linejoin="round" d="M162.4,98.3
				c-0.4,0.4-0.5,1-0.9,1.5c0.1,0.1,0.3,0.4,0.4,0.5c0.8-0.5,0.7-1.4,0.4-2.3"/>
			<path fill="none" stroke="#231815" stroke-width="0.9554" stroke-linecap="round" stroke-linejoin="round" d="M154.5,92.2
				c-0.8,0.1-1.4,0.7-1.6,1.4c0.1,0.2,0.2,0.3,0.4,0.3c0.8-0.4,1.1-1.1,1-1.9"/>
			<path fill="none" stroke="#231815" stroke-width="0.9554" stroke-linecap="round" stroke-linejoin="round" d="M164.6,89.7
				c-0.2,0.7-0.2,1.5-0.3,2.2c0.3,0.1,0.5,0.1,0.8,0.1C165.4,91.1,165.2,90.4,164.6,89.7"/>
			<path fill="none" stroke="#231815" stroke-width="0.9554" stroke-linecap="round" stroke-linejoin="round" d="M146,95.3
				c-1,0.5-1.5,1.6-1,2.6c1-0.5,0.9-1.7,1.1-2.8"/>
			<path fill="none" stroke="#231815" stroke-width="0.9554" stroke-linecap="round" stroke-linejoin="round" d="M176.7,99.6
				c-0.7,0.9-1.1,2.1-0.5,2.9C177.5,102,176.6,100.7,176.7,99.6"/>
		</g>
		<path fill="#FBE5D3" stroke="#231815" stroke-width="0.9554" d="M143.5,81.6c-4.7,4.3,1.1,6.6,4.4,8.6c3.8,2.3,8.4,3.4,12.8,4.2
			c5.5,1,11.4,1.1,16.8-0.3c2.5-0.7,7.8-5.1,4.1-7.9"/>
		<path fill="none" stroke="#231815" stroke-width="0.9554" d="M185.1,69.2c0.2-2.1,2.5-1.6,4.4-1.6"/>
		<path fill="none" stroke="#231815" stroke-width="0.9554" d="M144,58.7c2.8-0.6,2.9,2.1,3.1,3.7"/>
		<path fill="#FBE5D3" stroke="#231815" stroke-width="0.9554" d="M177.2,101.1c-1.1,1.8-0.1,4.5,2.5,4.7c0.2,2.4,2.2,4.5,2.1,6.8
			c-0.2,2.5-2.1,6.1-3.3,8.2c-1.2,2-4.2,2.4-6.4,2.3c-1.2-0.1-2.2-1-2.9,0.4c-1.5,3.1,5.3,3.2,6.8,2.9c3.6-0.8,7.8-1.8,10.2-4.8
			c2.5-3.1,3.2-9.4,0.7-12.7C186.2,108.1,177.7,100.3,177.2,101.1z"/>
		<path fill="none" stroke="#231815" stroke-width="0.9554" d="M148.7,158c-0.4,0.4-2.1,1.8-2.6,2"/>
		<path fill="none" stroke="#231815" stroke-width="0.9554" d="M146.3,157.8c0.4,1.1,1.5,1.5,2.3,2.3"/>
		<path fill="#16041C" stroke="#231815" stroke-width="0.9554" d="M113.6,227.4c1.5-2.3,5.8-2.5,7.7-4.8c1.4,0.6,3.5,0.3,4.7-0.4
			c0.5-0.3,3.5-3.3,3.3-3.4c1.2,1,1.3,4.1,1.5,5.6c-1,0.2-1.8,0.9-2.9,1.1c-0.1-0.5-0.5-1-0.6-1.5c-0.5,0.6-0.8,1.6-1.1,2.4
			c-0.2,0.7-9.1,2.5-10,2.7C114.7,229.6,112.2,229.6,113.6,227.4z"/>
		<path fill="none" stroke="#231815" stroke-width="0.9554" d="M126.8,216c0.3-0.1,0.6-0.1,0.7,0.2"/>
		<path fill="none" stroke="#231815" stroke-width="0.9554" d="M121.8,218.5c-0.1,0.3-0.2,0.5-0.5,0.7"/>
		<path fill="none" stroke="#231815" stroke-width="0.9554" d="M125.6,218c0.2,0.3,0.4,0.5,0.7,0.7"/>
		<path fill="none" stroke="#231815" stroke-width="0.9554" d="M123.6,216.5c-0.2,0.2-0.3,0.3-0.5,0.5"/>
		<path fill="#16041C" stroke="#231815" stroke-width="0.9554" d="M197.5,236.1c-0.1,2.6,3.1,4.5,3.9,6.8c2.6,8.3-8.2,1.3-10.1-1.7
			c-1.2-1.9-3.3-4.8-2.6-6.7c1.6,1.5,2.6,3.4,4.1,4.9c-0.2-1-0.6-1.9-0.8-2.8C192.4,236.7,197.5,236.6,197.5,236.1z"/>
		<g>
			<path fill="#E3E4E4" stroke="#231815" stroke-width="0.9554" d="M62.5,176.8c-0.3-3.4-2.7-6.3-0.1-9.2c4.5-5,13.8-6.7,20.2-7.2
				c8-0.7,14.8-0.3,22.6,2c3.6,1.1,10.6,5.2,10.9,8.2c0.3,4.1-2.3,9.3-5.3,11.7c-6.9,5.5-17.5,4.4-25.7,3.6
				c-5-0.5-10.6-0.5-15.2-2.6c-3.8-1.8-4.8-3.9-6.6-7.2"/>
			<path fill="#FFFFFF" stroke="#231815" stroke-width="0.9554" d="M70.6,181.7c-2.4-1.2-4.3-0.6-4.8-4.1c-0.2-1.4,0-3.2,2-2.4
				c-2.6-2,1.1-6.6,2-4.5c-0.9-2.1,1.4-6.5,2.9-3.7c0.3-2.1,3.6-4.1,4.7-1.3c1.4-2.8,3.8-1.7,5.8-0.3c1.3-3.4,4.1-0.4,4.6,1.6
				c1.9-2.4,5.6-1.6,4.9,1.9c1.1-2.5,3.8-2.5,5-0.2c1.3-1.4,4-1.3,4.5,0.8c2.1-1.4,3.9,0.7,3.6,3c0.3-0.9,1.1-1.4,2-1.3
				c0.5,1,0.9,2.8,0.2,3.4c1.7,0.4,0.8,3.4-1,3.2c0.8,1.8-1,5.1-3.1,4.1c0.5-0.1,0.5,0.3,0.8,0.4"/>
			<path fill="#EC796C" stroke="#231815" stroke-width="0.9554" d="M94.5,156.4c-0.7-1.8-0.1-8.5,3.2-8.4c0.1,0.9,0,1.9,0.1,2.8
				c2.5-1.7,6.9-2,5,1.8c-1.5,2.9-4.5,4.2-7.3,5.3"/>
			<path fill="#F5B168" stroke="#231815" stroke-width="0.9554" d="M71.3,172.6c-3.1-2.2,4.6-6.8,7.2-3.2c-0.2-1.9,2.5-3.2,3.9-1.9
				c-0.4-1.9,1.3-3.5,2.8-2.6c-0.6-1.7,0.9-3,2.5-2.3c-1.4-2.7,2.6-7.2,4.5-4.3c0.2-1.8,3-2.6,4.4-1.3c1.3,1.3,0.7,5.1-1.1,5.5
				c1.9,0.9-2.4,6.9-4.1,7.3c-0.2,1.2-1.4,2.8-2.6,2.5c-0.7,1.2-2.2,2.2-3.5,2.2c-0.7,2.2-3,3.3-4.5,1.1c0.1,3.2-3.2,1.7-4.1,0
				c-1.3,2.4-5.2-0.6-5.3-2.8"/>
			<path fill="none" stroke="#231815" stroke-width="0.9554" d="M90.8,164.6c0.8,0.4,0.8,0.8,0.2,1.1"/>
			<path fill="none" stroke="#231815" stroke-width="0.9554" d="M82.6,172.3c0.9,1.2,2.3,0.6,2.7-0.9"/>
			<path fill="none" stroke="#231815" stroke-width="0.9554" d="M86.9,168c0.4,1.5,1.9,1.7,2,0"/>
			<path fill="none" stroke="#231815" stroke-width="0.9554" d="M75.8,172.3c-1.1-0.4-0.7-1.1,0.2-1.6"/>
			<path fill="#F9CB94" stroke="#231815" stroke-width="0.9554" d="M100.4,178.7c-2.7,0.6-9.8,2.4-10.4-1.6c-0.4-2.8,2-6.8,3.6-8.9
				c2.1-2.9,5.3-6.7,8.9-7.8c2.6-0.8,5.6-1,7.4,1.3c1.3,1.6,2.8,6,2.6,8.1C111.8,176,105.4,177.6,100.4,178.7z"/>
			<path fill="none" stroke="#231815" stroke-width="0.9554" d="M104.5,165.7c0.7,0.2,1.1,0.7,1.1,1.4"/>
			<path fill="none" stroke="#231815" stroke-width="0.9554" d="M108.1,172.3c0.2,0.8-0.1,1.3-0.9,1.4"/>
			<path fill="none" stroke="#231815" stroke-width="0.9554" d="M96,174.6c0.5,0.4,1.2,0.7,1.8,0.7"/>
			<path fill="none" stroke="#231815" stroke-width="0.9554" d="M99.2,170.7c-0.1-0.5,0.3-1,0.9-1.4"/>
			<path fill="none" stroke="#231815" stroke-width="0.9554" d="M107.2,162.5c0.7,0.3,1.1,0.9,1.1,1.6"/>
			<path fill="none" stroke="#231815" stroke-width="0.9554" d="M97.4,167.3c0.3-0.8,0.9-1.6,1.8-1.8"/>
			<path fill="none" stroke="#231815" stroke-width="0.9554" d="M102,174.1c0.2,0.5,0.8,0.6,1.4,0.5"/>
			<path fill="#85C25D" stroke="#231815" stroke-width="0.9554" d="M79.9,178c-2.3-0.6,0.9-5.1,2.6-1.9c-1-0.4-1.1-2.3-0.4-3.1
				c0,0,0.3,0.3,0.4,0.4c-0.8-1.7,1-2.2,2.3-1.5c-0.1,0.3,0,0.5-0.2,0.9c-1.1-1.8,2.2-4.4,3.7-2.5c-1.1-3.1,5.1-2.2,3.5,0.3
				c1.4-3.3,4.2,0.7,2,2.5c2.7-1.4,1.7,2.9,0.4,3.8c0.5-0.9,1.6-1.3,1.2,0.1c-0.4,1.4-2.1,2-3.4,1.8c0.2,0,0.6,0,0.8,0
				c0.2,1.9-6.2,0.7-7.9,0.7c0,0,0.4-0.3,0.4-0.2c-1.3,2.1-3.3,1-3.6-0.9c-0.5,0.6-1.3,0.9-2.1,0.7c-0.1-0.6-0.1-1.4,0.2-2"/>
			<path fill="#FFFFFF" stroke="#231815" stroke-width="0.9554" d="M86.3,211.5c7.2,0,4.7-9.1,5.9-13.2c0.6-2,4.8-6,7.2-4.8
				c2.9,1.4,0.3,5.9-2.4,6.3c1.9-0.3-0.8,10-1.5,11.2c-1.2,2.1-2.2,4-4.3,5.4c-1.7,1.2-5.1,1-5.3,3.2c-0.2,2.3-1.8,9-1.4,8.9
				c0.2-0.1,6.6,1.4,8.8,3.8c4.2,4.5-10.7,6.6-13.7,7c-5.2,0.7-13.7,0.3-12.6-7c0.4-3.1,2.6-5,2.5-5.7c-0.2-2.3,0.6-10.4-0.5-15.5"
				/>
			<g>
				<path fill="#FFFFFF" stroke="#231815" stroke-width="0.9554" d="M62,179.8c0.9,3.1,2.2,6.1,3.3,8.2c4.1,7.6,11.2,8.5,18.9,8.5
					c7.1,0.1,15.2,0.7,21.6-2.9c4.9-2.7,7.6-7.2,9-12.1c-3.9,2.7-10.9,5.5-23.3,5.5C72.8,187.1,66,182.8,62,179.8z"/>
				<path fill="#FFFFFF" stroke="#231815" stroke-width="0.9554" d="M91.7,183.9c13-0.6,20.1-4,24-7c0.3-2.7,0.4-5.4,0.3-8
					c0.1,3.2-6.5,5.8-8.7,6.6c-4.3,1.4-9.5,2.4-14,2.7c-6.3,0.4-10.7,0.2-19.9-2.2c-1.6-0.4-12.7-5.6-11.2-8
					c-1.1,1.9-1.3,4.3-1.1,6.9C65.2,178.6,74.7,184.7,91.7,183.9z"/>
				<path fill="#C4E0F5" stroke="#231815" stroke-width="0.9554" d="M91.7,183.9c-17,0.8-26.5-5.3-30.7-8.9c0.2,1.6,0.5,3.3,1,4.9
					c4,2.9,10.8,7.3,29.5,7.3c12.4,0,19.4-2.9,23.3-5.5c0.4-1.5,0.7-3.1,0.9-4.6C111.9,179.9,104.7,183.3,91.7,183.9z"/>
			</g>
			<path fill="#FFFFFF" stroke="#231815" stroke-width="0.9554" d="M83,192.2c-11.9-6.5-24.8,2.4-22.2,15.6c0.7,3.5,4.5,7.7,7.9,8.5
				c7.1,1.6,17.3-1.4,19.8-6.6C91,204.5,88.1,195,83,192.2z"/>
			<path fill="#FFFFFF" stroke="#231815" stroke-width="0.9554" d="M64.2,197.5c-0.5-3.1-7.6-18.4-2.3-19.6c5-1.1,5.7,14,6.8,17.3"
				/>
			<path fill="#FFFFFF" stroke="#231815" stroke-width="0.9554" d="M79.9,197.1c1.4-2.5,4.4-19.1,10.2-15.5c4.3,2.7-4.6,15-6.6,17.5
				"/>
			<path fill="#FFFFFF" stroke="#231815" stroke-width="0.9554" d="M68.2,232.2c-0.1-2.3,2.2-3.2,2.3-0.6c1.7-0.5,2.3,1.3,0.8,1.9
				c-0.2,0-0.2,0,0,0c1,1.5-0.4,2.9-1.9,2.1c-0.2,1.4-0.3,1.2-1.4,1.4c0-0.2-0.1-0.3-0.1-0.5c-1.8,1.6-3.7-1-1.9-2.6
				c-2.6,2.3-2.7-2-0.6-1.8C65.3,229,68.6,229,68.2,232.2z"/>
		</g>
		<path fill="none" stroke="#231815" stroke-width="0.9554" d="M99.7,152.1c-0.6,1.4-1.8,3.1-3.4,3.2"/>
		<g>
			<path fill="#E1E2E2" stroke="#231815" stroke-width="0.9554" d="M117.5,94.3c-3.2,5.5-9.2,10.5-11,16.7c-0.8,2.8,0.2,9.6,3.2,4.6
				c1.8-3,2.7-6.8,4.3-10c1.6-3.2,3-6.6,4.7-9.8"/>
			<path fill="#E1E2E2" stroke="#231815" stroke-width="0.9554" d="M119.4,86.6c-2.6,2.7-5,7.1-1.1,10.3c3.3,2.8,5.4-1.3,7.3-3.7"/>
			<path fill="#9E5A32" stroke="#231815" stroke-width="1.0237" d="M134.3,82.4c0.1-0.1,0.2-0.1,0.4-0.2c-0.1,4-0.7,7.9-0.8,11.9
				c0,2.7,0.7,6.2-1.9,8c-1.8,1.3-4.8,1.4-6.7-0.1c-4.4-3.4-7.1-12.1-7-17.4c0.1-4.5,2.4-10.7,6.7-12.8c2.1-1,2.6,0,4.6,0
				c-0.6,3.3-1.4,4.2,0.2,7.3C130.8,81,132,83.6,134.3,82.4z"/>
			<path fill="#90502B" stroke="#231815" stroke-width="1.0237" d="M124.9,77.4c-0.8,3.3-0.3,7.5,0.3,10.7c0.8,4.7,2,13.2,8,13.5
				c-0.2,1.5-2.9,2.5-4.4,2.6c-2,0.1-3.1-1.1-4.3-2.5c-3.3-4-6.3-10.3-6.6-15.5c-0.2-4.6,0.1-8,3.2-11.7c1.6-2,5.4-4.6,7.9-2.5
				C128.2,71.2,125.1,76.7,124.9,77.4z"/>
			<path fill="#E1E2E2" stroke="#231815" stroke-width="0.9554" d="M136,82.1c-0.5,1-7.8,0.5-9,0.6C125.4,78.4,137.1,80,136,82.1z"
				/>
			<path fill="#E1E2E2" stroke="#231815" stroke-width="0.9554" d="M133.8,86.2c-0.9-1.3-6.8-2.4-6.4,0.1c0.2,1.7,4.6,1.5,5.9,0.9
				C133.9,86.9,134,86.5,133.8,86.2z"/>
			<path fill="#E1E2E2" stroke="#231815" stroke-width="0.9554" d="M134.9,91.3c-0.9-0.8-3.6-1-4.4-1.1c-0.9-0.1-4.6-0.7-3.4,1.6
				c0.8,1.6,3.2,1.1,4.5,1.1C132.2,93,136.7,93,134.9,91.3z"/>
			<path fill="#FCFCFC" d="M120.2,84.3c0.1,0.2,0.2,0.3,0.4,0.4c0.8-1.4,0.1-3.6,0.4-5.2c0.2-1.1,1-2,1.1-2.9
				c-1.6,0.2-2.5,1.7-2.8,3.1C119,80.8,119.4,83.2,120.2,84.3z"/>
		</g>
		<path fill="#FBE5D3" stroke="#231815" stroke-width="0.9554" d="M85.4,104.6c3.8-2.9,8.3-5.1,13-6.2c4.9-1.2,17.2-2.6,20,3.2
			c1.9,3.8-1,9.8-5.1,11.1c-2.1,0.7-3.8-0.2-5.5-1.5c-2.2-1.6-2.4-2.8-4.6-0.8c-6.2,5.5-6.8,15.2-13.2,20.6c-5,4.2-14,2.4-16.3-3.5"
			/>
		<path fill="#FFFFFF" stroke="#231815" stroke-width="0.9554" d="M93.2,232c7.4,6.8-4.8,10.5-9.5,12c-2.3,0.7-6.8,2.1-6.8-1
			c0-2.7,8.9-4.7,11.6-6.9"/>
		<path fill="#D6A34B" stroke="#231815" stroke-width="0.9554" stroke-linecap="round" stroke-linejoin="round" d="M185.7,94.7
			c3,0.7,1.9-4.3-0.3-3.5C183.8,91.8,184.2,94.3,185.7,94.7z"/>
		<path fill="#FFFFFF" stroke="#231815" stroke-width="0.9554" d="M184.2,74.4c-0.3-1.3,0.5-4,0.9-5.2c1.6,0.2,3.4,0.9,5.1,0.9
			c0.1,1.5-0.4,3.6-0.9,4.9C188.5,75.3,184.3,74.8,184.2,74.4z"/>
		<path fill="#231815" stroke="#231815" stroke-width="0.9554" d="M184.2,73.7c-0.1-1.9,2.4-1.7,1.8,0.4c-0.9,0.6-2,0.3-2-0.9"/>
		<path fill="#FFFFFF" stroke="#231815" stroke-width="0.9554" stroke-linecap="round" stroke-linejoin="round" d="M142.8,61
			c-0.2,0-0.3-0.1-0.4-0.1c-0.8,1.4-2,4.1-0.5,4.8c1.1,0.6,3.1,1.1,4.3,1c-0.1,0,1.1-3.8,0.9-4.1C146.7,61.8,144.1,61.2,142.8,61z"
			/>
		<path fill="#231815" stroke="#231815" stroke-width="0.9554" stroke-linecap="round" stroke-linejoin="round" d="M142.1,65.1
			c-0.4-1.5,1.4-1.5,1.7-0.3c0.3,1.4-1.6,1-1.7-0.2"/>
		<path fill="#90502B" stroke="#231815" stroke-width="1.0237" d="M126.7,103c1.7,0.3,0.7,2.6,0.7,3.7c-0.1,1.6,1.8,3.5,2.9,1.3
			c0.8-1.5-1.6-3.8-0.4-5.2"/>
		<path fill="#FFFFFF" d="M129.3,106c0.3,0.6-0.1,1.9-0.9,1.7c0.6,1.6,2.3-0.8,0.9-1.6"/>
		<path fill="#FFFFFF" stroke="#231815" stroke-width="0.9554" d="M73.1,237.2c-0.1,1.9-1.8,9.3,1.9,5.9c1.8-1.6,4-7.5,4-9.7"/>
		<path fill="#85815B" stroke="#231815" stroke-width="0.9554" d="M134.3,189.8c-0.9,8.8,0,18.4,3.8,26.5c3.4,7.2,13.3,8.9,20.2,9.5
			c8.2,0.6,16.5,0.2,23.7-4.3c6.2-3.9,8.4-18.9,9.5-25.4c1.1-6.5,1.7-17.3-4.8-21.2"/>
		<path fill="#C0BB85" stroke="#231815" stroke-width="0.9554" d="M133.8,178c-2.5,9.8-5.1,18.2,5.5,23.6c7.6,3.9,16.7,5,25.1,4.3
			c7-0.6,19.4-3.2,24-9.2c5.8-7.6,0.4-20.6-2.7-28.2"/>
		<path fill="#CFC98F" stroke="#231815" stroke-width="0.9554" d="M150.1,197.1c11.9,0.9,25.9-2,31.5-5.5c4.1-2.6,8.1-7.3,5.9-12.7
			c-1.8-4.6-10.9-7.3-15.1-8.5c-9.8-2.7-23.2-4.3-32.8-0.2c-4.6,2-8.3,5.9-9,11.1C129.3,191.8,138.8,196.2,150.1,197.1z"/>
		<g>
			<g>
				<path fill="#FFFFFF" stroke="#231815" stroke-width="0.9554" d="M58.2,204.6c3.5-1.1,6.9-2.5,9.9-5c4-3.4,2.5-4.7,1-9.4
					c-2.1-6.6-3.1-14.4-6.1-20.5c-2.1-0.1-4.6,2.7-6.7,3.6c-2.9,1.4-5.4,2-8.5,2.5C48.5,178.5,56.5,205.1,58.2,204.6z"/>
				<path fill="#92CA8A" stroke="#231815" stroke-width="0.9554" stroke-linecap="round" stroke-linejoin="round" d="M54.8,178.6
					c-0.2,0-0.4,0.1-0.6,0.1c0.7,1.7,1.7,3.7,1.8,5.5c0.6-0.4,1.4-0.5,2-0.7c-0.1,0-1.4-5.6-1.5-6C56.1,178.1,55.4,178.5,54.8,178.6
					z"/>
				<path fill="#92CA8A" stroke="#231815" stroke-width="0.9554" stroke-linecap="round" stroke-linejoin="round" d="M58.4,177.3
					c-0.2,0-0.4,0.1-0.6,0.1c0.7,1.7,1.7,3.7,1.8,5.5c0.6-0.4,1.4-0.5,2-0.7c-0.1,0-1.4-5.6-1.5-6C59.6,176.7,59,177.1,58.4,177.3z"
					/>
				<path fill="#92CA8A" stroke="#231815" stroke-width="0.9554" stroke-linecap="round" stroke-linejoin="round" d="M61.9,175.6
					c-0.2,0-0.4,0.1-0.6,0.1c0.7,1.7,1.7,3.7,1.8,5.5c0.6-0.4,1.4-0.5,2-0.7c-0.1,0-1.4-5.6-1.5-6C63.2,175,62.6,175.4,61.9,175.6z"
					/>
				<path fill="#92CA8A" stroke="#231815" stroke-width="0.9554" stroke-linecap="round" stroke-linejoin="round" d="M50.7,180.2
					c-0.2,0-0.4,0.1-0.6,0.1c0.7,1.7,1.7,3.7,1.8,5.5c0.6-0.4,1.4-0.5,2-0.7c-0.1,0-1.4-5.6-1.5-6C52,179.6,51.3,180,50.7,180.2z"/>
				<path fill="#92CA8A" stroke="#231815" stroke-width="0.9554" stroke-linecap="round" stroke-linejoin="round" d="M59,192.3
					c-0.2,0-0.4,0.1-0.6,0.1c0.7,1.7,1.7,3.7,1.8,5.5c0.6-0.4,1.4-0.5,2-0.7c-0.1,0-1.4-5.6-1.5-6C60.3,191.7,59.7,192.1,59,192.3z"
					/>
				<path fill="#92CA8A" stroke="#231815" stroke-width="0.9554" stroke-linecap="round" stroke-linejoin="round" d="M62.6,188.5
					c-0.2,0-0.4,0.1-0.6,0.1c0.7,1.7,1.7,3.7,1.8,5.5c0.6-0.4,1.4-0.5,2-0.7c-0.1,0-1.4-5.6-1.5-6C63.8,188,63.2,188.4,62.6,188.5z"
					/>
				<path fill="#92CA8A" stroke="#231815" stroke-width="0.9554" stroke-linecap="round" stroke-linejoin="round" d="M66.2,189.2
					c-0.2,0-0.4,0.1-0.6,0.1c0.7,1.7,1.7,3.7,1.8,5.5c0.6-0.4,1.4-0.5,2-0.7c-0.1,0-1.4-5.6-1.5-6C67.5,188.7,66.9,189.1,66.2,189.2
					z"/>
				<path fill="#92CA8A" stroke="#231815" stroke-width="0.9554" stroke-linecap="round" stroke-linejoin="round" d="M55,193.8
					c-0.2,0-0.4,0.1-0.6,0.1c0.7,1.7,1.7,3.7,1.8,5.5c0.6-0.4,1.4-0.5,2-0.7c-0.1,0-1.4-5.6-1.5-6C56.2,193.3,55.6,193.7,55,193.8z"
					/>
				<path fill="#E3E4E4" stroke="#231815" stroke-width="0.9554" stroke-linecap="round" stroke-linejoin="round" d="M62.6,168.3
					c3.2,3.3-9.9,7.8-11.7,7.8c-3.1,0-4.2-1.6-1.6-3.9c1.4-1.2,3.2-1.9,4.9-2.6C55.8,169,61.1,166.7,62.6,168.3z"/>
				<path fill="none" stroke="#231815" stroke-width="0.9554" d="M52,173.4c0-1.7,6.3-3.6,8.2-2.7"/>
				<path fill="none" stroke="#231815" stroke-width="0.9554" d="M54.7,190.3c-0.4-3,1-3.2,1.8-0.5c0-0.6,0.4-1.4,0.5-2
					c0.4,0.5,1,1.1,1.3,1.8c0.3-0.9,0.4-1.8,0.6-2.7c0.5,0.8,1.3,1.6,2.4,1.3c0-0.7,0.3-1.3,0.3-2c0.5,0.5,1,2.1,2,1.8
					c0.9-0.3,1-2,0.9-2.7c-0.5,2.3,2.7,1,1.4-0.9"/>
			</g>
			<path fill="#F2A6AB" stroke="#231815" stroke-width="0.9554" d="M10.5,223.3c1.5,3.6,4.3,4.8,7,7.3c-2.3,0.2-4.3,1.3-6.7,1.1
				c-0.1,0.4-0.1,0.7,0,1.1c3.4,0.5,7.2,0.5,10.7,0.3c1.3-0.1,4.3-0.2,5.2-1.4c2.8-3.8-3-9.7-6.1-10.7"/>
			<path fill="#F2A6AB" stroke="#231815" stroke-width="0.9554" d="M19.9,195.5c-3,3.4-6.4,11-7.3,15.6c-5.5-1.8-7.8,6.3-5.5,10
				c2.6,4.2,9.1,6.7,13.7,6c10-1.4,16.3-10.7,16.6-20.2c0.1-3.6-1.1-6.9-1.6-10.4c-0.4-2.6-0.2-4.6-2-6.7c-4.1-4.6-11-1.8-15.4,0.9
				c-6.1,3.8,4.6-0.5,3.3,3.9"/>
			<path fill="#231815" stroke="#231815" stroke-width="0.9554" d="M11.5,231.7c-0.9-0.3-1.7-0.8-2.5-1.3c-0.2,0.8,0.2,1.3,0.8,1.5
				c-0.5,0.2-0.8,0.6-1.2,1c1.1,0.2,2.7-0.3,3.7-0.7c-0.2-0.4-0.5-0.3-0.5-0.3"/>
			<path fill="#F2A6AB" stroke="#231815" stroke-width="0.9554" d="M8.9,216.4c-3.9,1.2-8.9,1-8.4-4.1c0.1-1.1,0.6-3.7,2.3-3.4
				c1.4,0.2,1.7,2.1,0.2,2.5c-0.2-0.2-0.5-0.3-0.6-0.5c-0.6,4.6,1.4,5,5.4,3.8"/>
			<path fill="#F2A6AB" stroke="#231815" stroke-width="0.9554" stroke-linecap="round" stroke-linejoin="round" d="M34.4,214.8
				c5.5,0.1,11.5,0,14.1-0.9c3.2-1.1,10.5-6.9,10.3-12.7c0-0.2,0-0.2,0.1,0c-0.1,0-1.8-0.1-2.2,0c-1.2,2.9-5,5.5-8.2,6.5
				c-2.3,0.7-8.6-1.4-13.2-1.6"/>
			<path fill="#F2A6AB" stroke="#231815" stroke-width="0.9554" d="M29,218c2.8,3,5.4,8.3,5.1,12.6c-0.5,7.5-13.1,4.4-17.8,4.1
				c0.2-0.4,0.3-0.7,0.5-1.2c2.7-0.5,5.8-1.5,8.1-2.7c-0.8,0.4-10.4-4.2-11.6-5"/>
			<path fill="#231815" stroke="#231815" stroke-width="0.9554" d="M17,233.7c-0.6-0.6-1.6-1.2-2.4-1.5c0.1,0.5,0.2,1,0.5,1.5
				c-0.5,0.3-1,0.6-1.3,1c1.1,0.3,2.1,0.1,3.2,0c0-0.4,0-0.8-0.1-1.2"/>
			<path fill="#231815" stroke="#231815" stroke-width="0.9554" stroke-linecap="round" stroke-linejoin="round" d="M57.6,199.1
				c1-0.1,2-0.4,2.9-0.8c-1,0.5-0.3,3.7-2.3,3.9c-2.1,0.3-2.1-2.9-1.8-4.4c0.2,0.4,0.7,0.8,0.9,1.3
				C57.3,199.1,57.5,199.1,57.6,199.1z"/>
			<g>
				<path fill="#F2A6AB" stroke="#231815" stroke-width="0.9554" d="M16.3,176c2-3.9,2.6-8.4,7.5-9.4c0.5,4.3,4.1,9.5,1.2,13.5"/>
				<path fill="#F2A6AB" stroke="#231815" stroke-width="0.9554" d="M44.8,191.2c5.3-1,7.2,3.1,5.6,7.6c-2.1,6.1-5.8,5.6-10.8,4.1"
					/>
				<path fill="#F2A6AB" stroke="#231815" stroke-width="0.9554" d="M48.4,194.8c1.5-5.7,2.6-11.5-2.1-16.6
					c-3.6-3.8-9.3-5.8-14.4-6.5c-11.8-1.6-23.6,4-24.3,17c-0.6,11.3,15.4,16.8,24.2,18c8.3,1.1,13.8-1.2,15.9-8.9
					C47.9,196.8,48.1,195.8,48.4,194.8z"/>
				<path fill="#F2A6AB" stroke="#231815" stroke-width="0.9554" d="M34.6,177.3c-2.3-4,7.4-7.8,10.4-7.7c1,5.2,1.9,10-1.8,14.5"/>
			</g>
		</g>
		<path fill="#FAD8C3" stroke="#231815" stroke-width="0.9554" d="M188.9,231.5c-1.9,4.2,2.6,7.1,6.4,7.3c3.1,0.1,2-1,1.5-3
			c-0.4-1.8-0.4-4-0.4-5.9c-1.8-0.2-3.6,0.5-5.4,0.4"/>
		<path fill="#FAD8C3" stroke="#231815" stroke-width="0.9554" d="M119,216.2c1.1,2,1.7,4.6,2.5,6.7c-1.8,0.4-4.2,3.4-5.5,4.8
			c1.1,0.5,2.8-0.6,3.9-1c1.3-0.5,2.4-1.3,3.5-1.9c1.5-0.8,4.9-1.7,5.5-3.2c0.8-1.9-0.4-5.9-0.7-7.9c-0.4-3,0-8.8-2-11.1"/>
		<path fill="#999A9A" stroke="#231815" stroke-width="0.9554" stroke-linecap="round" stroke-linejoin="round" d="M125.5,191.8
			c8.4-2,17.5-1.9,26.1-2.8c8.2-0.9,16.5-1.9,24.4-4.2c-0.8,0.2,5.6,8.1,6.1,8.9c2.5,3.8,3.8,9.5,4.6,14.1
			c1.5,7.6,1.3,17.4,1.2,25.1c0.6,0,9.7-0.5,9.7-0.2c0.2-10.1,3.9-19.2,5.7-28.8c2.6-14.1,4.2-34-5.6-45.6c-0.6-0.7-2-1.1-2.4-1.9
			c-0.8-1.7,0-5.9,0-7.8c0-4.2,0.6-5.6-3.8-5.9c-5.4-0.3-11.3,0.4-16.7,0.7c-6.9,0.3-13.1-0.1-20-0.4c-3.8-0.2-7.9-0.7-11.7-0.3
			c-4.1,0.4-8.2,1.3-12.1,2.5c-1.3,0.4-3.9,0.9-4.8,2c-0.7,1-0.1,6.6-0.3,6.7c-10.6,5.3-20.9,12.4-20.9,27.3c0,7,2.5,13.7,5.5,20
			c2.5,5.4,6.1,10.2,8.6,15.6c-0.3-0.7,9.3-2.6,10-2.8c-0.6,0.2,0.5-7.7,0.6-8.5c0.8-5.4-0.8-9.6-4.6-13.4
			C125.1,191.9,125.3,191.9,125.5,191.8z"/>
		<path fill="#FAD8C3" stroke="#231815" stroke-width="0.9554" d="M116.1,152.9c0,20.1,39,19.3,51.8,18.8c7.2-0.3,27-3.8,28.9-8.2
			c3.1-7.2-6.6-16.1-12.6-19c-8.1-4-17.6-3.5-26.3-3.8c-11-0.4-26.1-0.9-35.7,5.5"/>
		<path fill="#FFFFFF" stroke="#231815" stroke-width="0.9554" d="M132,76.1c-6.4-0.1-12.1,10.7-12.3,15.9
			c-0.1,4.2-2.1,14.4,1.4,16.9c2.4,1.7,4.3,2.6,6.7,1c2,7,2.1,10.3,2.8,13.7c-6,3.5-9.7,6.1-12.9,12.4c-3.3,6.5-3.9,11.5-1.9,20.4
			c3.2-2.2,6.2-3.6,9.9-4.3c20.7-4,55.7-3.9,71.4,11.7c4.4-5.9,3-16.9,1.3-23.7c-0.7-2.6-2.2-5.4-2.7-7.9c-0.9-4.2-3.5-13,0.7-13.3
			c6.7-0.6,6.8-12,7.8-17.9c2-10.9-2-16.5-14.5-18.3c-10.5-1.5-21-0.7-31.6-1.4c-5.8-0.4-7.6-2.2-11.7-5.7c-1.7-1.5-3.2-3-5.6-2.5"
			/>
		<path fill="#FAD8C3" stroke="#231815" stroke-width="0.9554" d="M113.1,86.8c-12.9,7.2-31,13.7-38.9,27
			c-2.8,4.8-2.8,13.6,2.1,17.1c6.3,4.6,19.5-0.9,25.7-4c9.9-4.9,20.9-9.3,29.8-15.9"/>
		<path fill="#FFFFFF" stroke="#231815" stroke-width="0.9554" d="M141.3,81.9c-6.2-3.4-14.4-3.4-20.7-0.6
			c-5.9,2.6-14.7,7.7-19.9,11.6c2.4-1.8,9.4,9.4,10.2,10.9c2.7,5.1,4.3,11.6,5.2,17.2c4.3-2,10-5.6,13-6.7"/>
		<path fill="#FAD8C3" stroke="#231815" stroke-width="0.9554" d="M197.6,107.3c1.4,5.2,0.4,18.3,4.7,22.4c2.9,2.8,16,9.1,18.2,4.8
			c2.1-4.2-0.2-20.2-0.9-24.6c-1.3-8.4-5.5-8.6-14.4-10.7"/>
		<path fill="#FAD8C3" stroke="#231815" stroke-width="0.9554" d="M221.2,130.2c0.2,10.7-12.2,14.2-19.2,9.7
			c-5-3.2-8.8-7.7-12.7-12.1c-2-2.3-4.2-4.6-6.2-6.9c-2.4-2.7-0.4-4.9,1.2-7.9c1.7-3.3,3.5-1,6.2,0.5c5.9,3.2,14.9,3.9,19.3,9.2"/>
		<path fill="#FFFFFF" stroke="#231815" stroke-width="0.9554" d="M186.2,76c2.7-1.9,11.3,2.6,14.6,3c5.8,0.7,15.9,4.1,18.4,18
			c0.8,4.6,1.5,12.7,1.7,18.4c-5.4-6-16.4-3.6-22.9-2.4c-0.3-2.6-1-5.5-1.2-9.1"/>
		<path fill="#F7C197" stroke="#231815" stroke-width="0.9554" d="M183.4,110.4c-1.2-3.4-5.6-1-6.5,1.3c-1,2.4-1.3,8.3,0.9,10.3
			c3.9,3.5,7.8-0.9,9-4.5"/>
		<circle fill="#FAD8C3" stroke="#231815" stroke-width="0.9554" cx="120.5" cy="57.9" r="8.4"/>
		<circle fill="#FAD8C3" stroke="#231815" stroke-width="0.9554" cx="210.5" cy="69.2" r="8.4"/>
		<path fill="#FAD8C3" stroke="#231815" stroke-width="0.9554" d="M209.2,75.9c-2.7,11.5-11.4,19.8-23.2,21.6
			c-15.3,2.2-31.8-0.7-46.4-5.5c-5.6-1.8-11.1-4.5-15.4-8.5c-8.4-7.9-9.1-18.8-3.6-28.6c0.6-1.1,0.1-17.1,5.4-26
			c12.9-21.5,40.8-28.5,62.3-15.6c8.5,5.1,15,13,18.7,22.2c2.9,7.4,3.1,14.6,3.1,22.3c0,5.4,0.5,11.7-0.6,16.9
			C209.4,75,209.3,75.4,209.2,75.9z"/>
		<path fill="#412F0E" stroke="#231815" stroke-width="0.9554" d="M216.2,55.7c1.3-3.5,2.6-7,3-10.9c0.4-4,1.6-10.6-0.2-14.4
			c-0.3-0.7-4-4.8-4-5c-0.2,0.8-0.6,1.6-0.8,2.5c0-5.2-2.1-10.8-6-14.3c0.5,0.5,1,1.1,1.5,1.6c-4.9-6.1-13-6.6-19.7-10
			c0.8,0.6,1.6,1,2.3,1.7C190.7,7,189,6,187.7,5.3c0.2,0.4,0.2,0.9,0.4,1.2c-0.1,0.2-0.2,0.3-0.4,0.4c-2.1-0.5-4-1.7-6-2.4
			c0.8,1,2.3,1.5,3.3,2.2c-6.4-2.1-12.9-3.9-19.4-5.9c1.5,1.1,3.3,1.4,4.9,1.9c-3.5-0.7-7.3-2.3-10.9-2.1c0.5,0.2,1.1,0.6,1.6,0.7
			c-3.9,0.8-8.2-0.8-12.3,0.2c1.3,0.1,2.7,0,3.9,0.3c-3.5-0.3-6.8,0.6-10.3,0.7c0.9,0,1.8-0.1,2.6-0.2c-3.1,0.5-6.7,0.9-9.7,1.7
			c0.7,0.8,1.7,1.2,2.8,1.4c-2.1,0.7-6.9,0.7-8.4,2.8c0.8-0.4,1.8-0.5,2.7-0.3c-3.7,2.6-7.2,4.4-10.4,7.8c2-0.7,2.9-2.5,5.3-2.3
			c-3.5,1.9-7.8,10.8-9.6,14.5c0.9-1.8,5.4-9.5,7.3-9.8c-7.8,1.3-8.5,22.9-8.1,28.4c0.4,5.2,2.5,10.9,1.2,16.1
			c0.4-1.8,1.8-3.6,2.2-5.6c0.5-2.2,0.4-4.5,1-6.7c1.1-4.5,3.2-8.6,6-12.2c1.8-2.4,8.9-5.4,9.2-8.1c-0.4,2.7,0.6,6.9,3.3,7.9
			c-0.4-1.2-0.6-2.6-0.3-3.9c0.4,2.9,3.2,4.9,6,5.1c-0.4-0.6-0.8-1.4-1.3-1.9c2,2.3,4.6,4.8,7.9,4.7c-0.2-1.3-0.9-2.5-1.9-3.4
			c2.3,3,6.8,5.8,10.5,6.2c-1-1.3-2-2.6-3.1-3.7c1.6,2.4,5.2,5.1,8.3,4.1c-0.4-1.1-0.8-2.3-1.1-3.4c1,1.2,1.1,2.8,2.1,4
			c1.4-1.2,2.6-2.7,4.7-2.7c-0.9,0.7-1.3,1.8-2,2.6c2.8,0.8,5.8-0.9,8.5-1.7c-1.3,0.4-1.2,0.8-1.9,1.5c4.1,1.3,7.8-1.4,11.1-3.4
			c0.1,6.3,8.5-2.6,9.5-4.1c0,1.8-0.7,3.5-1.1,5.2c1.9,0.8,3.4-0.4,4.9-1.4c-0.8,4.4-0.1,9,0.9,13.3c0.7,3,2.4,10.6,5.6,11.5
			c2.1,0.6,1.6,9.3,1.5,10.9c3.7-2,3.7-9,4.6-12.7C213.9,61.5,215.1,58.6,216.2,55.7z"/>
		<path fill="none" stroke="#F4B2A0" stroke-width="0.9554" d="M186,79.6c0.1,0.6-0.3,2.3-0.7,2.9"/>
		<path fill="none" stroke="#F4B2A0" stroke-width="0.9554" d="M188.9,79.2c0.3,0.8-0.2,3.2-0.4,4"/>
		<path fill="none" stroke="#F4B2A0" stroke-width="0.9554" d="M191.5,78.4c0.2,0.8,0.2,2.4,0.4,3.4"/>
		<path fill="none" stroke="#F4B2A0" stroke-width="0.9554" d="M138.1,69.9c-0.5,1-0.9,2.3-1.7,3.1"/>
		<path fill="none" stroke="#231815" stroke-width="0.9554" d="M162.3,77.3c-0.4,1-1,1.8-2,2.1c0,1.1,1.2,1.5,2.3,1.4"/>
		<path fill="none" stroke="#F4B2A0" stroke-width="0.9554" d="M140.7,70.8c-0.1,1.2-0.5,2.5-1.2,3.5"/>
		<path fill="none" stroke="#F4B2A0" stroke-width="0.9554" d="M144.1,71.1c0.3,1.2-0.5,2.5-0.3,3.4"/>
		<path fill="none" stroke="#231815" stroke-width="0.9554" stroke-linecap="round" stroke-linejoin="round" d="M188.9,46.9
			c1.6-1.2,3.5-0.8,4.4,1.1"/>
		<path fill="none" stroke="#231815" stroke-width="0.9554" stroke-linecap="round" stroke-linejoin="round" d="M142.3,45.4
			c1.2-1.4,2.8-1.8,4.3-0.7"/>
		<path fill="#CB2F2E" stroke="#231815" stroke-width="0.9554" d="M180.1,90c0.7-0.3,0.4,9.7,0.1,10.8c-1.9,7.5-2.7,17.7-12.5,16.6
			c-9-1-19.4-2.9-27.8-6.1c0-4.8,0-9.6,0.6-14.4c0.4-3.2,1.8-12.6,5.9-12.3c2.1,0.2,3.8,1.3,6,1.7c5.2,0.9,10,0.8,15.2,2.4
			C171.6,90.1,176.3,91.8,180.1,90z"/>
		<g>
			<path fill="#F8BD57" stroke="#231815" stroke-width="0.9554" stroke-linecap="round" stroke-linejoin="round" d="M140.4,111
				c-0.9,0.5-1.7,3.3-1.9,4.3c-1.1,5.7,9,6.1,12.4,6.6c4.9,0.8,9.9,1.3,14.9,1.4c2.6,0.1,7.9,0.8,10.4-0.6c2.1-1.2,1.4-5.1,1.1-7.1"
				/>
			<path fill="#75BA2A" stroke="#231815" stroke-width="0.9554" stroke-linecap="round" stroke-linejoin="round" d="M175.1,113.8
				c2.1,1,5.2,2.5,3.4,5.1c-2.5,3.5-7.8,0-10.8,0.7c-1.6,0.4-2.2,1.6-4,1.2c-2.1-0.5-3.1-3.5-5.6-3c-1.4,0.3-2.1,1.4-3.6,1.2
				c-1.3-0.1-1.8-1.3-3-1.6c-1-0.2-1.2,0.3-2.4,0.5c-1.9,0.4-5.4-0.6-5.3-3c-1.7,0.8-4.6,2.4-6,0.3c-0.9-1.5,0.2-2.8,1.7-3.5"/>
			<path fill="#E7421F" stroke="#231815" stroke-width="0.9554" stroke-linecap="round" stroke-linejoin="round" d="M176.7,115.3
				c0.2-0.3,0.4-0.8,0.5-1.2c1.1-5.7-11.3-2.8-14.2-2.9c-4.4-0.1-9.2-1.1-13.5-1.8c-2.3-0.4-10.6-3.5-10.1,1.5
				c0.4,3.9,8.1,4,10.8,4.2c5.4,0.5,10.6,1.5,16.1,1.7C169,116.9,174.8,118.4,176.7,115.3z"/>
			<path fill="#845123" stroke="#231815" stroke-width="0.9554" stroke-linecap="round" stroke-linejoin="round" d="M139.5,104.4
				c-4,9,8.5,6.9,13.4,8c4.5,1.1,9.1,1.6,13.7,1.8c3.5,0.2,11.3,2.7,12.7-2.4c0.6-2.1,0.1-5.7-1-7.6c-1.9-3-6.9-2.4-9.9-2.3
				c-5.7,0-11-0.9-16.4-2.1c-4.1-0.9-9-1.3-12.6,1.1"/>
			<path fill="#75BA2A" stroke="#231815" stroke-width="0.9554" stroke-linecap="round" stroke-linejoin="round" d="M139.6,99.4
				c-2,0.5-5.4,4.4-3.7,6.8c1.7,2.5,6.5,0.2,8.9,1.2c1.4,0.6,2.2,2.2,3.7,2.6c1.8,0.5,3-0.8,4.7-1.2c3-0.7,4.2,2.3,6.9,3
				c2,0.5,3.9-0.9,5.7-1.4c1.6-0.5,1.5-0.3,3.2,0c1.5,0.3,3.3,0.8,4.8,0.7c1.4,0,2.8-1,4.2-1c1.5,0,1.8,0.7,3.1,0
				c1.6-0.8,1.6-1.5,0.9-2.7c-0.8-1.4-3.7-2.5-5.1-3.6c-4.4-3.2-9-4.1-13.9-5.9c-3.1-1.2-6.4-2.9-9.9-2.4c-2.8,0.4-5.8,2-8.6,2.8"/>
			<path fill="#F8BD57" stroke="#231815" stroke-width="0.9554" stroke-linecap="round" stroke-linejoin="round" d="M180.8,98.6
				c0.6,1.6,1,3.3,1.2,5.1c0.3,3.7-2.4,4.3-5.6,4.7c-5.1,0.7-10.6,0-15.7-0.8c-4.5-0.7-9.3-1.3-13.7-2.3c-2.7-0.7-8.7-2.1-9.7-5.2
				c-0.9-3.1,3.4-7.7,5.3-9.2c5.3-4.1,12-4.8,18.4-4.1c3.1,0.4,6.1,1.1,9.1,2C175.1,90.3,179,93.9,180.8,98.6z"/>
			<path fill="none" stroke="#231815" stroke-width="0.9554" stroke-linecap="round" stroke-linejoin="round" d="M172.7,94.1
				C170.3,95.8,173.9,98,172.7,94.1"/>
			<path fill="none" stroke="#231815" stroke-width="0.9554" stroke-linecap="round" stroke-linejoin="round" d="M162.4,98.3
				c-0.4,0.4-0.5,1-0.9,1.5c0.1,0.1,0.3,0.4,0.4,0.5c0.8-0.5,0.7-1.4,0.4-2.3"/>
			<path fill="none" stroke="#231815" stroke-width="0.9554" stroke-linecap="round" stroke-linejoin="round" d="M154.5,92.2
				c-0.8,0.1-1.4,0.7-1.6,1.4c0.1,0.2,0.2,0.3,0.4,0.3c0.8-0.4,1.1-1.1,1-1.9"/>
			<path fill="none" stroke="#231815" stroke-width="0.9554" stroke-linecap="round" stroke-linejoin="round" d="M164.6,89.7
				c-0.2,0.7-0.2,1.5-0.3,2.2c0.3,0.1,0.5,0.1,0.8,0.1C165.4,91.1,165.2,90.4,164.6,89.7"/>
			<path fill="none" stroke="#231815" stroke-width="0.9554" stroke-linecap="round" stroke-linejoin="round" d="M146,95.3
				c-1,0.5-1.5,1.6-1,2.6c1-0.5,0.9-1.7,1.1-2.8"/>
			<path fill="none" stroke="#231815" stroke-width="0.9554" stroke-linecap="round" stroke-linejoin="round" d="M176.7,99.6
				c-0.7,0.9-1.1,2.1-0.5,2.9C177.5,102,176.6,100.7,176.7,99.6"/>
		</g>
		<path fill="#FAD8C3" stroke="#231815" stroke-width="0.9554" d="M143.5,81.6c-4.7,4.3,1.1,6.6,4.4,8.6c3.8,2.3,8.4,3.4,12.8,4.2
			c5.5,1,11.4,1.1,16.8-0.3c2.5-0.7,7.8-5.1,4.1-7.9"/>
		<path fill="none" stroke="#231815" stroke-width="0.9554" d="M185.1,69.2c0.2-2.1,2.5-1.6,4.4-1.6"/>
		<path fill="none" stroke="#231815" stroke-width="0.9554" d="M144,58.7c2.8-0.6,2.9,2.1,3.1,3.7"/>
		<path fill="#FAD8C3" stroke="#231815" stroke-width="0.9554" d="M177.2,101.1c-1.1,1.8-0.1,4.5,2.5,4.7c0.2,2.4,2.2,4.5,2.1,6.8
			c-0.2,2.5-2.1,6.1-3.3,8.2c-1.2,2-4.2,2.4-6.4,2.3c-1.2-0.1-2.2-1-2.9,0.4c-1.5,3.1,5.3,3.2,6.8,2.9c3.6-0.8,7.8-1.8,10.2-4.8
			c2.5-3.1,3.2-9.4,0.7-12.7C186.2,108.1,177.7,100.3,177.2,101.1z"/>
		<path fill="none" stroke="#231815" stroke-width="0.9554" d="M148.7,158c-0.4,0.4-2.1,1.8-2.6,2"/>
		<path fill="none" stroke="#231815" stroke-width="0.9554" d="M146.3,157.8c0.4,1.1,1.5,1.5,2.3,2.3"/>
		<path fill="#16041C" stroke="#231815" stroke-width="0.9554" d="M113.6,227.4c1.5-2.3,5.8-2.5,7.7-4.8c1.4,0.6,3.5,0.3,4.7-0.4
			c0.5-0.3,3.5-3.3,3.3-3.4c1.2,1,1.3,4.1,1.5,5.6c-1,0.2-1.8,0.9-2.9,1.1c-0.1-0.5-0.5-1-0.6-1.5c-0.5,0.6-0.8,1.6-1.1,2.4
			c-0.2,0.7-9.1,2.5-10,2.7C114.7,229.6,112.2,229.6,113.6,227.4z"/>
		<path fill="none" stroke="#231815" stroke-width="0.9554" d="M126.8,216c0.3-0.1,0.6-0.1,0.7,0.2"/>
		<path fill="none" stroke="#231815" stroke-width="0.9554" d="M121.8,218.5c-0.1,0.3-0.2,0.5-0.5,0.7"/>
		<path fill="none" stroke="#231815" stroke-width="0.9554" d="M125.6,218c0.2,0.3,0.4,0.5,0.7,0.7"/>
		<path fill="none" stroke="#231815" stroke-width="0.9554" d="M123.6,216.5c-0.2,0.2-0.3,0.3-0.5,0.5"/>
		<path fill="#16041C" stroke="#231815" stroke-width="0.9554" d="M197.5,236.1c-0.1,2.6,3.1,4.5,3.9,6.8c2.6,8.3-8.2,1.3-10.1-1.7
			c-1.2-1.9-3.3-4.8-2.6-6.7c1.6,1.5,2.6,3.4,4.1,4.9c-0.2-1-0.6-1.9-0.8-2.8C192.4,236.7,197.5,236.6,197.5,236.1z"/>
		<g>
			<path fill="#E3E4E4" stroke="#231815" stroke-width="0.9554" d="M62.5,176.8c-0.3-3.4-2.7-6.3-0.1-9.2c4.5-5,13.8-6.7,20.2-7.2
				c8-0.7,14.8-0.3,22.6,2c3.6,1.1,10.6,5.2,10.9,8.2c0.3,4.1-2.3,9.3-5.3,11.7c-6.9,5.5-17.5,4.4-25.7,3.6
				c-5-0.5-10.6-0.5-15.2-2.6c-3.8-1.8-4.8-3.9-6.6-7.2"/>
			<path fill="#FFFFFF" stroke="#231815" stroke-width="0.9554" d="M70.6,181.7c-2.4-1.2-4.3-0.6-4.8-4.1c-0.2-1.4,0-3.2,2-2.4
				c-2.6-2,1.1-6.6,2-4.5c-0.9-2.1,1.4-6.5,2.9-3.7c0.3-2.1,3.6-4.1,4.7-1.3c1.4-2.8,3.8-1.7,5.8-0.3c1.3-3.4,4.1-0.4,4.6,1.6
				c1.9-2.4,5.6-1.6,4.9,1.9c1.1-2.5,3.8-2.5,5-0.2c1.3-1.4,4-1.3,4.5,0.8c2.1-1.4,3.9,0.7,3.6,3c0.3-0.9,1.1-1.4,2-1.3
				c0.5,1,0.9,2.8,0.2,3.4c1.7,0.4,0.8,3.4-1,3.2c0.8,1.8-1,5.1-3.1,4.1c0.5-0.1,0.5,0.3,0.8,0.4"/>
			<path fill="#EC796C" stroke="#231815" stroke-width="0.9554" d="M94.5,156.4c-0.7-1.8-0.1-8.5,3.2-8.4c0.1,0.9,0,1.9,0.1,2.8
				c2.5-1.7,6.9-2,5,1.8c-1.5,2.9-4.5,4.2-7.3,5.3"/>
			<path fill="#F5B168" stroke="#231815" stroke-width="0.9554" d="M71.3,172.6c-3.1-2.2,4.6-6.8,7.2-3.2c-0.2-1.9,2.5-3.2,3.9-1.9
				c-0.4-1.9,1.3-3.5,2.8-2.6c-0.6-1.7,0.9-3,2.5-2.3c-1.4-2.7,2.6-7.2,4.5-4.3c0.2-1.8,3-2.6,4.4-1.3c1.3,1.3,0.7,5.1-1.1,5.5
				c1.9,0.9-2.4,6.9-4.1,7.3c-0.2,1.2-1.4,2.8-2.6,2.5c-0.7,1.2-2.2,2.2-3.5,2.2c-0.7,2.2-3,3.3-4.5,1.1c0.1,3.2-3.2,1.7-4.1,0
				c-1.3,2.4-5.2-0.6-5.3-2.8"/>
			<path fill="none" stroke="#231815" stroke-width="0.9554" d="M90.8,164.6c0.8,0.4,0.8,0.8,0.2,1.1"/>
			<path fill="none" stroke="#231815" stroke-width="0.9554" d="M82.6,172.3c0.9,1.2,2.3,0.6,2.7-0.9"/>
			<path fill="none" stroke="#231815" stroke-width="0.9554" d="M86.9,168c0.4,1.5,1.9,1.7,2,0"/>
			<path fill="none" stroke="#231815" stroke-width="0.9554" d="M75.8,172.3c-1.1-0.4-0.7-1.1,0.2-1.6"/>
			<path fill="#F9CB94" stroke="#231815" stroke-width="0.9554" d="M100.4,178.7c-2.7,0.6-9.8,2.4-10.4-1.6c-0.4-2.8,2-6.8,3.6-8.9
				c2.1-2.9,5.3-6.7,8.9-7.8c2.6-0.8,5.6-1,7.4,1.3c1.3,1.6,2.8,6,2.6,8.1C111.8,176,105.4,177.6,100.4,178.7z"/>
			<path fill="none" stroke="#231815" stroke-width="0.9554" d="M104.5,165.7c0.7,0.2,1.1,0.7,1.1,1.4"/>
			<path fill="none" stroke="#231815" stroke-width="0.9554" d="M108.1,172.3c0.2,0.8-0.1,1.3-0.9,1.4"/>
			<path fill="none" stroke="#231815" stroke-width="0.9554" d="M96,174.6c0.5,0.4,1.2,0.7,1.8,0.7"/>
			<path fill="none" stroke="#231815" stroke-width="0.9554" d="M99.2,170.7c-0.1-0.5,0.3-1,0.9-1.4"/>
			<path fill="none" stroke="#231815" stroke-width="0.9554" d="M107.2,162.5c0.7,0.3,1.1,0.9,1.1,1.6"/>
			<path fill="none" stroke="#231815" stroke-width="0.9554" d="M97.4,167.3c0.3-0.8,0.9-1.6,1.8-1.8"/>
			<path fill="none" stroke="#231815" stroke-width="0.9554" d="M102,174.1c0.2,0.5,0.8,0.6,1.4,0.5"/>
			<path fill="#85C25D" stroke="#231815" stroke-width="0.9554" d="M79.9,178c-2.3-0.6,0.9-5.1,2.6-1.9c-1-0.4-1.1-2.3-0.4-3.1
				c0,0,0.3,0.3,0.4,0.4c-0.8-1.7,1-2.2,2.3-1.5c-0.1,0.3,0,0.5-0.2,0.9c-1.1-1.8,2.2-4.4,3.7-2.5c-1.1-3.1,5.1-2.2,3.5,0.3
				c1.4-3.3,4.2,0.7,2,2.5c2.7-1.4,1.7,2.9,0.4,3.8c0.5-0.9,1.6-1.3,1.2,0.1c-0.4,1.4-2.1,2-3.4,1.8c0.2,0,0.6,0,0.8,0
				c0.2,1.9-6.2,0.7-7.9,0.7c0,0,0.4-0.3,0.4-0.2c-1.3,2.1-3.3,1-3.6-0.9c-0.5,0.6-1.3,0.9-2.1,0.7c-0.1-0.6-0.1-1.4,0.2-2"/>
			<path fill="#FFFFFF" stroke="#231815" stroke-width="0.9554" d="M86.3,211.5c7.2,0,4.7-9.1,5.9-13.2c0.6-2,4.8-6,7.2-4.8
				c2.9,1.4,0.3,5.9-2.4,6.3c1.9-0.3-0.8,10-1.5,11.2c-1.2,2.1-2.2,4-4.3,5.4c-1.7,1.2-5.1,1-5.3,3.2c-0.2,2.3-1.8,9-1.4,8.9
				c0.2-0.1,6.6,1.4,8.8,3.8c4.2,4.5-10.7,6.6-13.7,7c-5.2,0.7-13.7,0.3-12.6-7c0.4-3.1,2.6-5,2.5-5.7c-0.2-2.3,0.6-10.4-0.5-15.5"
				/>
			<g>
				<path fill="#FFFFFF" stroke="#231815" stroke-width="0.9554" d="M62,179.8c0.9,3.1,2.2,6.1,3.3,8.2c4.1,7.6,11.2,8.5,18.9,8.5
					c7.1,0.1,15.2,0.7,21.6-2.9c4.9-2.7,7.6-7.2,9-12.1c-3.9,2.7-10.9,5.5-23.3,5.5C72.8,187.1,66,182.8,62,179.8z"/>
				<path fill="#FFFFFF" stroke="#231815" stroke-width="0.9554" d="M91.7,183.9c13-0.6,20.1-4,24-7c0.3-2.7,0.4-5.4,0.3-8
					c0.1,3.2-6.5,5.8-8.7,6.6c-4.3,1.4-9.5,2.4-14,2.7c-6.3,0.4-10.7,0.2-19.9-2.2c-1.6-0.4-12.7-5.6-11.2-8
					c-1.1,1.9-1.3,4.3-1.1,6.9C65.2,178.6,74.7,184.7,91.7,183.9z"/>
				<path fill="#C4E0F5" stroke="#231815" stroke-width="0.9554" d="M91.7,183.9c-17,0.8-26.5-5.3-30.7-8.9c0.2,1.6,0.5,3.3,1,4.9
					c4,2.9,10.8,7.3,29.5,7.3c12.4,0,19.4-2.9,23.3-5.5c0.4-1.5,0.7-3.1,0.9-4.6C111.9,179.9,104.7,183.3,91.7,183.9z"/>
			</g>
			<path fill="#FFFFFF" stroke="#231815" stroke-width="0.9554" d="M83,192.2c-11.9-6.5-24.8,2.4-22.2,15.6c0.7,3.5,4.5,7.7,7.9,8.5
				c7.1,1.6,17.3-1.4,19.8-6.6C91,204.5,88.1,195,83,192.2z"/>
			<path fill="#FFFFFF" stroke="#231815" stroke-width="0.9554" d="M64.2,197.5c-0.5-3.1-7.6-18.4-2.3-19.6c5-1.1,5.7,14,6.8,17.3"
				/>
			<path fill="#FFFFFF" stroke="#231815" stroke-width="0.9554" d="M79.9,197.1c1.4-2.5,4.4-19.1,10.2-15.5c4.3,2.7-4.6,15-6.6,17.5
				"/>
			<path fill="#FFFFFF" stroke="#231815" stroke-width="0.9554" d="M68.2,232.2c-0.1-2.3,2.2-3.2,2.3-0.6c1.7-0.5,2.3,1.3,0.8,1.9
				c-0.2,0-0.2,0,0,0c1,1.5-0.4,2.9-1.9,2.1c-0.2,1.4-0.3,1.2-1.4,1.4c0-0.2-0.1-0.3-0.1-0.5c-1.8,1.6-3.7-1-1.9-2.6
				c-2.6,2.3-2.7-2-0.6-1.8C65.3,229,68.6,229,68.2,232.2z"/>
		</g>
		<path fill="none" stroke="#231815" stroke-width="0.9554" d="M99.7,152.1c-0.6,1.4-1.8,3.1-3.4,3.2"/>
		<g>
			<path fill="#E1E2E2" stroke="#231815" stroke-width="0.9554" d="M117.5,94.3c-3.2,5.5-9.2,10.5-11,16.7c-0.8,2.8,0.2,9.6,3.2,4.6
				c1.8-3,2.7-6.8,4.3-10c1.6-3.2,3-6.6,4.7-9.8"/>
			<path fill="#E1E2E2" stroke="#231815" stroke-width="0.9554" d="M119.4,86.6c-2.6,2.7-5,7.1-1.1,10.3c3.3,2.8,5.4-1.3,7.3-3.7"/>
			<path fill="#9E5A32" stroke="#231815" stroke-width="1.0237" d="M134.3,82.4c0.1-0.1,0.2-0.1,0.4-0.2c-0.1,4-0.7,7.9-0.8,11.9
				c0,2.7,0.7,6.2-1.9,8c-1.8,1.3-4.8,1.4-6.7-0.1c-4.4-3.4-7.1-12.1-7-17.4c0.1-4.5,2.4-10.7,6.7-12.8c2.1-1,2.6,0,4.6,0
				c-0.6,3.3-1.4,4.2,0.2,7.3C130.8,81,132,83.6,134.3,82.4z"/>
			<path fill="#90502B" stroke="#231815" stroke-width="1.0237" d="M124.9,77.4c-0.8,3.3-0.3,7.5,0.3,10.7c0.8,4.7,2,13.2,8,13.5
				c-0.2,1.5-2.9,2.5-4.4,2.6c-2,0.1-3.1-1.1-4.3-2.5c-3.3-4-6.3-10.3-6.6-15.5c-0.2-4.6,0.1-8,3.2-11.7c1.6-2,5.4-4.6,7.9-2.5
				C128.2,71.2,125.1,76.7,124.9,77.4z"/>
			<path fill="#E1E2E2" stroke="#231815" stroke-width="0.9554" d="M136,82.1c-0.5,1-7.8,0.5-9,0.6C125.4,78.4,137.1,80,136,82.1z"
				/>
			<path fill="#E1E2E2" stroke="#231815" stroke-width="0.9554" d="M133.8,86.2c-0.9-1.3-6.8-2.4-6.4,0.1c0.2,1.7,4.6,1.5,5.9,0.9
				C133.9,86.9,134,86.5,133.8,86.2z"/>
			<path fill="#E1E2E2" stroke="#231815" stroke-width="0.9554" d="M134.9,91.3c-0.9-0.8-3.6-1-4.4-1.1c-0.9-0.1-4.6-0.7-3.4,1.6
				c0.8,1.6,3.2,1.1,4.5,1.1C132.2,93,136.7,93,134.9,91.3z"/>
			<path fill="#FCFCFC" d="M120.2,84.3c0.1,0.2,0.2,0.3,0.4,0.4c0.8-1.4,0.1-3.6,0.4-5.2c0.2-1.1,1-2,1.1-2.9
				c-1.6,0.2-2.5,1.7-2.8,3.1C119,80.8,119.4,83.2,120.2,84.3z"/>
		</g>
		<path fill="#FAD8C3" stroke="#231815" stroke-width="0.9554" d="M85.4,104.6c3.8-2.9,8.3-5.1,13-6.2c4.9-1.2,17.2-2.6,20,3.2
			c1.9,3.8-1,9.8-5.1,11.1c-2.1,0.7-3.8-0.2-5.5-1.5c-2.2-1.6-2.4-2.8-4.6-0.8c-6.2,5.5-6.8,15.2-13.2,20.6c-5,4.2-14,2.4-16.3-3.5"
			/>
		<path fill="#FFFFFF" stroke="#231815" stroke-width="0.9554" d="M93.2,232c7.4,6.8-4.8,10.5-9.5,12c-2.3,0.7-6.8,2.1-6.8-1
			c0-2.7,8.9-4.7,11.6-6.9"/>
		<path fill="#D6A34B" stroke="#231815" stroke-width="0.9554" stroke-linecap="round" stroke-linejoin="round" d="M185.7,94.7
			c3,0.7,1.9-4.3-0.3-3.5C183.8,91.8,184.2,94.3,185.7,94.7z"/>
		<path fill="#FFFFFF" stroke="#231815" stroke-width="0.9554" d="M184.2,74.4c-0.3-1.3,0.5-4,0.9-5.2c1.6,0.2,3.4,0.9,5.1,0.9
			c0.1,1.5-0.4,3.6-0.9,4.9C188.5,75.3,184.3,74.8,184.2,74.4z"/>
		<path fill="#231815" stroke="#231815" stroke-width="0.9554" d="M184.2,73.7c-0.1-1.9,2.4-1.7,1.8,0.4c-0.9,0.6-2,0.3-2-0.9"/>
		<path fill="#FFFFFF" stroke="#231815" stroke-width="0.9554" stroke-linecap="round" stroke-linejoin="round" d="M142.8,61
			c-0.2,0-0.3-0.1-0.4-0.1c-0.8,1.4-2,4.1-0.5,4.8c1.1,0.6,3.1,1.1,4.3,1c-0.1,0,1.1-3.8,0.9-4.1C146.7,61.8,144.1,61.2,142.8,61z"
			/>
		<path fill="#231815" stroke="#231815" stroke-width="0.9554" stroke-linecap="round" stroke-linejoin="round" d="M142.1,65.1
			c-0.4-1.5,1.4-1.5,1.7-0.3c0.3,1.4-1.6,1-1.7-0.2"/>
		<path fill="#FFFFFF" d="M131.3,106.5c-2.1,1.9-4.2,5.4-1.2,7.5c5.7,4,7.3-4.4,2.1-6.4"/>
		<path fill="#FAD8C3" stroke="#231815" stroke-width="0.9554" d="M205.4,76.4c7.3,13.5-6.6,24.6-18.7,19.3"/>
		<path fill="none" stroke="#231815" stroke-width="0.9554" d="M81.2,95.1c-3.7,3.1-7.8,9.1-9.6,13.6"/>
		<path fill="none" stroke="#231815" stroke-width="0.9554" d="M74.8,96.4c-2,1.5-3.5,4.4-4.5,6.8"/>
		<path fill="none" stroke="#231815" stroke-width="0.9554" d="M226.4,122.8c1.4,3.9,0,10.9-2.7,14.1"/>
		<path fill="none" stroke="#231815" stroke-width="0.9554" d="M229.5,126.5c1,2.9,0.8,6.7-1.4,9.1"/>
	</g>
</g>
<g id="Layer_3">
</g>
<g id="Layer_2">
</g>
<g id="_1">
</g>
</svg>
